<svg xmlns="http://www.w3.org/2000/svg" xmlns:xlink="http://www.w3.org/1999/xlink" width="400" height="286.055" viewBox="0 0 400 286.055">
  <defs>
    <clipPath id="clip-path">
      <rect id="Rectángulo_383710" data-name="Rectángulo 383710" width="349.957" height="286.055" fill="none"/>
    </clipPath>
  </defs>
  <g id="Grupo_1074711" data-name="Grupo 1074711" transform="translate(-180 -2862)">
    <rect id="Rectángulo_383618" data-name="Rectángulo 383618" width="400" height="119" rx="7" transform="translate(180 2946)" fill="#1682fb"/>
    <g id="Grupo_1074710" data-name="Grupo 1074710" transform="translate(205 2862)">
      <g id="Grupo_1074705" data-name="Grupo 1074705">
        <g id="Grupo_1074704" data-name="Grupo 1074704" clip-path="url(#clip-path)">
          <path id="Trazado_827943" data-name="Trazado 827943" d="M378.6,75.061A75.061,75.061,0,1,1,303.536,0,75.062,75.062,0,0,1,378.6,75.061" transform="translate(-28.641 0)" fill="#e5f1ff"/>
          <path id="Trazado_827944" data-name="Trazado 827944" d="M130.756,260.448a43.872,43.872,0,1,1-43.872-43.872,43.872,43.872,0,0,1,43.872,43.872" transform="translate(-5.392 -27.149)" fill="#e5f1ff"/>
          <path id="Trazado_827945" data-name="Trazado 827945" d="M86.755,28.61a40.108,40.108,0,1,0,40.108,40.109A40.109,40.109,0,0,0,86.755,28.61m0,65.751A25.643,25.643,0,1,1,112.4,68.719,25.643,25.643,0,0,1,86.755,94.361" transform="translate(-5.847 -3.586)" fill="#a9ccea"/>
          <path id="Trazado_827946" data-name="Trazado 827946" d="M247.751,319.624a4.6,4.6,0,0,1-4.6,4.6H126.769a4.6,4.6,0,1,1,0-9.2h41.313l5.7-10.52h22.355l5.7,10.52h41.314a4.6,4.6,0,0,1,4.6,4.6" transform="translate(-15.314 -38.171)" fill="#0f3157"/>
          <rect id="Rectángulo_383673" data-name="Rectángulo 383673" width="19.068" height="5.589" transform="translate(159.15 256.795)" fill="#ff4d6b"/>
          <rect id="Rectángulo_383674" data-name="Rectángulo 383674" width="19.068" height="5.589" transform="translate(159.15 247.591)" fill="#ff4d6b"/>
          <path id="Trazado_827947" data-name="Trazado 827947" d="M360.633,253.187a29.8,29.8,0,1,1,16.456-15.478" transform="translate(-40.131 -24.51)" fill="none" stroke="#ff4d6b" stroke-linecap="round" stroke-linejoin="round" stroke-width="1.128" stroke-dasharray="0 5.638"/>
          <path id="Trazado_827948" data-name="Trazado 827948" d="M257.273,64.133h-4.761a39.217,39.217,0,0,0-4.88-11.783L251,48.985a3.716,3.716,0,0,0,0-5.255l-7.478-7.478a3.715,3.715,0,0,0-5.254,0L234.9,39.618a39.2,39.2,0,0,0-11.782-4.88v-4.76a3.717,3.717,0,0,0-3.716-3.716H208.828a3.717,3.717,0,0,0-3.716,3.716v4.76a39.2,39.2,0,0,0-11.782,4.88l-3.366-3.366a3.716,3.716,0,0,0-5.255,0l-7.477,7.478a3.716,3.716,0,0,0,0,5.255L180.6,52.35a39.194,39.194,0,0,0-4.879,11.783h-4.761a3.716,3.716,0,0,0-3.715,3.715V78.424a3.716,3.716,0,0,0,3.715,3.715h4.761A39.193,39.193,0,0,0,180.6,93.923l-3.365,3.365a3.716,3.716,0,0,0,0,5.255l7.477,7.478a3.717,3.717,0,0,0,5.255,0l3.366-3.366a39.2,39.2,0,0,0,11.782,4.88v4.76a3.716,3.716,0,0,0,3.716,3.715H219.4a3.716,3.716,0,0,0,3.716-3.715v-4.76a39.2,39.2,0,0,0,11.782-4.88l3.366,3.366a3.716,3.716,0,0,0,5.254,0L251,102.542a3.716,3.716,0,0,0,0-5.255l-3.366-3.365a39.217,39.217,0,0,0,4.88-11.783h4.761a3.716,3.716,0,0,0,3.715-3.715V67.849a3.716,3.716,0,0,0-3.715-3.715M214.115,92a18.864,18.864,0,1,1,18.863-18.863A18.864,18.864,0,0,1,214.115,92" transform="translate(-20.965 -3.292)" fill="#289df2"/>
          <path id="Rectángulo_383675" data-name="Rectángulo 383675" d="M11.468,0H270.59a11.468,11.468,0,0,1,11.468,11.468V165.559a11.467,11.467,0,0,1-11.467,11.467H11.467A11.467,11.467,0,0,1,0,165.559V11.468A11.468,11.468,0,0,1,11.468,0Z" transform="translate(28.615 68.052)" fill="#0f3775"/>
          <rect id="Rectángulo_383676" data-name="Rectángulo 383676" width="29.095" height="6.411" transform="translate(49.182 89.952)" fill="#284d89"/>
          <rect id="Rectángulo_383677" data-name="Rectángulo 383677" width="29.095" height="6.411" transform="translate(84.194 89.952)" fill="#284d89"/>
          <rect id="Rectángulo_383678" data-name="Rectángulo 383678" width="29.095" height="6.411" transform="translate(172.958 89.952)" fill="#284d89"/>
          <rect id="Rectángulo_383679" data-name="Rectángulo 383679" width="29.095" height="6.411" transform="translate(261.722 89.952)" fill="#284d89"/>
          <rect id="Rectángulo_383680" data-name="Rectángulo 383680" width="52.026" height="6.411" transform="translate(117.234 89.952)" fill="#ff4d6b"/>
          <rect id="Rectángulo_383681" data-name="Rectángulo 383681" width="52.026" height="6.411" transform="translate(205.504 89.952)" fill="#2889db"/>
          <rect id="Rectángulo_383682" data-name="Rectángulo 383682" width="5.096" height="3.123" transform="translate(49.346 84.857)" fill="#2889db"/>
          <rect id="Rectángulo_383683" data-name="Rectángulo 383683" width="53.176" height="3.123" transform="translate(49.346 101.623)" fill="#fff"/>
          <rect id="Rectángulo_383684" data-name="Rectángulo 383684" width="15.78" height="3.123" transform="translate(49.346 107.13)" fill="#fff"/>
          <path id="Trazado_827949" data-name="Trazado 827949" d="M112.765,239.809H63.452a6.657,6.657,0,0,1-6.657-6.657V143.895a6.656,6.656,0,0,1,6.657-6.657h49.313a6.656,6.656,0,0,1,6.657,6.657v89.257a6.657,6.657,0,0,1-6.657,6.657" transform="translate(-7.12 -17.204)" fill="#284d89"/>
          <rect id="Rectángulo_383685" data-name="Rectángulo 383685" width="20.958" height="3.206" transform="translate(57.566 135.074)" fill="#fff"/>
          <rect id="Rectángulo_383686" data-name="Rectángulo 383686" width="20.958" height="3.206" transform="translate(57.566 142.224)" fill="#fff"/>
          <rect id="Rectángulo_383687" data-name="Rectángulo 383687" width="20.958" height="3.206" transform="translate(57.566 149.375)" fill="#fff"/>
          <rect id="Rectángulo_383688" data-name="Rectángulo 383688" width="12.821" height="3.206" transform="translate(57.566 179.209)" fill="#fff"/>
          <rect id="Rectángulo_383689" data-name="Rectángulo 383689" width="12.821" height="3.206" transform="translate(57.566 186.359)" fill="#fff"/>
          <rect id="Rectángulo_383690" data-name="Rectángulo 383690" width="12.821" height="3.206" transform="translate(79.592 186.359)" fill="#fff"/>
          <rect id="Rectángulo_383691" data-name="Rectángulo 383691" width="8.055" height="3.206" transform="translate(57.566 171.072)" fill="#fff"/>
          <rect id="Rectángulo_383692" data-name="Rectángulo 383692" width="4.274" height="3.206" transform="translate(92.085 171.072)" fill="#fff"/>
          <rect id="Rectángulo_383693" data-name="Rectángulo 383693" width="22.026" height="3.206" transform="translate(68.415 171.072)" fill="#ff4d6b"/>
          <rect id="Rectángulo_383694" data-name="Rectángulo 383694" width="3.082" height="3.206" transform="translate(57.565 158.991)" fill="#2889db"/>
          <rect id="Rectángulo_383695" data-name="Rectángulo 383695" width="3.082" height="3.206" transform="translate(57.565 164.662)" fill="#ff4d6b"/>
          <path id="Trazado_827950" data-name="Trazado 827950" d="M85.2,216.9H84.045l2.753-4.109H87.95Z" transform="translate(-10.536 -26.674)" fill="#fff"/>
          <rect id="Rectángulo_383696" data-name="Rectángulo 383696" width="47.588" height="2.712" transform="translate(57.565 195.729)" fill="#282e5c"/>
          <rect id="Rectángulo_383697" data-name="Rectángulo 383697" width="47.588" height="2.712" transform="translate(57.565 201.894)" fill="#282e5c"/>
          <path id="Trazado_827951" data-name="Trazado 827951" d="M362.324,178.94H231.479a5.917,5.917,0,0,1-5.917-5.918V137.517a5.917,5.917,0,0,1,5.917-5.918H362.324a5.918,5.918,0,0,1,5.918,5.918v35.505a5.918,5.918,0,0,1-5.918,5.918" transform="translate(-28.276 -16.497)" fill="#289df2"/>
          <path id="Trazado_827952" data-name="Trazado 827952" d="M274.049,164.528s7.232-17.753,27.944-13.479,31.232,27.615,57.861,8.548" transform="translate(-34.354 -18.852)" fill="none" stroke="#fff" stroke-miterlimit="10" stroke-width="1.128"/>
          <rect id="Rectángulo_383698" data-name="Rectángulo 383698" width="2.959" height="2.959" transform="translate(303.802 146.663)" fill="#289df2"/>
          <rect id="Rectángulo_383699" data-name="Rectángulo 383699" width="2.959" height="2.959" transform="translate(303.802 146.663)" fill="none" stroke="#fff" stroke-miterlimit="10" stroke-width="1.128"/>
          <line id="Línea_324" data-name="Línea 324" x2="37.478" transform="translate(243.312 131.376)" fill="#289df2"/>
          <line id="Línea_325" data-name="Línea 325" x2="37.478" transform="translate(243.312 131.376)" fill="none" stroke="#fff" stroke-miterlimit="10" stroke-width="0.564"/>
          <line id="Línea_326" data-name="Línea 326" x2="37.478" transform="translate(286.543 148.964)" fill="#289df2"/>
          <line id="Línea_327" data-name="Línea 327" x2="37.478" transform="translate(286.543 148.964)" fill="none" stroke="#fff" stroke-miterlimit="10" stroke-width="0.564"/>
          <rect id="Rectángulo_383700" data-name="Rectángulo 383700" width="2.959" height="2.959" transform="translate(259.092 129.896)" fill="#289df2"/>
          <rect id="Rectángulo_383701" data-name="Rectángulo 383701" width="2.959" height="2.959" transform="translate(259.092 129.896)" fill="none" stroke="#fff" stroke-miterlimit="10" stroke-width="1.128"/>
          <path id="Trazado_827953" data-name="Trazado 827953" d="M249.463,192.329H221.19a4.274,4.274,0,0,1-4.274-4.274v-42.41a4.274,4.274,0,0,1,4.274-4.273h28.273a4.273,4.273,0,0,1,4.273,4.273v42.41a4.273,4.273,0,0,1-4.273,4.274" transform="translate(-27.192 -17.722)" fill="#284d89"/>
          <rect id="Rectángulo_383702" data-name="Rectángulo 383702" width="20.958" height="2.89" transform="translate(195.477 130.882)" fill="#fff"/>
          <rect id="Rectángulo_383703" data-name="Rectángulo 383703" width="20.958" height="2.89" transform="translate(195.477 137.328)" fill="#fff"/>
          <rect id="Rectángulo_383704" data-name="Rectángulo 383704" width="7.89" height="2.89" transform="translate(195.478 143.774)" fill="#fff"/>
          <rect id="Rectángulo_383705" data-name="Rectángulo 383705" width="13.644" height="2.89" transform="translate(195.478 150.442)" fill="#289df2"/>
          <rect id="Rectángulo_383706" data-name="Rectángulo 383706" width="9.206" height="2.89" transform="translate(195.478 156.888)" fill="#289df2"/>
          <rect id="Rectángulo_383707" data-name="Rectángulo 383707" width="9.206" height="2.89" transform="translate(195.478 163.334)" fill="#fff"/>
          <line id="Línea_328" data-name="Línea 328" x2="14.794" transform="translate(316.953 108.692)" fill="none" stroke="#284d89" stroke-linecap="round" stroke-linejoin="round" stroke-width="2.255"/>
          <path id="Trazado_827954" data-name="Trazado 827954" d="M301.6,219.391l-5.106,4-7.325,1.332s-6.883-.444-7.548-.444S276.3,220.5,276.3,220.5l-8.657-3.108-5.994,2.22-7.1-1.554-10.656-.666-10.211,4-8.436,1.332-7.548,2.442-8.436.667-9.1-7.1-8.436-1.554-8.657,4.884-6.883,2.22-7.812-.222-9.847,5.994h-5.871l-9.916,3.478" transform="translate(-17.892 -27.224)" fill="none" stroke="#ff5c66" stroke-miterlimit="10" stroke-width="1.015"/>
          <line id="Línea_329" data-name="Línea 329" x2="158.948" transform="translate(124.986 206.448)" fill="none" stroke="#f7f7f7" stroke-miterlimit="10" stroke-width="0.254"/>
          <rect id="Rectángulo_383708" data-name="Rectángulo 383708" width="1.628" height="3.996" transform="translate(123.432 204.45)" fill="#f7f7f7"/>
          <rect id="Rectángulo_383709" data-name="Rectángulo 383709" width="1.628" height="3.996" transform="translate(282.972 204.45)" fill="#f7f7f7"/>
          <line id="Línea_330" data-name="Línea 330" y1="13.393" transform="translate(283.786 193.055)" fill="none" stroke="#f7f7f7" stroke-miterlimit="10" stroke-width="0.254"/>
          <path id="Trazado_827955" data-name="Trazado 827955" d="M325.114,219.782a1.258,1.258,0,1,1-1.258-1.258,1.258,1.258,0,0,1,1.258,1.258" transform="translate(-40.44 -27.393)" fill="#f7f7f7"/>
        </g>
      </g>
      <text id="beta_test" data-name="beta test" transform="translate(125.208 214.575)" fill="#f7f7f7" font-size="5" font-family="BebasNeueRegular, Bebas Neue"><tspan x="0" y="0" letter-spacing="0.059em">b</tspan><tspan y="0" letter-spacing="0.06em">e</tspan><tspan y="0" letter-spacing="0.022em">t</tspan><tspan y="0" letter-spacing="0.059em">a </tspan><tspan y="0" letter-spacing="0.06em">te</tspan><tspan y="0" letter-spacing="0.059em">s</tspan><tspan y="0">t</tspan></text>
      <g id="Grupo_1074707" data-name="Grupo 1074707">
        <g id="Grupo_1074706" data-name="Grupo 1074706" clip-path="url(#clip-path)">
          <rect id="Rectángulo_383711" data-name="Rectángulo 383711" width="98.862" height="1.776" transform="translate(161.689 212.22)" fill="#28385e"/>
          <rect id="Rectángulo_383712" data-name="Rectángulo 383712" width="60.678" height="1.776" transform="translate(161.689 212.22)" fill="#ff4d6b"/>
          <rect id="Rectángulo_383713" data-name="Rectángulo 383713" width="48.617" height="1.776" transform="translate(161.689 215.623)" fill="#28385e"/>
          <path id="Trazado_827956" data-name="Trazado 827956" d="M148.862,252.339h5.994l.777-1.665h-12.1v2.775h4.218Z" transform="translate(-17.993 -31.424)" fill="#ff4d6b"/>
          <rect id="Rectángulo_383714" data-name="Rectángulo 383714" width="0.666" height="0.666" transform="translate(142.625 219.232)" fill="#f7f7f7"/>
          <rect id="Rectángulo_383715" data-name="Rectángulo 383715" width="0.666" height="0.666" transform="translate(146.761 219.232)" fill="#f7f7f7"/>
          <rect id="Rectángulo_383716" data-name="Rectángulo 383716" width="0.666" height="0.666" transform="translate(150.894 219.232)" fill="#f7f7f7"/>
        </g>
      </g>
      <text id="_500" data-name="500" transform="translate(276.014 186.702)" fill="#f7f7f7" font-size="5" font-family="BebasNeueRegular, Bebas Neue"><tspan x="0" y="0" letter-spacing="0.06em">5</tspan><tspan y="0" letter-spacing="0.059em">0</tspan><tspan y="0">0</tspan></text>
      <g id="Grupo_1074709" data-name="Grupo 1074709">
        <g id="Grupo_1074708" data-name="Grupo 1074708" clip-path="url(#clip-path)">
          <path id="Trazado_827957" data-name="Trazado 827957" d="M305.464,247.964h-1.48l-2.368-5.327h1.48Z" transform="translate(-37.81 -30.416)" fill="#28385e"/>
          <path id="Trazado_827958" data-name="Trazado 827958" d="M309.864,247.964h-1.48l-2.368-5.327h1.48Z" transform="translate(-38.361 -30.416)" fill="#28385e"/>
          <path id="Trazado_827959" data-name="Trazado 827959" d="M314.263,247.964h-1.48l-2.368-5.327h1.48Z" transform="translate(-38.913 -30.416)" fill="#28385e"/>
          <path id="Trazado_827960" data-name="Trazado 827960" d="M318.662,247.964h-1.48l-2.368-5.327h1.48Z" transform="translate(-39.464 -30.416)" fill="#28385e"/>
          <path id="Trazado_827961" data-name="Trazado 827961" d="M322.977,247.964H321.5l-2.368-5.327h1.48Z" transform="translate(-40.005 -30.416)" fill="#28385e"/>
          <rect id="Rectángulo_383718" data-name="Rectángulo 383718" width="24.064" height="4.31" transform="translate(252.484 34.113)" fill="#a9ccea"/>
          <rect id="Rectángulo_383719" data-name="Rectángulo 383719" width="36.284" height="4.309" transform="translate(252.484 41.825)" fill="#a9ccea"/>
          <rect id="Rectángulo_383720" data-name="Rectángulo 383720" width="44.744" height="4.31" transform="translate(252.484 49.538)" fill="#a9ccea"/>
          <rect id="Rectángulo_383721" data-name="Rectángulo 383721" width="17.108" height="4.31" transform="translate(252.484 57.251)" fill="#a9ccea"/>
          <rect id="Rectángulo_383722" data-name="Rectángulo 383722" width="24.064" height="4.31" transform="translate(0 86.056)" fill="#2889db"/>
          <rect id="Rectángulo_383723" data-name="Rectángulo 383723" width="36.284" height="4.309" transform="translate(0 93.769)" fill="#a9ccea"/>
          <rect id="Rectángulo_383724" data-name="Rectángulo 383724" width="44.744" height="4.31" transform="translate(0 101.481)" fill="#a9ccea"/>
          <rect id="Rectángulo_383725" data-name="Rectángulo 383725" width="17.108" height="4.31" transform="translate(0 109.194)" fill="#a9ccea"/>
          <rect id="Rectángulo_383726" data-name="Rectángulo 383726" width="102.571" height="13.315" transform="translate(60.031 237.399)" fill="none" stroke="#289df2" stroke-miterlimit="10" stroke-width="1.128"/>
          <rect id="Rectángulo_383727" data-name="Rectángulo 383727" width="4.931" height="30.245" transform="translate(109.509 132.527)" fill="none" stroke="#289df2" stroke-miterlimit="10" stroke-width="1.128"/>
          <path id="Trazado_827962" data-name="Trazado 827962" d="M368.784,227.177a17,17,0,1,1-17-17,17,17,0,0,1,17,17" transform="translate(-41.968 -26.348)" fill="#ff4d6b"/>
          <path id="Trazado_827963" data-name="Trazado 827963" d="M351.432,227.43l-6.751,2.473,6.751,2.452v2.535l-9.65-3.669v-2.636l9.65-3.669Z" transform="translate(-42.845 -28.195)" fill="#f9fbfc"/>
          <path id="Trazado_827964" data-name="Trazado 827964" d="M355.336,224.917l9.65,3.669v2.635l-9.65,3.67v-2.535l6.75-2.453-6.75-2.473Z" transform="translate(-44.544 -28.195)" fill="#f9fbfc"/>
          <circle id="Elipse_9910" data-name="Elipse 9910" cx="2.219" cy="2.219" r="2.219" transform="translate(333.719 212.496)" fill="none" stroke="#ff4d6b" stroke-miterlimit="10" stroke-width="1.128"/>
          <rect id="Rectángulo_383728" data-name="Rectángulo 383728" width="80.381" height="8.383" transform="translate(54.607 53.954)" fill="none" stroke="#289df2" stroke-miterlimit="10" stroke-width="1.128"/>
          <rect id="Rectángulo_383729" data-name="Rectángulo 383729" width="49.807" height="2.466" transform="translate(58.058 56.666)" fill="#289df2"/>
          <rect id="Rectángulo_383730" data-name="Rectángulo 383730" width="58.847" height="2.959" transform="translate(122.988 119.376)" fill="#284d89"/>
          <rect id="Rectángulo_383731" data-name="Rectángulo 383731" width="26.67" height="2.959" transform="translate(122.987 119.376)" fill="#2889db"/>
          <rect id="Rectángulo_383732" data-name="Rectángulo 383732" width="58.847" height="2.959" transform="translate(122.988 127.019)" fill="#284d89"/>
          <rect id="Rectángulo_383733" data-name="Rectángulo 383733" width="40.971" height="2.959" transform="translate(122.988 127.019)" fill="#ff4d6b"/>
          <rect id="Rectángulo_383734" data-name="Rectángulo 383734" width="58.847" height="2.959" transform="translate(122.988 134.663)" fill="#284d89"/>
          <rect id="Rectángulo_383735" data-name="Rectángulo 383735" width="11.999" height="2.959" transform="translate(122.988 134.663)" fill="#1ae5ff"/>
          <rect id="Rectángulo_383736" data-name="Rectángulo 383736" width="1.151" height="1.151" transform="translate(123.234 114.198)" fill="#284d89"/>
          <rect id="Rectángulo_383737" data-name="Rectángulo 383737" width="1.151" height="1.151" transform="translate(127.178 114.198)" fill="#284d89"/>
          <rect id="Rectángulo_383738" data-name="Rectángulo 383738" width="1.15" height="1.151" transform="translate(131.125 114.198)" fill="#284d89"/>
          <rect id="Rectángulo_383739" data-name="Rectángulo 383739" width="1.918" height="1.918" transform="translate(232.736 154.498)" fill="#fff"/>
          <rect id="Rectángulo_383740" data-name="Rectángulo 383740" width="1.918" height="1.918" transform="translate(239.311 154.498)" fill="#fff"/>
          <rect id="Rectángulo_383741" data-name="Rectángulo 383741" width="1.918" height="1.918" transform="translate(245.887 154.498)" fill="#fff"/>
          <rect id="Rectángulo_383742" data-name="Rectángulo 383742" width="3.596" height="3.596" transform="translate(260.417 78.292)" fill="#fff"/>
          <rect id="Rectángulo_383743" data-name="Rectángulo 383743" width="3.596" height="3.596" transform="translate(272.745 78.292)" fill="#fff"/>
          <rect id="Rectángulo_383744" data-name="Rectángulo 383744" width="3.596" height="3.596" transform="translate(285.074 78.292)" fill="#fff"/>
          <rect id="Rectángulo_383745" data-name="Rectángulo 383745" width="3.596" height="3.596" transform="translate(209.46 226.889)" fill="#fff"/>
          <rect id="Rectángulo_383746" data-name="Rectángulo 383746" width="3.596" height="3.596" transform="translate(221.789 226.889)" fill="#fff"/>
          <rect id="Rectángulo_383747" data-name="Rectángulo 383747" width="3.596" height="3.596" transform="translate(234.117 226.889)" fill="#fff"/>
          <rect id="Rectángulo_383748" data-name="Rectángulo 383748" width="1.917" height="1.918" transform="translate(58.607 127.321)" fill="#fff"/>
          <rect id="Rectángulo_383749" data-name="Rectángulo 383749" width="1.918" height="1.918" transform="translate(65.181 127.321)" fill="#fff"/>
          <rect id="Rectángulo_383750" data-name="Rectángulo 383750" width="1.918" height="1.918" transform="translate(71.757 127.321)" fill="#fff"/>
          <rect id="Rectángulo_383751" data-name="Rectángulo 383751" width="31.889" height="3.123" transform="translate(295.583 124.965)" fill="#fff"/>
          <rect id="Rectángulo_383752" data-name="Rectángulo 383752" width="9.464" height="3.123" transform="translate(295.583 130.471)" fill="#287dd1"/>
          <path id="Trazado_827965" data-name="Trazado 827965" d="M40.929,149.215h-6.9v-6.9H27.615v6.9h-6.9v6.41h6.9v6.9h6.411v-6.9h6.9Z" transform="translate(-2.596 -17.84)" fill="#1ae5ff"/>
          <path id="Trazado_827966" data-name="Trazado 827966" d="M20.938,171.59h-4.21v-4.21H12.82v4.21H8.61V175.5h4.21v4.21h3.909V175.5h4.21Z" transform="translate(-1.079 -20.982)" fill="#2889db"/>
          <path id="Trazado_827967" data-name="Trazado 827967" d="M152.893,167.991a10.8,10.8,0,1,0,10.8,10.8,10.8,10.8,0,0,0-10.8-10.8m0,16.423a5.627,5.627,0,1,1,5.627-5.627,5.626,5.626,0,0,1-5.627,5.627" transform="translate(-17.813 -21.059)" fill="#284d89"/>
          <path id="Trazado_827968" data-name="Trazado 827968" d="M145.663,177.723a2.644,2.644,0,0,0,2.339-1.49,5.624,5.624,0,0,1,10.023,0,2.641,2.641,0,0,0,2.338,1.49,2.581,2.581,0,0,0,2.351-3.677,10.8,10.8,0,0,0-19.4,0,2.581,2.581,0,0,0,2.351,3.676" transform="translate(-17.933 -21.059)" fill="#289df2"/>
          <path id="Trazado_827969" data-name="Trazado 827969" d="M175.172,178.788a10.8,10.8,0,1,0,10.8-10.8,10.8,10.8,0,0,0-10.8,10.8m16.423,0a5.626,5.626,0,1,1-5.627-5.627,5.626,5.626,0,0,1,5.627,5.627" transform="translate(-21.959 -21.059)" fill="#284d89"/>
          <path id="Trazado_827970" data-name="Trazado 827970" d="M184.905,186.258a2.644,2.644,0,0,0-1.49-2.339,5.624,5.624,0,0,1,0-10.023,2.642,2.642,0,0,0,1.49-2.338,2.581,2.581,0,0,0-3.677-2.351,10.8,10.8,0,0,0,0,19.4,2.581,2.581,0,0,0,3.677-2.351" transform="translate(-21.959 -21.179)" fill="#ff4d6b"/>
          <rect id="Rectángulo_383753" data-name="Rectángulo 383753" width="19.725" height="47.341" transform="translate(84.524 115.102)" fill="none" stroke="#289df2" stroke-miterlimit="10" stroke-width="1.128"/>
          <rect id="Rectángulo_383754" data-name="Rectángulo 383754" width="5.753" height="1.7" transform="translate(87.317 124.226)" fill="#1ae5ff"/>
          <rect id="Rectángulo_383755" data-name="Rectángulo 383755" width="5.753" height="1.7" transform="translate(87.317 128.019)" fill="#1ae5ff"/>
          <rect id="Rectángulo_383756" data-name="Rectángulo 383756" width="5.753" height="1.7" transform="translate(87.317 131.812)" fill="#1ae5ff"/>
          <rect id="Rectángulo_383757" data-name="Rectángulo 383757" width="5.753" height="1.7" transform="translate(87.317 151.537)" fill="#1ae5ff"/>
          <rect id="Rectángulo_383758" data-name="Rectángulo 383758" width="8.383" height="1.7" transform="translate(87.317 137.376)" fill="#1ae5ff"/>
          <rect id="Rectángulo_383759" data-name="Rectángulo 383759" width="8.383" height="1.7" transform="translate(87.317 141.169)" fill="#fff"/>
          <rect id="Rectángulo_383760" data-name="Rectángulo 383760" width="8.383" height="1.7" transform="translate(87.317 144.962)" fill="#fff"/>
          <rect id="Rectángulo_383761" data-name="Rectángulo 383761" width="24.985" height="24.985" transform="translate(13.841 174.279)" fill="#289df2"/>
          <rect id="Rectángulo_383762" data-name="Rectángulo 383762" width="24.985" height="24.985" transform="translate(0.691 180.196)" fill="none" stroke="#289df2" stroke-miterlimit="10" stroke-width="1.128"/>
          <rect id="Rectángulo_383763" data-name="Rectángulo 383763" width="10.52" height="10.52" transform="translate(311.035 246.604)" fill="none" stroke="#289df2" stroke-miterlimit="10" stroke-width="1.128"/>
          <path id="Trazado_827971" data-name="Trazado 827971" d="M211.279,262.543h8.877l4.931,4.931h51.286l7.89-7.89h27.615" transform="translate(-26.485 -32.541)" fill="none" stroke="#fff" stroke-miterlimit="10" stroke-width="1.128"/>
          <circle id="Elipse_9911" data-name="Elipse 9911" cx="2.589" cy="2.589" r="2.589" transform="translate(179.615 227.536)" fill="none" stroke="#fff" stroke-miterlimit="10" stroke-width="1.128"/>
          <circle id="Elipse_9912" data-name="Elipse 9912" cx="2.589" cy="2.589" r="2.589" transform="translate(285.474 224.331)" fill="none" stroke="#fff" stroke-miterlimit="10" stroke-width="1.128"/>
          <path id="Trazado_827972" data-name="Trazado 827972" d="M368.2,103.314a3.288,3.288,0,1,1-3.288-3.288,3.288,3.288,0,0,1,3.288,3.288" transform="translate(-45.332 -12.539)" fill="#289df2"/>
          <path id="Trazado_827973" data-name="Trazado 827973" d="M20.9,249.9a3.287,3.287,0,1,1-3.288-3.288A3.288,3.288,0,0,1,20.9,249.9" transform="translate(-1.795 -30.915)" fill="#ff4d6b"/>
          <path id="Trazado_827974" data-name="Trazado 827974" d="M37.48,263.457a5.753,5.753,0,1,1-5.753-5.753,5.753,5.753,0,0,1,5.753,5.753" transform="translate(-3.256 -32.305)" fill="#ff4d6b"/>
          <rect id="Rectángulo_383764" data-name="Rectángulo 383764" width="23.013" height="5.26" transform="translate(207.149 250.549)" fill="none" stroke="#289df2" stroke-miterlimit="10" stroke-width="1.128"/>
          <rect id="Rectángulo_383765" data-name="Rectángulo 383765" width="50.464" height="5.26" transform="translate(207.148 260.412)" fill="none" stroke="#289df2" stroke-miterlimit="10" stroke-width="1.128"/>
          <line id="Línea_331" data-name="Línea 331" x1="5.578" y2="5.578" transform="translate(60.592 255.587)" fill="none" stroke="#289df2" stroke-linecap="round" stroke-linejoin="round" stroke-width="1.128"/>
          <line id="Línea_332" data-name="Línea 332" x1="5.578" y2="5.578" transform="translate(65.955 255.587)" fill="none" stroke="#289df2" stroke-linecap="round" stroke-linejoin="round" stroke-width="1.128"/>
          <line id="Línea_333" data-name="Línea 333" x1="5.578" y2="5.578" transform="translate(71.318 255.587)" fill="none" stroke="#289df2" stroke-linecap="round" stroke-linejoin="round" stroke-width="1.128"/>
          <line id="Línea_334" data-name="Línea 334" x1="5.578" y2="5.578" transform="translate(76.681 255.587)" fill="none" stroke="#289df2" stroke-linecap="round" stroke-linejoin="round" stroke-width="1.128"/>
          <line id="Línea_335" data-name="Línea 335" x1="5.578" y2="5.578" transform="translate(82.044 255.587)" fill="none" stroke="#289df2" stroke-linecap="round" stroke-linejoin="round" stroke-width="1.128"/>
        </g>
      </g>
    </g>
  </g>
</svg>
