<svg xmlns="http://www.w3.org/2000/svg" width="85" height="85" viewBox="0 0 85 85">
  <g id="Grupo_1074747" data-name="Grupo 1074747" transform="translate(-197 -3405)">
    <rect id="Rectángulo_383621" data-name="Rectángulo 383621" width="85" height="85" rx="7" transform="translate(197 3405)" fill="#1682fb"/>
    <g id="algoritmo-_" data-name="algoritmo-&apos;" transform="translate(208 3424)">
      <path id="Trazado_828098" data-name="Trazado 828098" d="M99.063,59.993H50.126a1.747,1.747,0,0,1-1.747-1.747V26.6a1.747,1.747,0,0,1,1.747-1.747H99.063A1.747,1.747,0,0,1,100.81,26.6V58.246A1.747,1.747,0,0,1,99.063,59.993Zm0,0" transform="translate(-42.34 -21.746)" fill="#bce8f1"/>
      <path id="Trazado_828099" data-name="Trazado 828099" d="M99.208,24.848H92V52.485a1.6,1.6,0,0,1-1.6,1.6H48.379v4.3a1.6,1.6,0,0,0,1.6,1.6H99.208a1.6,1.6,0,0,0,1.6-1.6V26.45A1.6,1.6,0,0,0,99.208,24.848Zm0,0" transform="translate(-42.34 -21.746)" fill="#95dae8"/>
      <path id="Trazado_828100" data-name="Trazado 828100" d="M100.81,32.382V26.577a1.729,1.729,0,0,0-1.729-1.729H50.108a1.729,1.729,0,0,0-1.729,1.729v5.806Zm0,0" transform="translate(-42.34 -21.746)" fill="#f0feff"/>
      <path id="Trazado_828101" data-name="Trazado 828101" d="M404.91,24.848h-7.086v7.535h8.815V26.577A1.729,1.729,0,0,0,404.91,24.848Zm0,0" transform="translate(-348.169 -21.746)" fill="#def4f8"/>
      <path id="Trazado_828102" data-name="Trazado 828102" d="M87.732,46.917H30.949V11.085a3.663,3.663,0,0,1,3.664-3.663H84.068a3.663,3.663,0,0,1,3.663,3.663V46.917ZM36.445,40.85H82.236A1.145,1.145,0,0,0,83.381,39.7V12.917a1.145,1.145,0,0,0-1.145-1.145H36.445A1.145,1.145,0,0,0,35.3,12.917V39.705A1.145,1.145,0,0,0,36.445,40.85Zm0,0" transform="translate(-27.086 -6.496)" fill="#607882"/>
      <path id="Trazado_828103" data-name="Trazado 828103" d="M84.795,8V42.208a.878.878,0,0,1-.878.878H30.949v4.338H87.732V11.591A3.664,3.664,0,0,0,84.795,8Zm0,0" transform="translate(-27.086 -7.001)" fill="#495959"/>
      <path id="Trazado_828104" data-name="Trazado 828104" d="M64.233,315.733H12.664a5.242,5.242,0,0,1-5.242-5.242v-.646a.6.6,0,0,1,.6-.6H68.873a.6.6,0,0,1,.6.6v.646A5.242,5.242,0,0,1,64.233,315.733Zm0,0" transform="translate(-6.496 -270.644)" fill="#607882"/>
      <path id="Trazado_828105" data-name="Trazado 828105" d="M77.628,309.242h-5.6a5.188,5.188,0,0,1-5.162,4.676H17.418a5.173,5.173,0,0,0,3.94,1.815H73.036a5.187,5.187,0,0,0,5.187-5.187v-.708A.6.6,0,0,0,77.628,309.242Zm0,0" transform="translate(-15.244 -270.644)" fill="#495959"/>
      <g id="Grupo_1074746" data-name="Grupo 1074746" transform="translate(15.257 13.185)">
        <path id="Trazado_828106" data-name="Trazado 828106" d="M123.316,107.166h-.772c-.2,0-.305-.072-.305-.317,0-.221.119-.281.431-.341l.221-.048c.665-.144.479-.826.988-.826.192,0,.347.084.347.407v3.4c0,.311-.119.527-.455.527s-.455-.215-.455-.527Zm0,0" transform="translate(-122.238 -105.633)" fill="#607882"/>
        <path id="Trazado_828107" data-name="Trazado 828107" d="M155.255,105.633c.97,0,1.6.7,1.6,2.114,0,1.059-.335,2.221-1.6,2.221s-1.6-1.161-1.6-2.221C153.656,106.333,154.285,105.633,155.255,105.633Zm0,3.616c.461,0,.724-.377.724-1.449,0-.9-.2-1.449-.724-1.449s-.725.551-.725,1.449C154.53,108.872,154.794,109.249,155.255,109.249Zm0,0" transform="translate(-149.735 -105.633)" fill="#607882"/>
        <path id="Trazado_828108" data-name="Trazado 828108" d="M194.2,105.633c.97,0,1.6.7,1.6,2.114,0,1.059-.335,2.221-1.6,2.221s-1.6-1.161-1.6-2.221C192.605,106.333,193.234,105.633,194.2,105.633Zm0,3.616c.461,0,.725-.377.725-1.449,0-.9-.2-1.449-.725-1.449s-.724.551-.724,1.449C193.48,108.872,193.743,109.249,194.2,109.249Zm0,0" transform="translate(-183.823 -105.633)" fill="#607882"/>
        <path id="Trazado_828109" data-name="Trazado 828109" d="M230.331,107.166h-.772c-.2,0-.305-.072-.305-.317,0-.221.119-.281.431-.341l.222-.048c.665-.144.479-.826.988-.826.192,0,.347.084.347.407v3.4c0,.311-.119.527-.455.527s-.455-.215-.455-.527Zm0,0" transform="translate(-215.897 -105.633)" fill="#607882"/>
        <path id="Trazado_828110" data-name="Trazado 828110" d="M262.27,105.633c.97,0,1.6.7,1.6,2.114,0,1.059-.335,2.221-1.6,2.221s-1.6-1.161-1.6-2.221C260.672,106.333,261.3,105.633,262.27,105.633Zm0,3.616c.461,0,.725-.377.725-1.449,0-.9-.2-1.449-.725-1.449s-.724.551-.724,1.449C261.546,108.872,261.809,109.249,262.27,109.249Zm0,0" transform="translate(-243.393 -105.633)" fill="#607882"/>
        <path id="Trazado_828111" data-name="Trazado 828111" d="M298.394,107.166h-.772c-.2,0-.305-.072-.305-.317,0-.221.12-.281.431-.341l.222-.048c.664-.144.479-.826.988-.826.191,0,.347.084.347.407v3.4c0,.311-.12.527-.455.527s-.455-.215-.455-.527Zm0,0" transform="translate(-275.464 -105.633)" fill="#607882"/>
        <path id="Trazado_828112" data-name="Trazado 828112" d="M330.333,105.633c.97,0,1.6.7,1.6,2.114,0,1.059-.335,2.221-1.6,2.221s-1.6-1.161-1.6-2.221C328.734,106.333,329.363,105.633,330.333,105.633Zm0,3.616c.461,0,.725-.377.725-1.449,0-.9-.2-1.449-.725-1.449s-.724.551-.724,1.449C329.609,108.872,329.872,109.249,330.333,109.249Zm0,0" transform="translate(-302.96 -105.633)" fill="#607882"/>
        <path id="Trazado_828113" data-name="Trazado 828113" d="M369.282,105.633c.97,0,1.6.7,1.6,2.114,0,1.059-.335,2.221-1.6,2.221s-1.6-1.161-1.6-2.221C367.684,106.333,368.312,105.633,369.282,105.633Zm0,3.616c.461,0,.725-.377.725-1.449,0-.9-.2-1.449-.725-1.449s-.724.551-.724,1.449C368.558,108.872,368.821,109.249,369.282,109.249Zm0,0" transform="translate(-337.048 -105.633)" fill="#607882"/>
        <path id="Trazado_828114" data-name="Trazado 828114" d="M126.138,158.246c.97,0,1.6.7,1.6,2.113,0,1.06-.335,2.221-1.6,2.221s-1.6-1.161-1.6-2.221C124.539,158.947,125.168,158.246,126.138,158.246Zm0,3.616c.461,0,.725-.377.725-1.449,0-.9-.2-1.449-.725-1.449s-.725.551-.725,1.449C125.413,161.485,125.677,161.862,126.138,161.862Zm0,0" transform="translate(-124.252 -151.679)" fill="#607882"/>
        <path id="Trazado_828115" data-name="Trazado 828115" d="M162.265,159.779h-.772c-.2,0-.305-.072-.305-.317,0-.222.12-.282.431-.341l.221-.048c.665-.143.479-.826.988-.826.192,0,.347.084.347.407v3.4c0,.311-.119.527-.455.527s-.455-.215-.455-.527Zm0,0" transform="translate(-156.326 -151.679)" fill="#607882"/>
        <path id="Trazado_828116" data-name="Trazado 828116" d="M194.2,158.246c.97,0,1.6.7,1.6,2.113,0,1.06-.335,2.221-1.6,2.221s-1.6-1.161-1.6-2.221C192.605,158.947,193.234,158.246,194.2,158.246Zm0,3.616c.461,0,.725-.377.725-1.449,0-.9-.2-1.449-.725-1.449s-.724.551-.724,1.449C193.48,161.485,193.743,161.862,194.2,161.862Zm0,0" transform="translate(-183.823 -151.679)" fill="#607882"/>
        <path id="Trazado_828117" data-name="Trazado 828117" d="M230.331,159.779h-.772c-.2,0-.305-.072-.305-.317,0-.222.119-.282.431-.341l.222-.048c.665-.143.479-.826.988-.826.192,0,.347.084.347.407v3.4c0,.311-.119.527-.455.527s-.455-.215-.455-.527Zm0,0" transform="translate(-215.897 -151.679)" fill="#607882"/>
        <path id="Trazado_828118" data-name="Trazado 828118" d="M262.27,158.246c.97,0,1.6.7,1.6,2.113,0,1.06-.335,2.221-1.6,2.221s-1.6-1.161-1.6-2.221C260.672,158.947,261.3,158.246,262.27,158.246Zm0,3.616c.461,0,.725-.377.725-1.449,0-.9-.2-1.449-.725-1.449s-.724.551-.724,1.449C261.546,161.485,261.809,161.862,262.27,161.862Zm0,0" transform="translate(-243.393 -151.679)" fill="#607882"/>
        <path id="Trazado_828119" data-name="Trazado 828119" d="M301.216,158.246c.97,0,1.6.7,1.6,2.113,0,1.06-.335,2.221-1.6,2.221s-1.6-1.161-1.6-2.221C299.617,158.947,300.246,158.246,301.216,158.246Zm0,3.616c.461,0,.725-.377.725-1.449,0-.9-.2-1.449-.725-1.449s-.724.551-.724,1.449C300.491,161.485,300.755,161.862,301.216,161.862Zm0,0" transform="translate(-277.477 -151.679)" fill="#607882"/>
        <path id="Trazado_828120" data-name="Trazado 828120" d="M340.165,158.246c.97,0,1.6.7,1.6,2.113,0,1.06-.335,2.221-1.6,2.221s-1.6-1.161-1.6-2.221C338.566,158.947,339.2,158.246,340.165,158.246Zm0,3.616c.461,0,.724-.377.724-1.449,0-.9-.2-1.449-.724-1.449s-.725.551-.725,1.449C339.441,161.485,339.7,161.862,340.165,161.862Zm0,0" transform="translate(-311.565 -151.679)" fill="#607882"/>
        <path id="Trazado_828121" data-name="Trazado 828121" d="M376.292,159.779h-.772c-.2,0-.305-.072-.305-.317,0-.222.119-.282.431-.341l.221-.048c.665-.143.479-.826.988-.826.192,0,.347.084.347.407v3.4c0,.311-.119.527-.455.527s-.455-.215-.455-.527Zm0,0" transform="translate(-343.639 -151.679)" fill="#607882"/>
        <path id="Trazado_828122" data-name="Trazado 828122" d="M123.316,212.392h-.772c-.2,0-.305-.072-.305-.317,0-.222.119-.282.431-.341l.221-.048c.665-.143.479-.826.988-.826.192,0,.347.084.347.407v3.4c0,.312-.119.527-.455.527s-.455-.216-.455-.527Zm0,0" transform="translate(-122.238 -197.725)" fill="#607882"/>
        <path id="Trazado_828123" data-name="Trazado 828123" d="M155.255,210.859c.97,0,1.6.7,1.6,2.113,0,1.06-.335,2.221-1.6,2.221s-1.6-1.161-1.6-2.221C153.656,211.56,154.285,210.859,155.255,210.859Zm0,3.616c.461,0,.724-.377.724-1.449,0-.9-.2-1.449-.724-1.449s-.725.551-.725,1.449C154.53,214.1,154.794,214.475,155.255,214.475Zm0,0" transform="translate(-149.735 -197.725)" fill="#607882"/>
        <path id="Trazado_828124" data-name="Trazado 828124" d="M191.382,212.392h-.772c-.2,0-.305-.072-.305-.317,0-.222.119-.282.431-.341l.221-.048c.665-.143.479-.826.988-.826.192,0,.347.084.347.407v3.4c0,.312-.12.527-.455.527s-.455-.216-.455-.527Zm0,0" transform="translate(-181.809 -197.725)" fill="#607882"/>
        <path id="Trazado_828125" data-name="Trazado 828125" d="M223.321,210.859c.97,0,1.6.7,1.6,2.113,0,1.06-.335,2.221-1.6,2.221s-1.6-1.161-1.6-2.221C221.723,211.56,222.351,210.859,223.321,210.859Zm0,3.616c.461,0,.725-.377.725-1.449,0-.9-.2-1.449-.725-1.449s-.725.551-.725,1.449C222.6,214.1,222.86,214.475,223.321,214.475Zm0,0" transform="translate(-209.305 -197.725)" fill="#607882"/>
        <path id="Trazado_828126" data-name="Trazado 828126" d="M262.27,210.859c.97,0,1.6.7,1.6,2.113,0,1.06-.335,2.221-1.6,2.221s-1.6-1.161-1.6-2.221C260.672,211.56,261.3,210.859,262.27,210.859Zm0,3.616c.461,0,.725-.377.725-1.449,0-.9-.2-1.449-.725-1.449s-.724.551-.724,1.449C261.546,214.1,261.809,214.475,262.27,214.475Zm0,0" transform="translate(-243.393 -197.725)" fill="#607882"/>
        <path id="Trazado_828127" data-name="Trazado 828127" d="M298.394,212.392h-.772c-.2,0-.305-.072-.305-.317,0-.222.12-.282.431-.341l.222-.048c.664-.143.479-.826.988-.826.191,0,.347.084.347.407v3.4c0,.312-.12.527-.455.527s-.455-.216-.455-.527Zm0,0" transform="translate(-275.464 -197.725)" fill="#607882"/>
        <path id="Trazado_828128" data-name="Trazado 828128" d="M330.333,210.859c.97,0,1.6.7,1.6,2.113,0,1.06-.335,2.221-1.6,2.221s-1.6-1.161-1.6-2.221C328.734,211.56,329.363,210.859,330.333,210.859Zm0,3.616c.461,0,.725-.377.725-1.449,0-.9-.2-1.449-.725-1.449s-.724.551-.724,1.449C329.609,214.1,329.872,214.475,330.333,214.475Zm0,0" transform="translate(-302.96 -197.725)" fill="#607882"/>
        <path id="Trazado_828129" data-name="Trazado 828129" d="M369.282,210.859c.97,0,1.6.7,1.6,2.113,0,1.06-.335,2.221-1.6,2.221s-1.6-1.161-1.6-2.221C367.684,211.56,368.312,210.859,369.282,210.859Zm0,3.616c.461,0,.725-.377.725-1.449,0-.9-.2-1.449-.725-1.449s-.724.551-.724,1.449C368.558,214.1,368.821,214.475,369.282,214.475Zm0,0" transform="translate(-337.048 -197.725)" fill="#607882"/>
      </g>
      <path id="Trazado_828130" data-name="Trazado 828130" d="M106.246,65.782a2.073,2.073,0,0,0,2.071-2.071V36.923a2.074,2.074,0,0,0-2.071-2.071H60.454a2.073,2.073,0,0,0-2.071,2.071V63.711a2.073,2.073,0,0,0,2.071,2.071Zm-46.01-2.071V42.064H92.762a.926.926,0,0,0,0-1.853H60.236V36.923a.219.219,0,0,1,.218-.218h45.792a.219.219,0,0,1,.218.218v3.289h-9.3a.926.926,0,1,0,0,1.853h9.3V63.711a.219.219,0,0,1-.218.219H60.454A.219.219,0,0,1,60.236,63.711Zm0,0" transform="translate(-51.096 -30.502)"/>
      <path id="Trazado_828131" data-name="Trazado 828131" d="M62.384,37.672h-.812V4.589A4.6,4.6,0,0,0,56.982,0H7.526a4.564,4.564,0,0,0-3.9,2.173A.926.926,0,1,0,5.2,3.15a2.723,2.723,0,0,1,2.328-1.3H56.982a2.74,2.74,0,0,1,2.737,2.737V37.672H59.45a.926.926,0,0,0,0,1.852h2.6V39.9a4.265,4.265,0,0,1-4.261,4.261H6.114A4.265,4.265,0,0,1,1.853,39.9v-.376l53.344.183h0a.926.926,0,0,0,0-1.853L4.789,37.683V6.836a.926.926,0,0,0-1.853,0V37.677l-1.414,0A1.524,1.524,0,0,0,0,39.194V39.9a6.12,6.12,0,0,0,6.114,6.114H57.792A6.12,6.12,0,0,0,63.906,39.9v-.707A1.524,1.524,0,0,0,62.384,37.672Zm0,0"/>
      <path id="Trazado_828132" data-name="Trazado 828132" d="M122.543,107.166h.772v2.275c0,.311.12.527.455.527s.455-.215.455-.527v-3.4c0-.323-.156-.407-.347-.407-.509,0-.323.683-.988.826l-.221.048c-.312.06-.431.12-.431.341C122.238,107.094,122.346,107.166,122.543,107.166Zm0,0" transform="translate(-106.981 -92.448)"/>
      <path id="Trazado_828133" data-name="Trazado 828133" d="M155.255,109.967c1.263,0,1.6-1.161,1.6-2.221,0-1.412-.628-2.113-1.6-2.113s-1.6.7-1.6,2.113C153.656,108.806,153.992,109.967,155.255,109.967Zm0-3.616c.527,0,.724.55.724,1.449,0,1.072-.263,1.449-.724,1.449s-.725-.377-.725-1.449C154.53,106.9,154.728,106.351,155.255,106.351Zm0,0" transform="translate(-134.478 -92.448)"/>
      <path id="Trazado_828134" data-name="Trazado 828134" d="M194.2,109.967c1.263,0,1.6-1.161,1.6-2.221,0-1.412-.628-2.113-1.6-2.113s-1.6.7-1.6,2.113C192.605,108.806,192.941,109.967,194.2,109.967Zm0-3.616c.527,0,.725.55.725,1.449,0,1.072-.263,1.449-.725,1.449s-.724-.377-.724-1.449C193.48,106.9,193.677,106.351,194.2,106.351Zm0,0" transform="translate(-168.565 -92.448)"/>
      <path id="Trazado_828135" data-name="Trazado 828135" d="M229.559,107.166h.772v2.275c0,.311.119.527.455.527s.455-.215.455-.527v-3.4c0-.323-.156-.407-.347-.407-.509,0-.323.683-.988.826l-.221.048c-.312.06-.431.12-.431.341C229.254,107.094,229.362,107.166,229.559,107.166Zm0,0" transform="translate(-200.639 -92.448)"/>
      <path id="Trazado_828136" data-name="Trazado 828136" d="M262.27,109.967c1.263,0,1.6-1.161,1.6-2.221,0-1.412-.628-2.113-1.6-2.113s-1.6.7-1.6,2.113C260.672,108.806,261.007,109.967,262.27,109.967Zm0-3.616c.527,0,.725.55.725,1.449,0,1.072-.263,1.449-.725,1.449s-.724-.377-.724-1.449C261.546,106.9,261.744,106.351,262.27,106.351Zm0,0" transform="translate(-228.136 -92.448)"/>
      <path id="Trazado_828137" data-name="Trazado 828137" d="M297.622,107.166h.772v2.275c0,.311.12.527.455.527s.455-.215.455-.527v-3.4c0-.323-.156-.407-.347-.407-.509,0-.324.683-.988.826l-.222.048c-.311.06-.431.12-.431.341C297.316,107.094,297.424,107.166,297.622,107.166Zm0,0" transform="translate(-260.207 -92.448)"/>
      <path id="Trazado_828138" data-name="Trazado 828138" d="M330.333,109.967c1.263,0,1.6-1.161,1.6-2.221,0-1.412-.628-2.113-1.6-2.113s-1.6.7-1.6,2.113C328.734,108.806,329.07,109.967,330.333,109.967Zm0-3.616c.527,0,.725.55.725,1.449,0,1.072-.264,1.449-.725,1.449s-.724-.377-.724-1.449C329.609,106.9,329.806,106.351,330.333,106.351Zm0,0" transform="translate(-287.703 -92.448)"/>
      <path id="Trazado_828139" data-name="Trazado 828139" d="M369.282,109.967c1.263,0,1.6-1.161,1.6-2.221,0-1.412-.628-2.113-1.6-2.113s-1.6.7-1.6,2.113C367.684,108.806,368.019,109.967,369.282,109.967Zm0-3.616c.527,0,.725.55.725,1.449,0,1.072-.263,1.449-.725,1.449s-.724-.377-.724-1.449C368.558,106.9,368.755,106.351,369.282,106.351Zm0,0" transform="translate(-321.791 -92.448)"/>
      <path id="Trazado_828140" data-name="Trazado 828140" d="M124.539,160.36c0,1.059.335,2.221,1.6,2.221s1.6-1.161,1.6-2.221c0-1.413-.628-2.114-1.6-2.114S124.539,158.947,124.539,160.36Zm2.323.054c0,1.072-.264,1.449-.725,1.449s-.725-.377-.725-1.449c0-.9.2-1.449.725-1.449S126.862,159.515,126.862,160.413Zm0,0" transform="translate(-108.995 -138.494)"/>
      <path id="Trazado_828141" data-name="Trazado 828141" d="M162.72,162.581c.335,0,.455-.215.455-.527v-3.4c0-.323-.156-.407-.348-.407-.509,0-.323.683-.988.826l-.221.048c-.311.06-.431.12-.431.341,0,.245.108.317.305.317h.772v2.275C162.265,162.365,162.385,162.581,162.72,162.581Zm0,0" transform="translate(-141.069 -138.494)"/>
      <path id="Trazado_828142" data-name="Trazado 828142" d="M194.2,162.581c1.263,0,1.6-1.161,1.6-2.221,0-1.413-.628-2.114-1.6-2.114s-1.6.7-1.6,2.114C192.605,161.419,192.941,162.581,194.2,162.581Zm0-3.616c.527,0,.725.55.725,1.449,0,1.072-.263,1.449-.725,1.449s-.724-.377-.724-1.449C193.48,159.515,193.677,158.965,194.2,158.965Zm0,0" transform="translate(-168.565 -138.494)"/>
      <path id="Trazado_828143" data-name="Trazado 828143" d="M229.559,159.779h.772v2.275c0,.311.119.527.455.527s.455-.215.455-.527v-3.4c0-.323-.156-.407-.347-.407-.509,0-.323.683-.988.826l-.221.048c-.312.06-.431.12-.431.341C229.254,159.707,229.362,159.779,229.559,159.779Zm0,0" transform="translate(-200.639 -138.494)"/>
      <path id="Trazado_828144" data-name="Trazado 828144" d="M262.27,162.581c1.263,0,1.6-1.161,1.6-2.221,0-1.413-.628-2.114-1.6-2.114s-1.6.7-1.6,2.114C260.672,161.419,261.007,162.581,262.27,162.581Zm0-3.616c.527,0,.725.55.725,1.449,0,1.072-.263,1.449-.725,1.449s-.724-.377-.724-1.449C261.546,159.515,261.744,158.965,262.27,158.965Zm0,0" transform="translate(-228.136 -138.494)"/>
      <path id="Trazado_828145" data-name="Trazado 828145" d="M299.617,160.36c0,1.059.335,2.221,1.6,2.221s1.6-1.161,1.6-2.221c0-1.413-.628-2.114-1.6-2.114S299.617,158.947,299.617,160.36Zm2.323.054c0,1.072-.264,1.449-.725,1.449s-.724-.377-.724-1.449c0-.9.2-1.449.724-1.449S301.94,159.515,301.94,160.413Zm0,0" transform="translate(-262.22 -138.494)"/>
      <path id="Trazado_828146" data-name="Trazado 828146" d="M338.566,160.36c0,1.059.335,2.221,1.6,2.221s1.6-1.161,1.6-2.221c0-1.413-.628-2.114-1.6-2.114S338.566,158.947,338.566,160.36Zm2.323.054c0,1.072-.264,1.449-.724,1.449s-.725-.377-.725-1.449c0-.9.2-1.449.725-1.449S340.89,159.515,340.89,160.413Zm0,0" transform="translate(-296.308 -138.494)"/>
      <path id="Trazado_828147" data-name="Trazado 828147" d="M376.747,162.581c.335,0,.455-.215.455-.527v-3.4c0-.323-.156-.407-.347-.407-.509,0-.323.683-.988.826l-.221.048c-.312.06-.431.12-.431.341,0,.245.108.317.305.317h.772v2.275C376.292,162.365,376.412,162.581,376.747,162.581Zm0,0" transform="translate(-328.382 -138.494)"/>
      <path id="Trazado_828148" data-name="Trazado 828148" d="M122.543,212.392h.772v2.275c0,.312.12.527.455.527s.455-.216.455-.527v-3.4c0-.323-.156-.407-.347-.407-.509,0-.323.683-.988.826l-.221.048c-.312.06-.431.119-.431.341C122.238,212.32,122.346,212.392,122.543,212.392Zm0,0" transform="translate(-106.981 -184.541)"/>
      <path id="Trazado_828149" data-name="Trazado 828149" d="M155.255,215.194c1.263,0,1.6-1.161,1.6-2.221,0-1.412-.628-2.113-1.6-2.113s-1.6.7-1.6,2.113C153.656,214.032,153.992,215.194,155.255,215.194Zm0-3.616c.527,0,.724.551.724,1.449,0,1.072-.263,1.449-.724,1.449s-.725-.377-.725-1.449C154.53,212.129,154.728,211.578,155.255,211.578Zm0,0" transform="translate(-134.478 -184.541)"/>
      <path id="Trazado_828150" data-name="Trazado 828150" d="M190.61,212.392h.772v2.275c0,.312.12.527.455.527s.455-.216.455-.527v-3.4c0-.323-.156-.407-.348-.407-.509,0-.323.683-.988.826l-.221.048c-.311.06-.431.119-.431.341C190.3,212.32,190.412,212.392,190.61,212.392Zm0,0" transform="translate(-166.552 -184.541)"/>
      <path id="Trazado_828151" data-name="Trazado 828151" d="M223.321,215.194c1.263,0,1.6-1.161,1.6-2.221,0-1.412-.629-2.113-1.6-2.113s-1.6.7-1.6,2.113C221.723,214.032,222.058,215.194,223.321,215.194Zm0-3.616c.527,0,.725.551.725,1.449,0,1.072-.263,1.449-.725,1.449s-.725-.377-.725-1.449C222.6,212.129,222.794,211.578,223.321,211.578Zm0,0" transform="translate(-194.048 -184.541)"/>
      <path id="Trazado_828152" data-name="Trazado 828152" d="M262.27,215.194c1.263,0,1.6-1.161,1.6-2.221,0-1.412-.628-2.113-1.6-2.113s-1.6.7-1.6,2.113C260.672,214.032,261.007,215.194,262.27,215.194Zm0-3.616c.527,0,.725.551.725,1.449,0,1.072-.263,1.449-.725,1.449s-.724-.377-.724-1.449C261.546,212.129,261.744,211.578,262.27,211.578Zm0,0" transform="translate(-228.136 -184.541)"/>
      <path id="Trazado_828153" data-name="Trazado 828153" d="M297.622,212.392h.772v2.275c0,.312.12.527.455.527s.455-.216.455-.527v-3.4c0-.323-.156-.407-.347-.407-.509,0-.324.683-.988.826l-.222.048c-.311.06-.431.119-.431.341C297.316,212.32,297.424,212.392,297.622,212.392Zm0,0" transform="translate(-260.207 -184.541)"/>
      <path id="Trazado_828154" data-name="Trazado 828154" d="M330.333,215.194c1.263,0,1.6-1.161,1.6-2.221,0-1.412-.628-2.113-1.6-2.113s-1.6.7-1.6,2.113C328.734,214.032,329.07,215.194,330.333,215.194Zm0-3.616c.527,0,.725.551.725,1.449,0,1.072-.264,1.449-.725,1.449s-.724-.377-.724-1.449C329.609,212.129,329.806,211.578,330.333,211.578Zm0,0" transform="translate(-287.703 -184.541)"/>
      <path id="Trazado_828155" data-name="Trazado 828155" d="M369.282,215.194c1.263,0,1.6-1.161,1.6-2.221,0-1.412-.628-2.113-1.6-2.113s-1.6.7-1.6,2.113C367.684,214.032,368.019,215.194,369.282,215.194Zm0-3.616c.527,0,.725.551.725,1.449,0,1.072-.263,1.449-.725,1.449s-.724-.377-.724-1.449C368.558,212.129,368.755,211.578,369.282,211.578Zm0,0" transform="translate(-321.791 -184.541)"/>
    </g>
  </g>
</svg>
