<svg xmlns="http://www.w3.org/2000/svg" xmlns:xlink="http://www.w3.org/1999/xlink" width="400" height="476" viewBox="0 0 400 476">
  <defs>
    <clipPath id="clip-path">
      <rect id="Rectángulo_383671" data-name="Rectángulo 383671" width="400" height="476" rx="7" transform="translate(180 3803)" fill="#1682fb"/>
    </clipPath>
    <clipPath id="clip-path-2">
      <rect id="Rectángulo_383670" data-name="Rectángulo 383670" width="515" height="469.592" fill="none"/>
    </clipPath>
  </defs>
  <g id="Grupo_1074701" data-name="Grupo 1074701" transform="translate(-180 -3803)">
    <rect id="Rectángulo_383622" data-name="Rectángulo 383622" width="198" height="435" rx="7" transform="translate(229 3844)" fill="#1682fb"/>
    <g id="Enmascarar_grupo_179" data-name="Enmascarar grupo 179" clip-path="url(#clip-path)">
      <g id="Grupo_1074700" data-name="Grupo 1074700" transform="translate(77.619 3803)">
        <g id="Grupo_1074699" data-name="Grupo 1074699" transform="translate(9 8)" clip-path="url(#clip-path-2)">
          <path id="Trazado_827844" data-name="Trazado 827844" d="M315.033,174.328H107.88a25.1,25.1,0,0,1-25.024-25.021V30.565A25.1,25.1,0,0,1,107.88,5.541H315.033a25.1,25.1,0,0,1,25.021,25.024V149.307a25.1,25.1,0,0,1-25.021,25.021" transform="translate(173.976 11.635)" fill="#fff"/>
          <path id="Trazado_827845" data-name="Trazado 827845" d="M316.834,5.541H106.073a23.286,23.286,0,0,0-23.217,23.22v1.432h257.2V28.761a23.289,23.289,0,0,0-23.22-23.22" transform="translate(173.976 11.635)" fill="#1a1a1a"/>
          <path id="Trazado_827846" data-name="Trazado 827846" d="M140.445,105.966H249.131a28.111,28.111,0,0,1,28.031,28.028v63.842a28.112,28.112,0,0,1-28.031,28.031H140.445a28.111,28.111,0,0,1-28.028-28.031V133.994a28.111,28.111,0,0,1,28.028-28.028" transform="translate(236.046 222.501)" fill="#1a1a1a"/>
          <path id="Trazado_827847" data-name="Trazado 827847" d="M279.611,98.91l-8.844,26.958s-8.171-27.293-31.19-36.155-35.65-6.24-35.65-6.24,6.823-4.718,5.939-10.7-10.784-10.744-10.784-10.744l-37.715,1.351s-8.847,3.292-9.4,9.891a11.793,11.793,0,0,0,4.7,10.2s-20.232-1.029-31.971,4.333S96.692,99.629,88,125.868s-9.541,56.037-9.541,56.037L38.935,191.936s-11.178,6.767-9.47,11.051l8.075,44.68s8.63,37.392,36.326,37.361,34.841-20.44,34.841-20.44-7.889,58.6-14.116,73.786H265.2s-12.579-48.34-16.432-87.245c0,0-3.853-30.1-2.021-42.02,0,0,3.624,32.352,26.621,37.776s36.989-7.532,45.055-26.6,12.833-53.864,14.5-64.279,7.47-47.888,7.47-47.888,1.128-7.9-27.1-11.934-31.422-3.357-33.676,2.722" transform="translate(61.497 130.251)" fill="#273a89"/>
          <path id="Trazado_827848" data-name="Trazado 827848" d="M179.344,196.792H25.333A25.1,25.1,0,0,1,.312,171.771V79.864A25.1,25.1,0,0,1,25.333,54.843H179.344a25.093,25.093,0,0,1,25.021,25.021v91.907a25.1,25.1,0,0,1-25.021,25.021" transform="translate(0.655 115.156)" fill="#fff"/>
          <path id="Trazado_827849" data-name="Trazado 827849" d="M69.2,103.444s-7.594-29.3,6.488-33.366c0,0,5.676-6.134,10.976-8.456,0,0-13.192-16.19-9.935-25.021s12.548-11.032,23.791-11.153,23.611,3.3,24.333,11.974-10.561,23.93-10.561,23.93S130.76,65.577,131.526,79.3a96.657,96.657,0,0,1-1.134,22.833l-3.813,2.8-54.658,3.32Z" transform="translate(141 53.428)" fill="#1a1a1a"/>
          <path id="Trazado_827850" data-name="Trazado 827850" d="M130.762,86.456s15.09,4.628,15.384-9.628c0,0-1.048-12.027-14-8.651l-.7-2.821s-10.787,1.906-23.577-7.074A228.6,228.6,0,0,1,88.032,42.948s-6.175,14.9-8.713,18.515L79.3,68.44S67.06,64.628,64.834,76.828c0,0,.037,9.724,7.83,10.465s7.424-1.445,7.424-1.445,1.789,15.009,10.18,19.358l-.812,11.016s5.9,5.415,17.148,4.079,14.721-4.33,14.721-4.33l-.629-10.765s8.14-5.359,10.068-18.75" transform="translate(136.135 90.18)" fill="#fff"/>
          <path id="Trazado_827851" data-name="Trazado 827851" d="M118.089,104.742s6.447-14.594,5.769-17.895-7.123-10.576-10.313-13.258-3.227-8.059,0-9.863,8.3.016,13.174,4.253,10.948,10.79,13.146,10.707c0,0,16.788-12.662,23.924-14.491s10.5-2.213,12.306.735c0,0,5.942.31,7.312,4.519,0,0,5.074-1.029,6.888,2.046s-.676,9.036-6.59,13.171-14.972,9.392-21.568,11.106-9.209,16.5-9.209,16.5-22.154-.732-34.838-7.529" transform="translate(233.36 131.796)" fill="#fff"/>
          <path id="Trazado_827852" data-name="Trazado 827852" d="M89.524,167.4l-4.256-15.685s6.435-7.845,2.706-23.353-14.036-12.266-14.036-12.266S67.625,100.7,65.79,92.537s-7.015-18.025-13.834-16.7-7.774,12.222-5.731,20.74,6.525,20.9,6.525,20.9-7.7-6.664-10.6-6.444-8.825,2.625-10.387,6.277a33.6,33.6,0,0,0-2.108,7.334s-5.772,3.125-5.961,8.94,3.859,11.993,19.209,21.323c0,0,2.424,7.774,10.855,8.871l2.26,13.747a86.551,86.551,0,0,0,17.926-3.748c7.926-2.827,15.585-6.382,15.585-6.382" transform="translate(49.728 158.988)" fill="#fff"/>
          <path id="Trazado_827853" data-name="Trazado 827853" d="M194.639,80.287,149.129,52.12a2.815,2.815,0,0,0-4.293,2.529l2.619,53.461a2.813,2.813,0,0,0,4.24,2.285l12.3-7.253a2.812,2.812,0,0,1,3.853.995l17.892,30.34a2.815,2.815,0,0,0,3.853.995l9.736-5.741a2.816,2.816,0,0,0,1-3.856l-17.889-30.34a2.813,2.813,0,0,1,.995-3.853L194.586,85.1a2.813,2.813,0,0,0,.053-4.817" transform="translate(304.109 108.543)" fill="#273a89"/>
          <path id="Trazado_827854" data-name="Trazado 827854" d="M67.2,86.978A20.251,20.251,0,1,1,46.945,66.727,20.251,20.251,0,0,1,67.2,86.978" transform="translate(56.05 140.109)" fill="#273a89"/>
          <path id="Trazado_827855" data-name="Trazado 827855" d="M171.254,14.306a7.177,7.177,0,1,1-7.176-7.176,7.176,7.176,0,0,1,7.176,7.176" transform="translate(329.447 14.971)" fill="#273a89"/>
          <path id="Trazado_827856" data-name="Trazado 827856" d="M164.367,14.306a7.177,7.177,0,1,1-7.176-7.176,7.176,7.176,0,0,1,7.176,7.176" transform="translate(314.986 14.971)" fill="#fff"/>
          <path id="Trazado_827857" data-name="Trazado 827857" d="M157.481,14.306A7.177,7.177,0,1,1,150.3,7.13a7.176,7.176,0,0,1,7.176,7.176" transform="translate(300.527 14.971)" fill="#fff"/>
          <path id="Trazado_827858" data-name="Trazado 827858" d="M37.922,103.941l3.49.784L44.751,118.5s-14.553.443-15.372-3.509,8.543-11.047,8.543-11.047" transform="translate(61.583 218.249)" fill="#1a1a1a"/>
          <path id="Trazado_827859" data-name="Trazado 827859" d="M43.822,101.925l3.413,13.149S60.229,108.342,57.2,103.3s-13.382-1.376-13.382-1.376" transform="translate(92.015 211.313)" fill="#1a1a1a"/>
          <path id="Trazado_827860" data-name="Trazado 827860" d="M124.115,72.344s-1.95,11.113-3.971,12.442-11.395-4.284-9.8-8.809,13.775-3.633,13.775-3.633" transform="translate(231.305 151.752)" fill="#1a1a1a"/>
          <path id="Trazado_827861" data-name="Trazado 827861" d="M129.2,74.145s-4.854,9.99-4.4,14.023c0,0,14.243.071,15.093-5.48.67-4.4-10.7-8.543-10.7-8.543" transform="translate(261.989 155.685)" fill="#1a1a1a"/>
          <path id="Trazado_827862" data-name="Trazado 827862" d="M25.457,71.575a8.213,8.213,0,1,1-8.211-8.211,8.211,8.211,0,0,1,8.211,8.211" transform="translate(18.963 133.048)" fill="#1a1a1a"/>
          <path id="Trazado_827863" data-name="Trazado 827863" d="M74.31,83.964A8.211,8.211,0,1,1,66.1,75.753a8.211,8.211,0,0,1,8.211,8.211" transform="translate(121.55 159.062)" fill="#1a1a1a"/>
          <rect id="Rectángulo_383669" data-name="Rectángulo 383669" width="39.937" height="39.937" transform="translate(288.989 62.438)" fill="#273a89"/>
          <path id="Trazado_827864" data-name="Trazado 827864" d="M114.778,101.988a96.657,96.657,0,0,0,1.134-22.833c-.766-13.726-17.238-17.947-17.238-17.947s11.28-15.254,10.561-23.93c-.611-7.337-9.544-10.9-19.085-11.764,5.046,5.762,15.192,20.573-.53,34.187,0,0,15.152,5.989,12.83,23.1s-27.864,3.667-27.864,3.667,8.946,11.729,14.959,19.621l21.419-1.3Z" transform="translate(156.613 53.573)" fill="#fff"/>
          <path id="Trazado_827865" data-name="Trazado 827865" d="M146.984,172.1a.95.95,0,0,1-.7-.307L120.24,144.231a.969.969,0,0,1,.019-1.348L146.3,116.842a.969.969,0,0,1,1.373,1.367l-25.378,25.378,25.393,26.887a.954.954,0,0,1-.04,1.364.941.941,0,0,1-.66.267" transform="translate(251.918 244.746)" fill="#fff"/>
          <path id="Trazado_827866" data-name="Trazado 827866" d="M118.782,106.572a.991.991,0,0,1-.406-.09.969.969,0,0,1-.471-1.283c2.994-6.491,7.151-17.743,5.558-20.313a30.433,30.433,0,0,0-6.723-7.387c-.868-.747-1.708-1.472-2.492-2.238-4.7-4.591-3.583-8.134-2.889-9.442,1.327-2.492,4.55-3.769,7.8-3.094,5.84,1.2,12.873,8.093,18.53,13.63l.508.5c3.255,3.187,14.882,3.19,19.094,2.92a1.008,1.008,0,0,1,1.026.9.968.968,0,0,1-.905,1.029c-.648.034-16.032.97-20.57-3.472l-.508-.5c-5.186-5.074-12.284-12.03-17.566-13.118-2.43-.493-4.771.366-5.7,2.108-1.041,1.953-.118,4.563,2.532,7.154.753.735,1.562,1.432,2.4,2.151a32.376,32.376,0,0,1,7.108,7.836c2.607,4.2-4.079,19.178-5.449,22.138a.963.963,0,0,1-.877.564" transform="translate(232.487 131.333)"/>
          <path id="Trazado_827867" data-name="Trazado 827867" d="M134.779,109.369a1,1,0,0,1-.958-1.113c.1-.635,2.461-15.539,9.947-17.3,7.247-1.7,26.056-10.877,28.053-20.161a3.145,3.145,0,0,0-.911-3.14,5.572,5.572,0,0,0-5.369-.787c-4.3,1.308-20.148,10.48-20.309,10.573a.882.882,0,0,1-.6.121c-.155-.015-16.085-1.909-23.167,5.759a.968.968,0,0,1-1.423-1.314c7.253-7.849,22.045-6.661,24.5-6.4,2.223-1.283,16.2-9.3,20.437-10.592a7.5,7.5,0,0,1,7.241,1.215,5.115,5.115,0,0,1,1.494,4.969c-2.328,10.83-23.2,20.155-29.5,21.639-5.164,1.215-7.867,11.748-8.472,15.7a.971.971,0,0,1-.958.825" transform="translate(251.507 135.669)"/>
          <path id="Trazado_827868" data-name="Trazado 827868" d="M123.975,80.149a.968.968,0,0,1-.508-1.792c2.591-1.593,25.418-15.551,30.049-15.049a6.578,6.578,0,0,1,5.921,5.245.959.959,0,0,1-.794,1.11.971.971,0,0,1-1.113-.794,4.65,4.65,0,0,0-4.225-3.633c-2.932-.319-19.256,8.884-28.821,14.767a.991.991,0,0,1-.508.146" transform="translate(258.282 132.902)"/>
          <path id="Trazado_827869" data-name="Trazado 827869" d="M120.9,80.587a.968.968,0,0,1-.53-1.776c.4-.263,9.879-6.482,12.132-7.69,1.082-.577,2.362-1.333,3.76-2.164,4.811-2.849,10.8-6.389,15.186-6.615,6.01-.3,7.253,3.534,7.3,3.7a.968.968,0,0,1-1.86.536c-.034-.121-.849-2.492-5.347-2.3-3.912.2-9.913,3.754-14.3,6.348-1.423.846-2.731,1.618-3.831,2.207-2.179,1.169-11.888,7.535-11.987,7.6a.957.957,0,0,1-.53.161" transform="translate(251.828 130.865)"/>
          <path id="Trazado_827870" data-name="Trazado 827870" d="M74.3,51.109c.772-.121,1.289.211,1.513,2.991.248,3.1-.558,3.651-1.252,3.624s-1.395-.986-1.361-3.2.087-3.255,1.1-3.413" transform="translate(153.7 107.272)"/>
          <path id="Trazado_827871" data-name="Trazado 827871" d="M82.919,51.187c.775-.1,1.283.242,1.432,3.032.167,3.109-.651,3.633-1.345,3.586s-1.37-1.02-1.277-3.236.174-3.249,1.19-3.382" transform="translate(171.591 107.448)"/>
          <path id="Trazado_827872" data-name="Trazado 827872" d="M75.576,72.615c-.232,0-.468-.006-.7-.022A11.049,11.049,0,1,1,79.659,51.3a.967.967,0,0,1-.713,1.8A9.115,9.115,0,1,0,75,70.662a9.272,9.272,0,0,0,4.767-1,.969.969,0,0,1,.893,1.72,11.077,11.077,0,0,1-5.08,1.237" transform="translate(135.466 106.07)"/>
          <path id="Trazado_827873" data-name="Trazado 827873" d="M68.5,64.682a.969.969,0,0,1-.589-1.736l5.79-4.473-6.488-4.8a.967.967,0,0,1,1.15-1.556l7.517,5.561a.975.975,0,0,1,.394.769.959.959,0,0,1-.378.775l-6.807,5.254a.939.939,0,0,1-.589.2" transform="translate(140.312 109.04)"/>
          <path id="Trazado_827874" data-name="Trazado 827874" d="M91.61,72.615a11.077,11.077,0,0,1-5.08-1.237.97.97,0,0,1,.9-1.72,9.112,9.112,0,1,0,.632-16.484.967.967,0,1,1-.759-1.779,11.05,11.05,0,1,1,5.015,21.2c-.236.015-.471.022-.7.022" transform="translate(180.6 106.07)"/>
          <path id="Trazado_827875" data-name="Trazado 827875" d="M93.8,64.681a.939.939,0,0,1-.589-.2l-6.807-5.254a.959.959,0,0,1-.378-.775.975.975,0,0,1,.394-.769l7.517-5.561a.967.967,0,1,1,1.15,1.556l-6.488,4.8,5.793,4.473a.97.97,0,0,1-.592,1.736" transform="translate(180.636 109.041)"/>
          <path id="Trazado_827876" data-name="Trazado 827876" d="M136.448,218.3c-1.032,0-2.083-.04-3.162-.124-16.611-1.3-34.249-14.222-33.924-46.58a.969.969,0,0,1,1.937.015c-.313,31.028,16.395,43.4,32.138,44.633C168.71,219,176.9,172.12,179.578,156.708c3.909-22.476,12.631-78.538,12.721-79.1a.968.968,0,0,1,1.913.3c-.09.564-8.819,56.642-12.728,79.136-2.675,15.375-10.66,61.257-45.036,61.257" transform="translate(208.627 161.245)"/>
          <path id="Trazado_827877" data-name="Trazado 827877" d="M103.606,166.052a.985.985,0,0,1-.961-1.057,257.837,257.837,0,0,1,5.673-34.407,480.129,480.129,0,0,1,16.906-56.815.967.967,0,0,1,1.8.7A478.971,478.971,0,0,0,110.2,131.028a257.694,257.694,0,0,0-5.629,34.144.969.969,0,0,1-.964.88" transform="translate(215.519 153.606)"/>
          <path id="Trazado_827878" data-name="Trazado 827878" d="M96.339,98.31c-4.851,0-11.8-.927-17.343-5.332C74.73,89.591,71.9,84.144,70.36,76.33c-1.02-5.17-1.24-21.453-1.153-26.769a.969.969,0,0,1,1.937.034c-.1,5.71.167,21.568,1.116,26.36C73.711,83.3,76.308,88.372,80.2,91.466c5.105,4.058,11.593,4.907,16.137,4.907a.969.969,0,0,1,0,1.937" transform="translate(145.28 102.066)"/>
          <path id="Trazado_827879" data-name="Trazado 827879" d="M78.6,95.673a.969.969,0,0,1,0-1.937c4.544,0,11.029-.849,16.134-4.907,3.893-3.094,6.491-8.168,7.942-15.511,1.02-5.155,1.048-17.969.97-22.47a.969.969,0,0,1,1.937-.034c.078,4.56.043,17.557-1.007,22.879-1.544,7.814-4.371,13.261-8.636,16.649-5.542,4.4-12.492,5.332-17.34,5.332" transform="translate(163.015 104.704)"/>
          <path id="Trazado_827880" data-name="Trazado 827880" d="M121.043,67.272c-18.391,0-37.274-17.244-42.11-21.974-1.221,3.868-4.591,13.825-8.047,17.727a.966.966,0,1,1-1.448-1.28c3.955-4.47,8.075-18.4,8.115-18.546a.96.96,0,0,1,.7-.666.984.984,0,0,1,.93.27c.223.236,22.64,23.428,43.065,22.507a.98.98,0,0,1,1.007.924.967.967,0,0,1-.924,1.011c-.428.019-.859.028-1.286.028" transform="translate(145.293 89.255)"/>
          <path id="Trazado_827881" data-name="Trazado 827881" d="M73.478,75.057a.992.992,0,0,1-.964-1.063c.518-5.4.67-10.285.673-10.335a.966.966,0,1,1,1.931.062c0,.046-.152,5-.676,10.459a.971.971,0,0,1-.964.877" transform="translate(152.251 131.696)"/>
          <path id="Trazado_827882" data-name="Trazado 827882" d="M84.139,74.581a.969.969,0,0,1-.964-.88c-.487-5.266-.629-9.938-.629-9.987a.966.966,0,0,1,1.931-.053c0,.043.143,4.659.623,9.863a.964.964,0,0,1-.874,1.051l-.087.006" transform="translate(173.323 131.698)"/>
          <path id="Trazado_827883" data-name="Trazado 827883" d="M70.368,82.792a.971.971,0,0,1-.927-.682c-.245-.806-5.995-19.86-.118-29.85a11.462,11.462,0,0,1,7.439-5.521,26.451,26.451,0,0,1,15.985-9.99c13.316-2.334,34.376.964,39.528,15.613,2.316,6.571,2.325,14.076.043,28.679a.968.968,0,0,1-1.913-.3c2.226-14.246,2.238-21.506.046-27.736-4.783-13.586-24.727-16.574-37.374-14.349-9.547,1.677-14.891,9.411-14.944,9.488a.98.98,0,0,1-.6.406,9.51,9.51,0,0,0-6.547,4.69c-5.449,9.265.245,28.112.307,28.3a.968.968,0,0,1-.642,1.209.911.911,0,0,1-.285.043" transform="translate(140.027 75.732)"/>
          <path id="Trazado_827884" data-name="Trazado 827884" d="M51.011,284.509a.993.993,0,0,1-.428-.1.968.968,0,0,1-.44-1.3c4.876-9.894,23.741-108.373,17.52-136.6C61.32,117.731,71.5,89.07,71.608,88.782a.968.968,0,0,1,1.82.66c-.1.282-10.093,28.434-3.878,56.657C75.833,174.592,56.8,273.985,51.878,283.967a.964.964,0,0,1-.868.542" transform="translate(105.077 185.083)"/>
          <path id="Trazado_827885" data-name="Trazado 827885" d="M120.623,284.51a.965.965,0,0,1-.871-.542c-4.919-9.975-23.958-109.359-17.675-137.867C108.3,117.859,98.3,89.726,98.2,89.444a.969.969,0,0,1,1.823-.66c.1.288,10.285,28.948,3.943,57.733-6.221,28.242,12.647,126.711,17.523,136.6a.962.962,0,0,1-.44,1.3.991.991,0,0,1-.425.1" transform="translate(206.074 185.082)"/>
          <path id="Trazado_827886" data-name="Trazado 827886" d="M155.6,93.9a94.1,94.1,0,0,1-16.283-1.55C125,89.757,113.127,84.667,110.44,79.974a3.722,3.722,0,0,1-.4-3.233c1.919-5.226,9.5-5.26,15.527-4.361a.964.964,0,0,1,.812,1.1.935.935,0,0,1-1.1.815c-4.355-.642-11.878-1.1-13.425,3.115a1.859,1.859,0,0,0,.26,1.606c2.346,4.1,14.191,9.011,27.544,11.432,17.191,3.1,29.947,1.1,30.629-2.644.313-1.73-2.827-5.062-9.429-8.069a.97.97,0,0,1,.806-1.764c5.521,2.52,11.187,6.516,10.527,10.18-.735,4.051-7.728,5.75-16.593,5.75" transform="translate(230.627 151.049)"/>
          <path id="Trazado_827887" data-name="Trazado 827887" d="M77.362,191.279a34.75,34.75,0,0,1-19.677-5.766c-14.671-9.783-20.362-29.627-22.448-40.588-.88-4.625-1.94-11.109-3.063-17.972-.986-6-2.037-12.458-3.128-18.626a.968.968,0,1,1,1.906-.338c1.091,6.178,2.148,12.641,3.131,18.654,1.119,6.847,2.179,13.32,3.053,17.92,2.03,10.663,7.539,29.953,21.624,39.339,7.8,5.2,17.256,6.683,28.105,4.4,5.982-1.252,20.182-6.181,22.833-24.789a.951.951,0,0,1,1.091-.821.966.966,0,0,1,.821,1.094c-2.9,20.375-19.367,25.365-24.345,26.41a48.136,48.136,0,0,1-9.9,1.082" transform="translate(60.961 225.081)"/>
          <path id="Trazado_827888" data-name="Trazado 827888" d="M67.1,155.934a.968.968,0,0,1-.921-.673c-9-28.006-18.115-52.361-18.2-52.6a.967.967,0,1,1,1.81-.679c.09.242,9.222,24.637,18.236,52.689a.963.963,0,0,1-.623,1.215.921.921,0,0,1-.3.05" transform="translate(100.612 212.808)"/>
          <path id="Trazado_827889" data-name="Trazado 827889" d="M40.029,126.936c-5.8,0-10.059-1.24-10.954-4.2a.967.967,0,1,1,1.851-.564c1.1,3.648,14,4.178,30.731-.88,12.988-3.927,24.19-10.164,26.053-14.51a1.849,1.849,0,0,0,.077-1.621c-1.916-3.8-8.025-3.069-12.814-1.785a.968.968,0,0,1-.5-1.869c7.982-2.145,13.034-1.2,15.043,2.78a3.735,3.735,0,0,1-.025,3.258c-2.1,4.9-13.571,11.457-27.278,15.6-7.656,2.312-15.84,3.794-22.182,3.794" transform="translate(60.961 210.787)"/>
          <path id="Trazado_827890" data-name="Trazado 827890" d="M30.059,116.616a.97.97,0,0,1-.927-.688c-1.029-3.4,4.333-8.806,9.9-12.16a.969.969,0,0,1,1,1.661c-5.834,3.512-9.587,8.146-9.045,9.938a.967.967,0,0,1-.645,1.206.99.99,0,0,1-.282.043" transform="translate(60.903 217.592)"/>
          <path id="Trazado_827891" data-name="Trazado 827891" d="M72.053,54.751a1.049,1.049,0,0,1-.332-.056.968.968,0,0,1-.577-1.243c1.739-4.774,8.369-6.15,12.287-5.27a.97.97,0,0,1,.732,1.156.957.957,0,0,1-1.156.732c-3.221-.722-8.754.49-10.046,4.045a.967.967,0,0,1-.908.635" transform="translate(149.259 100.648)"/>
          <path id="Trazado_827892" data-name="Trazado 827892" d="M81.693,66.857a14.941,14.941,0,0,1-4.219-.626.968.968,0,0,1,.6-1.841c.047.019,4.733,1.494,7.756-.564,1.593-1.082,2.486-3.013,2.653-5.735a.959.959,0,0,1,1.026-.905.972.972,0,0,1,.908,1.026C90.2,61.566,89.024,64,86.91,65.431a9.24,9.24,0,0,1-5.217,1.426" transform="translate(161.274 120.076)"/>
          <path id="Trazado_827893" data-name="Trazado 827893" d="M78.5,74.3a.958.958,0,0,1-.645-.248c-.338-.3-3.323-3.053-3.416-5.9a3.767,3.767,0,0,1,1.1-2.8A4.172,4.172,0,0,1,78.6,64.015a6.253,6.253,0,0,1,3.292,1.116c.592-5.328,1-12.8-.074-14.435a.968.968,0,0,1,1.618-1.063c1.94,2.951.48,15.055.167,17.455a.968.968,0,0,1-1.649.555A5.672,5.672,0,0,0,78.6,65.949a2.282,2.282,0,0,0-1.674.756,1.789,1.789,0,0,0-.549,1.379c.056,1.733,2.021,3.856,2.771,4.529a.961.961,0,0,1,.074,1.364.947.947,0,0,1-.719.325" transform="translate(156.306 103.3)"/>
          <path id="Trazado_827894" data-name="Trazado 827894" d="M74.013,46.046a.976.976,0,0,1-.79-.406l-3.118-4.4a.968.968,0,0,1,1.581-1.119l3.118,4.4a.971.971,0,0,1-.229,1.351.992.992,0,0,1-.561.177" transform="translate(146.831 83.387)"/>
          <path id="Trazado_827895" data-name="Trazado 827895" d="M158.653,102.057a.969.969,0,0,1,0-1.937c12.852,0,23.31-9.981,23.31-22.253V41.389a.969.969,0,0,1,1.937,0V77.867c0,13.338-11.33,24.19-25.247,24.19" transform="translate(331.099 84.876)"/>
          <path id="Trazado_827896" data-name="Trazado 827896" d="M83.231,64.462a.966.966,0,0,1-.967-.967V29.416c0-13.338,11.326-24.187,25.244-24.187H317.02c13.918,0,25.244,10.849,25.244,24.187V63.188a.969.969,0,0,1-1.937,0V29.416c0-12.272-10.455-22.253-23.307-22.253H107.508c-12.852,0-23.31,9.981-23.31,22.253V63.495a.966.966,0,0,1-.967.967" transform="translate(172.733 10.98)"/>
          <path id="Trazado_827897" data-name="Trazado 827897" d="M223.924,61.618H92.1a.969.969,0,1,1,0-1.937H223.924a.969.969,0,0,1,0,1.937" transform="translate(191.339 125.315)"/>
          <path id="Trazado_827898" data-name="Trazado 827898" d="M98.974,198.863H69.549a.969.969,0,1,1,0-1.937H98.974a22.276,22.276,0,0,0,22.25-22.253V78.72a22.276,22.276,0,0,0-22.25-22.253H40.414a.969.969,0,0,1,0-1.937h58.56a24.22,24.22,0,0,1,24.187,24.19v95.952a24.218,24.218,0,0,1-24.187,24.19" transform="translate(82.828 114.499)"/>
          <path id="Trazado_827899" data-name="Trazado 827899" d="M81.793,198.863H24.19A24.218,24.218,0,0,1,0,174.673V78.72A24.22,24.22,0,0,1,24.19,54.53H62.872a.969.969,0,1,1,0,1.937H24.19A22.276,22.276,0,0,0,1.937,78.72v95.952A22.276,22.276,0,0,0,24.19,196.926h57.6a.969.969,0,0,1,0,1.937" transform="translate(0 114.499)"/>
          <path id="Trazado_827900" data-name="Trazado 827900" d="M39.228,120.2a.968.968,0,0,1-.887-.577C32.03,105.505,27.511,86.78,32.5,79.033a7.574,7.574,0,0,1,6.714-3.589c8.6,0,11.754,11.2,15.086,23.059,1.8,6.41,3.673,13.044,6.423,17.672a.969.969,0,0,1-1.668.989c-2.88-4.848-4.78-11.605-6.612-18.137C49.315,87.9,46.361,77.381,39.275,77.381a5.7,5.7,0,0,0-5.146,2.7C30.251,86.1,32.762,102.4,40.112,118.84a.969.969,0,0,1-.883,1.361" transform="translate(63.77 158.413)"/>
          <path id="Trazado_827901" data-name="Trazado 827901" d="M79.6,141.665a.967.967,0,0,1-.933-.713l-4.256-15.685a.964.964,0,0,1,.35-1.026c2.322-1.754,6.026-21.131-1.3-31.363-3.76-5.257-24.525-1.491-36.3,5.127-5.111,2.873-7.523,5.738-6.621,7.852a11.246,11.246,0,0,0,7.331,6.41c6.661,2.111,16.4.127,24.817-5.062a.967.967,0,1,1,1.017,1.646c-8.881,5.474-19.249,7.548-26.416,5.257a13.264,13.264,0,0,1-8.527-7.5c-.961-2.244-.446-5.852,7.452-10.294,11.847-6.661,33.958-11.361,38.818-4.569,7.523,10.511,4.467,29.55,1.382,33.53l4.113,15.161a.964.964,0,0,1-.679,1.187.9.9,0,0,1-.254.037" transform="translate(59.653 185.686)"/>
          <path id="Trazado_827902" data-name="Trazado 827902" d="M60.177,127.974a19.09,19.09,0,0,1-4-.443c-5.108-1.11-10.378-3.853-16.571-8.63A60.787,60.787,0,0,1,29.461,109c-1.847-2.285-4.275-5.8-4.045-9.913a10.548,10.548,0,0,1,.846-3.524c1.826-4.33,6.389-8.844,11.283-8.766,2.861.065,4.91,1.671,6.894,3.224l.629.49c2.563,1.975,4.439,3.475,6.689,5.359a.966.966,0,1,1-1.24,1.482c-2.232-1.863-4.089-3.351-6.63-5.31l-.642-.5c-1.813-1.42-3.524-2.762-5.741-2.808-3.971,0-7.873,3.828-9.464,7.582a8.7,8.7,0,0,0-.694,2.88c-.146,2.625,1,5.35,3.621,8.586a58.487,58.487,0,0,0,9.814,9.584c5.961,4.594,10.979,7.222,15.8,8.27a14.287,14.287,0,0,0,7.833-.3,8.074,8.074,0,0,0,3.868-2.768c2.136-2.994.6-6.407-.508-8.171l-.251-.394c-.161-.254-.232-.366-.533-.772a.967.967,0,0,1,1.556-1.15c.344.462.428.592.614.887l.248.387c2.359,3.772,2.517,7.439.449,10.338a9.936,9.936,0,0,1-4.789,3.465,14.4,14.4,0,0,1-4.894.809" transform="translate(53.336 182.257)"/>
          <path id="Trazado_827903" data-name="Trazado 827903" d="M59.159,128.032q-.916,0-1.869-.087c-5.208-.49-10.762-2.579-17.483-6.575a60.786,60.786,0,0,1-11.258-8.614c-2.108-2.046-4.938-5.239-5.2-9.352a10.642,10.642,0,0,1,.412-3.6c.809-2.811,2.6-6.565,6.544-8.515a.969.969,0,0,1,.862,1.736c-3.317,1.637-4.845,4.879-5.545,7.309a8.7,8.7,0,0,0-.341,2.942c.17,2.622,1.64,5.2,4.625,8.093A58.533,58.533,0,0,0,40.793,119.7c6.466,3.85,11.767,5.852,16.68,6.317a14.253,14.253,0,0,0,7.737-1.234,8.069,8.069,0,0,0,3.509-3.214,4.9,4.9,0,0,0,.484-4.417.966.966,0,0,1,1.829-.623,6.767,6.767,0,0,1-.611,5.967,9.933,9.933,0,0,1-4.34,4.017,15.4,15.4,0,0,1-6.922,1.516" transform="translate(48.976 191.473)"/>
          <path id="Trazado_827904" data-name="Trazado 827904" d="M44.165,125.507a.97.97,0,0,1-.949-.766l-2.746-12.9c-4.628-1.314-7.653-4.581-10.973-9.371a.968.968,0,0,1,1.593-1.1c3.2,4.619,6.057,7.69,10.428,8.744a.97.97,0,0,1,.722.738l2.873,13.484a.974.974,0,0,1-.747,1.15,1.144,1.144,0,0,1-.2.022" transform="translate(61.58 211.977)"/>
          <path id="Trazado_827905" data-name="Trazado 827905" d="M45.812,169.11a.969.969,0,0,1-.967-.949c-.009-.44-.766-44.618,18.242-73.823,19.163-29.444,61.672-25.542,62.094-25.5a.97.97,0,0,1,.868,1.06.932.932,0,0,1-1.06.865c-.406-.04-41.766-3.813-60.278,24.631C46.023,124.1,46.77,167.685,46.779,168.122a.971.971,0,0,1-.945.989Z" transform="translate(94.15 144.137)"/>
          <path id="Trazado_827906" data-name="Trazado 827906" d="M153.124,113.08a.965.965,0,0,1-.918-.666c-1.95-5.89-8.716-16.8-8.785-16.909C124.9,67.055,86.768,70.638,86.384,70.679a.968.968,0,0,1-.2-1.925c.4-.043,39.7-3.744,58.87,25.712.294.471,6.971,11.233,8.989,17.343a.976.976,0,0,1-.918,1.271" transform="translate(179.14 144.006)"/>
          <path id="Trazado_827907" data-name="Trazado 827907" d="M16.3,77.462a6.826,6.826,0,1,1,6.826-6.826A6.834,6.834,0,0,1,16.3,77.462m0-11.714a4.888,4.888,0,1,0,4.888,4.888A4.892,4.892,0,0,0,16.3,65.748" transform="translate(19.903 133.986)" fill="#fff"/>
          <path id="Trazado_827908" data-name="Trazado 827908" d="M64.83,89.037a6.341,6.341,0,1,1,6.342-6.342,6.349,6.349,0,0,1-6.342,6.342m0-10.744a4.4,4.4,0,1,0,4.4,4.4,4.407,4.407,0,0,0-4.4-4.4" transform="translate(122.816 160.328)" fill="#fff"/>
          <path id="Trazado_827909" data-name="Trazado 827909" d="M35.022,130.763a13.412,13.412,0,0,1-9.25-3.779.969.969,0,1,1,1.308-1.429,11.515,11.515,0,0,0,7.942,3.27l.48-.006a.987.987,0,0,1,.986.952.971.971,0,0,1-.952.986l-.5.006ZM45,127.849a.968.968,0,0,1-.527-1.779,25.914,25.914,0,0,0,6.8-6.844.968.968,0,1,1,1.575,1.125,27.82,27.82,0,0,1-7.325,7.34.961.961,0,0,1-.527.158m-24.28-8.834a.965.965,0,0,1-.871-.552,61.055,61.055,0,0,1-3.521-9.618.97.97,0,0,1,1.866-.527,58.765,58.765,0,0,0,3.4,9.312.972.972,0,0,1-.456,1.293,1.012,1.012,0,0,1-.418.093M57.2,112.1a1,1,0,0,1-.446-.108.971.971,0,0,1-.415-1.305c.84-1.624,1.649-3.267,2.458-4.9.685-1.389,1.364-2.765,2.049-4.11a.981.981,0,0,1,1.3-.425.969.969,0,0,1,.425,1.3c-.685,1.339-1.361,2.709-2.04,4.089-.812,1.643-1.63,3.3-2.474,4.935a.973.973,0,0,1-.859.524M15.026,99.71a.977.977,0,0,1-.955-.8c-.561-3.137-1.051-6.519-1.457-10.056a.967.967,0,0,1,.852-1.072.988.988,0,0,1,1.073.852c.4,3.5.88,6.838,1.441,9.928a.977.977,0,0,1-.781,1.128,1.129,1.129,0,0,1-.174.016M12.7,79.651a.967.967,0,0,1-.964-.908c-.36-5.756-.372-9.749-.372-10.183a.969.969,0,1,1,1.937,0c0,.431.009,4.364.366,10.062a.972.972,0,0,1-.905,1.026l-.062,0" transform="translate(23.87 141.921)"/>
          <path id="Trazado_827910" data-name="Trazado 827910" d="M82.028,143.1a14.529,14.529,0,0,1-8.016-2.563.965.965,0,1,1,1.057-1.615,12.808,12.808,0,0,0,8.865,2.108.952.952,0,0,1,1.091.821.962.962,0,0,1-.818,1.094,15.25,15.25,0,0,1-2.179.155m10.8-4.687a.969.969,0,0,1-.673-1.665,30.534,30.534,0,0,0,5.642-7.917.968.968,0,0,1,1.717.9A32.609,32.609,0,0,1,93.5,138.14a.977.977,0,0,1-.673.273m-25.4-4.767a.957.957,0,0,1-.772-.387,72.364,72.364,0,0,1-5.48-8.617.968.968,0,0,1,1.7-.933A70.848,70.848,0,0,0,68.2,132.1a.965.965,0,0,1-.192,1.352.951.951,0,0,1-.58.2m35.08-12.709a.976.976,0,0,1-.918-1.271c.97-2.942,1.857-6.187,2.632-9.646a.967.967,0,1,1,1.888.422c-.79,3.521-1.692,6.826-2.684,9.829a.964.964,0,0,1-.918.666M57.46,116.145a.972.972,0,0,1-.877-.555c-1.417-3-2.805-6.1-4.172-9.209a.965.965,0,0,1,.493-1.274.954.954,0,0,1,1.274.493c1.364,3.094,2.743,6.175,4.157,9.163a.971.971,0,0,1-.459,1.289,1,1,0,0,1-.415.093M107,101.269a.991.991,0,0,1-.955-1.11c.865-5.818,1.128-9.941,1.131-9.984a.967.967,0,0,1,1.931.121c0,.043-.27,4.24-1.15,10.149a.969.969,0,0,1-.958.825m-57.77-3.54a.973.973,0,0,1-.887-.577c-1.655-3.72-3-6.618-4.231-9.113a.965.965,0,0,1,.443-1.3.978.978,0,0,1,1.3.44c1.24,2.52,2.594,5.437,4.262,9.181a.967.967,0,0,1-.493,1.277.928.928,0,0,1-.391.087M40.12,79.744a.968.968,0,0,1-.818-.453c-.493-.781-.992-1.525-1.491-2.226a.969.969,0,1,1,1.575-1.128q.786,1.1,1.553,2.319a.973.973,0,0,1-.3,1.336.958.958,0,0,1-.518.152" transform="translate(79.012 158.604)"/>
          <path id="Trazado_827911" data-name="Trazado 827911" d="M133.784,172.1a.969.969,0,0,1-.8-1.51l36.137-53.61a.975.975,0,0,1,1.345-.26.964.964,0,0,1,.26,1.342l-36.137,53.61a.975.975,0,0,1-.8.428" transform="translate(278.881 244.746)" fill="#fff"/>
          <path id="Trazado_827912" data-name="Trazado 827912" d="M148.681,172.1a.938.938,0,0,1-.663-.267.954.954,0,0,1-.04-1.364l25.4-26.887-25.384-25.378a.968.968,0,0,1,1.37-1.367l26.044,26.041a.969.969,0,0,1,.022,1.348L149.381,171.8a.953.953,0,0,1-.7.307" transform="translate(310.152 244.746)" fill="#fff"/>
          <path id="Trazado_827913" data-name="Trazado 827913" d="M323.119,15.116H86.978a.967.967,0,0,1,0-1.934H323.119a.967.967,0,1,1,0,1.934" transform="translate(180.601 27.679)"/>
          <path id="Trazado_827914" data-name="Trazado 827914" d="M163.06,18.963a5.674,5.674,0,1,1,5.676-5.676,5.681,5.681,0,0,1-5.676,5.676m0-9.414a3.74,3.74,0,1,0,3.738,3.738,3.742,3.742,0,0,0-3.738-3.738" transform="translate(330.465 15.99)"/>
          <path id="Trazado_827915" data-name="Trazado 827915" d="M156.173,18.963a5.674,5.674,0,1,1,5.676-5.676,5.681,5.681,0,0,1-5.676,5.676m0-9.414a3.74,3.74,0,1,0,3.738,3.738,3.743,3.743,0,0,0-3.738-3.738" transform="translate(316.004 15.99)"/>
          <path id="Trazado_827916" data-name="Trazado 827916" d="M149.284,18.963a5.674,5.674,0,1,1,5.676-5.676,5.68,5.68,0,0,1-5.676,5.676m0-9.414a3.74,3.74,0,1,0,3.738,3.738,3.74,3.74,0,0,0-3.738-3.738" transform="translate(301.546 15.99)"/>
          <path id="Trazado_827917" data-name="Trazado 827917" d="M81.066,62.912a.962.962,0,0,1-.732-.335c-.6-.691-14.463-17-9.414-28C73.747,28.415,81.884,25.29,95.1,25.29s21.308,3.1,24.069,9.206c4.941,10.93-9.15,27.135-9.752,27.82a.969.969,0,0,1-1.454-1.28c.139-.158,13.871-15.951,9.442-25.743-2.424-5.353-9.925-8.069-22.306-8.069-12.4,0-19.941,2.743-22.427,8.159-4.535,9.879,8.983,25.771,9.119,25.929a.967.967,0,0,1-.732,1.6" transform="translate(146.595 53.102)"/>
          <path id="Trazado_827918" data-name="Trazado 827918" d="M184.192,134.749a3.834,3.834,0,0,1-.952-.121,3.778,3.778,0,0,1-2.312-1.745l-17.889-30.34a1.853,1.853,0,0,0-2.529-.651L148.2,109.146a3.774,3.774,0,0,1-5.691-3.069l-2.622-53.461a3.782,3.782,0,0,1,5.766-3.4l45.513,28.17a3.779,3.779,0,0,1-.071,6.472l-11.153,6.578a1.852,1.852,0,0,0-.654,2.529l17.889,30.34a3.777,3.777,0,0,1-1.333,5.177l-9.739,5.744a3.751,3.751,0,0,1-1.913.527M161.44,99.7a3.786,3.786,0,0,1,3.264,1.857L182.592,131.9a1.855,1.855,0,0,0,1.131.849,1.827,1.827,0,0,0,1.4-.2l9.739-5.744a1.846,1.846,0,0,0,.651-2.529l-17.889-30.34a3.788,3.788,0,0,1,1.333-5.177l11.159-6.578a1.848,1.848,0,0,0,.034-3.162L144.636,50.861a1.847,1.847,0,0,0-2.818,1.658l2.622,53.458a1.844,1.844,0,0,0,2.777,1.5l12.309-7.253a3.73,3.73,0,0,1,1.913-.524" transform="translate(293.717 102.145)"/>
          <path id="Trazado_827919" data-name="Trazado 827919" d="M131.235,59.421H91.784a.969.969,0,0,1-.97-.967V19.006a.97.97,0,0,1,.97-.97h39.45a.969.969,0,0,1,.967.97V58.453a.968.968,0,0,1-.967.967M92.751,57.486h37.513V19.97H92.751Z" transform="translate(190.686 37.871)"/>
          <path id="Trazado_827920" data-name="Trazado 827920" d="M119.967,68.166H93.951a.969.969,0,0,1-.97-.967V41.183a.969.969,0,0,1,.97-.967h26.016a.968.968,0,0,1,.967.967V67.2a.968.968,0,0,1-.967.967M94.918,66.232H119V42.15H94.918Z" transform="translate(195.236 84.443)"/>
          <path id="Trazado_827921" data-name="Trazado 827921" d="M237.985,21.762H118.465a.966.966,0,1,1,0-1.931h119.52a.966.966,0,1,1,0,1.931" transform="translate(246.715 41.64)"/>
          <path id="Trazado_827922" data-name="Trazado 827922" d="M237.985,31.581H118.465a.967.967,0,0,1,0-1.934h119.52a.967.967,0,0,1,0,1.934" transform="translate(246.715 62.251)"/>
          <path id="Trazado_827923" data-name="Trazado 827923" d="M237.985,41.4H118.465a.967.967,0,0,1,0-1.934h119.52a.967.967,0,0,1,0,1.934" transform="translate(246.715 82.864)"/>
          <path id="Trazado_827924" data-name="Trazado 827924" d="M45.134,102.736A17.572,17.572,0,1,1,62.7,85.163a17.593,17.593,0,0,1-17.569,17.572m0-33.208A15.635,15.635,0,1,0,60.765,85.163,15.653,15.653,0,0,0,45.134,69.528" transform="translate(57.865 141.924)"/>
          <path id="Trazado_827925" data-name="Trazado 827925" d="M91.2,75.06c-18.239,0-19.562-8.642-19.609-9.008a.967.967,0,0,1,.834-1.085.948.948,0,0,1,1.085.828c.019.124,1.367,7.328,17.69,7.328s17.176-7.2,17.182-7.272a1.023,1.023,0,0,1,1.041-.883.962.962,0,0,1,.89,1.023c-.025.372-.821,9.07-19.113,9.07" transform="translate(150.312 136.392)"/>
          <path id="Trazado_827926" data-name="Trazado 827926" d="M79.7,87.24a.977.977,0,0,1-.4-.09c-6.726-3.087-10.741-8.286-10.741-13.909,0-3.283,1.9-7.883,10.92-11.134a.968.968,0,0,1,.654,1.823c-6.395,2.3-9.637,5.437-9.637,9.312,0,4.845,3.593,9.389,9.609,12.151a.969.969,0,0,1-.4,1.847" transform="translate(143.946 130.284)"/>
          <path id="Trazado_827927" data-name="Trazado 827927" d="M84.09,90.853a63.536,63.536,0,0,1-7.833-.459.971.971,0,0,1-.84-1.082.933.933,0,0,1,1.082-.84,61.444,61.444,0,0,0,7.591.443c18.18,0,27.991-7.969,27.991-15.468,0-3.893-3.7-7.312-10.431-9.618A.967.967,0,0,1,102.279,62c7.566,2.594,11.739,6.661,11.739,11.447,0,8.437-10.489,17.405-29.928,17.405" transform="translate(158.341 130.078)"/>
          <path id="Trazado_827928" data-name="Trazado 827928" d="M72.145,85.865a.985.985,0,0,1-.964-1.042C72,73.959,70.069,69.74,70.047,69.7A.972.972,0,0,1,70.5,68.41a.958.958,0,0,1,1.286.446c.09.18,2.185,4.616,1.324,16.112a.972.972,0,0,1-.967.9" transform="translate(146.885 143.438)"/>
          <path id="Trazado_827929" data-name="Trazado 827929" d="M86.379,85.784a.972.972,0,0,1-.967-.9c-.865-11.5,1.237-15.827,1.327-16a.967.967,0,0,1,1.73.865c-.034.074-1.937,4.188-1.125,14.993a.97.97,0,0,1-.893,1.038l-.071,0" transform="translate(178.906 143.519)"/>
          <path id="Trazado_827930" data-name="Trazado 827930" d="M87.176,61.054H46.709a.969.969,0,0,1,0-1.937H87.176a.969.969,0,0,1,0,1.937" transform="translate(96.046 124.13)"/>
          <path id="Trazado_827931" data-name="Trazado 827931" d="M72.554,64.412H53.673a.969.969,0,0,1,0-1.937H72.554a.969.969,0,0,1,0,1.937" transform="translate(110.669 131.181)"/>
          <path id="Trazado_827932" data-name="Trazado 827932" d="M58.971,64.412H48.156a.969.969,0,1,1,0-1.937H58.971a.969.969,0,0,1,0,1.937" transform="translate(99.078 131.181)"/>
          <path id="Trazado_827933" data-name="Trazado 827933" d="M44.3,33.082V45.534s1.1,6.2,9.222,6.2,9.854-5.542,9.854-5.542l.387-13.106s-7.938,3.679-19.463-.006" transform="translate(93.014 69.464)" fill="#1a1a1a"/>
          <path id="Trazado_827934" data-name="Trazado 827934" d="M98.142,43.187A31.692,31.692,0,1,1,66.451,11.495,31.693,31.693,0,0,1,98.142,43.187" transform="translate(72.985 24.137)" fill="#273a89"/>
          <path id="Trazado_827935" data-name="Trazado 827935" d="M56.3,52.775H52.557A8.465,8.465,0,0,1,44.1,44.322V34.074c0-.211.006-.415.022-.62a.629.629,0,0,1,.276-.465.621.621,0,0,1,.536-.074,31.3,31.3,0,0,0,18.992.022.636.636,0,0,1,.533.071.624.624,0,0,1,.276.462q.028.3.028.6V44.322A8.467,8.467,0,0,1,56.3,52.775M45.341,34.34v9.981a7.22,7.22,0,0,0,7.216,7.21H56.3a7.22,7.22,0,0,0,7.216-7.21V34.359a32.53,32.53,0,0,1-18.174-.019" transform="translate(92.594 69.048)"/>
          <path id="Trazado_827936" data-name="Trazado 827936" d="M69.333,77.552a32.3,32.3,0,1,1,9.842-1.531,32.192,32.192,0,0,1-9.842,1.531m0-63.383A31.073,31.073,0,1,0,100.4,45.241,31.109,31.109,0,0,0,69.333,14.169" transform="translate(77.722 27.148)"/>
          <path id="Trazado_827937" data-name="Trazado 827937" d="M42.362,40.213c-.347,0-.682-.012-1-.025a.62.62,0,0,1,.028-1.24c1.9.081,4.588.009,6.351-1.531a6.586,6.586,0,0,0,1.032-1.135A9.889,9.889,0,0,1,46.711,34.3a9.458,9.458,0,0,1-1.847-6.993c.115-.852.9-4.231,2.638-5.183a1.962,1.962,0,0,1,1.844-.046c1.19.555,1.643,2.182,1.94,3.261l.068.239A14.5,14.5,0,0,1,51.9,29.64a14.307,14.307,0,0,1-1.42,6.243c2.464,1.351,5.911,1.956,10.428,1.841A20.14,20.14,0,0,0,67.5,36.593a10.865,10.865,0,0,0,5.242-3.983c-.127-.065-.251-.133-.375-.2a6.345,6.345,0,0,1-3.382-4.544,5.957,5.957,0,0,1,.583-3.221,4,4,0,0,1,2.272-2.226,2.234,2.234,0,0,1,2.061.294c1.562,1.156,1.63,4.309,1.63,4.929a10.114,10.114,0,0,1-1.026,4.4c3.094,1.193,6.816,1.308,10.409,1.308a.621.621,0,1,1,0,1.243c-3.779,0-7.706-.127-11.026-1.46a12.045,12.045,0,0,1-5.955,4.622,21.283,21.283,0,0,1-6.99,1.212c-4.764.121-8.434-.542-11.106-2.024a7.969,7.969,0,0,1-1.268,1.41,9.317,9.317,0,0,1-6.2,1.86m6.1-17.1a.771.771,0,0,0-.363.1c-1.029.564-1.838,3.035-2,4.262a8.18,8.18,0,0,0,1.6,6.063,8.5,8.5,0,0,0,1.736,1.677,13.114,13.114,0,0,0,1.227-5.586,13.3,13.3,0,0,0-.5-3.713l-.071-.245c-.223-.806-.6-2.154-1.271-2.47a.826.826,0,0,0-.36-.087m24.166.418a1.378,1.378,0,0,0-.425.071,2.866,2.866,0,0,0-1.513,1.572,4.63,4.63,0,0,0-.474,2.536,5.1,5.1,0,0,0,2.753,3.611c.13.074.263.143.4.211a8.832,8.832,0,0,0,.921-3.9c0-1.488-.344-3.351-1.125-3.93a.865.865,0,0,0-.533-.174" transform="translate(85.616 45.926)"/>
          <path id="Trazado_827938" data-name="Trazado 827938" d="M51.5,36.721a.616.616,0,0,1-.58-.4L37.627.836A.619.619,0,1,1,38.786.4L52.078,35.884a.616.616,0,0,1-.363.8.6.6,0,0,1-.217.04" transform="translate(78.923 0.001)"/>
          <path id="Trazado_827939" data-name="Trazado 827939" d="M26.272,75.246a.614.614,0,0,1-.437-.18.621.621,0,0,1,0-.877L65.443,34.149a.62.62,0,1,1,.88.874L26.712,75.063a.625.625,0,0,1-.44.183" transform="translate(53.863 71.316)"/>
          <path id="Trazado_827940" data-name="Trazado 827940" d="M77.291,53.4a.621.621,0,0,1-.4-.146L55.413,35.06a.622.622,0,0,1,.806-.949L77.694,52.3a.621.621,0,0,1-.4,1.094" transform="translate(115.894 71.316)"/>
          <path id="Trazado_827941" data-name="Trazado 827941" d="M59.923,28.965a.621.621,0,0,1-.31-1.159L83.67,14.021a.622.622,0,0,1,.62,1.079L60.233,28.884a.626.626,0,0,1-.31.081" transform="translate(124.517 29.27)"/>
          <path id="Trazado_827942" data-name="Trazado 827942" d="M43.783,27.157H27.364a.622.622,0,0,1,0-1.243H43.783a.622.622,0,1,1,0,1.243" transform="translate(56.155 54.413)"/>
        </g>
      </g>
    </g>
  </g>
</svg>
