<svg xmlns="http://www.w3.org/2000/svg" xmlns:xlink="http://www.w3.org/1999/xlink" width="400" height="393" viewBox="0 0 400 393">
  <defs>
    <clipPath id="clip-path">
      <rect id="Rectángulo_383672" data-name="Rectángulo 383672" width="400" height="393" rx="12" transform="translate(1020 5370)" fill="#1682fb"/>
    </clipPath>
    <clipPath id="clip-path-2">
      <rect id="Rectángulo_382720" data-name="Rectángulo 382720" width="494.577" height="379.645" fill="none"/>
    </clipPath>
  </defs>
  <g id="Grupo_1074702" data-name="Grupo 1074702" transform="translate(-1020 -5370)">
    <rect id="Rectángulo_383626" data-name="Rectángulo 383626" width="272" height="217" rx="12" transform="translate(1020 5370)" fill="#273a89"/>
    <g id="Enmascarar_grupo_180" data-name="Enmascarar grupo 180" clip-path="url(#clip-path)">
      <g id="Grupo_1073477" data-name="Grupo 1073477" transform="translate(1020 5383.355)">
        <rect id="Rectángulo_382694" data-name="Rectángulo 382694" width="153.797" height="116.022" transform="translate(246.618 17.205)" fill="#3ee2a8"/>
        <path id="Trazado_823660" data-name="Trazado 823660" d="M95.214,133.487h.813V17.872H249.011V133.487h.812V17.059H95.214Z" transform="translate(150.997 -0.261)" fill="#262626"/>
        <rect id="Rectángulo_382695" data-name="Rectángulo 382695" width="150.423" height="0.813" transform="translate(240.997 29.513)" fill="#262626"/>
        <rect id="Rectángulo_382696" data-name="Rectángulo 382696" width="150.423" height="0.813" transform="translate(240.997 34.546)" fill="#262626"/>
        <rect id="Rectángulo_382697" data-name="Rectángulo 382697" width="59.026" height="0.812" transform="translate(332.394 63.793)" fill="#262626"/>
        <rect id="Rectángulo_382698" data-name="Rectángulo 382698" width="55.379" height="0.812" transform="translate(244.643 97.612)" fill="#262626"/>
        <rect id="Rectángulo_382699" data-name="Rectángulo 382699" width="55.379" height="0.812" transform="translate(244.643 102.562)" fill="#262626"/>
        <rect id="Rectángulo_382700" data-name="Rectángulo 382700" width="55.379" height="0.812" transform="translate(244.643 107.511)" fill="#262626"/>
        <rect id="Rectángulo_382701" data-name="Rectángulo 382701" width="55.379" height="0.813" transform="translate(244.643 112.461)" fill="#262626"/>
        <rect id="Rectángulo_382702" data-name="Rectángulo 382702" width="55.379" height="0.813" transform="translate(244.643 117.41)" fill="#262626"/>
        <rect id="Rectángulo_382703" data-name="Rectángulo 382703" width="55.379" height="0.813" transform="translate(244.643 122.36)" fill="#262626"/>
        <g id="Grupo_1073466" data-name="Grupo 1073466" transform="translate(0)">
          <g id="Grupo_1073465" data-name="Grupo 1073465" clip-path="url(#clip-path-2)">
            <path id="Trazado_823661" data-name="Trazado 823661" d="M104.589,24.087a2.22,2.22,0,1,0,2.22-2.219,2.221,2.221,0,0,0-2.22,2.219" transform="translate(282.559 -0.335)" fill="#1682fb"/>
            <path id="Trazado_823662" data-name="Trazado 823662" d="M113.035,24.087a2.22,2.22,0,1,0,2.22-2.219,2.221,2.221,0,0,0-2.22,2.219" transform="translate(265.796 -0.335)" fill="#73716e"/>
            <path id="Trazado_823663" data-name="Trazado 823663" d="M121.481,24.087a2.22,2.22,0,1,0,2.22-2.219,2.221,2.221,0,0,0-2.22,2.219" transform="translate(249.034 -0.335)" fill="#73716e"/>
            <rect id="Rectángulo_382704" data-name="Rectángulo 382704" width="78.516" height="4.767" transform="translate(310.464 52.25)" fill="#1682fb"/>
            <path id="Trazado_823664" data-name="Trazado 823664" d="M104.347,55.751h79.33V50.172h-79.33Zm78.516-.813h-77.7V50.984h77.7Z" transform="translate(208.151 -0.768)" fill="#262626"/>
            <rect id="Rectángulo_382705" data-name="Rectángulo 382705" width="78.516" height="4.767" transform="translate(310.464 72.712)" fill="#1682fb"/>
            <path id="Trazado_823665" data-name="Trazado 823665" d="M104.347,76.532h79.33V70.953h-79.33Zm78.516-.813h-77.7V71.765h77.7Z" transform="translate(208.151 -1.086)" fill="#262626"/>
            <path id="Trazado_823666" data-name="Trazado 823666" d="M227.647,87.762a25.183,25.183,0,0,0,3.555-.252L228.674,69.8a7.994,7.994,0,0,1-1.36.064A7.115,7.115,0,1,1,233,58.069l13.444-11.8A25,25,0,1,0,226.7,87.743c.352.011.649.019.945.019" transform="translate(48.592 -0.578)" fill="#1682fb"/>
            <path id="Trazado_823667" data-name="Trazado 823667" d="M218.687,82.958a20.125,20.125,0,1,0-7.834-38.666l3.167,7.489a12,12,0,1,1,4.667,23.046c-.161,0-.323,0-.484-.01a11.93,11.93,0,0,1-9.885-5.951l-7.023,4.1a20.032,20.032,0,0,0,16.629,9.981c.271.008.517.015.763.015" transform="translate(57.553 -0.654)" fill="#fff"/>
            <rect id="Rectángulo_382706" data-name="Rectángulo 382706" width="146.777" height="0.813" transform="translate(244.643 92.662)" fill="#262626"/>
            <rect id="Rectángulo_382707" data-name="Rectángulo 382707" width="27.858" height="16.931" transform="translate(363.563 104.775)" fill="#fff"/>
            <rect id="Rectángulo_382708" data-name="Rectángulo 382708" width="80.167" height="27.744" transform="translate(161.904 196.128)" fill="#262626"/>
            <path id="Trazado_823669" data-name="Trazado 823669" d="M274.79,190.476v11.237a16.626,16.626,0,0,1-2.2,8.469c-1.989,3.366-5.751,6.977-12.85,7.955h80.167c7.1-.979,10.861-4.59,12.849-7.955a16.618,16.618,0,0,0,2.2-8.469V190.476Z" transform="translate(-112.887 -2.916)" fill="#73716e"/>
            <path id="Trazado_823670" data-name="Trazado 823670" d="M256.146,218.415h83.475c7.485-1.03,11.246-4.97,13.091-8.094a16.909,16.909,0,0,0,2.24-8.611V190.191H274.224V201.71a16.359,16.359,0,0,1-2.161,8.326c-1.78,3.015-5.416,6.818-12.627,7.817h-3.29Zm98.245-27.662V201.71a16.359,16.359,0,0,1-2.161,8.326c-1.782,3.017-5.423,6.824-12.646,7.82l-77.294,0a16.419,16.419,0,0,0,10.259-7.532,16.928,16.928,0,0,0,2.239-8.611V190.753Z" transform="translate(-112.601 -2.912)" fill="#262626"/>
            <path id="Trazado_823671" data-name="Trazado 823671" d="M336.6,129.19v60.944a11.024,11.024,0,0,1-11.026,11.027H256.432V129.19Z" transform="translate(-94.528 -1.978)" fill="#3ee2a8"/>
            <path id="Trazado_823672" data-name="Trazado 823672" d="M256.146,201.437h69.422a11.32,11.32,0,0,0,11.307-11.307V163.474h-.562V190.13a10.757,10.757,0,0,1-10.745,10.745H256.708V129.466h65.564V128.9H256.146Z" transform="translate(-94.523 -1.973)" fill="#262626"/>
            <path id="Trazado_823673" data-name="Trazado 823673" d="M349.6,193.2a11.028,11.028,0,0,0,10.032,8.908l.045.04h-80.9c-7.833-.613-10.159-8.949-10.159-8.949Z" transform="translate(-129.598 -2.958)" fill="#3ee2a8"/>
            <path id="Trazado_823674" data-name="Trazado 823674" d="M279.024,194.884a12.645,12.645,0,0,1-.654-1.687h80.982a11.426,11.426,0,0,0,.471,1.687Z" transform="translate(-139.354 -2.958)" fill="#fff"/>
            <path id="Trazado_823675" data-name="Trazado 823675" d="M278.383,202.422h81.649l-.668-.595-.1-.007a10.749,10.749,0,0,1-9.776-8.681l-.043-.228H267.865l.1.356c.024.086,2.47,8.533,10.408,9.154Zm78.171-.562H278.405c-6.623-.524-9.231-6.809-9.783-8.387h80.365a11.315,11.315,0,0,0,7.567,8.387" transform="translate(-129.22 -2.953)" fill="#262626"/>
            <path id="Trazado_823676" data-name="Trazado 823676" d="M308.943,131.29l.438-.353c-12.22-15.195-12.223-15.2-12.235-15.21l-.221-.231-12.413,15.435.438.353,11.993-14.914,12,14.92" transform="translate(-94.962 -1.768)" fill="#262626"/>
            <rect id="Rectángulo_382709" data-name="Rectángulo 382709" width="3.622" height="0.562" transform="translate(201.764 115.008) rotate(-127.309)" fill="#262626"/>
            <path id="Trazado_823677" data-name="Trazado 823677" d="M268.3,161.323a14.616,14.616,0,0,0,14.06,14.606c.186.006.371.012.557.012A14.618,14.618,0,1,0,268.3,161.323" transform="translate(-67.16 -2.246)" fill="#f2eadf"/>
            <path id="Trazado_823678" data-name="Trazado 823678" d="M283.715,161.55a14.616,14.616,0,0,0,14.06,14.606V161.55Z" transform="translate(-82.57 -2.473)" fill="#fff"/>
            <path id="Trazado_823679" data-name="Trazado 823679" d="M282.879,178.708a17.434,17.434,0,1,0-.662-.013c.251.007.457.013.662.013m0-29.234a11.806,11.806,0,0,1,0,23.613c-.15,0-.3,0-.448-.01a11.806,11.806,0,0,1,.448-23.6" transform="translate(-67.118 -2.202)" fill="#73716e"/>
            <path id="Trazado_823680" data-name="Trazado 823680" d="M283.15,161.279h5.622a11.819,11.819,0,0,1,11.806-11.805v-5.622a17.448,17.448,0,0,0-17.428,17.427" transform="translate(-84.816 -2.202)" fill="#1682fb"/>
            <path id="Trazado_823681" data-name="Trazado 823681" d="M279.109,152.681l3.854-4.093a17.36,17.36,0,0,0-11.943-4.736v5.623a11.76,11.76,0,0,1,8.089,3.207" transform="translate(-55.257 -2.202)" fill="#73716e"/>
            <path id="Trazado_823682" data-name="Trazado 823682" d="M269.186,174.38a17.43,17.43,0,0,0,.365-25.72l-3.854,4.094a11.693,11.693,0,0,1,3.718,8.6,11.826,11.826,0,0,1-3.964,8.825Z" transform="translate(-41.846 -2.276)" fill="#fff"/>
            <path id="Trazado_823683" data-name="Trazado 823683" d="M272.055,179.116a17.406,17.406,0,0,0,11.578-4.4l-3.736-4.2a11.862,11.862,0,0,1-8.3,2.972l-.207,5.618q.329.013.663.013" transform="translate(-56.293 -2.61)" fill="#262626"/>
            <rect id="Rectángulo_382710" data-name="Rectángulo 382710" width="21.382" height="14.147" transform="translate(165.793 132.947)" fill="#fff"/>
            <rect id="Rectángulo_382711" data-name="Rectángulo 382711" width="26.891" height="5.011" transform="translate(165.916 165.119)" fill="#fff"/>
            <path id="Trazado_823684" data-name="Trazado 823684" d="M305.033,171.832h27.453v-5.573H305.033Zm26.891-.562H305.6v-4.449h26.329Z" transform="translate(-138.273 -2.545)" fill="#262626"/>
            <rect id="Rectángulo_382712" data-name="Rectángulo 382712" width="41.555" height="0.562" transform="translate(159.59 136.862)" fill="#262626"/>
            <rect id="Rectángulo_382713" data-name="Rectángulo 382713" width="41.555" height="0.562" transform="translate(159.59 142.458)" fill="#262626"/>
            <rect id="Rectángulo_382714" data-name="Rectángulo 382714" width="81.777" height="91.615" transform="translate(153.401 0.289)" fill="#3ee2a8"/>
            <path id="Trazado_823685" data-name="Trazado 823685" d="M263.139,91.9h.577V.577h81.2V91.9h.577V0H263.139Z" transform="translate(-110.026)" fill="#262626"/>
            <rect id="Rectángulo_382715" data-name="Rectángulo 382715" width="65.036" height="0.577" transform="translate(153.401 77.135)" fill="#262626"/>
            <path id="Trazado_823686" data-name="Trazado 823686" d="M292.177,70.883l5.293,3.056V18.013l-5.292-3.055Z" transform="translate(-90.597 -0.229)" fill="#fff"/>
            <path id="Trazado_823687" data-name="Trazado 823687" d="M292.177,71.442,297.47,74.5V54.534l-5.293-3.055Z" transform="translate(-90.597 -0.788)" fill="#73716e"/>
            <path id="Trazado_823688" data-name="Trazado 823688" d="M297.753,74.43V17.839l-5.869-3.388v56.59Zm-.576-56.258V73.431l-4.715-2.723V15.45Z" transform="translate(-90.592 -0.221)" fill="#262626"/>
            <path id="Trazado_823689" data-name="Trazado 823689" d="M304.176,74.54l5.293,3.056V14.241l-5.292-3.055Z" transform="translate(-114.411 -0.171)" fill="#fff"/>
            <path id="Trazado_823690" data-name="Trazado 823690" d="M304.176,74.84l5.293,3.056v-44l-5.292-3.055Z" transform="translate(-114.411 -0.472)" fill="#1682fb"/>
            <path id="Trazado_823691" data-name="Trazado 823691" d="M309.752,78.087V14.067l-5.869-3.39,0,64.022ZM309.175,14.4V77.088l-4.715-2.724V11.677Z" transform="translate(-114.406 -0.163)" fill="#262626"/>
            <path id="Trazado_823692" data-name="Trazado 823692" d="M316.175,70.883l5.293,3.056V18.013l-5.292-3.055Z" transform="translate(-138.225 -0.229)" fill="#fff"/>
            <path id="Trazado_823693" data-name="Trazado 823693" d="M316.175,71.237l5.293,3.056v-33.1l-5.293-3.055Z" transform="translate(-138.225 -0.584)" fill="#73716e"/>
            <path id="Trazado_823694" data-name="Trazado 823694" d="M321.75,74.43V17.839l-5.869-3.388v56.59Zm-.576-56.258V73.431l-4.715-2.723V15.45Z" transform="translate(-138.219 -0.221)" fill="#262626"/>
            <rect id="Rectángulo_382716" data-name="Rectángulo 382716" width="0.577" height="66.41" transform="translate(218.267 11.015)" fill="#262626"/>
            <rect id="Rectángulo_382717" data-name="Rectángulo 382717" width="39.557" height="3.381" transform="translate(156.44 81.287)" fill="#1682fb"/>
            <path id="Trazado_823695" data-name="Trazado 823695" d="M301.171,84.458H341.3V80.5H301.171Zm39.557-.577h-38.98v-2.8h38.98Z" transform="translate(-143.289 -1.232)" fill="#262626"/>
            <rect id="Rectángulo_382718" data-name="Rectángulo 382718" width="19.418" height="0.577" transform="translate(153.401 6.206)" fill="#262626"/>
            <rect id="Rectángulo_382719" data-name="Rectángulo 382719" width="19.418" height="0.577" transform="translate(153.401 9.775)" fill="#262626"/>
          </g>
        </g>
        <g id="Grupo_1073468" data-name="Grupo 1073468" transform="translate(0)">
          <g id="Grupo_1073467" data-name="Grupo 1073467" clip-path="url(#clip-path-2)">
            <path id="Trazado_823696" data-name="Trazado 823696" d="M237.571,102.012a.492.492,0,0,0,.294-.887l-7.72-5.759a.492.492,0,1,0-.588.789l7.72,5.76a.486.486,0,0,0,.293.1" transform="translate(30.664 -1.458)" fill="#73716e"/>
            <path id="Trazado_823697" data-name="Trazado 823697" d="M215.684,96.292l20.852,15.559-1.586,2.127L214.1,98.418a1.326,1.326,0,1,1,1.586-2.126" transform="translate(47.748 -1.47)" fill="#262626"/>
            <path id="Trazado_823698" data-name="Trazado 823698" d="M213.334,112.326a1.326,1.326,0,1,0,1.856-.27,1.326,1.326,0,0,0-1.856.27" transform="translate(69.045 -1.711)" fill="#73716e"/>
            <path id="Trazado_823699" data-name="Trazado 823699" d="M116.58,336.717l13.307,35.776-12.951.7-12.951-33.1Z" transform="translate(262.296 -5.155)" fill="#73716e"/>
            <path id="Trazado_823700" data-name="Trazado 823700" d="M156.461,345.478l-3.268,32.888-13.1-.265,3.6-35.251Z" transform="translate(200.17 -5.249)" fill="#73716e"/>
            <path id="Trazado_823701" data-name="Trazado 823701" d="M106.627,157.966c.859,1.736,5.629,1.127,10.655-1.359s8.4-5.909,7.544-7.645-5.628-1.127-10.654,1.359-8.4,5.909-7.545,7.645" transform="translate(264.754 -2.265)" fill="#262626"/>
            <path id="Trazado_823702" data-name="Trazado 823702" d="M135.773,125.384c.586-11.113.586-11.113,1.112-20.885a8.2,8.2,0,0,1,16.368,0c.536,9.772.536,9.772,1.133,20.885,0,.167.014.332.014.5a9.326,9.326,0,1,1-18.652,0c0-.169.017-.334.026-.5" transform="translate(206.509 -1.481)" fill="#73716e"/>
            <path id="Trazado_823703" data-name="Trazado 823703" d="M94.043,144.007a8.237,8.237,0,1,1,13.857-8.89c8.429,14.163,14.762,24.817,21.706,36.5a6.792,6.792,0,0,1-11.427,7.331c-.015-.018-.028-.036-.04-.055L94.043,144.007" transform="translate(272.852 -2.007)" fill="#73716e"/>
            <path id="Trazado_823704" data-name="Trazado 823704" d="M129.053,210.6s11.216,12.3,60.94,1.93Z" transform="translate(177.507 -3.224)" fill="#262626"/>
            <path id="Trazado_823705" data-name="Trazado 823705" d="M126.287,230.418a16.883,16.883,0,0,1,33.765.3c0,.534-.041,1.06-.095,1.58a.958.958,0,0,1-.008.13c-3.454,33.491-4.635,44.937-6.975,67.613a11.409,11.409,0,0,1-22.74-.516c-1.323-22.795-1.983-34.28-3.92-67.991,0-.371-.031-.742-.028-1.121" transform="translate(210.17 -3.271)" fill="#73716e"/>
            <path id="Trazado_823706" data-name="Trazado 823706" d="M134.675,299.787a11.416,11.416,0,0,1,22.829.338c0,.286-.027.566-.05.848-1.892,22.753-3.941,46.349-5.521,65.256l-18.518-5.1c.39-18.97.792-38.51,1.26-61.337" transform="translate(205.7 -4.418)" fill="#262626"/>
            <path id="Trazado_823707" data-name="Trazado 823707" d="M138.381,236.97,127.288,205.7l52.821.323,5.757,18.735Z" transform="translate(183.372 -3.149)" fill="#73716e"/>
            <path id="Trazado_823708" data-name="Trazado 823708" d="M127.019,231.632a16.879,16.879,0,0,1,33.367-3.618,1.325,1.325,0,0,1,.042.163c.006.028.013.054.018.081,7.2,32.8,10.087,45.952,14.97,68.2a11.732,11.732,0,0,1,.265,2.448,11.411,11.411,0,0,1-22.044,4.146c-8.3-21.27-13.2-33.823-25.465-65.282a17.088,17.088,0,0,1-1.153-6.134" transform="translate(193.821 -3.288)" fill="#73716e"/>
            <path id="Trazado_823709" data-name="Trazado 823709" d="M108.706,304.337a11.412,11.412,0,1,1,21.376-7.974c7.353,21.616,13.371,39.945,19.475,57.91L131.788,360.9c-7.134-17.526-14.428-35.3-23.013-56.4-.012-.027-.022-.053-.033-.081l-.035-.088" transform="translate(238.807 -4.419)" fill="#73716e"/>
            <path id="Trazado_823710" data-name="Trazado 823710" d="M165.116,246.137l.048-.983-11.087-.547-6.32-18.5-.932.319,6.536,19.128Z" transform="translate(184.834 -3.462)" fill="#262626"/>
            <path id="Trazado_823711" data-name="Trazado 823711" d="M130.942,240.281l.667-.725-3.858-3.544.737-16.317-.984-.044-.756,16.777Z" transform="translate(238.16 -3.363)" fill="#262626"/>
            <path id="Trazado_823712" data-name="Trazado 823712" d="M171.789,370.837l2.515,11.424H139.832v-5.226s14.581-.653,17.778-8.272Z" transform="translate(182.581 -5.645)" fill="#73716e"/>
            <rect id="Rectángulo_382721" data-name="Rectángulo 382721" width="34.472" height="2.468" transform="translate(322.413 376.616)" fill="#73716e"/>
            <path id="Trazado_823713" data-name="Trazado 823713" d="M140.56,268.967l.962-.212-6.33-28.834a12.277,12.277,0,0,0,2.172-9.212l-3.077-18.236-.971.163,3.077,18.236a11.256,11.256,0,0,1-2.093,8.6l-.136.181.018.261Z" transform="translate(221.778 -3.253)" fill="#262626"/>
            <path id="Trazado_823714" data-name="Trazado 823714" d="M144.017,119.91,127.763,137.5l-9.325,71.712,60.94,1.93-12.06-28.3,4.663-2.9,17.848-38.429L186.9,129.681Z" transform="translate(188.122 -1.836)" fill="#1682fb"/>
            <path id="Trazado_823715" data-name="Trazado 823715" d="M94.218,195.217c6.856-5.665,19.626-16.165,30.118-24.793a6.791,6.791,0,1,1,7.977,10.962c-11.45,7.314-25.391,16.213-32.889,21a4.508,4.508,0,0,1-2.393.7,4.43,4.43,0,0,1-2.813-7.867" transform="translate(267.958 -2.585)" fill="#73716e"/>
            <path id="Trazado_823716" data-name="Trazado 823716" d="M204.189,117.45c5.177,7.231,14.771,20.694,22.655,31.757a6.791,6.791,0,1,1-11.485,7.2c-6.507-11.928-14.422-26.45-18.68-34.259a4.517,4.517,0,0,1-.532-2.436,4.43,4.43,0,0,1,8.042-2.263" transform="translate(73.331 -1.769)" fill="#73716e"/>
            <path id="Trazado_823717" data-name="Trazado 823717" d="M139.463,189.956a1.277,1.277,0,0,1,1.2-1.268c1.833-.143,1.833-.143,4.579-.335a1.034,1.034,0,0,0,.135,0,1.93,1.93,0,0,1,0,3.859,1.979,1.979,0,0,1-.4-.042l-4.489-.95a1.318,1.318,0,0,1-1.02-1.258" transform="translate(209.948 -2.883)" fill="#262626"/>
            <path id="Trazado_823718" data-name="Trazado 823718" d="M162.656,198.85l.584-.793c-17.624-12.983-22.694-26.2-22.743-26.335l-.923.343c.049.135,5.2,13.613,23.082,26.785" transform="translate(193.899 -2.629)" fill="#262626"/>
            <rect id="Rectángulo_382722" data-name="Rectángulo 382722" width="0.985" height="48.817" transform="translate(317.169 216.797) rotate(-98.254)" fill="#262626"/>
            <path id="Trazado_823719" data-name="Trazado 823719" d="M131.9,190.277a1.92,1.92,0,0,1,3.188-1.451c2.92,2.525,3.421,2.96,7.245,6.28a2.566,2.566,0,0,1,.871,1.912c0,1.4-3.567,4.128-3.567,4.128s-4.673-6.707-7.247-9.582a1.96,1.96,0,0,1-.491-1.287" transform="translate(221.491 -2.883)" fill="#73716e"/>
            <path id="Trazado_823720" data-name="Trazado 823720" d="M161.92,147.67a.583.583,0,0,1,.054-.044l33.787-25.607a8.237,8.237,0,1,1,9.491,13.452c-13.778,9.044-24.144,15.842-35.505,23.292a6.792,6.792,0,0,1-7.827-11.093" transform="translate(128.808 -1.842)" fill="#73716e"/>
            <path id="Trazado_823721" data-name="Trazado 823721" d="M157.961,133.012l15.751-11a9.557,9.557,0,0,1,12.64,14.338s-.042.038-.042.038a9.667,9.667,0,0,1-1.089.835l-15.178,11.628c-1.367,1.042-5.178-1.66-8.515-6.036s-4.933-8.766-3.568-9.808" transform="translate(149.952 -1.832)" fill="#1682fb"/>
            <path id="Trazado_823722" data-name="Trazado 823722" d="M106.629,139.3a9.561,9.561,0,0,1,18.233-4.043c.152.326,7.239,13.422,7.239,13.422-.859-1.736-5.629-1.128-10.655,1.358s-8.4,5.91-7.545,7.646l-6.052-13.716a9.392,9.392,0,0,1-.719-1.63l-.027-.06a9.669,9.669,0,0,1-.475-2.978" transform="translate(257.479 -1.986)" fill="#1682fb"/>
            <rect id="Rectángulo_382723" data-name="Rectángulo 382723" width="6.538" height="0.985" transform="matrix(-0.27, -0.963, 0.963, -0.27, 330.322, 376.747)" fill="#f2eadf"/>
            <path id="Trazado_823723" data-name="Trazado 823723" d="M132.36,371.263l2.453,11.143H101.191v-5.1s12.766-.168,15.883-7.6Z" transform="translate(260.122 -5.66)" fill="#1682fb"/>
            <rect id="Rectángulo_382724" data-name="Rectángulo 382724" width="33.622" height="2.407" transform="translate(361.313 376.746)" fill="#73716e"/>
            <rect id="Rectángulo_382725" data-name="Rectángulo 382725" width="6.387" height="0.985" transform="translate(369.01 376.875) rotate(-105.3)" fill="#f2eadf"/>
            <rect id="Rectángulo_382726" data-name="Rectángulo 382726" width="0.985" height="2.468" transform="translate(355.075 376.616)" fill="#262626"/>
            <rect id="Rectángulo_382727" data-name="Rectángulo 382727" width="0.985" height="2.468" transform="translate(352.626 376.616)" fill="#262626"/>
            <rect id="Rectángulo_382728" data-name="Rectángulo 382728" width="0.985" height="2.468" transform="translate(350.177 376.616)" fill="#262626"/>
            <rect id="Rectángulo_382729" data-name="Rectángulo 382729" width="0.985" height="2.468" transform="translate(347.728 376.616)" fill="#262626"/>
            <rect id="Rectángulo_382730" data-name="Rectángulo 382730" width="0.985" height="2.468" transform="translate(345.28 376.616)" fill="#262626"/>
            <rect id="Rectángulo_382731" data-name="Rectángulo 382731" width="0.985" height="2.468" transform="translate(342.83 376.616)" fill="#262626"/>
            <rect id="Rectángulo_382732" data-name="Rectángulo 382732" width="0.985" height="2.468" transform="translate(340.381 376.616)" fill="#262626"/>
            <rect id="Rectángulo_382733" data-name="Rectángulo 382733" width="0.985" height="2.468" transform="translate(337.933 376.616)" fill="#262626"/>
            <rect id="Rectángulo_382734" data-name="Rectángulo 382734" width="0.985" height="2.468" transform="translate(335.483 376.616)" fill="#262626"/>
            <rect id="Rectángulo_382735" data-name="Rectángulo 382735" width="0.985" height="2.468" transform="translate(333.034 376.616)" fill="#262626"/>
            <rect id="Rectángulo_382736" data-name="Rectángulo 382736" width="0.985" height="2.468" transform="translate(330.586 376.616)" fill="#262626"/>
            <rect id="Rectángulo_382737" data-name="Rectángulo 382737" width="0.985" height="2.468" transform="translate(328.136 376.616)" fill="#262626"/>
            <rect id="Rectángulo_382738" data-name="Rectángulo 382738" width="0.985" height="2.468" transform="translate(325.688 376.616)" fill="#262626"/>
            <rect id="Rectángulo_382739" data-name="Rectángulo 382739" width="0.985" height="2.468" transform="translate(323.239 376.616)" fill="#262626"/>
            <rect id="Rectángulo_382740" data-name="Rectángulo 382740" width="0.985" height="2.407" transform="translate(393.156 376.746)" fill="#262626"/>
            <rect id="Rectángulo_382741" data-name="Rectángulo 382741" width="0.985" height="2.407" transform="translate(390.768 376.746)" fill="#262626"/>
            <rect id="Rectángulo_382742" data-name="Rectángulo 382742" width="0.985" height="2.407" transform="translate(388.379 376.746)" fill="#262626"/>
            <rect id="Rectángulo_382743" data-name="Rectángulo 382743" width="0.985" height="2.407" transform="translate(385.991 376.746)" fill="#262626"/>
            <rect id="Rectángulo_382744" data-name="Rectángulo 382744" width="0.985" height="2.407" transform="translate(383.602 376.746)" fill="#262626"/>
            <rect id="Rectángulo_382745" data-name="Rectángulo 382745" width="0.985" height="2.407" transform="translate(381.214 376.746)" fill="#262626"/>
            <rect id="Rectángulo_382746" data-name="Rectángulo 382746" width="0.985" height="2.407" transform="translate(378.825 376.746)" fill="#262626"/>
            <rect id="Rectángulo_382747" data-name="Rectángulo 382747" width="0.985" height="2.407" transform="translate(376.436 376.746)" fill="#262626"/>
            <rect id="Rectángulo_382748" data-name="Rectángulo 382748" width="0.985" height="2.407" transform="translate(374.049 376.746)" fill="#262626"/>
            <rect id="Rectángulo_382749" data-name="Rectángulo 382749" width="0.985" height="2.407" transform="translate(371.66 376.746)" fill="#262626"/>
            <rect id="Rectángulo_382750" data-name="Rectángulo 382750" width="0.985" height="2.407" transform="translate(369.271 376.746)" fill="#262626"/>
            <rect id="Rectángulo_382751" data-name="Rectángulo 382751" width="0.985" height="2.407" transform="translate(366.882 376.746)" fill="#262626"/>
            <rect id="Rectángulo_382752" data-name="Rectángulo 382752" width="0.985" height="2.407" transform="translate(364.494 376.746)" fill="#262626"/>
            <rect id="Rectángulo_382753" data-name="Rectángulo 382753" width="0.985" height="2.407" transform="translate(362.105 376.746)" fill="#262626"/>
            <path id="Trazado_823724" data-name="Trazado 823724" d="M226.658,100.088a.808.808,0,0,1,.212-.008c1.178.087,1.178.087,2.707.2a1.08,1.08,0,1,1-.359,2.119c-1.483-.391-1.483-.391-2.624-.694a.832.832,0,0,1,.065-1.622" transform="translate(41.485 -1.532)" fill="#262626"/>
            <path id="Trazado_823725" data-name="Trazado 823725" d="M227.118,104.256c1.362-.955,2.1-1.475,3.875-2.715a1.111,1.111,0,0,1,.426-.177,1.078,1.078,0,0,1,.715,2c-1.89,1.051-2.682,1.489-4.138,2.294a.956.956,0,0,1-.253.091.83.83,0,0,1-.625-1.5" transform="translate(38.592 -1.552)" fill="#262626"/>
            <path id="Trazado_823726" data-name="Trazado 823726" d="M229.106,107.182c.427-1.321.427-1.321,1.008-3.1a1.093,1.093,0,0,1,.834-.728,1.075,1.075,0,0,1,1.145,1.567c-.873,1.66-.873,1.66-1.523,2.887a.814.814,0,0,1-.563.413.8.8,0,0,1-.931-.644.787.787,0,0,1,.03-.39" transform="translate(36.797 -1.582)" fill="#262626"/>
            <path id="Trazado_823727" data-name="Trazado 823727" d="M223.485,100.3c1.458-.161,1.458-.161,3.166-.336.045,0,.088-.007.133-.007a1.3,1.3,0,1,1,0,2.605c-.017,0-.033,0-.05-.006-1.682-.061-1.718-.062-3.059-.114a1.105,1.105,0,0,1-1.059-.885,1.081,1.081,0,0,1,.87-1.257" transform="translate(47.3 -1.53)" fill="#262626"/>
            <path id="Trazado_823728" data-name="Trazado 823728" d="M217.728,101.257a1.3,1.3,0,0,1,2.208-.934c1.872,1.812,2.2,2.131,4.669,4.523a1.715,1.715,0,1,1-2.534,2.3c-2.149-2.681-2.434-3.04-4.059-5.076a1.333,1.333,0,0,1-.285-.812" transform="translate(55.054 -1.53)" fill="#73716e"/>
            <path id="Trazado_823729" data-name="Trazado 823729" d="M221.61,101.363a1.07,1.07,0,0,1,.742.138c1.862,1.1,2.682,1.585,5.638,3.338a1.719,1.719,0,0,1-.877,3.2,1.707,1.707,0,0,1-1.141-.442c-2.566-2.284-3.277-2.92-4.889-4.361a1.1,1.1,0,0,1-.343-.612,1.081,1.081,0,0,1,.869-1.257" transform="translate(48.401 -1.552)" fill="#73716e"/>
            <path id="Trazado_823730" data-name="Trazado 823730" d="M224.808,103.349a1.067,1.067,0,0,1,.72.126c1.833,1.023,1.833,1.023,4.741,2.655a1.718,1.718,0,0,1-.841,3.217,1.713,1.713,0,0,1-1.162-.459c-2.455-2.258-2.455-2.258-4-3.68a1.1,1.1,0,0,1-.331-.6,1.082,1.082,0,0,1,.869-1.257" transform="translate(42.937 -1.582)" fill="#73716e"/>
            <path id="Trazado_823731" data-name="Trazado 823731" d="M228.2,106.183a1.066,1.066,0,0,1,.625.073l2.238.974a1.718,1.718,0,0,1-.666,3.3,1.712,1.712,0,0,1-1.361-.678c-.923-1.2-.923-1.2-1.5-1.951a1.133,1.133,0,0,1-.2-.463,1.081,1.081,0,0,1,.869-1.257" transform="translate(38.619 -1.625)" fill="#73716e"/>
            <path id="Trazado_823732" data-name="Trazado 823732" d="M222.9,106.152l-.472,12.4a4.134,4.134,0,0,0,.7,2.466l7,10.36-12.03.162-6.359-11.386a8.76,8.76,0,0,1-1.1-3.9l-.266-6.413,5.9-5.095Z" transform="translate(57.278 -1.604)" fill="#73716e"/>
            <rect id="Rectángulo_382754" data-name="Rectángulo 382754" width="0.984" height="15.755" transform="translate(309.025 131.005) rotate(-124.869)" fill="#262626"/>
            <path id="Trazado_823733" data-name="Trazado 823733" d="M119.634,186.437l9.167-5.784,16.8-36.178-.893-.415-16.68,35.915-8.921,5.628Z" transform="translate(231.687 -2.205)" fill="#262626"/>
            <path id="Trazado_823734" data-name="Trazado 823734" d="M141.725,382.323h.985a8.875,8.875,0,0,1,6.309-8.564l-.252-.952c-.07.019-7.042,1.948-7.042,9.516" transform="translate(206.003 -5.707)" fill="#f2eadf"/>
            <path id="Trazado_823735" data-name="Trazado 823735" d="M102.867,382.323h.985a8.757,8.757,0,0,1,6.309-8.564l-.253-.952c-.07.019-7.041,1.948-7.041,9.516" transform="translate(283.124 -5.707)" fill="#f2eadf"/>
            <rect id="Rectángulo_382755" data-name="Rectángulo 382755" width="34.472" height="0.985" transform="translate(322.413 376.123)" fill="#262626"/>
            <rect id="Rectángulo_382756" data-name="Rectángulo 382756" width="33.622" height="0.985" transform="translate(361.313 376.253)" fill="#262626"/>
            <path id="Trazado_823736" data-name="Trazado 823736" d="M144.728,74.915l-10.527,7.8a4.888,4.888,0,0,0-1.6,2.041l-.325.779a11.176,11.176,0,0,0-.868,4.319,10.262,10.262,0,0,0,.62,3.541c.006.017-2.153,4.213-2.153,4.213a7.338,7.338,0,0,0-.371,5.834,16.637,16.637,0,0,1,1.106,7.1,2.691,2.691,0,0,0,.685,2.193,2.655,2.655,0,0,0,2.568.778l25.564-6.194,6.933-17.037-6.1-13.362Z" transform="translate(201.125 -1.147)" fill="#73716e"/>
            <rect id="Rectángulo_382757" data-name="Rectángulo 382757" width="3.173" height="0.984" transform="matrix(-0.671, -0.741, 0.741, -0.671, 332.794, 92.598)" fill="#262626"/>
            <rect id="Rectángulo_382758" data-name="Rectángulo 382758" width="3.304" height="0.984" transform="matrix(-0.588, -0.809, 0.809, -0.588, 333.638, 88.924)" fill="#262626"/>
            <path id="Trazado_823737" data-name="Trazado 823737" d="M132.283,99.394,130,97.779s1.559-5.289-1.894-8.852l1.059-6.18,30.957,11.3-6.4,14.529a4.669,4.669,0,0,1-4.273,2.787h-.057a4.667,4.667,0,0,1-3.995-2.254l-7.658-12.668Z" transform="translate(208.309 -1.267)" fill="#262626"/>
            <path id="Trazado_823738" data-name="Trazado 823738" d="M126.77,82.607a6.223,6.223,0,0,1,3.433-6.094L131.232,76a22.323,22.323,0,0,1,16.341-1.512c5.588,1.7,11.24,5.721,11.49,15.019l-1.336,4.4Z" transform="translate(210.704 -1.127)" fill="#262626"/>
            <path id="Trazado_823739" data-name="Trazado 823739" d="M148.776,99.055l2.413-3.728,2.728.446,1.782,3.118-1.615,5.262-4.537,2.255-1.2-.557Z" transform="translate(192.8 -1.459)" fill="#73716e"/>
            <path id="Trazado_823740" data-name="Trazado 823740" d="M150.9,103.617l1.783-4.874-2.385-2.2-.668.725,1.9,1.754-1.558,4.257Z" transform="translate(194.552 -1.478)" fill="#262626"/>
            <path id="Trazado_823741" data-name="Trazado 823741" d="M126.046,88.545l.622-.039a2.376,2.376,0,0,1,2.316,1.394,2.39,2.39,0,0,0,2.089,1.426,4.858,4.858,0,0,1,4.409,3.171l.715,1.944a6.83,6.83,0,0,1,.228,3.954l-.688,2.86a2.794,2.794,0,0,0,.11,1.666,2.813,2.813,0,0,1-.456,2.831l-2.627,3.144a3.306,3.306,0,0,1-2.535,1.185,3.334,3.334,0,0,0-1.042.161l-.958.311a3.3,3.3,0,0,1-3.311-.762l-2.371-2.284a7.082,7.082,0,0,1-1.929-6.932L123.9,90.3a2.377,2.377,0,0,1,2.147-1.758" transform="translate(239.427 -1.355)" fill="#262626"/>
            <rect id="Rectángulo_382759" data-name="Rectángulo 382759" width="0.984" height="12.723" transform="translate(335.103 112.845) rotate(-103.622)" fill="#262626"/>
            <path id="Trazado_823742" data-name="Trazado 823742" d="M111.376,369.71l.918-.359-3.322-8.49,13.71-5.115-.345-.923-14.647,5.464Z" transform="translate(265.855 -5.432)" fill="#262626"/>
          </g>
        </g>
        <rect id="Rectángulo_382761" data-name="Rectángulo 382761" width="132.052" height="0.985" transform="translate(8.795 378.194)" fill="#262626"/>
        <g id="Grupo_1073470" data-name="Grupo 1073470" transform="translate(0)">
          <g id="Grupo_1073469" data-name="Grupo 1073469" clip-path="url(#clip-path-2)">
            <path id="Trazado_823743" data-name="Trazado 823743" d="M384.186,102.568c0,1.4,2.582,2.538,2.844,3.865.271,1.368-1.676,3.4-1.154,4.659.532,1.28,3.35,1.338,4.112,2.477s-.252,3.772.72,4.744,3.6-.047,4.745.72,1.2,3.58,2.476,4.111c1.258.522,3.29-1.425,4.658-1.154,1.327.263,2.461,2.844,3.865,2.844s2.538-2.581,3.865-2.844c1.369-.271,3.4,1.676,4.659,1.154,1.281-.531,1.338-3.35,2.477-4.111s3.772.252,4.744-.721-.047-3.6.721-4.744,3.579-1.2,4.111-2.476c.522-1.258-1.425-3.291-1.154-4.659.262-1.327,2.844-2.461,2.844-3.865s-2.582-2.538-2.844-3.865c-.271-1.368,1.675-3.4,1.153-4.659-.531-1.28-3.349-1.338-4.111-2.477s.252-3.772-.72-4.744-3.6.047-4.745-.72-1.2-3.58-2.476-4.111c-1.258-.522-3.291,1.425-4.659,1.154-1.327-.263-2.46-2.844-3.865-2.844s-2.537,2.581-3.865,2.844c-1.368.271-3.4-1.676-4.659-1.154-1.28.531-1.337,3.349-2.475,4.111s-3.772-.252-4.745.721.048,3.6-.72,4.744-3.58,1.2-4.111,2.476c-.522,1.257,1.425,3.29,1.154,4.658-.262,1.327-2.844,2.461-2.844,3.865" transform="translate(-312.444 -1.229)" fill="#262626"/>
            <path id="Trazado_823744" data-name="Trazado 823744" d="M390.158,140.853c1.315-12.157,1.317-12.179,2.508-23.194a8.326,8.326,0,0,1,16.609.842c0,.1-.012.2-.015.3-.4,11.128-.4,11.128-.844,23.369a9.16,9.16,0,0,1-18.313-.335,9.564,9.564,0,0,1,.055-.985" transform="translate(-298.829 -1.687)" fill="#f2eadf"/>
            <path id="Trazado_823745" data-name="Trazado 823745" d="M413.626,194.082q1.767-19.591,3.8-42.056a7.768,7.768,0,0,1,.445-1.953,7.511,7.511,0,0,1,14.478,3.645c0,.047-.009.093-.015.139q-3.038,22.26-5.691,41.7a6.853,6.853,0,0,1-.354,1.409,6.554,6.554,0,0,1-12.667-2.886" transform="translate(-345.113 -2.223)" fill="#73716e"/>
            <path id="Trazado_823746" data-name="Trazado 823746" d="M356.385,151.065a7.511,7.511,0,0,1,14.73-2.435c.017.043.029.088.041.132l11.424,40.509a6.849,6.849,0,0,1,.236,1.434,6.553,6.553,0,0,1-12.766,2.409q-6.2-18.67-13.3-40.081a7.793,7.793,0,0,1-.371-1.967" transform="translate(-239.169 -2.192)" fill="#615f5d"/>
            <path id="Trazado_823747" data-name="Trazado 823747" d="M417.907,143.337l4.708,20.521a24.494,24.494,0,0,1,.619,5.473v.053a24.476,24.476,0,0,1-.488,4.866l-6.614,32.607-33.537.274-14.309-61.484,15.361-5.126,16.5-1.418Z" transform="translate(-291.305 -2.13)" fill="#73716e"/>
            <path id="Trazado_823748" data-name="Trazado 823748" d="M353.28,186.3c1.9-1.771,7.532-7.593,7.532-7.593l9.23,10.4s-7.075,7.993-8.214,8.671A7.193,7.193,0,0,1,353.28,186.3" transform="translate(-221.051 -2.736)" fill="#73716e"/>
            <path id="Trazado_823749" data-name="Trazado 823749" d="M383.175,143.407l8.649-2.886,16.5-1.418,8.4,2c.006.092.029.182.029.275,0,4.6-7.645,8.332-17.076,8.332-7.876,0-14.525-2.767-16.5-6.3" transform="translate(-299.481 -2.13)" fill="#f2eadf"/>
            <path id="Trazado_823750" data-name="Trazado 823750" d="M394.343,325.335a8.194,8.194,0,1,1,16.334-.838c-.164,16.391-.3,29.123-.415,40.6a5.738,5.738,0,0,1-10.454,3.206,5.68,5.68,0,0,1-.959-2.634c-1.292-11.4-2.7-24.049-4.506-40.332" transform="translate(-304.356 -4.841)" fill="#262626"/>
            <path id="Trazado_823751" data-name="Trazado 823751" d="M378.507,203.148h35.805l6.195,13.387,1.366,26.957-54.974-6.56Z" transform="translate(-288.577 -3.11)" fill="#1682fb"/>
            <path id="Trazado_823752" data-name="Trazado 823752" d="M391.732,301.577a12.021,12.021,0,0,1,24.02-1.059c.008.189,0,.373,0,.56-.044,24.041-.086,40.057-.132,58.635l-18.54.817c-1.681-18.5-3.129-34.452-5.306-58.4,0-.187-.03-.369-.038-.559" transform="translate(-306.901 -4.425)" fill="#1682fb"/>
            <path id="Trazado_823753" data-name="Trazado 823753" d="M351.675,249.026a16.937,16.937,0,1,1,31.075-13.152c.012.028.021.054.031.084.015.047.031.1.046.143,9.971,30.852,9.992,30.915,17.1,52.921a12.019,12.019,0,0,1-22.053,9.333c-10.855-20.433-10.88-20.479-26.113-49.16-.018-.033-.034-.066-.052-.1l-.036-.07" transform="translate(-250.279 -3.431)" fill="#1682fb"/>
            <path id="Trazado_823754" data-name="Trazado 823754" d="M389.3,243.609a16.939,16.939,0,0,1,33.845-1.492c.022.49.011.974-.009,1.455-1.387,33.348-1.387,33.348-2.38,57.014a12.017,12.017,0,0,1-23.923,1.055c-3.078-23.487-3.078-23.487-7.406-56.581-.051-.479-.105-.96-.127-1.45" transform="translate(-311.905 -3.459)" fill="#1682fb"/>
            <path id="Trazado_823755" data-name="Trazado 823755" d="M369.47,351.3c5.186-10.233,10.966-21.573,18.4-36.17a8.194,8.194,0,1,1,14.106,8.278c-9.147,13.6-16.255,24.166-22.661,33.686a5.737,5.737,0,0,1-10.5-3.067,5.667,5.667,0,0,1,.646-2.728" transform="translate(-271.982 -4.756)" fill="#1682fb"/>
            <path id="Trazado_823756" data-name="Trazado 823756" d="M401.86,233.943h2.287a8.6,8.6,0,0,0,7.1-3.745l9.744-14.245-.813-.555-9.743,14.245a7.61,7.61,0,0,1-6.286,3.315H401.86Z" transform="translate(-322.122 -3.298)" fill="#262626"/>
            <path id="Trazado_823757" data-name="Trazado 823757" d="M385.905,253.337l4.127-5.321V202.1h-.985v45.576l-3.921,5.054Z" transform="translate(-274.686 -3.094)" fill="#262626"/>
            <rect id="Rectángulo_382762" data-name="Rectángulo 382762" width="0.985" height="18.149" transform="translate(115.021 245.217) rotate(-109.8)" fill="#262626"/>
            <rect id="Rectángulo_382763" data-name="Rectángulo 382763" width="0.985" height="7.467" transform="translate(100.905 200.038)" fill="#262626"/>
            <rect id="Rectángulo_382764" data-name="Rectángulo 382764" width="0.985" height="7.012" transform="translate(122.899 200.039)" fill="#262626"/>
            <path id="Trazado_823758" data-name="Trazado 823758" d="M349.695,333.211s21.4-43.559,21.713-44.3a12.02,12.02,0,1,1,20.728,11.84c-.365.492-24.592,39.381-24.592,39.381Z" transform="translate(-244.266 -4.311)" fill="#1682fb"/>
            <path id="Trazado_823759" data-name="Trazado 823759" d="M350.6,180.141c-.009,1.511,1.011,3.753,2.778,5.829a11.8,11.8,0,0,0,4.509,3.443,4.334,4.334,0,0,0,.6.172,1.973,1.973,0,0,0,1.712-.273c.628-.547.692-1.622.292-2.942-.073-.236-.164-.491-.265-.746a13.808,13.808,0,0,0-2.249-3.58c-2.141-2.505-4.691-3.971-6.176-3.643a1.309,1.309,0,0,0-1.02.829,2.065,2.065,0,0,0-.182.911" transform="translate(-211.393 -2.731)" fill="#262626"/>
            <path id="Trazado_823760" data-name="Trazado 823760" d="M375.318,365.166l-.738,16.153H407.87v-4.182s-18.039-3.034-21.319-11.971Z" transform="translate(-282.14 -5.59)" fill="#262626"/>
            <rect id="Rectángulo_382765" data-name="Rectángulo 382765" width="33.289" height="2.747" transform="translate(92.44 375.728)" fill="#73716e"/>
            <rect id="Rectángulo_382766" data-name="Rectángulo 382766" width="0.985" height="5.768" transform="matrix(-0.954, -0.301, 0.301, -0.954, 121.176, 376.479)" fill="#73716e"/>
            <rect id="Rectángulo_382767" data-name="Rectángulo 382767" width="24.024" height="0.985" transform="translate(92.44 376.61)" fill="#262626"/>
            <rect id="Rectángulo_382768" data-name="Rectángulo 382768" width="0.985" height="2.951" transform="translate(115.971 375.525)" fill="#262626"/>
            <path id="Trazado_823761" data-name="Trazado 823761" d="M397.278,347.4l-9.67,8.1,19.639,26.88,3.376-2.467s-5.489-10.163-2.549-26.715Z" transform="translate(-297.72 -5.319)" fill="#73716e"/>
            <path id="Trazado_823762" data-name="Trazado 823762" d="M389.037,379.5l5.19-1.737-.311-.934-5.19,1.737Z" transform="translate(-282.426 -5.769)" fill="#f2eadf"/>
            <rect id="Rectángulo_382769" data-name="Rectángulo 382769" width="33.289" height="2.746" transform="matrix(-0.59, -0.807, 0.807, -0.59, 107.308, 378.686)" fill="#f2eadf"/>
            <rect id="Rectángulo_382770" data-name="Rectángulo 382770" width="24.024" height="0.984" transform="matrix(-0.59, -0.807, 0.807, -0.59, 102.557, 370.683)" fill="#262626"/>
            <rect id="Rectángulo_382771" data-name="Rectángulo 382771" width="0.984" height="2.746" transform="translate(102.133 371.603) rotate(-126.147)" fill="#262626"/>
            <path id="Trazado_823763" data-name="Trazado 823763" d="M400.873,361.838a4.217,4.217,0,0,0,4.211-4.212H404.1a3.225,3.225,0,1,1-.408-1.573l.86-.481a4.212,4.212,0,1,0-3.679,6.265" transform="translate(-301.098 -5.411)" fill="#f2eadf"/>
            <path id="Trazado_823764" data-name="Trazado 823764" d="M399.084,208.109h32.791a1.235,1.235,0,0,0,1.161-1.822l-16.669-45.962a2.876,2.876,0,0,0-2.482-1.822h-32.79a1.234,1.234,0,0,0-1.161,1.822L396.6,206.287a2.877,2.877,0,0,0,2.482,1.822" transform="translate(-312.578 -2.427)" fill="#f2eadf"/>
            <path id="Trazado_823765" data-name="Trazado 823765" d="M400.009,209.034H432.8a1.234,1.234,0,0,0,1.161-1.822L417.292,161.25a2.875,2.875,0,0,0-2.481-1.822H382.02a1.234,1.234,0,0,0-1.161,1.822l16.668,45.962a2.877,2.877,0,0,0,2.482,1.822" transform="translate(-314.414 -2.441)" fill="#262626"/>
            <path id="Trazado_823766" data-name="Trazado 823766" d="M387.286,180.894c3.677-.318,5.112-.439,7.566-.646.035,0,.069,0,.1,0a1.222,1.222,0,0,1,.3,2.409c-2.389.6-3.785.948-7.366,1.842a2.18,2.18,0,0,1-.45.055,1.831,1.831,0,0,1-.154-3.656" transform="translate(-281.301 -2.759)" fill="#f2eadf"/>
            <path id="Trazado_823767" data-name="Trazado 823767" d="M388.3,175.375a1.848,1.848,0,0,1,.257.026c2.927.4,2.927.4,4.879.674.047.012.093.021.138.033,2.019.517,2.019.517,3.214.825a.743.743,0,0,1,.546.7.722.722,0,0,1-.694.718c-1.226.063-1.239.063-3.279.158l-4.861.525c-.066,0-.131.011-.2.011a1.835,1.835,0,1,1,0-3.671" transform="translate(-283.303 -2.685)" fill="#f2eadf"/>
            <path id="Trazado_823768" data-name="Trazado 823768" d="M387.37,184.68c3.518-1.109,3.608-1.137,5.957-1.872a1.482,1.482,0,0,1,.369-.056,1.22,1.22,0,0,1,.589,2.294c-2.158,1.181-2.24,1.225-5.479,2.988a1.949,1.949,0,0,1-.886.225,1.829,1.829,0,0,1-.55-3.579" transform="translate(-280.515 -2.798)" fill="#f2eadf"/>
            <path id="Trazado_823769" data-name="Trazado 823769" d="M387.233,187.88c3.08-1.512,3.08-1.512,5.137-2.517a1.278,1.278,0,0,1,.544-.127,1.229,1.229,0,0,1,1.232,1.225,1.216,1.216,0,0,1-.47.956c-1.793,1.42-1.793,1.42-4.485,3.543a1.889,1.889,0,0,1-1.147.4,1.83,1.83,0,0,1-.81-3.479" transform="translate(-279.853 -2.836)" fill="#f2eadf"/>
            <path id="Trazado_823770" data-name="Trazado 823770" d="M387.91,189.943c2.527-.889,2.527-.889,4.109-1.442a1.329,1.329,0,0,1,.325-.055.978.978,0,0,1,.981.975.957.957,0,0,1-.431.786c-1.371.965-1.371.965-3.575,2.482a1.584,1.584,0,0,1-.891.277,1.553,1.553,0,0,1-.517-3.023" transform="translate(-279.684 -2.885)" fill="#f2eadf"/>
            <path id="Trazado_823771" data-name="Trazado 823771" d="M395.6,189.954l21.65-8.276,6.574-5.573,3.945-.71,2.654,2.614-1.269,2.79,2.6,11.968h-2.041l-9.007-1.943-19.255,9.791a6.164,6.164,0,0,1-1.4.713l-.044.023a6.311,6.311,0,0,1-2.037.345,6.1,6.1,0,0,1-2.37-11.74" transform="translate(-323.018 -2.685)" fill="#f2eadf"/>
            <rect id="Rectángulo_382772" data-name="Rectángulo 382772" width="0.984" height="4.271" transform="matrix(-0.298, -0.954, 0.954, -0.298, 107.269, 182.26)" fill="#262626"/>
            <path id="Trazado_823772" data-name="Trazado 823772" d="M327.6,179.582c-.009,1.511,1.011,3.753,2.778,5.829a11.8,11.8,0,0,0,4.509,3.443,4.332,4.332,0,0,0,.6.172c.619-.984,1.293-2.067,2-3.215,5.829-9.427,14.081-23.409,14.081-23.409l.52-2.5,8.3-10.73-4.592-7.332-12.2,2.422-.484,13.454-14.947,20.4-.392.547a2.065,2.065,0,0,0-.182.911" transform="translate(-188.393 -2.172)" fill="#f2eadf"/>
            <path id="Trazado_823773" data-name="Trazado 823773" d="M329.955,141.957l.84,8.08,2.882,1.409,6.681-3.926-7-6.683Z" transform="translate(-170.684 -2.156)" fill="#262626"/>
            <path id="Trazado_823774" data-name="Trazado 823774" d="M327.284,144.949a1.493,1.493,0,0,1,1.361-2.252,1.484,1.484,0,0,1,1.161.664c1.211,1.8,1.211,1.8,2.519,3.756a1.642,1.642,0,0,1,.271.982,1.617,1.617,0,0,1-3.007.741c-1.2-2.019-1.2-2.024-2.3-3.88l-.007-.011" transform="translate(-160.09 -2.185)" fill="#f2eadf"/>
            <path id="Trazado_823775" data-name="Trazado 823775" d="M336.788,143.956c.529-1.061.532-1.066,1.269-2.539a1.088,1.088,0,1,1,1.824,1.157c-1.046,1.295-1.046,1.295-1.8,2.219a.812.812,0,0,1-.643.287.774.774,0,0,1-.655-1.124" transform="translate(-177.101 -2.156)" fill="#73716e"/>
            <path id="Trazado_823776" data-name="Trazado 823776" d="M335.258,147.333c.838-1.312,1.03-1.608,2.217-3.435a1.089,1.089,0,0,1,2,.649,1.086,1.086,0,0,1-.279.667c-1.445,1.629-1.681,1.892-2.716,3.053a.817.817,0,0,1-.62.26.779.779,0,0,1-.738-.817.758.758,0,0,1,.135-.376" transform="translate(-174.893 -2.195)" fill="#73716e"/>
            <path id="Trazado_823777" data-name="Trazado 823777" d="M333.606,148.9c.742-1.3.742-1.3,1.833-3.183a1.089,1.089,0,0,1,2.03.6,1.079,1.079,0,0,1-.266.652c-1.415,1.653-1.415,1.653-2.39,2.787a.789.789,0,0,1-.606.26.749.749,0,0,1-.709-.786.722.722,0,0,1,.106-.332" transform="translate(-171.288 -2.222)" fill="#73716e"/>
            <path id="Trazado_823778" data-name="Trazado 823778" d="M336.851,136.886a1.613,1.613,0,0,1,.565.137,5,5,0,0,0,3.331.626c.043,0,.086,0,.13,0a1.1,1.1,0,1,1-.112,2.2,1.127,1.127,0,0,1-.129-.02s-3.378.3-3.378.3a1.8,1.8,0,0,1-.576.073,1.657,1.657,0,0,1,.168-3.31" transform="translate(-177.325 -2.096)" fill="#f2eadf"/>
            <path id="Trazado_823779" data-name="Trazado 823779" d="M338.864,143.283c1.422-3.069,1.428-3.08,2.523-5.44a1.657,1.657,0,0,1,3.158.782,1.6,1.6,0,0,1-.061.358c-.7,2.508-.7,2.52-1.6,5.742a2.147,2.147,0,0,1-4.222-.648,2.137,2.137,0,0,1,.2-.794" transform="translate(-183.448 -2.096)" fill="#f2eadf"/>
            <path id="Trazado_823780" data-name="Trazado 823780" d="M328.616,139.962c1.546-3.67,5.419-12.824,6.05-14.313a.848.848,0,0,1,.57-.475.809.809,0,0,1,.965.614.8.8,0,0,1-.014.371c-.39,1.572-2.834,11.206-3.814,15.066a1.989,1.989,0,1,1-3.758-1.263" transform="translate(-165.064 -1.916)" fill="#f2eadf"/>
            <path id="Trazado_823781" data-name="Trazado 823781" d="M332.685,141.016c1.543-1.331,1.543-1.331,3.662-3.155a1.493,1.493,0,1,1,1.747,2.41l-4.137,2.5a1.088,1.088,0,0,1-1.272-1.756" transform="translate(-171.457 -2.105)" fill="#f2eadf"/>
            <path id="Trazado_823782" data-name="Trazado 823782" d="M331.1,143.617c1.543-1.331,1.543-1.331,3.662-3.155a1.493,1.493,0,1,1,1.747,2.41l-4.137,2.5a1.088,1.088,0,0,1-1.272-1.756" transform="translate(-168.317 -2.145)" fill="#f2eadf"/>
            <path id="Trazado_823783" data-name="Trazado 823783" d="M330.088,145.359c1.322-1,1.322-1,3.139-2.364a1.522,1.522,0,0,1,.973-.3,1.488,1.488,0,0,1,.555,2.837c-2.053.972-2.053.972-3.553,1.677a1.149,1.149,0,0,1-.519.1,1.084,1.084,0,0,1-.6-1.954" transform="translate(-165.644 -2.185)" fill="#f2eadf"/>
            <rect id="Rectángulo_382773" data-name="Rectángulo 382773" width="0.984" height="9.774" transform="matrix(-0.727, -0.687, 0.687, -0.727, 133.097, 183.418)" fill="#262626"/>
            <rect id="Rectángulo_382774" data-name="Rectángulo 382774" width="9.412" height="0.985" transform="translate(77.897 238.113)" fill="#262626"/>
            <rect id="Rectángulo_382775" data-name="Rectángulo 382775" width="14.662" height="0.985" transform="translate(117.268 167.698)" fill="#262626"/>
            <rect id="Rectángulo_382776" data-name="Rectángulo 382776" width="7.051" height="0.985" transform="translate(81.726 158.699)" fill="#f2eadf"/>
            <path id="Trazado_823784" data-name="Trazado 823784" d="M340.664,158.179a1.835,1.835,0,0,1,.71-.137,2.173,2.173,0,0,1,.42.046l-.647.892a.392.392,0,0,0-.146.036,1.678,1.678,0,0,0-.838,1.3,5.449,5.449,0,0,0-.118,1.011,12.3,12.3,0,0,0,.993,4.763c1.2,2.979,2.979,4.837,4.2,5.138a1.115,1.115,0,0,0,.692-.019c.573-.236.929-1.075.956-2.314a3.336,3.336,0,0,0-.009-.418q.422-.7.792-1.339a9.487,9.487,0,0,1,.128,1.785c-.045,1.64-.583,2.751-1.521,3.133a2.077,2.077,0,0,1-.71.137,2.361,2.361,0,0,1-.811-.155c-1.612-.555-3.388-2.706-4.563-5.6a13.712,13.712,0,0,1-1.048-4.728,3.058,3.058,0,0,1-.009-.4c.045-1.648.592-2.76,1.53-3.133" transform="translate(-187.162 -2.42)" fill="#f2eadf"/>
            <path id="Trazado_823785" data-name="Trazado 823785" d="M415.841,129.457a2.634,2.634,0,0,0,.625-2.406l-.33-1.345.882-1.207-1.034-2.314,1.253-2.366-.853-1.541,1.154-.769a1.5,1.5,0,0,0,.252-2.275l-3.625-3.813a2.352,2.352,0,0,1-.649-1.623,2.383,2.383,0,0,1,.184-.928l.108-.258a6.033,6.033,0,0,0,.218-4.079l-.93-3.1a6.042,6.042,0,0,0-1.467-2.488l-6.224-6.365H386.312L378.5,106.172l2.972,12.271,31.52,11.709a2.618,2.618,0,0,0,2.851-.7" transform="translate(-296.328 -1.417)" fill="#f2eadf"/>
            <path id="Trazado_823786" data-name="Trazado 823786" d="M383.7,109l1.833-1.188,3.736-.027-.008-.985-4.022.029-2.073,1.344Z" transform="translate(-271.984 -1.635)" fill="#262626"/>
            <rect id="Rectángulo_382777" data-name="Rectángulo 382777" width="1.774" height="0.984" transform="translate(115.248 108.778) rotate(-97.125)" fill="#262626"/>
            <rect id="Rectángulo_382778" data-name="Rectángulo 382778" width="0.984" height="4.229" transform="matrix(-0.332, -0.943, 0.943, -0.332, 112.682, 110.337)" fill="#262626"/>
            <path id="Trazado_823787" data-name="Trazado 823787" d="M387.618,113.049v-2.485h-.985v1.06l-1.832-.694-.349.921Z" transform="translate(-271.609 -1.693)" fill="#262626"/>
            <path id="Trazado_823788" data-name="Trazado 823788" d="M406.962,113.147l3.26,3.08a3.644,3.644,0,0,0,1.875-3.676l-.271-2.046a3.673,3.673,0,0,1,1.456-3.435l2.187-1.62a2.438,2.438,0,0,0,.5-3.4l-2.39-3.21,3.611-1.5a3.883,3.883,0,0,0,1.753-5.724c-.027-.039-20.881-.039-20.881-.039l-8.088,14.416,3.466,13.867,8.407,6.783,1.585-13.386Z" transform="translate(-309.012 -1.402)" fill="#262626"/>
            <path id="Trazado_823789" data-name="Trazado 823789" d="M407.736,120.55l-1.32.4-4.989-1.837a2.969,2.969,0,0,1-1.944-2.788V114.55a3,3,0,0,1,5.218-1.989l3.586,3.973Z" transform="translate(-307.076 -1.708)" fill="#f2eadf"/>
            <path id="Trazado_823790" data-name="Trazado 823790" d="M379.169,122.6h3l.547-.538a2.228,2.228,0,0,0,.666-1.588v-.57Z" transform="translate(-262.166 -1.836)" fill="#262626"/>
            <path id="Trazado_823791" data-name="Trazado 823791" d="M382.165,122.645l.89,1a1.274,1.274,0,0,1,.323.847v.8l-4.21-2.641Z" transform="translate(-262.166 -1.878)" fill="#262626"/>
            <rect id="Rectángulo_382779" data-name="Rectángulo 382779" width="13.738" height="0.984" transform="translate(105.388 125.071) rotate(-159.624)" fill="#262626"/>
            <path id="Trazado_823792" data-name="Trazado 823792" d="M381.041,123.123H384.4v-.985h-2.369v-.449h-.985Z" transform="translate(-265.027 -1.863)" fill="#262626"/>
            <rect id="Rectángulo_382780" data-name="Rectángulo 382780" width="5.096" height="0.984" transform="translate(98.373 115.747) rotate(-132.607)" fill="#201600"/>
            <rect id="Rectángulo_382781" data-name="Rectángulo 382781" width="19.144" height="0.984" transform="matrix(-0.932, -0.361, 0.361, -0.932, 123.101, 336.278)" fill="#262626"/>
          </g>
        </g>
        <rect id="Rectángulo_382783" data-name="Rectángulo 382783" width="163.434" height="4.467" transform="translate(0.001 257.73)" fill="#73716e"/>
        <path id="Trazado_823793" data-name="Trazado 823793" d="M332.791,265.688H497.21v-5.451H332.791Zm163.434-.985H333.776v-3.482H496.225Z" transform="translate(-330.329 -3.984)" fill="#262626"/>
        <g id="Grupo_1073472" data-name="Grupo 1073472" transform="translate(0)">
          <g id="Grupo_1073471" data-name="Grupo 1073471" clip-path="url(#clip-path-2)">
            <path id="Trazado_823794" data-name="Trazado 823794" d="M400.007,241.892h94.259a1.978,1.978,0,0,0,1.616-.744,2.1,2.1,0,0,0,.309-1.835l-14.467-54.469a3.221,3.221,0,0,0-2.967-2.327H384.5a1.978,1.978,0,0,0-1.614.745,2.1,2.1,0,0,0-.31,1.834l14.467,54.468a3.219,3.219,0,0,0,2.967,2.327m78.75-58.39a2.259,2.259,0,0,1,2.016,1.6l14.465,54.467a1.11,1.11,0,0,1-.137.981,1.016,1.016,0,0,1-.835.361H400.007a2.256,2.256,0,0,1-2.015-1.594l-14.467-54.469a1.108,1.108,0,0,1,.139-.981,1.012,1.012,0,0,1,.833-.361Z" transform="translate(-378.331 -2.794)" fill="#262626"/>
            <path id="Trazado_823795" data-name="Trazado 823795" d="M402.014,241.408h94.26a1.46,1.46,0,0,0,1.448-1.961l-14.467-54.468a2.741,2.741,0,0,0-2.49-1.961h-94.26a1.46,1.46,0,0,0-1.448,1.961l14.467,54.468a2.74,2.74,0,0,0,2.49,1.961" transform="translate(-382.309 -2.802)" fill="#fff"/>
            <rect id="Rectángulo_382784" data-name="Rectángulo 382784" width="15.924" height="25.059" transform="translate(49.988 213.547)" fill="#73716e"/>
            <path id="Trazado_823796" data-name="Trazado 823796" d="M402.007,241.892h94.259a1.978,1.978,0,0,0,1.616-.744,2.1,2.1,0,0,0,.309-1.835l-14.467-54.469a3.221,3.221,0,0,0-2.967-2.327H386.5a1.978,1.978,0,0,0-1.614.745,2.1,2.1,0,0,0-.31,1.834l14.467,54.468a3.219,3.219,0,0,0,2.967,2.327m78.75-58.39a2.259,2.259,0,0,1,2.016,1.6l14.465,54.467a1.11,1.11,0,0,1-.137.981,1.016,1.016,0,0,1-.835.361H402.007a2.256,2.256,0,0,1-2.015-1.594l-14.467-54.469a1.108,1.108,0,0,1,.139-.981,1.012,1.012,0,0,1,.833-.361Z" transform="translate(-382.3 -2.794)" fill="#262626"/>
            <path id="Trazado_823797" data-name="Trazado 823797" d="M435.1,260.3h16.055l11.007-43.433H446.109Z" transform="translate(-396.029 -3.32)" fill="#fff"/>
            <path id="Trazado_823798" data-name="Trazado 823798" d="M434.459,260.784h17.071l11.258-44.416H445.717Zm16.305-.985H435.725l10.757-42.447h15.04Z" transform="translate(-396.019 -3.312)" fill="#262626"/>
            <path id="Trazado_823799" data-name="Trazado 823799" d="M456.338,216.867h0Z" transform="translate(-390.202 -3.32)" fill="#fff"/>
            <rect id="Rectángulo_382785" data-name="Rectángulo 382785" width="21.236" height="0.985" transform="translate(44.9 213.055)" fill="#262626"/>
            <rect id="Rectángulo_382786" data-name="Rectángulo 382786" width="6.626" height="0.985" transform="translate(88.985 182.806)" fill="#262626"/>
            <rect id="Rectángulo_382787" data-name="Rectángulo 382787" width="1.126" height="0.985" transform="translate(84.943 182.806)" fill="#262626"/>
            <rect id="Rectángulo_382788" data-name="Rectángulo 382788" width="0.985" height="120.125" transform="translate(37.749 379.246) rotate(-169.058)" fill="#262626"/>
          </g>
        </g>
        <g id="Grupo_1073474" data-name="Grupo 1073474" transform="translate(0)">
          <g id="Grupo_1073473" data-name="Grupo 1073473" clip-path="url(#clip-path-2)">
            <path id="Trazado_823800" data-name="Trazado 823800" d="M321.084,359.352l3.968,22.489H282.907v-5.488s14.834.881,30.143-14.428Z" transform="translate(-109.052 -5.501)" fill="#73716e"/>
            <path id="Trazado_823801" data-name="Trazado 823801" d="M305.58,382.218l.816-.551a8.348,8.348,0,0,0-8.689-2.942l-1.228-2.856,14.444-9.091-.524-.832-15.158,9.538,1.892,4.4.409-.1c5.367-1.382,7.931,2.284,8.038,2.441" transform="translate(-107.07 -5.602)" fill="#f2eadf"/>
            <rect id="Rectángulo_382790" data-name="Rectángulo 382790" width="42.146" height="2.151" transform="translate(173.855 376.339)" fill="#262626"/>
            <path id="Trazado_823802" data-name="Trazado 823802" d="M284.817,382.233a9.972,9.972,0,0,1,10.023-6.817l.09-.981c-.082-.007-8.241-.652-11.043,7.477Z" transform="translate(-79.893 -5.732)" fill="#f2eadf"/>
            <path id="Trazado_823803" data-name="Trazado 823803" d="M303.825,376.412c.662-.1.853-.959,1.1-2.043a8.821,8.821,0,0,1,.316-1.175,8.79,8.79,0,0,1,.83.934c.688.845,1.232,1.518,1.856,1.317.642-.2.708-1.083.792-2.2a9.073,9.073,0,0,1,.138-1.183,8.67,8.67,0,0,1,.965.837c.775.739,1.387,1.318,1.969,1.057.63-.286.591-1.236.546-2.336a8.509,8.509,0,0,1,0-1.179,12.814,12.814,0,0,1,1.159.827c.829.635,1.43,1.093,1.939.792.887-.523.539-1.66.285-2.49a2.991,2.991,0,0,1-.215-1.087l-.583-.788c-.662.472-.387,1.371-.144,2.163a2.965,2.965,0,0,1,.223,1.267,8.534,8.534,0,0,1-.906-.639c-.891-.682-1.662-1.274-2.285-.947-.535.278-.5,1.051-.458,2.121a9.152,9.152,0,0,1,0,1.276,9.847,9.847,0,0,1-.849-.751c-.8-.76-1.432-1.358-2.041-1.126-.58.225-.643,1.058-.722,2.112a9.81,9.81,0,0,1-.14,1.2,10.057,10.057,0,0,1-.762-.869c-.684-.842-1.222-1.51-1.847-1.358-.609.145-.792.966-1.024,2.006a5.176,5.176,0,0,1-.4,1.338.229.229,0,0,1,.12-.053Z" transform="translate(-120.334 -5.629)" fill="#f2eadf"/>
            <path id="Trazado_823804" data-name="Trazado 823804" d="M284.867,294.065a13.342,13.342,0,0,1,26.506-2.183c4.384,26.338,8.6,51.769,12.439,74.881l-23.4,3.283c-4.776-22.929-9.811-47.1-15.255-73.235a13.411,13.411,0,0,1-.286-2.745" transform="translate(-109.741 -4.298)" fill="#262626"/>
            <path id="Trazado_823805" data-name="Trazado 823805" d="M217.344,293.908A13.342,13.342,0,0,1,228.85,280.7c26.443-3.7,34.557-4.836,72.263-10.1a22.867,22.867,0,0,1,2.63-.182,19.035,19.035,0,1,1,0,38.07c-.108,0-.214-.015-.323-.016-38.064-.63-46.256-.769-72.952-1.221a13.357,13.357,0,0,1-13.124-13.347" transform="translate(-42.218 -4.14)" fill="#262626"/>
            <rect id="Rectángulo_382791" data-name="Rectángulo 382791" width="7.788" height="0.985" transform="matrix(-0.766, -0.643, 0.643, -0.766, 194.126, 317.019)" fill="#262626"/>
            <path id="Trazado_823806" data-name="Trazado 823806" d="M217.754,290.157l85.767-13.793a19.027,19.027,0,1,1,3.716,37.779c-38.052,1.124-60.327,1.771-87.015,2.545a14.967,14.967,0,0,1-2.249-.125,13.35,13.35,0,0,1-.219-26.406" transform="translate(-34.468 -4.227)" fill="#f2eadf"/>
            <path id="Trazado_823807" data-name="Trazado 823807" d="M200.322,198.175a9.77,9.77,0,0,1,18.511-4.368c4.895,9.772,4.895,9.772,9.782,19.546a9.771,9.771,0,1,1-17.478,8.74c-4.895-9.771-4.895-9.771-9.783-19.547a9.839,9.839,0,0,1-1.032-4.371" transform="translate(67.674 -2.884)" fill="#f2eadf"/>
            <path id="Trazado_823808" data-name="Trazado 823808" d="M231.991,205.959,217.84,216.251a51.76,51.76,0,0,0-16.932,21.008l-.081.182a51.761,51.761,0,0,0-3.425,10.914l-5.85,29.876,37.853,21.1,13.9-49.682a46.21,46.21,0,0,0-.331-26.031l-.068-.22a39.079,39.079,0,0,0-8.955-15.362Z" transform="translate(60.939 -3.153)" fill="#73716e"/>
            <path id="Trazado_823809" data-name="Trazado 823809" d="M282.719,279.915c.939-1.331,3.392-4.739,5.088-7.1a1.525,1.525,0,0,1,1.179-.6,1.448,1.448,0,0,1,1.04,2.46c-2.018,2.088-4.939,5.1-6.073,6.273a.814.814,0,0,1-1.4-.567.791.791,0,0,1,.164-.466" transform="translate(-74.091 -4.167)" fill="#f2eadf"/>
            <path id="Trazado_823810" data-name="Trazado 823810" d="M277.546,273.666A1.452,1.452,0,0,1,279,272.215a1.348,1.348,0,0,1,.179.035c2.246.26,2.246.26,4.775.581a1.637,1.637,0,0,1-.206,3.261,1.627,1.627,0,0,1-.334-.034l-4.707-.97a1.486,1.486,0,0,1-1.159-1.422" transform="translate(-64.102 -4.167)" fill="#f2eadf"/>
            <path id="Trazado_823811" data-name="Trazado 823811" d="M261.784,272.885,272.8,275.7l6.5-1.576.341,10.014h-9.89l-9.105-3.539Z" transform="translate(-41.722 -4.178)" fill="#f2eadf"/>
            <path id="Trazado_823812" data-name="Trazado 823812" d="M278.463,279.218a1.217,1.217,0,0,1,1.163-1.212c2.055-.115,2.055-.115,4.49-.238.026.012.046,0,.073,0a1.451,1.451,0,1,1,0,2.9c-.027,0-.047-.013-.073-.015-2.435-.109-2.435-.109-4.49-.214a1.235,1.235,0,0,1-1.163-1.223" transform="translate(-65.264 -4.252)" fill="#f2eadf"/>
            <path id="Trazado_823813" data-name="Trazado 823813" d="M282.108,280.715c1.016-1.273,3.339-4.14,5.167-6.4a1.519,1.519,0,0,1,1.128-.539,1.452,1.452,0,0,1,1.451,1.452,1.431,1.431,0,0,1-.487,1.068c-2.145,1.956-4.881,4.43-6.089,5.521a.847.847,0,0,1-.546.211.814.814,0,0,1-.814-.814.8.8,0,0,1,.19-.5" transform="translate(-72.88 -4.191)" fill="#f2eadf"/>
            <path id="Trazado_823814" data-name="Trazado 823814" d="M283.417,281.687c.831-1.073,1.007-1.3,2.523-3.222A1.284,1.284,0,0,1,286.9,278a1.225,1.225,0,0,1,1.225,1.225,1.2,1.2,0,0,1-.511.969c-1.953,1.475-2.181,1.644-3.271,2.452a.763.763,0,0,1-.4.134.678.678,0,0,1-.677-.678.663.663,0,0,1,.153-.412" transform="translate(-72.478 -4.256)" fill="#f2eadf"/>
            <rect id="Rectángulo_382792" data-name="Rectángulo 382792" width="0.985" height="3.584" transform="translate(291.976 238.91) rotate(-93.986)" fill="#262626"/>
            <path id="Trazado_823815" data-name="Trazado 823815" d="M220.838,280.031l.839-.515-7.983-12.968-.839.515Z" transform="translate(63.303 -4.081)" fill="#262626"/>
            <path id="Trazado_823816" data-name="Trazado 823816" d="M225.009,235.6l.984-.052-.395-7.59-.984.052Z" transform="translate(47.409 -3.49)" fill="#262626"/>
            <path id="Trazado_823817" data-name="Trazado 823817" d="M198.407,258.942c7.832-15.257,9.954-19.387,19.533-38.031A10.477,10.477,0,1,1,236.114,231.3c-11.192,17.722-13.673,21.647-22.836,36.144a8.572,8.572,0,0,1-14.871-8.5" transform="translate(62.402 -3.295)" fill="#73716e"/>
            <path id="Trazado_823818" data-name="Trazado 823818" d="M223.793,285.2l-2.84-9.889c19.689-6.9,31.487-18.064,31.487-18.064a8.571,8.571,0,1,1,11.4,12.791,8.813,8.813,0,0,1-.73.55c-16.328,12.3-39.318,14.612-39.318,14.612" transform="translate(10.096 -3.902)" fill="#73716e"/>
            <path id="Trazado_823819" data-name="Trazado 823819" d="M277.692,275.233a1.452,1.452,0,0,1,1.451-1.451c.045,0,.083.021.126.025,1.879.147,1.879.147,3.995.334a1.637,1.637,0,0,1-.144,3.268,1.7,1.7,0,0,1-.294-.03c-2.089-.379-2.089-.379-3.943-.718a1.486,1.486,0,0,1-1.191-1.428" transform="translate(-63.621 -4.191)" fill="#f2eadf"/>
            <rect id="Rectángulo_382793" data-name="Rectángulo 382793" width="0.985" height="39.177" transform="matrix(-0.844, -0.537, 0.537, -0.844, 275.339, 265.407)" fill="#262626"/>
            <rect id="Rectángulo_382794" data-name="Rectángulo 382794" width="6.202" height="0.985" transform="translate(265.428 259.086) rotate(-133.379)" fill="#262626"/>
            <rect id="Rectángulo_382795" data-name="Rectángulo 382795" width="3.287" height="0.985" transform="translate(218.882 270.375) rotate(-174.95)" fill="#262626"/>
            <path id="Trazado_823820" data-name="Trazado 823820" d="M391.077,366.282V381.75H349.164v-5.774s15.61.927,31.72-15.183Z" transform="translate(-240.319 -5.524)" fill="#73716e"/>
            <path id="Trazado_823821" data-name="Trazado 823821" d="M350.049,382.112a10.379,10.379,0,0,1,10.575-7.191l.089-.981c-.081-.009-8.65-.684-11.594,7.851Z" transform="translate(-209.91 -5.725)" fill="#f2eadf"/>
            <path id="Trazado_823822" data-name="Trazado 823822" d="M370.549,382.09l.817-.55a8.76,8.76,0,0,0-9.137-3.08l-1.31-3.046,15.219-9.578-.525-.833-15.931,10.026,1.972,4.588.409-.1a7.788,7.788,0,0,1,8.485,2.578" transform="translate(-235.739 -5.588)" fill="#f2eadf"/>
            <rect id="Rectángulo_382796" data-name="Rectángulo 382796" width="41.913" height="2.263" transform="translate(108.845 376.227)" fill="#73716e"/>
            <path id="Trazado_823823" data-name="Trazado 823823" d="M343.051,296.814a13.347,13.347,0,1,1,22.222,14.777c-15.237,21.925-31.628,45.5-45,64.732l-19.5-12.969c12.564-19.773,27.962-44,42.283-66.539" transform="translate(-169.255 -4.449)" fill="#f2eadf"/>
            <path id="Trazado_823824" data-name="Trazado 823824" d="M366.014,374.715c.645-.237.662-1.153.681-2.313a8.858,8.858,0,0,1,.086-1.317,8.615,8.615,0,0,1,1.088.805c.879.72,1.573,1.291,2.161.964s.487-1.251.34-2.41a7.952,7.952,0,0,1-.1-1.33c.215.1.824.478,1.2.715.949.594,1.7,1.06,2.225.676.576-.419.337-1.383.059-2.5a8.392,8.392,0,0,1-.249-1.246,10.691,10.691,0,0,1,1.41.611c.977.474,1.686.817,2.135.411.79-.714.221-1.758-.237-2.6-.177-.326-.508-.932-.452-1.1l-.726-.665c-.569.612-.1,1.472.313,2.231.243.445.565,1.036.494,1.3a8.329,8.329,0,0,1-1.1-.476c-1.057-.512-1.969-.955-2.531-.5-.479.387-.285,1.171-.016,2.255a8.94,8.94,0,0,1,.269,1.364,9.613,9.613,0,0,1-1.075-.613c-.976-.611-1.746-1.092-2.315-.731-.537.346-.426,1.211-.286,2.306a9.479,9.479,0,0,1,.108,1.318,9.733,9.733,0,0,1-1.009-.759c-.875-.716-1.57-1.28-2.163-1.005s-.6,1.149-.618,2.262a5.369,5.369,0,0,1-.137,1.476.2.2,0,0,1,.1-.069Z" transform="translate(-242.846 -5.564)" fill="#f2eadf"/>
            <path id="Trazado_823825" data-name="Trazado 823825" d="M281.884,285.617h59.221a3.42,3.42,0,0,0,3.421-3.421c0-.034-66.063-.034-66.063-.034a3.428,3.428,0,0,0,3.421,3.455" transform="translate(-124.149 -4.32)" fill="#f2eadf"/>
            <path id="Trazado_823826" data-name="Trazado 823826" d="M281.876,286.1H341.1a3.917,3.917,0,0,0,3.913-3.912c0-.5,0-.5-3.33-.5l-7.484-.01c-6.194,0-14.452-.007-22.71-.009l-33.524,0v.492a3.934,3.934,0,0,0,3.913,3.948m62.109-3.427a2.933,2.933,0,0,1-2.888,2.442H281.876a2.943,2.943,0,0,1-2.888-2.471c5.938,0,59.187,0,65,.029" transform="translate(-124.142 -4.312)" fill="#262626"/>
            <path id="Trazado_823827" data-name="Trazado 823827" d="M204.952,316.8h69.323a5.749,5.749,0,0,0,5.749-5.75v-.056H199.2v.056a5.75,5.75,0,0,0,5.75,5.75" transform="translate(18.401 -4.761)" fill="#262626"/>
            <rect id="Rectángulo_382797" data-name="Rectángulo 382797" width="161.15" height="0.985" transform="translate(98.707 378.194)" fill="#262626"/>
            <rect id="Rectángulo_382798" data-name="Rectángulo 382798" width="3.266" height="0.985" transform="translate(92.717 378.194)" fill="#262626"/>
            <path id="Trazado_823828" data-name="Trazado 823828" d="M325.023,377.333l42.986-60.948-3.23-3.812-.751.637,2.737,3.23-41.994,59.543-19.1-12.7-.546.819Z" transform="translate(-173.881 -4.785)" fill="#262626"/>
            <path id="Trazado_823829" data-name="Trazado 823829" d="M22.736,384.482H241.292V383.5H23.549L10.778,316.966H43.284v-.985H9.587Z" transform="translate(243.845 -4.837)" fill="#262626"/>
            <path id="Trazado_823830" data-name="Trazado 823830" d="M273.707,284.74h6.266v-.985H273.9l-8.393-3.5-.378.91Z" transform="translate(-46.47 -4.29)" fill="#262626"/>
            <path id="Trazado_823831" data-name="Trazado 823831" d="M240.522,285.379l.959-.226-2.24-9.483A163.474,163.474,0,0,0,267.248,260l-.555-.813c-16.1,10.977-28.086,15.682-28.206,15.728l-.4.155Z" transform="translate(-7.113 -3.968)" fill="#262626"/>
            <path id="Trazado_823832" data-name="Trazado 823832" d="M309,244.726h33.646a2.938,2.938,0,0,1,2.468,1.75l14.4,35.113H322.373l-14.4-35.113c-.4-.966.065-1.75,1.032-1.75" transform="translate(-168.059 -3.747)" fill="#fff"/>
            <path id="Trazado_823833" data-name="Trazado 823833" d="M321.79,282.074H360l-8.843-21.559-.911.372,8.286,20.2H322.45l-14.277-34.808a.893.893,0,0,1-.012-.823.685.685,0,0,1,.589-.247h33.645a2.446,2.446,0,0,1,2.013,1.444l.952,2.321.91-.373-.951-2.321a3.424,3.424,0,0,0-2.924-2.055H308.75a1.625,1.625,0,0,0-1.407.682,1.849,1.849,0,0,0-.082,1.746Z" transform="translate(-167.806 -3.739)" fill="#262626"/>
            <path id="Trazado_823834" data-name="Trazado 823834" d="M337.691,267.191a2.648,2.648,0,0,0,2.3-1.1,3.067,3.067,0,0,0,.112-2.894l-.912.373a2.117,2.117,0,0,1-.018,1.972,1.7,1.7,0,0,1-1.48.663,5.111,5.111,0,0,1-4.216-3.008,2.112,2.112,0,0,1,.019-1.971c.571-.852,2.191-.856,3.6,0l.509-.842c-1.889-1.141-4.047-1.011-4.926.3a3.067,3.067,0,0,0-.113,2.893,6.014,6.014,0,0,0,5.128,3.62" transform="translate(-173 -3.974)" fill="#262626"/>
            <path id="Trazado_823835" data-name="Trazado 823835" d="M198.6,174.515l4.193-4.746s3.871,2.765,4.793,5.99l-1.245,1.843H203.09l3.248,2.949-.967.922-5.9-4.055Z" transform="translate(91.436 -2.599)" fill="#1682fb"/>
            <path id="Trazado_823836" data-name="Trazado 823836" d="M236.984,196.553l-21.508,14.736-2.46-.826-2.719-9.855-2.672-1.2-.461-1.383,2.765-7.188-1.843-2.58-.368-1.659.918-5.691A8.762,8.762,0,0,1,211.2,176l8.685-8.388s17.049-.738,19.813,7.1-2.711,21.84-2.711,21.84" transform="translate(50.108 -2.566)" fill="#f2eadf"/>
            <path id="Trazado_823837" data-name="Trazado 823837" d="M227.114,200.65l-5.944-6.735-2.581-8.939s-5.161-.184-5.252,4.792a2.941,2.941,0,0,1-2.9-2.35l-.87-4.278a2.31,2.31,0,0,0-2.263-1.849,2.319,2.319,0,0,1-2.352-2.309v-3.127h24.329a24.132,24.132,0,0,1-2.4,16.772Z" transform="translate(62.92 -2.692)" fill="#1682fb"/>
            <path id="Trazado_823838" data-name="Trazado 823838" d="M237.108,175.71s-5.529-12.939-23.591-8.128a9.9,9.9,0,0,0-5.647,1.228,4.653,4.653,0,0,0-1.391,6.868c.024.032,30.63.032,30.63.032" transform="translate(55.092 -2.549)" fill="#1682fb"/>
            <path id="Trazado_823839" data-name="Trazado 823839" d="M234.19,188.953l3.646-2.257,1.971.9.411-.9-2.452-1.124-4.094,2.536Z" transform="translate(24.264 -2.841)" fill="#262626"/>
            <rect id="Rectángulo_382799" data-name="Rectángulo 382799" width="0.979" height="0.985" transform="translate(261.409 195.661)" fill="#262626"/>
            <rect id="Rectángulo_382800" data-name="Rectángulo 382800" width="3.778" height="0.985" transform="translate(261.236 187.413)" fill="#262626"/>
            <rect id="Rectángulo_382801" data-name="Rectángulo 382801" width="0.985" height="1.797" transform="translate(261.406 186.109)" fill="#262626"/>
            <path id="Trazado_823840" data-name="Trazado 823840" d="M233.323,193.4l2.607-2.207-.637-.751-.986.835v-.46h-.985Z" transform="translate(28.895 -2.916)" fill="#262626"/>
            <path id="Trazado_823841" data-name="Trazado 823841" d="M221.238,212.3l10.707-7.276a6.862,6.862,0,0,0,3.009-5.684V197.8h-.985v1.538a5.885,5.885,0,0,1-2.578,4.87l-10.3,7-2.229-.749-.313.932Z" transform="translate(44.422 -3.028)" fill="#262626"/>
            <path id="Trazado_823842" data-name="Trazado 823842" d="M212.727,190.535v-3.446l1.863-2.04a1.964,1.964,0,0,1,3.049.2l1.8,2.588a1.621,1.621,0,0,1,.2,1.464l-1.137,3.256a7.68,7.68,0,0,1-1.975,3.052l-2.1,1.986h-.921Z" transform="translate(65.373 -2.823)" fill="#f2eadf"/>
            <path id="Trazado_823843" data-name="Trazado 823843" d="M213.5,198.079h1.118l2.24-2.12a8.238,8.238,0,0,0,2.1-3.247l1.137-3.256a2.126,2.126,0,0,0-.261-1.907l-1.8-2.588a2.454,2.454,0,0,0-3.816-.25l-1.991,2.18v3.638h.985v-3.256l1.734-1.9a1.523,1.523,0,0,1,2.281.149l1.8,2.588a1.134,1.134,0,0,1,.139,1.021l-1.136,3.255a7.253,7.253,0,0,1-1.849,2.858l-1.955,1.85H213.5Z" transform="translate(65.379 -2.816)" fill="#262626"/>
            <path id="Trazado_823844" data-name="Trazado 823844" d="M216.9,194.877l.311-6.891,1.679-1.106-.541-.822-2.1,1.382-.334,7.393Z" transform="translate(63.073 -2.848)" fill="#262626"/>
            <path id="Trazado_823845" data-name="Trazado 823845" d="M233.742,205.34l3.868-1.554-.367-.914-2.864,1.15-.246-.834-.944.282Z" transform="translate(27.348 -3.106)" fill="#262626"/>
            <path id="Trazado_823846" data-name="Trazado 823846" d="M218.906,176.271h16.241v-.985h-15.9a3.4,3.4,0,0,1-.617-3.932l-.92-.352a4.341,4.341,0,0,0,1.069,5.174Z" transform="translate(45.441 -2.618)" fill="#262626"/>
            <path id="Trazado_823847" data-name="Trazado 823847" d="M207.844,218.188l.917-.361-1.371-3.481,16.019-11.438-.572-.8-16.645,11.885Z" transform="translate(68.133 -3.094)" fill="#262626"/>
            <rect id="Rectángulo_382802" data-name="Rectángulo 382802" width="11.062" height="0.985" transform="translate(237.436 280.813) rotate(-101.826)" fill="#262626"/>
            <rect id="Rectángulo_382803" data-name="Rectángulo 382803" width="8.885" height="0.985" transform="translate(275.78 175.933)" fill="#262626"/>
            <path id="Trazado_823848" data-name="Trazado 823848" d="M229.076,311.372l5.268-11.431-26.372-15.3-.494.853,25.6,14.846-4.893,10.618Z" transform="translate(55.931 -4.358)" fill="#262626"/>
            <rect id="Rectángulo_382804" data-name="Rectángulo 382804" width="16.717" height="0.984" transform="matrix(-0.584, -0.811, 0.811, -0.584, 270.167, 300.825)" fill="#262626"/>
          </g>
        </g>
        <g id="Grupo_1073476" data-name="Grupo 1073476" transform="translate(0)">
          <g id="Grupo_1073475" data-name="Grupo 1073475" clip-path="url(#clip-path-2)">
            <path id="Trazado_823849" data-name="Trazado 823849" d="M21.4,264.585s12.967,3.256,10.482,13.773c0,0-18.451-5.832-26.96-12.811,0,0,6.856-3.358,16.478-.962" transform="translate(457.533 -4.037)" fill="#262626"/>
            <path id="Trazado_823850" data-name="Trazado 823850" d="M75.245,274.7s1.15,5.451,2.666,13.668c.4,2.05.78,4.281,1.2,6.638s.848,4.843,1.3,7.415c.419,2.576.853,5.239,1.293,7.944s.889,5.453,1.278,8.21.808,5.508,1.206,8.22c.418,2.708.743,5.385,1.075,7.973s.65,5.09.952,7.462q.227,1.78.441,3.456.179,1.678.345,3.237c.868,8.3,1.448,13.833,1.448,13.833l0,.026a.985.985,0,0,0,1.959-.206l0-.022s-.7-5.534-1.759-13.835q-.2-1.557-.416-3.236-.251-1.673-.519-3.452c-.355-2.37-.732-4.868-1.12-7.453s-.773-5.257-1.253-7.959c-.459-2.706-.925-5.453-1.389-8.2s-.951-5.493-1.46-8.188-.994-5.352-1.47-7.92l-1.462-7.388c-.471-2.348-.9-4.57-1.345-6.612-1.7-8.185-2.967-13.609-2.967-13.609" transform="translate(330.07 -4.205)" fill="#73716e"/>
            <path id="Trazado_823851" data-name="Trazado 823851" d="M73.351,263.722s-.422,1.55-1.037,4.294c-.318,1.369-.712,3.031-1.08,4.955-.387,1.92-.823,4.086-1.3,6.449-.407,2.376-.847,4.951-1.313,7.674q-.346,2.043-.709,4.191-.3,2.155-.609,4.4l-1.275,9.207c-.384,3.141-.676,6.343-1.021,9.541-.32,3.2-.694,6.4-.964,9.551-.214,3.159-.424,6.268-.628,9.276s-.4,5.918-.587,8.677-.185,5.374-.279,7.785c-.282,9.651-.47,16.084-.47,16.084a.985.985,0,1,0,1.968.057V365.8s.065-6.414.161-16.037c.047-2.406,0-5.015.129-7.769s.274-5.658.419-8.662.3-6.11.449-9.266c.209-3.151.522-6.345.78-9.545.284-3.2.513-6.4.837-9.544l1.1-9.215q.266-2.241.524-4.4.321-2.149.628-4.2c.413-2.729.8-5.308,1.164-7.689.43-2.37.825-4.542,1.175-6.467.332-1.93.692-3.6.985-4.972.561-2.754.954-4.313.954-4.313" transform="translate(360.096 -4.037)" fill="#73716e"/>
            <path id="Trazado_823852" data-name="Trazado 823852" d="M74.018,258.065s.156.4.364,1.18c.242.768.5,1.922.834,3.385s.627,3.268,1.011,5.323c.293,2.073.671,4.4,1,6.958.283,2.56.621,5.329.92,8.265.247,2.94.508,6.041.779,9.249.225,3.211.393,6.534.6,9.908.234,3.373.321,6.8.435,10.235s.226,6.868.338,10.249.247,6.709.3,9.927c.036,6.433.071,12.437.1,17.583-.011,2.573-.081,4.93-.111,7.021s-.073,3.911-.1,5.412c-.11,2.991-.172,4.7-.172,4.7v.032a.985.985,0,0,0,1.968.073v-.018s.032-1.726.089-4.745c0-1.507,0-3.335,0-5.433s.022-4.464-.014-7.044c-.122-5.161-.264-11.181-.417-17.632-.112-3.222-.319-6.543-.48-9.922s-.347-6.81-.521-10.242-.325-6.871-.619-10.245c-.267-3.375-.494-6.7-.778-9.908-.328-3.206-.645-6.307-.945-9.246-.351-2.933-.74-5.7-1.069-8.258-.373-2.551-.793-4.879-1.124-6.947-.422-2.053-.756-3.849-1.108-5.311s-.639-2.608-.9-3.374c-.223-.775-.385-1.173-.385-1.173" transform="translate(339.315 -3.951)" fill="#73716e"/>
            <path id="Trazado_823853" data-name="Trazado 823853" d="M70.164,279.137l-.526.87c-.292.6-.723,1.469-1.269,2.582-.514,1.126-1.016,2.547-1.658,4.15-.689,1.588-1.186,3.474-1.825,5.5-.594,2.038-1.382,4.213-1.873,6.6-.56,2.371-1.15,4.87-1.761,7.456q-.229.97-.462,1.957-.18,1-.361,2l-.72,4.083-1.469,8.331c-.469,2.8-.736,5.619-1.108,8.384-.346,2.768-.686,5.494-1.015,8.131q-.247,1.978-.485,3.885c-.139,1.271-.213,2.521-.318,3.733-.195,2.428-.379,4.723-.549,6.842-.68,8.477-1.134,14.129-1.134,14.129a.985.985,0,0,0,1.963.158v-.017l0-.043s.33-5.642.825-14.1c.123-2.116.257-4.409.4-6.835.08-1.211.125-2.46.236-3.73q.2-1.9.4-3.881c.271-2.635.551-5.359.836-8.126.311-2.764.516-5.589.923-8.385.429-2.793.86-5.585,1.283-8.334q.318-2.063.629-4.087.16-1.01.317-2.008.211-.987.418-1.959c.553-2.592,1.088-5.1,1.594-7.472.439-2.395,1.176-4.574,1.725-6.621.593-2.035,1.049-3.932,1.7-5.528.606-1.612,1.077-3.044,1.565-4.178l1.211-2.6.507-.882" transform="translate(371.607 -4.273)" fill="#73716e"/>
            <path id="Trazado_823854" data-name="Trazado 823854" d="M71.877,295.924s-.26.159-.716.505a18.023,18.023,0,0,0-1.858,1.639,31.81,31.81,0,0,0-2.572,2.87l-1.414,1.907c-.488.678-.926,1.443-1.424,2.214-.24.391-.5.781-.74,1.194l-.681,1.289c-.447.881-.973,1.765-1.4,2.726-.829,1.932-1.8,3.936-2.5,6.123-.375,1.084-.8,2.176-1.151,3.3q-.48,1.706-.97,3.448c-.722,2.306-1.131,4.724-1.666,7.114l-.382,1.8c-.108.6-.187,1.208-.282,1.811q-.273,1.809-.543,3.6c-.417,2.379-.576,4.746-.8,7.032s-.45,4.5-.486,6.6c-.085,2.1-.164,4.092-.238,5.928-.115,1.836-.012,3.518-.025,5.011.013,1.493.025,2.794.034,3.865.019,2.144.031,3.369.031,3.369a.985.985,0,1,0,1.969-.018v-.07s-.041-1.213-.114-3.337c-.036-1.062-.081-2.352-.131-3.831-.025-1.48-.169-3.151-.1-4.972.028-1.822.057-3.8.088-5.882-.017-2.092.163-4.284.318-6.556s.262-4.627.615-6.992q.222-1.78.447-3.582c.079-.6.142-1.2.234-1.8l.334-1.789c.47-2.381.816-4.794,1.474-7.095q.442-1.739.874-3.444c.323-1.127.714-2.217,1.059-3.3.645-2.19,1.555-4.2,2.329-6.139.4-.965.9-1.852,1.321-2.739l.644-1.3c.226-.418.476-.809.705-1.2.475-.777.891-1.549,1.358-2.235l1.359-1.932a31.59,31.59,0,0,1,2.488-2.922,17.848,17.848,0,0,1,1.811-1.682c.446-.357.7-.523.7-.523" transform="translate(371.497 -4.53)" fill="#73716e"/>
            <path id="Trazado_823855" data-name="Trazado 823855" d="M77.686,313.633c-.008-.033.258-.018.5.332a5.878,5.878,0,0,1,.782,1.592,12.023,12.023,0,0,1,.4,1.208c.135.443.281.923.4,1.446.267,1.037.52,2.219.767,3.514.272,1.289.471,2.707.734,4.194.217,1.5.445,3.072.682,4.7.2,1.637.411,3.328.623,5.047.186,1.721.374,3.47.563,5.219s.344,3.5.508,5.226.33,3.419.457,5.064c.261,3.289.505,6.358.714,8.988.373,5.265.621,8.776.621,8.776v.009a.985.985,0,0,0,1.965-.139l0-.034s-.372-3.505-.929-8.764c-.3-2.626-.653-5.691-1.03-8.973-.184-1.641-.42-3.334-.635-5.055s-.432-3.47-.691-5.215-.5-3.49-.747-5.207c-.273-1.714-.542-3.4-.8-5.033-.293-1.627-.578-3.2-.848-4.69-.316-1.484-.564-2.894-.883-4.179-.292-1.291-.588-2.467-.892-3.5-.134-.52-.3-1-.448-1.438a12.17,12.17,0,0,0-.44-1.2,5.972,5.972,0,0,0-.843-1.576c-.253-.345-.523-.351-.513-.317" transform="translate(330.688 -4.801)" fill="#73716e"/>
            <path id="Trazado_823856" data-name="Trazado 823856" d="M70.956,308.549a10.824,10.824,0,0,0-2.071,1.87,13.5,13.5,0,0,0-.949,1.127,13.85,13.85,0,0,0-1.03,1.4,38.823,38.823,0,0,0-2.159,3.566c-.348.679-.676,1.4-1.036,2.148A24.313,24.313,0,0,0,62.7,321c-.316.817-.668,1.647-.978,2.513q-.425,1.313-.867,2.679c-.147.454-.3.915-.445,1.376q-.183.706-.368,1.419-.371,1.43-.747,2.889c-.479,1.949-.819,3.96-1.24,5.957-.358,2.009-.614,4.031-.922,6.016s-.429,3.958-.645,5.857l-.281,2.8q-.08,1.38-.155,2.691c-.1,1.75-.193,3.405-.28,4.93s-.067,2.929-.1,4.171-.039,2.326-.054,3.217c-.031,1.786-.047,2.805-.047,2.805a.985.985,0,0,0,1.969.032V370.3s-.013-1.012-.036-2.783c-.012-.884-.027-1.961-.043-3.193s-.067-2.626-.024-4.142.084-3.161.13-4.9c.023-.869.046-1.763.071-2.674.064-.91.129-1.84.195-2.787.157-1.889.213-3.854.463-5.828s.438-3.993.734-5.993c.356-1.989.634-4,1.05-5.944q.329-1.456.654-2.887c.108-.475.217-.948.323-1.418q.2-.694.4-1.376.4-1.366.779-2.683c.282-.867.6-1.7.893-2.521a24.106,24.106,0,0,1,.93-2.354c.334-.747.639-1.477.963-2.163a38.6,38.6,0,0,1,2.037-3.6,24.557,24.557,0,0,1,1.891-2.573,10.792,10.792,0,0,1,2.008-1.926" transform="translate(368.899 -4.724)" fill="#73716e"/>
            <path id="Trazado_823857" data-name="Trazado 823857" d="M29.938,267.793s-9.157-16.831,4.637-33.891c11.749-14.532,31.1-13.895,31.1-13.895s-25.079,9.4-35.739,47.786" transform="translate(402.353 -3.368)" fill="#28916c"/>
            <path id="Trazado_823858" data-name="Trazado 823858" d="M60.863,220.007s3.6,2.518.637,7.68-7.622,4.8-13.384,14.246c-5.163,8.46-8.509,24.952-22.993,25.861,0,0,5.353-26.185,17.543-36.759s18.2-11.027,18.2-11.027" transform="translate(407.167 -3.368)" fill="#3ee2a8"/>
            <path id="Trazado_823859" data-name="Trazado 823859" d="M96.772,266.735S113.088,238.182,76.249,229c0,0,14.4,10.836,20.523,37.731" transform="translate(319.123 -3.506)" fill="#73716e"/>
            <path id="Trazado_823860" data-name="Trazado 823860" d="M111.035,260.009A33.46,33.46,0,0,1,99.179,249.5c-4.908-7.2-5.864-18.8-17.463-21.67,0,0,6.756-1.465,10.58,1.147s11.728,7.075,18.74,31.03" transform="translate(303.077 -3.482)" fill="#262626"/>
            <path id="Trazado_823861" data-name="Trazado 823861" d="M115.9,231.6s-5.348-3.056-8.47-5.288S98.571,222.357,95,224.843s-2.931,9.368-.765,9.305c0,0,7.7-6.57,21.664-2.552" transform="translate(287.623 -3.423)" fill="#28916c"/>
            <path id="Trazado_823862" data-name="Trazado 823862" d="M27.178,283.942s-3.825-11.282,4.589-19.216,24.953-3.25,24.953-3.25S35.3,264.535,27.178,283.942" transform="translate(411.948 -3.982)" fill="#28916c"/>
            <path id="Trazado_823863" data-name="Trazado 823863" d="M11.773,283.948a134.145,134.145,0,0,0,21.415-11.92c9.751-6.915,14.437-8.539,22.467-6.054,0,0-11.95-4.513-19.694-5.459s-24.953,11.2-24.188,23.433" transform="translate(427.354 -3.987)" fill="#3ee2a8"/>
            <path id="Trazado_823864" data-name="Trazado 823864" d="M102.227,257.743s-9.942,6.565-4.526,19.44a22.277,22.277,0,0,0,17.847-10.325s-4.844-8.031-13.321-9.114" transform="translate(284.414 -3.946)" fill="#262626"/>
            <path id="Trazado_823865" data-name="Trazado 823865" d="M97.253,263.484c2.689,8.79-2.778,15.609-3.275,16.205-2.6-10.35-6.276-16.683-9.064-20.284,1.43-.68,9.792-4.246,12.339,4.079" transform="translate(312.971 -3.951)" fill="#28916c"/>
            <path id="Trazado_823866" data-name="Trazado 823866" d="M100.02,259.5s.078-.04.214-.1c2.787,3.6,6.462,9.934,9.064,20.284l-.039.047c-6.182-2.422-20.268-21.989-20.268-21.989a12.155,12.155,0,0,1,11.03,1.763" transform="translate(297.65 -3.937)" fill="#3ee2a8"/>
            <path id="Trazado_823867" data-name="Trazado 823867" d="M65.827,275.866s.621,7.887,10.516,9.13,21.8,1.052,26.339,3.92,9.56,10.946,14.579,13.049c0,0-1.243-16.73-14.484-20.315s-36.951-5.784-36.951-5.784" transform="translate(312.496 -4.223)" fill="#3ee2a8"/>
            <path id="Trazado_823868" data-name="Trazado 823868" d="M0,299.141s8.962-4.151,21.546,1.208c11.055,4.708,22.431,17.328,33.522,18,0,0-8.066-21.193-25.909-26.578A28.866,28.866,0,0,0,0,299.141" transform="translate(439.509 -4.446)" fill="#3ee2a8"/>
            <path id="Trazado_823869" data-name="Trazado 823869" d="M19.858,308.651s11.759,0,32.983,48.471c0,0,5.693-6.646,0-19.6C48.68,328.056,42.9,320.984,39.17,314s-8.7-9.465-19.312-5.354" transform="translate(419.651 -4.695)" fill="#28916c"/>
            <path id="Trazado_823870" data-name="Trazado 823870" d="M122,305.461s-7.931-3.868-15.87,3.059c-19.5,17.017-10.421,40.727-10.421,40.727A85.415,85.415,0,0,1,122,305.461" transform="translate(280.418 -4.66)" fill="#28916c"/>
            <path id="Trazado_823871" data-name="Trazado 823871" d="M97.067,304.381s5.862,5.761-2.782,15.99c0,0-3.25-7.839-14.169-6.883,0,0,8.3-11.235,16.95-9.107" transform="translate(316.677 -4.656)" fill="#262626"/>
            <path id="Trazado_823872" data-name="Trazado 823872" d="M108.04,305.445s6.979-4.194,11.664-.854c0,0-5.067-1.25-9.178,7.641s-9.942,30.307-28.777,37c0,0,6.693-37.381,26.291-43.786" transform="translate(294.375 -4.643)" fill="#3ee2a8"/>
            <path id="Trazado_823873" data-name="Trazado 823873" d="M116.713,301.937s3.92-19.312-9.369-25.43-30.784,1.243-42.065-.669c0,0,6.836,4.828,27.342,5.161,13.565.223,20.842,8.319,24.092,20.937" transform="translate(313.044 -4.195)" fill="#28916c"/>
            <path id="Trazado_823874" data-name="Trazado 823874" d="M0,299.043s5.64-17.316,25.335-14.735S54.78,310.6,55.068,318.247c0,0-14.416-22.042-30.307-25.239C6.69,289.372,0,299.043,0,299.043" transform="translate(439.509 -4.349)" fill="#28916c"/>
            <path id="Trazado_823875" data-name="Trazado 823875" d="M29.274,308.523a5.963,5.963,0,0,0-6.847-1.015,43.646,43.646,0,0,1,10.324,14.914c3.442,8.8,12.906,27.724,29.16,34.7a117.687,117.687,0,0,0-11.377-25.133c-14.245-23.432-21.26-23.468-21.26-23.468" transform="translate(410.582 -4.698)" fill="#3ee2a8"/>
            <path id="Trazado_823876" data-name="Trazado 823876" d="M64.513,383.652h15.46a10.5,10.5,0,0,0,10.5-10.5V344.179H54.015v28.976a10.5,10.5,0,0,0,10.5,10.5" transform="translate(350.917 -5.269)" fill="#1682fb"/>
            <rect id="Rectángulo_382806" data-name="Rectángulo 382806" width="36.456" height="5.163" transform="translate(404.932 341.576)" fill="#f2eadf"/>
            <rect id="Rectángulo_382807" data-name="Rectángulo 382807" width="36.456" height="1.02" transform="translate(404.932 348.459)" fill="#f2eadf"/>
            <path id="Trazado_823877" data-name="Trazado 823877" d="M54.015,352H55v-7.336H90.964v-.985H54.015Z" transform="translate(350.425 -5.262)" fill="#262626"/>
            <path id="Trazado_823878" data-name="Trazado 823878" d="M55.037,384.989H89.367a3.7,3.7,0,0,0,3.7-3.7c0-.037-41.734-.037-41.734-.037a3.71,3.71,0,0,0,3.7,3.74" transform="translate(350.958 -5.837)" fill="#262626"/>
          </g>
        </g>
      </g>
    </g>
  </g>
</svg>
