<svg xmlns="http://www.w3.org/2000/svg" xmlns:xlink="http://www.w3.org/1999/xlink" width="400" height="564" viewBox="0 0 400 564">
  <defs>
    <clipPath id="clip-path">
      <rect id="Rectángulo_383403" data-name="Rectángulo 383403" width="400" height="564" rx="15" transform="translate(180 4082)" fill="#273a89"/>
    </clipPath>
    <clipPath id="clip-path-2">
      <rect id="Rectángulo_383401" data-name="Rectángulo 383401" width="382.143" height="398.895" fill="none"/>
    </clipPath>
    <clipPath id="clip-path-3">
      <rect id="Rectángulo_384057" data-name="Rectángulo 384057" width="167.536" height="516.297" fill="none"/>
    </clipPath>
    <clipPath id="clip-path-5">
      <rect id="Rectángulo_384050" data-name="Rectángulo 384050" width="3.617" height="2.716" fill="none"/>
    </clipPath>
    <clipPath id="clip-path-6">
      <rect id="Rectángulo_384051" data-name="Rectángulo 384051" width="8.775" height="2.925" fill="none"/>
    </clipPath>
    <clipPath id="clip-path-7">
      <rect id="Rectángulo_384052" data-name="Rectángulo 384052" width="12.278" height="8.802" fill="none"/>
    </clipPath>
    <clipPath id="clip-path-8">
      <rect id="Rectángulo_384053" data-name="Rectángulo 384053" width="13.311" height="9.543" fill="none"/>
    </clipPath>
    <clipPath id="clip-path-9">
      <rect id="Rectángulo_384058" data-name="Rectángulo 384058" width="43.98" height="103.54" fill="none"/>
    </clipPath>
    <clipPath id="clip-path-10">
      <rect id="Rectángulo_384059" data-name="Rectángulo 384059" width="83.652" height="66.517" fill="none"/>
    </clipPath>
  </defs>
  <g id="Grupo_1074943" data-name="Grupo 1074943" transform="translate(-180 -8040.152)">
    <g id="Grupo_1074425" data-name="Grupo 1074425" transform="translate(0 3958.152)">
      <g id="Grupo_1074422" data-name="Grupo 1074422">
        <rect id="Rectángulo_383270" data-name="Rectángulo 383270" width="143" height="564" rx="15" transform="translate(180 4082)" fill="#273a89"/>
        <g id="Enmascarar_grupo_172" data-name="Enmascarar grupo 172" clip-path="url(#clip-path)">
          <g id="Grupo_1074421" data-name="Grupo 1074421" transform="translate(557.609 3951.255)" opacity="0.221">
            <g id="Grupo_1074423" data-name="Grupo 1074423" transform="translate(-386.533 -438.691)" style="isolation: isolate">
              <path id="Trazado_818450" data-name="Trazado 818450" d="M99.134,0l91.457,92.964,86.1-87.526,86.592,88.019L453.77,1.482l89.509,90.983,80.858-82.19L637.543,23.9l-94.264,95.816L453.77,28.741l-90.483,91.968L276.694,32.7l-86.1,87.521L99.134,27.253,13.411,114.388,0,100.767Z" transform="translate(-72.753 1016.399)" fill="#1682fb"/>
              <path id="Trazado_818451" data-name="Trazado 818451" d="M99.134,16.8l91.457,92.958,86.1-87.515,86.592,88.013L453.77,18.278l89.509,90.983,80.858-82.2L637.543,40.7l-94.264,95.816L453.77,45.531,363.287,137.5,276.694,49.485l-86.1,87.521L99.134,44.048,13.411,131.183,0,117.562Z" transform="translate(-72.753 905.654)" fill="#1682fb"/>
              <path id="Trazado_818452" data-name="Trazado 818452" d="M99.134,33.59l91.457,92.958,86.1-87.521,86.592,88.013L453.77,35.073l89.509,90.983,80.858-82.2,13.406,13.632-94.264,95.816L453.77,62.326,363.287,154.3,276.694,66.281l-86.1,87.521L99.134,60.843,13.411,147.978,0,134.352Z" transform="translate(-72.753 794.909)" fill="#1682fb"/>
              <path id="Trazado_818453" data-name="Trazado 818453" d="M99.134,50.387l91.457,92.964,86.1-87.521,86.592,88.013L453.77,51.869l89.509,90.989,80.858-82.2,13.406,13.627-94.264,95.816L453.77,79.122,363.287,171.1,276.694,83.077l-86.1,87.526L99.134,77.64,13.411,164.78,0,151.153Z" transform="translate(-72.753 684.16)" fill="#1682fb"/>
              <path id="Trazado_818454" data-name="Trazado 818454" d="M99.134,67.182l91.457,92.964,86.1-87.521,86.592,88.013L453.77,68.664l89.509,90.983,80.858-82.2,13.406,13.627L543.279,186.9,453.77,95.917l-90.483,91.973L276.694,99.872l-86.1,87.521L99.134,94.429,13.411,181.57,0,167.943Z" transform="translate(-72.753 573.414)" fill="#1682fb"/>
              <path id="Trazado_818455" data-name="Trazado 818455" d="M99.134,83.977l91.457,92.958,86.1-87.521,86.592,88.013L453.77,85.459l89.509,90.983,80.858-82.2,13.406,13.632L543.279,203.7,453.77,112.713l-90.483,91.973-86.592-88.019-86.1,87.521L99.134,111.23,13.411,198.365,0,184.738Z" transform="translate(-72.753 462.669)" fill="#1682fb"/>
            </g>
          </g>
        </g>
        <g id="Grupo_1074420" data-name="Grupo 1074420" transform="translate(-65.143 6)">
          <rect id="Rectángulo_383402" data-name="Rectángulo 383402" width="225.226" height="398.895" rx="13" transform="translate(278.377 4118)" fill="#dcecfe"/>
          <g id="Grupo_1074419" data-name="Grupo 1074419" transform="translate(263 4118)">
            <path id="Rectángulo_383306" data-name="Rectángulo 383306" d="M-1.636-2.154H3.135a.518.518,0,0,1,.518.518V65.359a.518.518,0,0,1-.518.518H-1.636a.518.518,0,0,1-.518-.518V-1.636A.518.518,0,0,1-1.636-2.154ZM2.618-1.118H-1.118v65.96H2.618Z" transform="translate(241.577 33.742)" fill="#b4daef"/>
            <g id="Grupo_1074418" data-name="Grupo 1074418" transform="translate(0 0)">
              <g id="Grupo_1074417" data-name="Grupo 1074417" clip-path="url(#clip-path-2)">
                <path id="Rectángulo_383307" data-name="Rectángulo 383307" d="M10.731-2.153h197.55a12.875,12.875,0,0,1,12.885,12.885V383.856a12.875,12.875,0,0,1-12.885,12.885H10.731A12.875,12.875,0,0,1-2.154,383.856V10.731A12.875,12.875,0,0,1,10.731-2.153Zm197.55,397.859a11.839,11.839,0,0,0,11.85-11.85V10.731a11.839,11.839,0,0,0-11.85-11.85H10.731a11.839,11.839,0,0,0-11.85,11.85V383.856a11.839,11.839,0,0,0,11.85,11.85Z" transform="translate(19.292 2.154)" fill="#b4daef"/>
                <path id="Rectángulo_383308" data-name="Rectángulo 383308" d="M10.389-2.154H202.475a12.533,12.533,0,0,1,12.543,12.543v362.8a12.532,12.532,0,0,1-12.543,12.543H10.389A12.533,12.533,0,0,1-2.154,373.194V10.389A12.533,12.533,0,0,1,10.389-2.154ZM202.475,384.7a11.5,11.5,0,0,0,11.508-11.508V10.389A11.5,11.5,0,0,0,202.475-1.119H10.389A11.5,11.5,0,0,0-1.119,10.389v362.8A11.5,11.5,0,0,0,10.389,384.7Z" transform="translate(22.367 7.656)" fill="#b4daef"/>
                <path id="Trazado_827320" data-name="Trazado 827320" d="M514.692,66.959a7.094,7.094,0,1,1-7.094-7.094,7.094,7.094,0,0,1,7.094,7.094" transform="translate(-380.218 -45.477)" fill="#231f20"/>
                <path id="Trazado_827321" data-name="Trazado 827321" d="M528.768,221.767H390.9a24.139,24.139,0,0,1-24.139-24.139h0A24.139,24.139,0,0,1,390.9,173.489H528.768a24.139,24.139,0,0,1,24.139,24.139h0a24.139,24.139,0,0,1-24.139,24.139" transform="translate(-278.621 -131.794)" fill="#1682fb"/>
                <path id="Rectángulo_383310" data-name="Rectángulo 383310" d="M20.1-2.154h134.16a22.415,22.415,0,0,1,4.484.452A22.133,22.133,0,0,1,166.7,1.647a22.315,22.315,0,0,1,8.061,9.79,22.142,22.142,0,0,1,1.3,4.178,22.413,22.413,0,0,1,.452,4.484v4.809a22.413,22.413,0,0,1-.452,4.484,22.132,22.132,0,0,1-3.348,7.958,22.315,22.315,0,0,1-9.79,8.061,22.145,22.145,0,0,1-4.178,1.3,22.415,22.415,0,0,1-4.484.452H20.1a22.415,22.415,0,0,1-4.484-.452,22.133,22.133,0,0,1-7.958-3.348A22.315,22.315,0,0,1-.4,33.569a22.144,22.144,0,0,1-1.3-4.178,22.414,22.414,0,0,1-.452-4.484V20.1A22.414,22.414,0,0,1-1.7,15.614,22.133,22.133,0,0,1,1.647,7.657,22.315,22.315,0,0,1,11.437-.4a22.144,22.144,0,0,1,4.178-1.3A22.414,22.414,0,0,1,20.1-2.154Zm134.16,48.278a21.377,21.377,0,0,0,4.276-.431A21.1,21.1,0,0,0,166.12,42.5a21.28,21.28,0,0,0,7.687-9.335,21.106,21.106,0,0,0,1.236-3.982,21.377,21.377,0,0,0,.431-4.276V20.1a21.377,21.377,0,0,0-.431-4.276,21.1,21.1,0,0,0-3.192-7.586A21.28,21.28,0,0,0,162.516.549a21.108,21.108,0,0,0-3.982-1.236,21.377,21.377,0,0,0-4.276-.431H20.1a21.377,21.377,0,0,0-4.276.431A21.1,21.1,0,0,0,8.236,2.5,21.28,21.28,0,0,0,.549,11.84,21.107,21.107,0,0,0-.687,15.822,21.377,21.377,0,0,0-1.118,20.1v4.809a21.377,21.377,0,0,0,.431,4.276A21.1,21.1,0,0,0,2.5,36.77a21.28,21.28,0,0,0,9.335,7.687,21.108,21.108,0,0,0,3.982,1.236,21.377,21.377,0,0,0,4.276.431Z" transform="translate(188.483 115.193)" fill="#b4daef"/>
                <path id="Trazado_827326" data-name="Trazado 827326" d="M859.474,526.3l2.011,6.19h6.508a1.785,1.785,0,0,1,1.049,3.229l-5.266,3.826,2.011,6.19a1.785,1.785,0,0,1-2.747,2l-5.265-3.825-5.266,3.825a1.785,1.785,0,0,1-2.747-2l2.011-6.19-5.265-3.826a1.785,1.785,0,0,1,1.049-3.229h6.508l2.011-6.19a1.785,1.785,0,0,1,3.4,0" transform="translate(-642.506 -398.877)" fill="#b4daef"/>
                <path id="Trazado_827327" data-name="Trazado 827327" d="M996.206,526.3l2.011,6.19h6.508a1.785,1.785,0,0,1,1.049,3.229l-5.266,3.826,2.012,6.19a1.785,1.785,0,0,1-2.747,2l-5.265-3.825-5.265,3.825a1.785,1.785,0,0,1-2.747-2l2.011-6.19-5.265-3.826a1.785,1.785,0,0,1,1.049-3.229H990.8l2.011-6.19a1.785,1.785,0,0,1,3.4,0" transform="translate(-746.378 -398.877)" fill="#b4daef"/>
                <path id="Trazado_827328" data-name="Trazado 827328" d="M1112.539,526.3l2.011,6.19h6.509a1.785,1.785,0,0,1,1.049,3.229l-5.266,3.826,2.011,6.19a1.785,1.785,0,0,1-2.747,2l-5.265-3.825-5.265,3.825a1.785,1.785,0,0,1-2.747-2l2.011-6.19-5.266-3.826a1.785,1.785,0,0,1,1.05-3.229h6.508l2.011-6.19a1.785,1.785,0,0,1,3.4,0" transform="translate(-834.753 -398.877)" fill="#b4daef"/>
                <path id="Trazado_827329" data-name="Trazado 827329" d="M1237.009,526.3l2.011,6.19h6.508a1.785,1.785,0,0,1,1.049,3.229l-5.265,3.826,2.011,6.19a1.785,1.785,0,0,1-2.747,2l-5.265-3.825-5.265,3.825a1.785,1.785,0,0,1-2.747-2l2.011-6.19-5.266-3.826a1.785,1.785,0,0,1,1.049-3.229h6.508l2.011-6.19a1.785,1.785,0,0,1,3.4,0" transform="translate(-929.309 -398.877)" fill="#b4daef"/>
                <path id="Trazado_827330" data-name="Trazado 827330" d="M1364.2,526.3l2.011,6.19h6.509a1.785,1.785,0,0,1,1.049,3.229l-5.265,3.826,2.011,6.19a1.785,1.785,0,0,1-2.747,2l-5.266-3.825-5.265,3.825a1.785,1.785,0,0,1-2.747-2l2.011-6.19-5.265-3.826a1.785,1.785,0,0,1,1.05-3.229h6.508l2.011-6.19a1.785,1.785,0,0,1,3.4,0" transform="translate(-1025.934 -398.877)" fill="#b4daef"/>
                <path id="Trazado_827331" data-name="Trazado 827331" d="M457.682,241.025a.518.518,0,0,1-.392-.856,71.884,71.884,0,0,1,17.142-14.489,17.36,17.36,0,0,1,2.8-1.367,12.467,12.467,0,0,1,3.045-.764c2.36-.256,4.188.446,5.287,2.029a8.468,8.468,0,0,1,1.165,3.57,11.561,11.561,0,0,0,.557,2.344,5.331,5.331,0,0,0,1.56,2.142,7.124,7.124,0,0,0,2.424,1.3,10.015,10.015,0,0,0,5.8.032,17.546,17.546,0,0,0,3.971-1.823c1.275-.766,2.527-1.664,3.738-2.532.835-.6,1.7-1.218,2.567-1.793a25.614,25.614,0,0,1,6.075-2.921,24.677,24.677,0,0,1,3.306-.839,21.279,21.279,0,0,1,3.329-.338,15.089,15.089,0,0,1,6.255,1.108,10.9,10.9,0,0,1,4.85,3.982,21.487,21.487,0,0,1,1.252,2.217,13.222,13.222,0,0,0,1.893,3.008,6.66,6.66,0,0,0,1.577,1.269,6.9,6.9,0,0,0,1.809.717,10.576,10.576,0,0,0,4.167.071,21.462,21.462,0,0,0,4.489-1.3,37.025,37.025,0,0,0,4.263-2.051l17.551-9.779a47.694,47.694,0,0,1,4.492-2.288,15.755,15.755,0,0,1,4.909-1.292,9.941,9.941,0,0,1,5.144.975,7.8,7.8,0,0,1,2.114,1.517,6.363,6.363,0,0,1,1.419,2.2,12.255,12.255,0,0,1,.559,2.4,7.964,7.964,0,0,0,.822,2.846,4.476,4.476,0,0,0,3.31,2,9.049,9.049,0,0,0,4.395-.538,30.675,30.675,0,0,0,3.188-1.51,19.527,19.527,0,0,1,5.373-2.153.518.518,0,0,1,.189,1.018,18.472,18.472,0,0,0-5.084,2.053,31.432,31.432,0,0,1-3.3,1.56,10.521,10.521,0,0,1-2.414.6,9.186,9.186,0,0,1-2.5-.009,6.4,6.4,0,0,1-2.3-.774,4.84,4.84,0,0,1-1.747-1.716,8.86,8.86,0,0,1-.955-3.209,11.3,11.3,0,0,0-.505-2.2,5.335,5.335,0,0,0-1.191-1.844,6.773,6.773,0,0,0-1.835-1.314,8.551,8.551,0,0,0-2.238-.741,8.985,8.985,0,0,0-2.363-.129,14.747,14.747,0,0,0-4.587,1.213,45.323,45.323,0,0,0-4.392,2.24l-17.551,9.779a38.039,38.039,0,0,1-4.383,2.109,22.491,22.491,0,0,1-4.708,1.357,11.6,11.6,0,0,1-4.577-.087,7.683,7.683,0,0,1-3.9-2.291,14.2,14.2,0,0,1-2.052-3.236,20.677,20.677,0,0,0-1.19-2.111,9.885,9.885,0,0,0-4.4-3.608,14.067,14.067,0,0,0-5.828-1.025,20.231,20.231,0,0,0-3.166.322,23.633,23.633,0,0,0-3.167.8,24.567,24.567,0,0,0-5.826,2.8c-.853.564-1.708,1.177-2.535,1.771a27.966,27.966,0,0,1-8.015,4.506,11.076,11.076,0,0,1-6.413-.038,8.15,8.15,0,0,1-2.773-1.492,6.353,6.353,0,0,1-1.858-2.555,12.516,12.516,0,0,1-.615-2.553,7.588,7.588,0,0,0-.994-3.151,3.6,3.6,0,0,0-1.836-1.381,5.794,5.794,0,0,0-2.49-.209,11.44,11.44,0,0,0-2.79.7,16.314,16.314,0,0,0-2.626,1.284,70.855,70.855,0,0,0-16.894,14.28A.516.516,0,0,1,457.682,241.025Z" transform="translate(-347.294 -167.395)" fill="#b4daef"/>
                <path id="Trazado_827332" data-name="Trazado 827332" d="M680.035,1414.9H548.15a23.155,23.155,0,1,1,0-46.31H680.035a23.155,23.155,0,1,1,0,46.31" transform="translate(-398.823 -1039.676)" fill="#273a89"/>
                <path id="Trazado_827333" data-name="Trazado 827333" d="M623.58,1451.517h-.15a8.55,8.55,0,0,1-6.122-2.375,14.339,14.339,0,0,1-1.905-2.595,15.889,15.889,0,0,0-1.47-2.1,8.62,8.62,0,0,0-5.469-2.753,12.815,12.815,0,0,0-6.428.853,21.081,21.081,0,0,0-5.533,3.463,65.535,65.535,0,0,0-4.857,4.655.518.518,0,1,1-.742-.722,66.333,66.333,0,0,1,4.936-4.728,22.1,22.1,0,0,1,5.806-3.627,13.867,13.867,0,0,1,6.956-.921,10.813,10.813,0,0,1,3.334.988,8.827,8.827,0,0,1,2.776,2.109,16.919,16.919,0,0,1,1.569,2.236,13.36,13.36,0,0,0,1.761,2.413,6.654,6.654,0,0,0,2.451,1.556,8.855,8.855,0,0,0,2.949.513h.137a13.635,13.635,0,0,0,6-1.493,40.693,40.693,0,0,0,5.533-3.592,44,44,0,0,1,5.336-3.505,15.22,15.22,0,0,1,6.561-1.788,10.123,10.123,0,0,1,3.313.442,7.861,7.861,0,0,1,2.914,1.656,15.661,15.661,0,0,1,2.482,3.183c1.069,1.644,2.078,3.2,3.746,3.818a4.441,4.441,0,0,0,1.9.26,7.014,7.014,0,0,0,1.976-.464,23.283,23.283,0,0,0,3.964-2.139l.188-.117A49.507,49.507,0,0,1,680.6,1441a5.829,5.829,0,0,1,3.147-.22,4.03,4.03,0,0,1,1.948,1.3,13.194,13.194,0,0,1,1.3,1.885,14.391,14.391,0,0,0,1.071,1.6,6.8,6.8,0,0,0,4.6,2.337,11.707,11.707,0,0,0,5.564-.77,33.527,33.527,0,0,0,6.011-3.389c1.282-.844,2.608-1.716,3.989-2.457a9.223,9.223,0,0,1,2.165-.882,4.2,4.2,0,0,1,2.406.053c1.636.571,2.4,2.1,3.131,3.576a17.106,17.106,0,0,0,.878,1.618,4.638,4.638,0,0,0,1.087,1.229,4.234,4.234,0,0,0,3.212.673,15.128,15.128,0,0,0,3.7-1.107l7.612-3.147,7.609-3.146a.518.518,0,1,1,.4.957l-7.609,3.146-7.612,3.147a16.053,16.053,0,0,1-3.964,1.178,6.569,6.569,0,0,1-2.053-.038,4.588,4.588,0,0,1-1.911-.835A8.532,8.532,0,0,1,715,1444.5a12.532,12.532,0,0,0-1.1-1.924,3.052,3.052,0,0,0-1.449-1.136,3.14,3.14,0,0,0-1.818-.025,8.237,8.237,0,0,0-1.922.789c-1.34.719-2.646,1.578-3.909,2.409a34.316,34.316,0,0,1-6.2,3.488,12.764,12.764,0,0,1-6.066.834,7.809,7.809,0,0,1-5.281-2.712,15.148,15.148,0,0,1-1.154-1.722c-.743-1.227-1.445-2.385-2.639-2.723a4.987,4.987,0,0,0-2.592.223,48.474,48.474,0,0,0-12.827,5.617l-.188.117a24.4,24.4,0,0,1-4.148,2.23,6.387,6.387,0,0,1-4.6.2c-1.988-.74-3.14-2.511-4.253-4.224a14.9,14.9,0,0,0-2.308-2.979,6.832,6.832,0,0,0-2.534-1.437,9.084,9.084,0,0,0-2.975-.394,14.167,14.167,0,0,0-6.1,1.669,43.266,43.266,0,0,0-5.208,3.426,41.468,41.468,0,0,1-5.678,3.681A14.69,14.69,0,0,1,623.58,1451.517Z" transform="translate(-448.781 -1094.001)" fill="#1682fb"/>
                <path id="Trazado_827334" data-name="Trazado 827334" d="M1072.488,929.381H913.781a2.175,2.175,0,0,1-2.175-2.175v-108a2.175,2.175,0,0,1,2.175-2.175h158.707a2.175,2.175,0,0,1,2.175,2.175v108a2.175,2.175,0,0,1-2.175,2.175" transform="translate(-692.52 -620.671)" fill="#1682fb"/>
                <path id="Rectángulo_383311" data-name="Rectángulo 383311" d="M.518,0H2.881A.518.518,0,0,1,3.4.518V3.374a.518.518,0,0,1-.518.518H.518A.518.518,0,0,1,0,3.374V.518A.518.518,0,0,1,.518,0ZM2.363,1.035H1.035V2.857H2.363Z" transform="matrix(1, -0.003, 0.003, 1, 224.9, 203.872)" fill="#b4daef"/>
                <path id="Rectángulo_383312" data-name="Rectángulo 383312" d="M.518,0h5.3a.518.518,0,0,1,.518.518V3.374a.518.518,0,0,1-.518.518H.518A.518.518,0,0,1,0,3.374V.518A.518.518,0,0,1,.518,0ZM5.3,1.035H1.035V2.857H5.3Z" transform="translate(229.443 203.858) rotate(-0.174)" fill="#b4daef"/>
                <path id="Rectángulo_383313" data-name="Rectángulo 383313" d="M.518,0h7.81a.518.518,0,0,1,.518.518V3.374a.518.518,0,0,1-.518.518H.518A.518.518,0,0,1,0,3.374V.518A.518.518,0,0,1,.518,0ZM7.81,1.035H1.035V2.857H7.81Z" transform="translate(237.463 203.834) rotate(-0.175)" fill="#b4daef"/>
                <path id="Rectángulo_383314" data-name="Rectángulo 383314" d="M.518,0H8.965a.518.518,0,0,1,.518.518V3.374a.518.518,0,0,1-.518.518H.518A.518.518,0,0,1,0,3.374V.518A.518.518,0,0,1,.518,0Zm7.93,1.035H1.035V2.857H8.448Z" transform="translate(279.788 203.705) rotate(-0.174)" fill="#b4daef"/>
                <path id="Rectángulo_383315" data-name="Rectángulo 383315" d="M.518,0H15.842a.518.518,0,0,1,.518.518V3.374a.518.518,0,0,1-.518.518H.518A.518.518,0,0,1,0,3.374V.518A.518.518,0,0,1,.518,0ZM15.324,1.035H1.035V2.857H15.324Z" transform="translate(253.723 203.784) rotate(-0.174)" fill="#b4daef"/>
                <path id="Rectángulo_383316" data-name="Rectángulo 383316" d="M.518,0H5.892A.518.518,0,0,1,6.41.518V3.374a.518.518,0,0,1-.518.518H.518A.518.518,0,0,1,0,3.374V.518A.518.518,0,0,1,.518,0ZM5.375,1.035H1.035V2.857h4.34Z" transform="translate(246.629 203.806) rotate(-0.174)" fill="#b4daef"/>
                <path id="Rectángulo_383317" data-name="Rectángulo 383317" d="M.518,0H5.892A.518.518,0,0,1,6.41.518V3.374a.518.518,0,0,1-.518.518H.518A.518.518,0,0,1,0,3.374V.518A.518.518,0,0,1,.518,0ZM5.375,1.035H1.035V2.857h4.34Z" transform="translate(271.84 203.729) rotate(-0.174)" fill="#b4daef"/>
                <path id="Rectángulo_383318" data-name="Rectángulo 383318" d="M.518,0h3.6a.518.518,0,0,1,.518.518V3.374a.518.518,0,0,1-.518.518H.518A.518.518,0,0,1,0,3.374V.518A.518.518,0,0,1,.518,0ZM3.6,1.035H1.035V2.857H3.6Z" transform="translate(329.556 203.553) rotate(-0.176)" fill="#b4daef"/>
                <path id="Rectángulo_383319" data-name="Rectángulo 383319" d="M.518,0H25.366a.518.518,0,0,1,.518.518V3.374a.518.518,0,0,1-.518.518H.518A.518.518,0,0,1,0,3.374V.518A.518.518,0,0,1,.518,0Zm24.33,1.035H1.035V2.857H24.848Z" transform="translate(335.499 203.535) rotate(-0.175)" fill="#b4daef"/>
                <path id="Rectángulo_383320" data-name="Rectángulo 383320" d="M.518,0H14.266a.518.518,0,0,1,.518.518V3.374a.518.518,0,0,1-.518.518H.518A.518.518,0,0,1,0,3.374V.518A.518.518,0,0,1,.518,0ZM13.749,1.035H1.035V2.857H13.749Z" transform="translate(313.444 203.602) rotate(-0.174)" fill="#b4daef"/>
                <path id="Rectángulo_383321" data-name="Rectángulo 383321" d="M.518,0H18.236a.518.518,0,0,1,.518.518V3.374a.518.518,0,0,1-.518.518H.518A.518.518,0,0,1,0,3.374V.518A.518.518,0,0,1,.518,0Zm17.2,1.035H1.035V2.857H17.718Z" transform="translate(291.357 203.67) rotate(-0.175)" fill="#b4daef"/>
                <path id="Rectángulo_383322" data-name="Rectángulo 383322" d="M.518,0H2.881A.518.518,0,0,1,3.4.518V3.374a.518.518,0,0,1-.518.518H.518A.518.518,0,0,1,0,3.374V.518A.518.518,0,0,1,.518,0ZM2.363,1.035H1.035V2.857H2.363Z" transform="matrix(1, -0.003, 0.003, 1, 224.923, 211.226)" fill="#b4daef"/>
                <path id="Rectángulo_383323" data-name="Rectángulo 383323" d="M.518,0H14.271a.518.518,0,0,1,.518.518V3.374a.518.518,0,0,1-.518.518H.518A.518.518,0,0,1,0,3.374V.518A.518.518,0,0,1,.518,0ZM13.753,1.035H1.035V2.857H13.753Z" transform="translate(229.466 211.212) rotate(-0.174)" fill="#b4daef"/>
                <path id="Rectángulo_383324" data-name="Rectángulo 383324" d="M.518,0H30.667a.518.518,0,0,1,.518.518V3.374a.518.518,0,0,1-.518.518H.518A.518.518,0,0,1,0,3.374V.518A.518.518,0,0,1,.518,0ZM30.149,1.035H1.035V2.857H30.149Z" transform="translate(258.109 211.125) rotate(-0.174)" fill="#b4daef"/>
                <path id="Rectángulo_383325" data-name="Rectángulo 383325" d="M.518,0h8.6a.518.518,0,0,1,.518.518V3.374a.518.518,0,0,1-.518.518H.518A.518.518,0,0,1,0,3.374V.518A.518.518,0,0,1,.518,0ZM8.6,1.035H1.035V2.857H8.6Z" transform="matrix(1, -0.003, 0.003, 1, 246.652, 211.16)" fill="#b4daef"/>
                <path id="Rectángulo_383326" data-name="Rectángulo 383326" d="M.518,0H53.252a.518.518,0,0,1,.518.518V3.374a.518.518,0,0,1-.518.518H.518A.518.518,0,0,1,0,3.374V.518A.518.518,0,0,1,.518,0ZM52.735,1.035H1.035V2.857h51.7Z" transform="translate(291.38 211.023) rotate(-0.174)" fill="#b4daef"/>
                <path id="Rectángulo_383327" data-name="Rectángulo 383327" d="M.518,0H2.881A.518.518,0,0,1,3.4.518V3.374a.518.518,0,0,1-.518.518H.518A.518.518,0,0,1,0,3.374V.518A.518.518,0,0,1,.518,0ZM2.363,1.035H1.035V2.857H2.363Z" transform="matrix(1, -0.003, 0.003, 1, 224.945, 218.652)" fill="#b4daef"/>
                <path id="Rectángulo_383328" data-name="Rectángulo 383328" d="M.518,0H7.394a.518.518,0,0,1,.518.518V3.374a.518.518,0,0,1-.518.518H.518A.518.518,0,0,1,0,3.374V.518A.518.518,0,0,1,.518,0ZM6.877,1.035H1.035V2.857H6.877Z" transform="translate(229.488 218.639) rotate(-0.174)" fill="#b4daef"/>
                <path id="Rectángulo_383329" data-name="Rectángulo 383329" d="M.518,0H18.207a.518.518,0,0,1,.518.518V3.374a.518.518,0,0,1-.518.518H.518A.518.518,0,0,1,0,3.374V.518A.518.518,0,0,1,.518,0ZM17.689,1.035H1.035V2.857H17.689Z" transform="translate(265.008 218.53) rotate(-0.174)" fill="#b4daef"/>
                <path id="Rectángulo_383330" data-name="Rectángulo 383330" d="M.518,0H5.1a.518.518,0,0,1,.518.518V3.374a.518.518,0,0,1-.518.518H.518A.518.518,0,0,1,0,3.374V.518A.518.518,0,0,1,.518,0Zm4.07,1.035H1.035V2.857H4.587Z" transform="translate(258.132 218.551) rotate(-0.174)" fill="#b4daef"/>
                <path id="Rectángulo_383331" data-name="Rectángulo 383331" d="M.518,0h16.47A.518.518,0,0,1,17.5.518V3.374a.518.518,0,0,1-.518.518H.518A.518.518,0,0,1,0,3.374V.518A.518.518,0,0,1,.518,0ZM16.47,1.035H1.035V2.857H16.47Z" transform="translate(238.802 218.61) rotate(-0.175)" fill="#b4daef"/>
                <path id="Rectángulo_383332" data-name="Rectángulo 383332" d="M.518,0H18.491a.518.518,0,0,1,.518.518V3.374a.518.518,0,0,1-.518.518H.518A.518.518,0,0,1,0,3.374V.518A.518.518,0,0,1,.518,0ZM17.974,1.035H1.035V2.857H17.974Z" transform="translate(304.681 218.41) rotate(-0.175)" fill="#b4daef"/>
                <path id="Rectángulo_383333" data-name="Rectángulo 383333" d="M.518,0H7.893a.518.518,0,0,1,.518.518V3.374a.518.518,0,0,1-.518.518H.518A.518.518,0,0,1,0,3.374V.518A.518.518,0,0,1,.518,0ZM7.376,1.035H1.035V2.857H7.376Z" transform="translate(284.846 218.47) rotate(-0.176)" fill="#b4daef"/>
                <path id="Rectángulo_383334" data-name="Rectángulo 383334" d="M.518,0H7.893a.518.518,0,0,1,.518.518V3.374a.518.518,0,0,1-.518.518H.518A.518.518,0,0,1,0,3.374V.518A.518.518,0,0,1,.518,0ZM7.376,1.035H1.035V2.857H7.376Z" transform="translate(294.842 218.44) rotate(-0.176)" fill="#b4daef"/>
                <path id="Rectángulo_383335" data-name="Rectángulo 383335" d="M.518,0H2.881A.518.518,0,0,1,3.4.518V3.374a.518.518,0,0,1-.518.518H.518A.518.518,0,0,1,0,3.374V.518A.518.518,0,0,1,.518,0ZM2.363,1.035H1.035V2.857H2.363Z" transform="matrix(1, -0.003, 0.003, 1, 224.993, 234.172)" fill="#b4daef"/>
                <path id="Rectángulo_383336" data-name="Rectángulo 383336" d="M.518,0H14.271a.518.518,0,0,1,.518.518V3.374a.518.518,0,0,1-.518.518H.518A.518.518,0,0,1,0,3.374V.518A.518.518,0,0,1,.518,0ZM13.753,1.035H1.035V2.857H13.753Z" transform="translate(229.536 234.158) rotate(-0.174)" fill="#b4daef"/>
                <path id="Rectángulo_383337" data-name="Rectángulo 383337" d="M.518,0H14.271a.518.518,0,0,1,.518.518V3.374a.518.518,0,0,1-.518.518H.518A.518.518,0,0,1,0,3.374V.518A.518.518,0,0,1,.518,0ZM13.753,1.035H1.035V2.857H13.753Z" transform="matrix(1, -0.003, 0.003, 1, 274.575, 234.021)" fill="#b4daef"/>
                <path id="Rectángulo_383338" data-name="Rectángulo 383338" d="M.518,0H14.271a.518.518,0,0,1,.518.518V3.374a.518.518,0,0,1-.518.518H.518A.518.518,0,0,1,0,3.374V.518A.518.518,0,0,1,.518,0ZM13.753,1.035H1.035V2.857H13.753Z" transform="matrix(1, -0.003, 0.003, 1, 258.179, 234.071)" fill="#b4daef"/>
                <path id="Rectángulo_383339" data-name="Rectángulo 383339" d="M.518,0h8.6a.518.518,0,0,1,.518.518V3.374a.518.518,0,0,1-.518.518H.518A.518.518,0,0,1,0,3.374V.518A.518.518,0,0,1,.518,0ZM8.6,1.035H1.035V2.857H8.6Z" transform="matrix(1, -0.003, 0.003, 1, 246.722, 234.106)" fill="#b4daef"/>
                <path id="Rectángulo_383340" data-name="Rectángulo 383340" d="M.518,0H2.881A.518.518,0,0,1,3.4.518V3.374a.518.518,0,0,1-.518.518H.518A.518.518,0,0,1,0,3.374V.518A.518.518,0,0,1,.518,0ZM2.363,1.035H1.035V2.857H2.363Z" transform="matrix(1, -0.003, 0.003, 1, 237.723, 277.392)" fill="#b4daef"/>
                <path id="Rectángulo_383341" data-name="Rectángulo 383341" d="M.518,0H14.271a.518.518,0,0,1,.518.518V3.374a.518.518,0,0,1-.518.518H.518A.518.518,0,0,1,0,3.374V.518A.518.518,0,0,1,.518,0ZM13.753,1.035H1.035V2.857H13.753Z" transform="translate(242.266 277.378) rotate(-0.174)" fill="#b4daef"/>
                <path id="Rectángulo_383342" data-name="Rectángulo 383342" d="M.518,0H14.271a.518.518,0,0,1,.518.518V3.374a.518.518,0,0,1-.518.518H.518A.518.518,0,0,1,0,3.374V.518A.518.518,0,0,1,.518,0ZM13.753,1.035H1.035V2.857H13.753Z" transform="matrix(1, -0.003, 0.003, 1, 287.305, 277.241)" fill="#b4daef"/>
                <path id="Rectángulo_383343" data-name="Rectángulo 383343" d="M.518,0H14.271a.518.518,0,0,1,.518.518V3.374a.518.518,0,0,1-.518.518H.518A.518.518,0,0,1,0,3.374V.518A.518.518,0,0,1,.518,0ZM13.753,1.035H1.035V2.857H13.753Z" transform="matrix(1, -0.003, 0.003, 1, 270.909, 277.291)" fill="#b4daef"/>
                <path id="Rectángulo_383344" data-name="Rectángulo 383344" d="M.518,0h8.6a.518.518,0,0,1,.518.518V3.374a.518.518,0,0,1-.518.518H.518A.518.518,0,0,1,0,3.374V.518A.518.518,0,0,1,.518,0ZM8.6,1.035H1.035V2.857H8.6Z" transform="matrix(1, -0.003, 0.003, 1, 259.452, 277.326)" fill="#b4daef"/>
                <path id="Rectángulo_383345" data-name="Rectángulo 383345" d="M.518,0h22.8a.518.518,0,0,1,.518.518V3.374a.518.518,0,0,1-.518.518H.518A.518.518,0,0,1,0,3.374V.518A.518.518,0,0,1,.518,0ZM22.8,1.035H1.035V2.857H22.8Z" transform="translate(350.365 277.049) rotate(-0.175)" fill="#b4daef"/>
                <path id="Rectángulo_383346" data-name="Rectángulo 383346" d="M.518,0h22.8a.518.518,0,0,1,.518.518V3.374a.518.518,0,0,1-.518.518H.518A.518.518,0,0,1,0,3.374V.518A.518.518,0,0,1,.518,0ZM22.8,1.035H1.035V2.857H22.8Z" transform="translate(323.178 277.132) rotate(-0.175)" fill="#b4daef"/>
                <path id="Rectángulo_383347" data-name="Rectángulo 383347" d="M.518,0H14.773a.518.518,0,0,1,.518.518V3.374a.518.518,0,0,1-.518.518H.518A.518.518,0,0,1,0,3.374V.518A.518.518,0,0,1,.518,0ZM14.255,1.035H1.035V2.857h13.22Z" transform="translate(304.18 277.19) rotate(-0.175)" fill="#b4daef"/>
                <path id="Rectángulo_383348" data-name="Rectángulo 383348" d="M.518,0H2.881A.518.518,0,0,1,3.4.518V3.374a.518.518,0,0,1-.518.518H.518A.518.518,0,0,1,0,3.374V.518A.518.518,0,0,1,.518,0ZM2.363,1.035H1.035V2.857H2.363Z" transform="matrix(1, -0.003, 0.003, 1, 225.015, 241.525)" fill="#b4daef"/>
                <path id="Rectángulo_383349" data-name="Rectángulo 383349" d="M.518,0H3.956a.518.518,0,0,1,.518.518V3.374a.518.518,0,0,1-.518.518H.518A.518.518,0,0,1,0,3.374V.518A.518.518,0,0,1,.518,0ZM3.438,1.035h-2.4V2.857h2.4Z" transform="matrix(1, -0.003, 0.003, 1, 229.558, 241.512)" fill="#b4daef"/>
                <path id="Rectángulo_383350" data-name="Rectángulo 383350" d="M.518,0H14.271a.518.518,0,0,1,.518.518V3.374a.518.518,0,0,1-.518.518H.518A.518.518,0,0,1,0,3.374V.518A.518.518,0,0,1,.518,0ZM13.753,1.035H1.035V2.857H13.753Z" transform="translate(268.582 241.393) rotate(-0.174)" fill="#b4daef"/>
                <path id="Rectángulo_383351" data-name="Rectángulo 383351" d="M.518,0H19.926a.518.518,0,0,1,.518.518V3.374a.518.518,0,0,1-.518.518H.518A.518.518,0,0,1,0,3.374V.518A.518.518,0,0,1,.518,0Zm18.89,1.035H1.035V2.857H19.408Z" transform="translate(246.961 241.458) rotate(-0.175)" fill="#b4daef"/>
                <path id="Rectángulo_383352" data-name="Rectángulo 383352" d="M.518,0h8.6a.518.518,0,0,1,.518.518V3.374a.518.518,0,0,1-.518.518H.518A.518.518,0,0,1,0,3.374V.518A.518.518,0,0,1,.518,0ZM8.6,1.035H1.035V2.857H8.6Z" transform="translate(235.48 241.493) rotate(-0.175)" fill="#b4daef"/>
                <path id="Rectángulo_383353" data-name="Rectángulo 383353" d="M.518,0H2.881A.518.518,0,0,1,3.4.518V3.374a.518.518,0,0,1-.518.518H.518A.518.518,0,0,1,0,3.374V.518A.518.518,0,0,1,.518,0ZM2.363,1.035H1.035V2.857H2.363Z" transform="matrix(1, -0.003, 0.003, 1, 225.038, 248.952)" fill="#b4daef"/>
                <path id="Rectángulo_383354" data-name="Rectángulo 383354" d="M.518,0H14.271a.518.518,0,0,1,.518.518V3.374a.518.518,0,0,1-.518.518H.518A.518.518,0,0,1,0,3.374V.518A.518.518,0,0,1,.518,0ZM13.753,1.035H1.035V2.857H13.753Z" transform="matrix(1, -0.003, 0.003, 1, 229.581, 248.938)" fill="#b4daef"/>
                <path id="Rectángulo_383355" data-name="Rectángulo 383355" d="M.518,0H12.046a.518.518,0,0,1,.518.518V3.374a.518.518,0,0,1-.518.518H.518A.518.518,0,0,1,0,3.374V.518A.518.518,0,0,1,.518,0ZM11.529,1.035H1.035V2.857H11.529Z" transform="translate(272.979 248.806) rotate(-0.174)" fill="#b4daef"/>
                <path id="Rectángulo_383356" data-name="Rectángulo 383356" d="M.518,0H8.086A.518.518,0,0,1,8.6.518V3.374a.518.518,0,0,1-.518.518H.518A.518.518,0,0,1,0,3.374V.518A.518.518,0,0,1,.518,0ZM7.569,1.035H1.035V2.857H7.569Z" transform="matrix(1, -0.003, 0.003, 1, 253.882, 248.864)" fill="#b4daef"/>
                <path id="Rectángulo_383357" data-name="Rectángulo 383357" d="M.518,0H8.086A.518.518,0,0,1,8.6.518V3.374a.518.518,0,0,1-.518.518H.518A.518.518,0,0,1,0,3.374V.518A.518.518,0,0,1,.518,0ZM7.569,1.035H1.035V2.857H7.569Z" transform="matrix(1, -0.003, 0.003, 1, 263.415, 248.835)" fill="#b4daef"/>
                <path id="Rectángulo_383358" data-name="Rectángulo 383358" d="M.518,0H4.567a.518.518,0,0,1,.518.518V3.374a.518.518,0,0,1-.518.518H.518A.518.518,0,0,1,0,3.374V.518A.518.518,0,0,1,.518,0ZM4.049,1.035H1.035V2.857H4.049Z" transform="matrix(1, -0.003, 0.003, 1, 246.767, 248.886)" fill="#b4daef"/>
                <path id="Rectángulo_383359" data-name="Rectángulo 383359" d="M.518,0h15.12a.518.518,0,0,1,.518.518V3.374a.518.518,0,0,1-.518.518H.518A.518.518,0,0,1,0,3.374V.518A.518.518,0,0,1,.518,0Zm14.6,1.035H1.035V2.857H15.12Z" transform="translate(356.976 248.55) rotate(-0.175)" fill="#b4daef"/>
                <path id="Rectángulo_383360" data-name="Rectángulo 383360" d="M.518,0H2.881A.518.518,0,0,1,3.4.518V3.374a.518.518,0,0,1-.518.518H.518A.518.518,0,0,1,0,3.374V.518A.518.518,0,0,1,.518,0ZM2.363,1.035H1.035V2.857H2.363Z" transform="matrix(1, -0.003, 0.003, 1, 225.06, 256.306)" fill="#b4daef"/>
                <path id="Rectángulo_383361" data-name="Rectángulo 383361" d="M.518,0H14.271a.518.518,0,0,1,.518.518V3.374a.518.518,0,0,1-.518.518H.518A.518.518,0,0,1,0,3.374V.518A.518.518,0,0,1,.518,0ZM13.753,1.035H1.035V2.857H13.753Z" transform="matrix(1, -0.003, 0.003, 1, 229.603, 256.292)" fill="#b4daef"/>
                <path id="Rectángulo_383362" data-name="Rectángulo 383362" d="M.518,0H32.459a.518.518,0,0,1,.518.518V3.374a.518.518,0,0,1-.518.518H.518A.518.518,0,0,1,0,3.374V.518A.518.518,0,0,1,.518,0ZM31.942,1.035H1.035V2.857H31.942Z" transform="translate(258.246 256.204) rotate(-0.175)" fill="#b4daef"/>
                <path id="Rectángulo_383363" data-name="Rectángulo 383363" d="M.518,0h8.6a.518.518,0,0,1,.518.518V3.374a.518.518,0,0,1-.518.518H.518A.518.518,0,0,1,0,3.374V.518A.518.518,0,0,1,.518,0ZM8.6,1.035H1.035V2.857H8.6Z" transform="matrix(1, -0.003, 0.003, 1, 246.789, 256.239)" fill="#b4daef"/>
                <path id="Rectángulo_383364" data-name="Rectángulo 383364" d="M.518,0H2.881A.518.518,0,0,1,3.4.518V3.374a.518.518,0,0,1-.518.518H.518A.518.518,0,0,1,0,3.374V.518A.518.518,0,0,1,.518,0ZM2.363,1.035H1.035V2.857H2.363Z" transform="matrix(1, -0.003, 0.003, 1, 237.954, 271.289)" fill="#b4daef"/>
                <path id="Rectángulo_383365" data-name="Rectángulo 383365" d="M.518,0H14.271a.518.518,0,0,1,.518.518V3.374a.518.518,0,0,1-.518.518H.518A.518.518,0,0,1,0,3.374V.518A.518.518,0,0,1,.518,0ZM13.753,1.035H1.035V2.857H13.753Z" transform="translate(242.497 271.276) rotate(-0.174)" fill="#b4daef"/>
                <path id="Rectángulo_383366" data-name="Rectángulo 383366" d="M.518,0H7.394a.518.518,0,0,1,.518.518V3.374a.518.518,0,0,1-.518.518H.518A.518.518,0,0,1,0,3.374V.518A.518.518,0,0,1,.518,0ZM6.877,1.035H1.035V2.857H6.877Z" transform="translate(287.536 271.138) rotate(-0.174)" fill="#b4daef"/>
                <path id="Rectángulo_383367" data-name="Rectángulo 383367" d="M.518,0H14.271a.518.518,0,0,1,.518.518V3.374a.518.518,0,0,1-.518.518H.518A.518.518,0,0,1,0,3.374V.518A.518.518,0,0,1,.518,0ZM13.753,1.035H1.035V2.857H13.753Z" transform="matrix(1, -0.003, 0.003, 1, 271.14, 271.188)" fill="#b4daef"/>
                <path id="Rectángulo_383368" data-name="Rectángulo 383368" d="M.518,0h8.6a.518.518,0,0,1,.518.518V3.374a.518.518,0,0,1-.518.518H.518A.518.518,0,0,1,0,3.374V.518A.518.518,0,0,1,.518,0ZM8.6,1.035H1.035V2.857H8.6Z" transform="matrix(1, -0.003, 0.003, 1, 259.682, 271.223)" fill="#b4daef"/>
                <path id="Rectángulo_383369" data-name="Rectángulo 383369" d="M.518,0H20.651a.518.518,0,0,1,.518.518V3.374a.518.518,0,0,1-.518.518H.518A.518.518,0,0,1,0,3.374V.518A.518.518,0,0,1,.518,0ZM20.134,1.035H1.035V2.857h19.1Z" transform="matrix(1, -0.003, 0.003, 1, 326.676, 271.019)" fill="#b4daef"/>
                <path id="Rectángulo_383370" data-name="Rectángulo 383370" d="M.518,0H16.75a.518.518,0,0,1,.518.518V3.374a.518.518,0,0,1-.518.518H.518A.518.518,0,0,1,0,3.374V.518A.518.518,0,0,1,.518,0ZM16.232,1.035H1.035V2.857h15.2Z" transform="translate(307.974 271.076) rotate(-0.175)" fill="#b4daef"/>
                <path id="Rectángulo_383371" data-name="Rectángulo 383371" d="M.518,0H9.428a.518.518,0,0,1,.518.518V3.374a.518.518,0,0,1-.518.518H.518A.518.518,0,0,1,0,3.374V.518A.518.518,0,0,1,.518,0ZM8.911,1.035H1.035V2.857H8.911Z" transform="translate(296.319 271.112) rotate(-0.175)" fill="#b4daef"/>
                <path id="Rectángulo_383372" data-name="Rectángulo 383372" d="M.518,0H2.881A.518.518,0,0,1,3.4.518V3.374a.518.518,0,0,1-.518.518H.518A.518.518,0,0,1,0,3.374V.518A.518.518,0,0,1,.518,0ZM2.363,1.035H1.035V2.857H2.363Z" transform="matrix(1, -0.003, 0.003, 1, 234.372, 226.383)" fill="#b4daef"/>
                <path id="Rectángulo_383373" data-name="Rectángulo 383373" d="M.518,0h10.22a.518.518,0,0,1,.518.518V3.374a.518.518,0,0,1-.518.518H.518A.518.518,0,0,1,0,3.374V.518A.518.518,0,0,1,.518,0Zm9.7,1.035H1.035V2.857H10.22Z" transform="translate(238.915 226.37) rotate(-0.175)" fill="#b4daef"/>
                <path id="Rectángulo_383374" data-name="Rectángulo 383374" d="M.518,0H14.271a.518.518,0,0,1,.518.518V3.374a.518.518,0,0,1-.518.518H.518A.518.518,0,0,1,0,3.374V.518A.518.518,0,0,1,.518,0ZM13.753,1.035H1.035V2.857H13.753Z" transform="matrix(1, -0.003, 0.003, 1, 262.466, 226.298)" fill="#b4daef"/>
                <path id="Rectángulo_383375" data-name="Rectángulo 383375" d="M.518,0h9.4a.518.518,0,0,1,.518.518V3.374a.518.518,0,0,1-.518.518H.518A.518.518,0,0,1,0,3.374V.518A.518.518,0,0,1,.518,0ZM9.4,1.035H1.035V2.857H9.4Z" transform="translate(251.157 226.333) rotate(-0.174)" fill="#b4daef"/>
                <path id="Rectángulo_383376" data-name="Rectángulo 383376" d="M.518,0H2.881A.518.518,0,0,1,3.4.518V3.374a.518.518,0,0,1-.518.518H.518A.518.518,0,0,1,0,3.374V.518A.518.518,0,0,1,.518,0ZM2.363,1.035H1.035V2.857H2.363Z" transform="matrix(1, -0.003, 0.003, 1, 225.145, 284.311)" fill="#b4daef"/>
                <path id="Rectángulo_383377" data-name="Rectángulo 383377" d="M.518,0H7.394a.518.518,0,0,1,.518.518V3.374a.518.518,0,0,1-.518.518H.518A.518.518,0,0,1,0,3.374V.518A.518.518,0,0,1,.518,0ZM6.877,1.035H1.035V2.857H6.877Z" transform="translate(229.688 284.297) rotate(-0.174)" fill="#b4daef"/>
                <path id="Rectángulo_383378" data-name="Rectángulo 383378" d="M.518,0H18.207a.518.518,0,0,1,.518.518V3.374a.518.518,0,0,1-.518.518H.518A.518.518,0,0,1,0,3.374V.518A.518.518,0,0,1,.518,0ZM17.689,1.035H1.035V2.857H17.689Z" transform="translate(265.208 284.189) rotate(-0.174)" fill="#b4daef"/>
                <path id="Rectángulo_383379" data-name="Rectángulo 383379" d="M.518,0H5.1a.518.518,0,0,1,.518.518V3.374a.518.518,0,0,1-.518.518H.518A.518.518,0,0,1,0,3.374V.518A.518.518,0,0,1,.518,0Zm4.07,1.035H1.035V2.857H4.587Z" transform="matrix(1, -0.003, 0.003, 1, 258.332, 284.21)" fill="#b4daef"/>
                <path id="Rectángulo_383380" data-name="Rectángulo 383380" d="M.518,0h16.47a.518.518,0,0,1,.518.518V3.374a.518.518,0,0,1-.518.518H.518A.518.518,0,0,1,0,3.374V.518A.518.518,0,0,1,.518,0ZM16.47,1.035H1.035V2.857H16.47Z" transform="translate(239.002 284.268) rotate(-0.175)" fill="#b4daef"/>
                <path id="Rectángulo_383381" data-name="Rectángulo 383381" d="M.518,0H18.491a.518.518,0,0,1,.518.518V3.374a.518.518,0,0,1-.518.518H.518A.518.518,0,0,1,0,3.374V.518A.518.518,0,0,1,.518,0ZM17.974,1.035H1.035V2.857H17.974Z" transform="translate(304.881 284.068) rotate(-0.175)" fill="#b4daef"/>
                <path id="Rectángulo_383382" data-name="Rectángulo 383382" d="M.518,0H7.893a.518.518,0,0,1,.518.518V3.374a.518.518,0,0,1-.518.518H.518A.518.518,0,0,1,0,3.374V.518A.518.518,0,0,1,.518,0ZM7.376,1.035H1.035V2.857H7.376Z" transform="translate(285.046 284.128) rotate(-0.176)" fill="#b4daef"/>
                <path id="Rectángulo_383383" data-name="Rectángulo 383383" d="M.518,0H7.893a.518.518,0,0,1,.518.518V3.374a.518.518,0,0,1-.518.518H.518A.518.518,0,0,1,0,3.374V.518A.518.518,0,0,1,.518,0ZM7.376,1.035H1.035V2.857H7.376Z" transform="translate(295.042 284.098) rotate(-0.176)" fill="#b4daef"/>
                <path id="Rectángulo_383384" data-name="Rectángulo 383384" d="M.518,0H2.881A.518.518,0,0,1,3.4.518V3.374a.518.518,0,0,1-.518.518H.518A.518.518,0,0,1,0,3.374V.518A.518.518,0,0,1,.518,0ZM2.363,1.035H1.035V2.857H2.363Z" transform="matrix(1, -0.003, 0.003, 1, 225.185, 297.211)" fill="#b4daef"/>
                <path id="Rectángulo_383385" data-name="Rectángulo 383385" d="M.518,0H14.271a.518.518,0,0,1,.518.518V3.374a.518.518,0,0,1-.518.518H.518A.518.518,0,0,1,0,3.374V.518A.518.518,0,0,1,.518,0ZM13.753,1.035H1.035V2.857H13.753Z" transform="translate(229.728 297.198) rotate(-0.174)" fill="#b4daef"/>
                <path id="Rectángulo_383386" data-name="Rectángulo 383386" d="M.518,0H14.271a.518.518,0,0,1,.518.518V3.374a.518.518,0,0,1-.518.518H.518A.518.518,0,0,1,0,3.374V.518A.518.518,0,0,1,.518,0ZM13.753,1.035H1.035V2.857H13.753Z" transform="matrix(1, -0.003, 0.003, 1, 274.767, 297.061)" fill="#b4daef"/>
                <path id="Rectángulo_383387" data-name="Rectángulo 383387" d="M.518,0H14.271a.518.518,0,0,1,.518.518V3.374a.518.518,0,0,1-.518.518H.518A.518.518,0,0,1,0,3.374V.518A.518.518,0,0,1,.518,0ZM13.753,1.035H1.035V2.857H13.753Z" transform="translate(258.371 297.11) rotate(-0.174)" fill="#b4daef"/>
                <path id="Rectángulo_383388" data-name="Rectángulo 383388" d="M.518,0h8.6a.518.518,0,0,1,.518.518V3.374a.518.518,0,0,1-.518.518H.518A.518.518,0,0,1,0,3.374V.518A.518.518,0,0,1,.518,0ZM8.6,1.035H1.035V2.857H8.6Z" transform="matrix(1, -0.003, 0.003, 1, 246.914, 297.145)" fill="#b4daef"/>
                <path id="Rectángulo_383389" data-name="Rectángulo 383389" d="M.518,0h8.6a.518.518,0,0,1,.518.518V3.374a.518.518,0,0,1-.518.518H.518A.518.518,0,0,1,0,3.374V.518A.518.518,0,0,1,.518,0ZM8.6,1.035H1.035V2.857H8.6Z" transform="matrix(1, -0.003, 0.003, 1, 363.645, 296.79)" fill="#b4daef"/>
                <path id="Rectángulo_383390" data-name="Rectángulo 383390" d="M.518,0h22.8a.518.518,0,0,1,.518.518V3.374a.518.518,0,0,1-.518.518H.518A.518.518,0,0,1,0,3.374V.518A.518.518,0,0,1,.518,0ZM22.8,1.035H1.035V2.857H22.8Z" transform="translate(337.827 296.868) rotate(-0.175)" fill="#b4daef"/>
                <path id="Rectángulo_383391" data-name="Rectángulo 383391" d="M.518,0h22.8a.518.518,0,0,1,.518.518V3.374a.518.518,0,0,1-.518.518H.518A.518.518,0,0,1,0,3.374V.518A.518.518,0,0,1,.518,0ZM22.8,1.035H1.035V2.857H22.8Z" transform="translate(310.64 296.951) rotate(-0.175)" fill="#b4daef"/>
                <path id="Rectángulo_383392" data-name="Rectángulo 383392" d="M.518,0H14.773a.518.518,0,0,1,.518.518V3.374a.518.518,0,0,1-.518.518H.518A.518.518,0,0,1,0,3.374V.518A.518.518,0,0,1,.518,0ZM14.255,1.035H1.035V2.857h13.22Z" transform="translate(291.642 297.009) rotate(-0.175)" fill="#b4daef"/>
                <path id="Rectángulo_383393" data-name="Rectángulo 383393" d="M.518,0H2.881A.518.518,0,0,1,3.4.518V3.374a.518.518,0,0,1-.518.518H.518A.518.518,0,0,1,0,3.374V.518A.518.518,0,0,1,.518,0ZM2.363,1.035H1.035V2.857H2.363Z" transform="matrix(1, -0.003, 0.003, 1, 225.166, 290.926)" fill="#b4daef"/>
                <path id="Rectángulo_383394" data-name="Rectángulo 383394" d="M.518,0h10.22a.518.518,0,0,1,.518.518V3.374a.518.518,0,0,1-.518.518H.518A.518.518,0,0,1,0,3.374V.518A.518.518,0,0,1,.518,0Zm9.7,1.035H1.035V2.857H10.22Z" transform="translate(229.709 290.912) rotate(-0.174)" fill="#b4daef"/>
                <path id="Rectángulo_383395" data-name="Rectángulo 383395" d="M.518,0H14.271a.518.518,0,0,1,.518.518V3.374a.518.518,0,0,1-.518.518H.518A.518.518,0,0,1,0,3.374V.518A.518.518,0,0,1,.518,0ZM13.753,1.035H1.035V2.857H13.753Z" transform="matrix(1, -0.003, 0.003, 1, 253.26, 290.841)" fill="#b4daef"/>
                <path id="Rectángulo_383396" data-name="Rectángulo 383396" d="M.518,0h9.4a.518.518,0,0,1,.518.518V3.374a.518.518,0,0,1-.518.518H.518A.518.518,0,0,1,0,3.374V.518A.518.518,0,0,1,.518,0ZM9.4,1.035H1.035V2.857H9.4Z" transform="matrix(1, -0.003, 0.003, 1, 241.951, 290.875)" fill="#b4daef"/>
                <path id="Rectángulo_383397" data-name="Rectángulo 383397" d="M.518,0H2.881A.518.518,0,0,1,3.4.518V3.374a.518.518,0,0,1-.518.518H.518A.518.518,0,0,1,0,3.374V.518A.518.518,0,0,1,.518,0ZM2.363,1.035H1.035V2.857H2.363Z" transform="matrix(1, -0.003, 0.003, 1, 225.081, 263.05)" fill="#b4daef"/>
                <path id="Rectángulo_383398" data-name="Rectángulo 383398" d="M.518,0H14.271a.518.518,0,0,1,.518.518V3.374a.518.518,0,0,1-.518.518H.518A.518.518,0,0,1,0,3.374V.518A.518.518,0,0,1,.518,0ZM13.753,1.035H1.035V2.857H13.753Z" transform="translate(229.624 263.037) rotate(-0.174)" fill="#b4daef"/>
                <path id="Rectángulo_383399" data-name="Rectángulo 383399" d="M.518,0H14.271a.518.518,0,0,1,.518.518V3.374a.518.518,0,0,1-.518.518H.518A.518.518,0,0,1,0,3.374V.518A.518.518,0,0,1,.518,0ZM13.753,1.035H1.035V2.857H13.753Z" transform="matrix(1, -0.003, 0.003, 1, 258.267, 262.949)" fill="#b4daef"/>
                <path id="Rectángulo_383400" data-name="Rectángulo 383400" d="M.518,0h8.6a.518.518,0,0,1,.518.518V3.374a.518.518,0,0,1-.518.518H.518A.518.518,0,0,1,0,3.374V.518A.518.518,0,0,1,.518,0ZM8.6,1.035H1.035V2.857H8.6Z" transform="matrix(1, -0.003, 0.003, 1, 246.81, 262.984)" fill="#b4daef"/>
                <rect id="Rectángulo_384060" data-name="Rectángulo 384060" width="155" height="37" rx="18.5" transform="translate(49 233.848)" fill="#273a89"/>
                <rect id="Rectángulo_384061" data-name="Rectángulo 384061" width="72" height="37" rx="18.5" transform="translate(33 94.848)" fill="#273a89"/>
              </g>
            </g>
          </g>
        </g>
      </g>
      <g id="Grupo_1074938" data-name="Grupo 1074938" transform="translate(390 4129.703)">
        <g id="Grupo_1074937" data-name="Grupo 1074937" clip-path="url(#clip-path-3)">
          <g id="Grupo_1074936" data-name="Grupo 1074936" transform="translate(0)">
            <g id="Grupo_1074935" data-name="Grupo 1074935" clip-path="url(#clip-path-3)">
              <path id="Trazado_829113" data-name="Trazado 829113" d="M87.722,106.083c.22.058.438.113.659.161,6.233,1.4,12.213-2.133,17.747-6.162a179.63,179.63,0,0,0,14.16-11.794c9.17-8.311,17.349-16.666,17.693-17.017a10.8,10.8,0,1,0-15.439-15.095c-.1.1-6.743,6.884-14.457,14.011-8.418,7.775-13.378,11.59-16.073,13.429-2.092-2.156-5.762-6.553-11.375-15.281-5.221-8.116-9.3-15.606-9.34-15.682a10.8,10.8,0,1,0-18.973,10.31c.208.38,5.145,9.445,11.366,18.921a136.644,136.644,0,0,0,10.36,14.065c5,5.786,9.25,8.942,13.671,10.135" transform="translate(-42.73 16.769)" fill="#314fa5"/>
              <path id="Trazado_829114" data-name="Trazado 829114" d="M119.561,53.718a18.151,18.151,0,0,1-17.9,11.432c-.651-.031-.655-1.049,0-1.018A17.126,17.126,0,0,0,118.58,53.448c.24-.6,1.225-.339.981.27" transform="translate(-89.321 18.944)" fill="#1c2b74"/>
              <path id="Trazado_829115" data-name="Trazado 829115" d="M105.98,58.09s3.772,8.768,9.509,9.643c7.714,1.176,12.263-5.843,12.263-5.843,2.5-4.223,2.629-6.492,2.8-10.893s-7.182-7.648-7.182-7.648-8.3-15.5-11.171-16.271S115.452,41.7,115.452,41.7a2.825,2.825,0,0,0-2.7-.094c-2.164.956-6.878,5.127-8.657,8.209-1.593,2.758,1.887,8.277,1.887,8.277" transform="translate(-103.675 9.649)" fill="#eaad8f"/>
              <path id="Trazado_829116" data-name="Trazado 829116" d="M116.535,48.869c-3.4-.729-7.789-1.328-10.436-3.808-1-.936-1.91-2.561-1.035-3.867.768-1.148,2.423-1.3,3.651-1.562.635-.137.879.843.243.98-1.026.221-3,.345-3.237,1.662-.178,1,1.011,2.081,1.749,2.587a10.764,10.764,0,0,0,2.042,1.042,43.406,43.406,0,0,0,7.31,2c.635.136.347,1.1-.286.969" transform="translate(-91.703 14.132)" fill="#c6695d"/>
              <path id="Trazado_829117" data-name="Trazado 829117" d="M124.788,43.1a27.28,27.28,0,0,1-11.082,8.564c-.593.25-1.092-.63-.494-.881a26.342,26.342,0,0,0,10.711-8.205c.393-.509,1.262.008.864.522" transform="translate(-110.584 15.112)" fill="#c6695d"/>
              <path id="Trazado_829118" data-name="Trazado 829118" d="M112.348,46.99a11.63,11.63,0,0,1,4.344,10.468c-.062.642-1.073.621-1.009-.027a10.724,10.724,0,0,0-4.059-9.737c-.5-.412.227-1.111.724-.7" transform="translate(-100.429 16.718)" fill="#c6695d"/>
              <path id="Trazado_829119" data-name="Trazado 829119" d="M118.976,45.944a21.144,21.144,0,0,0-4.613-6.486c-.5-.421.233-1.121.724-.7a21.856,21.856,0,0,1,4.769,6.7c.3.574-.577,1.069-.88.494" transform="translate(-107.315 13.778)" fill="#c6695d"/>
              <path id="Trazado_829120" data-name="Trazado 829120" d="M121.27,48.427a26.225,26.225,0,0,0-4.663-6.7c-.446-.473.277-1.178.724-.7a27.129,27.129,0,0,1,4.819,6.91c.278.585-.6,1.081-.88.494" transform="translate(-112.678 14.577)" fill="#c6695d"/>
              <path id="Trazado_829121" data-name="Trazado 829121" d="M124.2,49l.134.208-.882.494a13.874,13.874,0,0,0-3.739-5.268c-.491-.429.237-1.129.723-.7a14.454,14.454,0,0,1,3.9,5.477.506.506,0,0,1-.882.494c-.043-.069-.088-.138-.133-.208-.354-.547.529-1.037.88-.494" transform="translate(-119.054 15.551)" fill="#c6695d"/>
              <path id="Trazado_829122" data-name="Trazado 829122" d="M113.809,38.055a12.123,12.123,0,0,1,1.807,3.732.506.506,0,0,1-.981.243,11.289,11.289,0,0,0-1.707-3.481c-.372-.535.513-1.023.881-.494" transform="translate(-101.187 13.493)" fill="#c6695d"/>
              <path id="Trazado_829123" data-name="Trazado 829123" d="M86.646,74.216A11.02,11.02,0,0,1,88.6,81.731c-.052.507-.852.516-.8,0a10.373,10.373,0,0,0-1.846-7.12c-.3-.422.4-.818.693-.4" transform="translate(-37.636 26.409)" fill="#1c2b74"/>
              <path id="Trazado_829124" data-name="Trazado 829124" d="M84.746,75.578a4.379,4.379,0,0,1,3.089,2.81c.175.486-.6.692-.772.21a3.548,3.548,0,0,0-2.525-2.248.4.4,0,0,1,.208-.772" transform="translate(-34.628 26.954)" fill="#1c2b74"/>
              <path id="Trazado_829125" data-name="Trazado 829125" d="M15.811,221.717c.427,7.587,1.112,16.606,2.089,26.8.5,5.225,1.08,10.757,1.735,16.564,0,0-2.361,16.526,1.571,43.283,2.812,19.119,10.377,75.7,12.228,90.663,3.971,4.268,6.2,2.91,11.79-2.617,1-9.316,4.847-33.432,6.15-47.388,1.836-19.674,10.23-63.479,0-80.53,1.434-7.2,2.777-13.932,3.963-20.207,1.948-10.3,3.462-19.371,4.233-27.232,1.062-10.852.707-19.408-1.9-25.745l-40.393.787c-1.918-4.021-2.566,6.01-1.464,25.621" transform="translate(86.683 69.635)" fill="#eaad8f"/>
              <path id="Trazado_829126" data-name="Trazado 829126" d="M45.147,345.443s5.477,2.232,5.681,9.941,0,27.591,0,27.591H48.032l-1.517-7.011s-.963,7.621-4.818,12.49-12.172,5.071-17.651,4.26-1.42-10.955.811-16.636,6.9-19.273,6.9-19.273Z" transform="translate(87.711 123.22)" fill="#171612"/>
              <path id="Trazado_829127" data-name="Trazado 829127" d="M40.861,337.317s-.174,9.4,1.449,11.025,3.854,6.9,2.232,13.389-2.705,15.96-6.493,20.018-13.659,4.192-14.472.947,5-15.285,5.276-21.506S30.2,338.2,30.2,338.2Z" transform="translate(90.549 120.322)" fill="#eaad8f"/>
              <path id="Trazado_829128" data-name="Trazado 829128" d="M17.4,237.678c-.777-8.546-1.342-16.187-1.711-22.753l43.758-.663c-.62,6.345-1.728,13.479-3.156,21.413-4.678,1.623-27.375,2.945-38.891,2" transform="translate(86.809 76.427)" fill="#c6695d"/>
              <path id="Trazado_829129" data-name="Trazado 829129" d="M47.98,248.747a22.143,22.143,0,0,1-13.152.647.509.509,0,0,1,.27-.981,21.176,21.176,0,0,0,12.612-.647c.616-.225.882.758.27.981" transform="translate(72.45 88.367)" fill="#c6695d"/>
              <path id="Trazado_829130" data-name="Trazado 829130" d="M49.581,271.589c3.614,27.951,7.5,111.676,8.1,125.123,3.735,2.886,7.828,3.245,12.278,0,.939-3.873,6.83-28.442,9-44.593,2.361-17.573,12.066-50.627,1.836-67.675,3.711-12.384,7.273-23.36,9.5-35.784a147.871,147.871,0,0,0,2.3-26.2,210.809,210.809,0,0,0-1.77-26.684l-37.51-2.621s-2.092,13.1-3.529,29.952c-.421,4.951-.786,10.221-1.024,15.583-.506,11.32-.449,23.031.826,32.895" transform="translate(9.205 68.9)" fill="#eaad8f"/>
              <path id="Trazado_829131" data-name="Trazado 829131" d="M72.474,374.594c2.689-4.337,26.8-27.465,26.8-27.465s4.93,3.864,4.691,8.119c-.228,4.051-.057,25.373-.117,27.62h-2.925l-1.65-9.728S92.608,383.8,87.6,387.456s-21.915,3-25.973,2.454,8.154-10.977,10.843-15.316" transform="translate(-18.942 123.822)" fill="#171612"/>
              <path id="Trazado_829132" data-name="Trazado 829132" d="M92.333,338.965,91.948,349.4a12.114,12.114,0,0,1,0,7.709c-1.355,4.6-6.476,11.9-11.362,17.313-4.218,4.671-13.255,9.331-15.96,8.114s5.141-10.55,7.44-15.419a83.568,83.568,0,0,0,4.979-13.705c1.262-4.647,1.437-15.572,1.437-15.572Z" transform="translate(-11.928 120.509)" fill="#eaad8f"/>
              <path id="Trazado_829133" data-name="Trazado 829133" d="M90.658,236.813a149.085,149.085,0,0,0,1.62-22.055l-42.809.647c-.414,4.857-.772,10.022-1.011,15.278,0,0,14.389,3.731,42.2,6.13" transform="translate(9.515 76.605)" fill="#c6695d"/>
              <path id="Trazado_829134" data-name="Trazado 829134" d="M82.908,253.685a12.691,12.691,0,0,1-12.076-.71c-.555-.343-.045-1.225.514-.879a11.642,11.642,0,0,0,11.049.71c.59-.271,1.108.605.513.879" transform="translate(-11.408 89.895)" fill="#c6695d"/>
              <path id="Trazado_829135" data-name="Trazado 829135" d="M65.283,62.144c-16.033,4.389-33.31,3.61-51.268,0,1.488-11.57,2.342-26.363,1.381-32.4C12.145,9.3,30.392-3.993,52.35,1.084S70.617,36.44,68,47.064c-.529,2.142-1.655,8.558-2.712,15.08" transform="translate(78.526 0)" fill="#e59f3f"/>
              <path id="Trazado_829136" data-name="Trazado 829136" d="M100.771,76.478c-.262,1.64-2.477,4.938-5.024,9.433-.351.62-.718,1.264-1.091,1.925-.17.294-.339.593-.511.9C87.47,100.5,77.779,117.8,74.078,130.576a38.471,38.471,0,0,0-1.423,7c-1.427,15.616,6.613,30.347,6.613,30.347-40.26,24.906-73.2,23.217-73.2,23.217s.559-13.324,8.874-39.158c1.487-4.617,3.1-10.39,4.341-16.054v0c.095-.437.19-.871.278-1.305.417-1.986.78-3.949,1.07-5.827a42.851,42.851,0,0,0,.6-10.809,20.541,20.541,0,0,0-.417-2.321c-.079-.332-.159-.661-.251-.993a99.6,99.6,0,0,0-3.877-10.234c-.156-.389-.308-.783-.457-1.172-.393-1.027-.76-2.054-1.079-3.088-.1-.33-.2-.651-.281-.98a22.467,22.467,0,0,1-.848-5.006,15.191,15.191,0,0,1,.02-1.8c.02-.328.054-.654.095-.966a16.044,16.044,0,0,1,2.054-5.9c.052-.088.1-.172.153-.258.125-.213.254-.423.389-.63.077-.126.159-.248.24-.366,1.983-2.943,4.458-5.126,5.807-6.915,1.136-1.509,1.179-3.782,1.02-6.379a49.579,49.579,0,0,1-.227-8.053c.034-.349.08-.695.138-1.041.068-.417.152-.83.26-1.24A8.965,8.965,0,0,1,25.581,57.2a5.854,5.854,0,0,1,.752-.787c2.122-1.841,5.217-1.857,8.844-2.088a16.792,16.792,0,0,0,3.531-.667c.416-.118.83-.251,1.24-.393A41.693,41.693,0,0,0,47.407,49.7l24.875-2.9s.993,2.637,6.132,5.888c.285.183.582.366.894.549A51.467,51.467,0,0,0,88.3,57.325c1.034.365,1.99.749,2.872,1.145q.584.265,1.122.532c4.213,2.106,6.538,4.563,7.744,7.135a10.516,10.516,0,0,1,.427,1.034A12.08,12.08,0,0,1,101,69.238c.061.346.1.689.136,1.035a24.948,24.948,0,0,1-.366,6.206" transform="translate(58.101 16.696)" fill="#fff"/>
              <path id="Trazado_829137" data-name="Trazado 829137" d="M73.642,73.241c-.647,4.464-4.369,7.517-8.535,8.667a19.792,19.792,0,0,1-10.453-.353c.052-.087.1-.172.153-.256.125-.214.254-.425.389-.631a19.117,19.117,0,0,0,8.7.484c4.43-.914,8.528-4.036,8.82-8.836.288-4.7-2.892-9.06-6.732-11.44a22.81,22.81,0,0,0-3.952-1.922c.034-.349.08-.695.138-1.041a21.5,21.5,0,0,1,5.986,3.237c3.552,2.8,6.155,7.471,5.481,12.091" transform="translate(19.64 20.658)" fill="#dbccc1"/>
              <path id="Trazado_829138" data-name="Trazado 829138" d="M90.848,62.1q-3.036-.138-6.083.02c-9.278.5-17.721,3.8-25.453,8.843-7.752,5.054-14.53,11.4-21.73,17.176-6.372,5.108-13.5,10.642-21.808,11.893a19.313,19.313,0,0,1-8.7-.67q-.234-.586-.459-1.174c5.3,1.889,11.837.735,16.88-1.731,8.044-3.936,14.844-10.213,21.653-15.914,6.42-5.379,13.019-10.7,20.565-14.433A50.643,50.643,0,0,1,90.15,61.055l.271.011a10.377,10.377,0,0,1,.427,1.034" transform="translate(67.719 21.766)" fill="#dbccc1"/>
              <path id="Trazado_829139" data-name="Trazado 829139" d="M69.958,103.869A74.774,74.774,0,0,1,49.94,118.8c.095-.437.19-.871.277-1.305a78.638,78.638,0,0,0,8.372-5.207,78.341,78.341,0,0,0,7.119-5.724c2.027-1.837,5.307-4.221,5.572-7.119.57-6.28-13.155-2.864-16.354-2q-1.75.472-3.451,1.088c-.077-.332-.159-.662-.251-.993q1.561-.556,3.156-1a47.138,47.138,0,0,1,7.474-1.437,21.023,21.023,0,0,1,7.091-.014A4.1,4.1,0,0,1,72.3,98.453c.294,2.115-.966,3.952-2.339,5.416" transform="translate(27.442 33.813)" fill="#dbccc1"/>
              <path id="Trazado_829140" data-name="Trazado 829140" d="M60.333,109.33c-4.146-2.02-8.627-.024-12.114,2.441a46.125,46.125,0,0,0-9.844,9.517,48.3,48.3,0,0,0-9.833,24.871c-.061.651.956.647,1.018,0a47.214,47.214,0,0,1,8.676-22.995,46.191,46.191,0,0,1,8.515-9.011c3.492-2.814,8.485-6.18,13.07-3.945.586.286,1.1-.592.513-.878" transform="translate(68.226 38.702)" fill="#dbccc1"/>
              <path id="Trazado_829141" data-name="Trazado 829141" d="M19.016,139.776c1.916-6.472,4.219-12.973,8.279-18.444a29.1,29.1,0,0,1,7.128-6.907,29.323,29.323,0,0,1,8.9-3.682c5.052-1.355,11.228-3.2,12.875-8.865.894-3.08.157-6.3.26-9.444a14.194,14.194,0,0,1,2.894-8.262,9.167,9.167,0,0,1,8.128-3.72,7.737,7.737,0,0,1,6.835,5.189.509.509,0,0,0,.981-.271c-1.349-4.5-6.433-6.731-10.848-5.751-5.33,1.182-8.475,6.76-8.947,11.848-.358,3.88,1.039,8.155-.95,11.761-1.719,3.119-5.234,4.71-8.486,5.7-3.409,1.038-6.914,1.7-10.091,3.388a27.454,27.454,0,0,0-7.428,5.891c-5.412,5.986-8.258,13.681-10.514,21.3a.509.509,0,0,0,.981.27" transform="translate(67.777 28.319)" fill="#dbccc1"/>
              <path id="Trazado_829142" data-name="Trazado 829142" d="M7.3,75.613a8.671,8.671,0,0,0,5.257,6.363c-.17.294-.339.593-.511.894a9.685,9.685,0,0,1-5.888-8.151C5.55,67.4,12.282,62.312,18.9,63.377c.061.346.1.688.136,1.034C12.576,63.126,6.018,68.58,7.3,75.613" transform="translate(140.204 22.556)" fill="#dbccc1"/>
              <path id="Trazado_829143" data-name="Trazado 829143" d="M28.513,57.454a40.75,40.75,0,0,1-7.857,3.559c-2.723.882-7.467,2.051-7.962-2.111a13.283,13.283,0,0,1,1.939-7.756q.427.275.9.549a16.475,16.475,0,0,0-.79,1.749c-.644,1.685-1.757,4.662-.75,6.372,1.108,1.884,3.959.946,5.583.465a35.821,35.821,0,0,0,5.4-2.095q1.235-.6,2.423-1.264c.389.176.762.351,1.122.532" transform="translate(121.882 18.244)" fill="#dbccc1"/>
              <path id="Trazado_829144" data-name="Trazado 829144" d="M65.585,51.568c-1.346,3.115-2.943,5.969-6.4,6.861-3.112.8-5.793-.649-7.967-2.926a6.021,6.021,0,0,1,.753-.786c2.509,2.674,5.626,4.176,8.915,1.783a11.258,11.258,0,0,0,3.461-4.538q.625-.179,1.24-.393" transform="translate(32.467 18.394)" fill="#dbccc1"/>
              <path id="Trazado_829145" data-name="Trazado 829145" d="M29.134,58.544a4.247,4.247,0,0,0,2.054,4.841c2.374,1.419,5.614,1.076,8.243.894A51.738,51.738,0,0,0,57.507,59.6c.592-.273.077-1.145-.51-.874a50.8,50.8,0,0,1-14.02,4.166,45.241,45.241,0,0,1-7.192.49c-2.515-.045-6.727-1.122-5.674-4.569.19-.624-.787-.891-.977-.269" transform="translate(70.472 20.756)" fill="#dbccc1"/>
              <path id="Trazado_829146" data-name="Trazado 829146" d="M38.629,79.9a178.9,178.9,0,0,0-23.166,60.761c-.117.638.859.91.977.27A178.079,178.079,0,0,1,39.5,80.414a.507.507,0,0,0-.875-.511" transform="translate(106.99 28.415)" fill="#dbccc1"/>
              <path id="Trazado_829147" data-name="Trazado 829147" d="M52.457,22s-2.623-.081-3.515,3.172.119,8.979,3.552,8.7S52.457,22,52.457,22" transform="translate(47.544 7.847)" fill="#c6695d"/>
              <path id="Trazado_829148" data-name="Trazado 829148" d="M56.537,32.965a4.6,4.6,0,1,0-4.917,4.263,4.6,4.6,0,0,0,4.917-4.263M55.2,32.87a3.255,3.255,0,1,1-3.016-3.479A3.259,3.259,0,0,1,55.2,32.87" transform="translate(46.751 10.001)" fill="#fff"/>
              <line id="Línea_386" data-name="Línea 386" y2="0.003" transform="translate(106.122 56.658)" fill="#eaad8f"/>
              <path id="Trazado_829149" data-name="Trazado 829149" d="M54.543,57.017s-5.534,8-15.4,8.261c-12.53.33-13.313-5.146-13.313-5.146a23.463,23.463,0,0,0,1.579-4.99c.134-.666.248-1.354.342-2.069a56.944,56.944,0,0,0,.41-6.591c.009-.583.014-1.191.012-1.817v-.075c8.771-1.02,16.2-3.986,21.715-9.722l1.37-.613.924-.415.1.516-.349,1.567c-1.663,7.364-.707,13.738,2.606,21.094" transform="translate(77.945 12.071)" fill="#eaad8f"/>
              <path id="Trazado_829150" data-name="Trazado 829150" d="M49.643,38.922C47.362,42.785,42.334,49.5,34.186,51.26a56.638,56.638,0,0,0,.41-6.59q.014-.877.012-1.818c.166.039.338.075.509.106,4.613.852,9.946-.952,14.526-4.036" transform="translate(71.513 13.884)" fill="#171612"/>
              <path id="Trazado_829151" data-name="Trazado 829151" d="M63.1,33.048C62.849,37.707,58.6,43.2,52.5,43.042h-.164c-.111.262-.24.52-.373.781-.057.113-.118.228-.178.341a.193.193,0,0,1-.019.031C47.54,51.9,36.011,55.953,29.9,55.79a13.969,13.969,0,0,1-4.084-.754c-6.39-1.753-7.129-10.554-5.756-17.177a25.527,25.527,0,0,1,.723-2.716c.019-.057.038-.115.058-.172,0,0-1.665-9.458-1.954-13.56C18.337,13.46,23.3,5.679,40.7,5.032s20.98,10.327,21.89,16.1c.153.961-.343,6.613-1.339,7.474,1.6.925,1.929,2.88,1.845,4.446" transform="translate(78.85 1.785)" fill="#eaad8f"/>
              <path id="Trazado_829152" data-name="Trazado 829152" d="M46.78,26.055c.132,1.3.786,2.3,1.461,2.233s1.118-1.179.986-2.48-.786-2.3-1.461-2.233-1.118,1.179-.986,2.48" transform="translate(54.85 8.408)" fill="#171612"/>
              <path id="Trazado_829153" data-name="Trazado 829153" d="M51.3,24.818a.343.343,0,0,0,.168-.133.348.348,0,0,0-.1-.48c-.134-.088-3.3-2.134-6.025-.132a.346.346,0,0,0,.411.558c2.338-1.719,5.2.133,5.231.152a.343.343,0,0,0,.312.035" transform="translate(54.692 8.275)" fill="#171612"/>
              <path id="Trazado_829154" data-name="Trazado 829154" d="M38.406,25.353c.132,1.3.786,2.3,1.461,2.233s1.118-1.179.986-2.48-.786-2.3-1.461-2.233-1.118,1.179-.986,2.48" transform="translate(74.585 8.158)" fill="#171612"/>
              <path id="Trazado_829155" data-name="Trazado 829155" d="M42.371,24.546a.343.343,0,0,0,.183-.111.346.346,0,0,0-.038-.488c-.121-.1-3-2.534-5.957-.891a.346.346,0,1,0,.336.605c2.537-1.411,5.145.79,5.17.811a.343.343,0,0,0,.305.075" transform="translate(75.541 8.021)" fill="#171612"/>
              <path id="Trazado_829156" data-name="Trazado 829156" d="M44.649,35.547a4.746,4.746,0,0,0,.619-.041,5.994,5.994,0,0,0,3.6-2.372.656.656,0,0,0-1.073-.756,4.721,4.721,0,0,1-2.7,1.826,2.316,2.316,0,0,1-2.258-.753.661.661,0,0,0-.909-.172.652.652,0,0,0-.183.9,3.48,3.48,0,0,0,2.9,1.368" transform="translate(62.053 11.451)" fill="#c6695d"/>
              <path id="Trazado_829157" data-name="Trazado 829157" d="M22.161,32.358a.631.631,0,0,0,.543-.475c1.075-4.339,6.406-5.955,6.461-5.971A.63.63,0,0,0,28.81,24.7c-.247.073-6.078,1.829-7.329,6.877a.629.629,0,0,0,.46.762.636.636,0,0,0,.22.015" transform="translate(108.803 8.803)" fill="#c6695d"/>
              <path id="Trazado_829158" data-name="Trazado 829158" d="M26.264,29.542a.64.64,0,0,0,.232-.072.63.63,0,0,0,.254-.853,4.32,4.32,0,0,0-3.7-2.081.63.63,0,1,0-.016,1.259,3.062,3.062,0,0,1,2.6,1.42.631.631,0,0,0,.623.327" transform="translate(110.299 9.465)" fill="#c6695d"/>
              <g id="Grupo_1074925" data-name="Grupo 1074925" transform="translate(98.912 36.929)" opacity="0.5">
                <g id="Grupo_1074924" data-name="Grupo 1074924" transform="translate(0)">
                  <g id="Grupo_1074923" data-name="Grupo 1074923" clip-path="url(#clip-path-5)">
                    <path id="Trazado_829159" data-name="Trazado 829159" d="M51.531,28.788c-.05.692-1.6,1.159-3.616,1.146a25.587,25.587,0,0,1,.723-2.715c1.723.313,2.94.937,2.892,1.568" transform="translate(-47.914 -27.22)" fill="#c6695d"/>
                  </g>
                </g>
              </g>
              <g id="Grupo_1074928" data-name="Grupo 1074928" transform="translate(113.285 38.019)" opacity="0.5">
                <g id="Grupo_1074927" data-name="Grupo 1074927" transform="translate(0)">
                  <g id="Grupo_1074926" data-name="Grupo 1074926" clip-path="url(#clip-path-6)">
                    <path id="Trazado_829160" data-name="Trazado 829160" d="M33.521,29.171c-.057.788,1.861,1.568,4.284,1.742s4.431-.324,4.488-1.112-1.861-1.57-4.284-1.743-4.431.326-4.488,1.114" transform="translate(-33.52 -28.023)" fill="#c6695d"/>
                  </g>
                </g>
              </g>
              <path id="Trazado_829161" data-name="Trazado 829161" d="M30.958,33.631H30.8c-.113.263-.24.52-.374.781-.057.113-.118.228-.176.341a.239.239,0,0,1-.019.031,5.6,5.6,0,0,1-2.3-1.057,4.444,4.444,0,0,1-1.171-1.414.631.631,0,0,1,1.115-.59,3.4,3.4,0,0,0,1.429,1.393,4.6,4.6,0,0,0,1.079.4,5.5,5.5,0,0,0,.585.115" transform="translate(100.386 11.195)" fill="#c6695d"/>
              <path id="Trazado_829162" data-name="Trazado 829162" d="M21.092,33.907a5.689,5.689,0,0,0,1.323.286c0,.023-.008.045-.009.068A3.255,3.255,0,1,0,26.4,31.326a.914.914,0,0,1,.1-1.355,4.6,4.6,0,1,1-5.428,4.194c.005-.087.016-.172.027-.258" transform="translate(108.719 10.691)" fill="#fff"/>
              <path id="Trazado_829163" data-name="Trazado 829163" d="M44.2,37.21a2.451,2.451,0,0,0,1.452-.746.413.413,0,0,0-.624-.54,1.675,1.675,0,0,1-1.837.351.413.413,0,0,0-.284.776,2.712,2.712,0,0,0,1.293.159" transform="translate(63.94 12.764)" fill="#c6695d"/>
              <path id="Trazado_829164" data-name="Trazado 829164" d="M62.213,11.445C58.693,7.4,53.68,4.035,47.435,4.066c-8.763.045-17,2.667-21.721,7.157a12.33,12.33,0,0,0-4.043,7.686c-.959,9.052,1.089,7.385,1.089,7.385a11.383,11.383,0,0,1,.335-2.126h0c.222-1.155.6-2.926,1.225-5.641,1.5-6.473,22.349-6.116,20.775-1.97a7.5,7.5,0,0,0-.077,1.336,8.981,8.981,0,0,0,.682,3.317c.164.034.323.072.472.1A18.845,18.845,0,0,1,51.3,23.3l.007.007c.172.138,3.2,2.6,2.572,5.894-.642,3.385-2.134,7.77.229,7.051S57.4,32.8,57.4,32.8l0,0a10.863,10.863,0,0,1,5.222-3.526c1.092-5.944,1.635-12.038-.407-17.823" transform="translate(74.889 1.45)" fill="#e59f3f"/>
              <path id="Trazado_829165" data-name="Trazado 829165" d="M39,12.617c-6.116-2.471-16.384,1.6-18.2,2.5a8.992,8.992,0,0,0,.682,3.318c.166.033.324.071.472.1a18.845,18.845,0,0,1,5.127,1.981l.007.007c.172.138,3.2,2.606,2.572,5.894-.64,3.385-4.822,21.4-1.46,24.427,6.821,6.139,5.908-20.8,5.908-20.8C35.417,28.6,36.093,27.126,38.4,26.5c2.61-4.693,2.017-9.337.6-13.88" transform="translate(99.112 4.221)" fill="#e59f3f"/>
              <path id="Trazado_829166" data-name="Trazado 829166" d="M17.784,13.739s3.475,5.629.777,14.315c0,0,3.051-.6,4.451,0S26.186,23.5,25,18.609,17.325,7.47,17.325,7.47s-.743,4.62.459,6.269" transform="translate(118.949 2.665)" fill="#e59f3f"/>
              <path id="Trazado_829167" data-name="Trazado 829167" d="M46.091,32.27a.53.53,0,0,1-.282-.087l-2.3-1.517a.528.528,0,0,1,.047-.91A7.606,7.606,0,0,0,47.4,24.6a.528.528,0,0,1,1.019.281A8.8,8.8,0,0,1,44.8,30.253l1.59,1.047a.529.529,0,0,1-.3.97" transform="translate(60.394 8.636)" fill="#c6695d"/>
              <path id="Trazado_829168" data-name="Trazado 829168" d="M36.012,21.255a1.284,1.284,0,0,1-1.749-1.815,3.728,3.728,0,0,1,2.2-1.4,9.312,9.312,0,0,1,8.063,1.908s-4.938-.256-7.239.654a7.151,7.151,0,0,0-1.279.657" transform="translate(76.862 6.339)" fill="#171612"/>
              <path id="Trazado_829169" data-name="Trazado 829169" d="M51.67,21.659a1.283,1.283,0,0,0,1.51-2.017,3.721,3.721,0,0,0-2.361-1.119c-4.807-.577-6.18,2.533-6.18,2.533a17.028,17.028,0,0,1,5.679.11,7.19,7.19,0,0,1,1.351.494" transform="translate(53.445 6.582)" fill="#171612"/>
              <g id="Grupo_1074931" data-name="Grupo 1074931" transform="translate(94.482 31.478)" opacity="0.6">
                <g id="Grupo_1074930" data-name="Grupo 1074930" transform="translate(0)">
                  <g id="Grupo_1074929" data-name="Grupo 1074929" clip-path="url(#clip-path-7)">
                    <path id="Trazado_829170" data-name="Trazado 829170" d="M44.8,27.6c0,2.431,2.749,4.4,6.139,4.4s6.139-1.97,6.139-4.4-2.749-4.4-6.139-4.4S44.8,25.172,44.8,27.6" transform="translate(-44.797 -23.202)" fill="#fff"/>
                  </g>
                </g>
              </g>
              <g id="Grupo_1074934" data-name="Grupo 1074934" transform="translate(108.592 30.835)" opacity="0.6">
                <g id="Grupo_1074933" data-name="Grupo 1074933" transform="translate(0)">
                  <g id="Grupo_1074932" data-name="Grupo 1074932" clip-path="url(#clip-path-8)">
                    <path id="Trazado_829171" data-name="Trazado 829171" d="M33.635,27.5c0,2.636,2.979,4.772,6.656,4.772s6.655-2.135,6.655-4.772-2.979-4.772-6.655-4.772-6.656,2.135-6.656,4.772" transform="translate(-33.634 -22.728)" fill="#fff"/>
                  </g>
                </g>
              </g>
              <path id="Trazado_829172" data-name="Trazado 829172" d="M43.194,26.892a.383.383,0,0,0,.252-.095,1.6,1.6,0,0,1,2.328-.028.384.384,0,0,0,.564-.522,2.353,2.353,0,0,0-3.4-.028.384.384,0,0,0,.252.674" transform="translate(63.015 9.099)" fill="#fff"/>
              <path id="Trazado_829173" data-name="Trazado 829173" d="M27.465,26.691a.394.394,0,0,0,.2-.057,19.722,19.722,0,0,1,9.1-2.521.384.384,0,0,0,0-.768,20.143,20.143,0,0,0-9.509,2.635.384.384,0,0,0,.2.711" transform="translate(93.639 8.327)" fill="#fff"/>
              <path id="Trazado_829174" data-name="Trazado 829174" d="M50.683,27.365a.388.388,0,0,0,.3-.148c.768-.988,3.263-1.422,4.161-1.506a.384.384,0,1,0-.072-.764c-.145.014-3.569.347-4.7,1.8a.384.384,0,0,0,.3.62" transform="translate(43.799 8.898)" fill="#fff"/>
              <path id="Trazado_829175" data-name="Trazado 829175" d="M10.447,256.34q2.692.847,5.375,1.59c.3.083.593.166.889.244A150.2,150.2,0,0,0,53.156,263.5c.313.005.625.011.94.014a143.068,143.068,0,0,0,17.151-.787c.347-.037.691-.073,1.034-.113a150.1,150.1,0,0,0,18.63-3.318c.312-.073.621-.152.931-.228q4.827-1.209,9.627-2.731s12.6-58.605,3.673-88.137C99.522,149.611,88,128.544,88,128.544c-21.831,7.188-37.07,7.375-46.954,5.685-.37-.065-.735-.132-1.089-.2-9.608-1.846-13.768-5.432-13.768-5.432a155.282,155.282,0,0,0-7.379,24.1c-.073.318-.144.635-.216.954-1.3,5.819-2.405,11.833-3.339,17.9-.054.357-.107.716-.163,1.076-.876,5.842-1.6,11.726-2.192,17.518-.028.293-.058.587-.09.878q-.413,4.129-.742,8.174c-.034.41-.065.818-.1,1.228q-.336,4.241-.592,8.336c-.02.345-.041.685-.062,1.026-.317,5.252-.543,10.273-.7,14.944-.019.517-.034,1.028-.05,1.534-.548,17.751-.115,30.085-.115,30.085" transform="translate(45.246 45.852)" fill="#c04d3a"/>
              <path id="Trazado_829176" data-name="Trazado 829176" d="M59.45,152.2c5.535-1.708,11.659-2.46,16.4-5.482,3.286-2.093,6.109-5.278,6.571-9.276a10.261,10.261,0,0,0-.522-4.658c-.369-.066-.734-.132-1.088-.2a9.477,9.477,0,0,1-.292,7.939c-3.9,7.626-13.309,8.486-20.855,10.723-.075.317-.145.635-.216.955" transform="translate(4.386 47.293)" fill="#7e231a"/>
              <path id="Trazado_829177" data-name="Trazado 829177" d="M24.936,170.994c.781-.3,1.551-.638,2.3-.992,12.38-5.828,21.338-16.861,31.962-25.142,10.6-8.257,25.326-14.826,38.389-8.1.54.277,1.018-.536.476-.817-6.389-3.289-13.81-3.522-20.688-1.768-13.138,3.355-22.993,13.446-32.789,22.186-5.233,4.67-10.726,9.291-17.039,12.442-.8.395-1.616.771-2.453,1.111-.056.357-.107.716-.163,1.076" transform="translate(35.399 47.476)" fill="#7e231a"/>
              <path id="Trazado_829178" data-name="Trazado 829178" d="M21.8,185.181c10.807.213,21.1-6.789,28.763-14.175C60.073,161.843,68.4,150.47,80.9,145.15c6.42-2.738,13.714-3.72,20.417-1.49a.555.555,0,0,0,.042.2c.129.313.258.628.381.944-13.924-5.119-27.522,3.81-37.127,13.179-9.449,9.217-17.873,20.526-30.476,25.642A31.779,31.779,0,0,1,21.71,186.06q.047-.438.09-.879" transform="translate(36.343 50.805)" fill="#7e231a"/>
              <path id="Trazado_829179" data-name="Trazado 829179" d="M36.861,183.239a27.545,27.545,0,0,1,18.834-5.516c3.883.336,8.507,1.65,10.687,5.173,2.453,3.968-.436,8.475.273,12.716.6,3.58,3.538,6.022,6.455,7.843,3.7,2.313,7.6,4.2,11.06,6.91a28.221,28.221,0,0,1,8.49,10.3,18.734,18.734,0,0,1,1.731,7.066,62.3,62.3,0,0,1-.5,7.332,16.551,16.551,0,0,0,2.256,10.493c.346-.037.689-.073,1.034-.113a15.7,15.7,0,0,1-1.289-2.29c-2.476-5.451.014-11.285-.676-16.953-1.087-8.961-8.12-15.523-15.432-19.98-3.518-2.146-7.725-3.8-10.419-7.04a8.249,8.249,0,0,1-1.822-6.309c.222-2.34.981-4.644.773-7.011-.7-8.064-11.319-9.7-17.672-9.032a28.767,28.767,0,0,0-13.68,5.185c-.034.41-.065.818-.1,1.228" transform="translate(20.35 63.026)" fill="#7e231a"/>
              <path id="Trazado_829180" data-name="Trazado 829180" d="M78.789,204.371a37.575,37.575,0,0,1,3.462,27.267c-.087.336-.18.672-.278,1.005.3.083.593.166.89.244a37.819,37.819,0,0,0,.933-17.051,39.5,39.5,0,0,0-7.033-16.4q-.026.775-.049,1.534a38.988,38.988,0,0,1,2.074,3.4" transform="translate(-20.907 71.139)" fill="#7e231a"/>
              <path id="Trazado_829181" data-name="Trazado 829181" d="M49.863,188.739c5.17-.672,10.656.132,12.969,5.375,1.16,2.622,1.091,5.579,1.865,8.313a13.039,13.039,0,0,0,4.05,6.193c4.168,3.671,9.647,5.093,14.293,7.987,5.105,3.179,7.938,8.451,8.863,14.3a37.862,37.862,0,0,1-.2,11.563c.313.005.625.011.94.014a36.761,36.761,0,0,0-.19-13.665,20.362,20.362,0,0,0-9.316-13.254c-5.257-3.158-12.027-4.656-15.812-9.854-3.445-4.727-1.467-11.531-6.32-15.481-3.213-2.614-7.172-3.027-11.083-2.513q-.031.515-.062,1.026" transform="translate(6.695 66.889)" fill="#7e231a"/>
              <path id="Trazado_829182" data-name="Trazado 829182" d="M19.832,191.975c.586-4,2.966-7.424,4.693-10.993a16.258,16.258,0,0,0,1.837-6.146,21.467,21.467,0,0,0-1.274-7.07c-1.114-3.823-1.879-7.766.374-11.345,2.293-3.641,6.427-5.756,10.391-7.066a42.908,42.908,0,0,1,16.488-2.005c.6.043.608.988,0,.944a42.217,42.217,0,0,0-14.859,1.544c-3.915,1.144-8.033,2.913-10.609,6.218-3.072,3.941-1.747,8.361-.506,12.725a18.628,18.628,0,0,1,.939,6.055,15.616,15.616,0,0,1-1.35,5.275c-1.529,3.579-3.913,6.815-4.907,10.615-1.145,4.378.4,8.642,3.2,12.049,5.424,6.61,13.927,9.076,20.383,14.391,7.067,5.816,9.091,14.648,9.417,23.39-.191.648-.392,1.293-.6,1.936a.437.437,0,0,1-.307-.427c-.148-9.166-1.983-18.478-9.5-24.49-6.672-5.335-15.317-7.846-20.638-14.86a14.4,14.4,0,0,1-3.173-10.738" transform="translate(86.754 52.52)" fill="#7e231a"/>
              <path id="Trazado_829183" data-name="Trazado 829183" d="M31.071,154.936a24.774,24.774,0,0,0-14.365,17.87,23.637,23.637,0,0,0,6.956,21.333,23.984,23.984,0,0,0,11.327,6.26c.592.137.342,1.047-.251.91a25.71,25.71,0,0,1-17.653-15.262,24.525,24.525,0,0,1,3.07-23.466,25.04,25.04,0,0,1,10.665-8.557c.559-.235.8.678.251.91" transform="translate(111.354 54.928)" fill="#7e231a"/>
              <path id="Trazado_829184" data-name="Trazado 829184" d="M25.893,157.85a158.77,158.77,0,0,1,6.13,52.145A154.51,154.51,0,0,1,21.6,258.916c.312-.073.621-.152.931-.228a152.143,152.143,0,0,0,7.55-26.095,159.813,159.813,0,0,0,1.4-52.366,154.956,154.956,0,0,0-16.019-50.411c-.236-.45-.913-.052-.68.4A151.935,151.935,0,0,1,25.893,157.85" transform="translate(114.556 46.235)" fill="#171612"/>
              <path id="Trazado_829185" data-name="Trazado 829185" d="M88.344,134.3s-.851-9.485-3.625-11.3c0,0-28.527,11.641-57-1.678,0,0-4.37,4-3.582,11.65,0,0,20.155,15.087,64.21,1.328" transform="translate(46.578 43.275)" fill="#7e231a"/>
              <path id="Trazado_829186" data-name="Trazado 829186" d="M29.736,43.145s6.854,1.686,8.8,11.811c0,0,12.32,3.666,15.635,6.3s7.28,5.438,7.02,9.775c-.851,14.11-21.912,45.375-24.071,53.8s10.847,39.034,10.847,39.034Q33.837,175.51,4.975,174.3s3.3-82.1,9.379-95.36,11.779-23.2,15.382-35.793" transform="translate(99.582 15.39)" fill="#314fa5"/>
              <path id="Trazado_829187" data-name="Trazado 829187" d="M40.461,52.711A30.3,30.3,0,0,1,22.037,75.505c-.788.319-1.131-.961-.351-1.275a28.993,28.993,0,0,0,17.5-21.87c.141-.837,1.416-.483,1.275.351" transform="translate(98.241 18.506)" fill="#1c2b74"/>
              <path id="Trazado_829188" data-name="Trazado 829188" d="M42.982,68.872a219,219,0,0,0-8.1,70.547q.478,10.318,1.9,20.561c.114.832-1.16,1.193-1.277.351a225.663,225.663,0,0,1,1.438-71.554q1.88-10.24,4.766-20.257a.662.662,0,0,1,1.275.351" transform="translate(79.312 24.275)" fill="#1c2b74"/>
              <path id="Trazado_829189" data-name="Trazado 829189" d="M55.87,129.7A52.981,52.981,0,0,1,16.7,138.967c-.838-.134-.483-1.41.351-1.277A51.662,51.662,0,0,0,55.2,128.561c.691-.5,1.353.649.668,1.142" transform="translate(89.376 45.814)" fill="#1c2b74"/>
              <path id="Trazado_829190" data-name="Trazado 829190" d="M93.369,44.806S91.631,59.03,90.341,68.262c-1.384,9.9-12.813,38.117-14.15,56.686s-5.834,44.577-5.834,44.577-15.232-1.08-25.183-11.084c0,0,13.2-28.234,15.853-39.556S55.5,93.056,57.543,86.816s8.407-8.595,8.931-14.191-2.1-14.458,2.095-17.15,15.588-1.984,17.047-3.186c0,0,3.4-6.98,7.754-7.484" transform="translate(12.879 15.982)" fill="#314fa5"/>
              <path id="Trazado_829191" data-name="Trazado 829191" d="M74.172,59.032c-.289,4.923-.688,10.072-3.607,14.237-1.576,2.248-3.466,4.2-4.443,6.823a14.781,14.781,0,0,0-.541,8.413c.184.83-1.089,1.184-1.275.351A16.366,16.366,0,0,1,67.5,75.1c1.829-2.388,3.416-4.522,4.229-7.471a41.328,41.328,0,0,0,1.119-8.592c.05-.847,1.373-.852,1.323,0" transform="translate(6.659 20.83)" fill="#1c2b74"/>
              <path id="Trazado_829192" data-name="Trazado 829192" d="M50.268,52.432C49.72,58.3,50.011,64.8,53.046,70a.662.662,0,0,1-1.142.667c-3.15-5.406-3.527-12.142-2.958-18.24.079-.84,1.4-.848,1.323,0" transform="translate(48.292 18.477)" fill="#1c2b74"/>
              <path id="Trazado_829193" data-name="Trazado 829193" d="M69.807,63.568A384.276,384.276,0,0,0,52.87,141.476c-.661,5.948-1.224,11.905-1.78,17.864-.077.84-1.4.848-1.321,0,2.226-23.875,5.284-47.517,11.289-70.778,2.2-8.531,4.719-16.978,7.474-25.346.265-.8,1.543-.46,1.275.351" transform="translate(30.176 22.386)" fill="#1c2b74"/>
              <path id="Trazado_829194" data-name="Trazado 829194" d="M84.538,138.254A53.639,53.639,0,0,1,61.91,126.985c-.651-.549.289-1.48.936-.935a52.235,52.235,0,0,0,22.042,10.928c.83.19.479,1.465-.351,1.275" transform="translate(-1.522 44.903)" fill="#1c2b74"/>
              <path id="Trazado_829195" data-name="Trazado 829195" d="M65.222,68.067l.7,3.94c.22,1.292.44,2.58.639,3.871.4,2.582.794,5.162,1.152,7.751.7,5.179,1.35,10.377,1.836,15.636s.9,10.566,1.027,16.034c.069,2.738.079,5.515-.028,8.4a61.7,61.7,0,0,1-.978,9.345c-.17.876-.374,1.794-.653,2.791a25.258,25.258,0,0,1-1.163,3.309,19.873,19.873,0,0,1-1.005,2,16.88,16.88,0,0,1-1.631,2.351,14.707,14.707,0,0,1-2.768,2.594,14.1,14.1,0,0,1-1.969,1.18l-.266.13-.193.085-.38.164c-.262.111-.494.194-.742.284a17.287,17.287,0,0,1-4.88.95,22.526,22.526,0,0,1-3.55-.1,34.311,34.311,0,0,1-5.387-1.031,66.24,66.24,0,0,1-8.507-3.04c-2.61-1.115-5.089-2.3-7.511-3.521s-4.776-2.487-7.1-3.78-4.594-2.637-6.808-4.065-4.381-2.921-6.486-4.5q-1.583-1.182-3.115-2.443c-.513-.417-1.018-.852-1.521-1.288-.252-.217-.5-.437-.752-.665l-.768-.7a7.435,7.435,0,0,1,7.273-12.568l.407.132c.552.176,1.171.4,1.749.615s1.182.436,1.765.665q1.756.684,3.491,1.4c2.313.956,4.6,1.95,6.859,2.956s4.5,2.03,6.725,3.044,4.451,1.975,6.667,2.873,4.417,1.73,6.562,2.442a46.744,46.744,0,0,0,6.043,1.627,11.688,11.688,0,0,0,2.142.242c.217-.005.358-.034.267-.054a2.893,2.893,0,0,0-1.144.208c-.1.033-.18.066-.3.11l-.164.066-.241.113a8.017,8.017,0,0,0-2.553,1.951,6.558,6.558,0,0,0-.568.767c-.1.149-.157.265-.18.281-.05.072-.016-.092.018-.323s.083-.57.122-.95c.08-.765.133-1.711.152-2.712s.022-2.076-.009-3.177c-.06-2.206-.212-4.525-.422-6.876-.434-4.709-1.046-9.553-1.761-14.411-.733-4.86-1.524-9.753-2.405-14.643-.436-2.445-.876-4.892-1.342-7.333l-.695-3.656-.707-3.574-.041-.21a12.767,12.767,0,0,1,25.049-4.949c.012.064.035.19.047.254" transform="translate(96.913 20.517)" fill="#314fa5"/>
              <path id="Trazado_829196" data-name="Trazado 829196" d="M45.224,98.686a10.742,10.742,0,0,1,1.833,10.345c-1.175,3.222-4.3,6.572-7.981,6.324-.65-.045-.655-1.062,0-1.018,3.411.229,6.229-3.069,7.17-6.071A9.7,9.7,0,0,0,44.5,99.405c-.4-.509.315-1.233.719-.719" transform="translate(67.515 35.139)" fill="#1c2b74"/>
              <path id="Trazado_829197" data-name="Trazado 829197" d="M22.2,99.281q-1.811-12.815-3.624-25.628l1.275-.351,0,.016c.117.832-1.157,1.191-1.275.351l0-.016c-.117-.832,1.156-1.193,1.275-.351q1.827,12.811,3.624,25.628c.118.832-1.156,1.193-1.275.351" transform="translate(118.869 25.976)" fill="#1c2b74"/>
              <path id="Trazado_829198" data-name="Trazado 829198" d="M12.244,108.729l3.9-.142c.684-.026.682,1.037,0,1.061l-3.9.144c-.684.024-.682-1.038,0-1.062" transform="translate(134.962 38.733)" fill="#1c2b74"/>
              <path id="Trazado_829199" data-name="Trazado 829199" d="M12.7,109.166a9.343,9.343,0,0,1,4.887,4.164.572.572,0,0,0,.988-.577A10.565,10.565,0,0,0,13,108.064c-.691-.256-.989.848-.3,1.1" transform="translate(132.18 38.533)" fill="#1c2b74"/>
              <rect id="Rectángulo_384054" data-name="Rectángulo 384054" width="61.762" height="47.526" transform="translate(51.637 166.753) rotate(-100.76)" fill="#171612"/>
              <rect id="Rectángulo_384055" data-name="Rectángulo 384055" width="61.762" height="47.526" transform="translate(53.783 166.345) rotate(-100.76)" fill="#171612"/>
              <path id="Trazado_829200" data-name="Trazado 829200" d="M90.672,74.594s-1.924-3.4-5.311-2.651c0,0-1.317-3.325-4.579-3.325a19.866,19.866,0,0,0-8.406,1.819c-2.007,1-1.975,4.157-1.975,4.157a6.574,6.574,0,0,0-3.105,1.864,4.08,4.08,0,0,0-.655,2.7Z" transform="translate(-13.511 24.476)" fill="#171612"/>
              <path id="Trazado_829201" data-name="Trazado 829201" d="M82.918,112.043A8.559,8.559,0,0,1,71.3,114.434a21,21,0,0,0-6.564-2.776c-5.037-.882-11.235-.526-13.652-1.692-3.569-1.72.41-3.278.929-3.4a59.265,59.265,0,0,1,8.113-1.112s-8.549-1.567-11.886-.809-5.762-1.148-3.05-3.636,12.487-2.723,15.214-2.055c0,0-5.024-2.327-9.578-1.449s-6.3.582-8.082-.028-.2-4.039,6.191-5.1a20.48,20.48,0,0,1,12.1,1.13,34.319,34.319,0,0,0-5.678-3.618c-3.723-1.962-8.907-.526-10.394-2.557-1.521-2.077,4.522-3.466,8.2-2.742s6.412.94,10.406,3.582,7.721,5.306,9.733,7.462,10.173,8.882,10.626,13.11a5.241,5.241,0,0,1-1.015,3.3" transform="translate(26.51 30.102)" fill="#eaad8f"/>
              <path id="Trazado_829202" data-name="Trazado 829202" d="M58.518,100.858s-3.557-8.273-6-10.09-5.15-5.857-6.505-4.324,2.114,6.409,2.114,6.409Z" transform="translate(47.013 30.714)" fill="#eaad8f"/>
            </g>
          </g>
        </g>
      </g>
    </g>
    <g id="Grupo_1074940" data-name="Grupo 1074940" transform="translate(326.021 8196.188)">
      <g id="Grupo_1074939" data-name="Grupo 1074939" transform="translate(0 0)" clip-path="url(#clip-path-9)">
        <path id="Trazado_829203" data-name="Trazado 829203" d="M43.98,21.99A21.99,21.99,0,1,1,21.99,0,21.99,21.99,0,0,1,43.98,21.99" transform="translate(0 0.001)" fill="#539380"/>
        <path id="Trazado_829204" data-name="Trazado 829204" d="M14.275,28.693,6.67,21.087l3.179-3.18,4.427,4.428L27.221,9.388l3.179,3.18Z" transform="translate(3.455 4.864)" fill="#fff"/>
        <path id="Trazado_829205" data-name="Trazado 829205" d="M43.98,61.225a21.99,21.99,0,1,1-21.99-21.99,21.99,21.99,0,0,1,21.99,21.99" transform="translate(0 20.325)" fill="#c04d3a"/>
        <path id="Trazado_829206" data-name="Trazado 829206" d="M22.358,57.57l7.256,7.253-4.026,4.026-7.253-7.256-7.256,7.256L7.056,64.823l7.252-7.253L7.056,50.314l4.023-4.023,7.256,7.253,7.253-7.253,4.026,4.023Z" transform="translate(3.655 23.98)" fill="#fff"/>
      </g>
    </g>
    <g id="Grupo_1074942" data-name="Grupo 1074942" transform="translate(229 8380.131)">
      <g id="Grupo_1074941" data-name="Grupo 1074941" transform="translate(0 0)" clip-path="url(#clip-path-10)">
        <path id="Trazado_829207" data-name="Trazado 829207" d="M21.167,4.985,3.608,5.046A3.619,3.619,0,0,0,0,8.68L.163,55.738a5.626,5.626,0,0,0,5.644,5.607l61.573-.214a3.4,3.4,0,0,0,3.392-3.415l-.153-43.831a2.945,2.945,0,0,0-2.956-2.936l-35.916.124Z" transform="translate(0 5.165)" fill="#b56d25"/>
        <path id="Trazado_829208" data-name="Trazado 829208" d="M70.739,46.373l-.106-30.439-70.6.244L.138,46.618a3.4,3.4,0,0,0,3.415,3.39l63.794-.22a3.4,3.4,0,0,0,3.392-3.415" transform="translate(0.033 16.509)" fill="#e59f3f"/>
        <path id="Trazado_829209" data-name="Trazado 829209" d="M1.957,18.426l.008,2.211,62.53-.218-.008-2.209a6.615,6.615,0,0,0-6.638-6.593l-49.3.171a6.613,6.613,0,0,0-6.591,6.638" transform="translate(2.028 12.036)" fill="#fff"/>
        <path id="Trazado_829210" data-name="Trazado 829210" d="M31.458,14.56l.014,4.245-2.743.01-.014-4.245a1.371,1.371,0,0,1,2.743-.01" transform="translate(29.751 13.67)" fill="#f0e8e0"/>
        <path id="Trazado_829211" data-name="Trazado 829211" d="M28.418,14.57l.014,4.245-2.743.01-.014-4.245a1.371,1.371,0,0,1,2.743-.01" transform="translate(26.601 13.68)" fill="#f0e8e0"/>
        <path id="Trazado_829212" data-name="Trazado 829212" d="M25.379,14.581l.014,4.245-2.743.01-.014-4.245a1.371,1.371,0,0,1,2.743-.01" transform="translate(23.453 13.692)" fill="#f0e8e0"/>
        <path id="Trazado_829213" data-name="Trazado 829213" d="M22.339,14.591l.014,4.245-2.743.01L19.6,14.6a1.371,1.371,0,1,1,2.743-.01" transform="translate(20.303 13.702)" fill="#f0e8e0"/>
        <path id="Trazado_829214" data-name="Trazado 829214" d="M19.3,14.6l.014,4.245-2.743.01-.014-4.245A1.371,1.371,0,0,1,19.3,14.6" transform="translate(17.153 13.714)" fill="#f0e8e0"/>
        <path id="Trazado_829215" data-name="Trazado 829215" d="M16.26,14.612l.014,4.245-2.743.01-.014-4.245a1.371,1.371,0,0,1,2.743-.01" transform="translate(14.005 13.724)" fill="#f0e8e0"/>
        <path id="Trazado_829216" data-name="Trazado 829216" d="M13.22,14.623l.014,4.245-2.743.01-.014-4.245a1.371,1.371,0,1,1,2.743-.01" transform="translate(10.855 13.735)" fill="#f0e8e0"/>
        <path id="Trazado_829217" data-name="Trazado 829217" d="M10.18,14.633l.014,4.245-2.743.01-.014-4.245a1.371,1.371,0,0,1,2.743-.01" transform="translate(7.705 13.746)" fill="#f0e8e0"/>
        <path id="Trazado_829218" data-name="Trazado 829218" d="M7.14,14.644l.014,4.245-2.743.01L4.4,14.654a1.371,1.371,0,1,1,2.743-.01" transform="translate(4.556 13.757)" fill="#f0e8e0"/>
        <path id="Trazado_829219" data-name="Trazado 829219" d="M57.277,15.91A15.91,15.91,0,1,1,41.367,0a15.909,15.909,0,0,1,15.91,15.91" transform="translate(26.375 0)" fill="#314fa5"/>
        <path id="Trazado_829220" data-name="Trazado 829220" d="M34.44,19.22h0a1.544,1.544,0,0,1-1.091-.452l-3.9-3.9a1.543,1.543,0,0,1,2.183-2.183l2.808,2.808L45.38,4.554a1.543,1.543,0,0,1,2.183,2.183L35.532,18.768a1.544,1.544,0,0,1-1.091.452" transform="translate(30.044 4.25)" fill="#fff"/>
      </g>
    </g>
  </g>
</svg>
