<svg xmlns="http://www.w3.org/2000/svg" xmlns:xlink="http://www.w3.org/1999/xlink" width="300.327" height="304.082" viewBox="0 0 300.327 304.082">
  <defs>
    <clipPath id="clip-path">
      <rect id="Rectángulo_383683" data-name="Rectángulo 383683" width="300.037" height="188.408" rx="14" transform="translate(0 0)" fill="#273a89"/>
    </clipPath>
    <clipPath id="clip-path-2">
      <rect id="Rectángulo_384025" data-name="Rectángulo 384025" width="286.91" height="287.082" fill="none"/>
    </clipPath>
  </defs>
  <g id="Grupo_1074881" data-name="Grupo 1074881" transform="translate(7678 943)">
    <g id="Grupo_1074876" data-name="Grupo 1074876" transform="translate(-7678 -945.514)">
      <g id="Grupo_1074626" data-name="Grupo 1074626" transform="translate(6.466 2.514)">
        <path id="Trazado_818450" data-name="Trazado 818450" d="M248.167,55.638,206.012,12.788,166.325,53.132l-39.913-40.57L84.706,54.955,43.449,13.018,6.179,50.9,0,44.621,43.449.456,84.706,42.39,126.412,0l39.913,40.568L206.012.227l42.155,42.849L287.679,2.913l6.182,6.278Z" transform="translate(0 0)" fill="#add3fd"/>
        <path id="Trazado_818451" data-name="Trazado 818451" d="M248.167,72.433,206.012,29.586,166.325,69.924,126.412,29.357,84.706,71.75,43.449,29.813,6.179,67.7,0,61.416,43.449,17.252,84.706,59.188,126.412,16.8l39.913,40.57,39.687-40.341,42.155,42.847,39.512-40.163,6.182,6.278Z" transform="translate(0 26.508)" fill="#add3fd"/>
        <path id="Trazado_818452" data-name="Trazado 818452" d="M248.167,89.228,206.012,46.382,166.325,86.722,126.412,46.155,84.706,88.545,43.449,46.608,6.179,84.495,0,78.211,43.449,34.047,84.706,75.983,126.412,33.59l39.913,40.57L206.012,33.82l42.155,42.847L287.679,36.5l6.182,6.281Z" transform="translate(0 53.016)" fill="#add3fd"/>
        <path id="Trazado_818453" data-name="Trazado 818453" d="M248.167,106.024,206.012,63.175l-39.687,40.341L126.412,62.948,84.706,105.341,43.449,63.4,6.179,101.288,0,95.007,43.449,50.843,84.706,92.78l41.706-42.393,39.913,40.57,39.687-40.343,42.155,42.849L287.679,53.3l6.182,6.281Z" transform="translate(0 79.527)" fill="#add3fd"/>
        <path id="Trazado_818454" data-name="Trazado 818454" d="M248.167,122.82,206.012,79.97l-39.687,40.341L126.412,79.743,84.706,122.136,43.449,80.2,6.179,118.086,0,111.8,43.449,67.638l41.257,41.937,41.706-42.393,39.913,40.57,39.687-40.341,42.155,42.849L287.679,70.1l6.182,6.281Z" transform="translate(0 106.036)" fill="#add3fd"/>
        <path id="Trazado_818455" data-name="Trazado 818455" d="M248.167,139.615,206.012,96.768l-39.687,40.341L126.412,96.541l-41.706,42.39L43.449,97,6.179,134.881,0,128.6,43.449,84.433,84.706,126.37l41.706-42.393,39.913,40.57,39.687-40.341,42.155,42.847,39.512-40.163,6.182,6.281Z" transform="translate(0 132.544)" fill="#add3fd"/>
      </g>
      <rect id="Rectángulo_383419" data-name="Rectángulo 383419" width="300.037" height="181.854" rx="14" transform="translate(0 124.479)" fill="#273a89"/>
      <g id="Enmascarar_grupo_192" data-name="Enmascarar grupo 192" transform="translate(0.29 117.925)" clip-path="url(#clip-path)">
        <g id="Grupo_1074624" data-name="Grupo 1074624" transform="translate(-199.474 -65.111)">
          <path id="Trazado_827892" data-name="Trazado 827892" d="M88.483-7.876q0,17.542-9.373,28.214T52.934,31.01a33.158,33.158,0,0,1-12.75-2.3,25.784,25.784,0,0,1-9.542-6.761V59.882H6.07V-49.612H28.278l1.435,9.356a27.984,27.984,0,0,1,9.753-8,29.7,29.7,0,0,1,13.3-2.814q16.972,0,26.345,11.476T88.483-9.411ZM63.827-9.411q0-11.183-4.306-18.127T46.348-34.482a20.965,20.965,0,0,0-9.5,1.974,15.22,15.22,0,0,0-6.206,5.628V7.766a14.421,14.421,0,0,0,6.206,5.117,23.675,23.675,0,0,0,9.668,1.754q8.951,0,13.13-6.067t4.18-16.446Zm87.9-21.855-9.035-.219a18.435,18.435,0,0,0-9.035,1.974,13.17,13.17,0,0,0-5.4,5.555V29.475H103.682V-49.612h22.883l1.1,11.695A25.628,25.628,0,0,1,135.98-47.6a20.454,20.454,0,0,1,11.779-3.472,21.216,21.216,0,0,1,3.42.256q1.562.256,3.167.621ZM220.547,17.78a28.992,28.992,0,0,1-10.724,9.795,31.889,31.889,0,0,1-15.115,3.435q-14.439,0-22.588-8.479T163.972-3.782v-45.83h24.572V-3.636q0,10.379,3.251,14.217t10.091,3.837a27.929,27.929,0,0,0,10.133-1.645,16.834,16.834,0,0,0,6.924-4.861V-49.612H243.6V29.475H223.164Zm81.231,13.23q-20.434,0-31.918-10.854T258.375-7.8v-2.924q0-17.762,11.146-29.091t30.652-11.256q18.408,0,28.245,9.758t9.837,26.277V-4H283.792l-.253.439a19.806,19.806,0,0,0,5.7,13.157q5.109,5.043,15.157,5.043a58.185,58.185,0,0,0,14.059-1.462A62.389,62.389,0,0,0,330.4,8.717l6.671,13.157q-5.489,3.874-14.861,6.505A75.392,75.392,0,0,1,301.777,31.01Zm-1.6-65.638q-7.431,0-11.442,4.422a20.442,20.442,0,0,0-4.855,11.732l.169.365h30.06v-1.608q0-6.944-3.293-10.927T300.173-34.628ZM435.023-7.876q0,17.689-9.119,28.287t-26.345,10.6a31.358,31.358,0,0,1-13.975-2.924,27.424,27.424,0,0,1-10.091-8.552l-2.027,9.941H352.61V-84.551h24.572v43.344a27.034,27.034,0,0,1,9.5-7.309,29.96,29.96,0,0,1,12.708-2.558q17.394,0,26.514,11.366t9.119,30.3ZM410.451-9.411q0-11.549-3.926-18.31t-13.384-6.761A20.691,20.691,0,0,0,383.43-32.4a15.447,15.447,0,0,0-6.249,5.957V7.035a14.776,14.776,0,0,0,6.291,5.482,22.872,22.872,0,0,0,9.837,1.9q9.542,0,13.341-5.811t3.8-16.483Zm93.643,38.886a41.046,41.046,0,0,1-2.322-5.7,34.989,34.989,0,0,1-1.393-6.14,31.277,31.277,0,0,1-10.048,9.575,28.048,28.048,0,0,1-14.861,3.8q-14.355,0-22.123-6.4T445.578,7.182q0-11.622,10.344-18.018t30.187-6.4h13.848v-6.286q0-5.7-3.462-8.844t-10.3-3.143q-6,0-9.246,2.522a8.266,8.266,0,0,0-3.251,6.907H449.969l-.169-.439Q449.209-36.528,459.89-43.8T487.8-51.074q16.466,0,26.641,7.163t10.175,20.539V9.3a53.7,53.7,0,0,0,.971,10.452,47.038,47.038,0,0,0,3.082,9.721ZM481.549,15.222a23.491,23.491,0,0,0,11.484-2.778q5.066-2.778,6.924-6.432V-5.171H486.109q-7.853,0-11.864,3.362a10.384,10.384,0,0,0-4.011,8.26,7.736,7.736,0,0,0,3,6.4Q476.229,15.222,481.549,15.222Z" transform="translate(-6.07 84.551)" fill="none" stroke="#fff" stroke-width="1"/>
          <path id="Trazado_827890" data-name="Trazado 827890" d="M75.729-6.74q0,15.014-8.022,24.147T45.3,26.54A28.378,28.378,0,0,1,34.392,24.57a22.068,22.068,0,0,1-8.166-5.787V51.25H5.2V-42.461H24.2l1.229,8.007a23.951,23.951,0,0,1,8.347-6.85A25.414,25.414,0,0,1,45.16-43.712q14.526,0,22.548,9.822T75.729-8.054Zm-21.1-1.314q0-9.571-3.686-15.514T39.667-29.511a17.943,17.943,0,0,0-8.13,1.689,13.026,13.026,0,0,0-5.312,4.817V6.647a12.342,12.342,0,0,0,5.312,4.379,20.262,20.262,0,0,0,8.275,1.5q7.66,0,11.238-5.192T54.627-6.74Zm75.231-18.7-7.733-.188a15.778,15.778,0,0,0-7.733,1.689,11.272,11.272,0,0,0-4.625,4.754v45.73H88.737V-42.461h19.585l.939,10.009a21.934,21.934,0,0,1,7.118-8.289,17.505,17.505,0,0,1,10.081-2.971,18.159,18.159,0,0,1,2.927.219q1.337.219,2.71.532Zm58.9,41.976a24.813,24.813,0,0,1-9.178,8.383,27.292,27.292,0,0,1-12.936,2.94q-12.358,0-19.332-7.257T140.337-3.237V-42.461h21.03V-3.112q0,8.883,2.782,12.167t8.636,3.284a23.9,23.9,0,0,0,8.672-1.408,14.408,14.408,0,0,0,5.926-4.16V-42.461h21.1V25.226H191ZM258.278,26.54q-17.489,0-27.317-9.29T221.132-6.678v-2.5q0-15.2,9.539-24.9T256.9-43.712q15.754,0,24.174,8.351T289.5-12.871v9.446H242.885l-.217.375a16.951,16.951,0,0,0,4.878,11.26q4.372,4.316,12.972,4.316a49.8,49.8,0,0,0,12.033-1.251A53.4,53.4,0,0,0,282.777,7.46l5.709,11.26a41.7,41.7,0,0,1-12.719,5.568A64.524,64.524,0,0,1,258.278,26.54ZM256.9-29.636q-6.36,0-9.792,3.785a17.5,17.5,0,0,0-4.155,10.04l.145.313h25.727v-1.376q0-5.943-2.818-9.352T256.9-29.636ZM372.317-6.74q0,15.139-7.8,24.21T341.964,26.54a26.837,26.837,0,0,1-11.96-2.5,23.471,23.471,0,0,1-8.636-7.319l-1.734,8.508h-17.85v-97.59h21.03v37.1a23.138,23.138,0,0,1,8.13-6.256,25.641,25.641,0,0,1,10.876-2.19q14.887,0,22.692,9.728t7.8,25.93Zm-21.03-1.314q0-9.884-3.36-15.671t-11.454-5.787a17.708,17.708,0,0,0-8.311,1.783,13.221,13.221,0,0,0-5.348,5.1V6.021a12.646,12.646,0,0,0,5.384,4.692,19.576,19.576,0,0,0,8.419,1.626q8.166,0,11.418-4.973T351.287-6.74Zm80.145,33.281a35.13,35.13,0,0,1-1.987-4.879,29.947,29.947,0,0,1-1.192-5.255,26.768,26.768,0,0,1-8.6,8.2,24,24,0,0,1-12.719,3.253q-12.286,0-18.934-5.474T381.35,6.146q0-9.947,8.853-15.42t25.836-5.474h11.852v-5.38a9.7,9.7,0,0,0-2.963-7.569q-2.963-2.69-8.817-2.69-5.131,0-7.913,2.158a7.074,7.074,0,0,0-2.782,5.912H385.108l-.145-.375q-.506-8.57,8.636-14.795t23.885-6.224q14.092,0,22.8,6.131T448.993-20V7.961a45.96,45.96,0,0,0,.831,8.946,40.255,40.255,0,0,0,2.638,8.32Zm-19.3-12.2a20.105,20.105,0,0,0,9.828-2.377,13.714,13.714,0,0,0,5.926-5.505V-4.426H416.039q-6.721,0-10.154,2.878a8.887,8.887,0,0,0-3.433,7.069,6.621,6.621,0,0,0,2.565,5.474A11.184,11.184,0,0,0,412.137,13.028Z" transform="translate(210.775 178.482)" fill="none" stroke="#fff" stroke-width="1"/>
          <path id="Trazado_827891" data-name="Trazado 827891" d="M73.337-6.528q0,14.54-7.768,23.385T43.873,25.7a27.482,27.482,0,0,1-10.568-1.908,21.371,21.371,0,0,1-7.908-5.6V49.632H5.031V-41.12H23.438l1.19,7.755A23.194,23.194,0,0,1,32.711-40a24.612,24.612,0,0,1,11.023-2.332q14.067,0,21.836,9.511T73.337-7.8ZM52.9-7.8q0-9.269-3.569-15.024T38.415-28.579a17.376,17.376,0,0,0-7.873,1.636A12.614,12.614,0,0,0,25.4-22.279V6.437a11.952,11.952,0,0,0,5.144,4.241,19.622,19.622,0,0,0,8.013,1.454q7.418,0,10.883-5.028T52.9-6.528Zm72.855-18.114-7.489-.182a15.28,15.28,0,0,0-7.488,1.636,10.916,10.916,0,0,0-4.479,4.6V24.43H85.935V-41.12H104.9l.91,9.693a21.24,21.24,0,0,1,6.894-8.027,16.953,16.953,0,0,1,9.763-2.878,17.584,17.584,0,0,1,2.834.212q1.295.212,2.624.515ZM182.8,14.737a24.029,24.029,0,0,1-8.888,8.118A26.43,26.43,0,0,1,161.38,25.7q-11.968,0-18.721-7.028T135.9-3.135V-41.12h20.366V-3.014q0,8.6,2.694,11.783t8.363,3.181a23.148,23.148,0,0,0,8.4-1.363,13.952,13.952,0,0,0,5.739-4.029V-41.12H201.9V24.43H184.965ZM250.122,25.7q-16.937,0-26.455-9T214.149-6.467V-8.89q0-14.721,9.238-24.112t25.4-9.33q15.257,0,23.41,8.088t8.153,21.779v9.148H235.215l-.21.363a16.416,16.416,0,0,0,4.724,10.9q4.234,4.18,12.562,4.18a48.226,48.226,0,0,0,11.653-1.212,51.71,51.71,0,0,0,9.9-3.7l5.529,10.9a40.38,40.38,0,0,1-12.317,5.392A62.487,62.487,0,0,1,250.122,25.7Zm-1.33-54.4q-6.159,0-9.483,3.665a16.943,16.943,0,0,0-4.024,9.723l.14.3H260.34v-1.333q0-5.755-2.729-9.057T248.792-28.7ZM360.559-6.528q0,14.661-7.558,23.445T331.165,25.7a25.99,25.99,0,0,1-11.583-2.423,22.73,22.73,0,0,1-8.363-7.088l-1.68,8.239H292.253V-70.078h20.366v35.925a22.407,22.407,0,0,1,7.873-6.058,24.832,24.832,0,0,1,10.533-2.12q14.417,0,21.976,9.42T360.559-7.8ZM340.194-7.8q0-9.572-3.254-15.176t-11.093-5.6a17.149,17.149,0,0,0-8.048,1.727,12.8,12.8,0,0,0-5.179,4.937V5.831a12.247,12.247,0,0,0,5.214,4.544,18.958,18.958,0,0,0,8.153,1.575q7.908,0,11.058-4.816t3.149-13.661Zm77.614,32.23a34.023,34.023,0,0,1-1.925-4.725,29,29,0,0,1-1.155-5.089,25.923,25.923,0,0,1-8.328,7.936,23.247,23.247,0,0,1-12.318,3.15q-11.9,0-18.336-5.3T369.308,5.952q0-9.633,8.573-14.933t25.02-5.3h11.478v-5.21a9.4,9.4,0,0,0-2.869-7.33q-2.869-2.605-8.538-2.605-4.969,0-7.663,2.09a6.851,6.851,0,0,0-2.694,5.725H372.947l-.14-.363q-.49-8.3,8.363-14.328t23.13-6.028q13.647,0,22.081,5.937t8.433,17.024V7.709a44.508,44.508,0,0,0,.8,8.663,38.982,38.982,0,0,0,2.554,8.057ZM399.122,12.616a19.471,19.471,0,0,0,9.518-2.3,13.28,13.28,0,0,0,5.739-5.331V-4.286H402.9q-6.509,0-9.833,2.787a8.606,8.606,0,0,0-3.324,6.846,6.411,6.411,0,0,0,2.485,5.3A10.831,10.831,0,0,0,399.122,12.616Z" transform="translate(110.975 287.167)" fill="none" stroke="#fff" stroke-width="1"/>
        </g>
      </g>
    </g>
    <g id="Grupo_1074880" data-name="Grupo 1074880" transform="translate(-7671 -926)">
      <g id="Grupo_1074879" data-name="Grupo 1074879" clip-path="url(#clip-path-2)">
        <path id="Trazado_828657" data-name="Trazado 828657" d="M10.962,138.734H198.3a3.793,3.793,0,0,0,3.793-3.793V3.793A3.793,3.793,0,0,0,198.3,0H10.962A3.794,3.794,0,0,0,7.169,3.793V134.941a3.794,3.794,0,0,0,3.793,3.793" transform="translate(73.31)" fill="#fff"/>
        <line id="Línea_367" data-name="Línea 367" x1="207.862" transform="translate(74.749 46.366)" fill="none" stroke="#fdeeea" stroke-miterlimit="10" stroke-width="1.96"/>
        <line id="Línea_368" data-name="Línea 368" x1="207.862" transform="translate(74.749 89.763)" fill="none" stroke="#fdeeea" stroke-miterlimit="10" stroke-width="1.96"/>
        <path id="Trazado_828658" data-name="Trazado 828658" d="M20.039,20.8A11.794,11.794,0,1,0,31.833,9.01,11.795,11.795,0,0,0,20.039,20.8" transform="translate(211.113 5.454)" fill="#7393ff"/>
        <path id="Trazado_828659" data-name="Trazado 828659" d="M20.039,46.777A11.794,11.794,0,1,0,31.833,34.983,11.795,11.795,0,0,0,20.039,46.777" transform="translate(211.113 21.176)" fill="#7393ff"/>
        <path id="Trazado_828660" data-name="Trazado 828660" d="M20.039,73.729A11.794,11.794,0,1,0,31.833,61.935,11.795,11.795,0,0,0,20.039,73.729" transform="translate(211.113 37.491)" fill="#7393ff"/>
        <line id="Línea_369" data-name="Línea 369" x1="105.435" transform="translate(118.584 21.154)" fill="none" stroke="#f1d5ce" stroke-linecap="round" stroke-linejoin="round" stroke-width="0.98"/>
        <line id="Línea_370" data-name="Línea 370" x1="15.641" transform="translate(208.378 29.405)" fill="none" stroke="#f1d5ce" stroke-linecap="round" stroke-linejoin="round" stroke-width="0.98"/>
        <line id="Línea_371" data-name="Línea 371" x1="105.435" transform="translate(118.584 63.286)" fill="none" stroke="#f1d5ce" stroke-linecap="round" stroke-linejoin="round" stroke-width="0.98"/>
        <line id="Línea_372" data-name="Línea 372" x1="55.878" transform="translate(168.14 71.537)" fill="none" stroke="#f1d5ce" stroke-linecap="round" stroke-linejoin="round" stroke-width="0.98"/>
        <line id="Línea_373" data-name="Línea 373" x1="23.04" transform="translate(200.979 106.991)" fill="none" stroke="#f1d5ce" stroke-linecap="round" stroke-linejoin="round" stroke-width="0.98"/>
        <line id="Línea_374" data-name="Línea 374" x1="105.435" transform="translate(118.584 115.242)" fill="none" stroke="#f1d5ce" stroke-linecap="round" stroke-linejoin="round" stroke-width="0.98"/>
        <path id="Trazado_828661" data-name="Trazado 828661" d="M24.439,18.928l3.344,2.28L33.9,14.163" transform="translate(213.777 8.573)" fill="none" stroke="#fff" stroke-linecap="round" stroke-linejoin="round" stroke-width="1.22"/>
        <path id="Trazado_828662" data-name="Trazado 828662" d="M24.439,44.837l3.344,2.28L33.9,40.073" transform="translate(213.777 24.257)" fill="none" stroke="#fff" stroke-linecap="round" stroke-linejoin="round" stroke-width="1.22"/>
        <path id="Trazado_828663" data-name="Trazado 828663" d="M24.439,71.852l3.344,2.28L33.9,67.088" transform="translate(213.777 40.61)" fill="none" stroke="#fff" stroke-linecap="round" stroke-linejoin="round" stroke-width="1.22"/>
        <path id="Trazado_828664" data-name="Trazado 828664" d="M207.4,162.324H171.131c-20.385,0-34.643-13.146-38.029-33.246l-9-53.432" transform="translate(-119.72 45.791)" fill="none" stroke="#1b172c" stroke-linecap="round" stroke-linejoin="round" stroke-width="5.463"/>
        <path id="Trazado_828665" data-name="Trazado 828665" d="M192.381,212.666l-16.275-75.43a18.894,18.894,0,0,0-36.976.345l-14.769,75.085" transform="translate(-105.111 74.098)" fill="none" stroke="#fff" stroke-miterlimit="10" stroke-width="1.879"/>
        <path id="Trazado_828666" data-name="Trazado 828666" d="M100.777,182.225l-8.409-26.7L79,154.812l8.388,28.655,12.9.082Z" transform="translate(59.319 93.713)" fill="#ffbd9a"/>
        <path id="Trazado_828667" data-name="Trazado 828667" d="M67.622,170.2s11.059,4.548,16.254-2.621l22.768,13.832-42.45-.273Z" transform="translate(77.211 101.442)"/>
        <rect id="Rectángulo_384021" data-name="Rectángulo 384021" width="42.451" height="3.91" transform="matrix(-1, -0.006, 0.006, -1, 183.829, 286.764)" fill="#fff"/>
        <path id="Trazado_828668" data-name="Trazado 828668" d="M77.018,173.216a.739.739,0,0,0,.31-.236,15.471,15.471,0,0,1,3.5-3.411.694.694,0,0,0,.207-.99.782.782,0,0,0-1.039-.2,16.6,16.6,0,0,0-3.882,3.76.692.692,0,0,0,.165,1,.785.785,0,0,0,.738.077" transform="translate(83.791 101.856)" fill="#fff"/>
        <path id="Trazado_828669" data-name="Trazado 828669" d="M74.743,174.356a.739.739,0,0,0,.31-.236,15.471,15.471,0,0,1,3.5-3.411.7.7,0,0,0,.207-.991.779.779,0,0,0-1.039-.2,16.693,16.693,0,0,0-3.883,3.761.694.694,0,0,0,.167,1,.785.785,0,0,0,.738.077" transform="translate(89.721 102.545)" fill="#fff"/>
        <path id="Trazado_828670" data-name="Trazado 828670" d="M72.466,175.493a.739.739,0,0,0,.31-.236,15.545,15.545,0,0,1,3.5-3.411.69.69,0,0,0,.207-.989.777.777,0,0,0-1.037-.2,16.618,16.618,0,0,0-3.885,3.76.694.694,0,0,0,.167,1,.785.785,0,0,0,.738.077" transform="translate(95.651 103.234)" fill="#fff"/>
        <path id="Trazado_828671" data-name="Trazado 828671" d="M78.943,107.069l11.624.738a19.291,19.291,0,0,1,17.357,14.066l18.216,70.163L100.9,189.687,80.548,128.056Z" transform="translate(34.04 64.812)" fill="#007bde"/>
        <path id="Trazado_828672" data-name="Trazado 828672" d="M79.017,166.272H109.5l-2.114-11.239H76.9Z" transform="translate(53.955 93.847)" fill="#0086ff"/>
        <path id="Trazado_828673" data-name="Trazado 828673" d="M123.127,182.091l-.388-26.348-13.374-.71.369,28.3,12.9.082Z" transform="translate(-11.784 93.847)" fill="#ffbd9a"/>
        <path id="Trazado_828674" data-name="Trazado 828674" d="M97.991,170.2s11.059,4.548,16.254-2.621l22.768,13.832-42.45-.273Z" transform="translate(-1.911 101.442)"/>
        <rect id="Rectángulo_384022" data-name="Rectángulo 384022" width="42.451" height="3.91" transform="matrix(-1, -0.006, 0.006, -1, 135.077, 286.764)" fill="#fff"/>
        <path id="Trazado_828675" data-name="Trazado 828675" d="M107.388,173.216a.739.739,0,0,0,.31-.236,15.471,15.471,0,0,1,3.5-3.411.694.694,0,0,0,.207-.99.782.782,0,0,0-1.039-.2,16.622,16.622,0,0,0-3.883,3.76.694.694,0,0,0,.167,1,.785.785,0,0,0,.738.077" transform="translate(4.67 101.856)" fill="#fff"/>
        <path id="Trazado_828676" data-name="Trazado 828676" d="M105.112,174.356a.739.739,0,0,0,.31-.236,15.471,15.471,0,0,1,3.5-3.411.7.7,0,0,0,.207-.991.779.779,0,0,0-1.039-.2,16.694,16.694,0,0,0-3.883,3.761.694.694,0,0,0,.167,1,.785.785,0,0,0,.738.077" transform="translate(10.599 102.545)" fill="#fff"/>
        <path id="Trazado_828677" data-name="Trazado 828677" d="M102.836,175.493a.739.739,0,0,0,.31-.236,15.545,15.545,0,0,1,3.5-3.411.693.693,0,0,0,.207-.989.779.779,0,0,0-1.039-.2,16.664,16.664,0,0,0-3.883,3.76.694.694,0,0,0,.167,1,.785.785,0,0,0,.738.077" transform="translate(16.529 103.234)" fill="#fff"/>
        <path id="Trazado_828678" data-name="Trazado 828678" d="M106.552,106.292l36.364,1.45,27.156.555c7.926,0,14.382,4.779,14.5,12.7.363,24.364-1.52,75-2.668,74.775-1.546-.31-23.8,0-23.8,0l-2.264-55.326-17.44,1.9c-4.3.035-16.859.846-20.694-1.1-7.935-4.021-18.065-13.438-11.151-34.959" transform="translate(-65.067 64.342)" fill="#0086ff"/>
        <rect id="Rectángulo_384023" data-name="Rectángulo 384023" width="30.484" height="11.239" transform="translate(90.428 248.88)" fill="#00b1ff"/>
        <line id="Línea_375" data-name="Línea 375" y1="12.392" x2="0.424" transform="translate(90.77 192.4)" fill="none" stroke="#55382c" stroke-miterlimit="10" stroke-width="0.844"/>
        <path id="Trazado_828679" data-name="Trazado 828679" d="M65.432,82.217l14.613-7.306s11.924-.881,19.169.7a1.369,1.369,0,0,1-.417,2.7l-6.691-.732,3.6,2.45a1.531,1.531,0,0,1-.2,2.646,1.513,1.513,0,0,1-1.39-.03c-2-1.108-8.292-3.991-14.424-.541l5.721,2.57a1.815,1.815,0,0,1-.978,3.455l-5.323-.69s-6.262,2.551-12.062-.233Z" transform="translate(81.557 45.198)" fill="#ffc9bd"/>
        <path id="Trazado_828680" data-name="Trazado 828680" d="M98.9,67.6c4.63,11.337,11.25,33.916,11.25,33.916L146.72,84.295l4.837,12.555-31.03,21.187-33.94-1.416L84.07,90.075Z" transform="translate(0.393 40.923)" fill="#ff9184"/>
        <path id="Trazado_828681" data-name="Trazado 828681" d="M167.2,64.92a18.709,18.709,0,0,1,6.107,7.393l2.2,63.354s-38.883,8.187-60-1.247c0,0,.6-53.059,12.623-67.1,0,0,3.79-7.458,23.07-7.494a26.454,26.454,0,0,1,16,5.1" transform="translate(-74.02 36.214)" fill="#ff9184"/>
        <line id="Línea_376" data-name="Línea 376" x1="2.805" y2="44.482" transform="translate(93.795 119.864)" fill="none" stroke="#ff6c63" stroke-miterlimit="10" stroke-width="0.735"/>
        <path id="Trazado_828682" data-name="Trazado 828682" d="M86.817,104.8l.535-10.921s3.914-8.176,7.484-8.292c2.622-.085,5.924,1.692,7.677,3.554a1.724,1.724,0,0,1-.453,2.734c-1.7.86-4.289,2.4-5.612,4.306,0,0,1.729,8.812-1.188,12.436-1.482,1.845-10.212,3.915-10.212,3.915Z" transform="translate(47.382 51.809)" fill="#ffc9bd"/>
        <path id="Trazado_828683" data-name="Trazado 828683" d="M117.109,66.37l7.009,44.413,52.692,2.286v18.636l-56.665-1.371a6.108,6.108,0,0,1-4.978-1.784l-.575.271s-15.347.26-19.661-52.138Z" transform="translate(-42.295 40.176)" fill="#ff9184"/>
        <path id="Trazado_828684" data-name="Trazado 828684" d="M151.47,109.723l-47.8-2.159L97.99,71.544" transform="translate(-21.866 43.308)" fill="none" stroke="#ff6c63" stroke-miterlimit="10" stroke-width="0.735"/>
        <line id="Línea_377" data-name="Línea 377" x1="7.295" y2="2.159" transform="translate(74.513 150.872)" fill="none" stroke="#ff6c63" stroke-miterlimit="10" stroke-width="0.735"/>
        <path id="Trazado_828685" data-name="Trazado 828685" d="M134.73,81.533l5.315,23.716a28.249,28.249,0,0,0,9.224,15.308l2.382,1.883" transform="translate(-81.028 49.355)" fill="none" stroke="#ff6c63" stroke-miterlimit="10" stroke-width="0.735"/>
        <path id="Trazado_828686" data-name="Trazado 828686" d="M168.03,35.689s-1.315,6.267,0,10.085,5.5,5.612,3.62,15.583.124,10.207.576,13.024c0,0-40.032,3.769-60.081-6.513,0,0,3.39-5.818,7.145-12.273s5.166-17.068,5.166-17.068l15.352-5.877Z" transform="translate(-65.346 19.764)" fill="#954b55"/>
        <path id="Trazado_828687" data-name="Trazado 828687" d="M154.721,31.812c.458-.143-1.323-2.78-1.779-2.927-7.126-2.275-22.349-5.286-30.092,7.229-5.689,9.2.022,26.5,11.979,31.734,11.39,4.988,9.451-32.77,9.451-32.77Z" transform="translate(-61.543 16.244)" fill="#954b55"/>
        <path id="Trazado_828688" data-name="Trazado 828688" d="M115.519,46.406a5.651,5.651,0,1,0,6.285-4.936,5.651,5.651,0,0,0-6.285,4.936" transform="translate(-25.253 25.078)" fill="#ffb1a7"/>
        <path id="Trazado_828689" data-name="Trazado 828689" d="M139.505,56.747l-1.4,12.236c-.482,4.3-3.387,6.3-7.614,5.79-3.607-.433-6.773-2.7-6.791-6.336l3.126-19.15Z" transform="translate(-51.181 29.835)" fill="#ffc9bd"/>
        <path id="Trazado_828690" data-name="Trazado 828690" d="M136.6,63.555c-8.584-.743-13-13.022-13-13.022l14.031,4.208Z" transform="translate(-49.137 30.589)" fill="#1b172c"/>
        <path id="Trazado_828691" data-name="Trazado 828691" d="M131.016,70.088h0c7.251.385,13.527-5.025,14.04-10.936L146.184,45.2A13.785,13.785,0,0,0,134.1,30.319c-7.558-.909-15.747,4.323-16.655,11.883l-.785,11.231c-.608,8.688,5.065,15.944,14.36,16.655" transform="translate(-46.527 18.291)" fill="#ffc9bd"/>
        <path id="Trazado_828692" data-name="Trazado 828692" d="M142.962,37.116c3.443,5.14-2.178,12.437-2.178,12.437L130.163,36.711s10.761-2.639,12.8.4" transform="translate(-66.123 21.58)" fill="#954b55"/>
        <path id="Trazado_828693" data-name="Trazado 828693" d="M132.23,45.346a5.651,5.651,0,1,0,6.285-4.936,5.652,5.652,0,0,0-6.285,4.936" transform="translate(-68.791 24.436)" fill="#ffc9bd"/>
        <path id="Trazado_828694" data-name="Trazado 828694" d="M138.079,46.547s.488-4.068-3.477-3.895" transform="translate(-67.27 25.815)" fill="none" stroke="#1b172c" stroke-linecap="round" stroke-linejoin="round" stroke-width="0.562"/>
        <path id="Trazado_828695" data-name="Trazado 828695" d="M123.1,46.924l.109,1.663-1.644,0" transform="translate(-31.459 28.405)" fill="none" stroke="#1b172c" stroke-linecap="round" stroke-linejoin="round" stroke-width="0.562"/>
        <path id="Trazado_828696" data-name="Trazado 828696" d="M128.1,40.59s3.143-.124,3.132.888c0,0-.032.684-2.774.75s-3.445-.111-3.668-.759,1.84-.909,3.31-.878" transform="translate(-44.626 24.567)" fill="#793641"/>
        <path id="Trazado_828697" data-name="Trazado 828697" d="M120.156,40.858s-2.58-.278-2.832.666c0,0-.151.641,2.109.843s3.007-.006,3.243-.52c.268-.581-1.291-.942-2.52-.989" transform="translate(-24.138 24.71)" fill="#793641"/>
        <path id="Trazado_828698" data-name="Trazado 828698" d="M128.905,45.038s-1.4-2-4-.066" transform="translate(-42.514 26.712)" fill="none" stroke="#1b172c" stroke-linecap="round" stroke-linejoin="round" stroke-width="0.705"/>
        <path id="Trazado_828699" data-name="Trazado 828699" d="M121.2,45.3a1.753,1.753,0,0,0-2.986-.13" transform="translate(-24.063 26.862)" fill="none" stroke="#1b172c" stroke-linecap="round" stroke-linejoin="round" stroke-width="0.705"/>
        <path id="Trazado_828700" data-name="Trazado 828700" d="M127.144,50.426a4.041,4.041,0,0,1-3.885-1.65" transform="translate(-38.106 29.526)" fill="none" stroke="#1b172c" stroke-linecap="round" stroke-linejoin="round" stroke-width="0.705"/>
        <path id="Trazado_828701" data-name="Trazado 828701" d="M136.931,28.28s15.483,5.59,12.274,11.416c-2.376,4.317-17.957,6.994-32.758,3.946,0,0-6.755-5.485,1.607-11.172,0,0,4.49-6.343,18.877-4.19" transform="translate(-45.531 16.849)" fill="#954b55"/>
        <path id="Trazado_828702" data-name="Trazado 828702" d="M147.106,63.6a29.293,29.293,0,0,0-10.921-3.748,57.3,57.3,0,0,0-14.268,1.061s.427,6.9,13.5,8.428a19.766,19.766,0,0,0,7.68-.469c2.5-.706,3.089-2.442,4.009-5.272" transform="translate(-55.914 36.188)" fill="#ffc9bd"/>
        <path id="Trazado_828703" data-name="Trazado 828703" d="M69.535,107.038H113.9v-5.005H69.535a2.5,2.5,0,0,0,0,5.005" transform="translate(65.396 61.764)" fill="#061418"/>
        <path id="Trazado_828704" data-name="Trazado 828704" d="M18.58,125.494h63.7a7.54,7.54,0,0,0,7.264-5.519l12.565-45.137a2.6,2.6,0,0,0-2.5-3.294H35.152a3.1,3.1,0,0,0-3,2.31Z" transform="translate(154.88 43.308)" fill="#1c2e34"/>
        <path id="Trazado_828705" data-name="Trazado 828705" d="M39.127,91.091a5.562,5.562,0,1,0,5.562-5.562,5.563,5.563,0,0,0-5.562,5.562" transform="translate(173.848 51.774)" fill="#fff"/>
        <line id="Línea_378" data-name="Línea 378" y2="112.02" transform="translate(189.921 174.744)" fill="none" stroke="#55382e" stroke-miterlimit="10" stroke-width="1.147"/>
        <rect id="Rectángulo_384024" data-name="Rectángulo 384024" width="189.259" height="11.883" transform="translate(97.651 168.802)" fill="#fff"/>
        <line id="Línea_379" data-name="Línea 379" x2="264.052" transform="translate(7.866 285.135)" fill="none" stroke="#55382e" stroke-miterlimit="10" stroke-width="1.147"/>
      </g>
    </g>
  </g>
</svg>
