<svg xmlns="http://www.w3.org/2000/svg" xmlns:xlink="http://www.w3.org/1999/xlink" width="95.172" height="95.172" viewBox="0 0 95.172 95.172">
  <defs>
    <clipPath id="clip-path">
      <path id="Trazado_819313" data-name="Trazado 819313" d="M17.313,58.524A47.586,47.586,0,1,0,64.9,10.939,47.587,47.587,0,0,0,17.313,58.524" transform="translate(-17.313 -10.939)" fill="#273a89"/>
    </clipPath>
    <clipPath id="clip-path-2">
      <path id="path1110" d="M0-682.665H46.234v46.235H0Z" transform="translate(0 682.665)"/>
    </clipPath>
  </defs>
  <g id="Grupo_1074698" data-name="Grupo 1074698" transform="translate(-280 -1563)">
    <g id="Grupo_1074594" data-name="Grupo 1074594" transform="translate(4.82 -1.18)">
      <g id="Grupo_1074593" data-name="Grupo 1074593" transform="translate(275.18 1564.18)">
        <g id="Grupo_1072913" data-name="Grupo 1072913" clip-path="url(#clip-path)">
          <path id="Trazado_819307" data-name="Trazado 819307" d="M105.258,23.216,87.379,5.336,70.546,22.17,53.617,5.242,35.928,22.931l-17.5-17.5L2.621,21.24,0,18.619,18.429.19l17.5,17.5L53.617,0,70.546,16.928,87.379.095l17.88,17.88L122.017,1.216l2.622,2.62Z" transform="translate(-18.626 -11.769)" fill="#273a89"/>
          <path id="Trazado_819308" data-name="Trazado 819308" d="M105.258,40.011,87.379,22.133,70.546,38.964,53.617,22.037,35.928,39.726l-17.5-17.5L2.621,38.036,0,35.414,18.429,16.986l17.5,17.5L53.617,16.8,70.546,33.724,87.379,16.891l17.88,17.879,16.759-16.759,2.622,2.62Z" transform="translate(-18.626 -10.495)" fill="#273a89"/>
          <path id="Trazado_819309" data-name="Trazado 819309" d="M105.258,56.806,87.379,38.928,70.546,55.761,53.617,38.833,35.928,56.521l-17.5-17.5L2.621,54.831,0,52.209,18.429,33.781l17.5,17.5L53.617,33.59,70.546,50.519,87.379,33.686l17.88,17.879,16.759-16.759,2.622,2.621Z" transform="translate(-18.626 -9.221)" fill="#273a89"/>
          <path id="Trazado_819310" data-name="Trazado 819310" d="M105.258,73.6l-17.88-17.88L70.546,72.556,53.617,55.628,35.928,73.317l-17.5-17.5L2.621,71.626,0,69.005,18.429,50.577l17.5,17.5L53.617,50.387,70.546,67.315,87.379,50.481l17.88,17.88L122.017,51.6l2.622,2.621Z" transform="translate(-18.626 -7.946)" fill="#273a89"/>
          <path id="Trazado_819311" data-name="Trazado 819311" d="M105.258,90.4l-17.88-17.88L70.546,89.351,53.617,72.423,35.928,90.113l-17.5-17.5L2.621,88.422,0,85.8l18.428-18.43,17.5,17.5L53.617,67.182,70.546,84.11,87.379,67.277l17.88,17.88L122.017,68.4l2.622,2.621Z" transform="translate(-18.626 -6.672)" fill="#273a89"/>
          <path id="Trazado_819312" data-name="Trazado 819312" d="M105.258,107.193,87.379,89.314,70.546,106.147,53.617,89.22,35.928,106.908l-17.5-17.5L2.621,105.218,0,102.6,18.429,84.167l17.5,17.5L53.617,83.977l16.929,16.929L87.379,84.073l17.88,17.879,16.759-16.759,2.622,2.621Z" transform="translate(-18.626 -5.398)" fill="#273a89"/>
        </g>
      </g>
      <circle id="Elipse_9903" data-name="Elipse 9903" cx="35.5" cy="35.5" r="35.5" transform="translate(287.266 1576.266)" fill="#fff"/>
    </g>
    <g id="g1104" transform="translate(304 2269.665)">
      <g id="g1106" transform="translate(0 -682.665)">
        <g id="g1108" clip-path="url(#clip-path-2)">
          <g id="g1114" transform="translate(34.31 2.894)">
            <path id="path1116" d="M-82.377-78.585A3.768,3.768,0,0,1-85.059-79.7a3.768,3.768,0,0,1-1.111-2.682,3.768,3.768,0,0,1,1.111-2.682,3.768,3.768,0,0,1,2.682-1.111A3.768,3.768,0,0,1-79.7-85.059a3.768,3.768,0,0,1,1.111,2.682A3.768,3.768,0,0,1-79.7-79.7,3.768,3.768,0,0,1-82.377-78.585Zm0-5.779a1.974,1.974,0,0,0-1.4.582,1.974,1.974,0,0,0-.582,1.4,1.974,1.974,0,0,0,.582,1.4,1.974,1.974,0,0,0,1.4.582,1.974,1.974,0,0,0,1.4-.582,1.974,1.974,0,0,0,.582-1.4,1.974,1.974,0,0,0-.582-1.4A1.974,1.974,0,0,0-82.377-84.364Z" transform="translate(86.17 86.17)"/>
          </g>
          <g id="g1118" transform="translate(4.339 35.755)">
            <path id="path1120" d="M-82.377-78.585A3.768,3.768,0,0,1-85.059-79.7a3.768,3.768,0,0,1-1.111-2.682,3.768,3.768,0,0,1,1.111-2.682,3.768,3.768,0,0,1,2.682-1.111A3.768,3.768,0,0,1-79.7-85.059a3.768,3.768,0,0,1,1.111,2.682A3.768,3.768,0,0,1-79.7-79.7,3.768,3.768,0,0,1-82.377-78.585Zm0-5.779a1.974,1.974,0,0,0-1.4.582,1.974,1.974,0,0,0-.582,1.4,1.974,1.974,0,0,0,.582,1.4,1.974,1.974,0,0,0,1.4.582,1.974,1.974,0,0,0,1.4-.582,1.974,1.974,0,0,0,.582-1.4,1.974,1.974,0,0,0-.582-1.4A1.974,1.974,0,0,0-82.377-84.364Z" transform="translate(86.17 86.17)"/>
          </g>
          <g id="g1122" transform="translate(17.833 8.109)">
            <path id="path1124" d="M-8.052-505.091a23.283,23.283,0,0,1-4.558-.45.9.9,0,0,1-.708-1.063.9.9,0,0,1,1.063-.708,21.457,21.457,0,0,0,4.2.415,21.335,21.335,0,0,0,21.311-21.311A21.346,21.346,0,0,0,8.413-541.74a.9.9,0,0,1,.124-1.271.9.9,0,0,1,1.271.124,23.155,23.155,0,0,1,5.258,14.678A23.144,23.144,0,0,1-8.052-505.091Z" transform="translate(13.336 543.216)"/>
          </g>
          <g id="g1126" transform="translate(0 0)">
            <path id="path1128" d="M-400.683,18.289a.9.9,0,0,1-.7-.329,23.156,23.156,0,0,1-5.258-14.679,23.144,23.144,0,0,1,23.117-23.117,23.285,23.285,0,0,1,4.6.458.9.9,0,0,1,.706,1.064.9.9,0,0,1-1.064.706,21.479,21.479,0,0,0-4.244-.423A21.335,21.335,0,0,0-404.833,3.281a21.345,21.345,0,0,0,4.846,13.531.9.9,0,0,1-.124,1.271A.9.9,0,0,1-400.683,18.289Z" transform="translate(406.639 19.836)"/>
          </g>
          <g id="g1130" transform="translate(6.681 6.682)">
            <path id="path1132" d="M-223.429-306.636h-5.646a.9.9,0,0,1-.9-.9v-1.751a14.141,14.141,0,0,1-3.389-1.4l-1.236,1.236a.9.9,0,0,1-.639.264.9.9,0,0,1-.639-.265l-3.991-3.994a.9.9,0,0,1,0-1.277l1.234-1.234a14.144,14.144,0,0,1-1.4-3.389h-1.744a.9.9,0,0,1-.639-.265.9.9,0,0,1-.264-.639l0-5.646a.9.9,0,0,1,.9-.9h1.741a14.141,14.141,0,0,1,1.4-3.389l-1.228-1.228a.9.9,0,0,1-.264-.639.9.9,0,0,1,.265-.639l3.994-3.991a.9.9,0,0,1,1.277,0l1.226,1.226a14.149,14.149,0,0,1,3.389-1.4V-338.6a.9.9,0,0,1,.9-.9h5.646a.9.9,0,0,1,.9.9v1.735a14.148,14.148,0,0,1,3.389,1.4l1.226-1.226a.9.9,0,0,1,1.277,0l3.994,3.991a.9.9,0,0,1,.265.639.9.9,0,0,1-.264.639l-1.228,1.228a14.141,14.141,0,0,1,1.4,3.389h1.744a.9.9,0,0,1,.9.9v5.646a.9.9,0,0,1-.9.9h-1.744a14.141,14.141,0,0,1-1.4,3.389l1.234,1.234a.9.9,0,0,1,0,1.277l-3.991,3.994a.9.9,0,0,1-.639.265.9.9,0,0,1-.639-.264l-1.236-1.236a14.144,14.144,0,0,1-3.389,1.4v1.751A.9.9,0,0,1-223.429-306.636Zm-4.743-1.806h3.84V-310a.9.9,0,0,1,.713-.883,12.362,12.362,0,0,0,4.128-1.711.9.9,0,0,1,1.129.12l1.1,1.1,2.714-2.717-1.1-1.1a.9.9,0,0,1-.12-1.129,12.366,12.366,0,0,0,1.71-4.128.9.9,0,0,1,.883-.713h1.551V-325h-1.552a.9.9,0,0,1-.883-.713,12.361,12.361,0,0,0-1.71-4.128.9.9,0,0,1,.12-1.129l1.091-1.091-2.716-2.714-1.091,1.091a.9.9,0,0,1-1.129.12,12.364,12.364,0,0,0-4.128-1.71.9.9,0,0,1-.713-.883V-337.7h-3.84v1.542a.9.9,0,0,1-.713.883,12.364,12.364,0,0,0-4.128,1.71.9.9,0,0,1-1.129-.12l-1.091-1.091-2.716,2.714,1.091,1.091a.9.9,0,0,1,.12,1.129,12.364,12.364,0,0,0-1.71,4.128.9.9,0,0,1-.883.713h-1.549l0,3.84h1.551a.9.9,0,0,1,.883.713,12.366,12.366,0,0,0,1.71,4.128.9.9,0,0,1-.12,1.129l-1.1,1.1,2.714,2.717,1.1-1.1a.9.9,0,0,1,1.129-.12,12.362,12.362,0,0,0,4.128,1.711.9.9,0,0,1,.713.883Zm1.92-7.167a7.47,7.47,0,0,1-7.462-7.462,7.47,7.47,0,0,1,7.462-7.462,7.47,7.47,0,0,1,7.462,7.462A7.47,7.47,0,0,1-226.252-315.609Zm0-13.117a5.662,5.662,0,0,0-5.656,5.656,5.662,5.662,0,0,0,5.656,5.656,5.662,5.662,0,0,0,5.656-5.656A5.662,5.662,0,0,0-226.252-328.726Z" transform="translate(242.689 339.506)"/>
          </g>
          <g id="g1134" transform="translate(31.432 2.512)">
            <path id="path1136" transform="translate(0)"/>
          </g>
          <g id="g1138" transform="translate(14.842 43.739)">
            <path id="path1140" transform="translate(0)"/>
          </g>
        </g>
      </g>
    </g>
  </g>
</svg>
