<svg xmlns="http://www.w3.org/2000/svg" xmlns:xlink="http://www.w3.org/1999/xlink" width="95.172" height="95.172" viewBox="0 0 95.172 95.172">
  <defs>
    <clipPath id="clip-path">
      <path id="Trazado_819313" data-name="Trazado 819313" d="M17.313,58.524A47.586,47.586,0,1,0,64.9,10.939,47.587,47.587,0,0,0,17.313,58.524" transform="translate(-17.313 -10.939)" fill="#273a89"/>
    </clipPath>
  </defs>
  <g id="Grupo_1074697" data-name="Grupo 1074697" transform="translate(-910 -1563)">
    <g id="Grupo_1074596" data-name="Grupo 1074596" transform="translate(634.82 -1.18)">
      <g id="Grupo_1074593" data-name="Grupo 1074593" transform="translate(275.18 1564.18)">
        <g id="Grupo_1072913" data-name="Grupo 1072913" clip-path="url(#clip-path)">
          <path id="Trazado_819307" data-name="Trazado 819307" d="M105.258,23.216,87.379,5.336,70.546,22.17,53.617,5.242,35.928,22.931l-17.5-17.5L2.621,21.24,0,18.619,18.429.19l17.5,17.5L53.617,0,70.546,16.928,87.379.095l17.88,17.88L122.017,1.216l2.622,2.62Z" transform="translate(-18.626 -11.769)" fill="#273a89"/>
          <path id="Trazado_819308" data-name="Trazado 819308" d="M105.258,40.011,87.379,22.133,70.546,38.964,53.617,22.037,35.928,39.726l-17.5-17.5L2.621,38.036,0,35.414,18.429,16.986l17.5,17.5L53.617,16.8,70.546,33.724,87.379,16.891l17.88,17.879,16.759-16.759,2.622,2.62Z" transform="translate(-18.626 -10.495)" fill="#273a89"/>
          <path id="Trazado_819309" data-name="Trazado 819309" d="M105.258,56.806,87.379,38.928,70.546,55.761,53.617,38.833,35.928,56.521l-17.5-17.5L2.621,54.831,0,52.209,18.429,33.781l17.5,17.5L53.617,33.59,70.546,50.519,87.379,33.686l17.88,17.879,16.759-16.759,2.622,2.621Z" transform="translate(-18.626 -9.221)" fill="#273a89"/>
          <path id="Trazado_819310" data-name="Trazado 819310" d="M105.258,73.6l-17.88-17.88L70.546,72.556,53.617,55.628,35.928,73.317l-17.5-17.5L2.621,71.626,0,69.005,18.429,50.577l17.5,17.5L53.617,50.387,70.546,67.315,87.379,50.481l17.88,17.88L122.017,51.6l2.622,2.621Z" transform="translate(-18.626 -7.946)" fill="#273a89"/>
          <path id="Trazado_819311" data-name="Trazado 819311" d="M105.258,90.4l-17.88-17.88L70.546,89.351,53.617,72.423,35.928,90.113l-17.5-17.5L2.621,88.422,0,85.8l18.428-18.43,17.5,17.5L53.617,67.182,70.546,84.11,87.379,67.277l17.88,17.88L122.017,68.4l2.622,2.621Z" transform="translate(-18.626 -6.672)" fill="#273a89"/>
          <path id="Trazado_819312" data-name="Trazado 819312" d="M105.258,107.193,87.379,89.314,70.546,106.147,53.617,89.22,35.928,106.908l-17.5-17.5L2.621,105.218,0,102.6,18.429,84.167l17.5,17.5L53.617,83.977l16.929,16.929L87.379,84.073l17.88,17.879,16.759-16.759,2.622,2.621Z" transform="translate(-18.626 -5.398)" fill="#273a89"/>
        </g>
      </g>
      <circle id="Elipse_9903" data-name="Elipse 9903" cx="35.5" cy="35.5" r="35.5" transform="translate(287.266 1576.266)" fill="#fff"/>
    </g>
    <g id="Grupo_20913" data-name="Grupo 20913" transform="translate(937 1588)">
      <g id="Grupo_20911" data-name="Grupo 20911" transform="translate(0)">
        <path id="Trazado_4479" data-name="Trazado 4479" d="M1423.442,299.1a.36.36,0,0,1-.024-.72c.119-.008,11.994-.9,18.789-8.745,3.572-4.122,5.143-9.442,4.668-15.814-.94-12.614-11.272-18.2-20.465-18.04s-18.676,5.828-19.189,18.157c.291,6.513,3.3,11.549,8.479,14.178a17.79,17.79,0,0,0,17.412-.948,13.8,13.8,0,0,0,6.121-13.06c-.522-7.162-7.289-10.75-13.382-10.492-4.866.207-10.516,3.033-10.427,10.318.045,3.722,1.677,6.489,4.6,7.792a9.2,9.2,0,0,0,9.415-1.264,5.881,5.881,0,0,0,1.711-6.4c-1.557-3.35-3.9-3.439-5.164-3.192-1.788.349-3.176,1.715-3.222,2.7a.36.36,0,1,1-.72-.033c.067-1.44,1.809-2.986,3.8-3.376,1.185-.231,4.139-.342,5.968,3.622a.324.324,0,0,1,.018.049,6.573,6.573,0,0,1-1.921,7.169,9.955,9.955,0,0,1-10.183,1.379c-3.19-1.424-4.974-4.422-5.023-8.442a10.326,10.326,0,0,1,3.359-8.15,12.484,12.484,0,0,1,7.758-2.9c6.437-.273,13.577,3.545,14.132,11.16a14.493,14.493,0,0,1-6.44,13.712,18.53,18.53,0,0,1-18.138.99c-5.423-2.755-8.575-8.013-8.874-14.8,0-.01,0-.02,0-.031a18.876,18.876,0,0,1,6.476-14.028,21.2,21.2,0,0,1,13.421-4.835,21.909,21.909,0,0,1,13.991,4.549,19.352,19.352,0,0,1,7.205,14.159c.49,6.572-1.141,12.071-4.845,16.344-3.66,4.221-8.709,6.44-12.3,7.558a33.373,33.373,0,0,1-6.983,1.43Z" transform="translate(-1406.5 -255.054)" fill="#12263f"/>
        <path id="Trazado_4479_-_Contorno" data-name="Trazado 4479 - Contorno" d="M1423.442,300.1a1.36,1.36,0,0,1-.092-2.718,32.8,32.8,0,0,0,6.7-1.405,29.97,29.97,0,0,0,5.895-2.55,21.21,21.21,0,0,0,5.5-4.447c3.391-3.913,4.881-8.989,4.426-15.085a19.179,19.179,0,0,0-2.135-7.671,16.733,16.733,0,0,0-4.465-5.3,19.041,19.041,0,0,0-5.951-3.121,21.327,21.327,0,0,0-6.54-1.022q-.181,0-.36,0a19.623,19.623,0,0,0-12.224,4.282,15.9,15.9,0,0,0-4.16,5.3,19.077,19.077,0,0,0-1.821,7.577,17.014,17.014,0,0,0,2.265,8.034,13.733,13.733,0,0,0,5.667,5.255,16.8,16.8,0,0,0,16.405-.889,12.487,12.487,0,0,0,4.491-5.133,13.962,13.962,0,0,0,1.186-7.021,9.488,9.488,0,0,0-3.947-7.116,13.417,13.417,0,0,0-7.823-2.462c-.191,0-.384,0-.573.012a10.994,10.994,0,0,0-6.481,2.28,8.457,8.457,0,0,0-2.989,7.027,8.585,8.585,0,0,0,1.082,4.307,6.294,6.294,0,0,0,2.922,2.584,8.034,8.034,0,0,0,3.252.666,7.8,7.8,0,0,0,5.1-1.769,4.855,4.855,0,0,0,1.431-5.292c-.829-1.744-1.961-2.629-3.365-2.629a3.49,3.49,0,0,0-.668.066,3.122,3.122,0,0,0-2.415,1.767,1.357,1.357,0,0,1-1.354,1.3l-.073,0a1.36,1.36,0,0,1-1.29-1.423,4.1,4.1,0,0,1,1.514-2.783,6.652,6.652,0,0,1,3.1-1.528,6.082,6.082,0,0,1,1.163-.112c1.464,0,4.177.558,5.9,4.291a1.338,1.338,0,0,1,.073.193,8.217,8.217,0,0,1,.132,4.5,7.422,7.422,0,0,1-2.355,3.7,10.565,10.565,0,0,1-6.9,2.438,10.747,10.747,0,0,1-4.351-.9,8.963,8.963,0,0,1-4.141-3.649,12.26,12.26,0,0,1,2.223-14.6,13.483,13.483,0,0,1,8.378-3.147c.228-.01.46-.015.689-.015a16.683,16.683,0,0,1,4.97.756,15.047,15.047,0,0,1,4.515,2.268,12.108,12.108,0,0,1,5,9.077,16.646,16.646,0,0,1-1.438,8.388,15.174,15.174,0,0,1-5.446,6.23,19.537,19.537,0,0,1-19.144,1.049,16.414,16.414,0,0,1-6.763-6.266A19.724,19.724,0,0,1,1405.5,274v-.008c0-.034,0-.068,0-.1v-.005a19.851,19.851,0,0,1,6.827-14.748,22.2,22.2,0,0,1,14.053-5.074c.138,0,.277,0,.415,0a22.894,22.894,0,0,1,14.214,4.769,20.327,20.327,0,0,1,7.581,14.868c.51,6.847-1.2,12.591-5.087,17.073-3.815,4.4-9.043,6.7-12.757,7.858a34.375,34.375,0,0,1-7.213,1.473C1423.5,300.1,1423.474,300.1,1423.442,300.1Z" transform="translate(-1406.5 -255.054)" fill="#12263f"/>
      </g>
      <g id="Grupo_20912" data-name="Grupo 20912" transform="matrix(-0.07, 0.998, -0.998, -0.07, 20.074, 41.592)">
        <path id="Trazado_4480" data-name="Trazado 4480" d="M.09.329A.222.222,0,0,1,.4.375L2.422,3.1,4.038.117a.222.222,0,1,1,.39.211L2.647,3.62a.222.222,0,0,1-.374.027L.044.64A.225.225,0,0,1,0,.523.223.223,0,0,1,.09.329Z" transform="translate(0 0)" fill="#12263f"/>
        <path id="Trazado_4480_-_Contorno" data-name="Trazado 4480 - Contorno" d="M4.234-1A1.222,1.222,0,0,1,5.309.8L3.526,4.1a1.217,1.217,0,0,1-.839.617l-.133.246-.166-.224a1.228,1.228,0,0,1-.917-.491L-.764,1.23A1.225,1.225,0,0,1-1,.6V.592A1.218,1.218,0,0,1-.507-.473,1.213,1.213,0,0,1,.221-.715a1.227,1.227,0,0,1,.983.5L2.29,1.245l.869-1.6A1.222,1.222,0,0,1,4.234-1Z" transform="translate(0 0)" fill="#12263f"/>
      </g>
    </g>
  </g>
</svg>
