<svg xmlns="http://www.w3.org/2000/svg" width="102" height="116" viewBox="0 0 102 116">
  <g id="Grupo_1074736" data-name="Grupo 1074736" transform="translate(-216 -423)">
    <rect id="Rectángulo_383413" data-name="Rectángulo 383413" width="102" height="116" rx="12" transform="translate(216 423)" fill="#3ee2a8"/>
    <g id="codigo-" transform="translate(226 439.426)">
      <rect id="Rectángulo_383774" data-name="Rectángulo 383774" width="6.949" height="2.417" transform="translate(43.514 20.913)" fill="#b2b2b2"/>
      <g id="Grupo_1074731" data-name="Grupo 1074731" transform="translate(30.63 20.913)">
        <rect id="Rectángulo_383775" data-name="Rectángulo 383775" width="5.631" height="2.417" transform="translate(0 20.624)" fill="#f8bf3b"/>
        <rect id="Rectángulo_383776" data-name="Rectángulo 383776" width="3.626" height="2.417" transform="translate(6.84)" fill="#f8bf3b"/>
      </g>
      <rect id="Rectángulo_383777" data-name="Rectángulo 383777" width="3.626" height="2.417" transform="translate(6.044 1.574)" fill="#f42222"/>
      <rect id="Rectángulo_383778" data-name="Rectángulo 383778" width="8.461" height="2.417" transform="translate(12.087 1.574)"/>
      <rect id="Rectángulo_383779" data-name="Rectángulo 383779" width="13.296" height="2.417" transform="translate(22.966 1.574)" fill="#b2b2b2"/>
      <rect id="Rectángulo_383780" data-name="Rectángulo 383780" width="7.252" height="2.417" transform="translate(6.044 7.617)" fill="#f8bf3b"/>
      <rect id="Rectángulo_383781" data-name="Rectángulo 383781" width="12.087" height="2.417" transform="translate(15.713 7.617)" fill="#f42222"/>
      <rect id="Rectángulo_383782" data-name="Rectángulo 383782" width="2.417" height="2.417" transform="translate(30.218 7.617)"/>
      <rect id="Rectángulo_383783" data-name="Rectángulo 383783" width="2.417" height="2.417" transform="translate(35.053 7.617)" fill="#f8bf3b"/>
      <rect id="Rectángulo_383784" data-name="Rectángulo 383784" width="2.417" height="2.417" transform="translate(39.888 7.617)"/>
      <rect id="Rectángulo_383785" data-name="Rectángulo 383785" width="2.417" height="2.417" transform="translate(44.722 7.617)" fill="#b2b2b2"/>
      <path id="Trazado_827976" data-name="Trazado 827976" d="M357.6,301.067l19.444,19.444,3.419-3.419-19.23-19.23" transform="translate(-300.691 -249.134)" fill="#38d6c7"/>
      <path id="Trazado_827977" data-name="Trazado 827977" d="M173.936,87.212a18.131,18.131,0,1,0,0,25.641A18.131,18.131,0,0,0,173.936,87.212Zm-2.564,23.077a14.5,14.5,0,1,1,0-20.513A14.5,14.5,0,0,1,171.372,110.289Z" transform="translate(-120.229 -67.543)" fill="#566573"/>
      <path id="Trazado_827978" data-name="Trazado 827978" d="M383.846,326.181l3.419-3.419-3.419-3.419-3.419,3.419" transform="translate(-319.882 -267.197)" fill="#fff"/>
      <path id="Trazado_827979" data-name="Trazado 827979" d="M173.888,128.519A15.713,15.713,0,1,1,185,101.694h0a15.713,15.713,0,0,1-11.111,26.824Zm0-29.009a13.3,13.3,0,1,0,9.4,3.894A13.208,13.208,0,0,0,173.888,99.509Z" transform="translate(-133.002 -80.316)"/>
      <path id="Trazado_827980" data-name="Trazado 827980" d="M174.118,93.647a19.341,19.341,0,1,0-6.546,14.5l1.736,1.736,1.709-1.709-1.736-1.736A19.2,19.2,0,0,0,174.118,93.647Zm-31.305,11.966a16.922,16.922,0,1,1,23.931-23.931h0a16.922,16.922,0,1,1-23.931,23.931Z" transform="translate(-113.891 -61.158)"/>
      <path id="Trazado_827981" data-name="Trazado 827981" d="M369.755,303.546l-19.23-19.23.855-.855-1.709-1.709-6.838,6.837,1.709,1.709.855-.855,19.231,19.23Zm-5.128,1.709-10.684-10.684,1.709-1.709,10.684,10.684Zm-12.393-12.393-1.709-1.709,1.709-1.709,1.709,1.709Zm-3.419-6.838,1.709,1.709-1.709,1.709-1.709-1.709Z" transform="translate(-288.271 -235.588)"/>
      <rect id="Rectángulo_383786" data-name="Rectángulo 383786" width="15.713" height="2.417" transform="translate(6.044 13.661)"/>
      <rect id="Rectángulo_383787" data-name="Rectángulo 383787" width="2.417" height="2.417" transform="translate(24.174 13.661)" fill="#f8bf3b"/>
      <rect id="Rectángulo_383788" data-name="Rectángulo 383788" width="3.626" height="2.417" transform="translate(6.044 19.704)" fill="#f42222"/>
      <rect id="Rectángulo_383789" data-name="Rectángulo 383789" width="4.835" height="2.417" transform="translate(12.087 19.704)" fill="#f8bf3b"/>
      <rect id="Rectángulo_383790" data-name="Rectángulo 383790" width="2.417" height="2.417" transform="translate(19.339 19.704)"/>
      <rect id="Rectángulo_383791" data-name="Rectángulo 383791" width="7.252" height="2.417" transform="translate(6.044 25.748)"/>
      <g id="Grupo_1074732" data-name="Grupo 1074732" transform="translate(15.713 19.704)">
        <rect id="Rectángulo_383792" data-name="Rectángulo 383792" width="4.835" height="2.417" transform="translate(0 6.044)" fill="#f42222"/>
        <rect id="Rectángulo_383793" data-name="Rectángulo 383793" width="6.044" height="2.417" transform="translate(43.514)" fill="#f42222"/>
      </g>
      <rect id="Rectángulo_383794" data-name="Rectángulo 383794" width="2.417" height="2.417" transform="translate(61.644 25.748)" fill="#b2b2b2"/>
      <rect id="Rectángulo_383795" data-name="Rectángulo 383795" width="2.417" height="2.417" transform="translate(66.479 25.748)" fill="#f8bf3b"/>
      <rect id="Rectángulo_383796" data-name="Rectángulo 383796" width="2.417" height="2.417" transform="translate(71.314 25.748)" fill="#b2b2b2"/>
      <rect id="Rectángulo_383797" data-name="Rectángulo 383797" width="13.296" height="2.417" transform="translate(6.044 31.791)" fill="#f8bf3b"/>
      <rect id="Rectángulo_383798" data-name="Rectángulo 383798" width="4.835" height="2.417" transform="translate(62.853 31.791)"/>
      <rect id="Rectángulo_383799" data-name="Rectángulo 383799" width="2.417" height="2.417" transform="translate(0 1.574)" fill="#566573"/>
      <rect id="Rectángulo_383800" data-name="Rectángulo 383800" width="2.417" height="2.417" transform="translate(0 7.617)"/>
      <rect id="Rectángulo_383801" data-name="Rectángulo 383801" width="2.417" height="2.417" transform="translate(0 13.661)" fill="#566573"/>
      <rect id="Rectángulo_383802" data-name="Rectángulo 383802" width="2.417" height="2.417" transform="translate(0 19.704)"/>
      <rect id="Rectángulo_383803" data-name="Rectángulo 383803" width="2.417" height="2.417" transform="translate(0 25.748)" fill="#566573"/>
      <rect id="Rectángulo_383804" data-name="Rectángulo 383804" width="2.417" height="2.417" transform="translate(0 31.791)"/>
      <rect id="Rectángulo_383805" data-name="Rectángulo 383805" width="2.417" height="2.417" transform="translate(0 37.835)" fill="#566573"/>
      <rect id="Rectángulo_383806" data-name="Rectángulo 383806" width="2.417" height="2.417" transform="translate(0 43.879)"/>
      <rect id="Rectángulo_383807" data-name="Rectángulo 383807" width="2.417" height="2.417" transform="translate(0 49.922)" fill="#566573"/>
      <rect id="Rectángulo_383808" data-name="Rectángulo 383808" width="2.417" height="2.417" transform="translate(0 55.966)"/>
      <rect id="Rectángulo_383809" data-name="Rectángulo 383809" width="2.417" height="2.417" transform="translate(0 62.009)" fill="#566573"/>
      <rect id="Rectángulo_383810" data-name="Rectángulo 383810" width="2.417" height="2.417" transform="translate(0 68.053)"/>
      <rect id="Rectángulo_383811" data-name="Rectángulo 383811" width="2.417" height="2.417" transform="translate(0 74.096)" fill="#566573"/>
      <rect id="Rectángulo_383812" data-name="Rectángulo 383812" width="2.417" height="2.417" transform="translate(0 80.14)"/>
      <rect id="Rectángulo_383813" data-name="Rectángulo 383813" width="2.417" height="2.417" transform="translate(6.044 37.835)"/>
      <rect id="Rectángulo_383814" data-name="Rectángulo 383814" width="6.044" height="2.417" transform="translate(10.878 37.835)" fill="#b2b2b2"/>
      <rect id="Rectángulo_383815" data-name="Rectángulo 383815" width="14.505" height="2.417" transform="translate(6.044 43.879)" fill="#f42222"/>
      <rect id="Rectángulo_383816" data-name="Rectángulo 383816" width="3.626" height="2.417" transform="translate(6.044 49.922)" fill="#b2b2b2"/>
      <rect id="Rectángulo_383817" data-name="Rectángulo 383817" width="10.878" height="2.417" transform="translate(12.087 49.922)" fill="#f8bf3b"/>
      <rect id="Rectángulo_383818" data-name="Rectángulo 383818" width="3.626" height="2.417" transform="translate(25.383 49.922)"/>
      <g id="Grupo_1074733" data-name="Grupo 1074733" transform="translate(31.427 26.957)">
        <path id="Trazado_827982" data-name="Trazado 827982" d="M201.092,171.944h-2.417v-8.461h-1.209v-2.417h3.626Z" transform="translate(-197.466 -161.066)" fill="#f42222"/>
        <path id="Trazado_827983" data-name="Trazado 827983" d="M299.825,171.944h-2.417v-8.461H296.2v-2.417h3.626Z" transform="translate(-280.486 -161.066)" fill="#f42222"/>
        <path id="Trazado_827984" data-name="Trazado 827984" d="M239.066,161.066a3.63,3.63,0,0,0-3.626,3.626v3.626a3.626,3.626,0,1,0,7.252,0v-3.626A3.631,3.631,0,0,0,239.066,161.066Zm0,2.417a1.209,1.209,0,0,1,1.091.692l-2.3,1.725v-1.209A1.21,1.21,0,0,1,239.066,163.483Zm0,6.044a1.209,1.209,0,0,1-1.091-.692l2.3-1.725v1.209A1.21,1.21,0,0,1,239.066,169.527Z" transform="translate(-229.396 -161.066)" fill="#f42222"/>
      </g>
      <rect id="Rectángulo_383819" data-name="Rectángulo 383819" width="4.835" height="2.417" transform="translate(38.679 41.461)" fill="#b2b2b2"/>
      <rect id="Rectángulo_383820" data-name="Rectángulo 383820" width="10.878" height="2.417" transform="translate(6.044 55.966)"/>
      <rect id="Rectángulo_383821" data-name="Rectángulo 383821" width="16.922" height="2.417" transform="translate(19.339 55.966)" fill="#f42222"/>
      <rect id="Rectángulo_383822" data-name="Rectángulo 383822" width="7.554" height="2.417" transform="translate(38.376 55.966)" fill="#f8bf3b"/>
      <g id="Grupo_1074734" data-name="Grupo 1074734" transform="translate(6.044 55.966)">
        <rect id="Rectángulo_383823" data-name="Rectángulo 383823" width="2.417" height="2.417" transform="translate(42.305)" fill="#b2b2b2"/>
        <rect id="Rectángulo_383824" data-name="Rectángulo 383824" width="2.417" height="2.417" transform="translate(47.14)" fill="#b2b2b2"/>
        <rect id="Rectángulo_383825" data-name="Rectángulo 383825" width="2.417" height="2.417" transform="translate(0 6.044)" fill="#b2b2b2"/>
      </g>
      <rect id="Rectángulo_383826" data-name="Rectángulo 383826" width="12.087" height="2.417" transform="translate(10.878 62.009)" fill="#f8bf3b"/>
      <rect id="Rectángulo_383827" data-name="Rectángulo 383827" width="2.417" height="2.417" transform="translate(25.383 62.009)"/>
      <rect id="Rectángulo_383828" data-name="Rectángulo 383828" width="2.417" height="2.417" transform="translate(30.218 62.009)" fill="#f42222"/>
      <rect id="Rectángulo_383829" data-name="Rectángulo 383829" width="2.417" height="2.417" transform="translate(35.053 62.009)" fill="#b2b2b2"/>
      <rect id="Rectángulo_383830" data-name="Rectángulo 383830" width="2.417" height="2.417" transform="translate(39.888 62.009)" fill="#f42222"/>
      <rect id="Rectángulo_383831" data-name="Rectángulo 383831" width="8.461" height="2.417" transform="translate(6.044 68.053)"/>
      <rect id="Rectángulo_383832" data-name="Rectángulo 383832" width="25.383" height="2.417" transform="translate(6.044 74.096)" fill="#b2b2b2"/>
      <g id="Grupo_1074735" data-name="Grupo 1074735" transform="translate(6.044 74.096)">
        <rect id="Rectángulo_383833" data-name="Rectángulo 383833" width="7.252" height="2.417" transform="translate(27.8)" fill="#f42222"/>
        <rect id="Rectángulo_383834" data-name="Rectángulo 383834" width="6.044" height="2.417" transform="translate(0 6.044)" fill="#f42222"/>
      </g>
      <rect id="Rectángulo_383835" data-name="Rectángulo 383835" width="2.417" height="2.417" transform="translate(14.505 80.14)" fill="#b2b2b2"/>
      <rect id="Rectángulo_383836" data-name="Rectángulo 383836" width="2.417" height="2.417" transform="translate(19.339 80.14)" fill="#f8bf3b"/>
      <rect id="Rectángulo_383837" data-name="Rectángulo 383837" width="2.417" height="2.417" transform="translate(24.174 80.14)"/>
      <rect id="Rectángulo_383838" data-name="Rectángulo 383838" width="2.417" height="2.417" transform="translate(29.009 80.14)" fill="#f8bf3b"/>
      <rect id="Rectángulo_383839" data-name="Rectángulo 383839" width="2.417" height="2.417" transform="translate(33.844 80.14)" fill="#b2b2b2"/>
    </g>
  </g>
</svg>
