<svg xmlns="http://www.w3.org/2000/svg" xmlns:xlink="http://www.w3.org/1999/xlink" width="295" height="243.688" viewBox="0 0 295 243.688">
  <defs>
    <clipPath id="clip-path">
      <rect id="Rectángulo_383841" data-name="Rectángulo 383841" width="295" height="104" rx="9" transform="translate(1020 660)" fill="#3ee2a8"/>
    </clipPath>
    <clipPath id="clip-path-2">
      <rect id="Rectángulo_383840" data-name="Rectángulo 383840" width="295" height="207.552" transform="translate(0 0)" fill="none"/>
    </clipPath>
  </defs>
  <g id="Grupo_1074954" data-name="Grupo 1074954" transform="translate(-1020 -660)">
    <rect id="Rectángulo_383768" data-name="Rectángulo 383768" width="295" height="104" rx="9" transform="translate(1020 660)" fill="#3ee2a8"/>
    <g id="Enmascarar_grupo_194" data-name="Enmascarar grupo 194" clip-path="url(#clip-path)">
      <g id="Grupo_1074739" data-name="Grupo 1074739" transform="translate(2362.895 11537.791)">
        <path id="Trazado_819307" data-name="Trazado 819307" d="M273.62,60.35,227.142,13.872l-43.757,43.76L139.378,13.626,93.394,59.609,47.905,14.121,6.813,55.213,0,48.4,47.905.495,93.394,45.981,139.378,0l44.006,44L227.142.246,273.62,46.725,317.185,3.16,324,9.97Z" transform="translate(-1357.395 -10995.193)" fill="#fff"/>
        <path id="Trazado_819308" data-name="Trazado 819308" d="M273.62,77.146,227.142,30.67,183.384,74.424l-44.006-44L93.394,76.4,47.905,30.916,6.813,72.011,0,65.2,47.905,17.29,93.394,62.779,139.378,16.8,183.384,60.8l43.757-43.758L273.62,63.52l43.564-43.565L324,26.766Z" transform="translate(-1357.395 -10965.017)" fill="#fff"/>
        <path id="Trazado_819309" data-name="Trazado 819309" d="M273.62,93.941,227.142,47.465,183.384,91.222l-44.006-44L93.394,93.2,47.905,47.711,6.813,88.806,0,81.99,47.905,34.085,93.394,79.574,139.378,33.59,183.384,77.6l43.757-43.757L273.62,80.315l43.564-43.564L324,43.564Z" transform="translate(-1357.395 -10934.84)" fill="#fff"/>
        <path id="Trazado_819310" data-name="Trazado 819310" d="M273.62,110.737,227.142,64.258l-43.757,43.758-44.006-44L93.394,110,47.905,64.5,6.813,105.6,0,98.787,47.905,50.882,93.394,96.37l45.984-45.984,44.006,44.006,43.757-43.76L273.62,97.111l43.564-43.567L324,60.357Z" transform="translate(-1357.395 -10904.662)" fill="#fff"/>
        <path id="Trazado_819311" data-name="Trazado 819311" d="M273.62,127.532,227.142,81.053l-43.757,43.758-44.006-44L93.394,126.791,47.905,81.3,6.813,122.4,0,115.585,47.905,67.677l45.489,45.489,45.984-45.984,44.006,44.006,43.757-43.757,46.479,46.479,43.564-43.567L324,77.155Z" transform="translate(-1357.395 -10874.485)" fill="#fff"/>
        <path id="Trazado_819312" data-name="Trazado 819312" d="M273.62,144.327,227.142,97.852l-43.757,43.757-44.006-44L93.394,143.586,47.905,98.1l-41.092,41.1L0,132.377,47.905,84.472l45.489,45.489,45.984-45.984,44.006,44.006,43.757-43.758L273.62,130.7l43.564-43.565L324,93.95Z" transform="translate(-1357.395 -10844.309)" fill="#fff"/>
      </g>
    </g>
    <g id="Grupo_1074737" data-name="Grupo 1074737" transform="translate(1020 696.141)">
      <g id="Grupo_1074737-2" data-name="Grupo 1074737" transform="translate(0 -0.005)" clip-path="url(#clip-path-2)">
        <path id="Trazado_827985" data-name="Trazado 827985" d="M289.684,926.3H47.845a15.386,15.386,0,0,1-11.657-5.344L1.3,880.453a5.305,5.305,0,0,1,4.019-8.768H247.155a15.386,15.386,0,0,1,11.657,5.344l34.892,40.5a5.305,5.305,0,0,1-4.02,8.768" transform="translate(0 -755.699)" fill="#f5d0bc"/>
        <path id="Trazado_827986" data-name="Trazado 827986" d="M301.251,934.221H54.873A15.593,15.593,0,0,1,43.05,928.8l-35.5-41.235a.219.219,0,1,1,.332-.286l35.5,41.235a15.153,15.153,0,0,0,11.491,5.268H301.251a.219.219,0,1,1,0,.438" transform="translate(-6.497 -769.153)" fill="#2e1616"/>
        <path id="Trazado_827987" data-name="Trazado 827987" d="M373.781,264.82H254.174a2.741,2.741,0,0,1-2.72-2.631l-2.672-79.624a2.528,2.528,0,0,1,2.543-2.632H370.932a2.741,2.741,0,0,1,2.72,2.632l2.672,79.624a2.528,2.528,0,0,1-2.543,2.631" transform="translate(-215.677 -155.991)" fill="#4a3131"/>
        <path id="Trazado_827988" data-name="Trazado 827988" d="M273.468,280.739a.165.165,0,0,1-.164-.159L270.657,201.7a3.222,3.222,0,0,1,3.241-3.353H392.4a.164.164,0,1,1,0,.329H273.9a2.893,2.893,0,0,0-2.912,3.013l2.648,78.884a.165.165,0,0,1-.159.17Z" transform="translate(-234.642 -171.951)" fill="#c2a394"/>
        <path id="Trazado_827989" data-name="Trazado 827989" d="M612.264,924.03H573.722a1.65,1.65,0,0,1-1.225-.553l-5.173-5.779a1.556,1.556,0,0,1,1.118-2.631h38.543a1.649,1.649,0,0,1,1.224.553l5.173,5.779a1.556,1.556,0,0,1-1.118,2.63" transform="translate(-491.469 -793.309)" fill="#4a3131"/>
        <path id="Trazado_827990" data-name="Trazado 827990" d="M709,816.38h-12.57l-.718-21.385h12.57Z" transform="translate(-603.144 -689.213)" fill="#4a3131"/>
        <path id="Trazado_827991" data-name="Trazado 827991" d="M696.918,818.114h12.188a.165.165,0,0,0,0-.329H696.918a.165.165,0,0,0,0,.329" transform="translate(-604.049 -708.971)" fill="#c2a394"/>
        <path id="Trazado_827992" data-name="Trazado 827992" d="M699.13,938.856H711.9a.165.165,0,0,0,0-.329H699.13a.165.165,0,0,0,0,.329" transform="translate(-605.967 -813.647)" fill="#c2a394"/>
        <path id="Trazado_827993" data-name="Trazado 827993" d="M618.994,963.8h36.295a.165.165,0,0,0,0-.329H618.994a.165.165,0,0,0,0,.329" transform="translate(-536.494 -835.275)" fill="#c2a394"/>
        <path id="Trazado_827994" data-name="Trazado 827994" d="M698.149,915.534q.052,1.544.1,3.086c.007.211.336.212.329,0q-.052-1.543-.1-3.086c-.007-.211-.336-.212-.329,0" transform="translate(-605.254 -793.576)" fill="#c2a394"/>
        <path id="Trazado_827995" data-name="Trazado 827995" d="M794.15,915.534l.1,3.086c.007.211.336.212.329,0q-.052-1.543-.1-3.086c-.007-.211-.336-.212-.329,0" transform="translate(-688.482 -793.576)" fill="#c2a394"/>
        <path id="Trazado_827996" data-name="Trazado 827996" d="M574.231,915.593c1.981,2.134,3.935,4.293,5.938,6.406.146.154.378-.079.233-.233-2-2.113-3.958-4.271-5.939-6.406-.144-.156-.377.078-.232.233" transform="translate(-497.785 -793.519)" fill="#c2a394"/>
        <path id="Trazado_827997" data-name="Trazado 827997" d="M479.558,82.282H363.826a2.741,2.741,0,0,1-2.72-2.632L358.521,2.627a2.528,2.528,0,0,1,2.543-2.632H476.8a2.741,2.741,0,0,1,2.72,2.632L482.1,79.65a2.528,2.528,0,0,1-2.543,2.632" transform="translate(-310.816 0.005)" fill="#fff1de"/>
        <path id="Trazado_827998" data-name="Trazado 827998" d="M698.935,158.976H642.178a3.655,3.655,0,0,1-3.626-3.509l-.269-8.012a3.37,3.37,0,0,1,3.391-3.509H698.43a3.655,3.655,0,0,1,3.626,3.509l.269,8.012a3.37,3.37,0,0,1-3.391,3.509" transform="translate(-553.352 -124.792)" fill="#d6ae9a"/>
        <path id="Trazado_827999" data-name="Trazado 827999" d="M479.817,11.586h-121l-.3-8.959A2.528,2.528,0,0,1,361.064,0H476.8a2.741,2.741,0,0,1,2.72,2.632Z" transform="translate(-310.816 0.004)" fill="#4a3131"/>
        <path id="Trazado_828000" data-name="Trazado 828000" d="M522.127,171.427a5.546,5.546,0,0,1-5.5-5.318,5.14,5.14,0,0,1,5.168-5.348,5.546,5.546,0,0,1,5.5,5.318,5.14,5.14,0,0,1-5.168,5.348m-.328-9.789a4.263,4.263,0,0,0-4.292,4.441,4.662,4.662,0,0,0,4.62,4.471,4.263,4.263,0,0,0,4.292-4.441,4.662,4.662,0,0,0-4.621-4.471" transform="translate(-447.885 -139.37)" fill="#b39789"/>
        <path id="Trazado_828001" data-name="Trazado 828001" d="M703.585,297.529H646.828a3.655,3.655,0,0,1-3.626-3.509l-.269-8.012a3.37,3.37,0,0,1,3.391-3.509H703.08a3.655,3.655,0,0,1,3.626,3.509l.269,8.012a3.371,3.371,0,0,1-3.391,3.509" transform="translate(-557.384 -244.909)" fill="#43785e"/>
        <path id="Trazado_828002" data-name="Trazado 828002" d="M526.761,309.545a5.546,5.546,0,0,1-5.5-5.318,5.14,5.14,0,0,1,5.168-5.348,5.546,5.546,0,0,1,5.5,5.318,5.14,5.14,0,0,1-5.168,5.348m-.328-9.789a4.263,4.263,0,0,0-4.292,4.441,4.662,4.662,0,0,0,4.62,4.471,4.263,4.263,0,0,0,4.292-4.441,4.662,4.662,0,0,0-4.62-4.47" transform="translate(-451.903 -259.11)" fill="#b39789"/>
        <path id="Trazado_828003" data-name="Trazado 828003" d="M708.235,436.082H651.478a3.654,3.654,0,0,1-3.626-3.509l-.269-8.012a3.371,3.371,0,0,1,3.391-3.509H707.73a3.655,3.655,0,0,1,3.627,3.509l.269,8.012a3.37,3.37,0,0,1-3.391,3.509" transform="translate(-561.415 -365.027)" fill="#d6ae9a"/>
        <path id="Trazado_828004" data-name="Trazado 828004" d="M531.383,447.271a5.546,5.546,0,0,1-5.5-5.318,5.139,5.139,0,0,1,5.168-5.348,5.546,5.546,0,0,1,5.5,5.318,5.14,5.14,0,0,1-5.168,5.348m-.328-9.789a4.263,4.263,0,0,0-4.292,4.441,4.662,4.662,0,0,0,4.62,4.47,4.263,4.263,0,0,0,4.292-4.441,4.662,4.662,0,0,0-4.621-4.471" transform="translate(-455.91 -378.51)" fill="#b39789"/>
        <path id="Trazado_828005" data-name="Trazado 828005" d="M1205.361,27.595a2.352,2.352,0,0,1-2.367,2.449,2.55,2.55,0,0,1-2.531-2.449,2.352,2.352,0,0,1,2.366-2.449,2.551,2.551,0,0,1,2.531,2.449" transform="translate(-1040.73 -21.799)" fill="#fff1de"/>
        <path id="Trazado_828006" data-name="Trazado 828006" d="M1134.816,27.595a2.352,2.352,0,0,1-2.367,2.449,2.551,2.551,0,0,1-2.531-2.449,2.352,2.352,0,0,1,2.366-2.449,2.551,2.551,0,0,1,2.531,2.449" transform="translate(-979.572 -21.799)" fill="#fff1de"/>
        <path id="Trazado_828007" data-name="Trazado 828007" d="M936.543,172.614h18.138a.439.439,0,0,0,0-.877H936.543a.439.439,0,0,0,0,.877" transform="translate(-811.56 -148.885)" fill="#fff8f5"/>
        <path id="Trazado_828008" data-name="Trazado 828008" d="M677.816,172.614h24.061a.439.439,0,0,0,0-.877H677.816a.439.439,0,0,0,0,.877" transform="translate(-587.259 -148.885)" fill="#fff8f5"/>
        <path id="Trazado_828009" data-name="Trazado 828009" d="M678.64,197.16H731.2a.439.439,0,0,0,0-.877H678.64a.439.439,0,0,0,0,.877" transform="translate(-587.973 -170.165)" fill="#fff8f5"/>
        <path id="Trazado_828010" data-name="Trazado 828010" d="M1035.561,221.7h5.182a.439.439,0,0,0,0-.877h-5.182a.439.439,0,0,0,0,.877" transform="translate(-897.403 -191.443)" fill="#fff8f5"/>
        <path id="Trazado_828011" data-name="Trazado 828011" d="M679.463,221.7H716.11a.439.439,0,0,0,0-.877H679.463a.439.439,0,0,0,0,.877" transform="translate(-588.687 -191.443)" fill="#fff8f5"/>
        <path id="Trazado_828012" data-name="Trazado 828012" d="M849.387,311.168h30.354a.439.439,0,0,0,0-.877H849.387a.439.439,0,0,0,0,.877" transform="translate(-736.001 -269.003)" fill="#fff8f5"/>
        <path id="Trazado_828013" data-name="Trazado 828013" d="M682.466,311.168h11.475a.439.439,0,0,0,0-.877H682.466a.439.439,0,0,0,0,.877" transform="translate(-591.29 -269.003)" fill="#fff8f5"/>
        <path id="Trazado_828014" data-name="Trazado 828014" d="M683.29,335.712h52.564a.439.439,0,0,0,0-.877H683.29a.439.439,0,0,0,0,.877" transform="translate(-592.005 -290.282)" fill="#fff8f5"/>
        <path id="Trazado_828015" data-name="Trazado 828015" d="M948.4,360.257h17.4a.439.439,0,0,0,0-.877H948.4a.439.439,0,0,0,0,.877" transform="translate(-821.844 -311.561)" fill="#fff8f5"/>
        <path id="Trazado_828016" data-name="Trazado 828016" d="M684.114,360.257h24.8a.439.439,0,0,0,0-.877h-24.8a.439.439,0,0,0,0,.877" transform="translate(-592.719 -311.561)" fill="#fff8f5"/>
        <path id="Trazado_828017" data-name="Trazado 828017" d="M851.255,449.72h30.724a.439.439,0,0,0,0-.877H851.255a.439.439,0,0,0,0,.877" transform="translate(-737.62 -389.12)" fill="#fff8f5"/>
        <path id="Trazado_828018" data-name="Trazado 828018" d="M687.116,449.72h11.105a.439.439,0,0,0,0-.877H687.116a.439.439,0,0,0,0,.877" transform="translate(-595.322 -389.12)" fill="#fff8f5"/>
        <path id="Trazado_828019" data-name="Trazado 828019" d="M687.94,474.266H740.5a.439.439,0,0,0,0-.877H687.94a.439.439,0,0,0,0,.877" transform="translate(-596.036 -410.4)" fill="#fff8f5"/>
        <path id="Trazado_828020" data-name="Trazado 828020" d="M1039.3,498.809h5.922a.439.439,0,0,0,0-.877H1039.3a.439.439,0,0,0,0,.877" transform="translate(-900.643 -431.677)" fill="#fff8f5"/>
        <path id="Trazado_828021" data-name="Trazado 828021" d="M688.764,498.809h36.277a.439.439,0,0,0,0-.877H688.764a.439.439,0,0,0,0,.877" transform="translate(-596.75 -431.677)" fill="#fff8f5"/>
        <path id="Trazado_828022" data-name="Trazado 828022" d="M528.514,286.5a98.111,98.111,0,0,1,4.284,8.943c.214.513,1.064.288.846-.233a100.329,100.329,0,0,0-4.372-9.152c-.269-.5-1.027-.054-.757.443" transform="translate(-458.141 -247.807)" fill="#43785e"/>
        <path id="Trazado_828023" data-name="Trazado 828023" d="M561.848,311.269a21.167,21.167,0,0,1,2.638-6.524c.3-.482-.462-.923-.757-.443A21.917,21.917,0,0,0,561,311.036c-.123.55.723.785.846.233" transform="translate(-486.345 -263.632)" fill="#43785e"/>
        <path id="Trazado_828024" data-name="Trazado 828024" d="M1335.839,261.533a14.047,14.047,0,0,0-7.385-4.256,12.853,12.853,0,0,0-14.586,6.362,79.1,79.1,0,0,0-6.327,15.628c-1.057,3.731-1.594,8.928,1.722,11.652,1.92,1.577,4.438,2.1,6.869,2.391a1,1,0,0,0,.251.385.266.266,0,0,0,.419-.311l.338.035c.293.029.33-.363.117-.491l.446-.35.495.018a10.707,10.707,0,0,1,1.239.042c.744.022,1.488.038,2.233.028a23.73,23.73,0,0,0,4-.349c2.95-.545,5.738-2.2,8.8-1.9-.066.255-.133.511-.2.766a.265.265,0,0,0,.512.141q.118-.467.237-.933a.291.291,0,0,0,.088-.346q1-3.926,2-7.851c1.768-6.956,4.14-14.654-1.261-20.661" transform="translate(-1132.858 -222.716)" fill="#ffa67d"/>
        <path id="Trazado_828025" data-name="Trazado 828025" d="M1297.294,367.8s-5.456,4.767-5.9,5.856,1.307,1.805,4.339,3.266,1.56-9.122,1.56-9.122" transform="translate(-1119.505 -318.864)" fill="#ffa67d"/>
        <path id="Trazado_828026" data-name="Trazado 828026" d="M1336.285,347.979c-.228.684-1.162.546-2.372-.175a3.512,3.512,0,0,0-.9-.366c-.718-.364-.075-2.313.9-2.1,1.756.578,2.631,1.841,2.366,2.637" transform="translate(-1155.382 -299.376)" fill="#4a3131"/>
        <path id="Trazado_828027" data-name="Trazado 828027" d="M1329.7,367.031c1.006.213.58,1.634.28,2.18-.2.355-.532.751-.985.648-.661-.151-.52-1.062-.4-1.54.138-.533.443-1.427,1.1-1.288" transform="translate(-1151.723 -318.181)" fill="#332323"/>
        <path id="Trazado_828028" data-name="Trazado 828028" d="M1377.655,237.114a2.9,2.9,0,0,0-2.013-2.732l0,.007c.742-3.713,1.052-6.544-.719-9.717a4.111,4.111,0,0,0-5.158-2.18,9.33,9.33,0,0,0-4.115-4.991c-3.134-1.617-6.2.441-7.747,3.167a8.267,8.267,0,0,0-9.644,4.089c-1.61,3.287-.56,6.614,1.556,9.379a9.1,9.1,0,0,0,3.219,2.687c-.632,3.017-1.237,5.29-.17,8.213a11.4,11.4,0,0,0,8.021,7.305c1.477-.9,7.592,1.953,9.511,1.419a.252.252,0,0,0,.175-.328q.916-1.666,1.667-3.4v.005s5.5-10.713,5.422-12.922" transform="translate(-1168.181 -188.065)" fill="#4a3131"/>
        <path id="Trazado_828029" data-name="Trazado 828029" d="M1356.319,367.172a4.452,4.452,0,1,1-3.66-5.123,4.452,4.452,0,0,1,3.66,5.123" transform="translate(-1168.181 -313.821)" fill="#ffa67d"/>
        <path id="Trazado_828030" data-name="Trazado 828030" d="M1304.487,345.047s-.645,9.354-3.567,11.159-4.105.162-4.105.162a5.6,5.6,0,0,0-2.163,4.228c-.327,3.1.1,8.116,5.35,8.244,8.893.217,6.994-12.733,6.994-12.733l.239-9.686Z" transform="translate(-1122.315 -299.135)" fill="#4a3131"/>
        <path id="Trazado_828031" data-name="Trazado 828031" d="M833.866,817.9s-14.583,28.513-17.63,35.478-1.523,14.692,3.918,18.61,13.059,2.721,21.875-2.285,27.425-16.977,27.425-16.977l8.924-1.959-7.509-16-6.774.081Z" transform="translate(-706.286 -709.067)" fill="#ffa67d"/>
        <path id="Trazado_828032" data-name="Trazado 828032" d="M1051.2,941.93l18.095-29.911a.22.22,0,0,0-.379-.221l-18.095,29.911a.22.22,0,0,0,.379.221" transform="translate(-910.971 -790.384)" fill="#2e1616"/>
        <path id="Trazado_828033" data-name="Trazado 828033" d="M1734.407,830.9c-3.228-6.018-16.159-28.546-16.159-28.546l-28.02,15.39-6.072.413-5.576,14.863,8.13,1.114s17.522,9.384,25.774,13.233,15.158,4.375,19.75.477,5.4-10.926,2.173-16.944" transform="translate(-1455.231 -695.595)" fill="#ffa67d"/>
        <path id="Trazado_828034" data-name="Trazado 828034" d="M1061.193,549.752a136.163,136.163,0,0,0-5.73-18.15,106.671,106.671,0,0,0,13.148-8.047c-2.636-3.943-10.831-15.074-15.7-22.109-2.593-3.743-5.046-7.687-8.188-11.006a35.654,35.654,0,0,0-9.543-7.147,36.067,36.067,0,0,0-12.449-3.761c-2.413-.423-15.258-1.169-19.178-1.689-.088-.012-.177-.019-.265-.031-.967-5.044-6.826-5.9-11.082-5.285a44.276,44.276,0,0,0-15.312,5.322c-9.95.44-18.089,1.671-26.833,6.949-9.4,5.674-16.479,14.4-22.079,23.7-2.887,4.8-5.43,9.782-7.907,14.8,8.407,4.681,23.2,10.469,36.021,13.645.692-1.145,3.156-6.449,3.3-6.861,4.1,12.655,13.556,31.891,16.467,37.8.711-.181,58.367-12.754,64.8-13.9,6.71-1.2,16.167-3.271,20.525-4.22" transform="translate(-797.649 -409.503)" fill="#587ee0"/>
        <path id="Trazado_828035" data-name="Trazado 828035" d="M1889.948,821.249q7.256-5.232,14.922-9.852a.22.22,0,0,0-.222-.379q-7.661,4.618-14.922,9.853c-.227.164-.008.544.222.379" transform="translate(-1638.199 -703.076)" fill="#2e1616"/>
        <path id="Trazado_828036" data-name="Trazado 828036" d="M1390,782.4a106.25,106.25,0,0,0-2.5-15.8c-2.359-11.39-5.563-22.618-8.922-33.748-3.885-12.87-11.673-26.9-25.063-31.617-13.043-4.6-26.315.669-35.962,9.732a85.053,85.053,0,0,0-11.338,13.517c-3.673,5.271-7.117,10.741-10.257,16.346-6.276,11.2-11.126,23.627-10.833,36.66.24,10.7,4.5,21.309,12.519,28.532,4.979,4.487,12.475,6.544,18.951,7.409a100.637,100.637,0,0,0,18.513.31c6.029-.311,12.038-.536,18.062-1.233,5.939-.687,12.14-1.317,17.9-2.937,6.457-1.806,12.547-5,15.79-11.038,2.755-5.133,3.433-10.6,3.145-16.131" transform="translate(-1114.114 -606.455)" fill="#ffeae0"/>
        <path id="Trazado_828037" data-name="Trazado 828037" d="M1288.781,806.933a157.092,157.092,0,0,1,20.1-49.025c3.761-6.018,7.773-12.118,12.759-17.209a45.916,45.916,0,0,1,15.075-10.4,44.543,44.543,0,0,1,25.893-2.1c.276.055.393-.368.116-.423a45.588,45.588,0,0,0-23.443,1.1,44.771,44.771,0,0,0-15.916,9.543c-4.942,4.525-8.827,10.052-12.51,15.612a158.88,158.88,0,0,0-12.984,23.724,156.893,156.893,0,0,0-9.513,29.061c-.061.275.361.392.423.117" transform="translate(-1116.926 -630.056)" fill="#2e1616"/>
        <path id="Trazado_828038" data-name="Trazado 828038" d="M1727.007,1204.439c-.042-2.541-.042-5.088-.17-7.624a16.131,16.131,0,0,0-1.173-5.921,6.7,6.7,0,0,0-12.43,0,16.227,16.227,0,0,0-1.173,5.921c-.122,2.536-.128,5.083-.17,7.624q-.254,15.638-.111,31.286c3.746-.2,7.492-.451,11.237-.886,1.364-.159,2.738-.313,4.118-.477q.119-14.961-.128-29.923" transform="translate(-1483.966 -1028.794)" fill="#614646"/>
        <path id="Trazado_828039" data-name="Trazado 828039" d="M1345.728,507.54a118.934,118.934,0,0,1,26.394-.036c.28.03.278-.408,0-.439a118.963,118.963,0,0,0-26.394.036c-.277.032-.28.471,0,.439" transform="translate(-1166.486 -438.974)" fill="#2e1616"/>
        <path id="Trazado_828040" data-name="Trazado 828040" d="M1212.3,852.49q2.232-4.271,4.22-8.662c.115-.255-.262-.478-.378-.221q-1.989,4.39-4.221,8.662c-.13.25.248.472.379.221" transform="translate(-1050.645 -731.258)" fill="#2e1616"/>
        <path id="Trazado_828041" data-name="Trazado 828041" d="M945.824,800.122c11.643,5.413,23.867,9.382,36.035,13.42.269.089.384-.334.117-.423-12.131-4.026-24.321-7.979-35.93-13.376-.254-.118-.477.26-.221.379" transform="translate(-819.875 -693.311)" fill="#2e1616"/>
        <path id="Trazado_828042" data-name="Trazado 828042" d="M219.741,891.781H202.029s2.822,18.61,3.8,24.16,4.963,9.386,13.917,9.386,12.943-3.836,13.916-9.386,3.8-24.16,3.8-24.16Z" transform="translate(-175.147 -773.121)" fill="#fff8f5"/>
        <path id="Trazado_828043" data-name="Trazado 828043" d="M158.449,544.68c-2.223-.324-4.319,1.9-5.719,3.31a35.158,35.158,0,0,0-5.029,6.563q-.348.575-.681,1.167c.366-3.76.629-7.529.744-11.3a90.306,90.306,0,0,0-.265-13.4c-.244-1.995-1.411-4.7-3.91-4.287-2.923.483-4.25,4.706-5.03,7.077a56.973,56.973,0,0,0-1.488,5.543c-.87-2.906-4.317-15.225-8.337-12.183-1.967,1.489-1.513,5.743-1.384,7.822.193,3.1.542,6.185.989,9.255-1.039-2.431-2.14-4.833-3.314-7.185q-2.65-5.515-5.725-10.8c-1.406-2.419-6.06-9.026-8.855-7.284s-1.973,6.531-1.528,9.571a44.447,44.447,0,0,0,2.424,8.484c2.619,7.292,5.141,14.793,8.454,21.869a50.975,50.975,0,0,0-11.483-6.717c-1.141-.424-2.812-1.04-3.995-.419-1.958,1.019-.886,3.65.085,4.977a49.971,49.971,0,0,0,11.73,11.476.005.005,0,0,0,.005.005c.08.053.159.106.234.159l.006,0c.2,1.44,8.043,2.6,17.7,2.6A85.307,85.307,0,0,0,147.3,570.1l.056-.01q.276-.047.537-.1l.181-.035q.193-.037.378-.076l.214-.045c.107-.023.21-.047.312-.071l.215-.05c.11-.027.215-.055.319-.082s.2-.053.29-.08.184-.053.269-.08c.061-.019.117-.039.174-.058.074-.025.147-.05.216-.075l.15-.057q.106-.042.2-.084l.114-.05c.077-.035.147-.071.214-.107l.046-.023v0c.39-.219.6-.448.6-.685a.42.42,0,0,0-.02-.117,64.813,64.813,0,0,0,6.161-10.586c1.1-2.372,5.746-12.192.515-12.956" transform="translate(-89.488 -449.68)" fill="#43785e"/>
        <path id="Trazado_828044" data-name="Trazado 828044" d="M208.213,929.244c10.6,3.279,22.986,3.726,33.515-.05.264-.095.15-.519-.116-.423-10.458,3.751-22.755,3.307-33.282.051-.27-.084-.386.34-.117.423" transform="translate(-180.376 -805.177)" fill="#2e1616"/>
        <path id="Trazado_828045" data-name="Trazado 828045" d="M291.147,709.414a263.288,263.288,0,0,1,8.785,26.455.22.22,0,0,0,.423-.117A263.382,263.382,0,0,0,291.57,709.3c-.1-.26-.526-.147-.423.117" transform="translate(-252.394 -614.791)" fill="#2e1616"/>
        <path id="Trazado_828046" data-name="Trazado 828046" d="M226.128,818.233a45.716,45.716,0,0,1,11.255,11.892c.151.237.531.018.379-.222a46.286,46.286,0,0,0-11.413-12.05c-.226-.169-.445.212-.221.379" transform="translate(-195.959 -708.994)" fill="#2e1616"/>
        <path id="Trazado_828047" data-name="Trazado 828047" d="M338.287,672.631a109.145,109.145,0,0,0-2.8,21.467.219.219,0,0,0,.439,0,108.538,108.538,0,0,1,2.785-21.35c.063-.275-.36-.392-.423-.117" transform="translate(-290.847 -582.995)" fill="#2e1616"/>
        <path id="Trazado_828048" data-name="Trazado 828048" d="M387.94,811.338a66.712,66.712,0,0,1,5.583-14.612c.131-.25-.248-.472-.379-.221a67.2,67.2,0,0,0-5.627,14.717.22.22,0,0,0,.423.117" transform="translate(-335.948 -690.427)" fill="#2e1616"/>
      </g>
    </g>
  </g>
</svg>
