<svg xmlns="http://www.w3.org/2000/svg" width="295" height="193" viewBox="0 0 295 193">
  <g id="Grupo_1074959" data-name="Grupo 1074959" transform="translate(-285 -1047)">
    <rect id="Rectángulo_384064" data-name="Rectángulo 384064" width="295" height="131" rx="7" transform="translate(285 1109)" fill="#273a89"/>
    <g id="Grupo_1074955" data-name="Grupo 1074955" transform="translate(335.269 1047)">
      <g id="Grupo_1074743" data-name="Grupo 1074743" transform="translate(2.731)">
        <g id="Grupo_1074745" data-name="Grupo 1074745" transform="translate(57.267)">
          <g id="Grupo_1074744" data-name="Grupo 1074744">
            <path id="Trazado_828049" data-name="Trazado 828049" d="M135.559,93.194H9.717a2.548,2.548,0,0,1-2.548-2.548V2.548A2.548,2.548,0,0,1,9.717,0H135.559a2.548,2.548,0,0,1,2.548,2.548v88.1a2.548,2.548,0,0,1-2.548,2.548" transform="translate(-7.169)" fill="#fff"/>
            <line id="Línea_345" data-name="Línea 345" x2="130.389" transform="translate(0.55 31.146)" fill="none" stroke="#fdeeea" stroke-miterlimit="10" stroke-width="1.96"/>
            <line id="Línea_346" data-name="Línea 346" x2="130.389" transform="translate(0.55 60.298)" fill="none" stroke="#fdeeea" stroke-miterlimit="10" stroke-width="1.96"/>
            <path id="Trazado_828050" data-name="Trazado 828050" d="M35.885,16.933A7.923,7.923,0,1,1,27.962,9.01a7.923,7.923,0,0,1,7.923,7.923" transform="translate(-0.769 0.706)" fill="#7393ff"/>
            <path id="Trazado_828051" data-name="Trazado 828051" d="M35.885,42.906a7.923,7.923,0,1,1-7.923-7.923,7.923,7.923,0,0,1,7.923,7.923" transform="translate(-0.769 2.742)" fill="#7393ff"/>
            <path id="Trazado_828052" data-name="Trazado 828052" d="M35.885,69.858a7.923,7.923,0,1,1-7.923-7.923,7.923,7.923,0,0,1,7.923,7.923" transform="translate(-0.769 4.855)" fill="#7393ff"/>
            <line id="Línea_347" data-name="Línea 347" x2="70.825" transform="translate(39.908 14.21)" fill="none" stroke="#f1d5ce" stroke-linecap="round" stroke-linejoin="round" stroke-width="0.98"/>
            <line id="Línea_348" data-name="Línea 348" x2="10.507" transform="translate(39.908 19.752)" fill="none" stroke="#f1d5ce" stroke-linecap="round" stroke-linejoin="round" stroke-width="0.98"/>
            <line id="Línea_349" data-name="Línea 349" x2="70.825" transform="translate(39.908 42.513)" fill="none" stroke="#f1d5ce" stroke-linecap="round" stroke-linejoin="round" stroke-width="0.98"/>
            <line id="Línea_350" data-name="Línea 350" x2="37.536" transform="translate(39.908 48.055)" fill="none" stroke="#f1d5ce" stroke-linecap="round" stroke-linejoin="round" stroke-width="0.98"/>
            <line id="Línea_351" data-name="Línea 351" x2="15.477" transform="translate(39.908 71.871)" fill="none" stroke="#f1d5ce" stroke-linecap="round" stroke-linejoin="round" stroke-width="0.98"/>
            <line id="Línea_352" data-name="Línea 352" x2="70.825" transform="translate(39.908 77.413)" fill="none" stroke="#f1d5ce" stroke-linecap="round" stroke-linejoin="round" stroke-width="0.98"/>
          </g>
          <path id="Trazado_828053" data-name="Trazado 828053" d="M24.439,17.364,26.686,18.9l4.109-4.732" transform="translate(-0.424 1.11)" fill="none" stroke="#fff" stroke-linecap="round" stroke-linejoin="round" stroke-width="1.22"/>
          <path id="Trazado_828054" data-name="Trazado 828054" d="M24.439,43.273,26.686,44.8l4.109-4.732" transform="translate(-0.424 3.141)" fill="none" stroke="#fff" stroke-linecap="round" stroke-linejoin="round" stroke-width="1.22"/>
          <path id="Trazado_828055" data-name="Trazado 828055" d="M24.439,70.288l2.246,1.531,4.109-4.732" transform="translate(-0.424 5.258)" fill="none" stroke="#fff" stroke-linecap="round" stroke-linejoin="round" stroke-width="1.22"/>
        </g>
        <path id="Trazado_828056" data-name="Trazado 828056" d="M180.059,133.872H155.694c-13.693,0-23.271-8.831-25.546-22.333L124.1,75.646" transform="translate(-124.104 5.929)" fill="none" stroke="#1b172c" stroke-linecap="round" stroke-linejoin="round" stroke-width="5.463"/>
        <path id="Trazado_828057" data-name="Trazado 828057" d="M170.053,183.039l-10.933-50.67a12.692,12.692,0,0,0-24.838.232l-9.921,50.438" transform="translate(-114.375 9.594)" fill="none" stroke="#fff" stroke-miterlimit="10" stroke-width="1.879"/>
        <path id="Trazado_828058" data-name="Trazado 828058" d="M93.627,173.227l-5.649-17.938L79,154.812l5.634,19.249,8.664.055Z" transform="translate(10.971 12.133)" fill="#ffbd9a"/>
        <path id="Trazado_828059" data-name="Trazado 828059" d="M66.5,169.341s7.429,3.055,10.919-1.761l15.295,9.291-28.515-.183Z" transform="translate(27.848 13.134)"/>
        <rect id="Rectángulo_383842" data-name="Rectángulo 383842" width="28.516" height="2.626" transform="matrix(-1, -0.006, 0.006, -1, 120.541, 192.632)" fill="#fff"/>
        <path id="Trazado_828060" data-name="Trazado 828060" d="M76.674,171.591a.5.5,0,0,0,.208-.159,10.392,10.392,0,0,1,2.351-2.292.466.466,0,0,0,.139-.665.525.525,0,0,0-.7-.133,11.15,11.15,0,0,0-2.608,2.526.465.465,0,0,0,.111.671.527.527,0,0,0,.5.052" transform="translate(28.403 13.188)" fill="#fff"/>
        <path id="Trazado_828061" data-name="Trazado 828061" d="M74.4,172.73a.5.5,0,0,0,.208-.159,10.392,10.392,0,0,1,2.351-2.292.467.467,0,0,0,.139-.665.523.523,0,0,0-.7-.134,11.214,11.214,0,0,0-2.609,2.527.466.466,0,0,0,.112.671.527.527,0,0,0,.5.052" transform="translate(33.134 13.277)" fill="#fff"/>
        <path id="Trazado_828062" data-name="Trazado 828062" d="M72.122,173.868a.5.5,0,0,0,.208-.159,10.443,10.443,0,0,1,2.351-2.292.464.464,0,0,0,.139-.664.522.522,0,0,0-.7-.134,11.163,11.163,0,0,0-2.61,2.526.466.466,0,0,0,.112.671.527.527,0,0,0,.5.052" transform="translate(37.865 13.366)" fill="#fff"/>
        <path id="Trazado_828063" data-name="Trazado 828063" d="M78.943,107.069l7.809.5a12.958,12.958,0,0,1,11.659,9.449l12.236,47.131-16.956-1.578-13.669-41.4Z" transform="translate(-5.992 8.391)" fill="#007bde"/>
        <path id="Trazado_828064" data-name="Trazado 828064" d="M78.323,162.583H98.8l-1.42-7.55H76.9Z" transform="translate(8.055 12.151)" fill="#0086ff"/>
        <path id="Trazado_828065" data-name="Trazado 828065" d="M118.61,173.209l-.261-17.7-8.984-.477.248,19.011,8.664.055Z" transform="translate(-46.761 12.151)" fill="#ffbd9a"/>
        <path id="Trazado_828066" data-name="Trazado 828066" d="M96.866,169.341s7.429,3.055,10.919-1.761l15.295,9.291-28.515-.183Z" transform="translate(-35.27 13.134)"/>
        <rect id="Rectángulo_383843" data-name="Rectángulo 383843" width="28.516" height="2.626" transform="matrix(-1, -0.006, 0.006, -1, 87.792, 192.632)" fill="#fff"/>
        <path id="Trazado_828067" data-name="Trazado 828067" d="M107.044,171.591a.5.5,0,0,0,.208-.159,10.392,10.392,0,0,1,2.351-2.292.466.466,0,0,0,.139-.665.525.525,0,0,0-.7-.133,11.166,11.166,0,0,0-2.609,2.526.466.466,0,0,0,.112.671.527.527,0,0,0,.5.052" transform="translate(-34.715 13.188)" fill="#fff"/>
        <path id="Trazado_828068" data-name="Trazado 828068" d="M104.768,172.73a.5.5,0,0,0,.208-.159,10.393,10.393,0,0,1,2.351-2.292.467.467,0,0,0,.139-.665.523.523,0,0,0-.7-.134,11.214,11.214,0,0,0-2.609,2.527.466.466,0,0,0,.112.671.527.527,0,0,0,.5.052" transform="translate(-29.985 13.277)" fill="#fff"/>
        <path id="Trazado_828069" data-name="Trazado 828069" d="M102.492,173.868a.5.5,0,0,0,.208-.159,10.443,10.443,0,0,1,2.351-2.292.465.465,0,0,0,.139-.664.523.523,0,0,0-.7-.134,11.2,11.2,0,0,0-2.609,2.526.466.466,0,0,0,.112.671.527.527,0,0,0,.5.052" transform="translate(-25.254 13.366)" fill="#fff"/>
        <path id="Trazado_828070" data-name="Trazado 828070" d="M105.8,106.292l24.427.974,18.242.373c5.324,0,9.661,3.21,9.741,8.534.244,16.366-1.021,50.384-1.792,50.23-1.038-.208-15.99,0-15.99,0L138.9,129.238l-11.715,1.275c-2.887.024-11.325.568-13.9-.737-5.33-2.7-12.135-9.027-7.49-23.484" transform="translate(-80.875 8.331)" fill="#0086ff"/>
        <rect id="Rectángulo_383844" data-name="Rectángulo 383844" width="20.477" height="7.55" transform="translate(57.8 167.184)" fill="#00b1ff"/>
        <line id="Línea_353" data-name="Línea 353" y1="8.324" x2="0.285" transform="translate(58.029 129.244)" fill="none" stroke="#55382c" stroke-miterlimit="10" stroke-width="0.844"/>
        <path id="Trazado_828071" data-name="Trazado 828071" d="M65.432,79.739l9.816-4.908s8.01-.592,12.877.467a.92.92,0,0,1-.28,1.816l-4.495-.492,2.42,1.646a1.029,1.029,0,0,1-.133,1.777,1.016,1.016,0,0,1-.934-.02c-1.345-.744-5.57-2.681-9.689-.363l3.843,1.726a1.219,1.219,0,0,1-.657,2.321l-3.576-.464a11.022,11.022,0,0,1-8.1-.156Z" transform="translate(30.362 5.852)" fill="#ffc9bd"/>
        <path id="Trazado_828072" data-name="Trazado 828072" d="M94.029,67.6c3.11,7.615,7.557,22.783,7.557,22.783l24.569-11.571L129.4,87.25,108.56,101.482l-22.8-.951L84.07,82.7Z" transform="translate(-30.278 5.298)" fill="#ff9184"/>
        <path id="Trazado_828073" data-name="Trazado 828073" d="M150.232,63.248a12.568,12.568,0,0,1,4.1,4.966l1.476,42.558s-26.119,5.5-40.305-.838c0,0,.4-35.642,8.479-45.075,0,0,2.546-5.01,15.5-5.034a17.77,17.77,0,0,1,10.75,3.423" transform="translate(-90.583 4.689)" fill="#ff9184"/>
        <line id="Línea_354" data-name="Línea 354" x1="1.884" y2="29.881" transform="translate(60.061 80.518)" fill="none" stroke="#ff6c63" stroke-miterlimit="10" stroke-width="0.735"/>
        <path id="Trazado_828074" data-name="Trazado 828074" d="M86.237,98.5,86.6,91.16s2.629-5.492,5.027-5.57a7.785,7.785,0,0,1,5.157,2.388,1.158,1.158,0,0,1-.3,1.836,10.664,10.664,0,0,0-3.77,2.892s1.161,5.919-.8,8.354c-1,1.239-6.86,2.63-6.86,2.63Z" transform="translate(0.966 6.708)" fill="#ffc9bd"/>
        <path id="Trazado_828075" data-name="Trazado 828075" d="M109.829,66.37,114.537,96.2l35.4,1.536v12.519l-38.064-.921a4.1,4.1,0,0,1-3.344-1.2l-.386.182S97.829,108.5,94.931,73.3Z" transform="translate(-62.518 5.202)" fill="#ff9184"/>
        <path id="Trazado_828076" data-name="Trazado 828076" d="M133.915,97.19l-32.106-1.45-3.819-24.2" transform="translate(-49.799 5.607)" fill="none" stroke="#ff6c63" stroke-miterlimit="10" stroke-width="0.735"/>
        <line id="Línea_355" data-name="Línea 355" x1="4.9" y2="1.45" transform="translate(47.109 101.347)" fill="none" stroke="#ff6c63" stroke-miterlimit="10" stroke-width="0.735"/>
        <path id="Trazado_828077" data-name="Trazado 828077" d="M134.73,81.533l3.57,15.931a18.976,18.976,0,0,0,6.2,10.283l1.6,1.265" transform="translate(-101.601 6.39)" fill="none" stroke="#ff6c63" stroke-miterlimit="10" stroke-width="0.735"/>
        <path id="Trazado_828078" data-name="Trazado 828078" d="M149.685,34.691s-.883,4.21,0,6.774,3.692,3.77,2.432,10.468.083,6.856.387,8.749c0,0-26.891,2.532-40.359-4.375,0,0,2.278-3.908,4.8-8.244s3.47-11.465,3.47-11.465l10.312-3.948Z" transform="translate(-83.653 2.559)" fill="#954b55"/>
        <path id="Trazado_828079" data-name="Trazado 828079" d="M143.532,30.178c.307-.1-.889-1.868-1.195-1.966-4.787-1.528-15.013-3.551-20.214,4.856-3.822,6.18.015,17.8,8.047,21.317,7.651,3.351,6.348-22.013,6.348-22.013Z" transform="translate(-83.885 2.103)" fill="#954b55"/>
        <path id="Trazado_828080" data-name="Trazado 828080" d="M115.506,44.772a3.8,3.8,0,1,0,4.222-3.316,3.8,3.8,0,0,0-4.222,3.316" transform="translate(-57.815 3.247)" fill="#ffb1a7"/>
        <path id="Trazado_828081" data-name="Trazado 828081" d="M134.318,54.3l-.938,8.219c-.324,2.887-2.275,4.232-5.115,3.89-2.423-.291-4.55-1.816-4.562-4.256l2.1-12.864Z" transform="translate(-77.932 3.863)" fill="#ffc9bd"/>
        <path id="Trazado_828082" data-name="Trazado 828082" d="M132.331,59.281c-5.766-.5-8.732-8.748-8.732-8.748l9.425,2.826Z" transform="translate(-76.525 3.96)" fill="#1b172c"/>
        <path id="Trazado_828083" data-name="Trazado 828083" d="M126.287,57h0c4.871.259,9.086-3.375,9.431-7.346l.758-9.373a9.26,9.26,0,0,0-8.12-10c-5.077-.61-10.578,2.9-11.188,7.982l-.527,7.544A10.12,10.12,0,0,0,126.287,57" transform="translate(-72.478 2.368)" fill="#ffc9bd"/>
        <path id="Trazado_828084" data-name="Trazado 828084" d="M138.76,36.635c2.313,3.453-1.463,8.354-1.463,8.354l-7.135-8.626s7.228-1.773,8.6.272" transform="translate(-90.089 2.794)" fill="#954b55"/>
        <path id="Trazado_828085" data-name="Trazado 828085" d="M132.217,43.712a3.8,3.8,0,1,0,4.222-3.316,3.8,3.8,0,0,0-4.222,3.316" transform="translate(-92.547 3.164)" fill="#ffc9bd"/>
        <path id="Trazado_828086" data-name="Trazado 828086" d="M136.938,45.266s.328-2.733-2.336-2.616" transform="translate(-92.317 3.342)" fill="none" stroke="#1b172c" stroke-linecap="round" stroke-linejoin="round" stroke-width="0.562"/>
        <path id="Trazado_828087" data-name="Trazado 828087" d="M122.6,46.924l.073,1.117h-1.1" transform="translate(-63.983 3.678)" fill="none" stroke="#1b172c" stroke-linecap="round" stroke-linejoin="round" stroke-width="0.562"/>
        <path id="Trazado_828088" data-name="Trazado 828088" d="M127.009,40.588s2.111-.083,2.1.6c0,0-.022.459-1.863.5s-2.314-.074-2.464-.51,1.236-.61,2.224-.59" transform="translate(-73.88 3.181)" fill="#793641"/>
        <path id="Trazado_828089" data-name="Trazado 828089" d="M119.226,40.846s-1.733-.187-1.9.448c0,0-.1.43,1.417.566s2.02,0,2.178-.349c.18-.39-.867-.633-1.693-.664" transform="translate(-57.671 3.199)" fill="#793641"/>
        <path id="Trazado_828090" data-name="Trazado 828090" d="M127.593,44.739s-.941-1.345-2.685-.044" transform="translate(-72.506 3.459)" fill="none" stroke="#1b172c" stroke-linecap="round" stroke-linejoin="round" stroke-width="0.705"/>
        <path id="Trazado_828091" data-name="Trazado 828091" d="M120.22,44.994a1.177,1.177,0,0,0-2.006-.087" transform="translate(-57.914 3.478)" fill="none" stroke="#1b172c" stroke-linecap="round" stroke-linejoin="round" stroke-width="0.705"/>
        <path id="Trazado_828092" data-name="Trazado 828092" d="M125.869,49.885a2.715,2.715,0,0,1-2.61-1.109" transform="translate(-69.003 3.823)" fill="none" stroke="#1b172c" stroke-linecap="round" stroke-linejoin="round" stroke-width="0.705"/>
        <path id="Trazado_828093" data-name="Trazado 828093" d="M129.361,28.134s10.4,3.755,8.245,7.668c-1.6,2.9-12.063,4.7-22.005,2.651,0,0-4.538-3.685,1.079-7.5,0,0,3.016-4.261,12.681-2.815" transform="translate(-70.909 2.181)" fill="#954b55"/>
        <path id="Trazado_828094" data-name="Trazado 828094" d="M138.838,62.347a19.677,19.677,0,0,0-7.336-2.518,38.49,38.49,0,0,0-9.585.713s.287,4.637,9.069,5.661a13.278,13.278,0,0,0,5.159-.315c1.679-.474,2.075-1.64,2.693-3.541" transform="translate(-80.525 4.685)" fill="#ffc9bd"/>
        <path id="Trazado_828095" data-name="Trazado 828095" d="M68.714,105.4h29.8v-3.362h-29.8a1.681,1.681,0,0,0,0,3.362" transform="translate(18.98 7.997)" fill="#061418"/>
        <path id="Trazado_828096" data-name="Trazado 828096" d="M18.58,107.785H61.369a5.065,5.065,0,0,0,4.88-3.707l8.44-30.321a1.746,1.746,0,0,0-1.682-2.213H29.712A2.082,2.082,0,0,0,27.7,73.1Z" transform="translate(94.995 5.607)" fill="#1c2e34"/>
        <path id="Trazado_828097" data-name="Trazado 828097" d="M39.127,89.266a3.736,3.736,0,1,0,3.737-3.737,3.737,3.737,0,0,0-3.737,3.737" transform="translate(100.992 6.703)" fill="#fff"/>
        <line id="Línea_356" data-name="Línea 356" y2="75.249" transform="translate(124.633 117.383)" fill="none" stroke="#55382e" stroke-miterlimit="10" stroke-width="1.147"/>
        <rect id="Rectángulo_383845" data-name="Rectángulo 383845" width="127.134" height="7.982" transform="translate(62.651 113.392)" fill="#fff"/>
        <line id="Línea_357" data-name="Línea 357" x2="177.375" transform="translate(2.339 191.538)" fill="none" stroke="#55382e" stroke-miterlimit="10" stroke-width="1.147"/>
      </g>
    </g>
  </g>
</svg>
