<svg xmlns="http://www.w3.org/2000/svg" xmlns:xlink="http://www.w3.org/1999/xlink" width="253.975" height="250.859" viewBox="0 0 253.975 250.859">
  <defs>
    <clipPath id="clip-path">
      <rect id="Rectángulo_383683" data-name="Rectángulo 383683" width="247.736" height="155.566" rx="14" transform="translate(0 0)" fill="#273a89"/>
    </clipPath>
  </defs>
  <g id="Grupo_1074773" data-name="Grupo 1074773" transform="translate(-333 -6922)">
    <g id="Grupo_1074757" data-name="Grupo 1074757" transform="translate(335.477 6922)">
      <g id="Grupo_1074626" data-name="Grupo 1074626" transform="translate(5.339 0)">
        <path id="Trazado_818450" data-name="Trazado 818450" d="M204.908,45.939,170.1,10.559,137.332,43.87l-32.955-33.5-34.436,35L35.875,10.749,5.1,42.029,0,36.843,35.875.377,69.941,35,104.377,0l32.955,33.5L170.1.187l34.807,35.38L237.533,2.406l5.1,5.184Z" transform="translate(0 0)" fill="#add3fd"/>
        <path id="Trazado_818451" data-name="Trazado 818451" d="M204.908,62.735,170.1,27.357,137.332,60.663l-32.955-33.5-34.436,35L35.875,27.544,5.1,58.826,0,53.638,35.875,17.172,69.941,51.8l34.436-35,32.955,33.5L170.1,16.985l34.807,35.378L237.533,19.2l5.1,5.184Z" transform="translate(0 18.96)" fill="#add3fd"/>
        <path id="Trazado_818452" data-name="Trazado 818452" d="M204.908,79.53,170.1,44.152,137.332,77.461l-32.955-33.5-34.436,35L35.875,44.339,5.1,75.621,0,70.433,35.875,33.967,69.941,68.594l34.436-35,32.955,33.5L170.1,33.78l34.807,35.378L237.533,36l5.1,5.186Z" transform="translate(0 37.92)" fill="#add3fd"/>
        <path id="Trazado_818453" data-name="Trazado 818453" d="M204.908,96.326,170.1,60.946,137.332,94.255l-32.955-33.5-34.436,35L35.875,61.133,5.1,92.415,0,87.229,35.875,50.763,69.941,85.39l34.436-35,32.955,33.5L170.1,50.574l34.807,35.38L237.533,52.79l5.1,5.186Z" transform="translate(0 56.881)" fill="#add3fd"/>
        <path id="Trazado_818454" data-name="Trazado 818454" d="M204.908,113.121,170.1,77.741,137.332,111.05l-32.955-33.5-34.436,35L35.875,77.93,5.1,109.213,0,104.026,35.875,67.559l34.065,34.626,34.436-35,32.955,33.5L170.1,67.371l34.807,35.38,32.625-33.164,5.1,5.186Z" transform="translate(0 75.842)" fill="#add3fd"/>
        <path id="Trazado_818455" data-name="Trazado 818455" d="M204.908,129.916,170.1,94.538l-32.769,33.309-32.955-33.5-34.436,35L35.875,94.726,5.1,126.008,0,120.82,35.875,84.354,69.941,118.98l34.436-35,32.955,33.5L170.1,84.166l34.807,35.378,32.625-33.162,5.1,5.186Z" transform="translate(0 94.802)" fill="#add3fd"/>
      </g>
      <rect id="Rectángulo_383419" data-name="Rectángulo 383419" width="247.736" height="150.154" rx="14" transform="translate(0 100.705)" fill="#273a89"/>
      <g id="Enmascarar_grupo_192" data-name="Enmascarar grupo 192" transform="translate(0.239 95.293)" clip-path="url(#clip-path)">
        <g id="Grupo_1074624" data-name="Grupo 1074624" transform="translate(-164.703 -53.761)">
          <path id="Trazado_827892" data-name="Trazado 827892" d="M74.118-21.241q0,14.485-7.739,23.3T44.765,10.866a27.378,27.378,0,0,1-10.528-1.9,21.29,21.29,0,0,1-7.878-5.583V34.705H6.07V-55.7H24.407l1.185,7.725a23.106,23.106,0,0,1,8.053-6.609,24.519,24.519,0,0,1,10.981-2.324q14.014,0,21.753,9.475t7.739,24.925ZM53.759-22.509q0-9.234-3.556-14.967T39.327-43.209a17.31,17.31,0,0,0-7.844,1.63,12.567,12.567,0,0,0-5.124,4.647V-8.326A11.907,11.907,0,0,0,31.483-4.1a19.548,19.548,0,0,0,7.983,1.448q7.39,0,10.842-5.009t3.451-13.579Zm72.579-18.045-7.46-.181a15.222,15.222,0,0,0-7.46,1.63,10.875,10.875,0,0,0-4.462,4.587V9.6H86.667V-55.7h18.894l.906,9.656a21.16,21.16,0,0,1,6.867-8,16.888,16.888,0,0,1,9.726-2.867,17.518,17.518,0,0,1,2.824.211q1.29.211,2.615.513ZM183.16-.058a23.938,23.938,0,0,1-8.854,8.087,26.33,26.33,0,0,1-12.48,2.837q-11.922,0-18.65-7t-6.728-21.727V-55.7h20.289v37.962q0,8.57,2.684,11.739t8.332,3.168a23.06,23.06,0,0,0,8.366-1.358,13.9,13.9,0,0,0,5.717-4.013V-55.7h20.358V9.6H185.322Zm67.071,10.924q-16.872,0-26.354-8.962T214.4-21.181v-2.414q0-14.666,9.2-24.02t25.309-9.294q15.2,0,23.322,8.057t8.122,21.7v9.113h-44.97l-.209.362a16.354,16.354,0,0,0,4.706,10.863q4.218,4.164,12.515,4.164A48.043,48.043,0,0,0,264-3.86a51.513,51.513,0,0,0,9.865-3.681l5.508,10.863A40.228,40.228,0,0,1,267.1,8.694,62.25,62.25,0,0,1,250.232,10.866Zm-1.325-54.2q-6.135,0-9.447,3.651a16.879,16.879,0,0,0-4.009,9.687l.139.3h24.82v-1.328q0-5.733-2.719-9.023T248.907-43.33ZM360.25-21.241q0,14.605-7.53,23.356t-21.753,8.751a25.891,25.891,0,0,1-11.539-2.414A22.644,22.644,0,0,1,311.1,1.391L309.424,9.6H292.2v-94.15h20.289v35.789a22.322,22.322,0,0,1,7.844-6.035,24.737,24.737,0,0,1,10.493-2.112q14.362,0,21.892,9.385t7.53,25.016Zm-20.289-1.267q0-9.536-3.242-15.118t-11.051-5.583a17.084,17.084,0,0,0-8.018,1.72,12.755,12.755,0,0,0-5.159,4.919V-8.929A12.2,12.2,0,0,0,317.686-4.4a18.886,18.886,0,0,0,8.122,1.569q7.878,0,11.016-4.8t3.137-13.609ZM417.282,9.6a33.89,33.89,0,0,1-1.917-4.707,28.89,28.89,0,0,1-1.15-5.07,25.825,25.825,0,0,1-8.3,7.906,23.159,23.159,0,0,1-12.271,3.138q-11.852,0-18.267-5.281T368.965-8.809q0-9.6,8.541-14.877t24.925-5.281h11.434v-5.19a9.361,9.361,0,0,0-2.859-7.3q-2.859-2.6-8.506-2.6-4.95,0-7.634,2.082a6.825,6.825,0,0,0-2.684,5.7H372.591l-.139-.362q-.488-8.268,8.332-14.273t23.043-6.005q13.6,0,22,5.915t8.4,16.959V-7.058a44.342,44.342,0,0,0,.8,8.63A38.838,38.838,0,0,0,437.57,9.6ZM398.666-2.17a19.4,19.4,0,0,0,9.482-2.293,13.23,13.23,0,0,0,5.717-5.311v-9.234H402.431q-6.484,0-9.8,2.776a8.574,8.574,0,0,0-3.312,6.82A6.387,6.387,0,0,0,391.8-4.131,10.79,10.79,0,0,0,398.666-2.17Z" transform="translate(-6.07 84.551)" fill="none" stroke="#fff" stroke-width="1"/>
          <path id="Trazado_827890" data-name="Trazado 827890" d="M63.434-18.179q0,12.4-6.623,19.938T38.313,9.3A23.432,23.432,0,0,1,29.3,7.673,18.221,18.221,0,0,1,22.56,2.895V29.7H5.2V-47.673H20.889L21.9-41.062A19.776,19.776,0,0,1,28.8-46.718a20.984,20.984,0,0,1,9.4-1.989q11.994,0,18.617,8.11t6.623,21.333ZM46.01-19.264q0-7.9-3.043-12.81t-9.309-4.907a14.815,14.815,0,0,0-6.713,1.395,10.755,10.755,0,0,0-4.386,3.977V-7.126A10.19,10.19,0,0,0,26.945-3.51a16.73,16.73,0,0,0,6.832,1.24q6.325,0,9.279-4.287T46.01-18.179Zm62.117-15.444-6.385-.155a13.028,13.028,0,0,0-6.385,1.395,9.307,9.307,0,0,0-3.819,3.926V8.215H74.175V-47.673H90.345l.776,8.264A18.11,18.11,0,0,1,97-46.253a14.454,14.454,0,0,1,8.324-2.454,14.993,14.993,0,0,1,2.417.181q1.1.181,2.238.439ZM156.759-.049a20.488,20.488,0,0,1-7.578,6.921A22.535,22.535,0,0,1,138.5,9.3q-10.2,0-15.962-5.992t-5.758-18.6V-47.673h17.364v32.49q0,7.335,2.3,10.046t7.131,2.712a19.736,19.736,0,0,0,7.16-1.162,11.9,11.9,0,0,0,4.893-3.435V-47.673h17.424V8.215h-14.44Zm57.4,9.349q-14.44,0-22.556-7.67t-8.115-19.757v-2.066q0-12.552,7.877-20.558t21.66-7.955q13.008,0,19.96,6.9t6.952,18.569v7.8H201.452l-.179.31a14,14,0,0,0,4.028,9.3q3.61,3.564,10.711,3.564A41.118,41.118,0,0,0,225.947-3.3a44.089,44.089,0,0,0,8.443-3.151l4.714,9.3a34.429,34.429,0,0,1-10.5,4.6A53.277,53.277,0,0,1,214.162,9.3Zm-1.134-46.384q-5.251,0-8.085,3.125a14.445,14.445,0,0,0-3.431,8.29l.119.258h21.243v-1.136a11.765,11.765,0,0,0-2.327-7.722Q218.22-37.084,213.028-37.084Zm95.294,18.9q0,12.5-6.444,19.99T283.261,9.3a22.159,22.159,0,0,1-9.875-2.066,19.38,19.38,0,0,1-7.131-6.043l-1.432,7.025H250.084V-72.363h17.364v30.63a19.1,19.1,0,0,1,6.713-5.165,21.172,21.172,0,0,1,8.98-1.808q12.292,0,18.737,8.032t6.444,21.41Zm-17.364-1.085q0-8.161-2.775-12.939t-9.458-4.778a14.621,14.621,0,0,0-6.862,1.472,10.916,10.916,0,0,0-4.416,4.21V-7.642a10.442,10.442,0,0,0,4.445,3.874,16.163,16.163,0,0,0,6.952,1.343q6.743,0,9.428-4.106t2.685-11.648ZM357.133,8.215a29,29,0,0,1-1.641-4.029,24.728,24.728,0,0,1-.985-4.339,22.1,22.1,0,0,1-7.1,6.767A19.82,19.82,0,0,1,336.9,9.3q-10.144,0-15.634-4.52t-5.49-12.319q0-8.213,7.31-12.732t21.332-4.52h9.786v-4.442a8.011,8.011,0,0,0-2.447-6.25q-2.447-2.221-7.28-2.221a10.461,10.461,0,0,0-6.534,1.782,5.841,5.841,0,0,0-2.3,4.881H318.884l-.119-.31q-.418-7.076,7.131-12.216t19.721-5.139q11.636,0,18.826,5.062t7.19,14.514V-6.041a37.949,37.949,0,0,0,.686,7.386,33.24,33.24,0,0,0,2.178,6.87ZM341.2-1.857a16.6,16.6,0,0,0,8.115-1.963,11.323,11.323,0,0,0,4.893-4.545v-7.9h-9.786q-5.549,0-8.384,2.376a7.338,7.338,0,0,0-2.834,5.837,5.466,5.466,0,0,0,2.118,4.52A9.234,9.234,0,0,0,341.2-1.857Z" transform="translate(173.128 159.984)" fill="none" stroke="#fff" stroke-width="1"/>
          <path id="Trazado_827891" data-name="Trazado 827891" d="M61.431-17.605Q61.431-5.6,55.016,1.7T37.1,9.006a22.691,22.691,0,0,1-8.726-1.576A17.645,17.645,0,0,1,21.847,2.8V28.765H5.031V-46.168h15.2l.982,6.4a19.151,19.151,0,0,1,6.674-5.477,20.322,20.322,0,0,1,9.1-1.926q11.615,0,18.029,7.853t6.414,20.659Zm-16.874-1.05q0-7.653-2.947-12.405T32.6-35.813a14.347,14.347,0,0,0-6.5,1.351,10.415,10.415,0,0,0-4.247,3.852V-6.9a9.868,9.868,0,0,0,4.247,3.5,16.2,16.2,0,0,0,6.617,1.2q6.125,0,8.986-4.152t2.86-11.255Zm60.156-14.956-6.183-.15a12.616,12.616,0,0,0-6.183,1.351,9.013,9.013,0,0,0-3.7,3.8V7.956H71.832V-46.168h15.66l.751,8a17.538,17.538,0,0,1,5.692-6.628A14,14,0,0,1,102-47.168a14.519,14.519,0,0,1,2.34.175q1.069.175,2.167.425Zm47.1,33.565a19.841,19.841,0,0,1-7.339,6.7,21.823,21.823,0,0,1-10.344,2.351q-9.881,0-15.458-5.8T113.092-14.8V-46.168h16.816V-14.7q0,7.1,2.225,9.729t6.905,2.626a19.113,19.113,0,0,0,6.934-1.125A11.52,11.52,0,0,0,150.711-6.8V-46.168h16.874V7.956H153.6ZM207.4,9.006q-13.984,0-21.843-7.428T177.7-17.555v-2q0-12.155,7.628-19.909t20.976-7.7q12.6,0,19.329,6.678t6.732,17.983v7.553H195.091l-.173.3a13.554,13.554,0,0,0,3.9,9Q202.314-2.2,209.19-2.2a39.819,39.819,0,0,0,9.621-1,42.7,42.7,0,0,0,8.177-3.051l4.565,9a33.342,33.342,0,0,1-10.17,4.452A51.6,51.6,0,0,1,207.4,9.006Zm-1.1-44.92q-5.085,0-7.83,3.026a13.989,13.989,0,0,0-3.323,8.028l.116.25h20.572v-1.1a11.394,11.394,0,0,0-2.254-7.478Q211.329-35.913,206.3-35.913Zm92.285,18.308q0,12.105-6.241,19.358T274.316,9.006a21.459,21.459,0,0,1-9.564-2,18.768,18.768,0,0,1-6.905-5.853l-1.387,6.8H242.186V-70.078H259v29.663a18.5,18.5,0,0,1,6.5-5,20.5,20.5,0,0,1,8.7-1.751q11.9,0,18.145,7.778t6.241,20.734Zm-16.816-1.05q0-7.9-2.687-12.53t-9.159-4.627a14.159,14.159,0,0,0-6.645,1.426A10.571,10.571,0,0,0,259-30.311V-7.4a10.112,10.112,0,0,0,4.305,3.752,15.653,15.653,0,0,0,6.732,1.3q6.53,0,9.13-3.977t2.6-11.28ZM345.855,7.956a28.091,28.091,0,0,1-1.589-3.9,23.946,23.946,0,0,1-.953-4.2,21.4,21.4,0,0,1-6.877,6.553,19.194,19.194,0,0,1-10.17,2.6q-9.824,0-15.14-4.377T305.809-7.3q0-7.953,7.079-12.33t20.659-4.377h9.477v-4.3a7.758,7.758,0,0,0-2.369-6.053q-2.369-2.151-7.05-2.151a10.131,10.131,0,0,0-6.328,1.726,5.657,5.657,0,0,0-2.225,4.727H308.814l-.116-.3q-.4-6.853,6.905-11.83t19.1-4.977q11.268,0,18.232,4.9T359.9-28.21V-5.85a36.75,36.75,0,0,0,.665,7.153,32.189,32.189,0,0,0,2.109,6.653ZM330.426-1.8a16.077,16.077,0,0,0,7.859-1.9,10.965,10.965,0,0,0,4.738-4.4v-7.653h-9.477q-5.374,0-8.119,2.3A7.106,7.106,0,0,0,322.683-7.8a5.294,5.294,0,0,0,2.051,4.377A8.943,8.943,0,0,0,330.426-1.8Z" transform="translate(90.753 249.325)" fill="none" stroke="#fff" stroke-width="1"/>
        </g>
      </g>
    </g>
    <g id="Grupo_1074771" data-name="Grupo 1074771" transform="translate(333 6934.385)">
      <g id="Grupo_1074772" data-name="Grupo 1074772" transform="translate(0 0)">
        <path id="Trazado_828196" data-name="Trazado 828196" d="M152.105,130.248H109.8a4.462,4.462,0,0,1,0-8.924h42.3a4.462,4.462,0,0,1,0,8.924" transform="translate(40.321 46.438)" fill="#c56e81"/>
        <path id="Trazado_828197" data-name="Trazado 828197" d="M175.44,153.4H125.519a5.171,5.171,0,0,1-4.889-6.655l23.84-82.176a5.109,5.109,0,0,1,4.888-3.72h49.921a5.171,5.171,0,0,1,4.889,6.657l-23.839,82.176a5.112,5.112,0,0,1-4.889,3.718" transform="translate(46.093 23.289)" fill="#c56e81"/>
        <path id="Trazado_828198" data-name="Trazado 828198" d="M168.691,153.4H125.208a5.171,5.171,0,0,1-4.889-6.655l23.84-82.176a5.109,5.109,0,0,1,4.888-3.72h43.482a5.171,5.171,0,0,1,4.889,6.657L173.58,149.679a5.112,5.112,0,0,1-4.889,3.718" transform="translate(45.974 23.289)" fill="#fff"/>
        <path id="Trazado_828199" data-name="Trazado 828199" d="M176.061,130.248H123.223a4.462,4.462,0,0,1,0-8.924h52.838a4.462,4.462,0,0,1,0,8.924" transform="translate(45.458 46.438)" fill="#c56e81"/>
        <path id="Trazado_828200" data-name="Trazado 828200" d="M120.246,58.028A212.009,212.009,0,0,0,100.1,93.421a6.986,6.986,0,0,0,.552,6.608c2.905,4.418,10.491,3.4,13.414-.709,0,0,22.323-30.909,21.373-32.159-.227-.3-15.2-9.133-15.2-9.133" transform="translate(38.094 22.211)" fill="#eac8ce"/>
        <path id="Trazado_828201" data-name="Trazado 828201" d="M113.305,82.816,84.057,71.051,81.525,86.358l29.447,11.2a5.834,5.834,0,0,0,3.337.275,7.621,7.621,0,0,0-1-15.015" transform="translate(31.206 27.195)" fill="#eac8ce"/>
        <path id="Trazado_828202" data-name="Trazado 828202" d="M137.533,55.31l-20.246,2.6a3.843,3.843,0,0,0-3.335,4.191l13.081,56.753,43.455-.108L164.335,62.3a3.844,3.844,0,0,0-3.392-4.281Z" transform="translate(43.61 21.17)" fill="#eac8ce"/>
        <path id="Trazado_828203" data-name="Trazado 828203" d="M119.1,81.3c0-.676-3.631-14.476-3.631-14.476" transform="translate(44.197 25.576)" fill="none" stroke="#d5b2ba" stroke-miterlimit="10" stroke-width="0.844"/>
        <path id="Trazado_828204" data-name="Trazado 828204" d="M135.144,97.415H100.123V93.463h35.021a1.976,1.976,0,1,1,0,3.952" transform="translate(38.324 35.774)" fill="#061418"/>
        <path id="Trazado_828205" data-name="Trazado 828205" d="M121.514,108.109H71.234a5.954,5.954,0,0,1-5.736-4.357L56.45,71.242a4.509,4.509,0,0,1,4.345-5.719h46.5a3.927,3.927,0,0,1,3.8,2.927Z" transform="translate(21.543 25.08)" fill="#1c2e34"/>
        <path id="Trazado_828206" data-name="Trazado 828206" d="M84.054,83.453a4.39,4.39,0,1,1-4.39-4.39,4.39,4.39,0,0,1,4.39,4.39" transform="translate(28.813 30.262)" fill="#fff"/>
        <path id="Trazado_828207" data-name="Trazado 828207" d="M137.879,67.824s11.036,21.852,23.492,39.463c1.4,1.975,4.693,2.955,7.109,2.851,5.454-.235,7.764-6.108,5.7-10.888,0,0-17.452-40.33-19.869-40.989-.372-.1-16.436,9.563-16.436,9.563" transform="translate(52.776 22.3)" fill="#eac8ce"/>
        <path id="Trazado_828208" data-name="Trazado 828208" d="M128.76,90.322l9.489-.731-.3,9.5-8.214,0Z" transform="translate(49.286 34.292)" fill="#c35f54"/>
        <path id="Trazado_828209" data-name="Trazado 828209" d="M134.672,90.688s-21.755-8.386-19.338,8.747h20.883Z" transform="translate(44.075 33.926)" fill="#c35f54"/>
        <path id="Trazado_828210" data-name="Trazado 828210" d="M167.752,85.16l-34.107,1.026.664,15.27,35.439-.747a7.838,7.838,0,0,0-2-15.549" transform="translate(51.156 32.574)" fill="#eac8ce"/>
        <path id="Trazado_828211" data-name="Trazado 828211" d="M146.08,71.274,155.1,90.835l-21.451.646-.021,5.12" transform="translate(51.15 27.281)" fill="none" stroke="#d5b2ba" stroke-miterlimit="10" stroke-width="0.844"/>
        <line id="Línea_360" data-name="Línea 360" x2="4.765" y2="2.337" transform="translate(206.253 118.115)" fill="none" stroke="#d5b2ba" stroke-miterlimit="10" stroke-width="0.844"/>
        <path id="Trazado_828212" data-name="Trazado 828212" d="M123.254,39.88a4.392,4.392,0,0,1-3.579,5.051,4.344,4.344,0,0,1-4.913-3.721,4.392,4.392,0,0,1,3.579-5.051,4.346,4.346,0,0,1,4.913,3.721" transform="translate(43.908 13.821)" fill="#0b181b"/>
        <path id="Trazado_828213" data-name="Trazado 828213" d="M125.257,49.285l1.007,11.877c.344,4.17,3.019,6.185,6.991,5.808,3.392-.322,6.98-2.284,6.52-5.949l-2.456-18.612Z" transform="translate(47.945 16.232)" fill="#c35f54"/>
        <path id="Trazado_828214" data-name="Trazado 828214" d="M131.459,60.335h0c-6.781.59-12.844-4.455-13.528-10.156l-1.363-11.936a13.192,13.192,0,0,1,10.82-14.755c7.051-1.1,14.9,3.711,16.008,10.994l.95,9.314a14.971,14.971,0,0,1-12.887,16.539" transform="translate(44.581 8.929)" fill="#c35f54"/>
        <path id="Trazado_828215" data-name="Trazado 828215" d="M122.382,39.534l-.04,2.662,1.683-.077" transform="translate(46.829 15.132)" fill="none" stroke="#312220" stroke-linecap="round" stroke-linejoin="round" stroke-width="0.578"/>
        <path id="Trazado_828216" data-name="Trazado 828216" d="M128.061,34.333s-2.8,0-2.728,1.167c0,0,.069.791,2.506.744s3.052-.282,3.211-1.044-1.684-.969-2.988-.867" transform="translate(47.973 13.132)" fill="#0b181b"/>
        <path id="Trazado_828217" data-name="Trazado 828217" d="M119.672,34.809s2.273-.437,2.553.644c0,0,.17.733-1.823,1.07s-2.67.127-2.909-.456c-.272-.661,1.091-1.149,2.179-1.258" transform="translate(44.96 13.29)" fill="#0b181b"/>
        <path id="Trazado_828218" data-name="Trazado 828218" d="M125.583,38.3a3,3,0,0,1,3.6.006" transform="translate(48.07 14.424)" fill="none" stroke="#312220" stroke-linecap="round" stroke-linejoin="round" stroke-width="0.578"/>
        <path id="Trazado_828219" data-name="Trazado 828219" d="M121.534,38.705s-1.271-1.323-3.046.277" transform="translate(45.354 14.618)" fill="none" stroke="#312220" stroke-linecap="round" stroke-linejoin="round" stroke-width="0.578"/>
        <path id="Trazado_828220" data-name="Trazado 828220" d="M136.023,27.608s-3.191,4.093,3.153,9.059c0,0-1.076,10.257-2.461,12.871,0,0-12.853-2.631-18.879,1.569,0,0,.207,8.96,10.772,9.388,14.049.568,15.528-13.713,15.528-13.713l-2.931-6.9,4.794.653s9.743-14.718-5.449-14.718Z" transform="translate(45.104 9.881)" fill="#0b181b"/>
        <path id="Trazado_828221" data-name="Trazado 828221" d="M142.737,38.368a4.393,4.393,0,0,1-3.579,5.051,4.344,4.344,0,0,1-4.913-3.721,4.392,4.392,0,0,1,3.579-5.051,4.346,4.346,0,0,1,4.913,3.721" transform="translate(51.365 13.242)" fill="#c35f54"/>
        <path id="Trazado_828222" data-name="Trazado 828222" d="M136.377,39.6s-.484-3.18,2.536-3.14" transform="translate(52.19 13.955)" fill="none" stroke="#312220" stroke-linecap="round" stroke-linejoin="round" stroke-width="0.519"/>
        <path id="Trazado_828223" data-name="Trazado 828223" d="M137.985,30.993a174.43,174.43,0,0,1-18.837.149s-7-2.62-4.1-6.87c2.3-3.359,7.851-.619,7.851-.619s-.093-3.461,2.347-4.4c2.925-1.13,11.463-2.042,18.742,9.545Z" transform="translate(43.768 7.127)" fill="#0b181b"/>
        <path id="Trazado_828224" data-name="Trazado 828224" d="M126.972,56.452l-3.75.481s-1.675,6.268,7.026,6.9c9.067.655,12.643-2.7,14.393-7.175l-9.982-1.959Z" transform="translate(47.116 20.935)" fill="#c35f54"/>
        <rect id="Rectángulo_383849" data-name="Rectángulo 383849" width="12.798" height="17.3" transform="translate(138.677 208.94) rotate(-0.241)" fill="#c35f54"/>
        <path id="Trazado_828225" data-name="Trazado 828225" d="M144.164,101.189l.9,5.516a19.357,19.357,0,0,1-19.1,22.473h-5.719v48.655l-23.743.318-1.325-59.608A16.966,16.966,0,0,1,112.1,101.258Z" transform="translate(36.429 38.731)" fill="#0086ff"/>
        <path id="Trazado_828226" data-name="Trazado 828226" d="M119.277,162.266c-3.012.8-9.908,2.93-13.1-1.7L84.56,172.273l38.152-.252-1.7-8.609a1.393,1.393,0,0,0-1.737-1.146" transform="translate(32.367 61.457)" fill="#0b181b"/>
        <rect id="Rectángulo_383850" data-name="Rectángulo 383850" width="38.153" height="3.307" transform="translate(116.929 233.73) rotate(-0.376)" fill="#fff"/>
        <path id="Trazado_828227" data-name="Trazado 828227" d="M101.276,165.422a.617.617,0,0,1-.25-.2,12.732,12.732,0,0,0-2.817-2.884.6.6,0,0,1,.669-1.005A13.62,13.62,0,0,1,102,164.512a.6.6,0,0,1-.727.91" transform="translate(37.489 61.715)" fill="#fff"/>
        <path id="Trazado_828228" data-name="Trazado 828228" d="M99.151,166.541a.608.608,0,0,1-.25-.2,12.732,12.732,0,0,0-2.817-2.884.6.6,0,0,1,.669-1.005,13.654,13.654,0,0,1,3.125,3.179.6.6,0,0,1-.727.91" transform="translate(36.676 62.143)" fill="#fff"/>
        <path id="Trazado_828229" data-name="Trazado 828229" d="M97.026,167.66a.609.609,0,0,1-.25-.2,12.666,12.666,0,0,0-2.817-2.883.6.6,0,0,1,.668-1.007,13.677,13.677,0,0,1,3.126,3.179.6.6,0,0,1-.727.91" transform="translate(35.863 62.571)" fill="#fff"/>
        <rect id="Rectángulo_383851" data-name="Rectángulo 383851" width="12.798" height="17.3" transform="translate(172.18 208.94) rotate(-0.241)" fill="#c35f54"/>
        <path id="Trazado_828230" data-name="Trazado 828230" d="M143.339,161.6c-3.013.8-9.827,3.432-13.026-1.2L108.7,172.112l38.152-.252-1.777-9.112a1.393,1.393,0,0,0-1.737-1.145" transform="translate(41.608 61.396)" fill="#0b181b"/>
        <rect id="Rectángulo_383852" data-name="Rectángulo 383852" width="38.153" height="3.307" transform="matrix(1, -0.007, 0.007, 1, 150.311, 233.506)" fill="#fff"/>
        <path id="Trazado_828231" data-name="Trazado 828231" d="M125.418,165.26a.608.608,0,0,1-.25-.2,12.732,12.732,0,0,0-2.817-2.884.6.6,0,0,1,.669-1.005,13.621,13.621,0,0,1,3.125,3.179.6.6,0,0,1-.727.91" transform="translate(46.73 61.653)" fill="#fff"/>
        <path id="Trazado_828232" data-name="Trazado 828232" d="M123.292,166.379a.608.608,0,0,1-.25-.2,12.73,12.73,0,0,0-2.817-2.884.6.6,0,0,1,.669-1.005,13.62,13.62,0,0,1,3.125,3.179.6.6,0,0,1-.727.91" transform="translate(45.916 62.081)" fill="#fff"/>
        <path id="Trazado_828233" data-name="Trazado 828233" d="M121.167,167.5a.608.608,0,0,1-.25-.2,12.731,12.731,0,0,0-2.817-2.884.6.6,0,0,1,.668-1.005,13.679,13.679,0,0,1,3.126,3.179.6.6,0,0,1-.727.91" transform="translate(45.103 62.509)" fill="#fff"/>
        <path id="Trazado_828234" data-name="Trazado 828234" d="M168.393,101.189l.9,5.516a19.357,19.357,0,0,1-19.1,22.473H144.47v48.655l-23.743.318L119.4,118.543a16.966,16.966,0,0,1,16.926-17.285Z" transform="translate(45.703 38.731)" fill="#0086ff"/>
        <path id="Trazado_828235" data-name="Trazado 828235" d="M119.238,129.138V117.769a16.8,16.8,0,0,1,16.708-16.852l4.231-.007" transform="translate(45.641 38.624)" fill="none" stroke="#55382c" stroke-miterlimit="10" stroke-width="0.844"/>
        <path id="Trazado_828236" data-name="Trazado 828236" d="M96.736,200.209,62.674,98.993,35.261,198.978" transform="translate(13.497 37.891)" fill="none" stroke="#55382e" stroke-miterlimit="10" stroke-width="1.147"/>
        <path id="Trazado_828237" data-name="Trazado 828237" d="M200.295,200.209,166.233,98.993,138.82,198.978" transform="translate(53.136 37.891)" fill="none" stroke="#55382e" stroke-miterlimit="10" stroke-width="1.147"/>
        <rect id="Rectángulo_383853" data-name="Rectángulo 383853" width="209.82" height="6.857" transform="translate(26.327 133.206)" fill="#fff"/>
        <path id="Trazado_828238" data-name="Trazado 828238" d="M47.062,38.558h57.253a2.891,2.891,0,0,0,2.89-2.891V16.592a2.891,2.891,0,0,0-2.89-2.891H47.062a2.891,2.891,0,0,0-2.891,2.891V35.666a2.891,2.891,0,0,0,2.891,2.891" transform="translate(16.908 5.244)" fill="#fff"/>
        <line id="Línea_361" data-name="Línea 361" x1="41.892" transform="translate(71.129 28.469)" fill="none" stroke="#f1d5ce" stroke-linecap="round" stroke-linejoin="round" stroke-width="0.98"/>
        <line id="Línea_362" data-name="Línea 362" x1="14.343" transform="translate(71.269 35.075)" fill="none" stroke="#f1d5ce" stroke-linecap="round" stroke-linejoin="round" stroke-width="0.98"/>
        <path id="Trazado_828239" data-name="Trazado 828239" d="M87.319,29.285V40.527L72.989,29.285Z" transform="translate(27.939 11.209)" fill="#fff"/>
        <path id="Trazado_828240" data-name="Trazado 828240" d="M56.494,43.08l8.792,34.754,17.2,29.749-5.931,5.007L52.175,82.066,42.439,53.934Z" transform="translate(16.245 16.489)" fill="#f9b0a3"/>
        <path id="Trazado_828241" data-name="Trazado 828241" d="M73.04,89.728l15.281,4.509c1.452.422,2.822,1.005,3.262,2.438a3,3,0,0,1-.227,2.143l-.017.036a3.13,3.13,0,0,1-3.432,1.738l-12.752-1.67,1.915,3.3a1.675,1.675,0,0,1-2.311,2.337l-4.484-2.972a5.683,5.683,0,0,1-2.4-3.475l-.767-3.378,1.81-5.007Z" transform="translate(25.688 34.344)" fill="#f9b0a3"/>
        <path id="Trazado_828242" data-name="Trazado 828242" d="M57.243,38.58l5.9,21.362L44.495,68.449l5.856-17.4Z" transform="translate(17.032 14.767)" fill="#ff9184"/>
        <path id="Trazado_828243" data-name="Trazado 828243" d="M50.341,31.352s-17.914-6.6-28.307,12.305S3.32,103.605,3.32,103.605l46.323,3.876L67.8,54.541c2.284-4.888,7.979-11.213,3.939-14.79A20.983,20.983,0,0,0,63.9,35.562Z" transform="translate(1.271 11.573)" fill="#ff9184"/>
        <line id="Línea_363" data-name="Línea 363" y1="15.342" x2="5.261" transform="translate(63.516 66.967)" fill="none" stroke="#ff6c63" stroke-miterlimit="10" stroke-width="1.02"/>
        <path id="Trazado_828244" data-name="Trazado 828244" d="M52.295,76.486,33.477,36.64,18.832,58.166,39.4,86.363a9.4,9.4,0,0,0,8.013,3.847l39.233-1.766,5.09-6.829Z" transform="translate(7.209 14.024)" fill="#ffc1b2"/>
        <path id="Trazado_828245" data-name="Trazado 828245" d="M73.669,69.165l17.008.993,6.946,2.33a1.518,1.518,0,0,1-.875,2.905l-6.841-1.831-4.823-.383,2.07,1.869A6.844,6.844,0,0,1,89.19,78.4l.289,1.108A2.954,2.954,0,0,1,87.42,83.1l-3.355.943a2.954,2.954,0,0,1-3.533-1.724l-1.051-2.561-3.248-1.636A9.856,9.856,0,0,1,67.519,76c-3.565-3,.42-3.883.787-4.049s5.362-2.788,5.362-2.788" transform="translate(25.282 26.474)" fill="#ffc1b2"/>
        <path id="Trazado_828246" data-name="Trazado 828246" d="M36.806,34.516,52.92,62.12,27.86,79.908,15.055,52.525Z" transform="translate(5.763 13.211)" fill="#ff9184"/>
        <path id="Trazado_828247" data-name="Trazado 828247" d="M19.258,57.354l7.6,13.376,4.433-3.2" transform="translate(7.372 21.953)" fill="none" stroke="#ff6c63" stroke-miterlimit="10" stroke-width="1.02"/>
        <line id="Línea_364" data-name="Línea 364" x1="10.282" y1="19.309" transform="translate(43.404 59.57)" fill="none" stroke="#ff6c63" stroke-miterlimit="10" stroke-width="1.02"/>
        <path id="Trazado_828248" data-name="Trazado 828248" d="M60.59,171.793l-1.563-30.7-13.833,2.4L49.043,175.2l11.886-2.269Z" transform="translate(17.3 54.006)" fill="#ffc1b2"/>
        <path id="Trazado_828249" data-name="Trazado 828249" d="M47.58,162.065s9.881,4.105,14.53-2.533l24,12.535-41.606.091Z" transform="translate(17.036 61.063)"/>
        <path id="Trazado_828250" data-name="Trazado 828250" d="M86.092,172.2l-41.606.091.029-3.6,41.6-.091Z" transform="translate(17.028 64.533)" fill="#fff"/>
        <path id="Trazado_828251" data-name="Trazado 828251" d="M57.313,164.831a.686.686,0,0,0,.278-.22,14.216,14.216,0,0,1,3.131-3.167.652.652,0,0,0,.185-.913.682.682,0,0,0-.928-.174,15.228,15.228,0,0,0-3.474,3.49.648.648,0,0,0,.148.917.681.681,0,0,0,.66.066" transform="translate(21.58 61.337)" fill="#fff"/>
        <path id="Trazado_828252" data-name="Trazado 828252" d="M59.674,166.028a.673.673,0,0,0,.277-.22,14.216,14.216,0,0,1,3.131-3.167.653.653,0,0,0,.187-.913.681.681,0,0,0-.929-.174,15.261,15.261,0,0,0-3.473,3.49.649.649,0,0,0,.149.917.681.681,0,0,0,.66.066" transform="translate(22.484 61.795)" fill="#fff"/>
        <path id="Trazado_828253" data-name="Trazado 828253" d="M62.034,167.224a.673.673,0,0,0,.277-.22,14.26,14.26,0,0,1,3.131-3.165.649.649,0,0,0,.185-.913.677.677,0,0,0-.926-.176,15.288,15.288,0,0,0-3.475,3.49.648.648,0,0,0,.149.917.68.68,0,0,0,.66.066" transform="translate(23.387 62.253)" fill="#fff"/>
        <path id="Trazado_828254" data-name="Trazado 828254" d="M44.2,86.741,70.03,125.2c2.724,4.768,2.535,6.4,2.9,11.885l2.691,46.4L52.852,185.02l-5.721-46.063L18.955,93.529l-1.412-9.108Z" transform="translate(6.716 32.313)" fill="#fff"/>
        <path id="Trazado_828255" data-name="Trazado 828255" d="M14.494,173.585l8.131-31.739-13.833,2.4-6.16,29.342,11.3,1.332Z" transform="translate(1.008 54.294)" fill="#ffc1b2"/>
        <path id="Trazado_828256" data-name="Trazado 828256" d="M3.094,162.065s9.881,4.105,14.53-2.533l24,12.535-41.6.091Z" transform="translate(0.008 61.063)"/>
        <path id="Trazado_828257" data-name="Trazado 828257" d="M41.606,172.2,0,172.288l.029-3.6,41.6-.091Z" transform="translate(0.001 64.533)" fill="#fff"/>
        <path id="Trazado_828258" data-name="Trazado 828258" d="M12.827,164.831a.686.686,0,0,0,.278-.22,14.216,14.216,0,0,1,3.131-3.167.652.652,0,0,0,.185-.913.682.682,0,0,0-.928-.174,15.228,15.228,0,0,0-3.474,3.49.647.647,0,0,0,.148.917.681.681,0,0,0,.66.066" transform="translate(4.552 61.337)" fill="#fff"/>
        <path id="Trazado_828259" data-name="Trazado 828259" d="M15.187,166.028a.686.686,0,0,0,.278-.22,14.216,14.216,0,0,1,3.131-3.167.651.651,0,0,0,.185-.913.68.68,0,0,0-.928-.174,15.229,15.229,0,0,0-3.474,3.49.648.648,0,0,0,.148.917.681.681,0,0,0,.66.066" transform="translate(5.456 61.795)" fill="#fff"/>
        <path id="Trazado_828260" data-name="Trazado 828260" d="M17.547,167.224a.686.686,0,0,0,.278-.22,14.226,14.226,0,0,1,3.131-3.165.65.65,0,0,0,.185-.913.678.678,0,0,0-.926-.176,15.257,15.257,0,0,0-3.475,3.49.647.647,0,0,0,.148.917.681.681,0,0,0,.66.066" transform="translate(6.359 62.253)" fill="#fff"/>
        <path id="Trazado_828261" data-name="Trazado 828261" d="M28.138,109.278l-.036-5.433,7.459-8.677" transform="translate(10.757 36.427)" fill="none" stroke="#e2e2e2" stroke-miterlimit="10" stroke-width="0.76"/>
        <path id="Trazado_828262" data-name="Trazado 828262" d="M5.675,83.374S-.418,96.336,7.29,114.026c.3.678.592,1.286.891,1.864l3.131,26.862L.56,186.105l23.692.282,12.785-38.149a31.289,31.289,0,0,0,.92-5.835l-.329-49.224,5.561-6.69Z" transform="translate(0.215 31.912)" fill="#fff"/>
        <path id="Trazado_828263" data-name="Trazado 828263" d="M61.257,10.979s5.125,10.68-3.866,10.356Z" transform="translate(21.968 4.202)" fill="#0b181b"/>
        <path id="Trazado_828264" data-name="Trazado 828264" d="M53.045,21.192a4.77,4.77,0,0,0,2.439,6.265,4.719,4.719,0,0,0,6.157-2.624A4.771,4.771,0,0,0,59.2,18.568a4.72,4.72,0,0,0-6.157,2.624" transform="translate(20.157 6.969)" fill="#f1998a"/>
        <path id="Trazado_828265" data-name="Trazado 828265" d="M53.183,30.119,49.455,41.011c-1.3,3.827-4.28,5.087-7.914,3.8-3.1-1.1-6-3.778-4.714-7.1l6.665-16.863Z" transform="translate(13.977 7.979)" fill="#ffc1b2"/>
        <path id="Trazado_828266" data-name="Trazado 828266" d="M49.146,36.688s-9.129-2.29-8.464-13.222C40.893,20.023,52,28.328,52,28.328Z" transform="translate(15.559 8.662)" fill="#0b181b"/>
        <path id="Trazado_828267" data-name="Trazado 828267" d="M47.944,38.618h0C54.16,40.761,61.024,37.455,63,32.272l4.076-10.864A12.74,12.74,0,0,0,60.4,5.047c-6.348-2.689-14.833-.018-17.579,6.546L39.747,20.1a14.462,14.462,0,0,0,8.2,18.519" transform="translate(14.862 1.535)" fill="#ffc1b2"/>
        <path id="Trazado_828268" data-name="Trazado 828268" d="M53.078,20.426l-.548,2.336L50.972,22.3" transform="translate(19.511 7.818)" fill="none" stroke="#0b181b" stroke-linecap="round" stroke-linejoin="round" stroke-width="0.527"/>
        <path id="Trazado_828269" data-name="Trazado 828269" d="M51.014,12.437s2.622.655,2.282,1.735c0,0-.249.725-2.522.109S47.98,13.3,48.01,12.55s1.806-.513,3-.113" transform="translate(18.377 4.616)" fill="#0b181b"/>
        <path id="Trazado_828270" data-name="Trazado 828270" d="M58.313,15.369s-2.027-.942-2.543.006c0,0-.332.647,1.457,1.43s2.471.745,2.833.254c.409-.556-.754-1.332-1.748-1.69" transform="translate(21.338 5.723)" fill="#0b181b"/>
        <path id="Trazado_828271" data-name="Trazado 828271" d="M54.574,19.7a1.131,1.131,0,1,0,1.468-.691,1.153,1.153,0,0,0-1.468.691" transform="translate(20.86 7.248)" fill="#0b181b"/>
        <path id="Trazado_828272" data-name="Trazado 828272" d="M47.877,17.153a1.131,1.131,0,1,0,1.468-.691,1.151,1.151,0,0,0-1.468.691" transform="translate(18.296 6.273)" fill="#0b181b"/>
        <path id="Trazado_828273" data-name="Trazado 828273" d="M53.5,19.979a5.323,5.323,0,1,0,6.885-3.042A5.322,5.322,0,0,0,53.5,19.979Z" transform="translate(20.342 6.344)" fill="none" stroke="#fff" stroke-miterlimit="10" stroke-width="0.49"/>
        <path id="Trazado_828274" data-name="Trazado 828274" d="M48.056,13.837a5.323,5.323,0,1,0,7.02,2.716A5.322,5.322,0,0,0,48.056,13.837Z" transform="translate(17.181 5.121)" fill="none" stroke="#fff" stroke-miterlimit="10" stroke-width="0.49"/>
        <line id="Línea_365" data-name="Línea 365" x1="4.686" y1="1.813" transform="translate(57.739 20.093)" fill="none" stroke="#fff" stroke-miterlimit="10" stroke-width="0.49"/>
        <line id="Línea_366" data-name="Línea 366" x2="1.493" y2="0.578" transform="translate(71.954 26.707)" fill="none" stroke="#fff" stroke-miterlimit="10" stroke-width="0.49"/>
        <path id="Trazado_828275" data-name="Trazado 828275" d="M47.8,22.631s1.135,2.276,5.441,2.276" transform="translate(18.296 8.662)" fill="none" stroke="#0b181b" stroke-linecap="round" stroke-linejoin="round" stroke-width="0.527"/>
        <path id="Trazado_828276" data-name="Trazado 828276" d="M39.888,5.516c2.576-4.833,6.95-2.825,6.95-2.825V2.7C49.751.12,55.491-1.022,60.864,1.132c7.28,2.919,12.459,9.412,12.224,13.731s-5.892,2.1-5.892,2.1a131.031,131.031,0,0,1-15.039-5.351c-.673,2.974-2.551,7.414-7.691,5.838L40.258,25.7s-3.71-13.916-.371-20.18" transform="translate(14.735 0)" fill="#0b181b"/>
        <path id="Trazado_828277" data-name="Trazado 828277" d="M35.517,14.89A4.724,4.724,0,0,0,37.931,21.1a4.674,4.674,0,0,0,6.1-2.6,4.723,4.723,0,0,0-2.414-6.2,4.674,4.674,0,0,0-6.1,2.6" transform="translate(13.449 4.568)" fill="#ffc1b2"/>
        <path id="Trazado_828278" data-name="Trazado 828278" d="M39.725,17.677s1.334-3.191-1.825-3.94" transform="translate(14.508 5.258)" fill="none" stroke="#312220" stroke-linecap="round" stroke-linejoin="round" stroke-width="0.558"/>
        <path id="Trazado_828279" data-name="Trazado 828279" d="M34.767,30.383,45.974,33l7.72,3.1s-2.188,7.6-9.143,6.34c-12.825-2.32-9.784-12.055-9.784-12.055" transform="translate(13.188 11.629)" fill="#ffc1b2"/>
      </g>
    </g>
  </g>
</svg>
