<svg xmlns="http://www.w3.org/2000/svg" xmlns:xlink="http://www.w3.org/1999/xlink" width="247.976" height="251.206" viewBox="0 0 247.976 251.206">
  <defs>
    <clipPath id="clip-path">
      <rect id="Rectángulo_383683" data-name="Rectángulo 383683" width="247.736" height="155.566" rx="14" transform="translate(0 0)" fill="#273a89"/>
    </clipPath>
    <clipPath id="clip-path-2">
      <rect id="Rectángulo_383869" data-name="Rectángulo 383869" width="247.976" height="228.206" fill="none"/>
    </clipPath>
    <clipPath id="clip-path-5">
      <rect id="Rectángulo_383855" data-name="Rectángulo 383855" width="33.568" height="13.314" fill="none"/>
    </clipPath>
    <clipPath id="clip-path-6">
      <rect id="Rectángulo_383856" data-name="Rectángulo 383856" width="13.181" height="13.586" fill="none"/>
    </clipPath>
    <clipPath id="clip-path-7">
      <rect id="Rectángulo_383857" data-name="Rectángulo 383857" width="13.044" height="5.037" fill="none"/>
    </clipPath>
    <clipPath id="clip-path-8">
      <rect id="Rectángulo_383858" data-name="Rectángulo 383858" width="34.076" height="13.516" fill="none"/>
    </clipPath>
    <clipPath id="clip-path-9">
      <rect id="Rectángulo_383859" data-name="Rectángulo 383859" width="13.38" height="13.791" fill="none"/>
    </clipPath>
    <clipPath id="clip-path-10">
      <rect id="Rectángulo_383860" data-name="Rectángulo 383860" width="13.242" height="5.113" fill="none"/>
    </clipPath>
    <clipPath id="clip-path-14">
      <rect id="Rectángulo_383866" data-name="Rectángulo 383866" width="42.569" height="56.001" fill="none"/>
    </clipPath>
    <clipPath id="clip-path-15">
      <rect id="Rectángulo_383867" data-name="Rectángulo 383867" width="7.445" height="32.73" fill="none"/>
    </clipPath>
  </defs>
  <g id="Grupo_1074819" data-name="Grupo 1074819" transform="translate(5859 4771)">
    <g id="Grupo_1074773" data-name="Grupo 1074773" transform="translate(-6194.477 -11693)">
      <g id="Grupo_1074757" data-name="Grupo 1074757" transform="translate(335.477 6922)">
        <g id="Grupo_1074626" data-name="Grupo 1074626" transform="translate(5.339 0)">
          <path id="Trazado_818450" data-name="Trazado 818450" d="M204.908,45.939,170.1,10.559,137.332,43.87l-32.955-33.5-34.436,35L35.875,10.749,5.1,42.029,0,36.843,35.875.377,69.941,35,104.377,0l32.955,33.5L170.1.187l34.807,35.38L237.533,2.406l5.1,5.184Z" transform="translate(0 0)" fill="#add3fd"/>
          <path id="Trazado_818451" data-name="Trazado 818451" d="M204.908,62.735,170.1,27.357,137.332,60.663l-32.955-33.5-34.436,35L35.875,27.544,5.1,58.826,0,53.638,35.875,17.172,69.941,51.8l34.436-35,32.955,33.5L170.1,16.985l34.807,35.378L237.533,19.2l5.1,5.184Z" transform="translate(0 18.96)" fill="#add3fd"/>
          <path id="Trazado_818452" data-name="Trazado 818452" d="M204.908,79.53,170.1,44.152,137.332,77.461l-32.955-33.5-34.436,35L35.875,44.339,5.1,75.621,0,70.433,35.875,33.967,69.941,68.594l34.436-35,32.955,33.5L170.1,33.78l34.807,35.378L237.533,36l5.1,5.186Z" transform="translate(0 37.92)" fill="#add3fd"/>
          <path id="Trazado_818453" data-name="Trazado 818453" d="M204.908,96.326,170.1,60.946,137.332,94.255l-32.955-33.5-34.436,35L35.875,61.133,5.1,92.415,0,87.229,35.875,50.763,69.941,85.39l34.436-35,32.955,33.5L170.1,50.574l34.807,35.38L237.533,52.79l5.1,5.186Z" transform="translate(0 56.881)" fill="#add3fd"/>
          <path id="Trazado_818454" data-name="Trazado 818454" d="M204.908,113.121,170.1,77.741,137.332,111.05l-32.955-33.5-34.436,35L35.875,77.93,5.1,109.213,0,104.026,35.875,67.559l34.065,34.626,34.436-35,32.955,33.5L170.1,67.371l34.807,35.38,32.625-33.164,5.1,5.186Z" transform="translate(0 75.842)" fill="#add3fd"/>
          <path id="Trazado_818455" data-name="Trazado 818455" d="M204.908,129.916,170.1,94.538l-32.769,33.309-32.955-33.5-34.436,35L35.875,94.726,5.1,126.008,0,120.82,35.875,84.354,69.941,118.98l34.436-35,32.955,33.5L170.1,84.166l34.807,35.378,32.625-33.162,5.1,5.186Z" transform="translate(0 94.802)" fill="#add3fd"/>
        </g>
        <rect id="Rectángulo_383419" data-name="Rectángulo 383419" width="247.736" height="150.154" rx="14" transform="translate(0 100.705)" fill="#273a89"/>
        <g id="Enmascarar_grupo_192" data-name="Enmascarar grupo 192" transform="translate(0.239 95.293)" clip-path="url(#clip-path)">
          <g id="Grupo_1074624" data-name="Grupo 1074624" transform="translate(-164.703 -53.761)">
            <path id="Trazado_827892" data-name="Trazado 827892" d="M74.118-21.241q0,14.485-7.739,23.3T44.765,10.866a27.378,27.378,0,0,1-10.528-1.9,21.29,21.29,0,0,1-7.878-5.583V34.705H6.07V-55.7H24.407l1.185,7.725a23.106,23.106,0,0,1,8.053-6.609,24.519,24.519,0,0,1,10.981-2.324q14.014,0,21.753,9.475t7.739,24.925ZM53.759-22.509q0-9.234-3.556-14.967T39.327-43.209a17.31,17.31,0,0,0-7.844,1.63,12.567,12.567,0,0,0-5.124,4.647V-8.326A11.907,11.907,0,0,0,31.483-4.1a19.548,19.548,0,0,0,7.983,1.448q7.39,0,10.842-5.009t3.451-13.579Zm72.579-18.045-7.46-.181a15.222,15.222,0,0,0-7.46,1.63,10.875,10.875,0,0,0-4.462,4.587V9.6H86.667V-55.7h18.894l.906,9.656a21.16,21.16,0,0,1,6.867-8,16.888,16.888,0,0,1,9.726-2.867,17.518,17.518,0,0,1,2.824.211q1.29.211,2.615.513ZM183.16-.058a23.938,23.938,0,0,1-8.854,8.087,26.33,26.33,0,0,1-12.48,2.837q-11.922,0-18.65-7t-6.728-21.727V-55.7h20.289v37.962q0,8.57,2.684,11.739t8.332,3.168a23.06,23.06,0,0,0,8.366-1.358,13.9,13.9,0,0,0,5.717-4.013V-55.7h20.358V9.6H185.322Zm67.071,10.924q-16.872,0-26.354-8.962T214.4-21.181v-2.414q0-14.666,9.2-24.02t25.309-9.294q15.2,0,23.322,8.057t8.122,21.7v9.113h-44.97l-.209.362a16.354,16.354,0,0,0,4.706,10.863q4.218,4.164,12.515,4.164A48.043,48.043,0,0,0,264-3.86a51.513,51.513,0,0,0,9.865-3.681l5.508,10.863A40.228,40.228,0,0,1,267.1,8.694,62.25,62.25,0,0,1,250.232,10.866Zm-1.325-54.2q-6.135,0-9.447,3.651a16.879,16.879,0,0,0-4.009,9.687l.139.3h24.82v-1.328q0-5.733-2.719-9.023T248.907-43.33ZM360.25-21.241q0,14.605-7.53,23.356t-21.753,8.751a25.891,25.891,0,0,1-11.539-2.414A22.644,22.644,0,0,1,311.1,1.391L309.424,9.6H292.2v-94.15h20.289v35.789a22.322,22.322,0,0,1,7.844-6.035,24.737,24.737,0,0,1,10.493-2.112q14.362,0,21.892,9.385t7.53,25.016Zm-20.289-1.267q0-9.536-3.242-15.118t-11.051-5.583a17.084,17.084,0,0,0-8.018,1.72,12.755,12.755,0,0,0-5.159,4.919V-8.929A12.2,12.2,0,0,0,317.686-4.4a18.886,18.886,0,0,0,8.122,1.569q7.878,0,11.016-4.8t3.137-13.609ZM417.282,9.6a33.89,33.89,0,0,1-1.917-4.707,28.89,28.89,0,0,1-1.15-5.07,25.825,25.825,0,0,1-8.3,7.906,23.159,23.159,0,0,1-12.271,3.138q-11.852,0-18.267-5.281T368.965-8.809q0-9.6,8.541-14.877t24.925-5.281h11.434v-5.19a9.361,9.361,0,0,0-2.859-7.3q-2.859-2.6-8.506-2.6-4.95,0-7.634,2.082a6.825,6.825,0,0,0-2.684,5.7H372.591l-.139-.362q-.488-8.268,8.332-14.273t23.043-6.005q13.6,0,22,5.915t8.4,16.959V-7.058a44.342,44.342,0,0,0,.8,8.63A38.838,38.838,0,0,0,437.57,9.6ZM398.666-2.17a19.4,19.4,0,0,0,9.482-2.293,13.23,13.23,0,0,0,5.717-5.311v-9.234H402.431q-6.484,0-9.8,2.776a8.574,8.574,0,0,0-3.312,6.82A6.387,6.387,0,0,0,391.8-4.131,10.79,10.79,0,0,0,398.666-2.17Z" transform="translate(-6.07 84.551)" fill="none" stroke="#fff" stroke-width="1"/>
            <path id="Trazado_827890" data-name="Trazado 827890" d="M63.434-18.179q0,12.4-6.623,19.938T38.313,9.3A23.432,23.432,0,0,1,29.3,7.673,18.221,18.221,0,0,1,22.56,2.895V29.7H5.2V-47.673H20.889L21.9-41.062A19.776,19.776,0,0,1,28.8-46.718a20.984,20.984,0,0,1,9.4-1.989q11.994,0,18.617,8.11t6.623,21.333ZM46.01-19.264q0-7.9-3.043-12.81t-9.309-4.907a14.815,14.815,0,0,0-6.713,1.395,10.755,10.755,0,0,0-4.386,3.977V-7.126A10.19,10.19,0,0,0,26.945-3.51a16.73,16.73,0,0,0,6.832,1.24q6.325,0,9.279-4.287T46.01-18.179Zm62.117-15.444-6.385-.155a13.028,13.028,0,0,0-6.385,1.395,9.307,9.307,0,0,0-3.819,3.926V8.215H74.175V-47.673H90.345l.776,8.264A18.11,18.11,0,0,1,97-46.253a14.454,14.454,0,0,1,8.324-2.454,14.993,14.993,0,0,1,2.417.181q1.1.181,2.238.439ZM156.759-.049a20.488,20.488,0,0,1-7.578,6.921A22.535,22.535,0,0,1,138.5,9.3q-10.2,0-15.962-5.992t-5.758-18.6V-47.673h17.364v32.49q0,7.335,2.3,10.046t7.131,2.712a19.736,19.736,0,0,0,7.16-1.162,11.9,11.9,0,0,0,4.893-3.435V-47.673h17.424V8.215h-14.44Zm57.4,9.349q-14.44,0-22.556-7.67t-8.115-19.757v-2.066q0-12.552,7.877-20.558t21.66-7.955q13.008,0,19.96,6.9t6.952,18.569v7.8H201.452l-.179.31a14,14,0,0,0,4.028,9.3q3.61,3.564,10.711,3.564A41.118,41.118,0,0,0,225.947-3.3a44.089,44.089,0,0,0,8.443-3.151l4.714,9.3a34.429,34.429,0,0,1-10.5,4.6A53.277,53.277,0,0,1,214.162,9.3Zm-1.134-46.384q-5.251,0-8.085,3.125a14.445,14.445,0,0,0-3.431,8.29l.119.258h21.243v-1.136a11.765,11.765,0,0,0-2.327-7.722Q218.22-37.084,213.028-37.084Zm95.294,18.9q0,12.5-6.444,19.99T283.261,9.3a22.159,22.159,0,0,1-9.875-2.066,19.38,19.38,0,0,1-7.131-6.043l-1.432,7.025H250.084V-72.363h17.364v30.63a19.1,19.1,0,0,1,6.713-5.165,21.172,21.172,0,0,1,8.98-1.808q12.292,0,18.737,8.032t6.444,21.41Zm-17.364-1.085q0-8.161-2.775-12.939t-9.458-4.778a14.621,14.621,0,0,0-6.862,1.472,10.916,10.916,0,0,0-4.416,4.21V-7.642a10.442,10.442,0,0,0,4.445,3.874,16.163,16.163,0,0,0,6.952,1.343q6.743,0,9.428-4.106t2.685-11.648ZM357.133,8.215a29,29,0,0,1-1.641-4.029,24.728,24.728,0,0,1-.985-4.339,22.1,22.1,0,0,1-7.1,6.767A19.82,19.82,0,0,1,336.9,9.3q-10.144,0-15.634-4.52t-5.49-12.319q0-8.213,7.31-12.732t21.332-4.52h9.786v-4.442a8.011,8.011,0,0,0-2.447-6.25q-2.447-2.221-7.28-2.221a10.461,10.461,0,0,0-6.534,1.782,5.841,5.841,0,0,0-2.3,4.881H318.884l-.119-.31q-.418-7.076,7.131-12.216t19.721-5.139q11.636,0,18.826,5.062t7.19,14.514V-6.041a37.949,37.949,0,0,0,.686,7.386,33.24,33.24,0,0,0,2.178,6.87ZM341.2-1.857a16.6,16.6,0,0,0,8.115-1.963,11.323,11.323,0,0,0,4.893-4.545v-7.9h-9.786q-5.549,0-8.384,2.376a7.338,7.338,0,0,0-2.834,5.837,5.466,5.466,0,0,0,2.118,4.52A9.234,9.234,0,0,0,341.2-1.857Z" transform="translate(173.128 159.984)" fill="none" stroke="#fff" stroke-width="1"/>
            <path id="Trazado_827891" data-name="Trazado 827891" d="M61.431-17.605Q61.431-5.6,55.016,1.7T37.1,9.006a22.691,22.691,0,0,1-8.726-1.576A17.645,17.645,0,0,1,21.847,2.8V28.765H5.031V-46.168h15.2l.982,6.4a19.151,19.151,0,0,1,6.674-5.477,20.322,20.322,0,0,1,9.1-1.926q11.615,0,18.029,7.853t6.414,20.659Zm-16.874-1.05q0-7.653-2.947-12.405T32.6-35.813a14.347,14.347,0,0,0-6.5,1.351,10.415,10.415,0,0,0-4.247,3.852V-6.9a9.868,9.868,0,0,0,4.247,3.5,16.2,16.2,0,0,0,6.617,1.2q6.125,0,8.986-4.152t2.86-11.255Zm60.156-14.956-6.183-.15a12.616,12.616,0,0,0-6.183,1.351,9.013,9.013,0,0,0-3.7,3.8V7.956H71.832V-46.168h15.66l.751,8a17.538,17.538,0,0,1,5.692-6.628A14,14,0,0,1,102-47.168a14.519,14.519,0,0,1,2.34.175q1.069.175,2.167.425Zm47.1,33.565a19.841,19.841,0,0,1-7.339,6.7,21.823,21.823,0,0,1-10.344,2.351q-9.881,0-15.458-5.8T113.092-14.8V-46.168h16.816V-14.7q0,7.1,2.225,9.729t6.905,2.626a19.113,19.113,0,0,0,6.934-1.125A11.52,11.52,0,0,0,150.711-6.8V-46.168h16.874V7.956H153.6ZM207.4,9.006q-13.984,0-21.843-7.428T177.7-17.555v-2q0-12.155,7.628-19.909t20.976-7.7q12.6,0,19.329,6.678t6.732,17.983v7.553H195.091l-.173.3a13.554,13.554,0,0,0,3.9,9Q202.314-2.2,209.19-2.2a39.819,39.819,0,0,0,9.621-1,42.7,42.7,0,0,0,8.177-3.051l4.565,9a33.342,33.342,0,0,1-10.17,4.452A51.6,51.6,0,0,1,207.4,9.006Zm-1.1-44.92q-5.085,0-7.83,3.026a13.989,13.989,0,0,0-3.323,8.028l.116.25h20.572v-1.1a11.394,11.394,0,0,0-2.254-7.478Q211.329-35.913,206.3-35.913Zm92.285,18.308q0,12.105-6.241,19.358T274.316,9.006a21.459,21.459,0,0,1-9.564-2,18.768,18.768,0,0,1-6.905-5.853l-1.387,6.8H242.186V-70.078H259v29.663a18.5,18.5,0,0,1,6.5-5,20.5,20.5,0,0,1,8.7-1.751q11.9,0,18.145,7.778t6.241,20.734Zm-16.816-1.05q0-7.9-2.687-12.53t-9.159-4.627a14.159,14.159,0,0,0-6.645,1.426A10.571,10.571,0,0,0,259-30.311V-7.4a10.112,10.112,0,0,0,4.305,3.752,15.653,15.653,0,0,0,6.732,1.3q6.53,0,9.13-3.977t2.6-11.28ZM345.855,7.956a28.091,28.091,0,0,1-1.589-3.9,23.946,23.946,0,0,1-.953-4.2,21.4,21.4,0,0,1-6.877,6.553,19.194,19.194,0,0,1-10.17,2.6q-9.824,0-15.14-4.377T305.809-7.3q0-7.953,7.079-12.33t20.659-4.377h9.477v-4.3a7.758,7.758,0,0,0-2.369-6.053q-2.369-2.151-7.05-2.151a10.131,10.131,0,0,0-6.328,1.726,5.657,5.657,0,0,0-2.225,4.727H308.814l-.116-.3q-.4-6.853,6.905-11.83t19.1-4.977q11.268,0,18.232,4.9T359.9-28.21V-5.85a36.75,36.75,0,0,0,.665,7.153,32.189,32.189,0,0,0,2.109,6.653ZM330.426-1.8a16.077,16.077,0,0,0,7.859-1.9,10.965,10.965,0,0,0,4.738-4.4v-7.653h-9.477q-5.374,0-8.119,2.3A7.106,7.106,0,0,0,322.683-7.8a5.294,5.294,0,0,0,2.051,4.377A8.943,8.943,0,0,0,330.426-1.8Z" transform="translate(90.753 249.325)" fill="none" stroke="#fff" stroke-width="1"/>
          </g>
        </g>
      </g>
    </g>
    <g id="Grupo_1074818" data-name="Grupo 1074818" transform="translate(154 -8)">
      <g id="Grupo_1074817" data-name="Grupo 1074817" transform="translate(-6013 -4740)">
        <g id="Grupo_1074816" data-name="Grupo 1074816" clip-path="url(#clip-path-2)">
          <path id="Trazado_828280" data-name="Trazado 828280" d="M28.726,376.313.525,395.357l171.1.285-6.254-19.982Z" transform="translate(-0.244 -174.953)" fill="#455a64"/>
          <path id="Trazado_828281" data-name="Trazado 828281" d="M0,419.878,171.02,420l.075-7.64L0,411.828Z" transform="translate(0 -191.797)" fill="#455a64"/>
          <g id="Grupo_1074783" data-name="Grupo 1074783">
            <g id="Grupo_1074782" data-name="Grupo 1074782" clip-path="url(#clip-path-2)">
              <path id="Trazado_828282" data-name="Trazado 828282" d="M168.455,412.583c0,.077-36.93.121-82.474.1-45.561-.022-82.482-.1-82.482-.178s36.922-.121,82.482-.1c45.545.022,82.474.1,82.474.178" transform="translate(-1.629 -192.063)" fill="#263238"/>
            </g>
          </g>
          <g id="Grupo_1074803" data-name="Grupo 1074803">
            <g id="Grupo_1074802" data-name="Grupo 1074802" clip-path="url(#clip-path-2)">
              <path id="Trazado_828283" data-name="Trazado 828283" d="M206.285,43.881h-26.85a3.36,3.36,0,0,1-3.36-3.36V3.359A3.36,3.36,0,0,1,179.436,0h17.028l13.181,13.586V40.522a3.359,3.359,0,0,1-3.36,3.36" transform="translate(-82.002 0)" fill="#1682fb"/>
              <g id="Grupo_1074786" data-name="Grupo 1074786" transform="translate(94.074 30.568)" opacity="0.2">
                <g id="Grupo_1074785" data-name="Grupo 1074785">
                  <g id="Grupo_1074784" data-name="Grupo 1074784" clip-path="url(#clip-path-5)">
                    <path id="Trazado_828284" data-name="Trazado 828284" d="M206.184,70.527H179.538a3.461,3.461,0,0,1-3.461-3.461V57.874a.662.662,0,0,1,.662-.662h32.245a.662.662,0,0,1,.662.662v9.192a3.461,3.461,0,0,1-3.462,3.461" transform="translate(-176.077 -57.213)"/>
                  </g>
                </g>
              </g>
              <g id="Grupo_1074789" data-name="Grupo 1074789" transform="translate(114.462)" opacity="0.2">
                <g id="Grupo_1074788" data-name="Grupo 1074788">
                  <g id="Grupo_1074787" data-name="Grupo 1074787" clip-path="url(#clip-path-6)">
                    <path id="Trazado_828285" data-name="Trazado 828285" d="M214.236,0V10.459a3.125,3.125,0,0,0,3.124,3.125l10.057,0Z" transform="translate(-214.236)" fill="#fff"/>
                  </g>
                </g>
              </g>
              <g id="Grupo_1074792" data-name="Grupo 1074792" transform="translate(114.598 11.377)" opacity="0.2">
                <g id="Grupo_1074791" data-name="Grupo 1074791">
                  <g id="Grupo_1074790" data-name="Grupo 1074790" clip-path="url(#clip-path-7)">
                    <path id="Trazado_828286" data-name="Trazado 828286" d="M214.491,21.294a3.474,3.474,0,0,0,2.756,3.371,3.169,3.169,0,0,0,.33.074c1.313.235,9.958,1.773,9.958,1.574V23.5H217.478s-2.511-.086-2.987-2.209" transform="translate(-214.491 -21.294)"/>
                  </g>
                </g>
              </g>
              <path id="Trazado_828287" data-name="Trazado 828287" d="M194.062,65.718a2.875,2.875,0,0,1,4.982-1.775l-.775.716a1.68,1.68,0,0,0-1.313-.612,1.671,1.671,0,1,0,0,3.341,1.664,1.664,0,0,0,1.313-.619l.775.716a2.87,2.87,0,0,1-4.982-1.767" transform="translate(-90.379 -29.349)" fill="#fafafa"/>
              <path id="Trazado_828288" data-name="Trazado 828288" d="M204.052,67.814l.41-.91a3.072,3.072,0,0,0,1.723.544c.716,0,1.007-.239,1.007-.559,0-.977-3.035-.306-3.035-2.245,0-.887.716-1.626,2.2-1.626a3.5,3.5,0,0,1,1.812.462l-.373.918a2.939,2.939,0,0,0-1.447-.41c-.716,0-.992.268-.992.6,0,.962,3.035.3,3.035,2.216,0,.872-.723,1.618-2.215,1.618a3.724,3.724,0,0,1-2.126-.6" transform="translate(-95.031 -29.349)" fill="#fafafa"/>
              <path id="Trazado_828289" data-name="Trazado 828289" d="M212.954,67.814l.41-.91a3.074,3.074,0,0,0,1.724.544c.716,0,1.007-.239,1.007-.559,0-.977-3.036-.306-3.036-2.245,0-.887.716-1.626,2.2-1.626a3.5,3.5,0,0,1,1.813.462l-.373.918a2.939,2.939,0,0,0-1.447-.41c-.716,0-.992.268-.992.6,0,.962,3.036.3,3.036,2.216,0,.872-.724,1.618-2.215,1.618a3.722,3.722,0,0,1-2.126-.6" transform="translate(-99.177 -29.349)" fill="#fafafa"/>
              <path id="Trazado_828290" data-name="Trazado 828290" d="M195.519,31.554c.552.168.8.516.8,1.343v1.919a.789.789,0,0,0,.876.887h.216v1.463h-.7a1.979,1.979,0,0,1-2.267-2.147V32.85a.491.491,0,0,0-.527-.564h-.4V30.823h.4a.491.491,0,0,0,.527-.564V28.088a1.979,1.979,0,0,1,2.267-2.147h.7V27.4H197.2a.789.789,0,0,0-.876.887v1.919c0,.828-.252,1.175-.8,1.343" transform="translate(-90.13 -12.081)" fill="#fafafa"/>
              <path id="Trazado_828291" data-name="Trazado 828291" d="M218.068,30.822v1.463h-.4a.491.491,0,0,0-.527.564v2.17a1.979,1.979,0,0,1-2.267,2.147h-.7V35.7h.216a.789.789,0,0,0,.876-.887V32.9c0-.828.252-1.175.8-1.343-.552-.168-.8-.516-.8-1.343V28.291a.789.789,0,0,0-.876-.887h-.216V25.94h.7a1.979,1.979,0,0,1,2.267,2.147v2.171a.491.491,0,0,0,.527.564Z" transform="translate(-99.749 -12.081)" fill="#fafafa"/>
              <path id="Trazado_828292" data-name="Trazado 828292" d="M276.26,93.8H249.005a3.41,3.41,0,0,1-3.41-3.41V52.665a3.41,3.41,0,0,1,3.41-3.41H266.29l13.38,13.791V90.39a3.41,3.41,0,0,1-3.41,3.41" transform="translate(-114.379 -22.939)" fill="#1682fb"/>
              <g id="Grupo_1074795" data-name="Grupo 1074795" transform="translate(131.216 57.345)" opacity="0.2">
                <g id="Grupo_1074794" data-name="Grupo 1074794">
                  <g id="Grupo_1074793" data-name="Grupo 1074793" clip-path="url(#clip-path-8)">
                    <path id="Trazado_828293" data-name="Trazado 828293" d="M275.985,120.849H249.279a3.685,3.685,0,0,1-3.685-3.685v-9.831H279.67v9.831a3.685,3.685,0,0,1-3.685,3.685" transform="translate(-245.594 -107.332)"/>
                  </g>
                </g>
              </g>
              <g id="Grupo_1074798" data-name="Grupo 1074798" transform="translate(151.911 26.316)" opacity="0.2">
                <g id="Grupo_1074797" data-name="Grupo 1074797">
                  <g id="Grupo_1074796" data-name="Grupo 1074796" clip-path="url(#clip-path-9)">
                    <path id="Trazado_828294" data-name="Trazado 828294" d="M284.33,49.255V59.872a3.172,3.172,0,0,0,3.171,3.172l10.209,0Z" transform="translate(-284.33 -49.255)" fill="#fff"/>
                  </g>
                </g>
              </g>
              <g id="Grupo_1074801" data-name="Grupo 1074801" transform="translate(152.05 37.865)" opacity="0.2">
                <g id="Grupo_1074800" data-name="Grupo 1074800">
                  <g id="Grupo_1074799" data-name="Grupo 1074799" clip-path="url(#clip-path-10)">
                    <path id="Trazado_828295" data-name="Trazado 828295" d="M284.59,70.871a3.526,3.526,0,0,0,2.8,3.422,3.246,3.246,0,0,0,.336.076c1.333.238,10.108,1.8,10.108,1.6V73.113H287.622s-2.549-.087-3.032-2.242" transform="translate(-284.589 -70.871)"/>
                  </g>
                </g>
              </g>
              <path id="Trazado_828296" data-name="Trazado 828296" d="M266.691,85.114l-4.09,1.5,4.09,1.486v1.536l-5.847-2.223v-1.6l5.847-2.224Z" transform="translate(-121.48 -38.93)" fill="#fafafa"/>
              <path id="Trazado_828297" data-name="Trazado 828297" d="M276.481,77.935h1.708l-4.054,11.571h-1.708Z" transform="translate(-126.875 -36.296)" fill="#fafafa"/>
              <path id="Trazado_828298" data-name="Trazado 828298" d="M289.469,85.815v1.6l-5.847,2.223V88.1l4.09-1.486-4.09-1.5V83.591Z" transform="translate(-132.089 -38.93)" fill="#fafafa"/>
              <path id="Trazado_828299" data-name="Trazado 828299" d="M265.522,116.746v4.58h-1.059v-1.878h-2.081v1.878h-1.059v-4.58h1.059v1.806h2.081v-1.806Z" transform="translate(-121.703 -54.371)" fill="#fafafa"/>
              <path id="Trazado_828300" data-name="Trazado 828300" d="M271.712,117.61h-1.466v-.863h3.991v.863h-1.466v3.716h-1.06Z" transform="translate(-125.86 -54.371)" fill="#fafafa"/>
              <path id="Trazado_828301" data-name="Trazado 828301" d="M282.949,121.326l-.006-2.748-1.348,2.264h-.478l-1.341-2.2v2.689h-.994v-4.58h.876l1.714,2.846,1.688-2.846h.87l.013,4.58Z" transform="translate(-129.834 -54.371)" fill="#fafafa"/>
              <path id="Trazado_828302" data-name="Trazado 828302" d="M290.473,116.746h1.06v3.716h2.3v.863h-3.356Z" transform="translate(-135.28 -54.371)" fill="#fafafa"/>
            </g>
          </g>
          <g id="Grupo_1074805" data-name="Grupo 1074805">
            <g id="Grupo_1074804" data-name="Grupo 1074804" clip-path="url(#clip-path-2)">
              <path id="Trazado_828303" data-name="Trazado 828303" d="M78.8,160.464H29.315a1.634,1.634,0,0,1-1.634-1.634V77.068a1.634,1.634,0,0,1,1.634-1.634H78.8a1.634,1.634,0,0,1,1.634,1.634v81.763a1.634,1.634,0,0,1-1.634,1.634" transform="translate(-12.892 -35.131)" fill="#fff"/>
              <path id="Trazado_828304" data-name="Trazado 828304" d="M80.434,84.934H27.681V77.361a1.927,1.927,0,0,1,1.927-1.928H78.579a1.855,1.855,0,0,1,1.855,1.855Z" transform="translate(-12.892 -35.131)" fill="#e0e0e0"/>
              <path id="Trazado_828305" data-name="Trazado 828305" d="M78.543,160.343a2.042,2.042,0,0,0,.68-.151,1.8,1.8,0,0,0,.675-.515,1.761,1.761,0,0,0,.385-1.093c-.006-1.82-.014-4.5-.025-7.94-.011-6.9-.026-16.877-.044-29.2s-.019-27.011-.03-43.311v-.765a2.473,2.473,0,0,0-.063-.727,1.643,1.643,0,0,0-.9-1.049,1.624,1.624,0,0,0-.7-.146H76.182l-6.331,0-13.058,0-27.458,0a1.629,1.629,0,0,0-1.63,1.5c-.014.27,0,.579-.007.866v3.5q0,3.485,0,6.922,0,6.872,0,13.532c0,8.871-.005,17.429-.008,25.581s-.009,15.9-.013,23.148q0,2.718,0,5.342,0,1.312,0,2.6a1.683,1.683,0,0,0,1.314,1.766,9.033,9.033,0,0,0,1.23.038h1.243l2.446,0,4.732,0,29.2.044,7.939.026,2.064.013c.465,0,.7.014.7.014s-.238.01-.7.014l-2.064.013-7.939.026-29.2.044-4.732,0-2.446,0H30.213a9.066,9.066,0,0,1-1.275-.04,1.885,1.885,0,0,1-1.11-.709,1.93,1.93,0,0,1-.379-1.268q0-1.287,0-2.6,0-2.623,0-5.342c0-7.25-.009-15-.013-23.148s-.005-16.71-.008-25.581q0-6.654,0-13.532,0-3.436,0-6.922,0-1.742,0-3.5c0-.3-.007-.573.008-.888a1.908,1.908,0,0,1,1.907-1.752l27.458,0,13.058,0,6.331,0h2.337a1.9,1.9,0,0,1,1.85,1.385,2.738,2.738,0,0,1,.072.8v.765c-.011,16.3-.021,30.981-.03,43.311s-.034,22.3-.044,29.2c-.011,3.444-.02,6.12-.026,7.94a1.788,1.788,0,0,1-1.106,1.635,1.842,1.842,0,0,1-.513.123c-.119,0-.178,0-.178,0" transform="translate(-12.77 -35.01)" fill="#263238"/>
              <path id="Trazado_828306" data-name="Trazado 828306" d="M39.522,84.354A1.556,1.556,0,1,1,37.965,82.8a1.557,1.557,0,0,1,1.556,1.556" transform="translate(-16.956 -38.561)" fill="#fff"/>
              <path id="Trazado_828307" data-name="Trazado 828307" d="M48.484,84.354A1.556,1.556,0,1,1,46.927,82.8a1.557,1.557,0,0,1,1.556,1.556" transform="translate(-21.13 -38.561)" fill="#fff"/>
              <path id="Trazado_828308" data-name="Trazado 828308" d="M57.447,84.354A1.556,1.556,0,1,1,55.89,82.8a1.557,1.557,0,0,1,1.556,1.556" transform="translate(-25.305 -38.561)" fill="#fff"/>
              <path id="Trazado_828309" data-name="Trazado 828309" d="M61.258,115.491H51.543a1.054,1.054,0,1,1,0-2.108h9.715a1.054,1.054,0,1,1,0,2.108" transform="translate(-23.514 -52.805)" fill="#263238"/>
              <path id="Trazado_828310" data-name="Trazado 828310" d="M61.258,125.818H51.543a1.054,1.054,0,1,1,0-2.108h9.715a1.054,1.054,0,1,1,0,2.108" transform="translate(-23.514 -57.614)" fill="#e0e0e0"/>
              <path id="Trazado_828311" data-name="Trazado 828311" d="M61.779,154.105H52.064a1.054,1.054,0,0,1,0-2.108h9.715a1.054,1.054,0,0,1,0,2.108" transform="translate(-23.756 -70.788)" fill="#e0e0e0"/>
              <path id="Trazado_828312" data-name="Trazado 828312" d="M61.258,136.49H51.543a1.054,1.054,0,1,1,0-2.108h9.715a1.054,1.054,0,1,1,0,2.108" transform="translate(-23.514 -62.585)" fill="#1682fb"/>
              <path id="Trazado_828313" data-name="Trazado 828313" d="M61.258,196H51.543a1.054,1.054,0,1,1,0-2.108h9.715a1.054,1.054,0,1,1,0,2.108" transform="translate(-23.514 -90.301)" fill="#1682fb"/>
              <path id="Trazado_828314" data-name="Trazado 828314" d="M90.389,115.491H80.674a1.054,1.054,0,1,1,0-2.108h9.715a1.054,1.054,0,0,1,0,2.108" transform="translate(-37.081 -52.805)" fill="#455a64"/>
              <path id="Trazado_828315" data-name="Trazado 828315" d="M100.909,125.818H80.584a1.058,1.058,0,0,1,0-2.108h20.325a1.058,1.058,0,0,1,0,2.108" transform="translate(-37.081 -57.614)" fill="#263238"/>
              <path id="Trazado_828316" data-name="Trazado 828316" d="M99.739,136.49H79.274a1.056,1.056,0,0,1,0-2.108H99.739a1.056,1.056,0,0,1,0,2.108" transform="translate(-36.458 -62.585)" fill="#e0e0e0"/>
              <path id="Trazado_828317" data-name="Trazado 828317" d="M72.068,145.12H51.6a1.056,1.056,0,0,1,0-2.108H72.068a1.056,1.056,0,0,1,0,2.108" transform="translate(-23.571 -66.604)" fill="#e0e0e0"/>
              <path id="Trazado_828318" data-name="Trazado 828318" d="M41.682,114.423a1.071,1.071,0,1,1-1.071-1.071,1.071,1.071,0,0,1,1.071,1.071" transform="translate(-18.415 -52.79)" fill="#455a64"/>
              <path id="Trazado_828319" data-name="Trazado 828319" d="M41.682,104.541a1.071,1.071,0,1,1-1.071-1.071,1.071,1.071,0,0,1,1.071,1.071" transform="translate(-18.415 -48.188)" fill="#455a64"/>
              <path id="Trazado_828320" data-name="Trazado 828320" d="M41.682,124.719a1.071,1.071,0,1,1-1.071-1.071,1.071,1.071,0,0,1,1.071,1.071" transform="translate(-18.415 -57.586)" fill="#455a64"/>
              <path id="Trazado_828321" data-name="Trazado 828321" d="M41.682,135.422a1.071,1.071,0,1,1-1.071-1.071,1.071,1.071,0,0,1,1.071,1.071" transform="translate(-18.415 -62.57)" fill="#455a64"/>
              <path id="Trazado_828322" data-name="Trazado 828322" d="M61.779,182.986H52.064a1.054,1.054,0,1,1,0-2.108h9.715a1.054,1.054,0,1,1,0,2.108" transform="translate(-23.756 -84.239)" fill="#e0e0e0"/>
              <path id="Trazado_828323" data-name="Trazado 828323" d="M61.258,165.371H51.543a1.054,1.054,0,0,1,0-2.108h9.715a1.054,1.054,0,0,1,0,2.108" transform="translate(-23.514 -76.035)" fill="#1682fb"/>
              <path id="Trazado_828324" data-name="Trazado 828324" d="M99.739,165.371H79.274a1.056,1.056,0,0,1,0-2.108H99.739a1.056,1.056,0,0,1,0,2.108" transform="translate(-36.458 -76.035)" fill="#e0e0e0"/>
              <path id="Trazado_828325" data-name="Trazado 828325" d="M72.068,174H51.6a1.056,1.056,0,0,1,0-2.108H72.068a1.056,1.056,0,0,1,0,2.108" transform="translate(-23.571 -80.054)" fill="#e0e0e0"/>
              <path id="Trazado_828326" data-name="Trazado 828326" d="M41.682,164.3a1.071,1.071,0,1,1-1.071-1.071,1.071,1.071,0,0,1,1.071,1.071" transform="translate(-18.415 -76.021)" fill="#455a64"/>
              <path id="Trazado_828327" data-name="Trazado 828327" d="M57.191,106.084H51.109a.512.512,0,0,1-.512-.512v-1.01a.512.512,0,0,1,.512-.512h6.082a.512.512,0,0,1,.512.512v1.01a.512.512,0,0,1-.512.512" transform="translate(-23.564 -48.459)" fill="#455a64"/>
              <path id="Trazado_828328" data-name="Trazado 828328" d="M61.258,206.518H51.543a1.054,1.054,0,1,1,0-2.108h9.715a1.054,1.054,0,1,1,0,2.108" transform="translate(-23.514 -95.198)" fill="#263238"/>
              <path id="Trazado_828329" data-name="Trazado 828329" d="M90.389,206.518H80.674a1.054,1.054,0,1,1,0-2.108h9.715a1.054,1.054,0,1,1,0,2.108" transform="translate(-37.081 -95.198)" fill="#455a64"/>
              <path id="Trazado_828330" data-name="Trazado 828330" d="M41.682,205.45a1.071,1.071,0,1,1-1.071-1.071,1.071,1.071,0,0,1,1.071,1.071" transform="translate(-18.415 -95.184)" fill="#455a64"/>
              <path id="Trazado_828331" data-name="Trazado 828331" d="M41.682,214.953a1.071,1.071,0,1,1-1.071-1.071,1.071,1.071,0,0,1,1.071,1.071" transform="translate(-18.415 -99.609)" fill="#455a64"/>
              <path id="Trazado_828332" data-name="Trazado 828332" d="M57.191,216.5H51.109a.512.512,0,0,1-.512-.512v-1.01a.512.512,0,0,1,.512-.512h6.082a.512.512,0,0,1,.512.512v1.01a.512.512,0,0,1-.512.512" transform="translate(-23.564 -99.88)" fill="#455a64"/>
              <rect id="Rectángulo_383862" data-name="Rectángulo 383862" width="96.357" height="61.293" transform="translate(71.065 112.208)" fill="#fff"/>
              <rect id="Rectángulo_383863" data-name="Rectángulo 383863" width="17.354" height="61.293" transform="translate(71.065 112.208)" fill="#ebebeb"/>
              <path id="Trazado_828333" data-name="Trazado 828333" d="M146.568,222.033a1.2,1.2,0,0,1,.289-.126l.059-.286.484-.009.069.284a1.194,1.194,0,0,1,.293.115l.245-.16.347.336-.151.25a1.183,1.183,0,0,1,.126.289l.286.059.009.484-.284.069a1.185,1.185,0,0,1-.115.293l.16.244-.336.347-.25-.151a1.183,1.183,0,0,1-.289.126l-.059.286-.483.009-.07-.284a1.153,1.153,0,0,1-.293-.115l-.244.16-.348-.336.151-.25a1.183,1.183,0,0,1-.126-.289l-.286-.059-.009-.483.284-.069a1.189,1.189,0,0,1,.115-.293l-.16-.244.336-.348Zm.258.644a.518.518,0,1,0,.733-.013.519.519,0,0,0-.733.013" transform="translate(-67.876 -103.21)" fill="#e0e0e0"/>
              <path id="Trazado_828334" data-name="Trazado 828334" d="M147.519,246.389h-7.565a.777.777,0,0,1,0-1.555h7.565a.777.777,0,0,1,0,1.555" transform="translate(-64.817 -114.025)" fill="#e0e0e0"/>
              <path id="Trazado_828335" data-name="Trazado 828335" d="M147.519,238.975h-7.565a.777.777,0,1,1,0-1.555h7.565a.777.777,0,1,1,0,1.555" transform="translate(-64.817 -110.572)" fill="#e0e0e0"/>
              <path id="Trazado_828336" data-name="Trazado 828336" d="M147.519,232.194h-7.565a.777.777,0,0,1,0-1.555h7.565a.777.777,0,0,1,0,1.555" transform="translate(-64.817 -107.414)" fill="#e0e0e0"/>
              <path id="Trazado_828337" data-name="Trazado 828337" d="M185.911,225.612h-7.166a.777.777,0,0,1,0-1.555h7.166a.777.777,0,0,1,0,1.555" transform="translate(-82.884 -104.348)" fill="#263238"/>
              <path id="Trazado_828338" data-name="Trazado 828338" d="M185.911,233.229h-7.166a.777.777,0,0,1,0-1.555h7.166a.777.777,0,0,1,0,1.555" transform="translate(-82.884 -107.896)" fill="#e0e0e0"/>
              <path id="Trazado_828339" data-name="Trazado 828339" d="M185.911,241.1h-7.166a.777.777,0,0,1,0-1.555h7.166a.777.777,0,0,1,0,1.555" transform="translate(-82.884 -111.562)" fill="#1682fb"/>
              <path id="Trazado_828340" data-name="Trazado 828340" d="M182.855,256.32h-4.109a.777.777,0,0,1,0-1.555h4.109a.777.777,0,1,1,0,1.555" transform="translate(-82.884 -118.65)" fill="#263238"/>
              <path id="Trazado_828341" data-name="Trazado 828341" d="M182.855,264.208h-4.109a.777.777,0,1,1,0-1.555h4.109a.777.777,0,1,1,0,1.555" transform="translate(-82.884 -122.323)" fill="#263238"/>
              <path id="Trazado_828342" data-name="Trazado 828342" d="M202.726,264.208h-7.534a.777.777,0,1,1,0-1.555h7.534a.777.777,0,1,1,0,1.555" transform="translate(-90.543 -122.323)" fill="#e0e0e0"/>
              <path id="Trazado_828343" data-name="Trazado 828343" d="M194.75,271.224h-7.534a.777.777,0,0,1,0-1.555h7.534a.777.777,0,0,1,0,1.555" transform="translate(-86.828 -125.591)" fill="#1682fb"/>
              <path id="Trazado_828344" data-name="Trazado 828344" d="M200.145,279.225H194.97a.53.53,0,0,1-.531-.531V278.2a.53.53,0,0,1,.531-.531h5.175a.531.531,0,0,1,.531.531v.494a.531.531,0,0,1-.531.531" transform="translate(-90.554 -129.317)" fill="#1682fb"/>
              <path id="Trazado_828345" data-name="Trazado 828345" d="M199.9,294.907h-4.682a.777.777,0,1,1,0-1.555H199.9a.777.777,0,1,1,0,1.555" transform="translate(-90.554 -136.62)" fill="#1682fb"/>
              <path id="Trazado_828346" data-name="Trazado 828346" d="M199.9,311.471h-4.682a.777.777,0,1,1,0-1.555H199.9a.777.777,0,1,1,0,1.555" transform="translate(-90.554 -144.335)" fill="#1682fb"/>
              <path id="Trazado_828347" data-name="Trazado 828347" d="M218.366,311.471h-8.208a.777.777,0,0,1,0-1.555h8.208a.777.777,0,1,1,0,1.555" transform="translate(-97.513 -144.335)" fill="#455a64"/>
              <path id="Trazado_828348" data-name="Trazado 828348" d="M235.242,311.471h-1.182a.777.777,0,1,1,0-1.555h1.182a.777.777,0,1,1,0,1.555" transform="translate(-108.644 -144.335)" fill="#e0e0e0"/>
              <path id="Trazado_828349" data-name="Trazado 828349" d="M218.553,294.907h-6.936a.777.777,0,0,1,0-1.555h6.936a.777.777,0,1,1,0,1.555" transform="translate(-98.193 -136.62)" fill="#e0e0e0"/>
              <path id="Trazado_828350" data-name="Trazado 828350" d="M233.763,302.179H211.617a.777.777,0,0,1,0-1.555h22.146a.777.777,0,1,1,0,1.555" transform="translate(-98.193 -140.007)" fill="#e0e0e0"/>
              <path id="Trazado_828351" data-name="Trazado 828351" d="M245.531,294.907H231.391a.777.777,0,0,1,0-1.555h14.139a.777.777,0,1,1,0,1.555" transform="translate(-107.402 -136.62)" fill="#455a64"/>
              <path id="Trazado_828352" data-name="Trazado 828352" d="M216.806,279.225h-6.351a.531.531,0,0,1-.531-.531V278.2a.531.531,0,0,1,.531-.531h6.351a.53.53,0,0,1,.531.531v.494a.53.53,0,0,1-.531.531" transform="translate(-97.766 -129.317)" fill="#455a64"/>
              <path id="Trazado_828353" data-name="Trazado 828353" d="M230.133,279.225h-1.949a.53.53,0,0,1-.531-.531V278.2a.53.53,0,0,1,.531-.531h1.949a.53.53,0,0,1,.531.531v.494a.53.53,0,0,1-.531.531" transform="translate(-106.023 -129.317)" fill="#e0e0e0"/>
              <path id="Trazado_828354" data-name="Trazado 828354" d="M245.921,279.225H238.1a.53.53,0,0,1-.531-.531V278.2a.53.53,0,0,1,.531-.531h7.818a.53.53,0,0,1,.531.531v.494a.53.53,0,0,1-.531.531" transform="translate(-110.643 -129.317)" fill="#e0e0e0"/>
              <path id="Trazado_828355" data-name="Trazado 828355" d="M209.406,271.224h-1.679a.777.777,0,1,1,0-1.555h1.679a.777.777,0,0,1,0,1.555" transform="translate(-96.381 -125.591)" fill="#263238"/>
              <path id="Trazado_828356" data-name="Trazado 828356" d="M228.173,271.224h-10.69a.777.777,0,0,1,0-1.555h10.69a.777.777,0,0,1,0,1.555" transform="translate(-100.925 -125.591)" fill="#e0e0e0"/>
              <path id="Trazado_828357" data-name="Trazado 828357" d="M207.4,225.612h-7.166a.777.777,0,0,1,0-1.555H207.4a.777.777,0,0,1,0,1.555" transform="translate(-92.891 -104.348)" fill="#455a64"/>
              <path id="Trazado_828358" data-name="Trazado 828358" d="M216.631,233.229h-16.4a.777.777,0,0,1,0-1.555h16.4a.777.777,0,1,1,0,1.555" transform="translate(-92.891 -107.896)" fill="#263238"/>
              <path id="Trazado_828359" data-name="Trazado 828359" d="M234.286,241.1H200.232a.777.777,0,0,1,0-1.555h34.054a.777.777,0,0,1,0,1.555" transform="translate(-92.891 -111.562)" fill="#e0e0e0"/>
              <path id="Trazado_828360" data-name="Trazado 828360" d="M216.29,246.645H200.232a.777.777,0,0,1,0-1.555H216.29a.777.777,0,0,1,0,1.555" transform="translate(-92.891 -114.144)" fill="#e0e0e0"/>
              <path id="Trazado_828361" data-name="Trazado 828361" d="M210.142,256.32H194.085a.777.777,0,1,1,0-1.555h16.057a.777.777,0,1,1,0,1.555" transform="translate(-90.028 -118.65)" fill="#455a64"/>
              <path id="Trazado_828362" data-name="Trazado 828362" d="M236.271,256.32h-5.382a.777.777,0,1,1,0-1.555h5.382a.777.777,0,1,1,0,1.555" transform="translate(-107.168 -118.65)" fill="#1682fb"/>
              <path id="Trazado_828363" data-name="Trazado 828363" d="M257.855,256.272H247.688a.777.777,0,1,1,0-1.555h10.167a.777.777,0,0,1,0,1.555" transform="translate(-114.992 -118.627)" fill="#263238"/>
              <path id="Trazado_828364" data-name="Trazado 828364" d="M283.751,256.272H273.584a.777.777,0,0,1,0-1.555h10.167a.777.777,0,0,1,0,1.555" transform="translate(-127.052 -118.627)" fill="#e0e0e0"/>
              <path id="Trazado_828365" data-name="Trazado 828365" d="M144.243,254.236h-4.289a.777.777,0,1,1,0-1.555h4.289a.777.777,0,1,1,0,1.555" transform="translate(-64.818 -117.679)" fill="#e0e0e0"/>
              <path id="Trazado_828366" data-name="Trazado 828366" d="M142.959,277.778h-3.005a.777.777,0,0,1,0-1.555h3.005a.777.777,0,1,1,0,1.555" transform="translate(-64.817 -128.643)" fill="#e0e0e0"/>
              <path id="Trazado_828367" data-name="Trazado 828367" d="M148.3,262.083h-8.343a.777.777,0,1,1,0-1.555H148.3a.777.777,0,1,1,0,1.555" transform="translate(-64.817 -121.334)" fill="#e0e0e0"/>
              <path id="Trazado_828368" data-name="Trazado 828368" d="M146.833,269.931h-6.879a.777.777,0,0,1,0-1.555h6.879a.777.777,0,1,1,0,1.555" transform="translate(-64.818 -124.989)" fill="#e0e0e0"/>
              <path id="Trazado_828369" data-name="Trazado 828369" d="M171.472,224.824a.79.79,0,1,1-.79-.79.79.79,0,0,1,.79.79" transform="translate(-79.123 -104.337)" fill="#455a64"/>
              <path id="Trazado_828370" data-name="Trazado 828370" d="M171.472,217.061a.79.79,0,1,1-.79-.79.79.79,0,0,1,.79.79" transform="translate(-79.123 -100.722)" fill="#455a64"/>
              <path id="Trazado_828371" data-name="Trazado 828371" d="M171.472,232.418a.79.79,0,1,1-.79-.79.79.79,0,0,1,.79.79" transform="translate(-79.123 -107.874)" fill="#455a64"/>
              <path id="Trazado_828372" data-name="Trazado 828372" d="M171.472,240.313a.79.79,0,1,1-.79-.79.79.79,0,0,1,.79.79" transform="translate(-79.123 -111.551)" fill="#455a64"/>
              <path id="Trazado_828373" data-name="Trazado 828373" d="M171.472,248.207a.79.79,0,1,1-.79-.79.79.79,0,0,1,.79.79" transform="translate(-79.123 -115.227)" fill="#455a64"/>
              <path id="Trazado_828374" data-name="Trazado 828374" d="M171.472,256.1a.79.79,0,1,1-.79-.79.79.79,0,0,1,.79.79" transform="translate(-79.123 -118.904)" fill="#455a64"/>
              <path id="Trazado_828375" data-name="Trazado 828375" d="M171.472,264a.79.79,0,1,1-.79-.79.79.79,0,0,1,.79.79" transform="translate(-79.123 -122.581)" fill="#455a64"/>
              <path id="Trazado_828376" data-name="Trazado 828376" d="M171.472,271.891a.79.79,0,1,1-.79-.79.79.79,0,0,1,.79.79" transform="translate(-79.123 -126.258)" fill="#455a64"/>
              <path id="Trazado_828377" data-name="Trazado 828377" d="M171.472,279.785a.79.79,0,1,1-.79-.79.79.79,0,0,1,.79.79" transform="translate(-79.123 -129.934)" fill="#455a64"/>
              <path id="Trazado_828378" data-name="Trazado 828378" d="M171.472,287.68a.79.79,0,1,1-.79-.79.79.79,0,0,1,.79.79" transform="translate(-79.123 -133.611)" fill="#455a64"/>
              <path id="Trazado_828379" data-name="Trazado 828379" d="M171.472,295.574a.79.79,0,1,1-.79-.79.79.79,0,0,1,.79.79" transform="translate(-79.123 -137.287)" fill="#455a64"/>
              <path id="Trazado_828380" data-name="Trazado 828380" d="M171.472,303.469a.79.79,0,1,1-.79-.79.79.79,0,0,1,.79.79" transform="translate(-79.123 -140.964)" fill="#455a64"/>
              <path id="Trazado_828381" data-name="Trazado 828381" d="M171.472,311.363a.79.79,0,1,1-.79-.79.79.79,0,0,1,.79.79" transform="translate(-79.123 -144.641)" fill="#455a64"/>
              <path id="Trazado_828382" data-name="Trazado 828382" d="M227.32,194.376H135.9a2.887,2.887,0,0,0-2.887,2.887v5.47h96.357v-6.308a2.049,2.049,0,0,0-2.049-2.049" transform="translate(-61.947 -90.525)" fill="#e0e0e0"/>
              <path id="Trazado_828383" data-name="Trazado 828383" d="M142.479,201.671a1.148,1.148,0,1,1-1.148-1.148,1.147,1.147,0,0,1,1.148,1.148" transform="translate(-65.286 -93.388)" fill="#fff"/>
              <path id="Trazado_828384" data-name="Trazado 828384" d="M149.09,201.671a1.148,1.148,0,1,1-1.148-1.148,1.147,1.147,0,0,1,1.148,1.148" transform="translate(-68.365 -93.388)" fill="#fff"/>
              <path id="Trazado_828385" data-name="Trazado 828385" d="M155.7,201.671a1.148,1.148,0,1,1-1.148-1.148,1.147,1.147,0,0,1,1.148,1.148" transform="translate(-71.444 -93.388)" fill="#fff"/>
              <path id="Trazado_828386" data-name="Trazado 828386" d="M171.371,322.95l8.145,8.8,7.393-8.8Z" transform="translate(-79.811 -150.405)" fill="#fff"/>
              <path id="Trazado_828387" data-name="Trazado 828387" d="M226.634,263.9a3.068,3.068,0,0,0,.843-.157,2.607,2.607,0,0,0,1.647-1.768,2.848,2.848,0,0,0,.092-.869q0-.467,0-.983,0-1.031-.006-2.254c0-1.63-.008-3.509-.013-5.625-.011-8.469-.026-20.716-.044-35.849q0-5.676-.009-11.879,0-3.1,0-6.319c-.007-.531.014-1.088-.016-1.6a2.509,2.509,0,0,0-1.97-2.176,11.318,11.318,0,0,0-1.634-.053l-28.413.013-31.4.008-16.607,0H136.316c-.352.005-.731-.013-1.062.012a2.45,2.45,0,0,0-.965.308A2.49,2.49,0,0,0,133.1,196.3a7.554,7.554,0,0,0-.067,1.472v10.47q0,5.934,0,11.747c0,7.747,0,15.319,0,22.675q0,5.517,0,10.866,0,2.673,0,5.3c0,.872-.009,1.756.007,2.608a2.48,2.48,0,0,0,2.414,2.332l1.277,0h2.543l5.009,0,9.7,0h.051l.035.037,7.459,7.853-.167.005,6.6-7.844.032-.037h.049l42.833.047,11.692.028,3.046.015c.687,0,1.039.015,1.039.015s-.352.011-1.039.016l-3.046.015-11.692.028-42.833.046.081-.037-6.585,7.853-.081.1-.087-.091-7.468-7.844.085.037-9.7,0-5.009,0h-2.543l-1.284,0a2.734,2.734,0,0,1-2.664-2.57c-.017-.883-.005-1.744-.009-2.623q0-2.628,0-5.3,0-5.346,0-10.866c0-7.355,0-14.928,0-22.675q0-5.811,0-11.747V197.023a3.176,3.176,0,0,1,.074-.781,2.765,2.765,0,0,1,1.326-1.77,2.722,2.722,0,0,1,1.074-.343c.386-.028.726-.007,1.09-.014H149.1l16.607,0,31.4.008,28.413.013a11.15,11.15,0,0,1,1.681.06,2.738,2.738,0,0,1,2.147,2.375c.033.564.009,1.087.016,1.629q0,3.22,0,6.319,0,6.2-.009,11.879c-.019,15.133-.034,27.38-.044,35.849,0,2.116-.009,4-.013,5.625q0,1.222-.006,2.254,0,.516,0,.983a2.906,2.906,0,0,1-.1.884,2.606,2.606,0,0,1-.774,1.243,2.584,2.584,0,0,1-1.552.663c-.145,0-.218,0-.218,0" transform="translate(-61.825 -90.403)" fill="#263238"/>
              <path id="Trazado_828388" data-name="Trazado 828388" d="M218.16,135.885H145.7a1.693,1.693,0,0,1-1.693-1.693V97.249a1.693,1.693,0,0,1,1.693-1.693h72.793a1.693,1.693,0,0,1,1.693,1.693v36.612a2.024,2.024,0,0,1-2.024,2.024" transform="translate(-67.066 -44.502)" fill="#fff"/>
              <path id="Trazado_828389" data-name="Trazado 828389" d="M220.185,104.216H144.006V97.411a1.856,1.856,0,0,1,1.856-1.856h72.467a1.856,1.856,0,0,1,1.856,1.856Z" transform="translate(-67.067 -44.502)" fill="#e0e0e0"/>
              <path id="Trazado_828390" data-name="Trazado 828390" d="M217.92,135.764a3.125,3.125,0,0,0,.581-.1,2.144,2.144,0,0,0,1.292-1.066,2.34,2.34,0,0,0,.235-1.229q0-.708-.006-1.547c0-1.119-.008-2.41-.013-3.861-.01-5.816-.026-14.221-.044-24.607q0-1.948,0-3.987,0-1.02,0-2.061a1.626,1.626,0,0,0-.926-1.617,2.066,2.066,0,0,0-1-.149h-1.079l-2.189,0-4.5,0-19.5.013-44.687.011a2.877,2.877,0,0,0-.706.049,1.743,1.743,0,0,0-1.319,1.421,5.17,5.17,0,0,0-.025.715v2.207q0,2.936,0,5.832,0,5.79,0,11.4t0,11q0,2.7,0,5.336a2.027,2.027,0,0,0,1.257,1.947,2.954,2.954,0,0,0,1.231.149h1.292l36.5.03,24.605.044,6.69.026,1.74.014c.392,0,.593.014.593.014s-.2.01-.593.014l-1.74.013-6.69.026-24.605.044-36.5.03H146.5a3.205,3.205,0,0,1-1.328-.166,2.289,2.289,0,0,1-1.421-2.187q0-2.638,0-5.336,0-5.394,0-11t0-11.4q0-2.9,0-5.832V97.758a5.346,5.346,0,0,1,.027-.759,2.024,2.024,0,0,1,1.53-1.648,3.169,3.169,0,0,1,.77-.056l44.687.011,19.5.013,4.5,0,2.189,0h1.079a2.283,2.283,0,0,1,1.09.17,1.842,1.842,0,0,1,1.046,1.812q0,1.042,0,2.061,0,2.039,0,3.987c-.019,10.385-.034,18.791-.044,24.607,0,1.452-.009,2.742-.013,3.861q0,.838-.006,1.547a3.415,3.415,0,0,1-.046.678,2.294,2.294,0,0,1-.209.578,2.154,2.154,0,0,1-1.334,1.067,1.762,1.762,0,0,1-.589.069" transform="translate(-66.945 -44.381)" fill="#263238"/>
              <path id="Trazado_828391" data-name="Trazado 828391" d="M154.8,103.688a1.419,1.419,0,1,1-1.419-1.419,1.419,1.419,0,0,1,1.419,1.419" transform="translate(-70.772 -47.629)" fill="#fff"/>
              <path id="Trazado_828392" data-name="Trazado 828392" d="M162.968,103.688a1.419,1.419,0,1,1-1.419-1.419,1.419,1.419,0,0,1,1.419,1.419" transform="translate(-74.576 -47.629)" fill="#fff"/>
              <path id="Trazado_828393" data-name="Trazado 828393" d="M171.138,103.688a1.419,1.419,0,1,1-1.418-1.419,1.419,1.419,0,0,1,1.418,1.419" transform="translate(-78.381 -47.629)" fill="#fff"/>
              <path id="Trazado_828394" data-name="Trazado 828394" d="M176.533,132.933h-8.856a.961.961,0,0,1,0-1.922h8.856a.961.961,0,0,1,0,1.922" transform="translate(-77.644 -61.015)" fill="#263238"/>
              <path id="Trazado_828395" data-name="Trazado 828395" d="M176.533,142.347h-8.856a.961.961,0,0,1,0-1.922h8.856a.961.961,0,0,1,0,1.922" transform="translate(-77.644 -65.399)" fill="#e0e0e0"/>
              <path id="Trazado_828396" data-name="Trazado 828396" d="M249.36,132.933H223.674a.961.961,0,0,1,0-1.922H249.36a.961.961,0,0,1,0,1.922" transform="translate(-103.722 -61.015)" fill="#e0e0e0"/>
              <path id="Trazado_828397" data-name="Trazado 828397" d="M176.533,152.075h-8.856a.961.961,0,0,1,0-1.922h8.856a.961.961,0,0,1,0,1.922" transform="translate(-77.644 -69.93)" fill="#1682fb"/>
              <path id="Trazado_828398" data-name="Trazado 828398" d="M252.561,142.347h-8.856a.961.961,0,0,1,0-1.922h8.856a.961.961,0,0,1,0,1.922" transform="translate(-113.052 -65.399)" fill="#1682fb"/>
              <path id="Trazado_828399" data-name="Trazado 828399" d="M203.088,132.933h-8.856a.961.961,0,0,1,0-1.922h8.856a.961.961,0,0,1,0,1.922" transform="translate(-90.01 -61.015)" fill="#455a64"/>
              <path id="Trazado_828400" data-name="Trazado 828400" d="M214.5,142.347H194.232a.961.961,0,0,1,0-1.922H214.5a.961.961,0,0,1,0,1.922" transform="translate(-90.01 -65.399)" fill="#263238"/>
              <path id="Trazado_828401" data-name="Trazado 828401" d="M234.376,152.075H194.189a.962.962,0,0,1,0-1.922h40.187a.962.962,0,0,1,0,1.922" transform="translate(-90.01 -69.93)" fill="#e0e0e0"/>
              <path id="Trazado_828402" data-name="Trazado 828402" d="M214.076,158.927H194.232a.961.961,0,1,1,0-1.922h19.844a.961.961,0,0,1,0,1.922" transform="translate(-90.01 -73.121)" fill="#e0e0e0"/>
              <path id="Trazado_828403" data-name="Trazado 828403" d="M158.689,131.959a.976.976,0,1,1-.976-.976.976.976,0,0,1,.976.976" transform="translate(-72.996 -61.002)" fill="#455a64"/>
              <path id="Trazado_828404" data-name="Trazado 828404" d="M158.689,122.951a.976.976,0,1,1-.976-.976.976.976,0,0,1,.976.976" transform="translate(-72.996 -56.806)" fill="#455a64"/>
              <path id="Trazado_828405" data-name="Trazado 828405" d="M158.689,141.344a.976.976,0,1,1-.976-.976.976.976,0,0,1,.976.976" transform="translate(-72.996 -65.372)" fill="#455a64"/>
              <path id="Trazado_828406" data-name="Trazado 828406" d="M158.689,151.1a.976.976,0,1,1-.976-.976.976.976,0,0,1,.976.976" transform="translate(-72.996 -69.916)" fill="#455a64"/>
              <path id="Trazado_828407" data-name="Trazado 828407" d="M173.059,123.5h-5.453a.512.512,0,0,1-.512-.512v-.83a.512.512,0,0,1,.512-.512h5.453a.512.512,0,0,1,.512.512v.83a.512.512,0,0,1-.512.512" transform="translate(-77.819 -56.651)" fill="#455a64"/>
            </g>
          </g>
          <g id="Grupo_1074807" data-name="Grupo 1074807">
            <g id="Grupo_1074806" data-name="Grupo 1074806" clip-path="url(#clip-path-2)">
              <path id="Trazado_828408" data-name="Trazado 828408" d="M91.9,287.229s-3.05.657-3.58,2.823,4.249,53.959,4.44,55.221a5.212,5.212,0,0,0,5.739,4.364c3.282-.118,48.006-.014,59.268.012,1.5,0,2.4-1.271,2.593-2.787l-55.374-3.269Z" transform="translate(-41.111 -133.769)" fill="#e0e0e0"/>
              <path id="Trazado_828409" data-name="Trazado 828409" d="M92.446,288.956l4.8,55.857a1.807,1.807,0,0,0,1.769,1.626l63.282.284L150.138,334.66l-41.11-.29-4.4-43.761a1.374,1.374,0,0,0-1.054-1.193l-9.209-2.146a1.574,1.574,0,0,0-1.923,1.686" transform="translate(-43.051 -133.769)" fill="#e0e0e0"/>
              <path id="Trazado_828410" data-name="Trazado 828410" d="M92.442,288.931a1.243,1.243,0,0,1-.01-.27,1.5,1.5,0,0,1,.246-.755,1.592,1.592,0,0,1,1.076-.708,1.9,1.9,0,0,1,.841.069l.937.214,4.888,1.122,3.1.714a1.449,1.449,0,0,1,1.17,1.245q.092.9.19,1.846c1.029,10.122,2.5,24.575,4.262,41.925l-.118-.107,41.11.272h.056l.041.04L162.389,346.6l.241.239-.34,0-2.8-.012-46.39-.22-10.417-.052-2.514-.013c-.419,0-.824,0-1.249-.012a1.919,1.919,0,0,1-1.781-1.639c-.046-.415-.072-.81-.108-1.214l-.2-2.389c-.536-6.317-1.036-12.2-1.492-17.573-.9-10.741-1.635-19.433-2.141-25.447l-.568-6.92-.141-1.8c-.03-.406-.038-.614-.038-.614s.027.207.067.612.095,1.011.168,1.8c.142,1.587.351,3.916.62,6.915l2.229,25.439c.466,5.371.978,11.255,1.526,17.57l.207,2.389c.037.4.065.811.11,1.2a1.682,1.682,0,0,0,1.562,1.433c.4.011.824.006,1.237.01l2.514.01,10.417.041,46.389.2,2.8.013-.1.238-12.155-12.065.1.04-41.11-.308h-.107l-.01-.107c-1.723-17.355-3.158-31.811-4.163-41.935q-.094-.948-.182-1.845a1.321,1.321,0,0,0-1.067-1.14l-3.1-.73-4.88-1.155-.936-.223a1.862,1.862,0,0,0-.818-.077,1.556,1.556,0,0,0-1.054.675,1.522,1.522,0,0,0-.259.736c-.014.177,0,.268-.009.268" transform="translate(-43.047 -133.744)" fill="#263238"/>
              <path id="Trazado_828411" data-name="Trazado 828411" d="M174.753,387.46h5.882l-7.437-9.646h-3.492Z" transform="translate(-79.036 -175.956)" fill="#263238"/>
              <path id="Trazado_828412" data-name="Trazado 828412" d="M96.52,294.505l4.492,48.532,8.369-6.657-3.6-40.889a.709.709,0,0,0-.606-.639l-7.846-1.123a.71.71,0,0,0-.806.776" transform="translate(-44.949 -136.793)" fill="#263238"/>
              <path id="Trazado_828413" data-name="Trazado 828413" d="M113.347,387.46h6.072l6.169-9.646H122.1Z" transform="translate(-52.788 -175.956)" fill="#263238"/>
              <path id="Trazado_828414" data-name="Trazado 828414" d="M127.294,387.46h5.882l3.223-9.646h-3.492Z" transform="translate(-59.284 -175.956)" fill="#263238"/>
              <path id="Trazado_828415" data-name="Trazado 828415" d="M140.77,387.46h5.882l.317-9.646h-3.492Z" transform="translate(-65.56 -175.956)" fill="#263238"/>
              <path id="Trazado_828416" data-name="Trazado 828416" d="M153.265,387.46h5.882l-2.172-9.646h-3.491Z" transform="translate(-71.379 -175.956)" fill="#263238"/>
              <path id="Trazado_828417" data-name="Trazado 828417" d="M164.2,387.46h5.882l-4.792-9.646H161.8Z" transform="translate(-75.351 -175.956)" fill="#263238"/>
              <path id="Trazado_828418" data-name="Trazado 828418" d="M154.681,392.276c0,.046-8.97.083-20.032.083s-20.034-.037-20.034-.083,8.968-.083,20.034-.083,20.032.037,20.032.083" transform="translate(-53.378 -182.653)" fill="#e0e0e0"/>
              <path id="Trazado_828419" data-name="Trazado 828419" d="M154.443,388.965c0,.046-8.519.083-19.025.083s-19.026-.037-19.026-.083,8.517-.083,19.026-.083,19.025.037,19.025.083" transform="translate(-54.206 -181.111)" fill="#e0e0e0"/>
              <path id="Trazado_828420" data-name="Trazado 828420" d="M156.4,385.889c0,.092-8.016.167-17.9.167s-17.9-.075-17.9-.167,8.014-.167,17.9-.167,17.9.074,17.9.167" transform="translate(-56.165 -179.639)" fill="#e0e0e0"/>
              <path id="Trazado_828421" data-name="Trazado 828421" d="M157.533,383.146c0,.092-7.843.167-17.516.167s-17.518-.074-17.518-.167,7.842-.167,17.518-.167,17.516.075,17.516.167" transform="translate(-57.05 -178.362)" fill="#e0e0e0"/>
              <path id="Trazado_828422" data-name="Trazado 828422" d="M158.868,381.145c0,.092-7.895.167-17.63.167s-17.632-.075-17.632-.167,7.893-.167,17.632-.167,17.63.074,17.63.167" transform="translate(-57.566 -177.43)" fill="#e0e0e0"/>
              <path id="Trazado_828423" data-name="Trazado 828423" d="M159.918,379.054c0,.092-8.042.167-17.961.167s-17.963-.075-17.963-.167,8.041-.167,17.963-.167,17.961.074,17.961.167" transform="translate(-57.747 -176.456)" fill="#e0e0e0"/>
              <path id="Trazado_828424" data-name="Trazado 828424" d="M103.087,386.067,114.05,375.81" transform="translate(-48.01 -175.023)" fill="#e0e0e0"/>
              <path id="Trazado_828425" data-name="Trazado 828425" d="M114.049,375.809c.052.056-2.359,2.4-5.386,5.23s-5.524,5.083-5.577,5.027,2.359-2.4,5.387-5.231,5.524-5.083,5.576-5.026" transform="translate(-48.009 -175.022)" fill="#263238"/>
            </g>
          </g>
          <g id="Grupo_1074815" data-name="Grupo 1074815">
            <g id="Grupo_1074814" data-name="Grupo 1074814" clip-path="url(#clip-path-2)">
              <path id="Trazado_828426" data-name="Trazado 828426" d="M421.548,295.272s-.537-5.67-14.67-9.3c-6.824-1.752-23.112-2.594-24.958,7.993-.06.343-8.107,66.93-8.107,66.93h30.115Z" transform="translate(-174.092 -132.69)" fill="#455a64"/>
              <path id="Trazado_828427" data-name="Trazado 828427" d="M442.119,365.775H428.226l4.64-65.238c.34-3.175,3.625-5.464,7.338-5.112l1.244.118c3.713.351,6.065,3.928,5.958,8Z" transform="translate(-199.434 -137.569)" fill="#455a64"/>
              <path id="Trazado_828428" data-name="Trazado 828428" d="M430.173,372.716c-.076-.006.9-12.857,2.192-28.7s2.393-28.686,2.469-28.68-.9,12.855-2.192,28.7-2.392,28.683-2.469,28.677" transform="translate(-200.339 -146.859)" fill="#263238"/>
              <path id="Trazado_828429" data-name="Trazado 828429" d="M449.184,297.881a14.408,14.408,0,0,0-1.953-.459,7.314,7.314,0,0,0-7.752,4.447,14.414,14.414,0,0,0-.589,1.918,1.757,1.757,0,0,1,.027-.547,6.444,6.444,0,0,1,.379-1.445,7.218,7.218,0,0,1,7.962-4.568,6.434,6.434,0,0,1,1.439.4,1.763,1.763,0,0,1,.486.252" transform="translate(-204.396 -138.38)" fill="#263238"/>
              <path id="Trazado_828430" data-name="Trazado 828430" d="M350.888,141.421c.139-3.819-2.449-4.335-4.442-3.9a6.757,6.757,0,0,0-8.309.454,6.01,6.01,0,0,0-8.888,5.233,5.021,5.021,0,0,0-4.083,8.613,4.827,4.827,0,0,0,2.365,9.309l23.435-15.607c1.405-1.479-.153-2.068-.079-4.107" transform="translate(-149.966 -63.483)" fill="#263238"/>
              <path id="Trazado_828431" data-name="Trazado 828431" d="M330.521,167.014a20.48,20.48,0,0,1,19.734-19.547l1.06-.037c11.452.261,17.628,10.133,17.05,21.574l-.3,38.116-.075,7.237L341.8,220.581l-.266-15.087s-11.048-1.318-11.574-12.3c-.254-5.3.111-16.265.557-26.182" transform="translate(-153.633 -68.661)" fill="#ae7461"/>
              <path id="Trazado_828432" data-name="Trazado 828432" d="M351.528,251.966a26.661,26.661,0,0,0,14.243-4.725s-3.1,8.026-14.1,7.426Z" transform="translate(-163.714 -115.145)" fill="#6f4439"/>
              <path id="Trazado_828433" data-name="Trazado 828433" d="M337.064,203.537a1.57,1.57,0,0,0,1.569,1.529,1.5,1.5,0,0,0,1.567-1.472,1.571,1.571,0,0,0-1.568-1.53,1.5,1.5,0,0,0-1.568,1.473" transform="translate(-156.978 -94.105)" fill="#263238"/>
              <path id="Trazado_828434" data-name="Trazado 828434" d="M335.641,193.505c.2.2,1.358-.724,3.047-.78,1.686-.08,2.955.745,3.13.532.087-.1-.124-.457-.677-.831a4.306,4.306,0,0,0-2.515-.679,4.135,4.135,0,0,0-2.417.876c-.5.417-.667.793-.568.881" transform="translate(-156.302 -89.3)" fill="#263238"/>
              <path id="Trazado_828435" data-name="Trazado 828435" d="M362.461,202.886a1.57,1.57,0,0,0,1.569,1.529,1.5,1.5,0,0,0,1.566-1.472,1.571,1.571,0,0,0-1.568-1.53,1.5,1.5,0,0,0-1.568,1.473" transform="translate(-168.806 -93.802)" fill="#263238"/>
              <path id="Trazado_828436" data-name="Trazado 828436" d="M365.85,191.99c.2.2,1.361-.724,3.048-.779,1.685-.08,2.955.744,3.131.531.087-.095-.123-.457-.678-.83a4.306,4.306,0,0,0-2.515-.679,4.141,4.141,0,0,0-2.417.876c-.5.417-.667.793-.568.881" transform="translate(-170.372 -88.594)" fill="#263238"/>
              <path id="Trazado_828437" data-name="Trazado 828437" d="M352.513,205.026a11.114,11.114,0,0,0-2.759-.4c-.433-.029-.844-.1-.927-.392a2.2,2.2,0,0,1,.243-1.288l1.158-3.327c1.6-4.736,2.749-8.624,2.558-8.687s-1.647,3.725-3.251,8.461q-.578,1.751-1.1,3.346a2.5,2.5,0,0,0-.164,1.7,1.082,1.082,0,0,0,.731.6,2.893,2.893,0,0,0,.736.076,11.051,11.051,0,0,0,2.779-.095" transform="translate(-162.149 -88.922)" fill="#263238"/>
              <path id="Trazado_828438" data-name="Trazado 828438" d="M361.126,219.166c-.275-.006-.214,1.826-1.735,3.182s-3.48,1.225-3.485,1.481c-.021.116.448.34,1.273.333a4.561,4.561,0,0,0,2.912-1.132,3.977,3.977,0,0,0,1.338-2.664c.043-.769-.178-1.215-.3-1.2" transform="translate(-165.753 -102.07)" fill="#263238"/>
              <path id="Trazado_828439" data-name="Trazado 828439" d="M365.5,182.968c.216.431,1.656-.014,3.424-.048,1.766-.074,3.252.282,3.418-.161.072-.211-.238-.6-.871-.951a5.283,5.283,0,0,0-2.645-.6,5.068,5.068,0,0,0-2.567.758c-.591.388-.855.794-.759,1" transform="translate(-170.21 -84.392)" fill="#263238"/>
              <path id="Trazado_828440" data-name="Trazado 828440" d="M336.041,184.942c.279.4,1.46.053,2.858.1,1.4,0,2.569.378,2.86-.011.129-.189-.04-.581-.54-.968a4.142,4.142,0,0,0-4.608-.072c-.512.371-.692.758-.57.951" transform="translate(-156.484 -85.379)" fill="#263238"/>
              <path id="Trazado_828441" data-name="Trazado 828441" d="M332.684,160.81s2.653-6.982,5.912-8.706c3.947-2.086,5.832,2.261,9.621,1.055s7.556-3.207,11.572-.387c4.4,3.085,2.471,5.428,2.909,10.293,1.775,19.722,5.582,25.182,6.277,15.838.076-1.024,2.878-1.936,3.144-6.259.345-5.606.319-12.4-1.069-16.317-1.17-3.3-3.157-5.545-6.664-7.969-5.536-3.826-12.948-3.649-17.961-2.964s-14.506,6.819-13.742,15.416" transform="translate(-154.918 -67.533)" fill="#263238"/>
              <path id="Trazado_828442" data-name="Trazado 828442" d="M399.29,205.328a2.984,2.984,0,0,1,3.117-2.988c2.055.122,4.377,1.2,4.392,5.443.028,7.518-7.526,5.995-7.54,5.779-.009-.146.015-5.087.032-8.234" transform="translate(-185.942 -94.232)" fill="#ae7461"/>
              <path id="Trazado_828443" data-name="Trazado 828443" d="M402.3,212.853c.033-.024.131.091.353.192a1.307,1.307,0,0,0,.979.017,3.242,3.242,0,0,0,1.489-2.913,4.323,4.323,0,0,0-.374-1.874,1.512,1.512,0,0,0-.988-1,.666.666,0,0,0-.771.362c-.1.211-.052.361-.092.373-.021.019-.161-.126-.1-.436a.837.837,0,0,1,.294-.472.987.987,0,0,1,.723-.194,1.84,1.84,0,0,1,1.373,1.161,4.441,4.441,0,0,1,.462,2.093c-.043,1.516-.813,2.936-1.9,3.254a1.4,1.4,0,0,1-1.2-.194c-.233-.185-.274-.353-.248-.367" transform="translate(-187.355 -96.357)" fill="#6f4439"/>
              <path id="Trazado_828444" data-name="Trazado 828444" d="M371.751,161.9a7.135,7.135,0,0,1-3.129,1.581,2.45,2.45,0,0,1-2.778-1.626c-.108-.52,0-1.131-.36-1.523-.427-.467-1.179-.29-1.805-.2a4.8,4.8,0,0,1-5.1-3.26,2.013,2.013,0,0,1-2.69.35,10.767,10.767,0,0,1-2.122-2.115,3.09,3.09,0,0,0-2.624-1.2,7.459,7.459,0,0,1-1.62.418c-.989-.053-1.512-1.19-1.7-2.164s-.341-2.111-1.2-2.614c-.791-.465-1.785-.144-2.688.021s-2.083-.005-2.347-.885a1.786,1.786,0,0,1,.287-1.374,4.867,4.867,0,0,1,5.676-2.045,6.6,6.6,0,0,1,12.067-1.709,6.7,6.7,0,0,1,10.782,2.059,4.852,4.852,0,0,1,5.718,6.86,4.609,4.609,0,0,1,2.664,3.577c.083,1.554-1.376,3.156-2.89,2.8a2.687,2.687,0,0,1-4.55,2.843" transform="translate(-159.068 -65.353)" fill="#263238"/>
              <path id="Trazado_828445" data-name="Trazado 828445" d="M397.305,174.946a1.8,1.8,0,0,1-.417,1.46,2.416,2.416,0,0,1-1.473.951,2.6,2.6,0,0,1-2.163-.547l.316-.059a7.513,7.513,0,0,1-1.432,1.927,4.32,4.32,0,0,1-1.338.9,3.336,3.336,0,0,1-3.718-.972,4.334,4.334,0,0,1-.663-1.541,1.474,1.474,0,0,1-.08-.6c.032-.009.1.2.24.555a5.052,5.052,0,0,0,.744,1.4,3.065,3.065,0,0,0,4.517-.055,7.56,7.56,0,0,0,1.367-1.806l.124-.226.191.167a2.284,2.284,0,0,0,1.831.512,2.212,2.212,0,0,0,1.334-.765,3.648,3.648,0,0,0,.619-1.3" transform="translate(-179.92 -81.476)" fill="#455a64"/>
              <path id="Trazado_828446" data-name="Trazado 828446" d="M204.946,358.226s-14.173-.425-15.022-.69a8.917,8.917,0,0,0-3.928,0c-1.009.319-5.043,1.752-5.043,1.752l-8.562,2.282s-8.6,5.629-8.424,6.754,1.115,1.9,2.654,1.314,9.308-4.618,9.308-4.618l8.527-.9s11.661,4.189,14.015,3.981,8.387-1.229,8.387-1.229.849-6.044.425-7-2.336-1.646-2.336-1.646" transform="translate(-76.361 -166.41)" fill="#ae7461"/>
              <path id="Trazado_828447" data-name="Trazado 828447" d="M165.049,376.255s7.182-7.7,9.173-8.74,13.067-2.856,13.067-2.856,3.548-1.471,4.846-.952,15.058,2.6,15.663,2.683-2.942,12.115-2.942,12.115a28.043,28.043,0,0,1-10.3-.433c-5.538-1.3-7.442-3.029-7.442-3.029l-5.529-1.452-3.383,1.29s-.607,5.008-3.031,4.748l-1.125-.779.865-5.538-3.548,1.471s-2.769,4.153-4.846,3.548-1.471-2.077-1.471-2.077" transform="translate(-76.829 -169.335)" fill="#ae7461"/>
              <path id="Trazado_828448" data-name="Trazado 828448" d="M165.036,376.15a1.69,1.69,0,0,0-.055.6,1.331,1.331,0,0,0,.268.676,1.973,1.973,0,0,0,.813.593,2.049,2.049,0,0,0,1.246.178,3.812,3.812,0,0,0,1.375-.7,12.535,12.535,0,0,0,2.607-2.864l.013-.019.021-.009,3.543-1.483.145-.06-.024.156c-.256,1.666-.543,3.536-.851,5.54l-.043-.1,1.127.776-.049-.018a1.62,1.62,0,0,0,1.248-.458,3.682,3.682,0,0,0,.826-1.2,10.887,10.887,0,0,0,.829-3l.01-.071.065-.025,3.381-1.3.036-.014.038.01,5.53,1.445.025.006.029.023a14.388,14.388,0,0,0,3.825,1.95A32.121,32.121,0,0,0,195.371,378a27.711,27.711,0,0,0,4.649.524,26.309,26.309,0,0,0,4.8-.266l-.108.1.773-2.679c.759-2.721,1.524-5.4,2.079-8.047a9.163,9.163,0,0,0,.151-.987,1.205,1.205,0,0,0,0-.224c.005-.035-.033-.055.022-.01a.065.065,0,0,0,.03.008l-.014,0-.031,0-.063-.01-.5-.075-1.977-.3-3.871-.61c-2.542-.411-5-.813-7.367-1.264-.593-.123-1.17-.222-1.756-.4a3.233,3.233,0,0,0-1.662-.05,16.9,16.9,0,0,0-3.2.961l-.013.005-.013,0c-3.872.651-7.414,1.288-10.5,2.029a19.078,19.078,0,0,0-2.2.644,6.7,6.7,0,0,0-1.746,1.181c-1.046.887-1.954,1.764-2.773,2.555-1.633,1.587-2.876,2.872-3.728,3.741l-.969,1c-.22.225-.339.335-.339.335s.1-.127.313-.36l.944-1.019c.836-.886,2.063-2.186,3.684-3.789.813-.8,1.715-1.684,2.761-2.583.262-.224.533-.45.824-.664a3.9,3.9,0,0,1,.961-.556,19.137,19.137,0,0,1,2.222-.665c3.1-.76,6.636-1.411,10.511-2.075l-.026.007a17.045,17.045,0,0,1,3.252-.986,3.47,3.47,0,0,1,1.787.057c.54.164,1.137.269,1.72.388,2.356.444,4.82.842,7.361,1.249l3.871.6,1.977.3.5.074.063.009.031,0,.017,0a.229.229,0,0,1,.059.022.265.265,0,0,1,.118.213,1.459,1.459,0,0,1,0,.281,9.361,9.361,0,0,1-.155,1.021c-.558,2.671-1.32,5.344-2.081,8.071l-.774,2.682-.024.084-.084.013a26.513,26.513,0,0,1-4.856.268,27.923,27.923,0,0,1-4.694-.534,32.276,32.276,0,0,1-4.394-1.228,20.843,20.843,0,0,1-2.043-.865,9.774,9.774,0,0,1-1.865-1.143l.054.029-5.527-1.459.075,0-3.385,1.285.074-.1a11.071,11.071,0,0,1-.859,3.064,3.9,3.9,0,0,1-.882,1.268,1.836,1.836,0,0,1-1.416.507l-.027,0-.022-.015-1.123-.782-.053-.037.01-.064c.318-2,.615-3.871.879-5.536l.121.1-3.553,1.459.034-.028a12.541,12.541,0,0,1-2.663,2.874,3.9,3.9,0,0,1-1.424.7,2.126,2.126,0,0,1-1.3-.2,2.017,2.017,0,0,1-.829-.629,1.354,1.354,0,0,1-.26-.709,1.146,1.146,0,0,1,.1-.6" transform="translate(-76.815 -169.23)" fill="#6f4439"/>
              <path id="Trazado_828449" data-name="Trazado 828449" d="M195.46,374.43a2.059,2.059,0,0,1-.546-.013c-.349-.027-.853-.075-1.475-.14l-2.181-.243-.63-.074a2.1,2.1,0,0,0-.627.013,12.714,12.714,0,0,0-1.346.279c-1.8.524-3.6.871-4.3,1.939a4.032,4.032,0,0,0-.641,1.292,5.329,5.329,0,0,1-.142.522,1.3,1.3,0,0,1,.037-.548,3.687,3.687,0,0,1,.588-1.382,3.36,3.36,0,0,1,.735-.753,4.255,4.255,0,0,1,1.072-.544c.782-.285,1.653-.557,2.582-.8a12.042,12.042,0,0,1,1.38-.28,2.328,2.328,0,0,1,.691-.007l.629.083,2.177.3c.619.09,1.119.168,1.464.228a2.042,2.042,0,0,1,.532.121" transform="translate(-85.487 -174.028)" fill="#6f4439"/>
              <path id="Trazado_828450" data-name="Trazado 828450" d="M169.731,375.691a4.386,4.386,0,0,1,.594-.6c.4-.368.986-.887,1.731-1.508s1.646-1.344,2.685-2.1c.522-.375,1.078-.758,1.68-1.12a8.974,8.974,0,0,1,.957-.5,8.466,8.466,0,0,1,1.059-.339,56.643,56.643,0,0,1,7.467-1.284l2.277-.283a4.959,4.959,0,0,1,.839-.066,4.83,4.83,0,0,1-.824.174l-2.263.37a69.346,69.346,0,0,0-7.423,1.358,8.427,8.427,0,0,0-1.023.326,8.87,8.87,0,0,0-.926.48c-.593.353-1.148.728-1.67,1.094-1.041.738-1.951,1.445-2.71,2.044l-1.784,1.437a5.434,5.434,0,0,1-.665.517" transform="translate(-79.047 -171.332)" fill="#6f4439"/>
              <path id="Trazado_828451" data-name="Trazado 828451" d="M292.389,282.789a82.641,82.641,0,0,0-6.773,11.422c-2.566,5.343-10.871,23.533-10.871,23.533l-33.833,1.775.5,13.072s32.679,11.642,39.994,9.4,15.108-10.68,15.108-10.68l3.5-55.138s-2.9-.547-7.623,6.619" transform="translate(-112.198 -128.614)" fill="#1682fb"/>
              <path id="Trazado_828452" data-name="Trazado 828452" d="M336.332,267.818s-8.675,19.677-9.943,28.012c-2.516,16.548-3.362,26.9-3.362,26.9l-2.95,25.608H377.86s1.913-47.46.684-63.374c-.921-11.922-10.052-19.348-13.788-23.426a36.607,36.607,0,0,1-1.253-3.583l-26.926,6.9Z" transform="translate(-149.067 -120.137)" fill="#1682fb"/>
              <path id="Trazado_828453" data-name="Trazado 828453" d="M333.854,282.009a1.044,1.044,0,0,1-.067.187l-.221.536-.864,2.056c-.743,1.788-1.814,4.38-2.892,7.668a91.343,91.343,0,0,0-2.987,11.771c-.86,4.494-1.556,9.481-2.137,14.731l-2.728,26.934c-.357,3.433-.648,6.217-.85,8.16l-.245,2.217-.071.575a.1.1,0,1,1-.028,0c.011-.145.025-.336.043-.579.046-.524.111-1.27.193-2.223.181-1.945.441-4.732.762-8.169.668-6.9,1.55-16.424,2.647-26.944.581-5.255,1.286-10.247,2.161-14.748a89,89,0,0,1,3.052-11.785c1.1-3.288,2.2-5.873,2.98-7.648.382-.891.7-1.572.913-2.036.1-.221.185-.395.246-.526a1.016,1.016,0,0,1,.092-.175" transform="translate(-149.383 -131.338)" fill="#263238"/>
              <g id="Grupo_1074810" data-name="Grupo 1074810" transform="translate(172.058 168.117)" opacity="0.3">
                <g id="Grupo_1074809" data-name="Grupo 1074809">
                  <g id="Grupo_1074808" data-name="Grupo 1074808" clip-path="url(#clip-path-14)">
                    <path id="Trazado_828454" data-name="Trazado 828454" d="M364.47,328.191c-.532-5.242-2.887-10.5-7.2-13.53l-35.232,50.311c6.22,3.354,13.126,6.817,20.036,5.34a19.882,19.882,0,0,0,9.7-5.683c5.571-5.6,8.594-13.237,10.719-20.848,1.416-5.076,2.507-10.346,1.975-15.59" transform="translate(-322.038 -314.662)"/>
                  </g>
                </g>
              </g>
              <path id="Trazado_828455" data-name="Trazado 828455" d="M329.45,303.212c-4.39,15.533-14.268,34.486-17.3,38.294a23.552,23.552,0,0,1-18.433,9.044c-3.975,0-37.571-6.542-47.527-8.5a4.265,4.265,0,0,1-3.351-3.31l-.086-.412-4.483-1.207,2.387-12.026.477-.667,48.049,1.511,13.978-38.93c.264-.445,4.3-13.509,15.246-12.916" transform="translate(-110.967 -127.643)" fill="#1682fb"/>
              <path id="Trazado_828456" data-name="Trazado 828456" d="M318.264,274.086s-.123.005-.363,0a10.508,10.508,0,0,0-1.071.026,12.08,12.08,0,0,0-4.038.959,14.654,14.654,0,0,0-5.273,4.067,26.4,26.4,0,0,0-4.435,7.9l.006-.013-13.938,38.945-.029.083-.089,0-48.049-1.494.117-.058-.477.666.024-.053-2.167,10.918c-.075.38-.151.759-.22,1.108l-.1-.161,4.482,1.207.087.024.013.082a4.332,4.332,0,0,0,1.32,2.589,4.028,4.028,0,0,0,1.228.788,7.185,7.185,0,0,0,1.435.367l5.88,1.148,11.487,2.21c7.529,1.427,14.781,2.783,21.7,3.954,1.73.287,3.44.562,5.129.8.846.106,1.686.224,2.515.262a19.564,19.564,0,0,0,2.489-.124,23.594,23.594,0,0,0,9.081-2.913,24.146,24.146,0,0,0,6.777-5.78,31.871,31.871,0,0,0,2.331-3.517q1.05-1.785,1.986-3.529a190.074,190.074,0,0,0,10.3-22.7c1.017-2.757,1.74-4.92,2.2-6.394l.518-1.679c.118-.378.185-.569.185-.569s-.049.2-.159.576-.277.949-.492,1.687c-.443,1.481-1.151,3.65-2.154,6.415a186.063,186.063,0,0,1-10.231,22.757q-.936,1.746-1.982,3.541a32.049,32.049,0,0,1-2.341,3.547,24.351,24.351,0,0,1-6.828,5.844,23.829,23.829,0,0,1-9.168,2.956,19.893,19.893,0,0,1-2.518.129c-.855-.038-1.7-.157-2.545-.262-1.694-.237-3.406-.51-5.138-.8-6.924-1.164-14.178-2.515-21.708-3.937l-11.489-2.206-5.881-1.147a7.428,7.428,0,0,1-1.487-.382,4.32,4.32,0,0,1-1.311-.84,4.615,4.615,0,0,1-1.4-2.735l.1.105-4.482-1.207-.126-.034.026-.128c.069-.349.144-.728.22-1.108.743-3.74,1.477-7.44,2.168-10.918l.006-.029.017-.024.477-.666.043-.06.074,0,48.049,1.529-.118.08c5.646-15.674,10.468-29.059,14.018-38.916l.006-.013a26.361,26.361,0,0,1,4.477-7.9A14.668,14.668,0,0,1,312.76,275a11.922,11.922,0,0,1,4.067-.925,9.336,9.336,0,0,1,1.074,0c.241.007.363.017.363.017" transform="translate(-110.826 -127.633)" fill="#263238"/>
              <path id="Trazado_828457" data-name="Trazado 828457" d="M308.91,360.193a13.6,13.6,0,0,0-5.545-5.952,3.763,3.763,0,0,1,1.118.506,10.279,10.279,0,0,1,4,4.294,3.776,3.776,0,0,1,.426,1.151" transform="translate(-141.283 -164.976)" fill="#263238"/>
              <path id="Trazado_828458" data-name="Trazado 828458" d="M339.476,380.661c-.048.007-.141-.616-.42-1.585a14.636,14.636,0,0,0-4.049-6.633c-.735-.691-1.246-1.058-1.218-1.1.011-.016.148.062.387.218a8.919,8.919,0,0,1,.962.734,12.944,12.944,0,0,1,4.108,6.729,9.038,9.038,0,0,1,.213,1.191,1.359,1.359,0,0,1,.017.445" transform="translate(-155.452 -172.943)" fill="#263238"/>
              <g id="Grupo_1074813" data-name="Grupo 1074813" transform="translate(171.207 165.37)" opacity="0.3">
                <g id="Grupo_1074812" data-name="Grupo 1074812">
                  <g id="Grupo_1074811" data-name="Grupo 1074811" clip-path="url(#clip-path-15)">
                    <path id="Trazado_828459" data-name="Trazado 828459" d="M320.445,342.146l2.8.1c.451-10.975,2.712-21.918,4.648-32.73-4.932,10.072-6.225,21.479-7.445,32.627" transform="translate(-320.445 -309.52)"/>
                  </g>
                </g>
              </g>
              <path id="Trazado_828460" data-name="Trazado 828460" d="M378.708,264.663a1.05,1.05,0,0,1-.264.092l-.769.211-2.833.753c-2.391.635-5.688,1.547-9.352,2.471s-7.017,1.639-9.463,2.041c-1.222.2-2.215.345-2.9.415l-.793.08a1.042,1.042,0,0,1-.279.009,1.065,1.065,0,0,1,.272-.065l.786-.132c.684-.1,1.67-.275,2.885-.5,2.432-.45,5.768-1.191,9.429-2.117s6.965-1.8,9.371-2.391c1.2-.3,2.179-.522,2.856-.668l.782-.16a1.044,1.044,0,0,1,.277-.037" transform="translate(-163.957 -123.258)" fill="#263238"/>
            </g>
          </g>
        </g>
      </g>
    </g>
  </g>
</svg>
