<svg xmlns="http://www.w3.org/2000/svg" xmlns:xlink="http://www.w3.org/1999/xlink" width="247.976" height="250.859" viewBox="0 0 247.976 250.859">
  <defs>
    <clipPath id="clip-path">
      <rect id="Rectángulo_383683" data-name="Rectángulo 383683" width="247.736" height="155.566" rx="14" transform="translate(0 0)" fill="#273a89"/>
    </clipPath>
    <clipPath id="clip-path-2">
      <rect id="Rectángulo_384020" data-name="Rectángulo 384020" width="211.902" height="239.483" fill="none"/>
    </clipPath>
    <clipPath id="clip-path-4">
      <rect id="Rectángulo_384017" data-name="Rectángulo 384017" width="32.821" height="58.372" fill="none"/>
    </clipPath>
    <clipPath id="clip-path-5">
      <rect id="Rectángulo_384018" data-name="Rectángulo 384018" width="37.252" height="2.914" fill="none"/>
    </clipPath>
  </defs>
  <g id="Grupo_1074875" data-name="Grupo 1074875" transform="translate(4900 4771)">
    <g id="Grupo_1074781" data-name="Grupo 1074781" transform="translate(-4900 -4771)">
      <g id="Grupo_1074757" data-name="Grupo 1074757" transform="translate(0 0)">
        <g id="Grupo_1074626" data-name="Grupo 1074626" transform="translate(5.339)">
          <path id="Trazado_818450" data-name="Trazado 818450" d="M204.908,45.939,170.1,10.559,137.332,43.87l-32.955-33.5-34.436,35L35.875,10.749,5.1,42.029,0,36.843,35.875.377,69.941,35,104.377,0l32.955,33.5L170.1.187l34.807,35.38L237.533,2.406l5.1,5.184Z" transform="translate(0 0)" fill="#add3fd"/>
          <path id="Trazado_818451" data-name="Trazado 818451" d="M204.908,62.735,170.1,27.357,137.332,60.663l-32.955-33.5-34.436,35L35.875,27.544,5.1,58.826,0,53.638,35.875,17.172,69.941,51.8l34.436-35,32.955,33.5L170.1,16.985l34.807,35.378L237.533,19.2l5.1,5.184Z" transform="translate(0 18.96)" fill="#add3fd"/>
          <path id="Trazado_818452" data-name="Trazado 818452" d="M204.908,79.53,170.1,44.152,137.332,77.461l-32.955-33.5-34.436,35L35.875,44.339,5.1,75.621,0,70.433,35.875,33.967,69.941,68.594l34.436-35,32.955,33.5L170.1,33.78l34.807,35.378L237.533,36l5.1,5.186Z" transform="translate(0 37.92)" fill="#add3fd"/>
          <path id="Trazado_818453" data-name="Trazado 818453" d="M204.908,96.326,170.1,60.946,137.332,94.255l-32.955-33.5-34.436,35L35.875,61.133,5.1,92.415,0,87.229,35.875,50.763,69.941,85.39l34.436-35,32.955,33.5L170.1,50.574l34.807,35.38L237.533,52.79l5.1,5.186Z" transform="translate(0 56.881)" fill="#add3fd"/>
          <path id="Trazado_818454" data-name="Trazado 818454" d="M204.908,113.121,170.1,77.741,137.332,111.05l-32.955-33.5-34.436,35L35.875,77.93,5.1,109.212,0,104.026,35.875,67.559l34.065,34.626,34.436-35,32.955,33.5L170.1,67.371l34.807,35.38,32.625-33.164,5.1,5.186Z" transform="translate(0 75.842)" fill="#add3fd"/>
          <path id="Trazado_818455" data-name="Trazado 818455" d="M204.908,129.916,170.1,94.538l-32.769,33.309-32.955-33.5-34.436,35L35.875,94.726,5.1,126.008,0,120.82,35.875,84.354,69.941,118.98l34.436-35,32.955,33.5L170.1,84.166l34.807,35.378,32.625-33.162,5.1,5.186Z" transform="translate(0 94.801)" fill="#add3fd"/>
        </g>
        <rect id="Rectángulo_383419" data-name="Rectángulo 383419" width="247.736" height="150.154" rx="14" transform="translate(0 100.705)" fill="#273a89"/>
        <g id="Enmascarar_grupo_192" data-name="Enmascarar grupo 192" transform="translate(0.239 95.293)" clip-path="url(#clip-path)">
          <g id="Grupo_1074624" data-name="Grupo 1074624" transform="translate(-164.703 -53.761)">
            <path id="Trazado_827892" data-name="Trazado 827892" d="M74.118-21.241q0,14.485-7.739,23.3T44.765,10.866a27.378,27.378,0,0,1-10.528-1.9,21.29,21.29,0,0,1-7.878-5.583V34.705H6.07V-55.7H24.407l1.185,7.725a23.106,23.106,0,0,1,8.053-6.609,24.519,24.519,0,0,1,10.981-2.324q14.014,0,21.753,9.475t7.739,24.925ZM53.759-22.509q0-9.234-3.556-14.967T39.327-43.209a17.31,17.31,0,0,0-7.844,1.63,12.567,12.567,0,0,0-5.124,4.647V-8.326A11.907,11.907,0,0,0,31.483-4.1a19.548,19.548,0,0,0,7.983,1.448q7.39,0,10.842-5.009t3.451-13.579Zm72.579-18.045-7.46-.181a15.221,15.221,0,0,0-7.46,1.63,10.875,10.875,0,0,0-4.462,4.587V9.6H86.667V-55.7h18.894l.906,9.656a21.161,21.161,0,0,1,6.867-8,16.888,16.888,0,0,1,9.726-2.867,17.517,17.517,0,0,1,2.824.211q1.29.211,2.615.513ZM183.16-.058a23.938,23.938,0,0,1-8.854,8.087,26.33,26.33,0,0,1-12.48,2.837q-11.922,0-18.65-7t-6.728-21.727V-55.7h20.289v37.962q0,8.57,2.684,11.739t8.332,3.168a23.06,23.06,0,0,0,8.366-1.358,13.9,13.9,0,0,0,5.717-4.013V-55.7h20.358V9.6H185.322Zm67.071,10.924q-16.872,0-26.354-8.962T214.4-21.181v-2.414q0-14.666,9.2-24.02t25.309-9.294q15.2,0,23.322,8.057t8.122,21.7v9.113h-44.97l-.209.362a16.354,16.354,0,0,0,4.706,10.863q4.218,4.164,12.515,4.164A48.042,48.042,0,0,0,264-3.86a51.513,51.513,0,0,0,9.865-3.681l5.508,10.863A40.228,40.228,0,0,1,267.1,8.693,62.25,62.25,0,0,1,250.231,10.866Zm-1.325-54.2q-6.135,0-9.447,3.651a16.879,16.879,0,0,0-4.009,9.687l.139.3h24.821v-1.328q0-5.733-2.719-9.023T248.907-43.33ZM360.25-21.241q0,14.605-7.53,23.356t-21.753,8.751a25.891,25.891,0,0,1-11.539-2.414A22.644,22.644,0,0,1,311.1,1.391L309.424,9.6H292.2v-94.15h20.289v35.789a22.322,22.322,0,0,1,7.844-6.035,24.737,24.737,0,0,1,10.493-2.112q14.362,0,21.892,9.385t7.53,25.016Zm-20.289-1.267q0-9.536-3.242-15.118t-11.051-5.583a17.084,17.084,0,0,0-8.018,1.72,12.755,12.755,0,0,0-5.159,4.919V-8.929A12.2,12.2,0,0,0,317.686-4.4a18.886,18.886,0,0,0,8.122,1.569q7.878,0,11.016-4.8t3.137-13.609ZM417.282,9.6a33.89,33.89,0,0,1-1.917-4.707,28.89,28.89,0,0,1-1.15-5.07,25.825,25.825,0,0,1-8.3,7.906,23.159,23.159,0,0,1-12.271,3.138q-11.852,0-18.267-5.281T368.965-8.809q0-9.6,8.541-14.877t24.925-5.281h11.434v-5.19a9.361,9.361,0,0,0-2.859-7.3q-2.859-2.6-8.506-2.6-4.95,0-7.634,2.082a6.825,6.825,0,0,0-2.684,5.7H372.591l-.139-.362q-.488-8.268,8.332-14.273t23.043-6.005q13.6,0,22,5.915t8.4,16.959V-7.058a44.342,44.342,0,0,0,.8,8.63A38.838,38.838,0,0,0,437.57,9.6ZM398.666-2.17a19.4,19.4,0,0,0,9.482-2.293,13.23,13.23,0,0,0,5.717-5.311v-9.234H402.431q-6.484,0-9.8,2.776a8.574,8.574,0,0,0-3.312,6.82A6.387,6.387,0,0,0,391.8-4.131,10.79,10.79,0,0,0,398.666-2.17Z" transform="translate(-6.07 84.551)" fill="none" stroke="#fff" stroke-width="1"/>
            <path id="Trazado_827890" data-name="Trazado 827890" d="M63.434-18.179q0,12.4-6.623,19.938T38.313,9.3A23.432,23.432,0,0,1,29.3,7.673,18.221,18.221,0,0,1,22.56,2.895V29.7H5.2V-47.673H20.889L21.9-41.062A19.776,19.776,0,0,1,28.8-46.718a20.984,20.984,0,0,1,9.4-1.989q11.994,0,18.617,8.109t6.623,21.333ZM46.01-19.264q0-7.9-3.043-12.81t-9.309-4.907a14.815,14.815,0,0,0-6.713,1.395,10.755,10.755,0,0,0-4.386,3.977V-7.126A10.19,10.19,0,0,0,26.945-3.51a16.73,16.73,0,0,0,6.832,1.24q6.325,0,9.279-4.287T46.01-18.179Zm62.117-15.444-6.385-.155a13.028,13.028,0,0,0-6.385,1.395,9.307,9.307,0,0,0-3.819,3.926V8.215H74.175V-47.673H90.345l.776,8.264A18.111,18.111,0,0,1,97-46.253a14.454,14.454,0,0,1,8.324-2.454,14.993,14.993,0,0,1,2.417.181q1.1.181,2.238.439ZM156.759-.049a20.487,20.487,0,0,1-7.578,6.921A22.535,22.535,0,0,1,138.5,9.3q-10.2,0-15.962-5.992t-5.758-18.6V-47.673h17.364v32.49q0,7.335,2.3,10.046t7.131,2.712a19.736,19.736,0,0,0,7.16-1.162,11.9,11.9,0,0,0,4.893-3.435V-47.673h17.424V8.215h-14.44Zm57.4,9.349q-14.44,0-22.556-7.67t-8.115-19.757v-2.066q0-12.552,7.877-20.558t21.66-7.955q13.008,0,19.96,6.9t6.952,18.569v7.8H201.452l-.179.31a14,14,0,0,0,4.028,9.3q3.61,3.564,10.711,3.564A41.118,41.118,0,0,0,225.947-3.3a44.089,44.089,0,0,0,8.443-3.151l4.714,9.3a34.429,34.429,0,0,1-10.5,4.6A53.277,53.277,0,0,1,214.162,9.3Zm-1.134-46.384q-5.251,0-8.085,3.125a14.445,14.445,0,0,0-3.431,8.29l.119.258h21.243v-1.136a11.765,11.765,0,0,0-2.327-7.722Q218.22-37.084,213.028-37.084Zm95.294,18.9q0,12.5-6.444,19.99T283.261,9.3a22.159,22.159,0,0,1-9.875-2.066,19.38,19.38,0,0,1-7.131-6.043l-1.432,7.025H250.084V-72.363h17.364v30.63a19.1,19.1,0,0,1,6.713-5.165,21.172,21.172,0,0,1,8.98-1.808q12.292,0,18.737,8.032t6.444,21.41Zm-17.364-1.085q0-8.161-2.775-12.939t-9.458-4.778a14.621,14.621,0,0,0-6.862,1.472,10.916,10.916,0,0,0-4.416,4.21V-7.642a10.442,10.442,0,0,0,4.445,3.874,16.163,16.163,0,0,0,6.952,1.343q6.743,0,9.428-4.106t2.685-11.648ZM357.133,8.215a29,29,0,0,1-1.641-4.029,24.728,24.728,0,0,1-.985-4.339,22.1,22.1,0,0,1-7.1,6.767A19.82,19.82,0,0,1,336.9,9.3q-10.144,0-15.634-4.52t-5.49-12.319q0-8.213,7.31-12.732t21.332-4.52h9.786v-4.442a8.011,8.011,0,0,0-2.447-6.25q-2.447-2.221-7.28-2.221a10.461,10.461,0,0,0-6.534,1.782,5.841,5.841,0,0,0-2.3,4.881H318.884l-.119-.31q-.418-7.076,7.131-12.216t19.721-5.139q11.636,0,18.826,5.062t7.19,14.514V-6.041a37.949,37.949,0,0,0,.686,7.386,33.24,33.24,0,0,0,2.178,6.87ZM341.2-1.857a16.6,16.6,0,0,0,8.115-1.963,11.323,11.323,0,0,0,4.893-4.545v-7.9h-9.786q-5.549,0-8.384,2.376a7.338,7.338,0,0,0-2.834,5.837,5.466,5.466,0,0,0,2.118,4.52A9.234,9.234,0,0,0,341.2-1.857Z" transform="translate(173.128 159.984)" fill="none" stroke="#fff" stroke-width="1"/>
            <path id="Trazado_827891" data-name="Trazado 827891" d="M61.431-17.605Q61.431-5.6,55.016,1.7T37.1,9.006a22.691,22.691,0,0,1-8.726-1.576A17.646,17.646,0,0,1,21.847,2.8V28.765H5.031V-46.168h15.2l.982,6.4a19.151,19.151,0,0,1,6.674-5.477,20.322,20.322,0,0,1,9.1-1.926q11.615,0,18.029,7.853t6.414,20.659Zm-16.874-1.05q0-7.653-2.947-12.405T32.6-35.813a14.347,14.347,0,0,0-6.5,1.351,10.415,10.415,0,0,0-4.247,3.852V-6.9a9.868,9.868,0,0,0,4.247,3.5,16.2,16.2,0,0,0,6.617,1.2q6.125,0,8.986-4.152t2.86-11.255Zm60.156-14.956-6.183-.15a12.616,12.616,0,0,0-6.183,1.351,9.013,9.013,0,0,0-3.7,3.8V7.956H71.832V-46.168h15.66l.751,8a17.538,17.538,0,0,1,5.692-6.628A14,14,0,0,1,102-47.168a14.519,14.519,0,0,1,2.34.175q1.069.175,2.167.425Zm47.1,33.565a19.841,19.841,0,0,1-7.339,6.7,21.823,21.823,0,0,1-10.344,2.351q-9.881,0-15.458-5.8T113.092-14.8V-46.168h16.816V-14.7q0,7.1,2.225,9.729t6.905,2.626a19.113,19.113,0,0,0,6.934-1.125A11.52,11.52,0,0,0,150.711-6.8V-46.168h16.874V7.956H153.6ZM207.4,9.006q-13.984,0-21.843-7.428T177.7-17.555v-2q0-12.155,7.628-19.909t20.976-7.7q12.6,0,19.329,6.678t6.732,17.983v7.553H195.091l-.173.3a13.554,13.554,0,0,0,3.9,9Q202.314-2.2,209.19-2.2a39.819,39.819,0,0,0,9.621-1,42.7,42.7,0,0,0,8.177-3.051l4.565,9a33.342,33.342,0,0,1-10.17,4.452A51.6,51.6,0,0,1,207.4,9.006Zm-1.1-44.919q-5.085,0-7.83,3.026a13.989,13.989,0,0,0-3.323,8.028l.116.25h20.572v-1.1a11.394,11.394,0,0,0-2.254-7.478Q211.329-35.913,206.3-35.913Zm92.285,18.308q0,12.105-6.241,19.358T274.316,9.006a21.459,21.459,0,0,1-9.564-2,18.768,18.768,0,0,1-6.905-5.853l-1.387,6.8H242.186V-70.078H259v29.663a18.5,18.5,0,0,1,6.5-5,20.5,20.5,0,0,1,8.7-1.751q11.9,0,18.145,7.778t6.241,20.734Zm-16.816-1.05q0-7.9-2.687-12.53t-9.159-4.627a14.159,14.159,0,0,0-6.645,1.426A10.571,10.571,0,0,0,259-30.311V-7.4a10.112,10.112,0,0,0,4.305,3.752,15.653,15.653,0,0,0,6.732,1.3q6.53,0,9.13-3.977t2.6-11.28ZM345.855,7.956a28.091,28.091,0,0,1-1.589-3.9,23.946,23.946,0,0,1-.953-4.2,21.4,21.4,0,0,1-6.877,6.553,19.194,19.194,0,0,1-10.17,2.6q-9.824,0-15.14-4.377T305.809-7.3q0-7.953,7.079-12.33t20.659-4.377h9.477v-4.3a7.758,7.758,0,0,0-2.369-6.053q-2.369-2.151-7.05-2.151a10.131,10.131,0,0,0-6.328,1.726,5.657,5.657,0,0,0-2.225,4.727H308.814l-.116-.3q-.4-6.853,6.905-11.83t19.1-4.977q11.268,0,18.232,4.9T359.9-28.21V-5.85a36.75,36.75,0,0,0,.665,7.153,32.189,32.189,0,0,0,2.109,6.653ZM330.426-1.8a16.077,16.077,0,0,0,7.859-1.9,10.965,10.965,0,0,0,4.738-4.4v-7.653h-9.477q-5.374,0-8.119,2.3A7.106,7.106,0,0,0,322.683-7.8a5.294,5.294,0,0,0,2.051,4.377A8.943,8.943,0,0,0,330.426-1.8Z" transform="translate(90.753 249.325)" fill="none" stroke="#fff" stroke-width="1"/>
          </g>
        </g>
      </g>
    </g>
    <g id="Grupo_1074874" data-name="Grupo 1074874" transform="translate(-4881.963 -4760)">
      <g id="Grupo_1074873" data-name="Grupo 1074873" clip-path="url(#clip-path-2)">
        <rect id="Rectángulo_383999" data-name="Rectángulo 383999" width="155.188" height="103.488" transform="translate(0.181 0.181)" fill="#fafafa"/>
        <rect id="Rectángulo_384000" data-name="Rectángulo 384000" width="25.531" height="10.242" transform="translate(28.982 37.208)" fill="#1682fb"/>
        <rect id="Rectángulo_384001" data-name="Rectángulo 384001" width="25.531" height="10.242" transform="translate(105.576 37.208)" fill="#1682fb"/>
        <rect id="Rectángulo_384002" data-name="Rectángulo 384002" width="25.531" height="10.242" transform="translate(105.576 57.55)" fill="#1682fb"/>
        <rect id="Rectángulo_384003" data-name="Rectángulo 384003" width="25.531" height="10.242" transform="translate(105.576 67.721)" fill="#1682fb"/>
        <rect id="Rectángulo_384004" data-name="Rectángulo 384004" width="25.531" height="10.242" transform="translate(54.513 57.734)" fill="#455a64"/>
        <rect id="Rectángulo_384005" data-name="Rectángulo 384005" width="25.531" height="10.242" transform="translate(80.003 68.1)" fill="#455a64"/>
        <rect id="Rectángulo_384006" data-name="Rectángulo 384006" width="25.531" height="10.656" transform="translate(54.513 88.418)" fill="#ebebeb"/>
        <rect id="Rectángulo_384007" data-name="Rectángulo 384007" width="25.531" height="10.242" transform="translate(105.576 88.56)" fill="#1682fb"/>
        <rect id="Rectángulo_384008" data-name="Rectángulo 384008" width="137.853" height="10.009" transform="translate(12.803 27.199)" fill="#e0e0e0"/>
        <rect id="Rectángulo_384009" data-name="Rectángulo 384009" width="24.168" height="72.09" transform="translate(4.813 27.199)" fill="#e0e0e0"/>
        <path id="Trazado_828589" data-name="Trazado 828589" d="M32.912,121.178H8.047V48.392H32.912Zm-24.169-.7H32.215V49.088H8.743Z" transform="translate(-3.582 -21.542)" fill="#e0e0e0"/>
        <rect id="Rectángulo_384010" data-name="Rectángulo 384010" width="155.188" height="11.74" transform="translate(0.181 0.181)" fill="#1682fb"/>
        <rect id="Rectángulo_384011" data-name="Rectángulo 384011" width="23.894" height="6.719" transform="translate(5.087 16.201)" fill="#ebebeb"/>
        <rect id="Rectángulo_384012" data-name="Rectángulo 384012" width="23.042" height="6.719" transform="translate(31.779 16.201)" fill="#ebebeb"/>
        <rect id="Rectángulo_384013" data-name="Rectángulo 384013" width="23.042" height="6.719" transform="translate(57.05 16.201)" fill="#ebebeb"/>
        <rect id="Rectángulo_384014" data-name="Rectángulo 384014" width="23.042" height="6.719" transform="translate(82.322 16.201)" fill="#ebebeb"/>
        <rect id="Rectángulo_384015" data-name="Rectángulo 384015" width="23.042" height="6.719" transform="translate(107.594 16.201)" fill="#ebebeb"/>
        <rect id="Rectángulo_384016" data-name="Rectángulo 384016" width="18.94" height="6.719" transform="translate(132.866 16.201)" fill="#ebebeb"/>
        <g id="Grupo_1074872" data-name="Grupo 1074872">
          <g id="Grupo_1074871" data-name="Grupo 1074871" clip-path="url(#clip-path-2)">
            <path id="Trazado_828590" data-name="Trazado 828590" d="M8.566,120.75s.244-.007.713-.011l2.083-.01,8.062-.022,30.208-.047,104.776-.082-.171.171c0-22.229-.007-46.543-.01-71.865v-.011l.181.181L8.566,49.009l.134-.134C8.67,71.027,8.646,88.98,8.628,101.4c-.014,6.215-.026,11.046-.033,14.328-.007,1.638-.012,2.89-.015,3.737s-.014,1.283-.014,1.283-.009-.421-.014-1.256-.008-2.085-.015-3.713c-.008-3.276-.019-8.1-.033-14.3-.017-12.44-.042-30.421-.072-52.609V48.74h.134l145.842-.047h.181v.192c0,25.322-.007,49.636-.01,71.865v.171h-.171l-104.891-.082-30.169-.047-8.027-.021-2.063-.011c-.462,0-.692-.011-.692-.011" transform="translate(-3.754 -21.676)" fill="#263238"/>
            <path id="Trazado_828591" data-name="Trazado 828591" d="M155.011,66.914c0,.1-32.651.181-72.918.181s-72.925-.082-72.925-.181,32.644-.181,72.925-.181,72.918.082,72.918.181" transform="translate(-4.082 -29.706)" fill="#263238"/>
            <path id="Trazado_828592" data-name="Trazado 828592" d="M155.011,85.372c0,.1-32.651.181-72.918.181s-72.925-.081-72.925-.181,32.644-.181,72.925-.181,72.918.082,72.918.181" transform="translate(-4.082 -37.923)" fill="#263238"/>
            <path id="Trazado_828593" data-name="Trazado 828593" d="M155.011,103.831c0,.1-32.651.181-72.918.181s-72.925-.082-72.925-.181,32.644-.181,72.925-.181,72.918.082,72.918.181" transform="translate(-4.082 -46.14)" fill="#263238"/>
            <path id="Trazado_828594" data-name="Trazado 828594" d="M155.011,122.29c0,.1-32.651.181-72.918.181s-72.925-.082-72.925-.181,32.644-.181,72.925-.181,72.918.082,72.918.181" transform="translate(-4.082 -54.357)" fill="#263238"/>
            <path id="Trazado_828595" data-name="Trazado 828595" d="M155.011,140.749c0,.1-32.651.181-72.918.181s-72.925-.082-72.925-.181,32.644-.181,72.925-.181,72.918.082,72.918.181" transform="translate(-4.082 -62.574)" fill="#263238"/>
            <path id="Trazado_828596" data-name="Trazado 828596" d="M155.011,159.208c0,.1-32.651.181-72.918.181s-72.925-.082-72.925-.181,32.644-.181,72.925-.181,72.918.082,72.918.181" transform="translate(-4.082 -70.791)" fill="#263238"/>
            <path id="Trazado_828597" data-name="Trazado 828597" d="M52.087,121.433c-.1,0-.181-16.049-.181-35.842s.081-35.846.181-35.846.181,16.046.181,35.846-.081,35.842-.181,35.842" transform="translate(-23.106 -22.144)" fill="#263238"/>
            <path id="Trazado_828598" data-name="Trazado 828598" d="M98.1,121.218c-.1,0-.181-16-.181-35.735S98,49.746,98.1,49.746s.181,16,.181,35.738-.082,35.735-.181,35.735" transform="translate(-43.589 -22.144)" fill="#263238"/>
            <path id="Trazado_828599" data-name="Trazado 828599" d="M144.117,121.433c-.1,0-.181-16.049-.181-35.842s.082-35.846.181-35.846.181,16.046.181,35.846-.082,35.842-.181,35.842" transform="translate(-64.073 -22.144)" fill="#263238"/>
            <path id="Trazado_828600" data-name="Trazado 828600" d="M190.132,121.433c-.1,0-.181-16.049-.181-35.842s.081-35.846.181-35.846.181,16.046.181,35.846-.082,35.842-.181,35.842" transform="translate(-84.557 -22.144)" fill="#263238"/>
            <path id="Trazado_828601" data-name="Trazado 828601" d="M236.148,121.433c-.1,0-.181-16.049-.181-35.842s.082-35.846.181-35.846.181,16.046.181,35.846-.082,35.842-.181,35.842" transform="translate(-105.041 -22.144)" fill="#263238"/>
            <path id="Trazado_828602" data-name="Trazado 828602" d="M14.3,9.684a1.481,1.481,0,1,1-1.48-1.524A1.5,1.5,0,0,1,14.3,9.684" transform="translate(-5.049 -3.632)" fill="#fff"/>
            <path id="Trazado_828603" data-name="Trazado 828603" d="M23.368,9.684a1.481,1.481,0,1,1-1.48-1.524,1.5,1.5,0,0,1,1.48,1.524" transform="translate(-9.084 -3.632)" fill="#fff"/>
            <path id="Trazado_828604" data-name="Trazado 828604" d="M32.432,9.684a1.481,1.481,0,1,1-1.48-1.524,1.5,1.5,0,0,1,1.48,1.524" transform="translate(-13.119 -3.632)" fill="#fff"/>
            <path id="Trazado_828605" data-name="Trazado 828605" d="M155.37,103.67c0-1.181-.057-40.442-.145-103.488l.145.144L.194.362H.181L.363.181C.357,37.037.352,72.089.347,103.67L.181,103.5l111.825.082,31.936.044,8.49.021,2.189.009c.492,0,.748.01.748.01s-.242.007-.729.01l-2.171.009-8.456.02-31.9.045L.181,103.836H.016v-.166C.011,72.089.006,37.037,0,.181V0H.194L155.37.037h.145V.181c-.088,63.047-.143,102.308-.145,103.488" fill="#263238"/>
            <path id="Trazado_828606" data-name="Trazado 828606" d="M168.487,244.183l-6.417,7.972-26.759,7.45,4,43.224c1.233,16.942,2.967,21.1,4.161,32.36v9.184h76.006l10.611-87.747-26.21-6.027-5.638-6.417Z" transform="translate(-60.234 -108.698)" fill="#1682fb"/>
            <path id="Trazado_828607" data-name="Trazado 828607" d="M193.058,266.828l3.274,43.286,3.5,21.972,25.7-71.708L204.8,284.945Z" transform="translate(-85.94 -115.907)" fill="#fff"/>
            <path id="Trazado_828608" data-name="Trazado 828608" d="M204.6,333.115a1.39,1.39,0,0,1,.1-.21l.321-.6,1.261-2.3,4.684-8.45,15.55-27.824,8.476-15.1.031.167-3.689-3.117-.136-.115.153-.09,5.257-3.1-.054.109c-.574-5.118-1.043-9.3-1.37-12.212-.154-1.439-.275-2.566-.358-3.348-.037-.373-.065-.664-.086-.874s-.018-.3-.018-.3.023.1.051.3.068.5.118.871c.1.781.239,1.9.419,3.341.351,2.912.853,7.087,1.468,12.2l.009.072-.063.037-5.243,3.123.017-.2,3.7,3.1.084.071-.054.1-8.458,15.109-15.623,27.782-4.765,8.4-1.308,2.278-.347.589a1.382,1.382,0,0,1-.127.2" transform="translate(-91.076 -113.846)" fill="#263238"/>
            <path id="Trazado_828609" data-name="Trazado 828609" d="M191.7,334.363a1.145,1.145,0,0,1-.074-.2c-.047-.149-.109-.35-.189-.6-.164-.549-.4-1.332-.7-2.333-.6-2.045-1.455-4.976-2.513-8.592-1.042-3.636-2.334-7.938-3.663-12.767-1.238-4.847-2.419-10.214-3.669-15.844-1.695-7.723-3.227-14.954-4.5-21.075l-.022-.107.1-.035,3.5-1.225-.016.21-4.262-2.259-.079-.042.033-.083,3.171-7.964.871-2.148c.1-.233.175-.417.232-.554a1.114,1.114,0,0,1,.088-.185,1.121,1.121,0,0,1-.061.2c-.052.14-.12.327-.206.565l-.822,2.167-3.087,8-.047-.125,4.276,2.233.234.122-.249.088-3.495,1.241.079-.142c1.3,6.114,2.845,13.342,4.539,21.064,1.249,5.629,2.423,11,3.644,15.84,1.308,4.811,2.586,9.137,3.6,12.776s1.848,6.568,2.425,8.619l.646,2.348c.068.258.121.461.16.612a1.164,1.164,0,0,1,.045.211" transform="translate(-78.176 -115.094)" fill="#263238"/>
            <path id="Trazado_828610" data-name="Trazado 828610" d="M97.659,271.978s-5.886,2.864-10.032,16.057c-3.013,9.586-15.266,42.595-15.266,42.595l-13.57-3.958s-9.989,12.439-7.727,16.774,18.793,13.3,18.793,13.3H89.215a15.9,15.9,0,0,0,5.534-8.066l11.069-37.275Z" transform="translate(-22.583 -121.071)" fill="#1682fb"/>
            <path id="Trazado_828611" data-name="Trazado 828611" d="M297.087,266.611a23.847,23.847,0,0,1,8.52,8.751c3.381,6.01,30.36,49.919,32.6,60.331,3.339,15.55-3.332,18.649-3.332,18.649h-9.324l-23.076-.13-2.912-18.06,10.259-2.189L290.8,312.876l-1.26,2.15-3.719-30.1Z" transform="translate(-127.235 -118.682)" fill="#1682fb"/>
            <path id="Trazado_828612" data-name="Trazado 828612" d="M139.714,304.655c.079-.007.767,7.461,1.535,16.676s1.327,16.695,1.248,16.7-.767-7.459-1.536-16.678-1.327-16.693-1.247-16.7" transform="translate(-62.19 -135.617)" fill="#263238"/>
            <path id="Trazado_828613" data-name="Trazado 828613" d="M299.63,289.6c.079.009-.984,9.326-2.374,20.807s-2.582,20.784-2.661,20.774.983-9.324,2.374-20.809,2.581-20.782,2.661-20.772" transform="translate(-131.137 -128.913)" fill="#263238"/>
            <path id="Trazado_828614" data-name="Trazado 828614" d="M315.339,407.409c-.007-.007.09-.115.261-.331a12,12,0,0,0,.692-.987,16.144,16.144,0,0,0,1.787-4.039,19.7,19.7,0,0,0,.643-2.987,14.017,14.017,0,0,0,.151-3.482,8.22,8.22,0,0,0-1.286-3.575,9.7,9.7,0,0,0-2.925-2.862c-.083-.052-.171-.1-.247-.145l-.308-.169.335-.1a72.539,72.539,0,0,1,14.252-2.66c1.847-.158,3.344-.227,4.378-.26.517-.018.919-.021,1.191-.024a2.379,2.379,0,0,1,.416.012,2.232,2.232,0,0,1-.414.045l-1.187.078c-1.031.067-2.525.168-4.365.351a77.37,77.37,0,0,0-14.191,2.735l.026-.267c.089.049.176.1.265.155a9.922,9.922,0,0,1,3.011,2.954,8.439,8.439,0,0,1,1.313,3.7,14.042,14.042,0,0,1-.178,3.547,19.371,19.371,0,0,1-.685,3.012,15.328,15.328,0,0,1-1.888,4.042,9.152,9.152,0,0,1-.742.963,1.6,1.6,0,0,1-.306.294" transform="translate(-139.825 -171.733)" fill="#263238"/>
            <path id="Trazado_828615" data-name="Trazado 828615" d="M204.6,411.432c-.08,0-.144-3.718-.144-8.3s.064-8.3.144-8.3.144,3.717.144,8.3-.064,8.3-.144,8.3" transform="translate(-91.014 -175.756)" fill="#263238"/>
            <path id="Trazado_828616" data-name="Trazado 828616" d="M264.2,353.735a3.926,3.926,0,0,1-.017-.394c-.006-.272-.012-.641-.021-1.109-.011-.978-.027-2.37-.047-4.121l.085.085-22.994.059c.064-.064-.145.144.143-.144v1.435q0,.713,0,1.418,0,1.407,0,2.771l-.142-.141,16.367.064,4.847.04,1.313.019.345.009a.708.708,0,0,1,.123.009,3.668,3.668,0,0,1-.432.018l-1.283.019-4.814.041-16.466.064h-.141v-.142q0-1.362,0-2.771,0-.7,0-1.418v-1.435c.289-.289.081-.08.146-.144l22.994.059h.087v.085c-.02,1.773-.036,3.182-.047,4.172-.009.459-.016.821-.021,1.089a2.841,2.841,0,0,1-.017.362" transform="translate(-107.307 -154.891)" fill="#263238"/>
            <path id="Trazado_828617" data-name="Trazado 828617" d="M137.24,288.649c-.078.017-.832-3.191-1.684-7.164s-1.479-7.209-1.4-7.225.832,3.19,1.684,7.164,1.479,7.208,1.4,7.225" transform="translate(-59.716 -122.087)" fill="#263238"/>
            <g id="Grupo_1074867" data-name="Grupo 1074867" transform="translate(114.795 158.623)" opacity="0.3">
              <g id="Grupo_1074866" data-name="Grupo 1074866">
                <g id="Grupo_1074865" data-name="Grupo 1074865" clip-path="url(#clip-path-4)">
                  <path id="Trazado_828618" data-name="Trazado 828618" d="M206.894,344.258l32.821-50.339-4.736-4.576,2.707-3.457L232.435,289l3.694,3.111Z" transform="translate(-206.894 -285.885)"/>
                </g>
              </g>
            </g>
            <g id="Grupo_1074870" data-name="Grupo 1074870" transform="translate(33.72 218.684)" opacity="0.3">
              <g id="Grupo_1074869" data-name="Grupo 1074869">
                <g id="Grupo_1074868" data-name="Grupo 1074868" clip-path="url(#clip-path-5)">
                  <path id="Trazado_828619" data-name="Trazado 828619" d="M60.774,394.131v2.8l37.252.118v-2.914Z" transform="translate(-60.774 -394.131)"/>
                </g>
              </g>
            </g>
            <path id="Trazado_828620" data-name="Trazado 828620" d="M142.444,169.389a5.519,5.519,0,0,0,5.186-2.316,6.572,6.572,0,0,1-3.984-.22c-1.205-.615-1.888-2.39-.943-3.359.738-.756,1.953-.625,3.007-.7a6.5,6.5,0,0,0,5.53-4.245c.892-2.562.077-5.355-.244-8.049a22.168,22.168,0,0,1,9.28-20.46l16.871-9.753c6.119,7.831,8.026,18.386,6.758,28.242s-5.45,19.122-10.476,27.7a32.9,32.9,0,0,1-5.091,7,13.036,13.036,0,0,1-7.582,3.89,7.818,7.818,0,0,1,1.249-7.06,17.028,17.028,0,0,1-12.547-4.494l3.616-2.773a13.206,13.206,0,0,1-10.629-3.4" transform="translate(-63.327 -53.545)" fill="#263238"/>
            <path id="Trazado_828621" data-name="Trazado 828621" d="M219.331,142.315a15.809,15.809,0,0,0-11.473-14.891l-21.15-6.043c-9.179-1.258-15.651,9.894-16.518,19.118-.963,10.248-1.685,21.071-.7,28.77,1.972,15.481,13.72,17.8,13.72,17.8,0-.023-.392,13.952-.513,18.452l10.759,22.495L214.3,199.246l5.08-56.743c.013-.264-.034.163-.049-.189" transform="translate(-75.239 -53.989)" fill="#af7e69"/>
            <path id="Trazado_828622" data-name="Trazado 828622" d="M178.453,177.537a1.976,1.976,0,0,0,1.844,2.052,1.891,1.891,0,0,0,2.091-1.719,1.978,1.978,0,0,0-1.842-2.053,1.892,1.892,0,0,0-2.093,1.719" transform="translate(-79.436 -78.262)" fill="#263238"/>
            <path id="Trazado_828623" data-name="Trazado 828623" d="M174.965,165.339c.237.265,1.768-.8,3.894-.725,2.125.04,3.651,1.182,3.89.929.117-.112-.119-.585-.783-1.1a5.426,5.426,0,0,0-3.1-1.062,5.2,5.2,0,0,0-3.109.9c-.67.482-.906.94-.788,1.06" transform="translate(-77.873 -72.728)" fill="#263238"/>
            <path id="Trazado_828624" data-name="Trazado 828624" d="M210.854,177.539a1.977,1.977,0,0,0,1.844,2.052,1.891,1.891,0,0,0,2.091-1.718,1.978,1.978,0,0,0-1.842-2.053,1.892,1.892,0,0,0-2.093,1.72" transform="translate(-93.86 -78.262)" fill="#263238"/>
            <path id="Trazado_828625" data-name="Trazado 828625" d="M211.357,166.378c.238.265,1.771-.8,3.9-.725,2.124.041,3.651,1.182,3.89.929.117-.112-.116-.584-.783-1.1a5.425,5.425,0,0,0-3.1-1.063,5.214,5.214,0,0,0-3.109.9c-.667.481-.9.941-.788,1.06" transform="translate(-94.073 -73.19)" fill="#263238"/>
            <path id="Trazado_828626" data-name="Trazado 828626" d="M194.233,183.517a14.128,14.128,0,0,0-3.434-.729c-.541-.073-1.051-.2-1.132-.569a2.763,2.763,0,0,1,.412-1.6q.826-1.947,1.732-4.084c2.41-5.817,4.174-10.608,3.939-10.7s-2.38,4.543-4.791,10.36q-.872,2.151-1.666,4.111a3.14,3.14,0,0,0-.347,2.122,1.361,1.361,0,0,0,.868.821,3.685,3.685,0,0,0,.918.156,13.818,13.818,0,0,0,3.5.112" transform="translate(-84.072 -73.82)" fill="#263238"/>
            <path id="Trazado_828627" data-name="Trazado 828627" d="M215.1,231.026s-5.316,10.439-20.69,8.523l.1-3.624a38.826,38.826,0,0,0,20.591-4.9" transform="translate(-86.542 -102.841)" fill="#7c5142"/>
            <path id="Trazado_828628" data-name="Trazado 828628" d="M212.971,154.41c.191.584,2.323.376,4.808.753,2.493.328,4.482,1.12,4.828.611.156-.244-.178-.8-.974-1.383a8.462,8.462,0,0,0-7.342-1.04c-.927.341-1.4.781-1.32,1.059" transform="translate(-94.8 -68.08)" fill="#263238"/>
            <path id="Trazado_828629" data-name="Trazado 828629" d="M176.534,153.549c.359.494,1.839.038,3.6.069,1.763-.032,3.243.424,3.6-.07.158-.241-.062-.731-.7-1.209a5.213,5.213,0,0,0-5.8,0c-.638.477-.857.968-.7,1.209" transform="translate(-78.562 -67.421)" fill="#263238"/>
            <path id="Trazado_828630" data-name="Trazado 828630" d="M208.524,203.428a2.774,2.774,0,0,0-2.806-2.188,2.9,2.9,0,0,0-2.275,1.523,3.567,3.567,0,0,0-.206,2.771l.039.2a3.161,3.161,0,0,0,3.534.858,2.955,2.955,0,0,0,1.714-3.164" transform="translate(-90.388 -89.579)" fill="#7c5142"/>
            <path id="Trazado_828631" data-name="Trazado 828631" d="M200.674,204.618c.007-.323,2.153-.159,3.821-1.876s1.612-4.023,1.913-4.015c.137-.019.377.542.327,1.51a5.362,5.362,0,0,1-1.475,3.361,4.672,4.672,0,0,1-3.194,1.436c-.9.012-1.418-.27-1.393-.416" transform="translate(-89.33 -88.462)" fill="#263238"/>
            <path id="Trazado_828632" data-name="Trazado 828632" d="M205.9,107.878c-2.38-3.78-8-7.727-12.4-8.5-5.016-.877-8.039-.017-11.337,2.995,0,0-2.567,2.477-4.973,2.945s-4.417.071-7.287,1.539c-3.92,2.005-5.638,7.247-7.455,11.258-2.257,4.984-5.474,9.571-6.946,14.841s-.689,11.745,3.752,14.942c-.762-4.038-1.4-8.48.267-12.135a10.6,10.6,0,0,0,.269,4.374c.831-2.372,1.707-4.818,3.428-6.649,1.624-1.727,3.869-2.758,5.542-4.437,2.458-2.467,3.59-6.227,6.577-8.017,3.107-1.862,7.037-.933,10.66-.916a20.423,20.423,0,0,0,15.88-7.651l-.9-.076a25.285,25.285,0,0,0,4.924-4.516" transform="translate(-68.92 -44.095)" fill="#263238"/>
            <path id="Trazado_828633" data-name="Trazado 828633" d="M260,151.682c-1.383-4.531-3.811-8.679-5.33-13.167-1.48-4.37-2.091-9.041-4.055-13.216-2.643-5.617-7.583-12.892-15.281-12.491l-.525.462a16.452,16.452,0,0,0-7.758.926l-.118,6-1.475,1.3c.619,1.191,1.2,2.343,1.771,3.474a37.944,37.944,0,0,0,1.962,6.6,17.116,17.116,0,0,0,3.693,5.615c13.26,31.744,1.233,33.749,7.206,51.943l3.757-10.416a18.567,18.567,0,0,0,7.432-8.006l.663,3.3a19.138,19.138,0,0,0,5.18-11.823l1.723,3.167c2.727-3.873,2.538-9.141,1.155-13.672" transform="translate(-100.364 -50.209)" fill="#263238"/>
            <path id="Trazado_828634" data-name="Trazado 828634" d="M246.645,180.094c.206-.517,9.79-3.669,9.628,6.417-.158,9.8-9.986,7.589-10,7.307s.37-13.724.37-13.724" transform="translate(-109.629 -79.781)" fill="#af7e69"/>
            <path id="Trazado_828635" data-name="Trazado 828635" d="M251.844,192.751c.044-.03.169.123.454.26a1.7,1.7,0,0,0,1.276.051c1.042-.36,1.945-1.986,2.027-3.752a5.638,5.638,0,0,0-.431-2.453,1.972,1.972,0,0,0-1.259-1.334.868.868,0,0,0-1.016.448c-.137.271-.078.468-.13.484-.028.024-.208-.169-.12-.571a1.084,1.084,0,0,1,.4-.606,1.284,1.284,0,0,1,.948-.231,2.4,2.4,0,0,1,1.754,1.553,5.79,5.79,0,0,1,.539,2.743c-.1,1.973-1.147,3.8-2.571,4.184a1.831,1.831,0,0,1-1.556-.289c-.3-.248-.346-.468-.312-.486" transform="translate(-112.104 -82.368)" fill="#7c5142"/>
            <path id="Trazado_828636" data-name="Trazado 828636" d="M252.47,202.1a1.928,1.928,0,1,1-.462.132" transform="translate(-111.665 -89.957)" fill="#fff"/>
            <path id="Trazado_828637" data-name="Trazado 828637" d="M251.866,202.176a2.639,2.639,0,0,0-.918,1.291,1.66,1.66,0,0,0,.339,1.549,1.713,1.713,0,0,0,3.039-.873,1.662,1.662,0,0,0-.535-1.493,2.632,2.632,0,0,0-1.464-.605c-.005-.024.153-.1.463-.1a2,2,0,0,1,1.21.463,1.959,1.959,0,0,1,.735,1.789,2.1,2.1,0,0,1-3.764,1.081,1.962,1.962,0,0,1-.327-1.906,2.006,2.006,0,0,1,.78-1.034c.261-.166.434-.188.442-.165" transform="translate(-111.523 -89.897)" fill="#263238"/>
            <path id="Trazado_828638" data-name="Trazado 828638" d="M226.851,124.087c.195.077,1.1-3.244,3.83-6.325,2.686-3.122,5.854-4.467,5.751-4.65a5.468,5.468,0,0,0-2.066.828,15.886,15.886,0,0,0-6.973,7.988,5.462,5.462,0,0,0-.541,2.159" transform="translate(-100.974 -50.347)" fill="#455a64"/>
            <path id="Trazado_828639" data-name="Trazado 828639" d="M45.531,364.6,38.219,356s-5.131,0-7.7-2.437-7.312-4.746-5.388-9.108a4.925,4.925,0,0,1-.448-5.645l.063-.77s-5.773-2.437-4.105-5.388a3.934,3.934,0,0,1,4.875-1.668s-6.3-4.26-7.441-5.426c-3.038-3.119.228-5.221,3.608-3.352,5.59,3.09,24.487,11.986,25.769,18.4V343.4s5.259,6.442,5.259,6.827-.385,10.391-7.184,14.368" transform="translate(-7.511 -143.117)" fill="#af7e69"/>
            <path id="Trazado_828640" data-name="Trazado 828640" d="M1.9,281.848c-.231-.289,28.7,46.34,28.7,46.34l1.313,15.645H77.051l-4.188-17.81s-7.8-20.919-7.716-21.163c.172-.475-14.6-23.722-14.6-23.722Z" transform="translate(-0.844 -125.149)" fill="#fff"/>
            <path id="Trazado_828641" data-name="Trazado 828641" d="M1.9,281.753s.3-.015.884-.029l2.572-.053,9.8-.174,35.389-.57h.065l.035.055c3.867,6.1,8.12,12.78,12.526,20,.547.906,1.1,1.818,1.627,2.755.132.236.262.471.383.72a1.621,1.621,0,0,1,.087.205.236.236,0,0,1,.016.1c-.011.073,0,.047.007.052s.006,0,0,0l.014.047.119.38.533,1.534L68.223,313,73,325.879l0,.008,0,.009,3.961,16.835c.077.327.154.654.229.974l.042.178h-.183l-45.143-.012h-.122l-.01-.121q-.683-8.21-1.3-15.646l.018.054L9.69,294.508c-2.491-4.054-4.446-7.236-5.783-9.41L2.4,282.614l-.38-.64a1.455,1.455,0,0,1-.12-.221l28.8,46.275.016.025,0,.029q.628,7.426,1.323,15.645l-.132-.122,45.143-.012-.14.178c-.075-.321-.153-.648-.229-.974l-3.958-16.835,0,.017-4.768-12.884q-1.144-3.154-2.259-6.228l-.534-1.541-.123-.393-.015-.051a.553.553,0,0,1-.012-.1v-.049c-.1-.044.148.034.087.014a.205.205,0,0,0-.077-.012c-.038,0-.008.023-.017.019l-.007-.018a1.523,1.523,0,0,0-.071-.167c-.114-.235-.245-.47-.375-.7-.526-.932-1.075-1.844-1.62-2.749-4.4-7.219-8.64-13.909-12.5-20.012l.1.054-35.435.462-9.784.111-2.558.022c-.577,0-.87,0-.87,0" transform="translate(-0.845 -125.054)" fill="#263238"/>
            <path id="Trazado_828642" data-name="Trazado 828642" d="M76.831,325.414a2.087,2.087,0,0,1-.4.018l-1.155,0-4.246-.08c-3.585-.082-8.536-.217-14.006-.306s-10.424-.078-14.006.035c-1.791.048-3.24.123-4.24.179l-1.152.067a2.108,2.108,0,0,1-.4,0,2.078,2.078,0,0,1,.4-.062l1.149-.121c1-.092,2.448-.2,4.241-.271,3.585-.166,8.544-.2,14.018-.12s10.424.257,14.007.391l4.243.173,1.154.059a2.151,2.151,0,0,1,.4.041" transform="translate(-16.568 -144.544)" fill="#263238"/>
            <path id="Trazado_828643" data-name="Trazado 828643" d="M95.758,360.668c-.009.079-6.394-.618-14.259-1.557s-14.236-1.765-14.226-1.844,6.392.618,14.26,1.557,14.234,1.765,14.225,1.844" transform="translate(-29.947 -159.035)" fill="#263238"/>
            <path id="Trazado_828644" data-name="Trazado 828644" d="M43.644,363.633l8.446-.538a3.669,3.669,0,0,0,2.483-.792A2.254,2.254,0,0,0,54,359.169l-9.678-2.333" transform="translate(-19.428 -158.845)" fill="#af7e69"/>
            <path id="Trazado_828645" data-name="Trazado 828645" d="M44.317,356.833a4.328,4.328,0,0,1,.748.129l2.044.449,6.92,1.617.019,0,.016.009a2.009,2.009,0,0,1,.812.935,2.736,2.736,0,0,1,.25,1.233,1.758,1.758,0,0,1-.5,1.239,2.513,2.513,0,0,1-1.135.6,13.867,13.867,0,0,1-2.326.239l-3.912.218-2.639.122a6.266,6.266,0,0,1-.97.006,6.169,6.169,0,0,1,.963-.118l2.633-.214,3.909-.28a14.183,14.183,0,0,0,2.27-.247,2.235,2.235,0,0,0,1.007-.53,1.474,1.474,0,0,0,.409-1.042,2.173,2.173,0,0,0-.909-1.91l.034.014-6.9-1.713-2.024-.531a4.333,4.333,0,0,1-.725-.226" transform="translate(-19.428 -158.843)" fill="#7c5142"/>
            <path id="Trazado_828646" data-name="Trazado 828646" d="M44.7,351.374a41.6,41.6,0,0,1,7.5,2.115,1.664,1.664,0,0,1,1.109,1.935,1.343,1.343,0,0,1-.555,1.033,2.672,2.672,0,0,1-1.184.327,30.594,30.594,0,0,1-7.18-.436c-2.419-.335-5.772,0-7.173.74" transform="translate(-16.568 -156.414)" fill="#af7e69"/>
            <path id="Trazado_828647" data-name="Trazado 828647" d="M37.219,357.084a1.024,1.024,0,0,1,.239-.144,5.463,5.463,0,0,1,.744-.287,13.652,13.652,0,0,1,2.883-.5,18.041,18.041,0,0,1,2.023-.042,22.463,22.463,0,0,1,2.308.237,30.868,30.868,0,0,0,5.249.347,11.347,11.347,0,0,0,1.362-.125,1.28,1.28,0,0,0,.994-.625,1.726,1.726,0,0,0-.451-2.125,5.522,5.522,0,0,0-1.058-.458l-1.053-.377c-.682-.236-1.322-.441-1.91-.616-1.176-.351-2.142-.587-2.811-.744a9.225,9.225,0,0,1-1.038-.257.994.994,0,0,1,.277.022c.18.023.444.065.783.126.678.123,1.656.33,2.845.657.595.164,1.242.358,1.931.585l1.063.366a5.6,5.6,0,0,1,1.121.476,1.641,1.641,0,0,1,.714,1.109,2.355,2.355,0,0,1-.16,1.363,1.228,1.228,0,0,1-.509.54,2.287,2.287,0,0,1-.682.241,11.384,11.384,0,0,1-1.405.131,29.555,29.555,0,0,1-5.3-.372c-.809-.114-1.565-.233-2.283-.262a18.771,18.771,0,0,0-2,.007,15.377,15.377,0,0,0-2.866.4c-.664.167-1,.347-1.013.323" transform="translate(-16.568 -156.411)" fill="#7c5142"/>
            <path id="Trazado_828648" data-name="Trazado 828648" d="M32.392,338.759l6.659,3.714a6.776,6.776,0,0,1,2.656,2.146,2.33,2.33,0,0,1-.413,3.094,3.337,3.337,0,0,1-2.629.087,64.475,64.475,0,0,1-7.323-2.327" transform="translate(-13.952 -150.798)" fill="#af7e69"/>
            <path id="Trazado_828649" data-name="Trazado 828649" d="M31.342,345.473a6.882,6.882,0,0,1,.935.291c.6.2,1.46.493,2.535.823s2.362.7,3.8,1.063a4.111,4.111,0,0,0,2.222.125,1.545,1.545,0,0,0,.858-.7,2.127,2.127,0,0,0,.254-1.147,2.943,2.943,0,0,0-1.07-2.07,10.324,10.324,0,0,0-1.913-1.278l-3.442-1.955-2.308-1.34a6.339,6.339,0,0,1-.827-.525,6.227,6.227,0,0,1,.882.427l2.353,1.26,3.472,1.9a10.346,10.346,0,0,1,1.973,1.3,3.922,3.922,0,0,1,.809.988,2.889,2.889,0,0,1,.36,1.279,2.4,2.4,0,0,1-.294,1.3,1.826,1.826,0,0,1-1.016.825,4.307,4.307,0,0,1-2.379-.135c-1.444-.376-2.731-.768-3.8-1.126s-1.925-.68-2.511-.912c-.293-.118-.519-.212-.67-.28a.85.85,0,0,1-.226-.117" transform="translate(-13.952 -150.798)" fill="#7c5142"/>
            <path id="Trazado_828650" data-name="Trazado 828650" d="M305.606,408.57l-3.164-.895-10.056-.938L289.574,403l1.96-8.067,12.566-2.988c5.8,4.128,4.237,11.008,1.507,16.627" transform="translate(-128.904 -174.473)" fill="#af7e69"/>
            <path id="Trazado_828651" data-name="Trazado 828651" d="M260.2,385.367a8.66,8.66,0,0,0-3.53.277,4.685,4.685,0,0,0-2.8,3.661c-.325,2.587-.427,4.685-.613,7.093a2.076,2.076,0,0,0,3.7,1.458,7.547,7.547,0,0,0,1.578-2.965c.393-1.059.811-3.6,1.425-3.818,1.751-.631,4.133,2.384,5.449.9l2.388-5.825c-3.7-.362-3.906-.424-7.6-.787" transform="translate(-112.735 -171.52)" fill="#af7e69"/>
            <path id="Trazado_828652" data-name="Trazado 828652" d="M260.09,385.33a.482.482,0,0,1,.136,0l.4.024,1.516.125,5.567.534.14.013-.053.132c-.687,1.7-1.487,3.671-2.364,5.834l-.008.02-.016.018a1.361,1.361,0,0,1-1.146.447,3.626,3.626,0,0,1-1.181-.357,12.915,12.915,0,0,0-2.24-.974l-.3-.047-.294,0a2.363,2.363,0,0,0-.284.058c-.1.019-.125.059-.2.13a3.913,3.913,0,0,0-.494,1.139c-.261.831-.428,1.707-.742,2.577a10.506,10.506,0,0,1-1.029,2.263,3.523,3.523,0,0,1-.857.907,2.878,2.878,0,0,1-1.14.478,2.2,2.2,0,0,1-1.221-.106,1.968,1.968,0,0,1-.9-.8,2.383,2.383,0,0,1-.369-1.113c-.009-.406.047-.74.065-1.107.107-1.433.2-2.8.326-4.072q.092-.955.2-1.842a4.952,4.952,0,0,1,.437-1.675,4.477,4.477,0,0,1,4.154-2.7,10.437,10.437,0,0,1,1.4.027c.16.014.281.028.363.041a.39.39,0,0,1,.122.026,4.068,4.068,0,0,1-.488-.008,12.965,12.965,0,0,0-1.394.027,4.775,4.775,0,0,0-2.09.561,4.641,4.641,0,0,0-1.885,2.111,4.769,4.769,0,0,0-.4,1.616q-.1.883-.186,1.838c-.114,1.272-.2,2.634-.3,4.069-.017.351-.07.741-.06,1.071a2.121,2.121,0,0,0,.331.983,1.692,1.692,0,0,0,.774.69,1.916,1.916,0,0,0,1.065.086,2.745,2.745,0,0,0,1.808-1.267,10.336,10.336,0,0,0,1-2.2c.3-.833.473-1.717.738-2.562a4.064,4.064,0,0,1,.551-1.237.679.679,0,0,1,.144-.136.475.475,0,0,1,.185-.083,2.572,2.572,0,0,1,.343-.069c.115,0,.231-.006.345,0l.332.054a12.827,12.827,0,0,1,2.293,1,3.4,3.4,0,0,0,1.086.338,1.091,1.091,0,0,0,.931-.354l-.023.037,2.411-5.815.087.145c-2.35-.24-4.247-.475-5.559-.628l-1.51-.181-.392-.054a.453.453,0,0,1-.133-.028" transform="translate(-112.629 -171.483)" fill="#7c5142"/>
            <path id="Trazado_828653" data-name="Trazado 828653" d="M284.2,384.238a3.536,3.536,0,0,0-2.934.839s-.63-2.774-2.845-3.32c-1.608-.4-3.653,1.253-3.653,1.253s-1.388-2.775-5.088-1.619c-3.061.957-9.483,19.942-10.035,21.216-.631,1.457,1.965,3.283,3.4,1.812,1.5-1.542,6.547-9.975,6.547-9.975l-3.355,11.828a2.268,2.268,0,0,0,.034,1.169,2.466,2.466,0,0,0,4.4.346c2.082-2.82,4.2-8.632,4.2-8.632l2.046-4.46s-3.819,11.817-2.431,12.894,3.17.66,4.441-2.116,5.9-11.564,5.9-11.564l2.2-1.156-.809,2.775s-4.209,2.2-3.261,4.163,2.932,1.382,4.88.463,3.645-5.485,4.685-7.363c.931-1.679,1.021-6.62-2.97-6.809a3.047,3.047,0,0,0-2.284.911l-.2.2s-.654-2.461-2.865-2.854" transform="translate(-115.538 -169.651)" fill="#af7e69"/>
            <path id="Trazado_828654" data-name="Trazado 828654" d="M284.1,384.174s.089.014.264.053a1.608,1.608,0,0,1,.322.1,2.444,2.444,0,0,1,.428.194,4.282,4.282,0,0,1,1.894,2.5l-.075-.021a3.279,3.279,0,0,1,2.046-1.117,3.71,3.71,0,0,1,2.708.829,4.451,4.451,0,0,1,1.318,3.045,6.971,6.971,0,0,1-.118,1.862,4.521,4.521,0,0,1-.294.938c-.138.312-.305.583-.447.891-.592,1.2-1.16,2.507-1.89,3.81a12.485,12.485,0,0,1-1.274,1.91,4.578,4.578,0,0,1-.875.823,7.12,7.12,0,0,1-1.1.537,5.355,5.355,0,0,1-2.453.507,2.087,2.087,0,0,1-1.206-.534,2.6,2.6,0,0,1-.428-.519l-.165-.294c-.039-.109-.074-.222-.11-.334a1.9,1.9,0,0,1,.269-1.341,4.741,4.741,0,0,1,.876-1.053,11.489,11.489,0,0,1,2.268-1.6l-.06.072c.249-.854.525-1.808.806-2.776l.175.143-2.2,1.159.053-.052-3.4,6.562-1.742,3.457-.859,1.781a6.1,6.1,0,0,1-1.162,1.677,2.637,2.637,0,0,1-1.908.827,2.417,2.417,0,0,1-1.034-.3,2.641,2.641,0,0,1-.452-.3.97.97,0,0,1-.265-.53,6.937,6.937,0,0,1,.041-2.115c.093-.695.222-1.385.366-2.075.594-2.758,1.387-5.518,2.261-8.3l.267.1-2.045,4.46,0-.011c-.466,1.255-1.012,2.579-1.6,3.9-.439.97-.9,1.926-1.414,2.852q-.386.694-.816,1.361a5.374,5.374,0,0,1-1.027,1.233,2.537,2.537,0,0,1-1.513.587,2.724,2.724,0,0,1-1.543-.467,2.3,2.3,0,0,1-.984-1.273,2.4,2.4,0,0,1-.065-.809,3.884,3.884,0,0,1,.175-.767l3.24-11.41.251.108q-1.927,3.2-3.858,6.2c-.649,1-1.3,1.976-1.99,2.913a4.269,4.269,0,0,1-1.243,1.258,2.079,2.079,0,0,1-1.753.015,2.507,2.507,0,0,1-1.282-1.167,1.57,1.57,0,0,1-.138-.882c.08-.311.19-.534.282-.8l1.114-3.033c.735-1.988,1.462-3.9,2.2-5.737s1.468-3.581,2.219-5.232a41.326,41.326,0,0,1,2.395-4.6,7.316,7.316,0,0,1,1.528-1.868,1.68,1.68,0,0,1,.531-.286l.557-.143a5.83,5.83,0,0,1,1.118-.119,3.9,3.9,0,0,1,3.452,1.946l-.112-.024a6.833,6.833,0,0,1,2.422-1.227,2.765,2.765,0,0,1,1.225-.039,3.085,3.085,0,0,1,1.037.448,4.222,4.222,0,0,1,1.3,1.456,6.149,6.149,0,0,1,.593,1.477l-.059-.022a4.327,4.327,0,0,1,2.2-.875,1.867,1.867,0,0,1,.758.066s-.061-.012-.185-.027a2.778,2.778,0,0,0-.57,0,4.361,4.361,0,0,0-2.156.9l-.045.033-.014-.055a6.1,6.1,0,0,0-.6-1.447,4.139,4.139,0,0,0-1.284-1.409,2.985,2.985,0,0,0-1-.423,2.653,2.653,0,0,0-1.171.047,6.732,6.732,0,0,0-2.36,1.215l-.069.052-.043-.076a3.749,3.749,0,0,0-3.32-1.843,5.667,5.667,0,0,0-1.083.121l-.542.142a1.493,1.493,0,0,0-.474.26,7.205,7.205,0,0,0-1.475,1.825,41.439,41.439,0,0,0-2.365,4.591c-.744,1.65-1.474,3.4-2.2,5.229s-1.45,3.748-2.179,5.737l-1.107,3.036c-.09.253-.213.529-.268.754a1.308,1.308,0,0,0,.118.731,2.26,2.26,0,0,0,1.152,1.039,1.821,1.821,0,0,0,1.539-.01,4.064,4.064,0,0,0,1.15-1.183c.682-.928,1.33-1.907,1.976-2.9,1.287-1.994,2.566-4.066,3.845-6.194l.533-.887-.282.995c-1.043,3.681-2.121,7.493-3.23,11.408a3.679,3.679,0,0,0-.166.72,2.11,2.11,0,0,0,.058.712,2.024,2.024,0,0,0,.866,1.106,2.448,2.448,0,0,0,1.377.418,2.253,2.253,0,0,0,1.339-.524,5.127,5.127,0,0,0,.967-1.168q.422-.654.8-1.341c.507-.917.967-1.866,1.4-2.832.589-1.309,1.134-2.633,1.6-3.876l0-.006,0,0c.7-1.531,1.4-3.049,2.045-4.46l.267.1c-.873,2.773-1.667,5.532-2.258,8.271-.144.686-.272,1.37-.366,2.055a6.744,6.744,0,0,0-.047,2.016.733.733,0,0,0,.176.382,2.346,2.346,0,0,0,.4.266,2.131,2.131,0,0,0,.914.266,2.366,2.366,0,0,0,1.706-.748,12.616,12.616,0,0,0,1.969-3.38l1.749-3.458q1.764-3.386,3.415-6.559l.019-.034.034-.018,2.2-1.154.256-.134-.081.277c-.284.968-.563,1.921-.812,2.774l-.014.047-.045.025a11.317,11.317,0,0,0-2.219,1.556,4.5,4.5,0,0,0-.837,1,1.675,1.675,0,0,0-.247,1.177,2.03,2.03,0,0,0,1.715,1.515,5.174,5.174,0,0,0,2.35-.484,7.049,7.049,0,0,0,1.063-.513,4.411,4.411,0,0,0,.838-.783,12.454,12.454,0,0,0,1.259-1.874c.729-1.289,1.3-2.587,1.9-3.794.141-.3.323-.6.45-.884a4.393,4.393,0,0,0,.287-.9,6.8,6.8,0,0,0,.124-1.817,4.322,4.322,0,0,0-1.253-2.956,3.6,3.6,0,0,0-2.607-.818A3.189,3.189,0,0,0,287,387.06l-.052.057-.024-.077a3.758,3.758,0,0,0-2.82-2.865" transform="translate(-115.442 -169.587)" fill="#7c5142"/>
            <path id="Trazado_828655" data-name="Trazado 828655" d="M292.5,395.186a13.719,13.719,0,0,1-1.059,3.7c-.383.992-.762,1.875-1.042,2.511a4.638,4.638,0,0,1-.5,1.01,24.29,24.29,0,0,1,1.276-3.625c.381-.987.71-1.885.933-2.541a5.456,5.456,0,0,1,.4-1.056" transform="translate(-129.045 -175.917)" fill="#7c5142"/>
            <path id="Trazado_828656" data-name="Trazado 828656" d="M280.4,393.041c.076.038-.629,1.591-1.408,3.541a23.479,23.479,0,0,1-1.529,3.5,4.624,4.624,0,0,1,.32-1.074c.229-.651.548-1.55.942-2.529s.793-1.849,1.107-2.466a4.118,4.118,0,0,1,.569-.968" transform="translate(-123.511 -174.962)" fill="#7c5142"/>
          </g>
        </g>
      </g>
    </g>
  </g>
</svg>
