<svg id="Grupo_1074863" data-name="Grupo 1074863" xmlns="http://www.w3.org/2000/svg" xmlns:xlink="http://www.w3.org/1999/xlink" width="248.054" height="251.093" viewBox="0 0 248.054 251.093">
  <defs>
    <clipPath id="clip-path">
      <rect id="Rectángulo_383683" data-name="Rectángulo 383683" width="247.736" height="155.566" rx="14" transform="translate(0 0)" fill="#273a89"/>
    </clipPath>
    <clipPath id="clip-path-2">
      <rect id="Rectángulo_383873" data-name="Rectángulo 383873" width="247.054" height="236.093" fill="none"/>
    </clipPath>
    <clipPath id="clip-path-4">
      <rect id="Rectángulo_383874" data-name="Rectángulo 383874" width="31.939" height="31.939" fill="none"/>
    </clipPath>
    <clipPath id="clip-path-5">
      <rect id="Rectángulo_383881" data-name="Rectángulo 383881" width="14.6" height="12.722" fill="none"/>
    </clipPath>
    <clipPath id="clip-path-6">
      <rect id="Rectángulo_383889" data-name="Rectángulo 383889" width="70.439" height="27.381" fill="none"/>
    </clipPath>
    <clipPath id="clip-path-7">
      <rect id="Rectángulo_383922" data-name="Rectángulo 383922" width="10.665" height="40.083" fill="none"/>
    </clipPath>
    <clipPath id="clip-path-9">
      <rect id="Rectángulo_383991" data-name="Rectángulo 383991" width="14.126" height="23.222" fill="none"/>
    </clipPath>
    <clipPath id="clip-path-10">
      <rect id="Rectángulo_383992" data-name="Rectángulo 383992" width="30.966" height="33.414" fill="none"/>
    </clipPath>
    <clipPath id="clip-path-11">
      <rect id="Rectángulo_383993" data-name="Rectángulo 383993" width="18.052" height="6.593" fill="none"/>
    </clipPath>
    <clipPath id="clip-path-12">
      <rect id="Rectángulo_383994" data-name="Rectángulo 383994" width="5.114" height="17.46" fill="none"/>
    </clipPath>
    <clipPath id="clip-path-13">
      <rect id="Rectángulo_383995" data-name="Rectángulo 383995" width="13.619" height="8.17" fill="none"/>
    </clipPath>
    <clipPath id="clip-path-14">
      <rect id="Rectángulo_383996" data-name="Rectángulo 383996" width="0.128" height="0.188" fill="none"/>
    </clipPath>
  </defs>
  <g id="Grupo_1074779" data-name="Grupo 1074779" transform="translate(0 0)">
    <g id="Grupo_1074757" data-name="Grupo 1074757" transform="translate(0)">
      <g id="Grupo_1074626" data-name="Grupo 1074626" transform="translate(5.339)">
        <path id="Trazado_818450" data-name="Trazado 818450" d="M204.908,45.939,170.1,10.559,137.332,43.87l-32.955-33.5-34.436,35L35.875,10.749,5.1,42.029,0,36.843,35.875.377,69.941,35,104.377,0l32.955,33.5L170.1.187l34.807,35.38L237.533,2.406l5.1,5.184Z" transform="translate(0 0)" fill="#add3fd"/>
        <path id="Trazado_818451" data-name="Trazado 818451" d="M204.908,62.735,170.1,27.357,137.332,60.663l-32.955-33.5-34.436,35L35.875,27.544,5.1,58.826,0,53.638,35.875,17.172,69.941,51.8l34.436-35,32.955,33.5L170.1,16.985l34.807,35.378L237.533,19.2l5.1,5.184Z" transform="translate(0 18.96)" fill="#add3fd"/>
        <path id="Trazado_818452" data-name="Trazado 818452" d="M204.908,79.53,170.1,44.152,137.332,77.461l-32.955-33.5-34.436,35L35.875,44.339,5.1,75.621,0,70.433,35.875,33.967,69.941,68.594l34.436-35,32.955,33.5L170.1,33.78l34.807,35.378L237.533,36l5.1,5.186Z" transform="translate(0 37.92)" fill="#add3fd"/>
        <path id="Trazado_818453" data-name="Trazado 818453" d="M204.908,96.326,170.1,60.946,137.332,94.255l-32.955-33.5-34.436,35L35.875,61.133,5.1,92.415,0,87.229,35.875,50.763,69.941,85.39l34.436-35,32.955,33.5L170.1,50.574l34.807,35.38L237.533,52.79l5.1,5.186Z" transform="translate(0 56.881)" fill="#add3fd"/>
        <path id="Trazado_818454" data-name="Trazado 818454" d="M204.908,113.121,170.1,77.741,137.332,111.05l-32.955-33.5-34.436,35L35.875,77.93,5.1,109.213,0,104.027,35.875,67.559l34.065,34.627,34.436-35,32.955,33.5L170.1,67.371l34.807,35.38,32.625-33.164,5.1,5.186Z" transform="translate(0 75.842)" fill="#add3fd"/>
        <path id="Trazado_818455" data-name="Trazado 818455" d="M204.908,129.917,170.1,94.539l-32.769,33.309-32.955-33.5-34.436,35L35.875,94.726,5.1,126.008,0,120.82,35.875,84.354,69.941,118.98l34.436-35,32.955,33.5L170.1,84.166l34.807,35.378,32.625-33.162,5.1,5.186Z" transform="translate(0 94.802)" fill="#add3fd"/>
      </g>
      <rect id="Rectángulo_383419" data-name="Rectángulo 383419" width="247.736" height="150.154" rx="14" transform="translate(0 100.705)" fill="#273a89"/>
      <g id="Enmascarar_grupo_192" data-name="Enmascarar grupo 192" transform="translate(0.239 95.294)" clip-path="url(#clip-path)">
        <g id="Grupo_1074624" data-name="Grupo 1074624" transform="translate(-164.703 -53.761)" opacity="0.155">
          <path id="Trazado_827892" data-name="Trazado 827892" d="M74.118-21.241q0,14.485-7.739,23.3T44.765,10.866a27.378,27.378,0,0,1-10.528-1.9,21.29,21.29,0,0,1-7.878-5.583V34.705H6.07V-55.7H24.407l1.185,7.725a23.106,23.106,0,0,1,8.053-6.609,24.519,24.519,0,0,1,10.981-2.324q14.014,0,21.753,9.475t7.739,24.926ZM53.759-22.509q0-9.234-3.556-14.967T39.327-43.209a17.31,17.31,0,0,0-7.844,1.63,12.567,12.567,0,0,0-5.124,4.647V-8.326A11.907,11.907,0,0,0,31.483-4.1a19.548,19.548,0,0,0,7.983,1.448q7.39,0,10.842-5.009t3.451-13.579Zm72.579-18.045-7.46-.181a15.221,15.221,0,0,0-7.46,1.63,10.875,10.875,0,0,0-4.462,4.587V9.6H86.667V-55.7h18.894l.906,9.656a21.161,21.161,0,0,1,6.867-8,16.888,16.888,0,0,1,9.726-2.867,17.517,17.517,0,0,1,2.824.211q1.29.211,2.615.513ZM183.16-.058a23.938,23.938,0,0,1-8.854,8.087,26.33,26.33,0,0,1-12.48,2.837q-11.922,0-18.65-7t-6.728-21.727V-55.7h20.289v37.962q0,8.57,2.684,11.739t8.332,3.168a23.06,23.06,0,0,0,8.366-1.358,13.9,13.9,0,0,0,5.717-4.013V-55.7h20.358V9.6H185.322Zm67.071,10.924q-16.872,0-26.354-8.962T214.4-21.181v-2.414q0-14.666,9.2-24.02t25.309-9.294q15.2,0,23.322,8.057t8.122,21.7v9.113h-44.97l-.209.362a16.354,16.354,0,0,0,4.706,10.863q4.218,4.164,12.515,4.164A48.042,48.042,0,0,0,264-3.86a51.513,51.513,0,0,0,9.865-3.681l5.508,10.863A40.228,40.228,0,0,1,267.1,8.694,62.25,62.25,0,0,1,250.231,10.866Zm-1.325-54.2q-6.135,0-9.447,3.651a16.879,16.879,0,0,0-4.009,9.687l.139.3h24.821v-1.328q0-5.733-2.719-9.023T248.907-43.33ZM360.25-21.241q0,14.605-7.53,23.356t-21.753,8.751a25.891,25.891,0,0,1-11.539-2.414A22.644,22.644,0,0,1,311.1,1.391L309.424,9.6H292.2v-94.15h20.289v35.789a22.322,22.322,0,0,1,7.844-6.035,24.737,24.737,0,0,1,10.493-2.112q14.362,0,21.892,9.385t7.53,25.016Zm-20.289-1.267q0-9.536-3.242-15.118t-11.051-5.583a17.084,17.084,0,0,0-8.018,1.72,12.755,12.755,0,0,0-5.159,4.919V-8.929A12.2,12.2,0,0,0,317.686-4.4a18.886,18.886,0,0,0,8.122,1.569q7.878,0,11.016-4.8t3.137-13.609ZM417.282,9.6a33.89,33.89,0,0,1-1.917-4.707,28.89,28.89,0,0,1-1.15-5.07,25.825,25.825,0,0,1-8.3,7.906,23.159,23.159,0,0,1-12.271,3.138q-11.852,0-18.267-5.281T368.965-8.809q0-9.6,8.541-14.877t24.925-5.281h11.434v-5.19a9.361,9.361,0,0,0-2.859-7.3q-2.859-2.6-8.506-2.6-4.95,0-7.634,2.082a6.825,6.825,0,0,0-2.684,5.7H372.591l-.139-.362q-.488-8.268,8.332-14.273t23.043-6.005q13.6,0,22,5.915t8.4,16.959V-7.058a44.342,44.342,0,0,0,.8,8.63A38.838,38.838,0,0,0,437.57,9.6ZM398.666-2.17a19.4,19.4,0,0,0,9.482-2.293,13.23,13.23,0,0,0,5.717-5.311v-9.234H402.431q-6.484,0-9.8,2.776a8.574,8.574,0,0,0-3.312,6.82A6.387,6.387,0,0,0,391.8-4.131,10.79,10.79,0,0,0,398.666-2.17Z" transform="translate(-6.07 84.551)" fill="none" stroke="#fff" stroke-width="1"/>
          <path id="Trazado_827890" data-name="Trazado 827890" d="M63.434-18.179q0,12.4-6.623,19.938T38.313,9.3A23.432,23.432,0,0,1,29.3,7.673,18.221,18.221,0,0,1,22.56,2.895V29.7H5.2V-47.673H20.889L21.9-41.062A19.776,19.776,0,0,1,28.8-46.718a20.984,20.984,0,0,1,9.4-1.989q11.994,0,18.617,8.11t6.623,21.333ZM46.01-19.264q0-7.9-3.043-12.81t-9.309-4.907a14.815,14.815,0,0,0-6.713,1.395,10.755,10.755,0,0,0-4.386,3.977V-7.126A10.19,10.19,0,0,0,26.945-3.51a16.73,16.73,0,0,0,6.832,1.24q6.325,0,9.279-4.287T46.01-18.179Zm62.117-15.444-6.385-.155a13.028,13.028,0,0,0-6.385,1.395,9.307,9.307,0,0,0-3.819,3.926V8.215H74.175V-47.673H90.345l.776,8.264A18.111,18.111,0,0,1,97-46.253a14.454,14.454,0,0,1,8.324-2.454,14.993,14.993,0,0,1,2.417.181q1.1.181,2.238.439ZM156.759-.049a20.487,20.487,0,0,1-7.578,6.921A22.535,22.535,0,0,1,138.5,9.3q-10.2,0-15.962-5.992t-5.758-18.6V-47.673h17.364v32.49q0,7.335,2.3,10.046t7.131,2.712a19.736,19.736,0,0,0,7.16-1.162,11.9,11.9,0,0,0,4.893-3.435V-47.673h17.424V8.215h-14.44Zm57.4,9.349q-14.44,0-22.556-7.67t-8.115-19.757v-2.066q0-12.552,7.877-20.558t21.66-7.955q13.008,0,19.96,6.9t6.952,18.569v7.8H201.452l-.179.31a14,14,0,0,0,4.028,9.3q3.61,3.564,10.711,3.564A41.117,41.117,0,0,0,225.947-3.3a44.089,44.089,0,0,0,8.443-3.151l4.714,9.3a34.429,34.429,0,0,1-10.5,4.6A53.277,53.277,0,0,1,214.162,9.3Zm-1.134-46.384q-5.251,0-8.085,3.125a14.445,14.445,0,0,0-3.431,8.29l.119.258h21.243v-1.136a11.765,11.765,0,0,0-2.327-7.722Q218.22-37.084,213.028-37.084Zm95.294,18.9q0,12.5-6.444,19.99T283.261,9.3a22.159,22.159,0,0,1-9.875-2.066,19.38,19.38,0,0,1-7.131-6.043l-1.432,7.025H250.084V-72.363h17.364v30.63a19.1,19.1,0,0,1,6.713-5.165,21.172,21.172,0,0,1,8.98-1.808q12.292,0,18.737,8.032t6.444,21.41Zm-17.364-1.085q0-8.161-2.775-12.939t-9.458-4.778a14.621,14.621,0,0,0-6.862,1.472,10.916,10.916,0,0,0-4.416,4.21V-7.642a10.442,10.442,0,0,0,4.445,3.874,16.163,16.163,0,0,0,6.952,1.343q6.743,0,9.428-4.106t2.685-11.648ZM357.133,8.215a29,29,0,0,1-1.641-4.029,24.728,24.728,0,0,1-.985-4.339,22.1,22.1,0,0,1-7.1,6.767A19.82,19.82,0,0,1,336.9,9.3q-10.144,0-15.634-4.52t-5.49-12.319q0-8.213,7.31-12.732t21.332-4.52h9.786v-4.442a8.011,8.011,0,0,0-2.447-6.25q-2.447-2.221-7.28-2.221a10.461,10.461,0,0,0-6.534,1.782,5.841,5.841,0,0,0-2.3,4.881H318.884l-.119-.31q-.418-7.076,7.131-12.216t19.721-5.139q11.636,0,18.826,5.062t7.19,14.514V-6.041a37.949,37.949,0,0,0,.686,7.386,33.24,33.24,0,0,0,2.178,6.87ZM341.2-1.857a16.6,16.6,0,0,0,8.115-1.963,11.323,11.323,0,0,0,4.893-4.545v-7.9h-9.786q-5.549,0-8.384,2.376a7.338,7.338,0,0,0-2.834,5.837,5.466,5.466,0,0,0,2.118,4.52A9.234,9.234,0,0,0,341.2-1.857Z" transform="translate(173.128 159.984)" fill="none" stroke="#fff" stroke-width="1"/>
          <path id="Trazado_827891" data-name="Trazado 827891" d="M61.431-17.605Q61.431-5.6,55.016,1.7T37.1,9.006a22.691,22.691,0,0,1-8.726-1.576A17.646,17.646,0,0,1,21.847,2.8V28.765H5.031V-46.168h15.2l.982,6.4a19.151,19.151,0,0,1,6.674-5.477,20.322,20.322,0,0,1,9.1-1.926q11.615,0,18.029,7.853t6.414,20.659Zm-16.874-1.05q0-7.653-2.947-12.405T32.6-35.813a14.347,14.347,0,0,0-6.5,1.351,10.415,10.415,0,0,0-4.247,3.852V-6.9a9.868,9.868,0,0,0,4.247,3.5,16.2,16.2,0,0,0,6.617,1.2q6.125,0,8.986-4.152t2.86-11.255Zm60.156-14.957-6.183-.15a12.616,12.616,0,0,0-6.183,1.351,9.013,9.013,0,0,0-3.7,3.8V7.956H71.832V-46.168h15.66l.751,8a17.538,17.538,0,0,1,5.692-6.628A14,14,0,0,1,102-47.168a14.519,14.519,0,0,1,2.34.175q1.069.175,2.167.425Zm47.1,33.565a19.841,19.841,0,0,1-7.339,6.7,21.823,21.823,0,0,1-10.344,2.351q-9.881,0-15.458-5.8T113.092-14.8V-46.168h16.816V-14.7q0,7.1,2.225,9.729t6.905,2.626a19.113,19.113,0,0,0,6.934-1.125A11.52,11.52,0,0,0,150.711-6.8V-46.168h16.874V7.956H153.6ZM207.4,9.006q-13.984,0-21.843-7.428T177.7-17.555v-2q0-12.155,7.628-19.909t20.976-7.7q12.6,0,19.329,6.678t6.732,17.983v7.553H195.091l-.173.3a13.554,13.554,0,0,0,3.9,9Q202.314-2.2,209.19-2.2a39.819,39.819,0,0,0,9.621-1,42.7,42.7,0,0,0,8.177-3.051l4.565,9a33.342,33.342,0,0,1-10.17,4.452A51.6,51.6,0,0,1,207.4,9.006Zm-1.1-44.92q-5.085,0-7.83,3.026a13.989,13.989,0,0,0-3.323,8.028l.116.25h20.572v-1.1a11.394,11.394,0,0,0-2.254-7.478Q211.329-35.913,206.3-35.913Zm92.285,18.308q0,12.105-6.241,19.358T274.316,9.006a21.459,21.459,0,0,1-9.564-2,18.768,18.768,0,0,1-6.905-5.853l-1.387,6.8H242.186V-70.078H259v29.663a18.5,18.5,0,0,1,6.5-5,20.5,20.5,0,0,1,8.7-1.751q11.9,0,18.145,7.778t6.241,20.734Zm-16.816-1.05q0-7.9-2.687-12.53t-9.159-4.627a14.159,14.159,0,0,0-6.645,1.426A10.571,10.571,0,0,0,259-30.311V-7.4a10.112,10.112,0,0,0,4.305,3.752,15.653,15.653,0,0,0,6.732,1.3q6.53,0,9.13-3.977t2.6-11.28ZM345.855,7.956a28.091,28.091,0,0,1-1.589-3.9,23.946,23.946,0,0,1-.953-4.2,21.4,21.4,0,0,1-6.877,6.553,19.194,19.194,0,0,1-10.17,2.6q-9.824,0-15.14-4.377T305.809-7.3q0-7.953,7.079-12.33t20.659-4.377h9.477v-4.3a7.758,7.758,0,0,0-2.369-6.053q-2.369-2.151-7.05-2.151a10.131,10.131,0,0,0-6.328,1.726,5.657,5.657,0,0,0-2.225,4.727H308.814l-.116-.3q-.4-6.853,6.905-11.83t19.1-4.977q11.268,0,18.232,4.9T359.9-28.21V-5.85a36.75,36.75,0,0,0,.665,7.153,32.189,32.189,0,0,0,2.109,6.653ZM330.426-1.8a16.077,16.077,0,0,0,7.859-1.9,10.965,10.965,0,0,0,4.738-4.4v-7.653h-9.477q-5.374,0-8.119,2.3A7.106,7.106,0,0,0,322.683-7.8a5.294,5.294,0,0,0,2.051,4.377A8.943,8.943,0,0,0,330.426-1.8Z" transform="translate(90.753 249.326)" fill="none" stroke="#fff" stroke-width="1"/>
        </g>
      </g>
    </g>
  </g>
  <g id="Grupo_1074862" data-name="Grupo 1074862" transform="translate(1 15)">
    <g id="Grupo_1074861" data-name="Grupo 1074861" transform="translate(0)">
      <g id="Grupo_1074864" data-name="Grupo 1074864">
        <path id="Trazado_828461" data-name="Trazado 828461" d="M8.272,379.008v22.638H77.89V379.008Z" transform="translate(-3.616 -165.7)" fill="#f5f5f5"/>
        <path id="Trazado_828462" data-name="Trazado 828462" d="M3.081,367.763v6.329H78.055v-6.329H3.081Z" transform="translate(-1.347 -160.783)" fill="#ebebeb"/>
        <path id="Trazado_828463" data-name="Trazado 828463" d="M67.093,367.763v5.743l1.461,23.224h35.052V374.091h2.435v-6.329Z" transform="translate(-29.333 -160.783)" fill="#ebebeb"/>
        <rect id="Rectángulo_383870" data-name="Rectángulo 383870" width="14.119" height="3.408" transform="translate(14.392 216.959)" fill="#e0e0e0"/>
        <rect id="Rectángulo_383871" data-name="Rectángulo 383871" width="18.129" height="7.196" transform="translate(12.575 224.627)" fill="#fff"/>
        <g id="Grupo_1074823" data-name="Grupo 1074823">
          <g id="Grupo_1074822" data-name="Grupo 1074822" clip-path="url(#clip-path-2)">
            <path id="Trazado_828468" data-name="Trazado 828468" d="M250.219,419.118c0,.081-53.582.146-119.663.146-66.1,0-119.675-.065-119.675-.146s53.571-.146,119.675-.146c66.081,0,119.663.065,119.663.146" transform="translate(-4.757 -183.172)" fill="#263238"/>
          </g>
        </g>
        <g id="Grupo_1074837" data-name="Grupo 1074837">
          <g id="Grupo_1074836" data-name="Grupo 1074836" clip-path="url(#clip-path-2)">
            <path id="Trazado_828469" data-name="Trazado 828469" d="M153.982,98.126a10.8,10.8,0,0,1,10.033-10.773V36.462a10.812,10.812,0,0,1,0-21.624V7.656A7.656,7.656,0,0,0,156.359,0H34.37a7.657,7.657,0,0,0-7.656,7.656v7.182a10.812,10.812,0,1,1,0,21.624v93.183A7.657,7.657,0,0,0,34.37,137.3H63.032V122.274a5.219,5.219,0,0,1,4.764-5.267,5.1,5.1,0,0,1,5.442,5.092v15.2h83.121a7.656,7.656,0,0,0,7.656-7.656V108.9a10.8,10.8,0,0,1-10.033-10.773" transform="translate(-11.679)" fill="#1682fb"/>
            <path id="Trazado_828470" data-name="Trazado 828470" d="M251.395,214.655a6.592,6.592,0,1,1-6.592-6.592,6.592,6.592,0,0,1,6.592,6.592" transform="translate(-104.144 -90.964)" fill="#fff"/>
            <path id="Trazado_828471" data-name="Trazado 828471" d="M250.787,217.236a3.27,3.27,0,1,1-3.27-3.27,3.27,3.27,0,0,1,3.27,3.27" transform="translate(-106.783 -93.545)" fill="#1682fb"/>
            <g id="Grupo_1074826" data-name="Grupo 1074826" transform="translate(94.59 26.871)" opacity="0.3">
              <g id="Grupo_1074825" data-name="Grupo 1074825" transform="translate(0)">
                <g id="Grupo_1074824" data-name="Grupo 1074824" clip-path="url(#clip-path-4)">
                  <path id="Trazado_828472" data-name="Trazado 828472" d="M200.009,52.265v-.856h-1.1V48.845h-1.79v-1.1h-.856v1.1h-1.426v-1.1h-.856v1.1h-1.426v-1.1H191.7v1.1h-1.426v-1.1h-.856v1.1h-1.426v-1.1h-.856v1.1h-1.426v-1.1h-.855v1.1h-1.458v-1.1h-.855v1.1h-1.427v-1.1h-.855v1.1H178.83v-1.1h-.856v1.1h-1.426v-1.1h-.856v1.1h-1.426v-1.1h-.856v1.1h-1.426v-1.1h-.856v1.1H169.25v2.564h-1.18v.856h1.18v1.426h-1.18v.856h1.18v1.426h-1.18v.856h1.18v1.426h-1.18v.856h1.18v1.426h-1.18v.856h1.18V62.82h-1.18v.855h1.18v1.458h-1.18v.855h1.18v1.426h-1.18v.856h1.18V69.7h-1.18v.856h1.18v1.426h-1.18v.856h1.18v1.426h-1.18v.856h1.18v1.426h-1.18V77.4h1.18v1.1h1.877v1.179h.856V78.5h1.426v1.179h.856V78.5h1.426v1.179h.856V78.5h1.426v1.179h.856V78.5h1.426v1.179h.855V78.5h1.427v1.179h.855V78.5h1.458v1.179h.855V78.5h1.426v1.179h.856V78.5h1.426v1.179h.856V78.5H191.7v1.179h.856V78.5h1.426v1.179h.856V78.5h1.426v1.179h.856V78.5h1.79V77.4h1.1v-.856h-1.1V75.117h1.1v-.856h-1.1V72.835h1.1v-.856h-1.1V70.553h1.1V69.7h-1.1V68.271h1.1v-.856h-1.1V65.989h1.1v-.855h-1.1V63.675h1.1V62.82h-1.1V61.394h1.1v-.856h-1.1V59.112h1.1v-.856h-1.1V56.829h1.1v-.856h-1.1V54.547h1.1v-.856h-1.1V52.265Z" transform="translate(-168.069 -47.744)"/>
                </g>
              </g>
            </g>
            <rect id="Rectángulo_383875" data-name="Rectángulo 383875" width="9.005" height="27.22" transform="translate(28.452 110.081)" fill="#ebebeb"/>
            <rect id="Rectángulo_383876" data-name="Rectángulo 383876" width="9.005" height="27.22" transform="translate(70.048 110.081)" fill="#ebebeb"/>
            <rect id="Rectángulo_383877" data-name="Rectángulo 383877" width="9.005" height="27.22" transform="translate(85.914 110.081)" fill="#ebebeb"/>
            <rect id="Rectángulo_383878" data-name="Rectángulo 383878" width="9.005" height="27.22" transform="translate(101.781 110.081)" fill="#ebebeb"/>
            <rect id="Rectángulo_383879" data-name="Rectángulo 383879" width="9.005" height="27.22" transform="translate(117.647 110.081)" fill="#ebebeb"/>
            <path id="Trazado_828473" data-name="Trazado 828473" d="M49.714,141.728h-.563V130.512a.448.448,0,0,0-.13-.314l-7.584-7.584a1,1,0,0,1-.3-.713V71.326a1.015,1.015,0,0,1,.3-.713l4.591-4.591a1,1,0,0,1,.713-.295H58.018v.563H46.74a.445.445,0,0,0-.315.131l-4.591,4.591a.448.448,0,0,0-.131.315V121.9a.444.444,0,0,0,.131.315l7.584,7.584a1.014,1.014,0,0,1,.295.713Z" transform="translate(-17.987 -28.735)" fill="#fff"/>
            <path id="Trazado_828474" data-name="Trazado 828474" d="M56.271,143.976h-.563V131.937a.441.441,0,0,0-.13-.315l-7.215-7.215a1.014,1.014,0,0,1-.295-.725L48.644,76.6a1.015,1.015,0,0,1,.307-.712l3.04-2.939a1.009,1.009,0,0,1,.676-.283l12.049-.291.014.563-12.049.291a.445.445,0,0,0-.3.125l-3.04,2.939a.448.448,0,0,0-.136.314l-.575,47.082a.445.445,0,0,0,.13.32l7.215,7.215a1,1,0,0,1,.295.713Z" transform="translate(-21.015 -31.643)" fill="#fff"/>
            <path id="Trazado_828475" data-name="Trazado 828475" d="M67.735,100.1H62.694a1.132,1.132,0,0,1-1.13-1.13V95.362a1.132,1.132,0,0,1,1.13-1.13h5.041v.563H62.694a.568.568,0,0,0-.567.567v3.612a.568.568,0,0,0,.567.567h5.041Z" transform="translate(-26.915 -41.198)" fill="#fff"/>
            <path id="Trazado_828476" data-name="Trazado 828476" d="M97.814,147.037h-.563v-4.812a.445.445,0,0,0-.445-.445H74.059a1,1,0,0,1-.712-.295L57.032,125.17a1,1,0,0,1-.295-.713V85.536a1.009,1.009,0,0,1,1.007-1.007h5.349v.563H57.744a.445.445,0,0,0-.445.445v38.921a.441.441,0,0,0,.13.315l16.315,16.315a.444.444,0,0,0,.315.131H96.806a1.009,1.009,0,0,1,1.008,1.007Z" transform="translate(-24.805 -36.956)" fill="#fff"/>
            <path id="Trazado_828477" data-name="Trazado 828477" d="M113.774,149.182h-.563v-9.509a.445.445,0,0,0-.445-.445H90.415a1.009,1.009,0,0,1-1.008-1.008V90.444A.445.445,0,0,0,88.963,90H85.131v-.563h3.832a1.009,1.009,0,0,1,1.007,1.008v47.777a.446.446,0,0,0,.445.445h22.352a1.009,1.009,0,0,1,1.007,1.007Z" transform="translate(-37.219 -39.101)" fill="#fff"/>
            <path id="Trazado_828478" data-name="Trazado 828478" d="M61.652,41.183H54.319a.878.878,0,0,1-.877-.877V18.581a.878.878,0,0,1,.877-.877H86.112v.563H54.319a.315.315,0,0,0-.314.315V40.305a.314.314,0,0,0,.314.315h7.333Z" transform="translate(-23.365 -7.74)" fill="#fff"/>
            <path id="Trazado_828479" data-name="Trazado 828479" d="M180.818,117.822h-.563v-6.18a1.728,1.728,0,0,1,1-1.561l11.048-5.147a1.164,1.164,0,0,0,.67-1.052V29.28a1.163,1.163,0,0,0-.375-.855l-10.735-9.852a1.158,1.158,0,0,0-.785-.306H133.549V17.7h47.525a1.718,1.718,0,0,1,1.165.454l10.735,9.852a1.729,1.729,0,0,1,.558,1.27v74.6a1.73,1.73,0,0,1-1,1.562l-11.048,5.147a1.164,1.164,0,0,0-.67,1.051Z" transform="translate(-58.387 -7.74)" fill="#fff"/>
            <path id="Trazado_828480" data-name="Trazado 828480" d="M93.024,45.863H86.981V45.3h6.043a.315.315,0,0,0,.315-.315V25.231a.878.878,0,0,1,.877-.877H101.8v.563H94.216a.315.315,0,0,0-.314.315V44.986a.879.879,0,0,1-.877.877" transform="translate(-38.028 -10.647)" fill="#fff"/>
            <path id="Trazado_828481" data-name="Trazado 828481" d="M132.3,126.317h-.563v-13.8a.446.446,0,0,0-.445-.445H100.97a1.009,1.009,0,0,1-1.007-1.008V57.819a1.009,1.009,0,0,1,1.007-1.007h6.58a.445.445,0,0,0,.445-.445V35.12h.563V56.366a1.009,1.009,0,0,1-1.008,1.008h-6.58a.445.445,0,0,0-.445.445V111.06a.445.445,0,0,0,.445.445h30.324a1.009,1.009,0,0,1,1.008,1.008Z" transform="translate(-43.703 -15.354)" fill="#fff"/>
            <path id="Trazado_828482" data-name="Trazado 828482" d="M95.542,50.227H86.981v-.563h8.561a.315.315,0,0,0,.315-.315V29.863a.878.878,0,0,1,.877-.877H101.8v.563H96.734a.315.315,0,0,0-.314.315V49.349a.879.879,0,0,1-.877.877" transform="translate(-38.028 -12.672)" fill="#fff"/>
            <path id="Trazado_828483" data-name="Trazado 828483" d="M77.439,38.579h-1.57v-.563h1.57a.315.315,0,0,0,.315-.315V26.868a.315.315,0,0,0-.315-.314h-15a.315.315,0,0,0-.315.314V37.7a.315.315,0,0,0,.315.315H65.2v.563H62.441a.878.878,0,0,1-.877-.877V26.868a.878.878,0,0,1,.877-.877h15a.878.878,0,0,1,.877.877V37.7a.878.878,0,0,1-.877.877" transform="translate(-26.915 -11.363)" fill="#fff"/>
            <path id="Trazado_828484" data-name="Trazado 828484" d="M188.908,98.57h-.563V95.305a1.524,1.524,0,0,1,1.522-1.522h21.374a.96.96,0,0,0,.959-.959v-19a.96.96,0,0,0-.959-.959h-6.493V72.3h6.493a1.523,1.523,0,0,1,1.522,1.522v19a1.524,1.524,0,0,1-1.522,1.522H189.867a.961.961,0,0,0-.96.96Z" transform="translate(-82.343 -31.61)" fill="#fff"/>
            <rect id="Rectángulo_383880" data-name="Rectángulo 383880" width="0.563" height="17.497" transform="translate(91.565 93.466)" fill="#fff"/>
            <path id="Trazado_828485" data-name="Trazado 828485" d="M180.833,115.19h-.563v-5.368l12.938-6.092L193.443,25,179.856,12.247H127.777a.469.469,0,0,0-.468.468v1.4h-.563v-1.4a1.032,1.032,0,0,1,1.031-1.031h52.3l13.928,13.069v.123l-.236,79.212-12.937,6.092Z" transform="translate(-55.413 -5.108)" fill="#fff"/>
            <path id="Trazado_828486" data-name="Trazado 828486" d="M181.588,182.979h-.563v-8.162a1.142,1.142,0,0,0-.333-.8l-5.576-5.577a1.684,1.684,0,0,1-.5-1.2v-2.515h.563v2.515a1.139,1.139,0,0,0,.333.8l5.576,5.577a1.68,1.68,0,0,1,.5,1.2Z" transform="translate(-76.342 -72.016)" fill="#fff"/>
            <path id="Trazado_828487" data-name="Trazado 828487" d="M192.452,182.1h-.563v-8.126a1.7,1.7,0,0,1,.53-1.232c1.1-1.037,3.963-3.457,5.143-4.449a1.058,1.058,0,0,0,.377-.812v-2.754h.563v2.754a1.62,1.62,0,0,1-.578,1.243c-1.176.989-4.029,3.4-5.119,4.427a1.119,1.119,0,0,0-.353.823Z" transform="translate(-83.893 -72.017)" fill="#fff"/>
            <path id="Trazado_828488" data-name="Trazado 828488" d="M182.433,111.123h-.563v-7.909a1.523,1.523,0,0,1,1.522-1.522h13.949a.6.6,0,0,0,.6-.6V99.151h.563v1.939a1.167,1.167,0,0,1-1.165,1.166H183.392a.96.96,0,0,0-.96.959Z" transform="translate(-79.512 -43.348)" fill="#fff"/>
            <path id="Trazado_828489" data-name="Trazado 828489" d="M177.1,36.356v-.563a.245.245,0,0,0-.222.133,26.167,26.167,0,0,0,0-4.828,1.157,1.157,0,0,0-1.159-1.119H156.864a1.725,1.725,0,0,1-1.723-1.723V24.438a1.161,1.161,0,0,0-1.16-1.16H133.549v-.563h20.432a1.725,1.725,0,0,1,1.723,1.723v3.818a1.162,1.162,0,0,0,1.161,1.16h18.851a1.717,1.717,0,0,1,1.722,1.662c.177,4.88.008,5.055-.115,5.183l-.083.086Z" transform="translate(-58.387 -9.931)" fill="#fff"/>
            <path id="Trazado_828490" data-name="Trazado 828490" d="M125.492,83h-.563V79.9a.745.745,0,0,0-.743-.744h-17.3a1.308,1.308,0,0,1-1.306-1.306V60.287a1.308,1.308,0,0,1,1.306-1.306h5.347a2.519,2.519,0,0,0,2.516-2.516V34.834h.563v21.63a3.082,3.082,0,0,1-3.079,3.079h-5.347a.745.745,0,0,0-.743.743V77.85a.744.744,0,0,0,.743.743h17.3a1.308,1.308,0,0,1,1.306,1.307Z" transform="translate(-46.157 -15.229)" fill="#fff"/>
            <path id="Trazado_828491" data-name="Trazado 828491" d="M144.489,85.507h-.563V81.875a2.144,2.144,0,0,0-.632-1.526L130.965,68.021a3.3,3.3,0,0,1-.974-2.321c-.03-3.911-.12-17.089-.032-22.467a2.732,2.732,0,0,1,2.72-2.675h36.009a2.723,2.723,0,0,1,2.721,2.721v1.388h-.563V43.279a2.16,2.16,0,0,0-2.158-2.158H132.679a2.166,2.166,0,0,0-2.157,2.121c-.089,5.371,0,18.544.032,22.453a2.737,2.737,0,0,0,.809,1.928l12.329,12.329a2.7,2.7,0,0,1,.8,1.924Z" transform="translate(-56.801 -17.732)" fill="#fff"/>
            <path id="Trazado_828492" data-name="Trazado 828492" d="M154.383,89.339h-.563V85.31a2.146,2.146,0,0,0-.631-1.526L138.73,69.325a2.7,2.7,0,0,1-.8-1.924V52.045a2.723,2.723,0,0,1,2.721-2.721h14.57v.563h-14.57a2.16,2.16,0,0,0-2.158,2.158V67.4a2.144,2.144,0,0,0,.632,1.526l14.459,14.459a2.7,2.7,0,0,1,.8,1.924Z" transform="translate(-60.303 -21.564)" fill="#fff"/>
            <path id="Trazado_828493" data-name="Trazado 828493" d="M244.584,221.31a6.874,6.874,0,1,1,6.874-6.874,6.881,6.881,0,0,1-6.874,6.874m0-13.184a6.311,6.311,0,1,0,6.311,6.311,6.317,6.317,0,0,0-6.311-6.311" transform="translate(-103.926 -90.745)" fill="#fff"/>
            <g id="Grupo_1074829" data-name="Grupo 1074829" transform="translate(62.442 10.234)" opacity="0.3">
              <g id="Grupo_1074828" data-name="Grupo 1074828" transform="translate(0)">
                <g id="Grupo_1074827" data-name="Grupo 1074827" clip-path="url(#clip-path-5)">
                  <path id="Trazado_828494" data-name="Trazado 828494" d="M125.548,18.184h-14.6V29.741h1.442v1.166h.856V29.741h1.426v1.166h.855V29.741h1.427v1.166h.855V29.741h1.427v1.166h.855V29.741h1.426v1.166h.856V29.741H123.8v1.166h.856V29.741h.892Z" transform="translate(-110.948 -18.184)"/>
                </g>
              </g>
            </g>
            <rect id="Rectángulo_383882" data-name="Rectángulo 383882" width="14.601" height="11.557" transform="translate(61.454 8.21)" fill="#263238"/>
            <rect id="Rectángulo_383883" data-name="Rectángulo 383883" width="0.856" height="2.203" transform="translate(62.896 18.729)" fill="#e0e0e0"/>
            <rect id="Rectángulo_383884" data-name="Rectángulo 383884" width="0.856" height="2.203" transform="translate(65.178 18.729)" fill="#e0e0e0"/>
            <rect id="Rectángulo_383885" data-name="Rectángulo 383885" width="0.856" height="2.203" transform="translate(67.46 18.729)" fill="#e0e0e0"/>
            <rect id="Rectángulo_383886" data-name="Rectángulo 383886" width="0.856" height="2.203" transform="translate(69.742 18.729)" fill="#e0e0e0"/>
            <rect id="Rectángulo_383887" data-name="Rectángulo 383887" width="0.856" height="2.203" transform="translate(72.025 18.729)" fill="#e0e0e0"/>
            <rect id="Rectángulo_383888" data-name="Rectángulo 383888" width="0.856" height="2.203" transform="translate(74.306 18.729)" fill="#e0e0e0"/>
            <path id="Trazado_828495" data-name="Trazado 828495" d="M131.711,17.953a.987.987,0,1,1-.988-.987.988.988,0,0,1,.988.987" transform="translate(-56.72 -7.417)" fill="#455a64"/>
            <g id="Grupo_1074832" data-name="Grupo 1074832" transform="translate(61.687 69.12)" opacity="0.3">
              <g id="Grupo_1074831" data-name="Grupo 1074831">
                <g id="Grupo_1074830" data-name="Grupo 1074830" clip-path="url(#clip-path-6)">
                  <path id="Trazado_828496" data-name="Trazado 828496" d="M179.865,123.057l-70.257-.244v26.506h2.646v.875h.855v-.875h1.426v.875h.856v-.875h1.426v.875h.856v-.875H119.1v.875h.856v-.875h1.426v.875h.856v-.875h1.426v.875h.855v-.875h1.457v.875h.856v-.875h1.427v.875h.855v-.875h1.426v.875h.856v-.875h1.426v.875h.856v-.875h1.426v.875h.856v-.875h1.426v.875h.856v-.875h1.725v.875h.855v-.875h1.427v.875h.855v-.875h1.426v.875h.856v-.875h1.426v.875h.856v-.875H149.1v.875h.856v-.875h1.426v.875h.856v-.875h1.457v.875h.855v-.875h1.427v.875h.855v-.875h1.427v.875h.855v-.875h1.426v.875h.856v-.875h1.426v.875h.856v-.875H165.1v.875h.856v-.875h.96v.875h.855v-.875H169.2v.875h.856v-.875h1.426v.875h.856v-.875h1.426v.875h.856v-.875h1.426v.875h.856v-.875h1.426v.875h.856v-.875h.862Z" transform="translate(-109.607 -122.813)"/>
                </g>
              </g>
            </g>
            <rect id="Rectángulo_383890" data-name="Rectángulo 383890" width="70.439" height="26.506" transform="translate(59.7 66.96)" fill="#263238"/>
            <rect id="Rectángulo_383891" data-name="Rectángulo 383891" width="0.856" height="2.203" transform="translate(62.346 92.138)" fill="#e0e0e0"/>
            <rect id="Rectángulo_383892" data-name="Rectángulo 383892" width="0.855" height="2.203" transform="translate(64.628 92.138)" fill="#e0e0e0"/>
            <rect id="Rectángulo_383893" data-name="Rectángulo 383893" width="0.855" height="2.203" transform="translate(66.91 92.138)" fill="#e0e0e0"/>
            <rect id="Rectángulo_383894" data-name="Rectángulo 383894" width="0.856" height="2.203" transform="translate(69.192 92.138)" fill="#e0e0e0"/>
            <rect id="Rectángulo_383895" data-name="Rectángulo 383895" width="0.856" height="2.203" transform="translate(71.474 92.138)" fill="#e0e0e0"/>
            <rect id="Rectángulo_383896" data-name="Rectángulo 383896" width="0.856" height="2.203" transform="translate(73.756 92.138)" fill="#e0e0e0"/>
            <rect id="Rectángulo_383897" data-name="Rectángulo 383897" width="0.856" height="2.203" transform="translate(76.069 92.138)" fill="#e0e0e0"/>
            <rect id="Rectángulo_383898" data-name="Rectángulo 383898" width="0.855" height="2.203" transform="translate(78.352 92.138)" fill="#e0e0e0"/>
            <rect id="Rectángulo_383899" data-name="Rectángulo 383899" width="0.856" height="2.203" transform="translate(80.633 92.138)" fill="#e0e0e0"/>
            <rect id="Rectángulo_383900" data-name="Rectángulo 383900" width="0.856" height="2.203" transform="translate(82.915 92.138)" fill="#e0e0e0"/>
            <rect id="Rectángulo_383901" data-name="Rectángulo 383901" width="0.856" height="2.203" transform="translate(85.198 92.138)" fill="#e0e0e0"/>
            <rect id="Rectángulo_383902" data-name="Rectángulo 383902" width="0.856" height="2.203" transform="translate(87.48 92.138)" fill="#e0e0e0"/>
            <rect id="Rectángulo_383903" data-name="Rectángulo 383903" width="0.856" height="2.203" transform="translate(90.061 92.138)" fill="#e0e0e0"/>
            <rect id="Rectángulo_383904" data-name="Rectángulo 383904" width="0.856" height="2.203" transform="translate(92.343 92.138)" fill="#e0e0e0"/>
            <rect id="Rectángulo_383905" data-name="Rectángulo 383905" width="0.856" height="2.203" transform="translate(94.625 92.138)" fill="#e0e0e0"/>
            <rect id="Rectángulo_383906" data-name="Rectángulo 383906" width="0.856" height="2.203" transform="translate(96.907 92.138)" fill="#e0e0e0"/>
            <rect id="Rectángulo_383907" data-name="Rectángulo 383907" width="0.856" height="2.203" transform="translate(99.189 92.138)" fill="#e0e0e0"/>
            <rect id="Rectángulo_383908" data-name="Rectángulo 383908" width="0.856" height="2.203" transform="translate(101.471 92.138)" fill="#e0e0e0"/>
            <rect id="Rectángulo_383909" data-name="Rectángulo 383909" width="0.856" height="2.203" transform="translate(103.784 92.138)" fill="#e0e0e0"/>
            <rect id="Rectángulo_383910" data-name="Rectángulo 383910" width="0.856" height="2.203" transform="translate(106.066 92.138)" fill="#e0e0e0"/>
            <rect id="Rectángulo_383911" data-name="Rectángulo 383911" width="0.855" height="2.203" transform="translate(108.349 92.138)" fill="#e0e0e0"/>
            <rect id="Rectángulo_383912" data-name="Rectángulo 383912" width="0.856" height="2.203" transform="translate(110.63 92.138)" fill="#e0e0e0"/>
            <rect id="Rectángulo_383913" data-name="Rectángulo 383913" width="0.856" height="2.203" transform="translate(112.912 92.138)" fill="#e0e0e0"/>
            <rect id="Rectángulo_383914" data-name="Rectángulo 383914" width="0.856" height="2.203" transform="translate(115.195 92.138)" fill="#e0e0e0"/>
            <rect id="Rectángulo_383915" data-name="Rectángulo 383915" width="0.856" height="2.203" transform="translate(117.011 92.138)" fill="#e0e0e0"/>
            <rect id="Rectángulo_383916" data-name="Rectángulo 383916" width="0.856" height="2.203" transform="translate(119.293 92.138)" fill="#e0e0e0"/>
            <rect id="Rectángulo_383917" data-name="Rectángulo 383917" width="0.856" height="2.203" transform="translate(121.575 92.138)" fill="#e0e0e0"/>
            <rect id="Rectángulo_383918" data-name="Rectángulo 383918" width="0.856" height="2.203" transform="translate(123.857 92.138)" fill="#e0e0e0"/>
            <rect id="Rectángulo_383919" data-name="Rectángulo 383919" width="0.856" height="2.203" transform="translate(126.139 92.138)" fill="#e0e0e0"/>
            <rect id="Rectángulo_383920" data-name="Rectángulo 383920" width="0.856" height="2.203" transform="translate(128.421 92.138)" fill="#e0e0e0"/>
            <path id="Trazado_828497" data-name="Trazado 828497" d="M226.505,142.845c-.081,0-.146-4.46-.146-9.96s.065-9.961.146-9.961.146,4.459.146,9.961-.065,9.96-.146,9.96" transform="translate(-98.963 -53.742)" fill="#455a64"/>
            <path id="Trazado_828498" data-name="Trazado 828498" d="M224.366,130.524a16.7,16.7,0,0,1-.147-3.12,16.7,16.7,0,0,1,.147-3.12,16.734,16.734,0,0,1,.146,3.12,16.734,16.734,0,0,1-.146,3.12" transform="translate(-98.027 -54.337)" fill="#455a64"/>
            <path id="Trazado_828499" data-name="Trazado 828499" d="M172.8,158.928c0,.081-.379.146-.847.146s-.847-.065-.847-.146.379-.146.847-.146.847.065.847.146" transform="translate(-74.808 -69.418)" fill="#455a64"/>
            <path id="Trazado_828500" data-name="Trazado 828500" d="M178.385,158.928c0,.081-.379.146-.847.146s-.847-.065-.847-.146.379-.146.847-.146.847.065.847.146" transform="translate(-77.248 -69.418)" fill="#455a64"/>
            <path id="Trazado_828501" data-name="Trazado 828501" d="M183.966,158.928c0,.081-.379.146-.847.146s-.847-.065-.847-.146.379-.146.847-.146.847.065.847.146" transform="translate(-79.688 -69.418)" fill="#455a64"/>
            <path id="Trazado_828502" data-name="Trazado 828502" d="M189.547,158.928c0,.081-.379.146-.847.146s-.847-.065-.847-.146.379-.146.847-.146.847.065.847.146" transform="translate(-82.128 -69.418)" fill="#455a64"/>
            <path id="Trazado_828503" data-name="Trazado 828503" d="M195.128,158.928c0,.081-.379.146-.847.146s-.847-.065-.847-.146.379-.146.847-.146.847.065.847.146" transform="translate(-84.568 -69.418)" fill="#455a64"/>
            <path id="Trazado_828504" data-name="Trazado 828504" d="M200.709,158.928c0,.081-.379.146-.847.146s-.847-.065-.847-.146.379-.146.847-.146.847.065.847.146" transform="translate(-87.008 -69.418)" fill="#455a64"/>
            <path id="Trazado_828505" data-name="Trazado 828505" d="M206.29,158.928c0,.081-.379.146-.847.146s-.847-.065-.847-.146.379-.146.847-.146.847.065.847.146" transform="translate(-89.448 -69.418)" fill="#455a64"/>
            <path id="Trazado_828506" data-name="Trazado 828506" d="M211.871,158.928c0,.081-.379.146-.847.146s-.847-.065-.847-.146.379-.146.847-.146.847.065.847.146" transform="translate(-91.888 -69.418)" fill="#455a64"/>
            <g id="Grupo_1074835" data-name="Grupo 1074835" transform="translate(41.221 21.516)" opacity="0.3">
              <g id="Grupo_1074834" data-name="Grupo 1074834" transform="translate(0)">
                <g id="Grupo_1074833" data-name="Grupo 1074833" clip-path="url(#clip-path-7)">
                  <rect id="Rectángulo_383921" data-name="Rectángulo 383921" width="10.665" height="40.083" transform="translate(0)"/>
                </g>
              </g>
            </g>
            <rect id="Rectángulo_383923" data-name="Rectángulo 383923" width="10.665" height="40.083" transform="translate(38.288 20.932)" fill="#263238"/>
            <rect id="Rectángulo_383924" data-name="Rectángulo 383924" width="2.203" height="0.856" transform="translate(36.818 21.703)" fill="#e0e0e0"/>
            <rect id="Rectángulo_383925" data-name="Rectángulo 383925" width="2.203" height="0.856" transform="translate(36.818 23.978)" fill="#e0e0e0"/>
            <rect id="Rectángulo_383926" data-name="Rectángulo 383926" width="2.203" height="0.856" transform="translate(36.818 26.253)" fill="#e0e0e0"/>
            <rect id="Rectángulo_383927" data-name="Rectángulo 383927" width="2.203" height="0.856" transform="translate(36.818 28.528)" fill="#e0e0e0"/>
            <rect id="Rectángulo_383928" data-name="Rectángulo 383928" width="2.203" height="0.856" transform="translate(36.818 30.802)" fill="#e0e0e0"/>
            <rect id="Rectángulo_383929" data-name="Rectángulo 383929" width="2.203" height="0.856" transform="translate(36.818 33.077)" fill="#e0e0e0"/>
            <rect id="Rectángulo_383930" data-name="Rectángulo 383930" width="2.203" height="0.856" transform="translate(36.818 35.352)" fill="#e0e0e0"/>
            <rect id="Rectángulo_383931" data-name="Rectángulo 383931" width="2.203" height="0.856" transform="translate(36.818 37.627)" fill="#e0e0e0"/>
            <rect id="Rectángulo_383932" data-name="Rectángulo 383932" width="2.203" height="0.856" transform="translate(36.818 39.902)" fill="#e0e0e0"/>
            <rect id="Rectángulo_383933" data-name="Rectángulo 383933" width="2.203" height="0.856" transform="translate(36.818 42.177)" fill="#e0e0e0"/>
            <rect id="Rectángulo_383934" data-name="Rectángulo 383934" width="2.203" height="0.856" transform="translate(36.818 44.452)" fill="#e0e0e0"/>
            <rect id="Rectángulo_383935" data-name="Rectángulo 383935" width="2.203" height="0.856" transform="translate(36.818 46.727)" fill="#e0e0e0"/>
            <rect id="Rectángulo_383936" data-name="Rectángulo 383936" width="2.203" height="0.856" transform="translate(36.818 49.002)" fill="#e0e0e0"/>
            <rect id="Rectángulo_383937" data-name="Rectángulo 383937" width="2.203" height="0.856" transform="translate(36.818 51.277)" fill="#e0e0e0"/>
            <rect id="Rectángulo_383938" data-name="Rectángulo 383938" width="2.203" height="0.856" transform="translate(36.818 53.552)" fill="#e0e0e0"/>
            <rect id="Rectángulo_383939" data-name="Rectángulo 383939" width="2.203" height="0.856" transform="translate(36.818 55.826)" fill="#e0e0e0"/>
            <rect id="Rectángulo_383940" data-name="Rectángulo 383940" width="2.203" height="0.856" transform="translate(36.818 58.101)" fill="#e0e0e0"/>
            <path id="Trazado_828507" data-name="Trazado 828507" d="M82.937,40.29a.987.987,0,1,1-.988-.988.988.988,0,0,1,.988.988" transform="translate(-35.396 -17.183)" fill="#455a64"/>
            <rect id="Rectángulo_383941" data-name="Rectángulo 383941" width="29.658" height="29.659" transform="translate(92.748 26.144)" fill="#263238"/>
            <rect id="Rectángulo_383942" data-name="Rectángulo 383942" width="0.856" height="2.203" transform="translate(94.625 25.043)" fill="#e0e0e0"/>
            <rect id="Rectángulo_383943" data-name="Rectángulo 383943" width="0.856" height="2.203" transform="translate(96.907 25.043)" fill="#e0e0e0"/>
            <rect id="Rectángulo_383944" data-name="Rectángulo 383944" width="0.856" height="2.203" transform="translate(99.189 25.043)" fill="#e0e0e0"/>
            <rect id="Rectángulo_383945" data-name="Rectángulo 383945" width="0.856" height="2.203" transform="translate(101.471 25.043)" fill="#e0e0e0"/>
            <rect id="Rectángulo_383946" data-name="Rectángulo 383946" width="0.856" height="2.203" transform="translate(103.753 25.043)" fill="#e0e0e0"/>
            <rect id="Rectángulo_383947" data-name="Rectángulo 383947" width="0.856" height="2.203" transform="translate(106.035 25.043)" fill="#e0e0e0"/>
            <rect id="Rectángulo_383948" data-name="Rectángulo 383948" width="0.855" height="2.203" transform="translate(108.349 25.043)" fill="#e0e0e0"/>
            <rect id="Rectángulo_383949" data-name="Rectángulo 383949" width="0.856" height="2.203" transform="translate(110.63 25.043)" fill="#e0e0e0"/>
            <rect id="Rectángulo_383950" data-name="Rectángulo 383950" width="0.856" height="2.203" transform="translate(112.912 25.043)" fill="#e0e0e0"/>
            <rect id="Rectángulo_383951" data-name="Rectángulo 383951" width="0.856" height="2.203" transform="translate(115.195 25.043)" fill="#e0e0e0"/>
            <rect id="Rectángulo_383952" data-name="Rectángulo 383952" width="0.856" height="2.203" transform="translate(117.477 25.043)" fill="#e0e0e0"/>
            <rect id="Rectángulo_383953" data-name="Rectángulo 383953" width="0.856" height="2.203" transform="translate(119.759 25.043)" fill="#e0e0e0"/>
            <rect id="Rectángulo_383954" data-name="Rectángulo 383954" width="0.856" height="2.203" transform="translate(94.625 54.779)" fill="#e0e0e0"/>
            <rect id="Rectángulo_383955" data-name="Rectángulo 383955" width="0.856" height="2.203" transform="translate(96.907 54.779)" fill="#e0e0e0"/>
            <rect id="Rectángulo_383956" data-name="Rectángulo 383956" width="0.856" height="2.203" transform="translate(99.189 54.779)" fill="#e0e0e0"/>
            <rect id="Rectángulo_383957" data-name="Rectángulo 383957" width="0.856" height="2.203" transform="translate(101.471 54.779)" fill="#e0e0e0"/>
            <rect id="Rectángulo_383958" data-name="Rectángulo 383958" width="0.856" height="2.203" transform="translate(103.753 54.779)" fill="#e0e0e0"/>
            <rect id="Rectángulo_383959" data-name="Rectángulo 383959" width="0.856" height="2.203" transform="translate(106.035 54.779)" fill="#e0e0e0"/>
            <rect id="Rectángulo_383960" data-name="Rectángulo 383960" width="0.855" height="2.203" transform="translate(108.349 54.779)" fill="#e0e0e0"/>
            <rect id="Rectángulo_383961" data-name="Rectángulo 383961" width="0.856" height="2.203" transform="translate(110.63 54.779)" fill="#e0e0e0"/>
            <rect id="Rectángulo_383962" data-name="Rectángulo 383962" width="0.856" height="2.203" transform="translate(112.912 54.779)" fill="#e0e0e0"/>
            <rect id="Rectángulo_383963" data-name="Rectángulo 383963" width="0.856" height="2.203" transform="translate(115.195 54.779)" fill="#e0e0e0"/>
            <rect id="Rectángulo_383964" data-name="Rectángulo 383964" width="0.856" height="2.203" transform="translate(117.477 54.779)" fill="#e0e0e0"/>
            <rect id="Rectángulo_383965" data-name="Rectángulo 383965" width="0.856" height="2.203" transform="translate(119.759 54.779)" fill="#e0e0e0"/>
            <rect id="Rectángulo_383966" data-name="Rectángulo 383966" width="2.203" height="0.856" transform="translate(91.567 53.841)" fill="#e0e0e0"/>
            <rect id="Rectángulo_383967" data-name="Rectángulo 383967" width="2.203" height="0.856" transform="translate(91.567 51.56)" fill="#e0e0e0"/>
            <rect id="Rectángulo_383968" data-name="Rectángulo 383968" width="2.203" height="0.856" transform="translate(91.567 49.278)" fill="#e0e0e0"/>
            <rect id="Rectángulo_383969" data-name="Rectángulo 383969" width="2.203" height="0.856" transform="translate(91.567 46.995)" fill="#e0e0e0"/>
            <rect id="Rectángulo_383970" data-name="Rectángulo 383970" width="2.203" height="0.856" transform="translate(91.567 44.713)" fill="#e0e0e0"/>
            <rect id="Rectángulo_383971" data-name="Rectángulo 383971" width="2.203" height="0.855" transform="translate(91.567 42.432)" fill="#e0e0e0"/>
            <rect id="Rectángulo_383972" data-name="Rectángulo 383972" width="2.203" height="0.856" transform="translate(91.567 40.118)" fill="#e0e0e0"/>
            <rect id="Rectángulo_383973" data-name="Rectángulo 383973" width="2.203" height="0.856" transform="translate(91.567 37.836)" fill="#e0e0e0"/>
            <rect id="Rectángulo_383974" data-name="Rectángulo 383974" width="2.203" height="0.856" transform="translate(91.567 35.554)" fill="#e0e0e0"/>
            <rect id="Rectángulo_383975" data-name="Rectángulo 383975" width="2.203" height="0.856" transform="translate(91.567 33.272)" fill="#e0e0e0"/>
            <rect id="Rectángulo_383976" data-name="Rectángulo 383976" width="2.203" height="0.856" transform="translate(91.567 30.99)" fill="#e0e0e0"/>
            <rect id="Rectángulo_383977" data-name="Rectángulo 383977" width="2.203" height="0.856" transform="translate(91.567 28.708)" fill="#e0e0e0"/>
            <rect id="Rectángulo_383978" data-name="Rectángulo 383978" width="2.203" height="0.856" transform="translate(121.303 53.841)" fill="#e0e0e0"/>
            <rect id="Rectángulo_383979" data-name="Rectángulo 383979" width="2.203" height="0.856" transform="translate(121.303 51.56)" fill="#e0e0e0"/>
            <rect id="Rectángulo_383980" data-name="Rectángulo 383980" width="2.203" height="0.856" transform="translate(121.303 49.278)" fill="#e0e0e0"/>
            <rect id="Rectángulo_383981" data-name="Rectángulo 383981" width="2.203" height="0.856" transform="translate(121.303 46.995)" fill="#e0e0e0"/>
            <rect id="Rectángulo_383982" data-name="Rectángulo 383982" width="2.203" height="0.856" transform="translate(121.303 44.713)" fill="#e0e0e0"/>
            <rect id="Rectángulo_383983" data-name="Rectángulo 383983" width="2.203" height="0.855" transform="translate(121.303 42.432)" fill="#e0e0e0"/>
            <rect id="Rectángulo_383984" data-name="Rectángulo 383984" width="2.203" height="0.856" transform="translate(121.303 40.118)" fill="#e0e0e0"/>
            <rect id="Rectángulo_383985" data-name="Rectángulo 383985" width="2.203" height="0.856" transform="translate(121.303 37.836)" fill="#e0e0e0"/>
            <rect id="Rectángulo_383986" data-name="Rectángulo 383986" width="2.203" height="0.856" transform="translate(121.303 35.554)" fill="#e0e0e0"/>
            <rect id="Rectángulo_383987" data-name="Rectángulo 383987" width="2.203" height="0.856" transform="translate(121.303 33.272)" fill="#e0e0e0"/>
            <rect id="Rectángulo_383988" data-name="Rectángulo 383988" width="2.203" height="0.856" transform="translate(121.303 30.99)" fill="#e0e0e0"/>
            <rect id="Rectángulo_383989" data-name="Rectángulo 383989" width="2.203" height="0.856" transform="translate(121.303 28.708)" fill="#e0e0e0"/>
            <path id="Trazado_828508" data-name="Trazado 828508" d="M175.623,54.811a2.282,2.282,0,1,1-2.282-2.282,2.282,2.282,0,0,1,2.282,2.282" transform="translate(-74.786 -22.965)" fill="#455a64"/>
            <path id="Trazado_828509" data-name="Trazado 828509" d="M211.294,74.632a46.174,46.174,0,0,1,.146,5.2,46.18,46.18,0,0,1-.146,5.2,46.184,46.184,0,0,1-.146-5.2,46.178,46.178,0,0,1,.146-5.2" transform="translate(-92.313 -32.629)" fill="#455a64"/>
            <path id="Trazado_828510" data-name="Trazado 828510" d="M211.491,70.4c.081,0,.146.308.146.687s-.065.687-.146.687-.146-.307-.146-.687.065-.687.146-.687" transform="translate(-92.399 -30.779)" fill="#455a64"/>
            <path id="Trazado_828511" data-name="Trazado 828511" d="M247.3,220.568a3.552,3.552,0,1,1,3.551-3.551,3.555,3.555,0,0,1-3.551,3.551m0-6.54a2.989,2.989,0,1,0,2.989,2.99,2.992,2.992,0,0,0-2.989-2.99" transform="translate(-106.565 -93.326)" fill="#263238"/>
          </g>
        </g>
        <g id="Grupo_1074857" data-name="Grupo 1074857">
          <g id="Grupo_1074856" data-name="Grupo 1074856" clip-path="url(#clip-path-2)">
            <path id="Trazado_828512" data-name="Trazado 828512" d="M412.19,326.163a6.029,6.029,0,0,0,2.69-4.407,7.395,7.395,0,0,1-10.118-5.63l-9.032.024a30.8,30.8,0,0,1-2.293,14.555c-.456,1.08-.967,2.352-.369,3.36a3.614,3.614,0,0,0,2.708,1.3c4.694.747,9.562,1.486,14.141.214s8.8-5.148,8.866-9.9a6.832,6.832,0,0,1-6.593.481" transform="translate(-171.728 -138.208)" fill="#263238"/>
            <path id="Trazado_828513" data-name="Trazado 828513" d="M224.664,404.65v8.207h1.67v-8.013Z" transform="translate(-98.222 -176.91)" fill="#455a64"/>
            <path id="Trazado_828514" data-name="Trazado 828514" d="M193.458,398.563,142.924,388.7l-.222-4.761,51.68,9.895Z" transform="translate(-62.388 -167.854)" fill="#455a64"/>
            <path id="Trazado_828515" data-name="Trazado 828515" d="M155.613,392.8v14.874h1.67V393.154Z" transform="translate(-68.033 -171.731)" fill="#455a64"/>
            <path id="Trazado_828516" data-name="Trazado 828516" d="M371.935,193.58c-.5-16.011-.005-28.45-1.894-44.358-.234-1.964-1.16-6.942-2.717-9.2-1.223-1.777-4.885-4.509-7.54-2.864l-2.205,2.449c.773,4.59,1.535,9.383.155,13.829-1.221,3.932-4.028,7.25-5.075,11.232-.881,3.353-.444,6.895.033,10.329q1.117,8.042,2.477,16.047a10.78,10.78,0,0,0,1.8,5.1c2.058,2.548,5.816,2.706,9.09,2.65,2-.034,4.354-.264,5.368-1.987a5.918,5.918,0,0,0,.505-3.22" transform="translate(-153.958 -59.741)" fill="#263238"/>
            <path id="Trazado_828517" data-name="Trazado 828517" d="M362.735,136.4a6.46,6.46,0,0,0-1.921-2.93,1.8,1.8,0,0,0-2.714.517l.137.23c-.517-.272-1.1.252-1.254.9a4.545,4.545,0,0,0,.153,2.013l1.972,8.577a4.7,4.7,0,0,0,.849,2.091,1.8,1.8,0,0,0,2.453.162,4.565,4.565,0,0,0,1.432-2.562c.722-2.923.021-6.177-1.106-8.994" transform="translate(-156.043 -58.179)" fill="#455a64"/>
            <path id="Trazado_828518" data-name="Trazado 828518" d="M311.834,113.059c-4.846-8.691-12.689-14-27.7-14.116-15.974-.126-39.688,19.94-21.383,41.935l48.185,12.929c4.553-1.835,6.579-7.172,7.181-12.045,1.221-9.881-1.435-20.008-6.282-28.7" transform="translate(-111.973 -43.257)" fill="#263238"/>
            <path id="Trazado_828519" data-name="Trazado 828519" d="M307.4,122.934l-.974-4.642-28.971,1.118c-8.766,1.068-16.043,11.777-14.6,20.49,1.6,9.681,3.931,21.437,6.7,28.3,5.573,13.792,16.965,13.085,16.965,13.085l3.336,14.2,31.752-6.9Z" transform="translate(-114.836 -51.717)" fill="#ffbe9d"/>
            <path id="Trazado_828520" data-name="Trazado 828520" d="M273.6,175.807a1.884,1.884,0,0,0,2.2,1.444,1.8,1.8,0,0,0,1.511-2.091,1.884,1.884,0,0,0-2.2-1.446,1.8,1.8,0,0,0-1.513,2.093" transform="translate(-119.601 -75.934)" fill="#263238"/>
            <path id="Trazado_828521" data-name="Trazado 828521" d="M270.373,166.386c.22.166,1.681-.2,3.685.1,2,.278,3.427,1.055,3.655.952.113-.043-.1-.317-.722-.665a8.724,8.724,0,0,0-2.913-.927,7.808,7.808,0,0,0-2.947.09c-.639.169-.868.378-.759.454" transform="translate(-118.194 -72.464)" fill="#263238"/>
            <path id="Trazado_828522" data-name="Trazado 828522" d="M307.135,168.448a1.884,1.884,0,0,0,2.2,1.444,1.8,1.8,0,0,0,1.511-2.091,1.885,1.885,0,0,0-2.2-1.446,1.8,1.8,0,0,0-1.513,2.093" transform="translate(-134.264 -72.716)" fill="#263238"/>
            <path id="Trazado_828523" data-name="Trazado 828523" d="M303.8,160.153c.313-.009,1.428-1.316,3.476-2.432s3.869-1.44,4.013-1.684c.074-.113-.3-.2-1.106-.073a10.732,10.732,0,0,0-3.307,1.2,9.57,9.57,0,0,0-2.671,2.086c-.48.579-.555.914-.405.9" transform="translate(-132.789 -68.159)" fill="#263238"/>
            <path id="Trazado_828524" data-name="Trazado 828524" d="M294.567,174.973a13.44,13.44,0,0,0-3.342.161c-.516.064-1.017.074-1.181-.251a2.634,2.634,0,0,1-.008-1.573q.289-2,.607-4.185c.811-5.947,1.274-10.791,1.034-10.821s-1.092,4.765-1.9,10.712q-.281,2.195-.538,4.193a3,3,0,0,0,.194,2.041,1.3,1.3,0,0,0,1,.546,3.526,3.526,0,0,0,.884-.079,13.19,13.19,0,0,0,3.254-.745" transform="translate(-126.414 -69.209)" fill="#263238"/>
            <path id="Trazado_828525" data-name="Trazado 828525" d="M305.071,222.758a38.9,38.9,0,0,0,18.476-9.676s-2.525,11.138-17.644,13.243Z" transform="translate(-133.375 -93.158)" fill="#eb996e"/>
            <path id="Trazado_828526" data-name="Trazado 828526" d="M300.093,140.968c.319.492,2.233-.217,4.614-.472,2.378-.3,4.4-.055,4.6-.608.084-.262-.358-.692-1.234-1.038a8.063,8.063,0,0,0-7.02.822c-.772.539-1.1,1.06-.961,1.3" transform="translate(-131.185 -60.505)" fill="#263238"/>
            <path id="Trazado_828527" data-name="Trazado 828527" d="M268.365,155.131c.451.368,1.7-.411,3.336-.81,1.618-.456,3.092-.4,3.3-.938.087-.26-.235-.66-.939-.944a4.97,4.97,0,0,0-5.349,1.408c-.472.594-.556,1.1-.352,1.284" transform="translate(-117.282 -66.523)" fill="#263238"/>
            <path id="Trazado_828528" data-name="Trazado 828528" d="M342.833,157.071c.171-.149,6.331-5.169,8.621,2.869s-6.252,8.679-6.332,8.452-2.29-11.321-2.29-11.321" transform="translate(-149.885 -67.934)" fill="#ffbe9d"/>
            <path id="Trazado_828529" data-name="Trazado 828529" d="M348.9,166.524c.028-.035.168.059.436.1a1.454,1.454,0,0,0,1.052-.276c.76-.554,1.091-2.106.718-3.565a4.805,4.805,0,0,0-.964-1.893,1.682,1.682,0,0,0-1.359-.774.741.741,0,0,0-.717.619c-.043.256.053.4.015.427-.017.026-.211-.086-.241-.436a.93.93,0,0,1,.173-.594,1.1,1.1,0,0,1,.716-.425,2.045,2.045,0,0,1,1.818.83,4.934,4.934,0,0,1,1.123,2.1c.41,1.634.013,3.386-1.053,4.053a1.559,1.559,0,0,1-1.342.152c-.305-.127-.4-.295-.375-.318" transform="translate(-152.071 -69.811)" fill="#eb996e"/>
            <path id="Trazado_828530" data-name="Trazado 828530" d="M289.216,110.472a3.137,3.137,0,0,0-1.187-.385,26.782,26.782,0,0,0-15.326,1.647,21.008,21.008,0,0,0-10.885,10.711c-2.045,4.795-3.915,12.279-1.351,16.818l2.029,3.451c-.484-3.518.258-10.188,1.665-13.447a14.435,14.435,0,0,1,7.2-7.515c3.256-1.442,6.942-1.44,10.424-2.184s7.156-2.653,8.143-6.074a2.688,2.688,0,0,0-.71-3.021" transform="translate(-113.33 -47.937)" fill="#263238"/>
            <path id="Trazado_828531" data-name="Trazado 828531" d="M313.3,109.966a27.706,27.706,0,0,0-1.784,7.955,9.358,9.358,0,0,0,2.87,7.377c1.988,1.7,4.72,2.12,7.262,2.724s2.274,2.091,3.5,4.4c.383.722,2.679,8.24,3.4,8.618.994.518,3.5-5.093,3.856-6.157s-.2-4.54-.481-5.625c-.872-3.367-1.145-8.466-2.017-11.833-.738-2.852-2.181-4.054-4.114-6.278-2.7-3.109-6.584-3.277-11.718-1.6" transform="translate(-136.191 -47.432)" fill="#263238"/>
            <path id="Trazado_828532" data-name="Trazado 828532" d="M259.069,158.3s.01.028.024.077.034.129.059.223c.053.207.127.5.225.885.2.778.488,1.925.882,3.4s.885,3.272,1.56,5.327a19.188,19.188,0,0,0,1.286,3.2c.084.124.161.253.251.375s.2.232.316.338a5.03,5.03,0,0,0,.734.593,6.139,6.139,0,0,0,1.784.81,8.529,8.529,0,0,0,4.191.012,6.173,6.173,0,0,0,2.064-.844,6.572,6.572,0,0,0,1.675-1.6,11.622,11.622,0,0,0,1.908-4.5,4.715,4.715,0,0,1,.371-1.257,2.147,2.147,0,0,1,.9-1.009,1.547,1.547,0,0,1,1.368.047,3.562,3.562,0,0,1,1.079.85c.32.325.565.735.857,1.067a5.149,5.149,0,0,0,.968.93,9.493,9.493,0,0,0,2.445,1.271,17.459,17.459,0,0,0,5.623.985,16.507,16.507,0,0,0,2.934-.208,6.427,6.427,0,0,0,.729-.14c.24-.061.488-.1.723-.179l.712-.225c.226-.1.457-.186.676-.308a35.429,35.429,0,0,0,4.989-3.555q1.851-1.515,3.6-3.081l-.034.118c-1.22-4.374-2.4-8.6-3.505-12.562l.132.079-29.76,6.393-8.639,1.84-2.317.487-.6.123c-.136.027-.209.038-.209.038s.063-.019.192-.049l.586-.134,2.287-.51,8.6-1.894,29.812-6.513.1-.023.028.1c1.11,3.966,2.291,8.186,3.515,12.559l.02.07-.053.048q-1.75,1.569-3.608,3.089a35.43,35.43,0,0,1-5.031,3.579c-.223.124-.468.217-.7.32l-.728.23c-.24.084-.492.12-.737.182a6.548,6.548,0,0,1-.741.142,16.739,16.739,0,0,1-2.976.209,17.694,17.694,0,0,1-5.7-1,9.737,9.737,0,0,1-2.5-1.306,5.448,5.448,0,0,1-1.006-.971c-.309-.356-.53-.734-.843-1.055a3.361,3.361,0,0,0-1.013-.8,1.331,1.331,0,0,0-1.182-.051,1.945,1.945,0,0,0-.808.911,4.541,4.541,0,0,0-.356,1.208,11.793,11.793,0,0,1-1.955,4.573,6.773,6.773,0,0,1-1.728,1.639,6.376,6.376,0,0,1-2.126.863,8.7,8.7,0,0,1-4.276-.028,6.31,6.31,0,0,1-1.827-.839,5.136,5.136,0,0,1-.754-.614c-.119-.109-.217-.235-.325-.35-.093-.128-.176-.265-.262-.4a18.926,18.926,0,0,1-1.283-3.233c-.665-2.064-1.136-3.87-1.524-5.345s-.657-2.627-.839-3.409l-.2-.89c-.02-.1-.035-.172-.047-.23s-.012-.075-.012-.075" transform="translate(-113.263 -65.22)" fill="#263238"/>
            <path id="Trazado_828533" data-name="Trazado 828533" d="M264.557,179.54c-.062.016-.813-2.658-1.676-5.971s-1.512-6.015-1.449-6.031.813,2.657,1.676,5.972,1.512,6.014,1.449,6.031" transform="translate(-114.295 -73.246)" fill="#fafafa"/>
            <path id="Trazado_828534" data-name="Trazado 828534" d="M283.268,170.4c.06.025-.763,2.071-1.836,4.567s-1.992,4.5-2.052,4.475.763-2.07,1.836-4.567,1.992-4.5,2.051-4.475" transform="translate(-122.142 -74.5)" fill="#fafafa"/>
            <path id="Trazado_828535" data-name="Trazado 828535" d="M287.679,165.108a7.248,7.248,0,0,1-.395,1.3c-.277.791-.689,1.874-1.186,3.053s-.985,2.23-1.357,2.981a7.221,7.221,0,0,1-.655,1.19,8.478,8.478,0,0,1,.5-1.26l1.292-3,1.246-3.021a8.417,8.417,0,0,1,.55-1.241" transform="translate(-124.199 -72.184)" fill="#fafafa"/>
            <path id="Trazado_828536" data-name="Trazado 828536" d="M322.64,156.883a1.79,1.79,0,0,1-.159.439c-.117.276-.292.673-.513,1.161-.442.975-1.068,2.315-1.772,3.789-1.131,2.367-2.12,4.359-2.485,5.016l-.125.224.056-.246a.162.162,0,1,1,.072.012l-.069-.022c.281-.7,1.209-2.718,2.339-5.085.7-1.474,1.354-2.8,1.834-3.76.24-.478.438-.864.58-1.128a1.808,1.808,0,0,1,.241-.4" transform="translate(-138.847 -68.588)" fill="#fafafa"/>
            <path id="Trazado_828537" data-name="Trazado 828537" d="M325.122,160.04a43.167,43.167,0,0,1-1.837,4.111,43.154,43.154,0,0,1-2.049,4.009,43.381,43.381,0,0,1,1.838-4.111,43.437,43.437,0,0,1,2.049-4.009" transform="translate(-140.441 -69.968)" fill="#fafafa"/>
            <path id="Trazado_828538" data-name="Trazado 828538" d="M313.926,180.789a2.674,2.674,0,0,1-.485.3,5.067,5.067,0,0,1-.6.3,8.364,8.364,0,0,1-.821.342,9.332,9.332,0,0,1-1.027.329,12.375,12.375,0,0,1-1.209.27,13,13,0,0,1-5.633-.292,12.284,12.284,0,0,1-1.176-.393,9.4,9.4,0,0,1-.988-.433,8.45,8.45,0,0,1-.781-.425,5,5,0,0,1-.563-.364,2.587,2.587,0,0,1-.451-.351c.028-.041.683.445,1.866.991a10.166,10.166,0,0,0,.985.4c.356.142.751.246,1.163.367a13.6,13.6,0,0,0,5.543.287c.422-.078.827-.14,1.195-.245a10.18,10.18,0,0,0,1.021-.3c1.233-.42,1.935-.836,1.959-.792" transform="translate(-131.243 -78.728)" fill="#fafafa"/>
            <path id="Trazado_828539" data-name="Trazado 828539" d="M336.254,162.069a1.406,1.406,0,0,1-.074-.218c-.051-.171-.117-.391-.2-.666-.178-.613-.428-1.467-.738-2.529-.631-2.207-1.509-5.277-2.524-8.829l-.056-.2.2.058,4.894,1.446,3.68,1.094.065.02.014.066,1.4,6.572.016.073-.067.032-4.833,2.27-1.32.609-.341.154a.534.534,0,0,1-.113.044.878.878,0,0,1,.124-.07l.35-.18,1.321-.662,4.73-2.335-.051.1c-.42-1.913-.909-4.139-1.441-6.563l.079.085-3.681-1.088-4.891-1.455.14-.138,2.395,8.778.687,2.574c.075.288.134.519.181.7a2.169,2.169,0,0,1,.057.253" transform="translate(-145.437 -65.418)" fill="#263238"/>
            <path id="Trazado_828540" data-name="Trazado 828540" d="M258.643,157.172l-.548-2.326,41.721-9.21.654,2.627Z" transform="translate(-112.837 -63.671)" fill="#455a64"/>
            <path id="Trazado_828541" data-name="Trazado 828541" d="M332.225,145.636l8.638,2.914.547,2.292-8.532-2.579Z" transform="translate(-145.247 -63.671)" fill="#455a64"/>
            <path id="Trazado_828542" data-name="Trazado 828542" d="M308.858,194.1a2.8,2.8,0,0,0-2.828-2.2,2.921,2.921,0,0,0-2.292,1.534,3.593,3.593,0,0,0-.207,2.792l.039.2a3.185,3.185,0,0,0,3.561.864,2.976,2.976,0,0,0,1.727-3.188" transform="translate(-132.62 -83.892)" fill="#eb996e"/>
            <path id="Trazado_828543" data-name="Trazado 828543" d="M300.984,195.333c.007-.326,2.17-.16,3.85-1.891s1.623-4.052,1.927-4.045c.138-.02.38.546.33,1.522a5.406,5.406,0,0,1-1.486,3.386,4.707,4.707,0,0,1-3.218,1.446c-.911.011-1.428-.272-1.4-.419" transform="translate(-131.588 -82.803)" fill="#263238"/>
            <path id="Trazado_828544" data-name="Trazado 828544" d="M361.823,154.1a.771.771,0,0,1,.064.236c.03.156.078.387.123.686.093.6.2,1.468.28,2.548A35.023,35.023,0,0,1,361.9,166a21.464,21.464,0,0,1-1.355,4.466,27.023,27.023,0,0,1-1.773,3.369l-1.332,2.184a5.972,5.972,0,0,1-.511.787,5.512,5.512,0,0,1,.412-.844c.283-.535.718-1.294,1.252-2.231a29.909,29.909,0,0,0,1.7-3.37,22.249,22.249,0,0,0,1.316-4.415,38.46,38.46,0,0,0,.472-8.375c-.051-1.076-.129-1.944-.186-2.545a6.234,6.234,0,0,1-.074-.936" transform="translate(-156.047 -67.369)" fill="#455a64"/>
            <path id="Trazado_828545" data-name="Trazado 828545" d="M374.71,194.238a.433.433,0,0,1-.018-.129c-.006-.1-.014-.228-.023-.38q-.023-.539-.061-1.463c-.041-1.3-.1-3.129-.17-5.38-.117-4.568-.276-10.834-.453-17.756-.076-3.467-.148-6.769-.214-9.777-.03-1.5-.068-2.927-.221-4.248a14.96,14.96,0,0,0-.818-3.588,8.894,8.894,0,0,0-3.139-4.213,8.311,8.311,0,0,0-1.746-.887.414.414,0,0,1,.128.026c.083.023.207.055.366.109a6.4,6.4,0,0,1,1.315.657,8.84,8.84,0,0,1,3.269,4.233,14.961,14.961,0,0,1,.867,3.633c.165,1.334.212,2.768.249,4.271.073,3.007.153,6.309.237,9.776.143,6.923.272,13.189.367,17.758.032,2.253.059,4.085.077,5.383q0,.924.007,1.464c0,.153,0,.277-.006.381a.433.433,0,0,1-.012.13" transform="translate(-160.82 -64.012)" fill="#455a64"/>
            <path id="Trazado_828546" data-name="Trazado 828546" d="M340.24,131.077a1.351,1.351,0,0,1-.319.038l-.919.047c-.8.021-1.954.045-3.382-.007a57.593,57.593,0,0,1-11.051-1.48,39.5,39.5,0,0,1-5.889-1.781,10.362,10.362,0,0,1-4.107-2.879,6.621,6.621,0,0,1-1.459-3.051,4.882,4.882,0,0,1-.07-.922,1.285,1.285,0,0,1,.031-.32,11.948,11.948,0,0,0,.151,1.22,6.762,6.762,0,0,0,1.506,2.94,10.343,10.343,0,0,0,4.052,2.763,41.408,41.408,0,0,0,5.851,1.744,63.086,63.086,0,0,0,10.993,1.56c1.422.078,2.575.086,3.372.1l.918.007a1.393,1.393,0,0,1,.321.021" transform="translate(-136.86 -52.778)" fill="#455a64"/>
            <path id="Trazado_828547" data-name="Trazado 828547" d="M338.058,123.781a8.83,8.83,0,0,1-1.082.026c-.7,0-1.7.035-2.942.11s-2.718.2-4.362.32a48.955,48.955,0,0,1-5.367.145,21.5,21.5,0,0,1-5.309-.87,14.537,14.537,0,0,1-3.977-1.869,10.363,10.363,0,0,1-2.2-1.987,6.587,6.587,0,0,1-.48-.647,1.034,1.034,0,0,1-.145-.24,13.412,13.412,0,0,0,2.936,2.7,14.851,14.851,0,0,0,3.94,1.782,22.018,22.018,0,0,0,5.243.836,53.224,53.224,0,0,0,5.338-.122c1.642-.1,3.122-.211,4.37-.258s2.257-.048,2.954-.017c.349.01.619.036.8.05a1.02,1.02,0,0,1,.279.039" transform="translate(-136.49 -51.924)" fill="#455a64"/>
            <path id="Trazado_828548" data-name="Trazado 828548" d="M290.441,101.754a2.67,2.67,0,0,1,.695-.044,8.682,8.682,0,0,1,1.884.237,9.627,9.627,0,0,1,7.49,9.04,8.686,8.686,0,0,1-.118,1.9,2.625,2.625,0,0,1-.173.674A16.936,16.936,0,0,0,300.3,111a9.763,9.763,0,0,0-7.333-8.851,17.014,17.014,0,0,0-2.528-.393" transform="translate(-126.979 -44.467)" fill="#455a64"/>
            <path id="Trazado_828549" data-name="Trazado 828549" d="M309.082,99.3c.017-.011.124.128.306.389a11.131,11.131,0,0,1,.7,1.155,10.926,10.926,0,0,1,1.262,4.264,9.288,9.288,0,0,1-.794,4.372,8.773,8.773,0,0,1-.641,1.19c-.174.267-.277.409-.294.4-.048-.029.324-.626.743-1.668a9.935,9.935,0,0,0,.694-4.272,11.961,11.961,0,0,0-1.155-4.191c-.485-1.016-.861-1.609-.817-1.637" transform="translate(-135.127 -43.415)" fill="#455a64"/>
            <path id="Trazado_828550" data-name="Trazado 828550" d="M351.258,174.2a3.064,3.064,0,0,0-1.99,2.22,2.8,2.8,0,0,0,1.039,2.764,2.678,2.678,0,0,0,4.048-3.048,2.615,2.615,0,0,0-3.1-1.937" transform="translate(-152.674 -76.129)" fill="#ebebeb"/>
            <path id="Trazado_828551" data-name="Trazado 828551" d="M296.494,238.73l-2.208-8.642a2.151,2.151,0,0,1,1.12-2.454l30.856-15.458a1.483,1.483,0,0,1,2.1.957l2.506,9.746-49.6,72.527,1.011-19.232Z" transform="translate(-122.968 -92.693)" fill="#1682fb"/>
            <path id="Trazado_828552" data-name="Trazado 828552" d="M228.838,339.111l18.07.571,6.556-.411.409,1.459,3.7,26.595-10.043-1.413H224.395s-5.526-6.263-4.523-14.178,8.966-12.621,8.966-12.621" transform="translate(-96.073 -148.257)" fill="#455a64"/>
            <g id="Grupo_1074840" data-name="Grupo 1074840" transform="translate(124.436 192.527)" opacity="0.3">
              <g id="Grupo_1074839" data-name="Grupo 1074839" transform="translate(0)">
                <g id="Grupo_1074838" data-name="Grupo 1074838" clip-path="url(#clip-path-9)">
                  <path id="Trazado_828553" data-name="Trazado 828553" d="M235.078,345.766A4.125,4.125,0,0,0,234,343.3a4.07,4.07,0,0,0-4.124-1.056,8.184,8.184,0,0,0-3.528,2.253,18.962,18.962,0,0,0-4.622,7.542,8.264,8.264,0,0,0-.262,5.474c.834,2.146,2.1,7.79,5.505,7.79,3.631,0,5.2-2.793,6.9-5.835,1.125-2.009,1.006-5.951,1.243-8.241a29.935,29.935,0,0,0-.037-5.464" transform="translate(-221.099 -342.084)"/>
                </g>
              </g>
            </g>
            <path id="Trazado_828554" data-name="Trazado 828554" d="M357.59,239.238s-3.081-2.721-8.193-6.967c-7.18-5.964-17.547-9.225-17.547-9.225l-1.821-6.593s-25.613,18.722-30.573,30.359c-3.7,8.673-10.467,26.827-13.676,35.511a34.137,34.137,0,0,0-2.063,9.921l1.275,17.512,2.614,20.914h73.452l-7.806-10.059Z" transform="translate(-124.04 -94.632)" fill="#455a64"/>
            <path id="Trazado_828555" data-name="Trazado 828555" d="M292.77,253.808s-3.3,6.133-4.269,8.059c-1.4,2.764-13.378,23.96-14.129,34.855-.66,9.573,6.517,29.277,7.066,28.524l-1.163-6.04.635-12.374a111.244,111.244,0,0,1,3.352-22.016c2.867-10.157,9.615-27.53,9.615-27.53Z" transform="translate(-119.935 -110.963)" fill="#455a64"/>
            <path id="Trazado_828556" data-name="Trazado 828556" d="M287.075,335.792s-.022-.087-.051-.259-.071-.436-.126-.766c-.106-.686-.259-1.681-.456-2.963-.379-2.595-.926-6.347-1.609-11.028-.324-2.348-.679-4.928-1.063-7.712-.367-2.786-.769-5.776-1.1-8.953-.077-.795-.153-1.6-.174-2.431.019-.823.042-1.657.129-2.5a45.212,45.212,0,0,1,.794-5.1,75.4,75.4,0,0,1,3.105-10.5.148.148,0,0,1,.035-.053l8.668-8.078,16.761-15.6-.031.158-2.284-4.962a.132.132,0,0,1,.064-.175.14.14,0,0,1,.056-.012l4.96.006-.107.059L326.708,235.5l3.39-5.424.9-1.423c.205-.321.32-.481.32-.481s-.092.174-.286.5l-.869,1.442-3.331,5.46-11.967,19.48a.126.126,0,0,1-.107.06l-4.96.006.119-.187,2.294,4.958a.136.136,0,0,1-.031.158l-16.749,15.615-8.672,8.075.036-.053a75.708,75.708,0,0,0-3.1,10.453,45.034,45.034,0,0,0-.8,5.072c-.088.833-.113,1.657-.133,2.472.019.809.092,1.612.167,2.406.317,3.171.709,6.162,1.066,8.949s.714,5.366,1.027,7.715c.647,4.685,1.165,8.443,1.523,11.039.176,1.285.313,2.283.407,2.97l.1.769c.021.173.025.263.025.263" transform="translate(-123.508 -99.754)" fill="#263238"/>
            <path id="Trazado_828557" data-name="Trazado 828557" d="M277.865,343.964l.775-26.561,41.435-3.229,3.536-16.478s5.4-38.6,10.425-42.745c4.645-3.827,11.958-7.187,17.381-3.9,4.887,2.959,9.083,7.069,7.083,26.191-.684,6.545-4.3,42.086-5.913,49.917-1.518,7.381-4.308,13.872-10.264,15.779S318.8,344.85,318.8,344.85Z" transform="translate(-121.481 -109.174)" fill="#455a64"/>
            <path id="Trazado_828558" data-name="Trazado 828558" d="M352.862,364.245c.051-.031.5.772,1.46,1.878a17.72,17.72,0,0,0,1.832,1.8,26.661,26.661,0,0,0,2.538,1.868,41.881,41.881,0,0,0,5.056,2.719l1.589.723a2.732,2.732,0,0,1,.573.292,2.724,2.724,0,0,1-.616-.186c-.39-.137-.948-.352-1.63-.639a33.855,33.855,0,0,1-5.131-2.662,23.961,23.961,0,0,1-2.556-1.911,15.92,15.92,0,0,1-1.814-1.874,8.966,8.966,0,0,1-.6-.8,5.2,5.2,0,0,1-.407-.637,2.68,2.68,0,0,1-.293-.574" transform="translate(-154.268 -159.245)" fill="#263238"/>
            <path id="Trazado_828559" data-name="Trazado 828559" d="M358.356,377.238a2.141,2.141,0,0,1-.356-.446c-.215-.3-.506-.741-.846-1.3a31.321,31.321,0,0,1-3.76-9.492c-.136-.641-.23-1.164-.276-1.528a2.162,2.162,0,0,1-.048-.568c.046-.008.2.785.526,2.049a40.776,40.776,0,0,0,1.562,4.84,40.25,40.25,0,0,0,2.176,4.6c.631,1.141,1.061,1.826,1.022,1.852" transform="translate(-154.357 -159.096)" fill="#263238"/>
            <path id="Trazado_828560" data-name="Trazado 828560" d="M326.891,298.494s-.026.221-.093.649l-.305,1.9-1.2,7.313q-.4,2.383-.877,5.288-.242,1.45-.5,3.025c-.174,1.049-.342,2.142-.6,3.258l-3.245,15.226a.106.106,0,0,1-.1.083l-41.432,3.26.127-.133c-.24,8.33-.5,17.28-.767,26.562l-.142-.15,14.583.315,24.186.526c1.954.065,3.884.045,5.8,0s3.813-.1,5.689-.185a104.294,104.294,0,0,0,10.964-.97,15.569,15.569,0,0,0,5.026-1.494,11.713,11.713,0,0,0,3.8-3.364,25.843,25.843,0,0,0,3.95-8.951,77.32,77.32,0,0,0,1.626-9.075q.6-4.4,1.081-8.453c1.3-10.781,2.226-19.52,2.886-25.556.326-3.015.58-5.357.753-6.952.088-.79.156-1.394.2-1.807s.079-.615.079-.615-.012.209-.049.617-.1,1.019-.173,1.811c-.16,1.6-.4,3.941-.7,6.958-.624,6.041-1.522,14.783-2.793,25.569q-.479,4.045-1.063,8.458a77.348,77.348,0,0,1-1.615,9.106,26.079,26.079,0,0,1-3.98,9.046,11.97,11.97,0,0,1-3.883,3.44,15.81,15.81,0,0,1-5.109,1.529,104.111,104.111,0,0,1-10.994.983q-2.819.129-5.7.189c-1.916.044-3.859.066-5.811,0l-24.188-.521-14.584-.317a.145.145,0,0,1-.142-.149h0c.273-9.281.537-18.232.783-26.561a.138.138,0,0,1,.127-.133l41.437-3.2-.1.083,3.287-15.213c.262-1.115.434-2.207.612-3.255s.351-2.056.515-3.022q.5-2.9.9-5.283c.546-3.169.97-5.628,1.258-7.3l.335-1.9c.077-.427.124-.644.124-.644" transform="translate(-121.368 -130.37)" fill="#263238"/>
            <path id="Trazado_828561" data-name="Trazado 828561" d="M390.321,255.729c0,.07-1.322-.021-3.413.3l-.818.138c-.284.05-.572.135-.875.2-.608.127-1.235.347-1.9.557a21.119,21.119,0,0,0-7.676,4.715c-.489.5-.968.957-1.357,1.443-.2.239-.4.457-.578.688l-.493.666c-1.23,1.72-1.746,2.941-1.809,2.909a5.489,5.489,0,0,1,.367-.849,7.956,7.956,0,0,1,.507-.96,13.286,13.286,0,0,1,.765-1.22l.483-.685c.171-.237.375-.462.572-.707a19.464,19.464,0,0,1,1.354-1.48,20.46,20.46,0,0,1,7.776-4.775,19.379,19.379,0,0,1,1.932-.539c.307-.065.6-.146.888-.191l.83-.121a13.045,13.045,0,0,1,1.433-.131,7.937,7.937,0,0,1,1.086-.018,5.523,5.523,0,0,1,.924.056" transform="translate(-162.374 -111.774)" fill="#263238"/>
            <path id="Trazado_828562" data-name="Trazado 828562" d="M278.243,339.4a2.071,2.071,0,0,1-.116-.389l-.277-1.127c-.225-.982-.581-2.4-1.024-4.142s-1-3.818-1.54-6.144a33.406,33.406,0,0,1-.934-7.71,32.564,32.564,0,0,1,1.1-7.69q.232-.865.451-1.686c.16-.543.341-1.061.5-1.567s.324-.991.477-1.46l.5-1.326c.617-1.7,1.2-3.035,1.6-3.96.193-.441.347-.794.466-1.064a2.027,2.027,0,0,1,.181-.362,2.174,2.174,0,0,1-.127.386l-.415,1.084c-.369.938-.918,2.288-1.509,3.989l-.48,1.328-.459,1.46c-.155.505-.332,1.024-.486,1.565l-.437,1.681a33.139,33.139,0,0,0-1.066,7.627,34.022,34.022,0,0,0,.906,7.649c.52,2.321,1.056,4.4,1.478,6.152s.743,3.176.934,4.167c.092.472.167.85.223,1.14a2.049,2.049,0,0,1,.058.4" transform="translate(-119.944 -131.494)" fill="#263238"/>
            <g id="Grupo_1074843" data-name="Grupo 1074843" transform="translate(164.737 148.99)" opacity="0.3">
              <g id="Grupo_1074842" data-name="Grupo 1074842" transform="translate(0)">
                <g id="Grupo_1074841" data-name="Grupo 1074841" clip-path="url(#clip-path-10)">
                  <path id="Trazado_828563" data-name="Trazado 828563" d="M323.673,264.726l-4.453,6.244H314.26l2.289,4.959-23.842,22.211L318.472,276.9l-1.679-4.365,3.693.783Z" transform="translate(-292.707 -264.726)"/>
                </g>
              </g>
            </g>
            <path id="Trazado_828564" data-name="Trazado 828564" d="M298.542,253.808a1.057,1.057,0,0,1-.083.234l-.28.66-1.092,2.472-3.911,8.655,0-.115,1.311,2.629a.141.141,0,0,1-.016.151l-2.254,2.823.026-.049c-.227.783-.467,1.611-.709,2.45a142.422,142.422,0,0,0-3.577,15.311,27.7,27.7,0,0,0-.416,4.733c.006.28.033.527.046.743l.083.539a2.582,2.582,0,0,1,.1.44,2.6,2.6,0,0,1-.16-.426l-.112-.541c-.022-.217-.059-.467-.073-.75a25.375,25.375,0,0,1,.325-4.769,128.26,128.26,0,0,1,3.5-15.36l.712-2.454a.156.156,0,0,1,.025-.049l2.262-2.817-.016.151-1.3-2.636a.136.136,0,0,1,0-.115l4.008-8.611,1.161-2.44.317-.643a1.084,1.084,0,0,1,.123-.215" transform="translate(-125.652 -110.963)" fill="#263238"/>
            <g id="Grupo_1074846" data-name="Grupo 1074846" transform="translate(178.645 182.987)" opacity="0.3">
              <g id="Grupo_1074845" data-name="Grupo 1074845" transform="translate(0)">
                <g id="Grupo_1074844" data-name="Grupo 1074844" clip-path="url(#clip-path-11)">
                  <path id="Trazado_828565" data-name="Trazado 828565" d="M335.47,327.023l-17.161-1.889-.891,4.783,17.5,1.809Z" transform="translate(-317.418 -325.134)"/>
                </g>
              </g>
            </g>
            <path id="Trazado_828566" data-name="Trazado 828566" d="M334.048,325.6l-17.16-1.889L316,328.5l17.5,1.809Z" transform="translate(-138.152 -141.525)" fill="#fff"/>
            <path id="Trazado_828567" data-name="Trazado 828567" d="M206.053,385.107l15.684-11.839s3.441-1.215,4.958-1.012,20.77,1.4,20.77,1.4v17.672l-8.636-2.406s-5.556,1.444-6.871,1.343a6.206,6.206,0,0,0-2.833.708s-13.56,6.274-16.9,3.44l-1.011-.4s-3.238.607-3.542-.911c0,0-1.417.2-1.619-1.72l4.958-4.958s-4.452,1.012-4.958-1.315" transform="translate(-90.085 -162.738)" fill="#e0e0e0"/>
            <path id="Trazado_828568" data-name="Trazado 828568" d="M226.115,382.342a2.3,2.3,0,0,1-.453.379l-1.287.954-4.239,3.154c-1.656,1.234-3.173,2.329-4.3,3.089-.561.38-1.019.68-1.342.879a2.329,2.329,0,0,1-.517.285,2.286,2.286,0,0,1,.453-.379l1.287-.954,4.24-3.155c1.655-1.234,3.173-2.329,4.294-3.088.561-.38,1.019-.68,1.342-.879a2.3,2.3,0,0,1,.517-.285" transform="translate(-93.551 -167.157)" fill="#263238"/>
            <path id="Trazado_828569" data-name="Trazado 828569" d="M226.562,386.487c.047.066-3.733,2.865-8.442,6.252s-8.566,6.081-8.614,6.015,3.732-2.865,8.443-6.253,8.566-6.08,8.613-6.014" transform="translate(-91.595 -168.969)" fill="#263238"/>
            <path id="Trazado_828570" data-name="Trazado 828570" d="M231.732,393.723a3.521,3.521,0,0,1-.538.5c-.357.306-.889.732-1.557,1.243a59.581,59.581,0,0,1-11.265,6.736c-.766.347-1.392.613-1.831.783a3.478,3.478,0,0,1-.691.239,3.535,3.535,0,0,1,.646-.343l1.789-.866c1.506-.739,3.56-1.809,5.757-3.121s4.11-2.617,5.473-3.594l1.609-1.166a3.55,3.55,0,0,1,.608-.406" transform="translate(-94.368 -172.133)" fill="#263238"/>
            <path id="Trazado_828571" data-name="Trazado 828571" d="M203.92,330.906s-11.267-3.48-13.808-3.61-6.45-.912-8.209,0-7.687,7.036-7.687,7.036a2.631,2.631,0,0,0,3.648,1.433,30.553,30.553,0,0,0,4.235-2.28l-6.906,9.056s2.215,2.671,4.039,1.693a24.731,24.731,0,0,0,4.1-3.127l-4.756,5.537.521,1.564-1.173,1.172s.521.847,2.345.978,6.58-3,6.58-3,6.209,0,6.688.261,10.378.716,10.378.716l2.87,2.541s5.6-.912,6.58-3.192.456-10.359,0-11.141-5.61-2.932-5.61-2.932Z" transform="translate(-76.166 -142.901)" fill="#e0e0e0"/>
            <g id="Grupo_1074849" data-name="Grupo 1074849" transform="translate(106.057 187.548)" opacity="0.3">
              <g id="Grupo_1074848" data-name="Grupo 1074848" transform="translate(0)">
                <g id="Grupo_1074847" data-name="Grupo 1074847" clip-path="url(#clip-path-12)">
                  <path id="Trazado_828572" data-name="Trazado 828572" d="M192.2,350.7a25.205,25.205,0,0,1-3.565-16.358c.064-.49.284-1.106.778-1.1.554.006.711.754.706,1.308a36.983,36.983,0,0,0,3.436,15.617l-.482-.012Z" transform="translate(-188.444 -333.237)"/>
                </g>
              </g>
            </g>
            <path id="Trazado_828573" data-name="Trazado 828573" d="M177.876,340.648a2.519,2.519,0,0,1,.562-.108,9.439,9.439,0,0,0,1.481-.441,25.382,25.382,0,0,0,4.518-2.394l.426-.284.044-.03.05,0c1.889.146,3.576.293,4.789.411.607.059,1.1.112,1.431.154a1.924,1.924,0,0,1,.519.095,1.924,1.924,0,0,1-.527.015c-.339-.009-.83-.031-1.439-.064-1.217-.066-2.907-.178-4.8-.319l.095-.026-.433.289a21.567,21.567,0,0,1-4.608,2.344,7.362,7.362,0,0,1-1.533.358,1.914,1.914,0,0,1-.579-.005" transform="translate(-77.766 -147.506)" fill="#263238"/>
            <path id="Trazado_828574" data-name="Trazado 828574" d="M194.736,347.734a1.428,1.428,0,0,1-.439.077,10.842,10.842,0,0,1-1.229.049,13.679,13.679,0,0,1-4.134-.709l.171-.067a14.2,14.2,0,0,1-.891,1.423,13.311,13.311,0,0,1-3.908,3.612,11.666,11.666,0,0,1-1.44.737,2.233,2.233,0,0,1-.563.189c-.021-.047.761-.364,1.892-1.1a14.377,14.377,0,0,0,3.78-3.607,15.1,15.1,0,0,0,.878-1.388l.06-.105.112.038a15.3,15.3,0,0,0,4.049.8c1.034.061,1.658.016,1.661.058" transform="translate(-79.702 -151.637)" fill="#263238"/>
            <path id="Trazado_828575" data-name="Trazado 828575" d="M195.581,357.66c-.009.048-.79-.115-2.054-.276a10.018,10.018,0,0,0-2.219-.043,5.876,5.876,0,0,0-2.524.875,26.077,26.077,0,0,0-2.215,1.613,10.773,10.773,0,0,1-1.919,1.217,4.952,4.952,0,0,1-1.469.45,1.474,1.474,0,0,1-.563,0,6.945,6.945,0,0,0,1.941-.639,11.881,11.881,0,0,0,1.845-1.244,22.457,22.457,0,0,1,2.229-1.651,5.957,5.957,0,0,1,2.649-.893,9.3,9.3,0,0,1,2.274.107c.638.1,1.144.223,1.493.312a2.033,2.033,0,0,1,.534.17" transform="translate(-79.839 -156.096)" fill="#263238"/>
            <path id="Trazado_828576" data-name="Trazado 828576" d="M193.43,352.65a.563.563,0,0,1-.5-.3l-3.42-6.609a22.43,22.43,0,0,1-2.041-9.374v-6.18a.563.563,0,0,1,1.126,0v6.18a21.281,21.281,0,0,0,1.928,8.882l3.407,6.583a.563.563,0,0,1-.5.822" transform="translate(-81.96 -144.109)" fill="#263238"/>
            <path id="Trazado_828577" data-name="Trazado 828577" d="M201.011,352.752a.562.562,0,0,1-.514-.791c.04-.09,4.01-9.038,4.491-11.262s.251-9.824.248-9.9a.564.564,0,0,1,.545-.58.571.571,0,0,1,.58.545c.01.319.236,7.827-.273,10.174s-4.4,11.108-4.563,11.481a.564.564,0,0,1-.515.334" transform="translate(-87.635 -144.369)" fill="#263238"/>
            <path id="Trazado_828578" data-name="Trazado 828578" d="M197.278,379.568a16.835,16.835,0,0,1-1.162-4.5c-.1-1.937,0-5.806,0-5.806h4.116v6s-.533,3.439-1.211,4.31Z" transform="translate(-85.722 -161.437)" fill="#e0e0e0"/>
            <path id="Trazado_828579" data-name="Trazado 828579" d="M200.413,375.114a.89.89,0,1,1-.89-.89.89.89,0,0,1,.89.89" transform="translate(-86.841 -163.608)" fill="#263238"/>
            <path id="Trazado_828580" data-name="Trazado 828580" d="M199.336,379.568a1.77,1.77,0,0,1-.02-.3c-.005-.256-.01-.533-.016-.84-.006-.815-.013-1.79-.021-2.885v-.057h.493l-.057.057c0-.293,0-.6,0-.908.007-1.434.012-2.73.017-3.8.007-.428.013-.809.019-1.151,0-.109.007-.213.011-.313a.359.359,0,0,1,.012-.109.4.4,0,0,1,.012.109c0,.1.007.2.011.313.006.343.012.724.019,1.151.005,1.07.011,2.366.017,3.8,0,.311,0,.615,0,.908v.058h-.494l.057-.056c-.008,1.095-.015,2.07-.021,2.885-.006.307-.011.585-.016.84a1.77,1.77,0,0,1-.02.3" transform="translate(-87.124 -161.437)" fill="#263238"/>
            <g id="Grupo_1074852" data-name="Grupo 1074852" transform="translate(115.025 196.399)" opacity="0.3">
              <g id="Grupo_1074851" data-name="Grupo 1074851" transform="translate(0)">
                <g id="Grupo_1074850" data-name="Grupo 1074850" clip-path="url(#clip-path-13)">
                  <path id="Trazado_828581" data-name="Trazado 828581" d="M215.883,351.642a14.246,14.246,0,0,1-1.171-2.677,16.753,16.753,0,0,1-3.305,1.624,5.624,5.624,0,0,1-3.623.055.912.912,0,0,0-.638-.088.821.821,0,0,0-.382.478q-1.3,2.957-2.386,6.005l.268.1c1.236-.1,2.107-1.221,2.757-2.275s1.365-2.234,2.559-2.568c.818-.228,1.754-.013,2.489-.439.377-.218.71-.605,1.145-.576.376.024.647.351.9.628a6.846,6.846,0,0,0,3.5,2,5.528,5.528,0,0,1-2.114-2.262" transform="translate(-204.378 -348.965)"/>
                </g>
              </g>
            </g>
            <g id="Grupo_1074855" data-name="Grupo 1074855" transform="translate(114.897 204.429)" opacity="0.3">
              <g id="Grupo_1074854" data-name="Grupo 1074854" transform="translate(0)">
                <g id="Grupo_1074853" data-name="Grupo 1074853" clip-path="url(#clip-path-14)">
                  <path id="Trazado_828582" data-name="Trazado 828582" d="M204.225,363.42c.017-.048.037-.095.053-.142l-.128-.046.074.188" transform="translate(-204.15 -363.232)"/>
                </g>
              </g>
            </g>
            <path id="Trazado_828583" data-name="Trazado 828583" d="M226.719,341s-2.833-5.943-6.15-6.841-6.575,3.015-6.575,3.015-4.48,3.8-6.045,5.107c0,0,.025,1.652,2.392,2.036,2.783.45,5.9-1.686,5.9-1.686a8.488,8.488,0,0,0,4.821,5.555h4.832Z" transform="translate(-90.914 -146.033)" fill="#e0e0e0"/>
            <path id="Trazado_828584" data-name="Trazado 828584" d="M222.837,348.607a4.226,4.226,0,0,1-.69-.1,5.008,5.008,0,0,1-.812-.192l-.507-.15c-.179-.057-.359-.145-.555-.223a7.346,7.346,0,0,1-2.5-1.69,6.712,6.712,0,0,1-1.79-3.427l.192.1a28.13,28.13,0,0,1-2.886,1.23,13.123,13.123,0,0,1-1.614.469,3.456,3.456,0,0,1-1.769,0,3.921,3.921,0,0,1-2.184-2.013l-.048-.092.08-.075a77.609,77.609,0,0,1,7.145-6c.949-.684,1.734-1.2,2.286-1.533.273-.172.492-.292.639-.375a.982.982,0,0,1,.231-.113,8.423,8.423,0,0,1-.814.574c-.534.359-1.3.9-2.229,1.6a90.373,90.373,0,0,0-7.061,6.06l.032-.167a3.657,3.657,0,0,0,2.009,1.854,3.177,3.177,0,0,0,1.624-.01,13,13,0,0,0,1.579-.454,29.049,29.049,0,0,0,2.861-1.2l.161-.077.032.181a6.567,6.567,0,0,0,1.686,3.305,7.368,7.368,0,0,0,2.4,1.7c.19.082.365.173.539.236l.495.166a5.631,5.631,0,0,0,.794.228,4.314,4.314,0,0,1,.671.185" transform="translate(-90.795 -146.21)" fill="#263238"/>
          </g>
        </g>
        <g id="Grupo_1074859" data-name="Grupo 1074859">
          <g id="Grupo_1074858" data-name="Grupo 1074858" clip-path="url(#clip-path-2)">
            <path id="Trazado_828585" data-name="Trazado 828585" d="M345.539,58.6l9.051-4.587a27.2,27.2,0,1,0-8.407-4.929l-.014-.007Z" transform="translate(-147.213 -0.584)" fill="#fff"/>
            <path id="Trazado_828586" data-name="Trazado 828586" d="M345.475,58.513l.566-9.527a.065.065,0,0,1,.068-.061.067.067,0,0,1,.025.007l.014.007-.07.107a27.408,27.408,0,0,1-4.2-4.5,26.772,26.772,0,0,1-3.6-6.629,27.165,27.165,0,0,1-1.177-4.1q-.169-1.092-.343-2.222a7.58,7.58,0,0,1-.109-1.145q-.03-.579-.061-1.168a27.355,27.355,0,0,1,16.56-26,27.844,27.844,0,0,1,12.267-2.1,23.958,23.958,0,0,1,3.212.369,12.362,12.362,0,0,1,1.593.345c.528.136,1.06.261,1.588.407a28.15,28.15,0,0,1,6.036,2.721,24.959,24.959,0,0,1,2.721,1.851,13.383,13.383,0,0,1,1.253,1.05c.4.366.822.713,1.208,1.092A27.721,27.721,0,0,1,390.981,25.7a27.354,27.354,0,0,1-14.592,26.889c-.707.33-1.384.7-2.087.984l-2.1.771c-.7.226-1.406.374-2.09.559a17.109,17.109,0,0,1-2.044.427A27.064,27.064,0,0,1,354.5,53.988l.053,0-9.081,4.528,9.021-4.647a.067.067,0,0,1,.053,0,27.062,27.062,0,0,0,13.487,1.269,17.055,17.055,0,0,0,2.028-.431c.678-.187,1.381-.335,2.073-.562l2.081-.772c.7-.28,1.367-.652,2.068-.981A26.947,26.947,0,0,0,386.759,14.2a27.484,27.484,0,0,0-3.936-4.978c-.382-.375-.8-.718-1.195-1.079a13.085,13.085,0,0,0-1.239-1.038,24.617,24.617,0,0,0-2.692-1.83,27.915,27.915,0,0,0-5.97-2.694c-.522-.144-1.049-.268-1.571-.4a12.1,12.1,0,0,0-1.576-.342,23.617,23.617,0,0,0-3.178-.366,27.574,27.574,0,0,0-12.14,2.071,27.079,27.079,0,0,0-16.446,25.735q.029.583.057,1.158a7.39,7.39,0,0,0,.1,1.136q.17,1.12.333,2.206a27.034,27.034,0,0,0,1.155,4.071,26.694,26.694,0,0,0,3.549,6.6,27.549,27.549,0,0,0,4.148,4.5.064.064,0,0,1,.007.091.066.066,0,0,1-.078.016l-.013-.006.093-.054c-.446,6.109-.662,9.064-.7,9.519" transform="translate(-147.149 -0.498)" fill="#263238"/>
            <path id="Trazado_828587" data-name="Trazado 828587" d="M402.185,47.218a4.32,4.32,0,0,1,1.092-.359l.312-1.02,1.759.131.158,1.054a4.332,4.332,0,0,1,1.027.518l.942-.5,1.151,1.337-.634.857a4.314,4.314,0,0,1,.359,1.092l1.02.312-.131,1.759-1.054.158a4.333,4.333,0,0,1-.518,1.027l.5.942-1.336,1.151-.857-.634a4.321,4.321,0,0,1-1.092.359l-.312,1.02-1.759-.131-.158-1.054a4.332,4.332,0,0,1-1.027-.518l-.941.5-1.152-1.337.634-.857a4.322,4.322,0,0,1-.359-1.092l-1.02-.312.131-1.759,1.055-.158a4.311,4.311,0,0,1,.517-1.027l-.5-.942,1.336-1.151Zm.72,2.426a1.892,1.892,0,1,0,2.668.2,1.892,1.892,0,0,0-2.668-.2" transform="translate(-174.348 -20.041)" fill="#e0e0e0"/>
            <path id="Trazado_828588" data-name="Trazado 828588" d="M361.591,28.812a10,10,0,0,1,2.349-1.251l.31-2.449,4.064-.4.776,2.342a10.013,10.013,0,0,1,2.547.775l1.95-1.512,3.153,2.595-1.108,2.2a9.988,9.988,0,0,1,1.251,2.35l2.449.31.4,4.064-2.343.776a10.005,10.005,0,0,1-.775,2.547l1.512,1.95-2.593,3.153-2.2-1.108a9.993,9.993,0,0,1-2.35,1.251l-.31,2.448-4.064.4-.776-2.343a10.018,10.018,0,0,1-2.547-.775l-1.95,1.512-3.153-2.594,1.108-2.2a10.017,10.017,0,0,1-1.251-2.35l-2.448-.31-.4-4.064,2.343-.776a10.028,10.028,0,0,1,.775-2.547l-1.512-1.949,2.594-3.153Zm2.6,5.249a4.38,4.38,0,1,0,6.166-.6,4.38,4.38,0,0,0-6.166.6" transform="translate(-155.285 -10.806)" fill="#263238"/>
          </g>
        </g>
      </g>
    </g>
  </g>
</svg>
