<svg xmlns="http://www.w3.org/2000/svg" width="86" height="86" viewBox="0 0 86 86">
  <g id="Grupo_1074692" data-name="Grupo 1074692" transform="translate(-246 -991)">
    <g id="Grupo_1073020" data-name="Grupo 1073020" transform="translate(-87 63)">
      <circle id="Elipse_9665" data-name="Elipse 9665" cx="43" cy="43" r="43" transform="translate(333 928)" fill="#ffce00"/>
    </g>
    <g id="programacion" transform="translate(257 1002)">
      <g id="Grupo_1074690" data-name="Grupo 1074690">
        <g id="Grupo_1074677" data-name="Grupo 1074677">
          <path id="Trazado_827820" data-name="Trazado 827820" d="M21,16v7H15v2.67A1.336,1.336,0,0,1,13.67,27a1.35,1.35,0,0,1-1.07-.53L10,23H3a1,1,0,0,1-1-1V10A1,1,0,0,1,3,9H21.75A11.066,11.066,0,0,0,21,13Z" fill="#ffeaa7"/>
        </g>
        <g id="Grupo_1074678" data-name="Grupo 1074678">
          <path id="Trazado_827821" data-name="Trazado 827821" d="M43.33,59.56A2.814,2.814,0,0,1,40.54,62H23.46a2.814,2.814,0,0,1-2.79-2.44L20.46,58H43.54Z" fill="#aab2bd"/>
        </g>
        <g id="Grupo_1074679" data-name="Grupo 1074679">
          <path id="Trazado_827822" data-name="Trazado 827822" d="M20.13,55.51l-1.11-8.32c-.01-.13-.02-.25-.02-.38A2.812,2.812,0,0,1,21.81,44H42.19A2.8,2.8,0,0,1,45,46.81c0,.13-.01.25-.02.38l-1.11,8.32L43.54,58H20.46Z" fill="#ccd1d9"/>
        </g>
        <g id="Grupo_1074680" data-name="Grupo 1074680">
          <path id="Trazado_827823" data-name="Trazado 827823" d="M42,44H21.81A2.812,2.812,0,0,0,19,46.81c0,.13.01.25.02.38l1.11,8.32-1.68-.97A8.83,8.83,0,0,1,14,46.87a9.14,9.14,0,0,1,.17-1.73L15.8,37l.01-.04a8.823,8.823,0,0,1,6.86-6.9A15.137,15.137,0,0,0,30,37v1a2,2,0,1,0,4,0V37a15.137,15.137,0,0,0,7.33-6.94,8.79,8.79,0,0,1,6.36,5.26c.09.21.17.43.24.65a7.987,7.987,0,0,1,.26.99l1.64,8.18A9.14,9.14,0,0,1,50,46.87a8.83,8.83,0,0,1-4.45,7.67l-1.68.97,1.11-8.32c.01-.13.02-.25.02-.38A2.8,2.8,0,0,0,42.19,44Z" fill="#ff826e"/>
        </g>
        <g id="Grupo_1074681" data-name="Grupo 1074681">
          <path id="Trazado_827824" data-name="Trazado 827824" d="M42.93,11.8A10.78,10.78,0,0,0,41.3,7.12,11,11,0,0,0,21,13V23.15A15.172,15.172,0,0,0,30,37h4a15.137,15.137,0,0,0,7.33-6.94A11.231,11.231,0,0,0,41.82,29,15.02,15.02,0,0,0,43,23.15V13a9.659,9.659,0,0,0-.07-1.2Z" fill="#aab2bd"/>
        </g>
        <g id="Grupo_1074682" data-name="Grupo 1074682">
          <path id="Trazado_827825" data-name="Trazado 827825" d="M33.41,34.59A1.955,1.955,0,0,1,34,36v2a2,2,0,0,1-4,0V36a2.006,2.006,0,0,1,2-2A1.955,1.955,0,0,1,33.41,34.59Z" fill="#fcd770"/>
        </g>
        <g id="Grupo_1074684" data-name="Grupo 1074684">
          <g id="Grupo_1074683" data-name="Grupo 1074683">
            <path id="Trazado_827826" data-name="Trazado 827826" d="M47,6a14.928,14.928,0,0,0-5.7,1.127A10.764,10.764,0,0,1,42.93,11.8,9.659,9.659,0,0,1,43,13V23.15A15.02,15.02,0,0,1,41.82,29a11.23,11.23,0,0,1-.49,1.06,8.79,8.79,0,0,1,6.36,5.26c.088.205.165.419.234.633A14.99,14.99,0,0,0,47,6Z" fill="#69d6f4"/>
          </g>
        </g>
        <g id="Grupo_1074685" data-name="Grupo 1074685">
          <path id="Trazado_827827" data-name="Trazado 827827" d="M28.94,27.3l-.8,3.99A11.52,11.52,0,0,1,25,23.38V21a6.958,6.958,0,0,0,2.05,4.95Z" fill="#e6e9ed"/>
        </g>
        <g id="Grupo_1074686" data-name="Grupo 1074686">
          <path id="Trazado_827828" data-name="Trazado 827828" d="M39,21v2.38a11.52,11.52,0,0,1-3.14,7.91l-.8-3.99A7.012,7.012,0,0,0,39,21Z" fill="#e6e9ed"/>
        </g>
        <g id="Grupo_1074687" data-name="Grupo 1074687">
          <path id="Trazado_827829" data-name="Trazado 827829" d="M32.99,14a.66.66,0,0,1,.01.14,2.106,2.106,0,0,1-1.84,2.09L25,17V15a7,7,0,0,1,14,0v3a9.326,9.326,0,0,0-5.5-3.87L33,14Z" fill="#b27946"/>
        </g>
        <g id="Grupo_1074688" data-name="Grupo 1074688">
          <path id="Trazado_827830" data-name="Trazado 827830" d="M35.06,27.3l.8,3.99v.01A11.593,11.593,0,0,1,32,34a11.593,11.593,0,0,1-3.86-2.7v-.01l.8-3.99a7.038,7.038,0,0,0,6.12,0Z" fill="#f0d0b4"/>
        </g>
        <g id="Grupo_1074689" data-name="Grupo 1074689">
          <path id="Trazado_827831" data-name="Trazado 827831" d="M39,18v3a7.007,7.007,0,0,1-10.06,6.3l-1.89-1.35A6.958,6.958,0,0,1,25,21V17l6.16-.77A2.106,2.106,0,0,0,33,14.14a.66.66,0,0,0-.01-.14H33l.5.13A9.326,9.326,0,0,1,39,18Z" fill="#f0d0b4"/>
        </g>
      </g>
      <g id="Grupo_1074691" data-name="Grupo 1074691">
        <circle id="Elipse_9904" data-name="Elipse 9904" cx="1" cy="1" r="1" transform="translate(28 18)"/>
        <circle id="Elipse_9905" data-name="Elipse 9905" cx="1" cy="1" r="1" transform="translate(34 18)"/>
        <path id="Trazado_827832" data-name="Trazado 827832" d="M29.9,21.553l-1.789.9.1.211a4.236,4.236,0,0,0,7.578,0l.1-.211-1.789-.9-.1.212a2.236,2.236,0,0,1-4,0Z"/>
        <path id="Trazado_827833" data-name="Trazado 827833" d="M5,48h6V40H5Zm2-6H9v4H7Z"/>
        <path id="Trazado_827834" data-name="Trazado 827834" d="M1,40H3v8H1Z"/>
        <path id="Trazado_827835" data-name="Trazado 827835" d="M7,30H1v8H7ZM5,36H3V32H5Z"/>
        <path id="Trazado_827836" data-name="Trazado 827836" d="M9,30h2v8H9Z"/>
        <path id="Trazado_827837" data-name="Trazado 827837" d="M63,21A15.963,15.963,0,0,0,41.673,5.928,11.969,11.969,0,0,0,21.1,8H3a2,2,0,0,0-2,2V22a2,2,0,0,0,2,2H9.5l2.3,3.066a2.333,2.333,0,0,0,4.2-1.4V24h4.031a16.1,16.1,0,0,0,1.248,5.42A9.751,9.751,0,0,0,19,30.557V30H13v8h1.58l-1.389,6.946a9.832,9.832,0,0,0,4.763,10.465l1.254.717.475,3.563A3.823,3.823,0,0,0,23.462,63H40.536a3.823,3.823,0,0,0,3.779-3.31l.475-3.563,1.254-.717a9.83,9.83,0,0,0,4.765-10.465l-1.621-8.108A16.013,16.013,0,0,0,63,21ZM44.084,30h5.982a18.459,18.459,0,0,1-2.177,3.561A9.764,9.764,0,0,0,44.084,30Zm5.969-18h-6.1A17.755,17.755,0,0,1,47,7.4,17.888,17.888,0,0,1,50.053,12Zm10.9,8H53.963a23.645,23.645,0,0,0-.987-6h6.13A13.867,13.867,0,0,1,60.949,20Zm-8.986,0H44V14h6.858A21.264,21.264,0,0,1,51.963,20Zm-8.716,8A16.087,16.087,0,0,0,44,23.151V22h7.971a21.333,21.333,0,0,1-1.1,6Zm10.724-6h6.981A13.905,13.905,0,0,1,59.1,28H52.969A23.471,23.471,0,0,0,53.971,22Zm3.737-10H52.251a20.611,20.611,0,0,0-2.76-4.765A13.986,13.986,0,0,1,57.708,12ZM44.525,7.227A19.63,19.63,0,0,0,43.3,9a11.976,11.976,0,0,0-.563-1.327A13.79,13.79,0,0,1,44.525,7.227ZM22,13a10,10,0,1,1,20,0V23.151A14.163,14.163,0,0,1,34.937,35.39a2.991,2.991,0,0,0-.746-1.425A12.53,12.53,0,0,0,40,23.384V15a8,8,0,0,0-16,0v8.384a12.53,12.53,0,0,0,5.809,10.581,2.987,2.987,0,0,0-.746,1.425A14.163,14.163,0,0,1,22,23.151Zm16,2.37a10.314,10.314,0,0,0-4.166-2.188A3.136,3.136,0,0,0,30.857,11,2.861,2.861,0,0,0,28,13.857V14h2v-.143A.859.859,0,0,1,30.857,13,1.145,1.145,0,0,1,32,14.143a1.107,1.107,0,0,1-.968,1.1L26,15.867V15a6,6,0,0,1,12,0ZM26,17.883l5.28-.66a3.114,3.114,0,0,0,2.513-1.967A8.293,8.293,0,0,1,38,18.327V21a6,6,0,0,1-12,0ZM36.41,28.949l-.228-1.142a8.066,8.066,0,0,0,1.186-.892A10.621,10.621,0,0,1,36.41,28.949Zm-8.591-1.142-.228,1.142a10.557,10.557,0,0,1-.957-2.034,7.953,7.953,0,0,0,1.185.892Zm1.869.849a7.941,7.941,0,0,0,4.624,0l.46,2.3A10.5,10.5,0,0,1,32,32.9a10.5,10.5,0,0,1-2.771-1.948ZM31,36a.99.99,0,0,1,.861-.972l.139.06.139-.06A.99.99,0,0,1,33,36v2a1,1,0,0,1-2,0ZM14,22v3.667a.347.347,0,0,1-.6.2L10.5,22H3V10H20.4a11.926,11.926,0,0,0-.4,3v.586l-2.293-2.293-1.414,1.414L19.586,16l-3.293,3.293,1.414,1.414L20,18.414V22Zm1,10h2v.339A9.766,9.766,0,0,0,15.04,36H15Zm6.813,13H42.186A1.815,1.815,0,0,1,44,46.813a1.77,1.77,0,0,1-.016.24L42.658,57H21.342l-1.327-9.947a1.921,1.921,0,0,1-.015-.24A1.815,1.815,0,0,1,21.813,45ZM40.537,61H23.463a1.818,1.818,0,0,1-1.8-1.573L21.609,59H42.391l-.057.427A1.818,1.818,0,0,1,40.537,61Zm4.588-7.373.842-6.309A3.893,3.893,0,0,0,46,46.813a3.818,3.818,0,0,0-3-3.722V40.235l.9-1.789-1.789-.9L41,39.764V43H23V39.764l-1.1-2.211-1.789.9L21,40.236v2.856a3.818,3.818,0,0,0-3,3.722,3.866,3.866,0,0,0,.033.5l.842,6.31a7.824,7.824,0,0,1-3.723-8.289l1.635-8.178a7.784,7.784,0,0,1,5.394-5.924A16.146,16.146,0,0,0,29,37.624V38a3,3,0,0,0,6,0v-.376a16.134,16.134,0,0,0,6.818-6.387,7.783,7.783,0,0,1,5.394,5.924l1.635,8.178a7.808,7.808,0,0,1-3.721,8.288Zm4.356-18.856A20.822,20.822,0,0,0,52.25,30H57.7A13.957,13.957,0,0,1,49.481,34.771Z"/>
        <path id="Trazado_827838" data-name="Trazado 827838" d="M8.293,11.293,3.586,16l4.707,4.707,1.414-1.414L6.414,16l3.293-3.293Z"/>
        <path id="Trazado_827839" data-name="Trazado 827839" d="M8.877,15h8.246v2H8.877Z" transform="translate(-5.673 24.736) rotate(-75.992)"/>
      </g>
    </g>
  </g>
</svg>
