<svg xmlns="http://www.w3.org/2000/svg" xmlns:xlink="http://www.w3.org/1999/xlink" width="300.327" height="306.333" viewBox="0 0 300.327 306.333">
  <defs>
    <clipPath id="clip-path">
      <rect id="Rectángulo_383683" data-name="Rectángulo 383683" width="300.037" height="188.408" rx="14" transform="translate(0 0)" fill="#273a89"/>
    </clipPath>
    <clipPath id="clip-path-2">
      <rect id="Rectángulo_383682" data-name="Rectángulo 383682" width="223.491" height="305.983" fill="none"/>
    </clipPath>
  </defs>
  <g id="Grupo_1074749" data-name="Grupo 1074749" transform="translate(0)">
    <g id="Grupo_1074626" data-name="Grupo 1074626" transform="translate(6.466 2.514)">
      <path id="Trazado_818450" data-name="Trazado 818450" d="M248.167,55.638,206.012,12.788,166.325,53.132l-39.913-40.57L84.706,54.955,43.449,13.018,6.179,50.9,0,44.621,43.449.456,84.706,42.39,126.412,0l39.913,40.568L206.012.227l42.155,42.849L287.679,2.913l6.182,6.278Z" transform="translate(0 0)" fill="#add3fd"/>
      <path id="Trazado_818451" data-name="Trazado 818451" d="M248.167,72.433,206.012,29.586,166.325,69.924,126.412,29.357,84.706,71.75,43.449,29.813,6.179,67.7,0,61.416,43.449,17.252,84.706,59.188,126.412,16.8l39.913,40.57,39.687-40.341,42.155,42.847,39.512-40.163,6.182,6.278Z" transform="translate(0 26.508)" fill="#add3fd"/>
      <path id="Trazado_818452" data-name="Trazado 818452" d="M248.167,89.228,206.012,46.382,166.325,86.722,126.412,46.155,84.706,88.545,43.449,46.608,6.179,84.495,0,78.211,43.449,34.047,84.706,75.983,126.412,33.59l39.913,40.57L206.012,33.82l42.155,42.847L287.679,36.5l6.182,6.281Z" transform="translate(0 53.016)" fill="#add3fd"/>
      <path id="Trazado_818453" data-name="Trazado 818453" d="M248.167,106.024,206.012,63.175l-39.687,40.341L126.412,62.948,84.706,105.341,43.449,63.4,6.179,101.288,0,95.007,43.449,50.843,84.706,92.78l41.706-42.393,39.913,40.57,39.687-40.343,42.155,42.849L287.679,53.3l6.182,6.281Z" transform="translate(0 79.527)" fill="#add3fd"/>
      <path id="Trazado_818454" data-name="Trazado 818454" d="M248.167,122.82,206.012,79.97l-39.687,40.341L126.412,79.743,84.706,122.136,43.449,80.2,6.179,118.086,0,111.8,43.449,67.638l41.257,41.937,41.706-42.393,39.913,40.57,39.687-40.341,42.155,42.849L287.679,70.1l6.182,6.281Z" transform="translate(0 106.036)" fill="#add3fd"/>
      <path id="Trazado_818455" data-name="Trazado 818455" d="M248.167,139.615,206.012,96.768l-39.687,40.341L126.412,96.541l-41.706,42.39L43.449,97,6.179,134.881,0,128.6,43.449,84.433,84.706,126.37l41.706-42.393,39.913,40.57,39.687-40.341,42.155,42.847,39.512-40.163,6.182,6.281Z" transform="translate(0 132.544)" fill="#add3fd"/>
    </g>
    <rect id="Rectángulo_383419" data-name="Rectángulo 383419" width="300.037" height="181.854" rx="14" transform="translate(0 124.479)" fill="#273a89"/>
    <g id="Enmascarar_grupo_192" data-name="Enmascarar grupo 192" transform="translate(0.29 117.925)" clip-path="url(#clip-path)">
      <g id="Grupo_1074624" data-name="Grupo 1074624" transform="translate(-199.474 -65.111)">
        <path id="Trazado_827892" data-name="Trazado 827892" d="M88.483-7.876q0,17.542-9.373,28.214T52.934,31.01a33.158,33.158,0,0,1-12.75-2.3,25.784,25.784,0,0,1-9.542-6.761V59.882H6.07V-49.612H28.278l1.435,9.356a27.984,27.984,0,0,1,9.753-8,29.7,29.7,0,0,1,13.3-2.814q16.972,0,26.345,11.476T88.483-9.411ZM63.827-9.411q0-11.183-4.306-18.127T46.348-34.482a20.965,20.965,0,0,0-9.5,1.974,15.22,15.22,0,0,0-6.206,5.628V7.766a14.421,14.421,0,0,0,6.206,5.117,23.675,23.675,0,0,0,9.668,1.754q8.951,0,13.13-6.067t4.18-16.446Zm87.9-21.855-9.035-.219a18.435,18.435,0,0,0-9.035,1.974,13.17,13.17,0,0,0-5.4,5.555V29.475H103.682V-49.612h22.883l1.1,11.695A25.628,25.628,0,0,1,135.98-47.6a20.454,20.454,0,0,1,11.779-3.472,21.216,21.216,0,0,1,3.42.256q1.562.256,3.167.621ZM220.547,17.78a28.992,28.992,0,0,1-10.724,9.795,31.889,31.889,0,0,1-15.115,3.435q-14.439,0-22.588-8.479T163.972-3.782v-45.83h24.572V-3.636q0,10.379,3.251,14.217t10.091,3.837a27.929,27.929,0,0,0,10.133-1.645,16.834,16.834,0,0,0,6.924-4.861V-49.612H243.6V29.475H223.164Zm81.231,13.23q-20.434,0-31.918-10.854T258.375-7.8v-2.924q0-17.762,11.146-29.091t30.652-11.256q18.408,0,28.245,9.758t9.837,26.277V-4H283.792l-.253.439a19.806,19.806,0,0,0,5.7,13.157q5.109,5.043,15.157,5.043a58.185,58.185,0,0,0,14.059-1.462A62.389,62.389,0,0,0,330.4,8.717l6.671,13.157q-5.489,3.874-14.861,6.505A75.392,75.392,0,0,1,301.777,31.01Zm-1.6-65.638q-7.431,0-11.442,4.422a20.442,20.442,0,0,0-4.855,11.732l.169.365h30.06v-1.608q0-6.944-3.293-10.927T300.173-34.628ZM435.023-7.876q0,17.689-9.119,28.287t-26.345,10.6a31.358,31.358,0,0,1-13.975-2.924,27.424,27.424,0,0,1-10.091-8.552l-2.027,9.941H352.61V-84.551h24.572v43.344a27.034,27.034,0,0,1,9.5-7.309,29.96,29.96,0,0,1,12.708-2.558q17.394,0,26.514,11.366t9.119,30.3ZM410.451-9.411q0-11.549-3.926-18.31t-13.384-6.761A20.691,20.691,0,0,0,383.43-32.4a15.447,15.447,0,0,0-6.249,5.957V7.035a14.776,14.776,0,0,0,6.291,5.482,22.872,22.872,0,0,0,9.837,1.9q9.542,0,13.341-5.811t3.8-16.483Zm93.643,38.886a41.046,41.046,0,0,1-2.322-5.7,34.989,34.989,0,0,1-1.393-6.14,31.277,31.277,0,0,1-10.048,9.575,28.048,28.048,0,0,1-14.861,3.8q-14.355,0-22.123-6.4T445.578,7.182q0-11.622,10.344-18.018t30.187-6.4h13.848v-6.286q0-5.7-3.462-8.844t-10.3-3.143q-6,0-9.246,2.522a8.266,8.266,0,0,0-3.251,6.907H449.969l-.169-.439Q449.209-36.528,459.89-43.8T487.8-51.074q16.466,0,26.641,7.163t10.175,20.539V9.3a53.7,53.7,0,0,0,.971,10.452,47.038,47.038,0,0,0,3.082,9.721ZM481.549,15.222a23.491,23.491,0,0,0,11.484-2.778q5.066-2.778,6.924-6.432V-5.171H486.109q-7.853,0-11.864,3.362a10.384,10.384,0,0,0-4.011,8.26,7.736,7.736,0,0,0,3,6.4Q476.229,15.222,481.549,15.222Z" transform="translate(-6.07 84.551)" fill="none" stroke="#fff" stroke-width="1"/>
        <path id="Trazado_827890" data-name="Trazado 827890" d="M75.729-6.74q0,15.014-8.022,24.147T45.3,26.54A28.378,28.378,0,0,1,34.392,24.57a22.068,22.068,0,0,1-8.166-5.787V51.25H5.2V-42.461H24.2l1.229,8.007a23.951,23.951,0,0,1,8.347-6.85A25.414,25.414,0,0,1,45.16-43.712q14.526,0,22.548,9.822T75.729-8.054Zm-21.1-1.314q0-9.571-3.686-15.514T39.667-29.511a17.943,17.943,0,0,0-8.13,1.689,13.026,13.026,0,0,0-5.312,4.817V6.647a12.342,12.342,0,0,0,5.312,4.379,20.262,20.262,0,0,0,8.275,1.5q7.66,0,11.238-5.192T54.627-6.74Zm75.231-18.7-7.733-.188a15.778,15.778,0,0,0-7.733,1.689,11.272,11.272,0,0,0-4.625,4.754v45.73H88.737V-42.461h19.585l.939,10.009a21.934,21.934,0,0,1,7.118-8.289,17.505,17.505,0,0,1,10.081-2.971,18.159,18.159,0,0,1,2.927.219q1.337.219,2.71.532Zm58.9,41.976a24.813,24.813,0,0,1-9.178,8.383,27.292,27.292,0,0,1-12.936,2.94q-12.358,0-19.332-7.257T140.337-3.237V-42.461h21.03V-3.112q0,8.883,2.782,12.167t8.636,3.284a23.9,23.9,0,0,0,8.672-1.408,14.408,14.408,0,0,0,5.926-4.16V-42.461h21.1V25.226H191ZM258.278,26.54q-17.489,0-27.317-9.29T221.132-6.678v-2.5q0-15.2,9.539-24.9T256.9-43.712q15.754,0,24.174,8.351T289.5-12.871v9.446H242.885l-.217.375a16.951,16.951,0,0,0,4.878,11.26q4.372,4.316,12.972,4.316a49.8,49.8,0,0,0,12.033-1.251A53.4,53.4,0,0,0,282.777,7.46l5.709,11.26a41.7,41.7,0,0,1-12.719,5.568A64.524,64.524,0,0,1,258.278,26.54ZM256.9-29.636q-6.36,0-9.792,3.785a17.5,17.5,0,0,0-4.155,10.04l.145.313h25.727v-1.376q0-5.943-2.818-9.352T256.9-29.636ZM372.317-6.74q0,15.139-7.8,24.21T341.964,26.54a26.837,26.837,0,0,1-11.96-2.5,23.471,23.471,0,0,1-8.636-7.319l-1.734,8.508h-17.85v-97.59h21.03v37.1a23.138,23.138,0,0,1,8.13-6.256,25.641,25.641,0,0,1,10.876-2.19q14.887,0,22.692,9.728t7.8,25.93Zm-21.03-1.314q0-9.884-3.36-15.671t-11.454-5.787a17.708,17.708,0,0,0-8.311,1.783,13.221,13.221,0,0,0-5.348,5.1V6.021a12.646,12.646,0,0,0,5.384,4.692,19.576,19.576,0,0,0,8.419,1.626q8.166,0,11.418-4.973T351.287-6.74Zm80.145,33.281a35.13,35.13,0,0,1-1.987-4.879,29.947,29.947,0,0,1-1.192-5.255,26.768,26.768,0,0,1-8.6,8.2,24,24,0,0,1-12.719,3.253q-12.286,0-18.934-5.474T381.35,6.146q0-9.947,8.853-15.42t25.836-5.474h11.852v-5.38a9.7,9.7,0,0,0-2.963-7.569q-2.963-2.69-8.817-2.69-5.131,0-7.913,2.158a7.074,7.074,0,0,0-2.782,5.912H385.108l-.145-.375q-.506-8.57,8.636-14.795t23.885-6.224q14.092,0,22.8,6.131T448.993-20V7.961a45.96,45.96,0,0,0,.831,8.946,40.255,40.255,0,0,0,2.638,8.32Zm-19.3-12.2a20.105,20.105,0,0,0,9.828-2.377,13.714,13.714,0,0,0,5.926-5.505V-4.426H416.039q-6.721,0-10.154,2.878a8.887,8.887,0,0,0-3.433,7.069,6.621,6.621,0,0,0,2.565,5.474A11.184,11.184,0,0,0,412.137,13.028Z" transform="translate(210.775 178.482)" fill="none" stroke="#fff" stroke-width="1"/>
        <path id="Trazado_827891" data-name="Trazado 827891" d="M73.337-6.528q0,14.54-7.768,23.385T43.873,25.7a27.482,27.482,0,0,1-10.568-1.908,21.371,21.371,0,0,1-7.908-5.6V49.632H5.031V-41.12H23.438l1.19,7.755A23.194,23.194,0,0,1,32.711-40a24.612,24.612,0,0,1,11.023-2.332q14.067,0,21.836,9.511T73.337-7.8ZM52.9-7.8q0-9.269-3.569-15.024T38.415-28.579a17.376,17.376,0,0,0-7.873,1.636A12.614,12.614,0,0,0,25.4-22.279V6.437a11.952,11.952,0,0,0,5.144,4.241,19.622,19.622,0,0,0,8.013,1.454q7.418,0,10.883-5.028T52.9-6.528Zm72.855-18.114-7.489-.182a15.28,15.28,0,0,0-7.488,1.636,10.916,10.916,0,0,0-4.479,4.6V24.43H85.935V-41.12H104.9l.91,9.693a21.24,21.24,0,0,1,6.894-8.027,16.953,16.953,0,0,1,9.763-2.878,17.584,17.584,0,0,1,2.834.212q1.295.212,2.624.515ZM182.8,14.737a24.029,24.029,0,0,1-8.888,8.118A26.43,26.43,0,0,1,161.38,25.7q-11.968,0-18.721-7.028T135.9-3.135V-41.12h20.366V-3.014q0,8.6,2.694,11.783t8.363,3.181a23.148,23.148,0,0,0,8.4-1.363,13.952,13.952,0,0,0,5.739-4.029V-41.12H201.9V24.43H184.965ZM250.122,25.7q-16.937,0-26.455-9T214.149-6.467V-8.89q0-14.721,9.238-24.112t25.4-9.33q15.257,0,23.41,8.088t8.153,21.779v9.148H235.215l-.21.363a16.416,16.416,0,0,0,4.724,10.9q4.234,4.18,12.562,4.18a48.226,48.226,0,0,0,11.653-1.212,51.71,51.71,0,0,0,9.9-3.7l5.529,10.9a40.38,40.38,0,0,1-12.317,5.392A62.487,62.487,0,0,1,250.122,25.7Zm-1.33-54.4q-6.159,0-9.483,3.665a16.943,16.943,0,0,0-4.024,9.723l.14.3H260.34v-1.333q0-5.755-2.729-9.057T248.792-28.7ZM360.559-6.528q0,14.661-7.558,23.445T331.165,25.7a25.99,25.99,0,0,1-11.583-2.423,22.73,22.73,0,0,1-8.363-7.088l-1.68,8.239H292.253V-70.078h20.366v35.925a22.407,22.407,0,0,1,7.873-6.058,24.832,24.832,0,0,1,10.533-2.12q14.417,0,21.976,9.42T360.559-7.8ZM340.194-7.8q0-9.572-3.254-15.176t-11.093-5.6a17.149,17.149,0,0,0-8.048,1.727,12.8,12.8,0,0,0-5.179,4.937V5.831a12.247,12.247,0,0,0,5.214,4.544,18.958,18.958,0,0,0,8.153,1.575q7.908,0,11.058-4.816t3.149-13.661Zm77.614,32.23a34.023,34.023,0,0,1-1.925-4.725,29,29,0,0,1-1.155-5.089,25.923,25.923,0,0,1-8.328,7.936,23.247,23.247,0,0,1-12.318,3.15q-11.9,0-18.336-5.3T369.308,5.952q0-9.633,8.573-14.933t25.02-5.3h11.478v-5.21a9.4,9.4,0,0,0-2.869-7.33q-2.869-2.605-8.538-2.605-4.969,0-7.663,2.09a6.851,6.851,0,0,0-2.694,5.725H372.947l-.14-.363q-.49-8.3,8.363-14.328t23.13-6.028q13.647,0,22.081,5.937t8.433,17.024V7.709a44.508,44.508,0,0,0,.8,8.663,38.982,38.982,0,0,0,2.554,8.057ZM399.122,12.616a19.471,19.471,0,0,0,9.518-2.3,13.28,13.28,0,0,0,5.739-5.331V-4.286H402.9q-6.509,0-9.833,2.787a8.606,8.606,0,0,0-3.324,6.846,6.411,6.411,0,0,0,2.485,5.3A10.831,10.831,0,0,0,399.122,12.616Z" transform="translate(110.975 287.167)" fill="none" stroke="#fff" stroke-width="1"/>
      </g>
    </g>
    <g id="Grupo_1074623" data-name="Grupo 1074623" transform="translate(38.292)">
      <rect id="Rectángulo_383679" data-name="Rectángulo 383679" width="11.167" height="61.56" transform="translate(43.374 217.806)" fill="#f1eeeb"/>
      <path id="Trazado_827835" data-name="Trazado 827835" d="M83.249,158.19l32.082,14.5-.455,4.109L81.423,166.032Z" transform="translate(-31.598 113.333)" fill="#f1eeeb"/>
      <path id="Trazado_827836" data-name="Trazado 827836" d="M134.308,158.19l-32.084,14.5.458,4.109,33.452-10.767Z" transform="translate(-88.104 113.333)" fill="#f1eeeb"/>
      <g id="Grupo_1074622" data-name="Grupo 1074622">
        <g id="Grupo_1074621" data-name="Grupo 1074621" clip-path="url(#clip-path-2)">
          <path id="Trazado_827837" data-name="Trazado 827837" d="M77.8,176.511a7.667,7.667,0,1,0,7.667-7.667,7.667,7.667,0,0,0-7.667,7.667" transform="translate(-3.194 120.967)" fill="#02060b"/>
          <path id="Trazado_827838" data-name="Trazado 827838" d="M117.513,176.511a7.667,7.667,0,1,0,7.667-7.667,7.667,7.667,0,0,0-7.667,7.667" transform="translate(-111.061 120.967)" fill="#02060b"/>
          <path id="Trazado_827839" data-name="Trazado 827839" d="M85.037,134.793h64.722a6.472,6.472,0,1,0,0-12.944H85.037a6.472,6.472,0,1,0,0,12.944" transform="translate(-67.591 87.298)" fill="#8292fd"/>
          <path id="Trazado_827840" data-name="Trazado 827840" d="M50.06,149.707l5.676,28.06-13.378,2.327-7.252-28.1Z" transform="translate(107.497 107.256)" fill="#b87f58"/>
          <path id="Trazado_827841" data-name="Trazado 827841" d="M32.641,164.068,59.207,169.8a3.916,3.916,0,0,1,2.949,3.853l-42.611,9.315-1.8-15.832Z" transform="translate(130.88 117.545)" fill="#121314"/>
          <rect id="Rectángulo_383680" data-name="Rectángulo 383680" width="4.691" height="44.943" transform="translate(150.675 305.263) rotate(-102.332)" fill="#455157"/>
          <path id="Trazado_827842" data-name="Trazado 827842" d="M51.346,105.377l5.463,1.351a32.973,32.973,0,0,1,23.713,22.7l16.1,67.365-30,4.928-17.032-64.36L30.8,131.143Z" transform="translate(74.008 75.496)" fill="#a69382"/>
          <path id="Trazado_827843" data-name="Trazado 827843" d="M98.1,149.8,85.059,175.286,73.145,168.77l11.835-26.5Z" transform="translate(-0.161 101.93)" fill="#b87f58"/>
          <path id="Trazado_827844" data-name="Trazado 827844" d="M90.907,162.928l17.206,21.038a3.915,3.915,0,0,1-.094,4.851l-39.13-19.264,8.453-13.5Z" transform="translate(-3.66 111.8)" fill="#121314"/>
          <rect id="Rectángulo_383681" data-name="Rectángulo 383681" width="44.942" height="4.691" transform="matrix(-0.897, -0.442, 0.442, -0.897, 102.786, 305.072)" fill="#455157"/>
          <path id="Trazado_827845" data-name="Trazado 827845" d="M128.97,99.283l31.256,1.3L143.6,135.43l-43.241,3.326s-45.187,4.7-41.239-25.5Z" transform="translate(-37.786 71.13)" fill="#c4b6a7"/>
          <path id="Trazado_827846" data-name="Trazado 827846" d="M117.631,121.614,75.58,200.009,48.073,187.824l40.51-88.072,15.918.58a15,15,0,0,1,13.131,21.282" transform="translate(21.946 71.466)" fill="#c4b6a7"/>
          <path id="Trazado_827847" data-name="Trazado 827847" d="M77.441,50.774s11.813,8.3,11.813,34.421a251.372,251.372,0,0,1-4.286,46.522L70,135.084Z" transform="translate(14.087 36.377)" fill="#fff"/>
          <path id="Trazado_827848" data-name="Trazado 827848" d="M53.05,86.51S63.781,83.678,68.671,91.3c3.227,5.036,2.013,6.871.59,9.248a7.4,7.4,0,0,1-4.5,3.11c-3.344.269-9.21,1.4-13.5-5.68Z" transform="translate(64.78 61.61)" fill="#b87f58"/>
          <path id="Trazado_827849" data-name="Trazado 827849" d="M55.183,90.763l3.005,10.306a1.484,1.484,0,0,1-2.681,1.2l-5.687-9.061Z" transform="translate(79.727 65.026)" fill="#b87f58"/>
          <path id="Trazado_827850" data-name="Trazado 827850" d="M73.2,89.3l22.106-3.381-.779,15.084-33.455,8.924Z" transform="translate(23.359 61.558)" fill="#1682fb"/>
          <path id="Trazado_827851" data-name="Trazado 827851" d="M142.218,58.4s18.222,19.185,0,77.211L72.364,149.583s2.132-54,20.369-77.447,37.058-23.556,37.058-23.556Z" transform="translate(-51.034 34.804)" fill="#1682fb"/>
          <path id="Trazado_827852" data-name="Trazado 827852" d="M80.415,70.131s-1.528,27.83-7.985,50.038" transform="translate(18.754 50.245)" fill="none" stroke="#dddada" stroke-miterlimit="10" stroke-width="0.928"/>
          <path id="Trazado_827853" data-name="Trazado 827853" d="M149.6,73.064c-8.4,12.592-38.829,57.13-38.829,57.13s-11.128,12.7-20.92,5.6c-13.908-10.082,5.3-37.418,5.3-37.418s22.173-35.769,42.775-46.981c5.923-3.222,9.022.76,10.269,5.371l2.53,9.349a8.5,8.5,0,0,1-1.129,6.95" transform="translate(-73.086 35.983)" fill="#1682fb"/>
          <line id="Línea_331" data-name="Línea 331" x1="25.429" y2="36.78" transform="translate(43.373 120.376)" fill="none" stroke="#dddada" stroke-miterlimit="10" stroke-width="0.928"/>
          <path id="Trazado_827854" data-name="Trazado 827854" d="M69.452,86.86s10.731-2.834,15.621,4.794c3.227,5.036,2.013,6.871.59,9.248a7.4,7.4,0,0,1-4.5,3.11c-3.344.271-9.21,1.4-13.5-5.681Z" transform="translate(20.225 61.861)" fill="#b87f58"/>
          <path id="Trazado_827855" data-name="Trazado 827855" d="M71.585,91.114l3.005,10.306a1.484,1.484,0,0,1-2.681,1.2l-5.687-9.061Z" transform="translate(35.172 65.278)" fill="#b87f58"/>
          <path id="Trazado_827856" data-name="Trazado 827856" d="M90.051,89.854c1.107.276,52.5-3.225,52.5-3.225L140.61,99.085s-28.859,12.29-62.636,12.511Z" transform="translate(-52.895 62.064)" fill="#1682fb"/>
          <line id="Línea_332" data-name="Línea 332" y1="3.34" x2="51.409" transform="translate(38.245 148.692)" fill="none" stroke="#dddada" stroke-miterlimit="10" stroke-width="0.928"/>
          <path id="Trazado_827857" data-name="Trazado 827857" d="M79,107.007c27.224,2.123,65.038-9.926,65.038-9.926l.747-3.752" transform="translate(-56.892 66.865)" fill="none" stroke="#dddada" stroke-miterlimit="10" stroke-width="0.928"/>
          <path id="Trazado_827858" data-name="Trazado 827858" d="M59.115,97.735h47.962V101.2H59.115a1.731,1.731,0,0,1,0-3.462" transform="translate(17.915 70.021)" fill="#121314"/>
          <path id="Trazado_827859" data-name="Trazado 827859" d="M78.706,65.159H49.478L20,124.536H49.285a7.447,7.447,0,0,0,6.689-4.174L81.1,69a2.669,2.669,0,0,0-2.4-3.841" transform="translate(107.78 46.683)" fill="#455157"/>
          <path id="Trazado_827860" data-name="Trazado 827860" d="M73.577,65.159H72.212a6.367,6.367,0,0,0-5.7,3.52L38.587,124.536H44.1Z" transform="translate(83.682 46.683)" fill="#121314"/>
          <path id="Trazado_827861" data-name="Trazado 827861" d="M34.059,83.386c-1.215,2.9-.774,5.851.985,6.586s4.166-1.02,5.381-3.922.774-5.85-.985-6.586-4.168,1.02-5.381,3.922" transform="translate(125.098 56.811)" fill="#86969c"/>
          <path id="Trazado_827862" data-name="Trazado 827862" d="M59.56,41.016A6.3,6.3,0,1,0,68.168,38.7a6.3,6.3,0,0,0-8.608,2.317" transform="translate(51.377 27.122)" fill="#a06945"/>
          <path id="Trazado_827863" data-name="Trazado 827863" d="M96.515,49.678,86.963,66.732c-3.108,5.5-7.1,3.749-12.492.645-4.6-2.65-7.763-6.265-5.705-11.159L79.443,35.342Z" transform="translate(10.045 25.32)" fill="#b87f58"/>
          <path id="Trazado_827864" data-name="Trazado 827864" d="M79.2,62.237S71.026,56.2,69.643,40.294c-.362-4.162,15.7,11.056,15.7,11.056Z" transform="translate(18.625 28.352)" fill="#a56c4b"/>
          <path id="Trazado_827865" data-name="Trazado 827865" d="M63.72,63.826l5.2,3A11.71,11.71,0,0,0,85.1,62.18l8.6-16.138a15.377,15.377,0,0,0-5.9-20.556c-7.358-4.238-18.05-2.449-22.288,4.911l-7.4,14.483A14.333,14.333,0,0,0,63.72,63.826" transform="translate(30.938 16.644)" fill="#b87f58"/>
          <path id="Trazado_827866" data-name="Trazado 827866" d="M57.754,46.4l9.873-12.751S79.244,42.541,89.709,44.7l1.627-2.049a8.568,8.568,0,0,0-3.586-11.934L69.936,21.8C57.222,13.1,55.157,37.184,55.157,37.184Z" transform="translate(36.336 14.263)" fill="#1f2326"/>
          <path id="Trazado_827867" data-name="Trazado 827867" d="M75.028,32.11a6.3,6.3,0,1,0,8.608-2.317,6.3,6.3,0,0,0-8.608,2.317" transform="translate(9.359 20.741)" fill="#b87f58"/>
          <path id="Trazado_827868" data-name="Trazado 827868" d="M78.9,36.841s2.281-3.962-1.866-5.518" transform="translate(11.751 22.441)" fill="none" stroke="#1f2326" stroke-linecap="round" stroke-linejoin="round" stroke-width="0.484"/>
          <path id="Trazado_827869" data-name="Trazado 827869" d="M68.212,42.932l-.942,2.434-1.751-1.008" transform="translate(42.818 30.758)" fill="none" stroke="#1f2326" stroke-linecap="round" stroke-linejoin="round" stroke-width="0.484"/>
          <path id="Trazado_827870" data-name="Trazado 827870" d="M69.812,36.208s3.2,1.251,2.364,2.872c0,0-.592,1.083-3.35-.076s-3.311-1.766-3-2.913,2.559-.611,3.986.117" transform="translate(38.322 25.381)" fill="#1f2326"/>
          <path id="Trazado_827871" data-name="Trazado 827871" d="M62.938,39.952s-2.319-1.634-3.34-.233c0,0-.673.958,1.392,2.326s2.971,1.377,3.625.661c.741-.81-.5-2.11-1.677-2.753" transform="translate(56.537 28.05)" fill="#1f2326"/>
          <path id="Trazado_827872" data-name="Trazado 827872" d="M61.789,42a1.177,1.177,0,1,0,1.584-.51,1.176,1.176,0,0,0-1.584.51" transform="translate(53.643 29.629)" fill="#1f2326"/>
          <path id="Trazado_827873" data-name="Trazado 827873" d="M68.108,38.96a1.177,1.177,0,1,0,1.584-.51,1.176,1.176,0,0,0-1.584.51" transform="translate(36.478 27.454)" fill="#1f2326"/>
          <path id="Trazado_827874" data-name="Trazado 827874" d="M59.951,39.8a7.047,7.047,0,0,0-2.2,9.276,6.089,6.089,0,0,0,8.814,1.692,7.043,7.043,0,0,0,2.2-9.274A6.089,6.089,0,0,0,59.951,39.8Z" transform="translate(56.262 27.669)" fill="none" stroke="#fff" stroke-miterlimit="10" stroke-width="0.538"/>
          <path id="Trazado_827875" data-name="Trazado 827875" d="M65.7,38.108a7.221,7.221,0,1,0,9.72-3.129A7.222,7.222,0,0,0,65.7,38.108Z" transform="translate(32.738 24.489)" fill="none" stroke="#fff" stroke-miterlimit="10" stroke-width="0.558"/>
          <line id="Línea_333" data-name="Línea 333" x1="2.47" y1="1.267" transform="translate(111.157 69.445)" fill="none" stroke="#fff" stroke-miterlimit="10" stroke-width="0.558"/>
          <line id="Línea_334" data-name="Línea 334" x1="2.357" y1="4.216" transform="translate(96.155 57.994)" fill="none" stroke="#fff" stroke-miterlimit="10" stroke-width="0.558"/>
          <path id="Trazado_827876" data-name="Trazado 827876" d="M72.244,47.135,66.6,44s-.956,2.089,1.631,3.563,4.01-.431,4.01-.431" transform="translate(37.222 31.525)" fill="#fff"/>
          <path id="Trazado_827877" data-name="Trazado 827877" d="M79.332,29.751s-3.419,6.94-9.765,3.659c-7.4-3.824,2.65-8.119,2.65-8.119Z" transform="translate(29.419 18.12)" fill="#1f2326"/>
          <path id="Trazado_827878" data-name="Trazado 827878" d="M79.364,44.974s6.483.033,7.286-6.33-6.08-7.164-6.08-7.164a4.809,4.809,0,0,0-1.632-5.867c-3.256-2.3-7.908.7-7.908.7S57.457,16.7,53.114,20.352,68.5,35.007,68.5,35.007Z" transform="translate(46.682 13.987)" fill="#1f2326"/>
          <path id="Trazado_827879" data-name="Trazado 827879" d="M73.989,50.565s3.653,8.12,13.148,16.938A32.006,32.006,0,0,0,91.886,55Z" transform="translate(4.607 36.227)" fill="#b87f58"/>
          <line id="Línea_335" data-name="Línea 335" x1="195.201" transform="translate(0 305.145)" fill="none" stroke="#baaea7" stroke-miterlimit="10" stroke-width="0.976"/>
          <path id="Trazado_827880" data-name="Trazado 827880" d="M41.895,57.863H0v-21.2a3.181,3.181,0,0,1,3.181-3.181H41.895a3.18,3.18,0,0,1,3.181,3.181V54.682a3.18,3.18,0,0,1-3.181,3.181" transform="translate(178.415 23.991)" fill="#ffce00"/>
          <path id="Trazado_827881" data-name="Trazado 827881" d="M20.956,44.749,20.921,55.52l9.2-10.741Z" transform="translate(157.461 32.06)" fill="#ffce00"/>
          <path id="Trazado_827882" data-name="Trazado 827882" d="M6.339,41.269a2.029,2.029,0,1,0,2.036-2.022,2.03,2.03,0,0,0-2.036,2.022" transform="translate(202.214 28.118)" fill="#fff"/>
          <path id="Trazado_827883" data-name="Trazado 827883" d="M11.41,41.254a2.029,2.029,0,1,0,2.036-2.024,2.03,2.03,0,0,0-2.036,2.024" transform="translate(188.439 28.106)" fill="#fff"/>
          <path id="Trazado_827884" data-name="Trazado 827884" d="M16.48,41.238a2.03,2.03,0,1,0,2.036-2.022,2.03,2.03,0,0,0-2.036,2.022" transform="translate(174.665 28.096)" fill="#fff"/>
          <path id="Trazado_827885" data-name="Trazado 827885" d="M27.627,39.264H99.063a5.736,5.736,0,0,0,5.736-5.736V5.735A5.735,5.735,0,0,0,99.063,0H27.627a5.735,5.735,0,0,0-5.735,5.735V33.527a5.735,5.735,0,0,0,5.735,5.736" transform="translate(81.115)" fill="#3ee2a8"/>
          <path id="Trazado_827886" data-name="Trazado 827886" d="M43.352,19.695V30.957a1.837,1.837,0,0,1-3.134,1.3L27.657,19.695Z" transform="translate(132.667 14.11)" fill="#3ee2a8"/>
          <line id="Línea_336" data-name="Línea 336" x1="54.265" transform="translate(117.319 9.901)" fill="none" stroke="#fff" stroke-linecap="round" stroke-linejoin="round" stroke-width="1.024"/>
          <line id="Línea_337" data-name="Línea 337" x1="18.67" transform="translate(152.914 18.378)" fill="none" stroke="#fff" stroke-linecap="round" stroke-linejoin="round" stroke-width="1.024"/>
          <line id="Línea_338" data-name="Línea 338" x1="39.696" transform="translate(131.888 28.049)" fill="none" stroke="#fff" stroke-linecap="round" stroke-linejoin="round" stroke-width="1.024"/>
        </g>
      </g>
    </g>
  </g>
</svg>
