<svg xmlns="http://www.w3.org/2000/svg" xmlns:xlink="http://www.w3.org/1999/xlink" width="300.327" height="303.819" viewBox="0 0 300.327 303.819">
  <defs>
    <clipPath id="clip-path">
      <rect id="Rectángulo_383683" data-name="Rectángulo 383683" width="300.037" height="188.408" rx="14" transform="translate(0 0)" fill="#273a89"/>
    </clipPath>
    <clipPath id="clip-path-2">
      <rect id="Rectángulo_384042" data-name="Rectángulo 384042" width="288.739" height="243.282" fill="none"/>
    </clipPath>
    <clipPath id="clip-path-8">
      <rect id="Rectángulo_384039" data-name="Rectángulo 384039" width="14.509" height="1.707" fill="none"/>
    </clipPath>
  </defs>
  <g id="Grupo_1074908" data-name="Grupo 1074908" transform="translate(7673 494)">
    <g id="Grupo_1074877" data-name="Grupo 1074877" transform="translate(-7673 -496.514)">
      <g id="Grupo_1074626" data-name="Grupo 1074626" transform="translate(6.466 2.514)">
        <path id="Trazado_818450" data-name="Trazado 818450" d="M248.167,55.638,206.012,12.788,166.325,53.132l-39.913-40.57L84.706,54.955,43.449,13.018,6.179,50.9,0,44.621,43.449.456,84.706,42.39,126.412,0l39.913,40.568L206.012.227l42.155,42.849L287.679,2.913l6.182,6.278Z" transform="translate(0 0)" fill="#add3fd"/>
        <path id="Trazado_818451" data-name="Trazado 818451" d="M248.167,72.433,206.012,29.586,166.325,69.924,126.412,29.357,84.706,71.75,43.449,29.813,6.179,67.7,0,61.416,43.449,17.252,84.706,59.188,126.412,16.8l39.913,40.57,39.687-40.341,42.155,42.847,39.512-40.163,6.182,6.278Z" transform="translate(0 26.508)" fill="#add3fd"/>
        <path id="Trazado_818452" data-name="Trazado 818452" d="M248.167,89.228,206.012,46.382,166.325,86.722,126.412,46.155,84.706,88.545,43.449,46.608,6.179,84.495,0,78.211,43.449,34.047,84.706,75.983,126.412,33.59l39.913,40.57L206.012,33.82l42.155,42.847L287.679,36.5l6.182,6.281Z" transform="translate(0 53.016)" fill="#add3fd"/>
        <path id="Trazado_818453" data-name="Trazado 818453" d="M248.167,106.024,206.012,63.175l-39.687,40.341L126.412,62.948,84.706,105.341,43.449,63.4,6.179,101.288,0,95.007,43.449,50.843,84.706,92.78l41.706-42.393,39.913,40.57,39.687-40.343,42.155,42.849L287.679,53.3l6.182,6.281Z" transform="translate(0 79.527)" fill="#add3fd"/>
        <path id="Trazado_818454" data-name="Trazado 818454" d="M248.167,122.82,206.012,79.97l-39.687,40.341L126.412,79.743,84.706,122.136,43.449,80.2,6.179,118.086,0,111.8,43.449,67.638l41.257,41.937,41.706-42.393,39.913,40.57,39.687-40.341,42.155,42.849L287.679,70.1l6.182,6.281Z" transform="translate(0 106.036)" fill="#add3fd"/>
        <path id="Trazado_818455" data-name="Trazado 818455" d="M248.167,139.615,206.012,96.768l-39.687,40.341L126.412,96.541l-41.706,42.39L43.449,97,6.179,134.881,0,128.6,43.449,84.433,84.706,126.37l41.706-42.393,39.913,40.57,39.687-40.341,42.155,42.847,39.512-40.163,6.182,6.281Z" transform="translate(0 132.544)" fill="#add3fd"/>
      </g>
      <rect id="Rectángulo_383419" data-name="Rectángulo 383419" width="300.037" height="181.854" rx="14" transform="translate(0 124.479)" fill="#273a89"/>
      <g id="Enmascarar_grupo_192" data-name="Enmascarar grupo 192" transform="translate(0.29 117.925)" clip-path="url(#clip-path)">
        <g id="Grupo_1074624" data-name="Grupo 1074624" transform="translate(-199.474 -65.111)">
          <path id="Trazado_827892" data-name="Trazado 827892" d="M88.483-7.876q0,17.542-9.373,28.214T52.934,31.01a33.158,33.158,0,0,1-12.75-2.3,25.784,25.784,0,0,1-9.542-6.761V59.882H6.07V-49.612H28.278l1.435,9.356a27.984,27.984,0,0,1,9.753-8,29.7,29.7,0,0,1,13.3-2.814q16.972,0,26.345,11.476T88.483-9.411ZM63.827-9.411q0-11.183-4.306-18.127T46.348-34.482a20.965,20.965,0,0,0-9.5,1.974,15.22,15.22,0,0,0-6.206,5.628V7.766a14.421,14.421,0,0,0,6.206,5.117,23.675,23.675,0,0,0,9.668,1.754q8.951,0,13.13-6.067t4.18-16.446Zm87.9-21.855-9.035-.219a18.435,18.435,0,0,0-9.035,1.974,13.17,13.17,0,0,0-5.4,5.555V29.475H103.682V-49.612h22.883l1.1,11.695A25.628,25.628,0,0,1,135.98-47.6a20.454,20.454,0,0,1,11.779-3.472,21.216,21.216,0,0,1,3.42.256q1.562.256,3.167.621ZM220.547,17.78a28.992,28.992,0,0,1-10.724,9.795,31.889,31.889,0,0,1-15.115,3.435q-14.439,0-22.588-8.479T163.972-3.782v-45.83h24.572V-3.636q0,10.379,3.251,14.217t10.091,3.837a27.929,27.929,0,0,0,10.133-1.645,16.834,16.834,0,0,0,6.924-4.861V-49.612H243.6V29.475H223.164Zm81.231,13.23q-20.434,0-31.918-10.854T258.375-7.8v-2.924q0-17.762,11.146-29.091t30.652-11.256q18.408,0,28.245,9.758t9.837,26.277V-4H283.792l-.253.439a19.806,19.806,0,0,0,5.7,13.157q5.109,5.043,15.157,5.043a58.185,58.185,0,0,0,14.059-1.462A62.389,62.389,0,0,0,330.4,8.717l6.671,13.157q-5.489,3.874-14.861,6.505A75.392,75.392,0,0,1,301.777,31.01Zm-1.6-65.638q-7.431,0-11.442,4.422a20.442,20.442,0,0,0-4.855,11.732l.169.365h30.06v-1.608q0-6.944-3.293-10.927T300.173-34.628ZM435.023-7.876q0,17.689-9.119,28.287t-26.345,10.6a31.358,31.358,0,0,1-13.975-2.924,27.424,27.424,0,0,1-10.091-8.552l-2.027,9.941H352.61V-84.551h24.572v43.344a27.034,27.034,0,0,1,9.5-7.309,29.96,29.96,0,0,1,12.708-2.558q17.394,0,26.514,11.366t9.119,30.3ZM410.451-9.411q0-11.549-3.926-18.31t-13.384-6.761A20.691,20.691,0,0,0,383.43-32.4a15.447,15.447,0,0,0-6.249,5.957V7.035a14.776,14.776,0,0,0,6.291,5.482,22.872,22.872,0,0,0,9.837,1.9q9.542,0,13.341-5.811t3.8-16.483Zm93.643,38.886a41.046,41.046,0,0,1-2.322-5.7,34.989,34.989,0,0,1-1.393-6.14,31.277,31.277,0,0,1-10.048,9.575,28.048,28.048,0,0,1-14.861,3.8q-14.355,0-22.123-6.4T445.578,7.182q0-11.622,10.344-18.018t30.187-6.4h13.848v-6.286q0-5.7-3.462-8.844t-10.3-3.143q-6,0-9.246,2.522a8.266,8.266,0,0,0-3.251,6.907H449.969l-.169-.439Q449.209-36.528,459.89-43.8T487.8-51.074q16.466,0,26.641,7.163t10.175,20.539V9.3a53.7,53.7,0,0,0,.971,10.452,47.038,47.038,0,0,0,3.082,9.721ZM481.549,15.222a23.491,23.491,0,0,0,11.484-2.778q5.066-2.778,6.924-6.432V-5.171H486.109q-7.853,0-11.864,3.362a10.384,10.384,0,0,0-4.011,8.26,7.736,7.736,0,0,0,3,6.4Q476.229,15.222,481.549,15.222Z" transform="translate(-6.07 84.551)" fill="none" stroke="#fff" stroke-width="1"/>
          <path id="Trazado_827890" data-name="Trazado 827890" d="M75.729-6.74q0,15.014-8.022,24.147T45.3,26.54A28.378,28.378,0,0,1,34.392,24.57a22.068,22.068,0,0,1-8.166-5.787V51.25H5.2V-42.461H24.2l1.229,8.007a23.951,23.951,0,0,1,8.347-6.85A25.414,25.414,0,0,1,45.16-43.712q14.526,0,22.548,9.822T75.729-8.054Zm-21.1-1.314q0-9.571-3.686-15.514T39.667-29.511a17.943,17.943,0,0,0-8.13,1.689,13.026,13.026,0,0,0-5.312,4.817V6.647a12.342,12.342,0,0,0,5.312,4.379,20.262,20.262,0,0,0,8.275,1.5q7.66,0,11.238-5.192T54.627-6.74Zm75.231-18.7-7.733-.188a15.778,15.778,0,0,0-7.733,1.689,11.272,11.272,0,0,0-4.625,4.754v45.73H88.737V-42.461h19.585l.939,10.009a21.934,21.934,0,0,1,7.118-8.289,17.505,17.505,0,0,1,10.081-2.971,18.159,18.159,0,0,1,2.927.219q1.337.219,2.71.532Zm58.9,41.976a24.813,24.813,0,0,1-9.178,8.383,27.292,27.292,0,0,1-12.936,2.94q-12.358,0-19.332-7.257T140.337-3.237V-42.461h21.03V-3.112q0,8.883,2.782,12.167t8.636,3.284a23.9,23.9,0,0,0,8.672-1.408,14.408,14.408,0,0,0,5.926-4.16V-42.461h21.1V25.226H191ZM258.278,26.54q-17.489,0-27.317-9.29T221.132-6.678v-2.5q0-15.2,9.539-24.9T256.9-43.712q15.754,0,24.174,8.351T289.5-12.871v9.446H242.885l-.217.375a16.951,16.951,0,0,0,4.878,11.26q4.372,4.316,12.972,4.316a49.8,49.8,0,0,0,12.033-1.251A53.4,53.4,0,0,0,282.777,7.46l5.709,11.26a41.7,41.7,0,0,1-12.719,5.568A64.524,64.524,0,0,1,258.278,26.54ZM256.9-29.636q-6.36,0-9.792,3.785a17.5,17.5,0,0,0-4.155,10.04l.145.313h25.727v-1.376q0-5.943-2.818-9.352T256.9-29.636ZM372.317-6.74q0,15.139-7.8,24.21T341.964,26.54a26.837,26.837,0,0,1-11.96-2.5,23.471,23.471,0,0,1-8.636-7.319l-1.734,8.508h-17.85v-97.59h21.03v37.1a23.138,23.138,0,0,1,8.13-6.256,25.641,25.641,0,0,1,10.876-2.19q14.887,0,22.692,9.728t7.8,25.93Zm-21.03-1.314q0-9.884-3.36-15.671t-11.454-5.787a17.708,17.708,0,0,0-8.311,1.783,13.221,13.221,0,0,0-5.348,5.1V6.021a12.646,12.646,0,0,0,5.384,4.692,19.576,19.576,0,0,0,8.419,1.626q8.166,0,11.418-4.973T351.287-6.74Zm80.145,33.281a35.13,35.13,0,0,1-1.987-4.879,29.947,29.947,0,0,1-1.192-5.255,26.768,26.768,0,0,1-8.6,8.2,24,24,0,0,1-12.719,3.253q-12.286,0-18.934-5.474T381.35,6.146q0-9.947,8.853-15.42t25.836-5.474h11.852v-5.38a9.7,9.7,0,0,0-2.963-7.569q-2.963-2.69-8.817-2.69-5.131,0-7.913,2.158a7.074,7.074,0,0,0-2.782,5.912H385.108l-.145-.375q-.506-8.57,8.636-14.795t23.885-6.224q14.092,0,22.8,6.131T448.993-20V7.961a45.96,45.96,0,0,0,.831,8.946,40.255,40.255,0,0,0,2.638,8.32Zm-19.3-12.2a20.105,20.105,0,0,0,9.828-2.377,13.714,13.714,0,0,0,5.926-5.505V-4.426H416.039q-6.721,0-10.154,2.878a8.887,8.887,0,0,0-3.433,7.069,6.621,6.621,0,0,0,2.565,5.474A11.184,11.184,0,0,0,412.137,13.028Z" transform="translate(210.775 178.482)" fill="none" stroke="#fff" stroke-width="1"/>
          <path id="Trazado_827891" data-name="Trazado 827891" d="M73.337-6.528q0,14.54-7.768,23.385T43.873,25.7a27.482,27.482,0,0,1-10.568-1.908,21.371,21.371,0,0,1-7.908-5.6V49.632H5.031V-41.12H23.438l1.19,7.755A23.194,23.194,0,0,1,32.711-40a24.612,24.612,0,0,1,11.023-2.332q14.067,0,21.836,9.511T73.337-7.8ZM52.9-7.8q0-9.269-3.569-15.024T38.415-28.579a17.376,17.376,0,0,0-7.873,1.636A12.614,12.614,0,0,0,25.4-22.279V6.437a11.952,11.952,0,0,0,5.144,4.241,19.622,19.622,0,0,0,8.013,1.454q7.418,0,10.883-5.028T52.9-6.528Zm72.855-18.114-7.489-.182a15.28,15.28,0,0,0-7.488,1.636,10.916,10.916,0,0,0-4.479,4.6V24.43H85.935V-41.12H104.9l.91,9.693a21.24,21.24,0,0,1,6.894-8.027,16.953,16.953,0,0,1,9.763-2.878,17.584,17.584,0,0,1,2.834.212q1.295.212,2.624.515ZM182.8,14.737a24.029,24.029,0,0,1-8.888,8.118A26.43,26.43,0,0,1,161.38,25.7q-11.968,0-18.721-7.028T135.9-3.135V-41.12h20.366V-3.014q0,8.6,2.694,11.783t8.363,3.181a23.148,23.148,0,0,0,8.4-1.363,13.952,13.952,0,0,0,5.739-4.029V-41.12H201.9V24.43H184.965ZM250.122,25.7q-16.937,0-26.455-9T214.149-6.467V-8.89q0-14.721,9.238-24.112t25.4-9.33q15.257,0,23.41,8.088t8.153,21.779v9.148H235.215l-.21.363a16.416,16.416,0,0,0,4.724,10.9q4.234,4.18,12.562,4.18a48.226,48.226,0,0,0,11.653-1.212,51.71,51.71,0,0,0,9.9-3.7l5.529,10.9a40.38,40.38,0,0,1-12.317,5.392A62.487,62.487,0,0,1,250.122,25.7Zm-1.33-54.4q-6.159,0-9.483,3.665a16.943,16.943,0,0,0-4.024,9.723l.14.3H260.34v-1.333q0-5.755-2.729-9.057T248.792-28.7ZM360.559-6.528q0,14.661-7.558,23.445T331.165,25.7a25.99,25.99,0,0,1-11.583-2.423,22.73,22.73,0,0,1-8.363-7.088l-1.68,8.239H292.253V-70.078h20.366v35.925a22.407,22.407,0,0,1,7.873-6.058,24.832,24.832,0,0,1,10.533-2.12q14.417,0,21.976,9.42T360.559-7.8ZM340.194-7.8q0-9.572-3.254-15.176t-11.093-5.6a17.149,17.149,0,0,0-8.048,1.727,12.8,12.8,0,0,0-5.179,4.937V5.831a12.247,12.247,0,0,0,5.214,4.544,18.958,18.958,0,0,0,8.153,1.575q7.908,0,11.058-4.816t3.149-13.661Zm77.614,32.23a34.023,34.023,0,0,1-1.925-4.725,29,29,0,0,1-1.155-5.089,25.923,25.923,0,0,1-8.328,7.936,23.247,23.247,0,0,1-12.318,3.15q-11.9,0-18.336-5.3T369.308,5.952q0-9.633,8.573-14.933t25.02-5.3h11.478v-5.21a9.4,9.4,0,0,0-2.869-7.33q-2.869-2.605-8.538-2.605-4.969,0-7.663,2.09a6.851,6.851,0,0,0-2.694,5.725H372.947l-.14-.363q-.49-8.3,8.363-14.328t23.13-6.028q13.647,0,22.081,5.937t8.433,17.024V7.709a44.508,44.508,0,0,0,.8,8.663,38.982,38.982,0,0,0,2.554,8.057ZM399.122,12.616a19.471,19.471,0,0,0,9.518-2.3,13.28,13.28,0,0,0,5.739-5.331V-4.286H402.9q-6.509,0-9.833,2.787a8.606,8.606,0,0,0-3.324,6.846,6.411,6.411,0,0,0,2.485,5.3A10.831,10.831,0,0,0,399.122,12.616Z" transform="translate(110.975 287.167)" fill="none" stroke="#fff" stroke-width="1"/>
        </g>
      </g>
    </g>
    <g id="Grupo_1074907" data-name="Grupo 1074907" transform="translate(-7667.26 -464.164)">
      <g id="Grupo_1074906" data-name="Grupo 1074906" clip-path="url(#clip-path-2)">
        <g id="Grupo_1074894" data-name="Grupo 1074894">
          <g id="Grupo_1074893" data-name="Grupo 1074893" clip-path="url(#clip-path-2)">
            <path id="Trazado_828816" data-name="Trazado 828816" d="M238.222,40.731H7.211A7.21,7.21,0,0,0,0,47.941V211.11a7.21,7.21,0,0,0,7.211,7.211H95.873l-4.486,43.363,64.576-.4-3.694-42.959h85.954a7.211,7.211,0,0,0,7.211-7.21V47.942a7.211,7.211,0,0,0-7.212-7.211" transform="translate(0 -18.402)" fill="#455a64"/>
            <path id="Trazado_828817" data-name="Trazado 828817" d="M223.181,332.246c3.142,4.491-1.776,9.409-6.268,6.268a1.619,1.619,0,0,1-.386-.388c-3.134-4.49,1.778-9.4,6.268-6.267a1.586,1.586,0,0,1,.386.387" transform="translate(-97.38 -149.487)" fill="#263238"/>
            <path id="Trazado_828818" data-name="Trazado 828818" d="M244.734,190.935H7.256V51.5a5.316,5.316,0,0,1,5.316-5.316H239.418a5.316,5.316,0,0,1,5.316,5.316Z" transform="translate(-3.278 -20.866)" fill="#fff"/>
            <path id="Trazado_828819" data-name="Trazado 828819" d="M244.734,58.212H7.256V51.2a5.018,5.018,0,0,1,5.018-5.018h228.34a4.12,4.12,0,0,1,4.12,4.12Z" transform="translate(-3.278 -20.866)" fill="#f5f5f5"/>
            <path id="Trazado_828820" data-name="Trazado 828820" d="M21.344,56.24a1.668,1.668,0,1,1-1.668-1.668,1.668,1.668,0,0,1,1.668,1.668" transform="translate(-8.136 -24.656)" fill="#e0e0e0"/>
            <path id="Trazado_828821" data-name="Trazado 828821" d="M30.416,56.24a1.668,1.668,0,1,1-1.668-1.668,1.668,1.668,0,0,1,1.668,1.668" transform="translate(-12.235 -24.656)" fill="#e0e0e0"/>
            <path id="Trazado_828822" data-name="Trazado 828822" d="M39.043,56.24a1.668,1.668,0,1,1-1.668-1.668,1.668,1.668,0,0,1,1.668,1.668" transform="translate(-16.132 -24.656)" fill="#e0e0e0"/>
            <path id="Trazado_828823" data-name="Trazado 828823" d="M249.95,364.572c0,.079-19.366.143-43.248.143s-43.253-.064-43.253-.143,19.361-.143,43.253-.143,43.248.064,43.248.143" transform="translate(-73.847 -164.65)" fill="#263238"/>
            <rect id="Rectángulo_384030" data-name="Rectángulo 384030" width="39.033" height="132.723" transform="translate(3.978 37.345)" fill="#ebebeb"/>
            <path id="Trazado_828824" data-name="Trazado 828824" d="M37.02,72.522a2.674,2.674,0,0,1,.65-.282L37.8,71.6l1.087-.019.157.638a2.667,2.667,0,0,1,.659.259l.549-.36.782.755-.34.562a2.659,2.659,0,0,1,.282.65l.643.134.019,1.087L41,75.458a2.65,2.65,0,0,1-.259.659l.36.549-.755.782-.562-.34a2.68,2.68,0,0,1-.65.282L39,78.034l-1.087.019-.157-.638a2.654,2.654,0,0,1-.659-.259l-.549.36-.782-.755.34-.561a2.675,2.675,0,0,1-.282-.65l-.643-.134-.019-1.087.638-.157a2.666,2.666,0,0,1,.259-.659l-.36-.549.755-.782Zm.579,1.448a1.166,1.166,0,1,0,1.649-.029,1.166,1.166,0,0,0-1.649.029" transform="translate(-15.888 -32.339)" fill="#e0e0e0"/>
            <path id="Trazado_828825" data-name="Trazado 828825" d="M39.533,125.974H22.517a1.749,1.749,0,0,1,0-3.5H39.533a1.749,1.749,0,1,1,0,3.5" transform="translate(-9.383 -55.335)" fill="#e0e0e0"/>
            <path id="Trazado_828826" data-name="Trazado 828826" d="M39.533,109.723H22.517a1.749,1.749,0,0,1,0-3.5H39.533a1.749,1.749,0,1,1,0,3.5" transform="translate(-9.383 -47.993)" fill="#e0e0e0"/>
            <path id="Trazado_828827" data-name="Trazado 828827" d="M39.533,94.858H22.517a1.749,1.749,0,0,1,0-3.5H39.533a1.749,1.749,0,1,1,0,3.5" transform="translate(-9.383 -41.277)" fill="#e0e0e0"/>
            <path id="Trazado_828828" data-name="Trazado 828828" d="M123.668,93.026H107.551a1.748,1.748,0,0,1,0-3.5h16.117a1.748,1.748,0,1,1,0,3.5" transform="translate(-47.802 -40.449)" fill="#263238"/>
            <path id="Trazado_828829" data-name="Trazado 828829" d="M123.668,109.723H107.551a1.748,1.748,0,0,1,0-3.5h16.117a1.748,1.748,0,1,1,0,3.5" transform="translate(-47.802 -47.993)" fill="#e0e0e0"/>
            <path id="Trazado_828830" data-name="Trazado 828830" d="M123.668,126.978H107.551a1.748,1.748,0,0,1,0-3.5h16.117a1.748,1.748,0,1,1,0,3.5" transform="translate(-47.802 -55.789)" fill="#1682fb"/>
            <path id="Trazado_828831" data-name="Trazado 828831" d="M116.793,160.339h-9.242a1.749,1.749,0,1,1,0-3.5h9.242a1.749,1.749,0,1,1,0,3.5" transform="translate(-47.802 -70.861)" fill="#263238"/>
            <path id="Trazado_828832" data-name="Trazado 828832" d="M116.793,177.632h-9.242a1.748,1.748,0,1,1,0-3.5h9.242a1.748,1.748,0,1,1,0,3.5" transform="translate(-47.802 -78.675)" fill="#263238"/>
            <path id="Trazado_828833" data-name="Trazado 828833" d="M160.547,177.632H143.6a1.748,1.748,0,1,1,0-3.5h16.946a1.748,1.748,0,1,1,0,3.5" transform="translate(-64.089 -78.675)" fill="#e0e0e0"/>
            <path id="Trazado_828834" data-name="Trazado 828834" d="M143.063,193.01H126.117a1.749,1.749,0,1,1,0-3.5h16.946a1.749,1.749,0,1,1,0,3.5" transform="translate(-56.19 -85.622)" fill="#1682fb"/>
            <path id="Trazado_828835" data-name="Trazado 828835" d="M154.231,210.55h-10.62a1.7,1.7,0,0,1-1.7-1.7v-.09a1.7,1.7,0,0,1,1.7-1.7h10.62a1.7,1.7,0,0,1,1.7,1.7v.09a1.7,1.7,0,0,1-1.7,1.7" transform="translate(-64.114 -93.547)" fill="#1682fb"/>
            <path id="Trazado_828836" data-name="Trazado 828836" d="M154.187,244.926h-10.53a1.748,1.748,0,1,1,0-3.5h10.53a1.748,1.748,0,1,1,0,3.5" transform="translate(-64.114 -109.078)" fill="#1682fb"/>
            <path id="Trazado_828837" data-name="Trazado 828837" d="M154.187,281.235h-10.53a1.749,1.749,0,0,1,0-3.5h10.53a1.749,1.749,0,0,1,0,3.5" transform="translate(-64.114 -125.482)" fill="#1682fb"/>
            <path id="Trazado_828838" data-name="Trazado 828838" d="M194.87,281.235H176.41a1.749,1.749,0,0,1,0-3.5h18.46a1.749,1.749,0,1,1,0,3.5" transform="translate(-78.912 -125.482)" fill="#455a64"/>
            <path id="Trazado_828839" data-name="Trazado 828839" d="M231.462,281.235H228.8a1.749,1.749,0,1,1,0-3.5h2.659a1.749,1.749,0,0,1,0,3.5" transform="translate(-102.583 -125.482)" fill="#e0e0e0"/>
            <path id="Trazado_828840" data-name="Trazado 828840" d="M195.209,244.926h-15.6a1.748,1.748,0,1,1,0-3.5h15.6a1.748,1.748,0,1,1,0,3.5" transform="translate(-80.357 -109.078)" fill="#e0e0e0"/>
            <path id="Trazado_828841" data-name="Trazado 828841" d="M229.418,260.865H179.609a1.748,1.748,0,1,1,0-3.5h49.809a1.748,1.748,0,1,1,0,3.5" transform="translate(-80.357 -116.279)" fill="#e0e0e0"/>
            <path id="Trazado_828842" data-name="Trazado 828842" d="M254.755,244.926h-31.8a1.748,1.748,0,1,1,0-3.5h31.8a1.748,1.748,0,1,1,0,3.5" transform="translate(-99.941 -109.078)" fill="#455a64"/>
            <path id="Trazado_828843" data-name="Trazado 828843" d="M190.82,210.55H177.555a1.7,1.7,0,0,1-1.7-1.7v-.09a1.7,1.7,0,0,1,1.7-1.7H190.82a1.7,1.7,0,0,1,1.7,1.7v.09a1.7,1.7,0,0,1-1.7,1.7" transform="translate(-79.45 -93.547)" fill="#455a64"/>
            <path id="Trazado_828844" data-name="Trazado 828844" d="M219.782,210.55h-3.364a1.7,1.7,0,0,1-1.7-1.7v-.09a1.7,1.7,0,0,1,1.7-1.7h3.364a1.7,1.7,0,0,1,1.7,1.7v.09a1.7,1.7,0,0,1-1.7,1.7" transform="translate(-97.008 -93.547)" fill="#e0e0e0"/>
            <path id="Trazado_828845" data-name="Trazado 828845" d="M254.727,210.55H238.163a1.7,1.7,0,0,1-1.7-1.7v-.09a1.7,1.7,0,0,1,1.7-1.7h16.564a1.7,1.7,0,0,1,1.7,1.7v.09a1.7,1.7,0,0,1-1.7,1.7" transform="translate(-106.833 -93.547)" fill="#e0e0e0"/>
            <path id="Trazado_828846" data-name="Trazado 828846" d="M174.856,193.01H171.08a1.749,1.749,0,0,1,0-3.5h3.775a1.749,1.749,0,0,1,0,3.5" transform="translate(-76.505 -85.622)" fill="#263238"/>
            <path id="Trazado_828847" data-name="Trazado 828847" d="M216.51,193.01H192.467a1.749,1.749,0,1,1,0-3.5H216.51a1.749,1.749,0,0,1,0,3.5" transform="translate(-86.167 -85.622)" fill="#e0e0e0"/>
            <path id="Trazado_828848" data-name="Trazado 828848" d="M170.768,93.026H154.651a1.748,1.748,0,0,1,0-3.5h16.117a1.748,1.748,0,1,1,0,3.5" transform="translate(-69.082 -40.449)" fill="#455a64"/>
            <path id="Trazado_828849" data-name="Trazado 828849" d="M191.535,109.723H154.652a1.748,1.748,0,1,1,0-3.5h36.883a1.748,1.748,0,1,1,0,3.5" transform="translate(-69.082 -47.993)" fill="#263238"/>
            <path id="Trazado_828850" data-name="Trazado 828850" d="M231.244,126.978H154.652a1.748,1.748,0,1,1,0-3.5h76.593a1.748,1.748,0,1,1,0,3.5" transform="translate(-69.082 -55.789)" fill="#e0e0e0"/>
            <path id="Trazado_828851" data-name="Trazado 828851" d="M190.767,139.132H154.652a1.749,1.749,0,0,1,0-3.5h36.115a1.749,1.749,0,1,1,0,3.5" transform="translate(-69.082 -61.28)" fill="#e0e0e0"/>
            <path id="Trazado_828852" data-name="Trazado 828852" d="M177.289,160.339H141.175a1.749,1.749,0,1,1,0-3.5h36.115a1.749,1.749,0,1,1,0,3.5" transform="translate(-62.993 -70.861)" fill="#455a64"/>
            <path id="Trazado_828853" data-name="Trazado 828853" d="M233.957,160.339H221.852a1.749,1.749,0,0,1,0-3.5h12.105a1.749,1.749,0,1,1,0,3.5" transform="translate(-99.443 -70.861)" fill="#1682fb"/>
            <path id="Trazado_828854" data-name="Trazado 828854" d="M281.546,160.236H258.679a1.749,1.749,0,0,1,0-3.5h22.866a1.749,1.749,0,1,1,0,3.5" transform="translate(-116.082 -70.815)" fill="#263238"/>
            <path id="Trazado_828855" data-name="Trazado 828855" d="M338.312,160.236H315.445a1.749,1.749,0,0,1,0-3.5h22.866a1.749,1.749,0,1,1,0,3.5" transform="translate(-141.729 -70.815)" fill="#e0e0e0"/>
            <path id="Trazado_828856" data-name="Trazado 828856" d="M32.164,143.175H22.518a1.748,1.748,0,1,1,0-3.5h9.646a1.748,1.748,0,1,1,0,3.5" transform="translate(-9.383 -63.107)" fill="#e0e0e0"/>
            <path id="Trazado_828857" data-name="Trazado 828857" d="M29.276,194.781H22.518a1.749,1.749,0,1,1,0-3.5h6.759a1.749,1.749,0,1,1,0,3.5" transform="translate(-9.383 -86.422)" fill="#e0e0e0"/>
            <path id="Trazado_828858" data-name="Trazado 828858" d="M41.281,160.376H22.518a1.749,1.749,0,1,1,0-3.5H41.281a1.749,1.749,0,1,1,0,3.5" transform="translate(-9.383 -70.878)" fill="#e0e0e0"/>
            <path id="Trazado_828859" data-name="Trazado 828859" d="M37.989,177.579H22.517a1.748,1.748,0,1,1,0-3.5H37.989a1.748,1.748,0,1,1,0,3.5" transform="translate(-9.383 -78.651)" fill="#e0e0e0"/>
            <path id="Trazado_828860" data-name="Trazado 828860" d="M91.653,91.254a1.776,1.776,0,1,1-1.776-1.776,1.776,1.776,0,0,1,1.776,1.776" transform="translate(-39.804 -40.426)" fill="#455a64"/>
            <path id="Trazado_828861" data-name="Trazado 828861" d="M91.653,107.9a1.776,1.776,0,1,1-1.776-1.776,1.776,1.776,0,0,1,1.776,1.776" transform="translate(-39.804 -47.947)" fill="#455a64"/>
            <path id="Trazado_828862" data-name="Trazado 828862" d="M91.653,125.207a1.776,1.776,0,1,1-1.776-1.776,1.776,1.776,0,0,1,1.776,1.776" transform="translate(-39.804 -55.766)" fill="#455a64"/>
            <path id="Trazado_828863" data-name="Trazado 828863" d="M91.653,142.512a1.776,1.776,0,1,1-1.776-1.776,1.776,1.776,0,0,1,1.776,1.776" transform="translate(-39.804 -63.585)" fill="#455a64"/>
            <path id="Trazado_828864" data-name="Trazado 828864" d="M91.653,159.817a1.776,1.776,0,1,1-1.776-1.776,1.776,1.776,0,0,1,1.776,1.776" transform="translate(-39.804 -71.403)" fill="#455a64"/>
            <path id="Trazado_828865" data-name="Trazado 828865" d="M91.653,177.122a1.776,1.776,0,1,1-1.776-1.776,1.776,1.776,0,0,1,1.776,1.776" transform="translate(-39.804 -79.222)" fill="#455a64"/>
            <path id="Trazado_828866" data-name="Trazado 828866" d="M91.653,194.428a1.776,1.776,0,1,1-1.776-1.776,1.776,1.776,0,0,1,1.776,1.776" transform="translate(-39.804 -87.041)" fill="#455a64"/>
            <path id="Trazado_828867" data-name="Trazado 828867" d="M91.653,211.733a1.776,1.776,0,1,1-1.776-1.776,1.776,1.776,0,0,1,1.776,1.776" transform="translate(-39.804 -94.859)" fill="#455a64"/>
            <path id="Trazado_828868" data-name="Trazado 828868" d="M91.653,229.038a1.776,1.776,0,1,1-1.776-1.776,1.776,1.776,0,0,1,1.776,1.776" transform="translate(-39.804 -102.677)" fill="#455a64"/>
            <path id="Trazado_828869" data-name="Trazado 828869" d="M91.653,246.344a1.776,1.776,0,1,1-1.776-1.776,1.776,1.776,0,0,1,1.776,1.776" transform="translate(-39.804 -110.496)" fill="#455a64"/>
            <path id="Trazado_828870" data-name="Trazado 828870" d="M91.653,263.649a1.776,1.776,0,1,1-1.776-1.776,1.776,1.776,0,0,1,1.776,1.776" transform="translate(-39.804 -118.315)" fill="#455a64"/>
            <path id="Trazado_828871" data-name="Trazado 828871" d="M91.653,280.954a1.776,1.776,0,1,1-1.776-1.776,1.776,1.776,0,0,1,1.776,1.776" transform="translate(-39.804 -126.133)" fill="#455a64"/>
          </g>
        </g>
        <g id="Grupo_1074896" data-name="Grupo 1074896">
          <g id="Grupo_1074895" data-name="Grupo 1074895" clip-path="url(#clip-path-2)">
            <path id="Trazado_828872" data-name="Trazado 828872" d="M438.868,291.382l-62.649-.037a13.592,13.592,0,0,1-13.639-13.539l.031-155.792a13.593,13.593,0,0,1,13.655-13.534l62.649.037a13.591,13.591,0,0,1,13.638,13.539l-.031,155.792a13.592,13.592,0,0,1-13.655,13.534" transform="translate(-163.814 -49.011)" fill="#263238"/>
            <path id="Trazado_828873" data-name="Trazado 828873" d="M442.014,118.653l-12.146-.007a3,3,0,0,0-2.95,3.057v2.186a3,3,0,0,1-2.95,3.057l-23.676-.014a3.007,3.007,0,0,1-2.949-3.06v-2.185a3.008,3.008,0,0,0-2.949-3.061l-4.272,0-10.631-.006a9.519,9.519,0,0,0-9.563,9.478l-.03,152.064a9.52,9.52,0,0,0,9.552,9.483l62.524.036a9.519,9.519,0,0,0,9.563-9.478l.03-152.065a9.519,9.519,0,0,0-9.552-9.482" transform="translate(-167.12 -53.591)" fill="#fff"/>
            <path id="Trazado_828874" data-name="Trazado 828874" d="M392.326,308.734h-12.38a9.922,9.922,0,0,1-9.922-9.922V160.562h22.3Z" transform="translate(-167.178 -72.542)" fill="#ebebeb"/>
            <path id="Trazado_828875" data-name="Trazado 828875" d="M443.791,177.43H433.169a1.214,1.214,0,0,1,0-2.425h10.622a1.214,1.214,0,0,1,0,2.425" transform="translate(-195.186 -79.068)" fill="#263238"/>
            <path id="Trazado_828876" data-name="Trazado 828876" d="M444.395,188.972H433.773a1.214,1.214,0,0,1,0-2.425h10.622a1.214,1.214,0,0,1,0,2.425" transform="translate(-195.459 -84.282)" fill="#e0e0e0"/>
            <path id="Trazado_828877" data-name="Trazado 828877" d="M444.627,202.173H434a1.214,1.214,0,0,1,0-2.425h10.622a1.214,1.214,0,0,1,0,2.425" transform="translate(-195.563 -90.247)" fill="#1682fb"/>
            <path id="Trazado_828878" data-name="Trazado 828878" d="M474.911,212.18H464.289a1.214,1.214,0,0,1,0-2.425h10.622a1.214,1.214,0,0,1,0,2.425" transform="translate(-209.246 -94.768)" fill="#e0e0e0"/>
            <path id="Trazado_828879" data-name="Trazado 828879" d="M443.393,225.3H437.3a1.214,1.214,0,0,1,0-2.425h6.091a1.214,1.214,0,0,1,0,2.425" transform="translate(-197.053 -100.697)" fill="#263238"/>
            <path id="Trazado_828880" data-name="Trazado 828880" d="M443.393,237.3H437.3a1.214,1.214,0,0,1,0-2.425h6.091a1.214,1.214,0,0,1,0,2.425" transform="translate(-197.053 -106.115)" fill="#263238"/>
            <path id="Trazado_828881" data-name="Trazado 828881" d="M472.229,237.3H461.061a1.214,1.214,0,0,1,0-2.425h11.168a1.214,1.214,0,0,1,0,2.425" transform="translate(-207.787 -106.115)" fill="#e0e0e0"/>
            <path id="Trazado_828882" data-name="Trazado 828882" d="M448.448,251.43H437.28a1.214,1.214,0,0,1,0-2.425h11.168a1.214,1.214,0,0,1,0,2.425" transform="translate(-197.043 -112.501)" fill="#1682fb"/>
            <path id="Trazado_828883" data-name="Trazado 828883" d="M453.339,261.381h-6.883a1.181,1.181,0,0,1-1.181-1.181v-.062a1.181,1.181,0,0,1,1.181-1.181h6.883a1.181,1.181,0,0,1,1.181,1.181v.062a1.181,1.181,0,0,1-1.181,1.181" transform="translate(-201.176 -116.997)" fill="#1682fb"/>
            <path id="Trazado_828884" data-name="Trazado 828884" d="M445.8,280.763h-6.94a1.214,1.214,0,0,1,0-2.425h6.94a1.214,1.214,0,0,1,0,2.425" transform="translate(-197.757 -125.754)" fill="#1682fb"/>
            <path id="Trazado_828885" data-name="Trazado 828885" d="M445.8,305.94h-6.94a1.214,1.214,0,0,1,0-2.425h6.94a1.214,1.214,0,0,1,0,2.425" transform="translate(-197.757 -137.129)" fill="#1682fb"/>
            <path id="Trazado_828886" data-name="Trazado 828886" d="M472.614,305.94H460.447a1.214,1.214,0,0,1,0-2.425h12.167a1.214,1.214,0,0,1,0,2.425" transform="translate(-207.51 -137.129)" fill="#455a64"/>
            <path id="Trazado_828887" data-name="Trazado 828887" d="M500.761,281.244H488.594a1.214,1.214,0,0,1,0-2.425h12.167a1.214,1.214,0,0,1,0,2.425" transform="translate(-220.227 -125.971)" fill="#455a64"/>
            <path id="Trazado_828888" data-name="Trazado 828888" d="M474.1,290.65H461.928a1.214,1.214,0,0,1,0-2.425H474.1a1.214,1.214,0,0,1,0,2.425" transform="translate(-208.18 -130.221)" fill="#455a64"/>
            <path id="Trazado_828889" data-name="Trazado 828889" d="M496.731,305.94h-1.753a1.214,1.214,0,0,1,0-2.425h1.753a1.214,1.214,0,0,1,0,2.425" transform="translate(-223.112 -137.129)" fill="#e0e0e0"/>
            <path id="Trazado_828890" data-name="Trazado 828890" d="M472.837,280.763H462.556a1.214,1.214,0,0,1,0-2.425h10.281a1.214,1.214,0,0,1,0,2.425" transform="translate(-208.463 -125.754)" fill="#e0e0e0"/>
            <path id="Trazado_828891" data-name="Trazado 828891" d="M477.453,261.381h-8.626a1.181,1.181,0,0,1-1.181-1.181v-.062a1.181,1.181,0,0,1,1.181-1.181h8.626a1.181,1.181,0,0,1,1.181,1.181v.062a1.181,1.181,0,0,1-1.181,1.181" transform="translate(-211.283 -116.997)" fill="#455a64"/>
            <path id="Trazado_828892" data-name="Trazado 828892" d="M496.541,261.381h-2.1a1.181,1.181,0,0,1-1.181-1.181v-.062a1.181,1.181,0,0,1,1.181-1.181h2.1a1.181,1.181,0,0,1,1.181,1.181v.062a1.181,1.181,0,0,1-1.181,1.181" transform="translate(-222.855 -116.997)" fill="#e0e0e0"/>
            <path id="Trazado_828893" data-name="Trazado 828893" d="M469.4,251.43h-2.488a1.214,1.214,0,0,1,0-2.425H469.4a1.214,1.214,0,0,1,0,2.425" transform="translate(-210.433 -112.501)" fill="#263238"/>
            <path id="Trazado_828894" data-name="Trazado 828894" d="M496.857,251.43H481.01a1.214,1.214,0,0,1,0-2.425h15.846a1.214,1.214,0,0,1,0,2.425" transform="translate(-216.801 -112.501)" fill="#e0e0e0"/>
            <path id="Trazado_828895" data-name="Trazado 828895" d="M472.947,177.43H462.325a1.214,1.214,0,0,1,0-2.425h10.622a1.214,1.214,0,0,1,0,2.425" transform="translate(-208.358 -79.068)" fill="#455a64"/>
            <path id="Trazado_828896" data-name="Trazado 828896" d="M485.941,188.972H461.632a1.214,1.214,0,0,1,0-2.425h24.309a1.214,1.214,0,0,1,0,2.425" transform="translate(-208.046 -84.282)" fill="#263238"/>
            <path id="Trazado_828897" data-name="Trazado 828897" d="M487.209,202.081h-23.8a1.214,1.214,0,0,1,0-2.425h23.8a1.214,1.214,0,0,1,0,2.425" transform="translate(-208.847 -90.205)" fill="#e0e0e0"/>
            <path id="Trazado_828898" data-name="Trazado 828898" d="M483.264,225.3h-23.8a1.214,1.214,0,0,1,0-2.425h23.8a1.214,1.214,0,0,1,0,2.425" transform="translate(-207.065 -100.697)" fill="#455a64"/>
            <path id="Trazado_828899" data-name="Trazado 828899" d="M443.393,393.4H437.3a1.214,1.214,0,0,1,0-2.425h6.091a1.214,1.214,0,0,1,0,2.425" transform="translate(-197.053 -176.644)" fill="#263238"/>
            <path id="Trazado_828900" data-name="Trazado 828900" d="M443.393,405.392H437.3a1.214,1.214,0,0,1,0-2.425h6.091a1.214,1.214,0,0,1,0,2.425" transform="translate(-197.053 -182.061)" fill="#263238"/>
            <path id="Trazado_828901" data-name="Trazado 828901" d="M483.264,393.4h-23.8a1.214,1.214,0,0,1,0-2.425h23.8a1.214,1.214,0,0,1,0,2.425" transform="translate(-207.065 -176.644)" fill="#455a64"/>
            <path id="Trazado_828902" data-name="Trazado 828902" d="M387.616,216.372h-6.357a1.214,1.214,0,0,1,0-2.425h6.357a1.214,1.214,0,0,1,0,2.425" transform="translate(-171.733 -96.662)" fill="#e0e0e0"/>
            <path id="Trazado_828903" data-name="Trazado 828903" d="M387.616,228.679h-6.357a1.214,1.214,0,0,1,0-2.425h6.357a1.214,1.214,0,0,1,0,2.425" transform="translate(-171.733 -102.222)" fill="#e0e0e0"/>
            <path id="Trazado_828904" data-name="Trazado 828904" d="M387.616,240.985h-6.357a1.214,1.214,0,0,1,0-2.425h6.357a1.214,1.214,0,0,1,0,2.425" transform="translate(-171.733 -107.782)" fill="#e0e0e0"/>
            <path id="Trazado_828905" data-name="Trazado 828905" d="M387.616,204.064h-6.357a1.214,1.214,0,0,1,0-2.425h6.357a1.214,1.214,0,0,1,0,2.425" transform="translate(-171.733 -91.101)" fill="#e0e0e0"/>
            <path id="Trazado_828906" data-name="Trazado 828906" d="M387.616,191.758h-6.357a1.214,1.214,0,0,1,0-2.425h6.357a1.214,1.214,0,0,1,0,2.425" transform="translate(-171.733 -85.541)" fill="#e0e0e0"/>
            <path id="Trazado_828907" data-name="Trazado 828907" d="M387.616,179.451h-6.357a1.214,1.214,0,0,1,0-2.424h6.357a1.214,1.214,0,0,1,0,2.424" transform="translate(-171.733 -79.981)" fill="#e0e0e0"/>
            <path id="Trazado_828908" data-name="Trazado 828908" d="M385.713,253.292h-4.455a1.214,1.214,0,0,1,0-2.425h4.455a1.214,1.214,0,0,1,0,2.425" transform="translate(-171.733 -113.342)" fill="#e0e0e0"/>
            <path id="Trazado_828909" data-name="Trazado 828909" d="M420.581,176.2a1.19,1.19,0,1,1-1.189-1.232,1.211,1.211,0,0,1,1.189,1.232" transform="translate(-188.945 -79.051)" fill="#455a64"/>
            <path id="Trazado_828910" data-name="Trazado 828910" d="M420.581,187.744a1.19,1.19,0,1,1-1.189-1.232,1.211,1.211,0,0,1,1.189,1.232" transform="translate(-188.945 -84.266)" fill="#455a64"/>
            <path id="Trazado_828911" data-name="Trazado 828911" d="M420.581,199.743a1.19,1.19,0,1,1-1.189-1.232,1.211,1.211,0,0,1,1.189,1.232" transform="translate(-188.945 -89.688)" fill="#455a64"/>
            <path id="Trazado_828912" data-name="Trazado 828912" d="M420.581,211.742a1.19,1.19,0,1,1-1.189-1.232,1.211,1.211,0,0,1,1.189,1.232" transform="translate(-188.945 -95.109)" fill="#455a64"/>
            <path id="Trazado_828913" data-name="Trazado 828913" d="M420.581,223.741a1.19,1.19,0,1,1-1.189-1.232,1.211,1.211,0,0,1,1.189,1.232" transform="translate(-188.945 -100.53)" fill="#455a64"/>
            <path id="Trazado_828914" data-name="Trazado 828914" d="M420.581,235.741a1.19,1.19,0,1,1-1.189-1.232,1.211,1.211,0,0,1,1.189,1.232" transform="translate(-188.945 -105.952)" fill="#455a64"/>
            <path id="Trazado_828915" data-name="Trazado 828915" d="M420.581,247.74a1.19,1.19,0,1,1-1.189-1.232,1.211,1.211,0,0,1,1.189,1.232" transform="translate(-188.945 -111.373)" fill="#455a64"/>
            <path id="Trazado_828916" data-name="Trazado 828916" d="M420.581,259.739a1.19,1.19,0,1,1-1.189-1.232,1.211,1.211,0,0,1,1.189,1.232" transform="translate(-188.945 -116.794)" fill="#455a64"/>
            <path id="Trazado_828917" data-name="Trazado 828917" d="M420.581,271.738a1.19,1.19,0,1,1-1.189-1.232,1.211,1.211,0,0,1,1.189,1.232" transform="translate(-188.945 -122.215)" fill="#455a64"/>
            <path id="Trazado_828918" data-name="Trazado 828918" d="M420.581,283.738a1.19,1.19,0,1,1-1.189-1.232,1.211,1.211,0,0,1,1.189,1.232" transform="translate(-188.945 -127.637)" fill="#455a64"/>
            <path id="Trazado_828919" data-name="Trazado 828919" d="M420.581,295.737a1.19,1.19,0,1,1-1.189-1.232,1.211,1.211,0,0,1,1.189,1.232" transform="translate(-188.945 -133.058)" fill="#455a64"/>
            <path id="Trazado_828920" data-name="Trazado 828920" d="M420.581,307.736a1.19,1.19,0,1,1-1.189-1.232,1.211,1.211,0,0,1,1.189,1.232" transform="translate(-188.945 -138.479)" fill="#455a64"/>
            <path id="Trazado_828921" data-name="Trazado 828921" d="M448.448,323.061H437.28a1.214,1.214,0,0,1,0-2.425h11.168a1.214,1.214,0,0,1,0,2.425" transform="translate(-197.043 -144.864)" fill="#1682fb"/>
            <path id="Trazado_828922" data-name="Trazado 828922" d="M453.339,333.011h-6.883a1.181,1.181,0,0,1-1.181-1.181v-.062a1.181,1.181,0,0,1,1.181-1.181h6.883a1.181,1.181,0,0,1,1.181,1.181v.063a1.181,1.181,0,0,1-1.181,1.181" transform="translate(-201.176 -149.359)" fill="#1682fb"/>
            <path id="Trazado_828923" data-name="Trazado 828923" d="M445.8,352.394h-6.94a1.214,1.214,0,0,1,0-2.425h6.94a1.214,1.214,0,0,1,0,2.425" transform="translate(-197.757 -158.117)" fill="#1682fb"/>
            <path id="Trazado_828924" data-name="Trazado 828924" d="M445.8,377.569h-6.94a1.214,1.214,0,0,1,0-2.425h6.94a1.214,1.214,0,0,1,0,2.425" transform="translate(-197.757 -169.491)" fill="#1682fb"/>
            <path id="Trazado_828925" data-name="Trazado 828925" d="M472.614,377.569H460.447a1.214,1.214,0,0,1,0-2.425h12.167a1.214,1.214,0,0,1,0,2.425" transform="translate(-207.51 -169.491)" fill="#455a64"/>
            <path id="Trazado_828926" data-name="Trazado 828926" d="M500.761,352.875H488.594a1.214,1.214,0,0,1,0-2.425h12.167a1.214,1.214,0,0,1,0,2.425" transform="translate(-220.227 -158.334)" fill="#455a64"/>
            <path id="Trazado_828927" data-name="Trazado 828927" d="M474.1,362.281H461.928a1.214,1.214,0,0,1,0-2.425H474.1a1.214,1.214,0,0,1,0,2.425" transform="translate(-208.18 -162.584)" fill="#455a64"/>
            <path id="Trazado_828928" data-name="Trazado 828928" d="M496.731,377.569h-1.753a1.214,1.214,0,0,1,0-2.425h1.753a1.214,1.214,0,0,1,0,2.425" transform="translate(-223.112 -169.491)" fill="#e0e0e0"/>
            <path id="Trazado_828929" data-name="Trazado 828929" d="M472.837,352.394H462.556a1.214,1.214,0,0,1,0-2.425h10.281a1.214,1.214,0,0,1,0,2.425" transform="translate(-208.463 -158.117)" fill="#e0e0e0"/>
            <path id="Trazado_828930" data-name="Trazado 828930" d="M477.453,333.011h-8.626a1.181,1.181,0,0,1-1.181-1.181v-.062a1.181,1.181,0,0,1,1.181-1.181h8.626a1.181,1.181,0,0,1,1.181,1.181v.063a1.181,1.181,0,0,1-1.181,1.181" transform="translate(-211.283 -149.359)" fill="#455a64"/>
            <path id="Trazado_828931" data-name="Trazado 828931" d="M496.541,333.011h-2.1a1.181,1.181,0,0,1-1.181-1.181v-.062a1.181,1.181,0,0,1,1.181-1.181h2.1a1.181,1.181,0,0,1,1.181,1.181v.063a1.181,1.181,0,0,1-1.181,1.181" transform="translate(-222.855 -149.359)" fill="#e0e0e0"/>
            <path id="Trazado_828932" data-name="Trazado 828932" d="M469.4,323.061h-2.488a1.214,1.214,0,0,1,0-2.425H469.4a1.214,1.214,0,0,1,0,2.425" transform="translate(-210.433 -144.864)" fill="#263238"/>
            <path id="Trazado_828933" data-name="Trazado 828933" d="M496.857,323.061H481.01a1.214,1.214,0,0,1,0-2.425h15.846a1.214,1.214,0,0,1,0,2.425" transform="translate(-216.801 -144.864)" fill="#e0e0e0"/>
            <path id="Trazado_828934" data-name="Trazado 828934" d="M420.581,319.37a1.19,1.19,0,1,1-1.189-1.232,1.211,1.211,0,0,1,1.189,1.232" transform="translate(-188.945 -143.735)" fill="#455a64"/>
            <path id="Trazado_828935" data-name="Trazado 828935" d="M420.581,331.37a1.19,1.19,0,1,1-1.189-1.232,1.211,1.211,0,0,1,1.189,1.232" transform="translate(-188.945 -149.157)" fill="#455a64"/>
            <path id="Trazado_828936" data-name="Trazado 828936" d="M420.581,343.369a1.19,1.19,0,1,1-1.189-1.232,1.211,1.211,0,0,1,1.189,1.232" transform="translate(-188.945 -154.578)" fill="#455a64"/>
            <path id="Trazado_828937" data-name="Trazado 828937" d="M420.581,355.368a1.19,1.19,0,1,1-1.189-1.232,1.211,1.211,0,0,1,1.189,1.232" transform="translate(-188.945 -159.999)" fill="#455a64"/>
            <path id="Trazado_828938" data-name="Trazado 828938" d="M420.581,367.367a1.19,1.19,0,1,1-1.189-1.232,1.211,1.211,0,0,1,1.189,1.232" transform="translate(-188.945 -165.421)" fill="#455a64"/>
            <path id="Trazado_828939" data-name="Trazado 828939" d="M420.581,379.367a1.19,1.19,0,1,1-1.189-1.232,1.211,1.211,0,0,1,1.189,1.232" transform="translate(-188.945 -170.842)" fill="#455a64"/>
            <path id="Trazado_828940" data-name="Trazado 828940" d="M420.581,392.173a1.19,1.19,0,1,1-1.189-1.232,1.211,1.211,0,0,1,1.189,1.232" transform="translate(-188.945 -176.628)" fill="#455a64"/>
            <path id="Trazado_828941" data-name="Trazado 828941" d="M420.581,404.979a1.19,1.19,0,1,1-1.189-1.232,1.211,1.211,0,0,1,1.189,1.232" transform="translate(-188.945 -182.414)" fill="#455a64"/>
            <path id="Trazado_828942" data-name="Trazado 828942" d="M442.037,118.653l-12.146-.007a3,3,0,0,0-2.95,3.057v2.186a3,3,0,0,1-2.95,3.057l-23.676-.014a3.007,3.007,0,0,1-2.949-3.061v-2.185a3.007,3.007,0,0,0-2.949-3.06l-4.272,0-10.631-.006a9.519,9.519,0,0,0-9.563,9.478l0,13.516h81.639l0-13.476a9.52,9.52,0,0,0-9.552-9.482" transform="translate(-167.143 -53.591)" fill="#f5f5f5"/>
            <path id="Trazado_828943" data-name="Trazado 828943" d="M380.136,149.6a1.507,1.507,0,1,1-1.507-1.507,1.507,1.507,0,0,1,1.507,1.507" transform="translate(-170.385 -66.909)" fill="#e0e0e0"/>
            <path id="Trazado_828944" data-name="Trazado 828944" d="M388.618,149.6a1.507,1.507,0,1,1-1.507-1.507,1.507,1.507,0,0,1,1.507,1.507" transform="translate(-174.217 -66.909)" fill="#e0e0e0"/>
            <path id="Trazado_828945" data-name="Trazado 828945" d="M397.1,149.6a1.507,1.507,0,1,1-1.507-1.507A1.507,1.507,0,0,1,397.1,149.6" transform="translate(-178.05 -66.909)" fill="#e0e0e0"/>
            <path id="Trazado_828946" data-name="Trazado 828946" d="M443.091,140.134a3.935,3.935,0,0,1,.961-.418l.2-.952,1.607-.029.232.944a3.964,3.964,0,0,1,.975.384l.812-.532,1.157,1.117-.5.831a3.934,3.934,0,0,1,.418.962l.952.2.028,1.608-.944.231a3.929,3.929,0,0,1-.384.976l.533.812-1.117,1.157-.831-.5a3.9,3.9,0,0,1-.962.418l-.2.952-1.608.029-.231-.944a3.958,3.958,0,0,1-.976-.384l-.812.532-1.157-1.117.5-.831a3.938,3.938,0,0,1-.418-.962l-.952-.2-.028-1.608.944-.231a3.942,3.942,0,0,1,.384-.975l-.532-.813,1.117-1.157Zm.857,2.142a1.725,1.725,0,1,0,2.439-.043,1.725,1.725,0,0,0-2.439.043" transform="translate(-198.95 -62.681)" fill="#e0e0e0"/>
          </g>
        </g>
        <g id="Grupo_1074898" data-name="Grupo 1074898">
          <g id="Grupo_1074897" data-name="Grupo 1074897" clip-path="url(#clip-path-2)">
            <path id="Trazado_828947" data-name="Trazado 828947" d="M70.279,51.346H29.754a5.411,5.411,0,0,1-5.411-5.411V5.411A5.411,5.411,0,0,1,29.754,0H70.279a5.411,5.411,0,0,1,5.411,5.411V45.936a5.411,5.411,0,0,1-5.411,5.411" transform="translate(-10.998)" fill="#1682fb"/>
            <path id="Trazado_828948" data-name="Trazado 828948" d="M47.326,31.619a11.811,11.811,0,0,1,2.876-1.25l.593-2.847,4.81-.084.692,2.824a11.772,11.772,0,0,1,2.919,1.148l2.431-1.594,3.461,3.342L63.6,35.643A11.765,11.765,0,0,1,64.85,38.52l2.847.593.085,4.81-2.824.692a11.8,11.8,0,0,1-1.148,2.918L65.4,49.965l-3.341,3.461-2.486-1.507a11.793,11.793,0,0,1-2.876,1.25l-.593,2.847L51.3,56.1,50.6,53.276a11.8,11.8,0,0,1-2.918-1.148l-2.431,1.593L41.794,50.38,43.3,47.894a11.765,11.765,0,0,1-1.25-2.876L39.2,44.425l-.084-4.81,2.824-.692A11.781,11.781,0,0,1,43.092,36L41.5,33.573l3.341-3.461Zm2.564,6.408a5.161,5.161,0,1,0,7.3-.128,5.161,5.161,0,0,0-7.3.128" transform="translate(-17.674 -12.397)" fill="#fff"/>
            <path id="Trazado_828949" data-name="Trazado 828949" d="M84.969,16.448a4.607,4.607,0,0,1,.931-.795l-.1-1.13,1.786-.581.581.975a4.6,4.6,0,0,1,1.221.1l.725-.872,1.673.852-.278,1.1a4.6,4.6,0,0,1,.795.931l1.13-.1.581,1.785-.975.581a4.593,4.593,0,0,1-.1,1.22l.872.726-.852,1.673-1.1-.279a4.58,4.58,0,0,1-.931.795l.1,1.13-1.786.58-.581-.975a4.6,4.6,0,0,1-1.221-.1l-.725.872-1.673-.852.278-1.1a4.609,4.609,0,0,1-.795-.931l-1.13.1-.581-1.786.975-.581a4.591,4.591,0,0,1,.1-1.22l-.872-.726.852-1.673Zm1.688,2.1a2.014,2.014,0,1,0,2.709-.88,2.014,2.014,0,0,0-2.709.88" transform="translate(-37.417 -6.299)" fill="#fff"/>
          </g>
        </g>
        <path id="Trazado_828950" data-name="Trazado 828950" d="M414.75,73.493l13.709,18.645,14.76-18.67Z" transform="translate(-187.385 -33.193)" fill="#1682fb"/>
        <g id="Grupo_1074900" data-name="Grupo 1074900">
          <g id="Grupo_1074899" data-name="Grupo 1074899" clip-path="url(#clip-path-2)">
            <path id="Trazado_828951" data-name="Trazado 828951" d="M410.983,44.189H396.915v-20.1c0-4.19-1.5-5.6-1.988-6.06-2.111-1.984-6.114-2.494-9.156-2.3-.177.011-.409.022-.693.022h-.031c-4.956,0-8.368,1.326-10.14,3.941a9.376,9.376,0,0,0-1.5,4.462V24.03l-14.067.109a22.976,22.976,0,0,1,6.479-15.45c4.622-4.643,11.072-7,19.171-7.013,3.77-.224,13.04-.044,19.576,6.1,2.928,2.753,6.419,7.818,6.419,16.308Z" transform="translate(-162.35 -0.732)" fill="#1682fb"/>
          </g>
        </g>
        <g id="Grupo_1074905" data-name="Grupo 1074905">
          <g id="Grupo_1074904" data-name="Grupo 1074904" clip-path="url(#clip-path-2)">
            <path id="Trazado_828952" data-name="Trazado 828952" d="M148.555,149.7l2.745,22.171c.392,3.8.993,9.413,6.966,8.519,5.123-1.167,5.93-6.239,5.56-9.78-.175-1.68-.318-3.081-.325-3.255,0,0,5.626-1.122,5.455-6.788-.083-2.738-.712-8.364-1.341-13.447a10.559,10.559,0,0,0-10.932-9.248l-.546.024c-5.878.595-8.341,5.947-7.584,11.805" transform="translate(-67.057 -62.285)" fill="#ffceb3"/>
            <path id="Trazado_828953" data-name="Trazado 828953" d="M169.8,190.117a13.694,13.694,0,0,1-7.466-1.866s1.975,4.06,7.6,3.309Z" transform="translate(-73.344 -85.052)" fill="#ff9c65"/>
            <path id="Trazado_828954" data-name="Trazado 828954" d="M164.282,160.873c-.121.047-.726-.314-1.664-.445s-1.674.031-1.763-.047c-.044-.035.088-.133.411-.211a3.981,3.981,0,0,1,1.428-.039,3.562,3.562,0,0,1,1.309.432c.264.162.339.289.28.309" transform="translate(-72.671 -72.328)" fill="#263238"/>
            <path id="Trazado_828955" data-name="Trazado 828955" d="M165.549,164.725a.766.766,0,0,1-.7.8.733.733,0,0,1-.818-.656.767.767,0,0,1,.7-.8.733.733,0,0,1,.818.657" transform="translate(-74.106 -74.125)" fill="#263238"/>
            <path id="Trazado_828956" data-name="Trazado 828956" d="M171.784,166.4a5.737,5.737,0,0,1,1.4-.315c.221-.032.43-.086.461-.238a1.133,1.133,0,0,0-.176-.653l-.729-1.664a29.188,29.188,0,0,1-1.665-4.364,29.133,29.133,0,0,1,2.012,4.219q.368.877.7,1.675a1.288,1.288,0,0,1,.152.867.557.557,0,0,1-.351.34,1.483,1.483,0,0,1-.376.069,5.67,5.67,0,0,1-1.432.063" transform="translate(-77.289 -71.913)" fill="#263238"/>
            <path id="Trazado_828957" data-name="Trazado 828957" d="M162.343,154.133c-.067.219-.838.149-1.733.3-.9.132-1.613.436-1.741.247-.057-.09.061-.3.345-.52a2.861,2.861,0,0,1,1.276-.524,2.832,2.832,0,0,1,1.371.107c.337.123.51.286.482.39" transform="translate(-71.771 -69.396)" fill="#263238"/>
            <path id="Trazado_828958" data-name="Trazado 828958" d="M179.014,155.419c-.079.181-.834.078-1.726.153-.894.06-1.617.275-1.731.108-.051-.079.078-.249.372-.42a3.125,3.125,0,0,1,1.289-.37,3.24,3.24,0,0,1,1.345.171c.324.124.485.272.451.358" transform="translate(-79.312 -69.976)" fill="#263238"/>
            <path id="Trazado_828959" data-name="Trazado 828959" d="M146.737,167.122c-.1-.037-4.161-.926-3.753,3.124s4.39,2.8,4.385,2.687-.632-5.81-.632-5.81" transform="translate(-64.588 -75.458)" fill="#ffceb3"/>
            <path id="Trazado_828960" data-name="Trazado 828960" d="M146.843,172.659c-.019-.011-.066.056-.179.123a.711.711,0,0,1-.526.064,1.756,1.756,0,0,1-.966-1.485,2.354,2.354,0,0,1,.1-1.03.82.82,0,0,1,.476-.595.361.361,0,0,1,.436.151c.066.107.048.191.07.2s.08-.076.031-.241a.456.456,0,0,0-.185-.237.535.535,0,0,0-.4-.064,1,1,0,0,0-.674.7,2.411,2.411,0,0,0-.13,1.153,1.841,1.841,0,0,0,1.205,1.645.757.757,0,0,0,.634-.173c.116-.112.128-.205.113-.211" transform="translate(-65.453 -76.594)" fill="#ff9c65"/>
            <path id="Trazado_828961" data-name="Trazado 828961" d="M170.869,175.954a7.138,7.138,0,0,1-1.552-.48,4.325,4.325,0,0,1-.882-.73c-.212-.217-.359-.347-.392-.319s.05.2.225.458a2.858,2.858,0,0,0,.894.856,2.318,2.318,0,0,0,1.2.321c.319,0,.507-.072.5-.106" transform="translate(-75.919 -78.804)" fill="#263238"/>
            <path id="Trazado_828962" data-name="Trazado 828962" d="M179.411,159.307c-.079.1-.78.118-1.648.493s-1.421.884-1.536.867c-.055-.005.01-.152.248-.381a4.181,4.181,0,0,1,1.2-.764,3.727,3.727,0,0,1,1.338-.321c.307,0,.434.06.394.107" transform="translate(-79.611 -71.927)" fill="#263238"/>
            <path id="Trazado_828963" data-name="Trazado 828963" d="M179.706,163.488a.765.765,0,0,1-.7.8.732.732,0,0,1-.818-.656.766.766,0,0,1,.7-.8.733.733,0,0,1,.818.657" transform="translate(-80.503 -73.566)" fill="#263238"/>
            <path id="Trazado_828964" data-name="Trazado 828964" d="M169.341,138.3a.917.917,0,0,0-.488-.481,2.81,2.81,0,0,0-1.462-.066,8.127,8.127,0,0,1-3.611-.474,4.026,4.026,0,0,0,.948-.844,2.424,2.424,0,0,0,.415-2.473.539.539,0,0,0-.344-.332c-.258-.047-.447.222-.6.437a2.087,2.087,0,0,1-1.855,1.053,3.433,3.433,0,0,1-1.508-.262c-.019-.015-.036-.033-.054-.048-.224-.183-.441-.357-.655-.525l0,0v0a12.774,12.774,0,0,0-4.3-2.477,13.109,13.109,0,0,0-7.019.26,5.3,5.3,0,0,0-3.5,4.557,4.078,4.078,0,0,0-4.116.09l-.035-.01c-1.423.7-2.085,2.368-2.348,3.933-.014.086-.025.172-.038.258A5.927,5.927,0,0,1,137,143.08c-.134.1-.286.222-.285.389s.155.286.3.366a2.982,2.982,0,0,0,1.26.36,6.748,6.748,0,0,1-.371,1.1c-.135.3-.295.666-.114.945a.632.632,0,0,0,.689.209,1.842,1.842,0,0,0,.655-.394q-.179.623-.359,1.247a3.527,3.527,0,0,0,1.6-.295,39.441,39.441,0,0,0,1.522,4.063c.621-.075,1.191-.287,1.614.013.574.407.909,1.26,1.734.826.42-.221.714-1.19.81-1.656a22.051,22.051,0,0,0-.127-9.379,7.085,7.085,0,0,1,1.992-1.821l-.06.067c1.5-.726,3.216-1.468,4.79-.9,1.22.437,2.037,1.556,3.011,2.412a8.378,8.378,0,0,0,6.394,2.186c.416,1.668.484,3.836.75,5.406l1.165-2.717,0,.012a6.178,6.178,0,0,0,.221-.592l.024-.06v-.007a9.877,9.877,0,0,1,.34-.95l.016.012a.994.994,0,0,0,1.289-1.488,2.263,2.263,0,0,0-.533-.423,1.573,1.573,0,0,0,1.532.213,1.233,1.233,0,0,0,.726-1.312,1.048,1.048,0,0,0-.718-.764,3.548,3.548,0,0,0,1.95-.673,1.026,1.026,0,0,0,.522-1.169" transform="translate(-61.767 -59.39)" fill="#263238"/>
            <path id="Trazado_828965" data-name="Trazado 828965" d="M149.833,141.69a4.8,4.8,0,0,0-.5.58,4.055,4.055,0,0,0-.645,1.964,7.084,7.084,0,0,0,.022,1.443c.058.517.163,1.066.27,1.645a14.857,14.857,0,0,1,.256,1.835,6.521,6.521,0,0,1-.014.986,2.034,2.034,0,0,1-.287.988.854.854,0,0,1-.761.359,1.271,1.271,0,0,1-.759-.32,2.927,2.927,0,0,1-.706-1.364h.12a4.751,4.751,0,0,1-.547,1.255,1.683,1.683,0,0,1-1.023.721,1.087,1.087,0,0,1-.59-.034.939.939,0,0,1-.438-.342.965.965,0,0,1-.177-.484.7.7,0,0,1,.129-.457l.066.046a3.639,3.639,0,0,1-1.1,1.044,3.273,3.273,0,0,1-.356.189.661.661,0,0,1-.131.049.652.652,0,0,1,.121-.069c.079-.044.2-.108.343-.2a3.759,3.759,0,0,0,1.057-1.053l.066.046a.724.724,0,0,0,.059.838.85.85,0,0,0,.4.3.989.989,0,0,0,.535.024,1.576,1.576,0,0,0,.948-.682,4.666,4.666,0,0,0,.524-1.227l.06-.189.06.19a2.829,2.829,0,0,0,.673,1.3,1.143,1.143,0,0,0,.679.286.72.72,0,0,0,.647-.3,1.929,1.929,0,0,0,.264-.924,6.47,6.47,0,0,0,.015-.965,15.142,15.142,0,0,0-.246-1.821c-.1-.579-.206-1.13-.26-1.655a7.109,7.109,0,0,1-.006-1.464,4,4,0,0,1,.7-1.984,2.292,2.292,0,0,1,.545-.55" transform="translate(-64.453 -64.016)" fill="#455a64"/>
            <path id="Trazado_828966" data-name="Trazado 828966" d="M173.85,142.217s-.012.016-.041.043l-.128.119a1.874,1.874,0,0,1-.22.18,3,3,0,0,1-.32.219,5.016,5.016,0,0,1-2.352.711,6.406,6.406,0,0,1-3.533-.858,11.094,11.094,0,0,1-3.3-3.017c-.487-.632-.9-1.29-1.342-1.891a7.507,7.507,0,0,0-1.452-1.563,3.858,3.858,0,0,0-1.731-.794,2.767,2.767,0,0,0-.864,0,3.049,3.049,0,0,0-.764.241,3.274,3.274,0,0,0-1.627,1.736,3.92,3.92,0,0,0-.192.875.193.193,0,0,1,0-.06c0-.047,0-.1.006-.175a2.868,2.868,0,0,1,.14-.658,3.227,3.227,0,0,1,.53-.925,3.307,3.307,0,0,1,1.105-.877,3.1,3.1,0,0,1,.787-.257,2.845,2.845,0,0,1,.9-.008,3.948,3.948,0,0,1,1.788.805,7.535,7.535,0,0,1,1.482,1.583c.447.605.86,1.261,1.343,1.888a11.091,11.091,0,0,0,3.254,2.99,6.363,6.363,0,0,0,3.468.871,5.089,5.089,0,0,0,2.33-.662,7.97,7.97,0,0,0,.736-.518" transform="translate(-70.473 -61.096)" fill="#455a64"/>
            <path id="Trazado_828967" data-name="Trazado 828967" d="M184.1,143.371a.893.893,0,0,1-.185.163,4.385,4.385,0,0,1-.561.372,5.809,5.809,0,0,1-.908.419,6.13,6.13,0,0,1-2.412.359,5.873,5.873,0,0,1-.991-.137,4.369,4.369,0,0,1-.645-.193.88.88,0,0,1-.225-.1c.008-.024.337.1.888.2a6.77,6.77,0,0,0,.977.107,6.607,6.607,0,0,0,2.367-.352,6.719,6.719,0,0,0,.9-.386c.5-.26.776-.473.791-.453" transform="translate(-80.5 -64.775)" fill="#455a64"/>
            <path id="Trazado_828968" data-name="Trazado 828968" d="M149.655,213.6l-35.388.437a3.211,3.211,0,0,0-3.171,3.185l-.5,62.469,47.677.651-5.381-63.8a3.21,3.21,0,0,0-3.239-2.941" transform="translate(-49.968 -96.504)" fill="#455a64"/>
            <path id="Trazado_828969" data-name="Trazado 828969" d="M246.273,408.186l-.2,12.064s12.2,4.25,12.378,6.483l-23.4.462-.468-18.81Z" transform="translate(-105.985 -184.419)" fill="#1682fb"/>
            <path id="Trazado_828970" data-name="Trazado 828970" d="M241.766,428.567a.956.956,0,0,0-.639,1.1.918.918,0,0,0,1.088.644,1.008,1.008,0,0,0,.671-1.173.953.953,0,0,0-1.207-.543" transform="translate(-108.931 -193.608)" fill="#e0e0e0"/>
            <path id="Trazado_828971" data-name="Trazado 828971" d="M235.372,441.3l-.077-1.9,22.535.268s1.051.433.947,1.169Z" transform="translate(-106.307 -198.52)" fill="#e0e0e0"/>
            <path id="Trazado_828972" data-name="Trazado 828972" d="M254.5,429.881c0,.115-.572.178-1.127.556s-.845.865-.951.822c-.106-.02.051-.707.731-1.153s1.37-.33,1.347-.225" transform="translate(-114.032 -194.176)" fill="#263238"/>
            <path id="Trazado_828973" data-name="Trazado 828973" d="M259.5,431.689c.029.11-.463.314-.841.805s-.481,1-.595,1c-.107.02-.2-.648.283-1.249s1.148-.667,1.153-.558" transform="translate(-116.555 -195.018)" fill="#263238"/>
            <path id="Trazado_828974" data-name="Trazado 828974" d="M263.281,435.4c-.1.026-.274-.542.007-1.173s.811-.891.861-.8c.066.093-.274.435-.5.958s-.258,1-.372,1.013" transform="translate(-118.885 -195.814)" fill="#263238"/>
            <path id="Trazado_828975" data-name="Trazado 828975" d="M253.76,424.616c-.045.105-.573-.042-1.219.014s-1.145.27-1.206.174.415-.514,1.175-.57,1.3.291,1.249.382" transform="translate(-113.551 -191.667)" fill="#263238"/>
            <path id="Trazado_828976" data-name="Trazado 828976" d="M165,292.625s6.931,1.043,14.071,2.369c8.56,1.59,17.672,3.577,18.894,4.537,2.24,1.76,2.72,6.561,3.68,12.481s1.177,49.968,1.177,49.968l-15.9.463-3.144-46.214s-23.213,0-27.988-.037c-3.853-.027-14.216.4-18.15-1.67-6.189-3.26-5.03-15.681-5.03-15.681,1.544-1.329,28.014-9.17,28.014-9.17Z" transform="translate(-59.874 -130.875)" fill="#263238"/>
            <path id="Trazado_828977" data-name="Trazado 828977" d="M253.526,355.331l2.288,12.161s13.129,1.759,13.77,3.965l-23.42,5.282-4.342-18.8Z" transform="translate(-109.256 -160.539)" fill="#1682fb"/>
            <path id="Trazado_828978" data-name="Trazado 828978" d="M253.307,378.556a.98.98,0,0,0-.415,1.241.942.942,0,0,0,1.226.422,1.034,1.034,0,0,0,.433-1.316.978.978,0,0,0-1.324-.3" transform="translate(-114.22 -170.985)" fill="#e0e0e0"/>
            <path id="Trazado_828979" data-name="Trazado 828979" d="M249.568,389.718l-.423-1.821L271.7,382.96s1.145.218,1.193.979Z" transform="translate(-112.564 -173.022)" fill="#e0e0e0"/>
            <path id="Trazado_828980" data-name="Trazado 828980" d="M266.458,377.1c.022.115-.538.3-1.018.79s-.671,1.043-.786,1.021c-.111,0-.094-.72.5-1.309s1.308-.613,1.307-.5" transform="translate(-119.547 -170.349)" fill="#263238"/>
            <path id="Trazado_828981" data-name="Trazado 828981" d="M271.867,377.96c.05.1-.4.411-.68.982-.3.563-.275,1.108-.39,1.129-.1.042-.334-.61.027-1.314s1.017-.906,1.044-.8" transform="translate(-122.27 -170.751)" fill="#263238"/>
            <path id="Trazado_828982" data-name="Trazado 828982" d="M276.413,380.983c-.1.048-.387-.488-.234-1.18s.631-1.062.7-.978c.086.079-.186.494-.3,1.065s-.054,1.057-.165,1.094" transform="translate(-124.758 -171.149)" fill="#263238"/>
            <path id="Trazado_828983" data-name="Trazado 828983" d="M264.492,372.013c-.024.115-.584.076-1.221.265s-1.094.507-1.176.423c-.085-.068.311-.6,1.064-.815s1.37.024,1.334.127" transform="translate(-118.41 -167.979)" fill="#263238"/>
            <path id="Trazado_828984" data-name="Trazado 828984" d="M216.941,278.61s5.476-.388,6.652,4.3c1.63,6.5,8.817,45.331,8.817,45.331l-16.186,3.129-8.534-37.9-15.331-2.5-6.32-2.528s3.57-3.807,10.968-6.162c5.035-1.6,19.934-3.675,19.934-3.675" transform="translate(-84.053 -125.873)" fill="#263238"/>
            <path id="Trazado_828985" data-name="Trazado 828985" d="M225.628,304.267a12,12,0,0,1,1.926-2.347,12.349,12.349,0,0,1,2.592-1.582,5.393,5.393,0,0,0-2.762,1.386,6.641,6.641,0,0,0-1.4,1.7,2.3,2.3,0,0,0-.351.843" transform="translate(-101.937 -135.69)" fill="#455a64"/>
            <path id="Trazado_828986" data-name="Trazado 828986" d="M229.1,293.484c-.011-.014-.118.057-.3.2a6.41,6.41,0,0,0-.727.662,9.34,9.34,0,0,0-2.551,5.849,6.408,6.408,0,0,0,.009.983c.022.231.042.357.06.356.044,0,.024-.513.113-1.323a10.533,10.533,0,0,1,2.5-5.741c.534-.617.922-.949.893-.983" transform="translate(-101.886 -132.596)" fill="#455a64"/>
            <path id="Trazado_828987" data-name="Trazado 828987" d="M223.992,293.484s.02.066.05.2l.126.592c.108.531.265,1.3.468,2.3.4,2.015.983,4.937,1.714,8.607,1.447,7.366,3.483,17.729,5.847,29.762l.024.122-.123.024-16.184,3.135-.124.024-.027-.123-.269-1.193c-3.137-13.981-6.017-26.815-8.237-36.712l.082.077-16.1-2.664-4.408-.745-1.149-.2c-.259-.047-.391-.079-.391-.079s.135.012.4.049l1.154.173,4.416.691,16.109,2.577.067.011.015.066c2.236,9.893,5.136,22.723,8.294,36.7l.269,1.193-.152-.1,16.187-3.124-.1.146c-2.327-12.041-4.331-22.41-5.756-29.78-.7-3.676-1.258-6.6-1.643-8.62-.185-1-.329-1.771-.428-2.3-.045-.256-.08-.453-.105-.6s-.028-.2-.028-.2" transform="translate(-83.717 -132.597)" fill="#455a64"/>
            <path id="Trazado_828988" data-name="Trazado 828988" d="M191.67,205.115s3,1.992,4.324,7.883c1.06,4.726,2.744,13.684,2.744,13.684l6.289,4.13a1.412,1.412,0,0,1,.457,1.875c-1.477,2.616-5.192,8.818-7.617,9.567-3.084.952-6.063-1.472-6.063-1.472Z" transform="translate(-86.597 -92.671)" fill="#1682fb"/>
            <path id="Trazado_828989" data-name="Trazado 828989" d="M162.568,199.058l-7.242-2.913-1.234-2.411-1.126,4.993-11.784-7.019-.837,2.932s-11.234,4.717-12.695,6.047c-1.791,1.631,3.1,28.847,3.1,28.847s-1.776,21.839-1.123,26.185a122.589,122.589,0,0,1,14.4-3.155,103.782,103.782,0,0,0,14.429-3.4l7.129-4.41Z" transform="translate(-57.495 -86.614)" fill="#1682fb"/>
            <path id="Trazado_828990" data-name="Trazado 828990" d="M193.624,226.744a1.98,1.98,0,0,1,.036.365c.013.265.03.613.052,1.048.042.939.1,2.248.174,3.853.149,3.254.379,7.747.664,12.707s.582,9.451.828,12.7c.127,1.6.23,2.908.3,3.844.035.434.064.781.085,1.045a1.908,1.908,0,0,1,.012.366,1.935,1.935,0,0,1-.064-.361c-.034-.263-.078-.609-.134-1.04-.105-.905-.241-2.217-.386-3.84-.293-3.245-.613-7.735-.9-12.7s-.487-9.458-.589-12.715c-.052-1.628-.081-2.946-.091-3.857,0-.435,0-.784,0-1.049a1.93,1.93,0,0,1,.017-.366" transform="translate(-87.472 -102.443)" fill="#263238"/>
            <path id="Trazado_828991" data-name="Trazado 828991" d="M135.174,216.366c-.047,0,.018-.582-.111-1.5a7.291,7.291,0,0,0-4.038-5.585c-.828-.41-1.4-.53-1.386-.575a1.135,1.135,0,0,1,.406.054,5.912,5.912,0,0,1,1.058.355,6.959,6.959,0,0,1,4.143,5.73,5.893,5.893,0,0,1,0,1.116,1.138,1.138,0,0,1-.076.4" transform="translate(-58.571 -94.292)" fill="#263238"/>
            <path id="Trazado_828992" data-name="Trazado 828992" d="M175.523,270.406l-3.451-3.508-7.1-1.719s-6.507,1.864-6.662,1.859-5.745-1.859-5.745-1.859l-1.842,7.174,9.918.65,11.324-.434s.591-.526.241-.886,1.893.608,2.158.62.776.206,1.126-.2a1.38,1.38,0,0,0,.035-1.7" transform="translate(-68.097 -119.808)" fill="#ffceb3"/>
            <path id="Trazado_828993" data-name="Trazado 828993" d="M121.248,208.088s-2.52,1.581-3.764,6.486-5.133,25.178-4.026,28.175,25.661,6.862,25.661,6.862l2.8-8.882-17.041-5.645s2.494-9.751,2.632-13.7-6.26-13.294-6.26-13.294" transform="translate(-51.172 -94.015)" fill="#1682fb"/>
            <path id="Trazado_828994" data-name="Trazado 828994" d="M183.543,275.466a6.36,6.36,0,0,1-1.128-.307c-.688-.209-1.641-.488-2.706-.75s-2.041-.454-2.749-.589a6.32,6.32,0,0,1-1.142-.255,5.024,5.024,0,0,1,1.172.085,26.144,26.144,0,0,1,2.783.523,25.123,25.123,0,0,1,2.7.823,4.848,4.848,0,0,1,1.068.47" transform="translate(-79.434 -123.591)" fill="#ff9c65"/>
            <path id="Trazado_828995" data-name="Trazado 828995" d="M187,272.515a15.478,15.478,0,0,1-1.575-.486c-.967-.312-2.318-.694-3.82-1.1a20.852,20.852,0,0,0-3.849-.909,9.855,9.855,0,0,0-1.635.061,1.329,1.329,0,0,1,.425-.137,4.884,4.884,0,0,1,1.22-.1,17.341,17.341,0,0,1,3.909.848c1.5.4,2.854.812,3.811,1.168.479.175.861.331,1.121.446a1.488,1.488,0,0,1,.394.2" transform="translate(-79.57 -121.918)" fill="#ff9c65"/>
            <path id="Trazado_828996" data-name="Trazado 828996" d="M125.5,259.084a5.615,5.615,0,0,1,4.989-1.85,8.834,8.834,0,0,0-4.989,1.85" transform="translate(-56.7 -116.182)" fill="#263238"/>
            <path id="Trazado_828997" data-name="Trazado 828997" d="M120.557,254.559a.424.424,0,0,1,.106.021l.307.083c.268.081.67.18,1.193.307,1.047.251,2.58.594,4.518.991,3.874.8,9.356,1.857,15.755,3.03l-.14.084,2.791-8.884.083.162-.964-.32-16.07-5.343-.092-.031.018-.095,2.123-11.213.611-3.131.169-.823a1.816,1.816,0,0,1,.07-.28,1.88,1.88,0,0,1-.036.286c-.033.2-.078.478-.137.829l-.55,3.143c-.493,2.722-1.192,6.587-2.032,11.229l-.074-.126,16.082,5.308.964.32.122.041-.038.122-2.8,8.88-.033.1-.107-.02c-6.4-1.19-11.875-2.282-15.743-3.123-1.935-.418-3.464-.785-4.506-1.061-.52-.14-.92-.252-1.185-.346l-.3-.1a.414.414,0,0,1-.1-.042" transform="translate(-54.468 -103.516)" fill="#263238"/>
            <path id="Trazado_828998" data-name="Trazado 828998" d="M203.644,250.706a1.794,1.794,0,0,1-.485-.183,7.1,7.1,0,0,1-1.2-.754,8.134,8.134,0,0,1-2.679-3.775,6.8,6.8,0,0,1-.377-2.557,2.209,2.209,0,0,1,1.062-1.815,1.361,1.361,0,0,1,1.413.061c.286.208.333.414.322.414-.023.016-.106-.161-.382-.32a1.269,1.269,0,0,0-1.256.021,2.026,2.026,0,0,0-.9,1.661,6.867,6.867,0,0,0,.385,2.443,8.491,8.491,0,0,0,2.536,3.71c.9.757,1.579,1.045,1.554,1.094" transform="translate(-89.861 -109.089)" fill="#263238"/>
            <path id="Trazado_828999" data-name="Trazado 828999" d="M196.969,248.947a3.324,3.324,0,0,1,.491-1.269c.342-.665.675-1.175.746-1.139a3.328,3.328,0,0,1-.491,1.269c-.342.664-.675,1.174-.746,1.138" transform="translate(-88.985 -111.386)" fill="#263238"/>
            <path id="Trazado_829000" data-name="Trazado 829000" d="M176.9,199.445a5.343,5.343,0,0,1-.08,1.234c-.086.757-.224,1.8-.394,2.949-.027.185-.055.367-.082.545l-.062.412-.2-.363a15.334,15.334,0,0,0-1.184-1.806l.192-.064a6.9,6.9,0,0,1-.154,1.47,6.919,6.919,0,0,1-.062-1.477v-.288l.191.224a11.539,11.539,0,0,1,1.263,1.8l-.264.049q.039-.267.079-.545c.17-1.15.339-2.188.476-2.937a5.34,5.34,0,0,1,.28-1.2" transform="translate(-79.008 -90.11)" fill="#263238"/>
            <path id="Trazado_829001" data-name="Trazado 829001" d="M163.873,203.048a2.721,2.721,0,0,1-.385-.482l-.979-1.381.17-.028-.8,3.078-.043.165-.15-.087c-.978-.571-2.057-1.225-3.179-1.934-2.152-1.359-4.048-2.67-5.395-3.653-.674-.49-1.212-.9-1.578-1.186a3.52,3.52,0,0,1-.551-.472,3.562,3.562,0,0,1,.616.382l1.63,1.111c1.375.939,3.284,2.221,5.431,3.577,1.12.708,2.192,1.367,3.16,1.951l-.193.078c.33-1.158.624-2.193.871-3.059l.058-.2.112.176.907,1.43a2.841,2.841,0,0,1,.3.539" transform="translate(-68.213 -89.035)" fill="#263238"/>
            <path id="Trazado_829002" data-name="Trazado 829002" d="M177.264,240.069a1.319,1.319,0,0,1-.06-.311c-.031-.237-.07-.534-.117-.9-.1-.782-.221-1.914-.365-3.315-.287-2.8-.636-6.675-.942-10.961s-.51-8.173-.623-10.986c-.057-1.407-.094-2.546-.11-3.333,0-.368-.009-.668-.012-.907a1.318,1.318,0,0,1,.015-.317,1.333,1.333,0,0,1,.042.315c.018.238.039.537.066.9.05.824.118,1.952.2,3.327.165,2.81.4,6.691.707,10.975s.623,8.158.858,10.963c.113,1.374.206,2.5.274,3.323.026.367.047.667.064.9a1.311,1.311,0,0,1,0,.317" transform="translate(-79.082 -94.445)" fill="#263238"/>
            <path id="Trazado_829003" data-name="Trazado 829003" d="M135.742,288.692c0,.072-4.147.13-9.262.13s-9.262-.058-9.262-.13,4.146-.13,9.262-.13,9.262.058,9.262.13" transform="translate(-52.959 -130.373)" fill="#263238"/>
            <path id="Trazado_829004" data-name="Trazado 829004" d="M127.364,279.965c0,.072-2.472.13-5.52.13s-5.52-.058-5.52-.13,2.471-.13,5.52-.13,5.52.058,5.52.13" transform="translate(-52.555 -126.43)" fill="#263238"/>
            <path id="Trazado_829005" data-name="Trazado 829005" d="M196.972,241.391l-10.625,18.8-24.581.535-.062,1.141,24.388-.182.773-.026,25.754.051,5.2-8.976,6.444-10.439a.94.94,0,0,0-.775-1.478l-25.708.1a.941.941,0,0,0-.812.474" transform="translate(-73.058 -108.803)" fill="#e0e0e0"/>
            <path id="Trazado_829006" data-name="Trazado 829006" d="M240.767,259.169a1.087,1.087,0,1,0,1.623-.192,1.162,1.162,0,0,0-1.623.192" transform="translate(-108.622 -116.893)" fill="#fff"/>
            <path id="Trazado_829007" data-name="Trazado 829007" d="M221.417,240.99c.062.036-2.531,4.707-5.792,10.432s-5.956,10.34-6.018,10.3,2.53-4.706,5.792-10.433,5.956-10.338,6.018-10.3" transform="translate(-94.7 -108.88)" fill="#263238"/>
            <path id="Trazado_829008" data-name="Trazado 829008" d="M165.9,346.545s-11.705,5.342-23.091,5.342c-10.545,0-22.34-5.308-22.34-5.308Z" transform="translate(-54.426 -156.57)" fill="#e0e0e0"/>
            <rect id="Rectángulo_384035" data-name="Rectángulo 384035" width="4.516" height="47.299" transform="translate(87.186 190.484)" fill="#e0e0e0"/>
            <rect id="Rectángulo_384036" data-name="Rectángulo 384036" width="40.079" height="2.773" transform="translate(69.2 235.824)" fill="#e0e0e0"/>
            <path id="Trazado_829009" data-name="Trazado 829009" d="M190.769,434.9a3.059,3.059,0,1,0,3.059-3.058,3.059,3.059,0,0,0-3.059,3.058" transform="translate(-86.19 -195.107)" fill="#263238"/>
            <path id="Trazado_829010" data-name="Trazado 829010" d="M158.283,434.9a3.058,3.058,0,1,0,3.058-3.058,3.058,3.058,0,0,0-3.058,3.058" transform="translate(-71.513 -195.107)" fill="#263238"/>
            <path id="Trazado_829011" data-name="Trazado 829011" d="M120.651,434.9a3.059,3.059,0,1,0,3.059-3.058,3.059,3.059,0,0,0-3.059,3.058" transform="translate(-54.51 -195.107)" fill="#263238"/>
            <rect id="Rectángulo_384037" data-name="Rectángulo 384037" width="6.142" height="2.542" transform="translate(88.378 207.508)" fill="#e0e0e0"/>
            <rect id="Rectángulo_384038" data-name="Rectángulo 384038" width="2.237" height="6.1" transform="translate(93.402 205.729)" fill="#e0e0e0"/>
            <path id="Trazado_829012" data-name="Trazado 829012" d="M115.288,340.949h53.468c2,0,3.62-1.11,3.62-3.395a3.513,3.513,0,0,0-3.62-3.394H110.6v2.389a4.553,4.553,0,0,0,4.692,4.4" transform="translate(-49.967 -150.974)" fill="#455a64"/>
            <path id="Trazado_829013" data-name="Trazado 829013" d="M123.74,288.612c.072,0,.13,5.9.13,13.17s-.058,13.172-.13,13.172-.13-5.9-.13-13.172.058-13.17.13-13.17" transform="translate(-55.847 -130.395)" fill="#263238"/>
            <path id="Trazado_829014" data-name="Trazado 829014" d="M170.7,292.728a5.391,5.391,0,0,1,.726,1.01,6.718,6.718,0,0,1,.863,3.437,3.121,3.121,0,0,1-.88,2.391,2.937,2.937,0,0,1-1.294.742,5.719,5.719,0,0,1-1.6.14l-7.469.026-43.245.068a26.9,26.9,0,0,1-3.063-.089,5.089,5.089,0,0,1-2.735-1.328,5.6,5.6,0,0,1-1.445-2.625,8.963,8.963,0,0,1-.243-2.939v.014c.145-14.034.272-26.341.363-35.151.057-4.392.1-7.912.134-10.345.021-1.2.037-2.136.049-2.78.008-.309.014-.547.019-.72s.015-.244.015-.244.008.083.01.245,0,.411.006.72c0,.645,0,1.578,0,2.781-.012,2.433-.029,5.953-.05,10.346-.066,8.81-.159,21.117-.265,35.152v.015a8.688,8.688,0,0,0,.238,2.836,5.32,5.32,0,0,0,1.37,2.493,4.8,4.8,0,0,0,2.581,1.25,26.776,26.776,0,0,0,3.018.085l43.245.015,7.469.017a5.594,5.594,0,0,0,1.56-.123,2.807,2.807,0,0,0,1.238-.7,3.007,3.007,0,0,0,.865-2.293,6.776,6.776,0,0,0-.8-3.41,7.7,7.7,0,0,0-.494-.78c-.124-.167-.182-.258-.182-.258" transform="translate(-49.83 -110.391)" fill="#263238"/>
            <path id="Trazado_829015" data-name="Trazado 829015" d="M111.767,284.777l24.671.3a.639.639,0,0,1,.61.73l-3.7,30.822h5.792l2.989-33.929a1.99,1.99,0,0,0-1.9-2.232L111.4,280.3Z" transform="translate(-50.33 -126.638)" fill="#455a64"/>
            <path id="Trazado_829016" data-name="Trazado 829016" d="M111.722,284.735s-.014-.089-.033-.275-.046-.475-.081-.84q-.1-1.145-.3-3.363l0-.055h.056l23.9.073,4.161.019a7.424,7.424,0,0,1,1.091.042,2.068,2.068,0,0,1,1.02.506,2.125,2.125,0,0,1,.615.975,2.814,2.814,0,0,1,.045,1.151c-.259,2.967-.529,6.063-.809,9.264-.562,6.4-1.162,13.234-1.784,20.324q-.18,2.038-.356,4.039l-.011.13h-6.081l.019-.158c.964-7.986,1.872-15.5,2.691-22.286q.309-2.543.6-4.945.146-1.2.287-2.362.071-.581.14-1.152a.539.539,0,0,0-.486-.679l-8.372-.121-11.984-.193-3.215-.06-.828-.02c-.185-.005-.275-.013-.275-.013s.1-.005.293-.007h.844l3.24.017,11.973.094,8.331.08a.749.749,0,0,1,.57.3.789.789,0,0,1,.132.626q-.067.571-.136,1.152-.138,1.162-.28,2.363-.285,2.4-.587,4.946c-.809,6.784-1.706,14.3-2.658,22.289l-.14-.158,5.791,0-.142.13q.176-2,.356-4.039c.627-7.09,1.231-13.921,1.8-20.325.285-3.2.56-6.3.824-9.264a2.558,2.558,0,0,0-.033-1.053,1.871,1.871,0,0,0-.539-.861,1.827,1.827,0,0,0-.9-.448,7.471,7.471,0,0,0-1.05-.04l-4.16-.03-23.895-.207.051-.054q.161,2.2.246,3.34c.025.371.044.653.058.853s.014.293.014.293" transform="translate(-50.285 -126.596)" fill="#263238"/>
            <path id="Trazado_829017" data-name="Trazado 829017" d="M157.489,340.546a.753.753,0,1,1-.754-.754.754.754,0,0,1,.754.754" transform="translate(-70.473 -153.519)" fill="#263238"/>
            <path id="Trazado_829018" data-name="Trazado 829018" d="M64.554,257.481l1.807,11.875h10.5l2.436-11.7Z" transform="translate(-29.165 -116.331)" fill="#1682fb"/>
            <path id="Trazado_829019" data-name="Trazado 829019" d="M78.864,271.313c0,.034-2.69.061-6.008.061s-6.008-.027-6.008-.061,2.689-.061,6.008-.061,6.008.027,6.008.061" transform="translate(-30.202 -122.552)" fill="#fafafa"/>
            <path id="Trazado_829020" data-name="Trazado 829020" d="M78.871,270.248c0,.034-2.708.062-6.048.062s-6.049-.028-6.049-.062,2.708-.061,6.049-.061,6.048.027,6.048.061" transform="translate(-30.169 -122.071)" fill="#fafafa"/>
            <path id="Trazado_829021" data-name="Trazado 829021" d="M78.834,269.044c0,.034-2.708.061-6.048.061s-6.049-.027-6.049-.061,2.708-.061,6.049-.061,6.048.027,6.048.061" transform="translate(-30.152 -121.527)" fill="#fafafa"/>
            <path id="Trazado_829022" data-name="Trazado 829022" d="M69.614,275.425a9.538,9.538,0,0,1-.322-1.495,9.42,9.42,0,0,1-.2-1.516,19.014,19.014,0,0,1,.522,3.011" transform="translate(-31.212 -123.077)" fill="#fafafa"/>
            <path id="Trazado_829023" data-name="Trazado 829023" d="M71.179,275.269a11.285,11.285,0,0,1-.13-1.459,11.61,11.61,0,0,1-.069-1.463,11.628,11.628,0,0,1,.2,2.922" transform="translate(-32.064 -123.047)" fill="#fafafa"/>
            <path id="Trazado_829024" data-name="Trazado 829024" d="M73.423,275.192a11.9,11.9,0,0,1-.353-3.014,44.326,44.326,0,0,1,.353,3.014" transform="translate(-33.006 -122.971)" fill="#fafafa"/>
            <path id="Trazado_829025" data-name="Trazado 829025" d="M75.267,275.28a12.175,12.175,0,0,1-.1-3.046,42.755,42.755,0,0,1,.1,3.046" transform="translate(-33.936 -122.996)" fill="#fafafa"/>
            <path id="Trazado_829026" data-name="Trazado 829026" d="M78.239,275.3a8.567,8.567,0,0,1-.111-1.442,8.449,8.449,0,0,1,.013-1.447,17.032,17.032,0,0,1,.1,2.889" transform="translate(-35.291 -123.074)" fill="#fafafa"/>
            <path id="Trazado_829027" data-name="Trazado 829027" d="M80.457,275.332a18.148,18.148,0,0,1,.024-2.983,9,9,0,0,1,.05,1.492,9.127,9.127,0,0,1-.074,1.491" transform="translate(-36.328 -123.048)" fill="#fafafa"/>
            <path id="Trazado_829028" data-name="Trazado 829028" d="M82.51,274.941a19.774,19.774,0,0,1,.3-3.107,19.777,19.777,0,0,1-.3,3.107" transform="translate(-37.273 -122.815)" fill="#fafafa"/>
            <path id="Trazado_829029" data-name="Trazado 829029" d="M85.117,275.07a8.186,8.186,0,0,1,.567-2.606,63.081,63.081,0,0,1-.567,2.606" transform="translate(-38.452 -123.1)" fill="#fafafa"/>
            <path id="Trazado_829030" data-name="Trazado 829030" d="M62.356,253.192v2.222a.875.875,0,0,0,.875.875h15.2a.875.875,0,0,0,.875-.875v-2.222Z" transform="translate(-28.173 -114.393)" fill="#1682fb"/>
            <g id="Grupo_1074903" data-name="Grupo 1074903" transform="translate(35.502 141.896)" opacity="0.4">
              <g id="Grupo_1074902" data-name="Grupo 1074902">
                <g id="Grupo_1074901" data-name="Grupo 1074901" clip-path="url(#clip-path-8)">
                  <path id="Trazado_829031" data-name="Trazado 829031" d="M64.761,258.841l.126.707,14.027,1,.355-1.707Z" transform="translate(-64.761 -258.841)"/>
                </g>
              </g>
            </g>
            <path id="Trazado_829032" data-name="Trazado 829032" d="M69.511,241.362c-2.234-1.3-3.429-4.308-3.518-6.774a7.568,7.568,0,0,1,2.96-6.452,6.774,6.774,0,0,1,7.352-.06,7.651,7.651,0,0,1,3.372,6.644,8.81,8.81,0,0,1-3.608,6.617" transform="translate(-29.813 -102.569)" fill="#455a64"/>
            <path id="Trazado_829033" data-name="Trazado 829033" d="M78.391,241.795a2.931,2.931,0,0,1-.041-.564c-.012-.4-.026-.919-.044-1.538-.033-1.3-.084-3.092-.171-5.071s-.194-3.771-.275-5.067c-.037-.618-.068-1.133-.092-1.536a2.952,2.952,0,0,1-.009-.565,2.89,2.89,0,0,1,.09.559c.044.361.1.884.158,1.531.119,1.295.249,3.087.337,5.069s.115,3.778.11,5.078c0,.65-.01,1.176-.023,1.54a2.946,2.946,0,0,1-.04.564" transform="translate(-35.128 -102.764)" fill="#263238"/>
            <path id="Trazado_829034" data-name="Trazado 829034" d="M65.905,239.651c0,.058-.361.075-.8.039s-.783-.111-.779-.169.361-.075.8-.039.783.111.778.169" transform="translate(-29.065 -108.19)" fill="#263238"/>
            <path id="Trazado_829035" data-name="Trazado 829035" d="M66.364,235.285c-.024.053-.331-.032-.686-.19s-.625-.329-.6-.382.331.032.686.19.625.328.6.381" transform="translate(-29.401 -106.037)" fill="#263238"/>
            <path id="Trazado_829036" data-name="Trazado 829036" d="M68.445,231.9c-.03.049-.376-.115-.735-.412s-.584-.606-.543-.645.328.2.676.484.633.524.6.573" transform="translate(-30.344 -104.292)" fill="#263238"/>
            <path id="Trazado_829037" data-name="Trazado 829037" d="M71.126,228.923c-.053.024-.218-.235-.369-.578s-.231-.639-.179-.663.219.236.37.578.231.639.178.662" transform="translate(-31.88 -102.867)" fill="#263238"/>
            <path id="Trazado_829038" data-name="Trazado 829038" d="M74.493,226.828c-.052.024-.23-.251-.348-.633s-.129-.709-.072-.719.157.289.272.657.2.67.148.7" transform="translate(-33.451 -101.87)" fill="#263238"/>
            <path id="Trazado_829039" data-name="Trazado 829039" d="M80.027,225.68c.054.019.021.254-.075.525s-.217.475-.271.456-.021-.254.074-.525.218-.475.272-.456" transform="translate(-35.988 -101.962)" fill="#263238"/>
            <path id="Trazado_829040" data-name="Trazado 829040" d="M83.743,227.415c.039.042-.1.238-.318.437s-.422.326-.46.283.1-.238.319-.437.421-.326.46-.283" transform="translate(-37.48 -102.743)" fill="#263238"/>
            <path id="Trazado_829041" data-name="Trazado 829041" d="M87.22,229.717c.032.048-.141.223-.388.39s-.474.264-.506.216.141-.222.388-.389.474-.264.506-.217" transform="translate(-39 -103.781)" fill="#263238"/>
            <path id="Trazado_829042" data-name="Trazado 829042" d="M89.417,233.152c.023.053-.252.221-.612.375s-.672.236-.694.183.251-.221.612-.375.672-.236.694-.183" transform="translate(-39.808 -105.331)" fill="#263238"/>
            <path id="Trazado_829043" data-name="Trazado 829043" d="M90.445,236.871c.007.058-.271.14-.623.183s-.641.032-.649-.025.272-.139.623-.183.641-.032.649.025" transform="translate(-40.289 -106.995)" fill="#263238"/>
            <path id="Trazado_829044" data-name="Trazado 829044" d="M90.987,241.07c-.023.053-.32-.025-.664-.174s-.6-.314-.58-.366.32.025.664.174.6.313.58.366" transform="translate(-40.545 -108.664)" fill="#263238"/>
            <path id="Trazado_829045" data-name="Trazado 829045" d="M90.42,244.746c-.019.053-.394-.037-.787-.294s-.626-.564-.585-.6.328.186.7.427.693.414.672.47" transform="translate(-40.23 -110.169)" fill="#263238"/>
            <path id="Trazado_829046" data-name="Trazado 829046" d="M88.651,248.192c-.035.045-.333-.131-.621-.441s-.441-.62-.394-.651.271.213.547.509.5.537.467.583" transform="translate(-39.591 -111.639)" fill="#263238"/>
            <path id="Trazado_829047" data-name="Trazado 829047" d="M68.678,249.508c.027.052-.287.268-.7.483s-.771.349-.8.3.287-.268.7-.483.771-.349.8-.3" transform="translate(-30.351 -112.723)" fill="#263238"/>
            <path id="Trazado_829048" data-name="Trazado 829048" d="M67.127,246.243c.024.053-.228.218-.562.37s-.625.232-.649.179.228-.218.562-.37.624-.232.649-.179" transform="translate(-29.78 -111.246)" fill="#263238"/>
            <path id="Trazado_829049" data-name="Trazado 829049" d="M65.647,243.332c.008.057-.3.149-.692.2s-.714.054-.722,0,.3-.149.692-.2.713-.054.721,0" transform="translate(-29.02 -109.918)" fill="#263238"/>
            <path id="Trazado_829050" data-name="Trazado 829050" d="M69.96,241.755c.017.054-.285.2-.689.24s-.729-.024-.724-.08.319-.083.7-.128.7-.089.712-.032" transform="translate(-30.97 -109.214)" fill="#263238"/>
            <path id="Trazado_829051" data-name="Trazado 829051" d="M73.778,238.185c.017.054-.224.176-.548.207s-.584-.04-.578-.1.256-.081.558-.112.551-.055.568,0" transform="translate(-32.824 -107.597)" fill="#263238"/>
            <path id="Trazado_829052" data-name="Trazado 829052" d="M74.487,235.025c-.019.054-.279.014-.582-.09s-.532-.234-.513-.288.279-.014.582.09.532.234.513.288" transform="translate(-33.158 -106.003)" fill="#263238"/>
            <path id="Trazado_829053" data-name="Trazado 829053" d="M76.321,231.85c-.04.04-.219-.078-.346-.3s-.141-.435-.086-.45.153.149.268.345.207.364.165.4" transform="translate(-34.273 -104.411)" fill="#263238"/>
            <path id="Trazado_829054" data-name="Trazado 829054" d="M74.322,244.262c.014.056-.212.16-.5.231a1.953,1.953,0,0,1-.423.062l-.041-.122c.075-.014.124-.01.134.012s-.021.06-.082.106l-.041-.122a1.9,1.9,0,0,1,.4-.14c.292-.071.54-.083.554-.027" transform="translate(-33.141 -110.342)" fill="#263238"/>
            <path id="Trazado_829055" data-name="Trazado 829055" d="M74.736,249.339c.021.054-.266.217-.642.365s-.7.224-.719.17.266-.217.642-.365.7-.224.719-.17" transform="translate(-33.151 -112.644)" fill="#263238"/>
            <path id="Trazado_829056" data-name="Trazado 829056" d="M71.049,247.08c.019.055-.173.169-.428.256s-.477.113-.5.058.173-.169.429-.256.477-.113.5-.058" transform="translate(-31.682 -111.618)" fill="#263238"/>
            <path id="Trazado_829057" data-name="Trazado 829057" d="M70.987,236.386c-.013.055-.347.022-.733-.115s-.667-.321-.642-.373.337.043.712.175.677.255.663.312" transform="translate(-31.45 -106.573)" fill="#263238"/>
            <path id="Trazado_829058" data-name="Trazado 829058" d="M81.124,235.67c.032.048-.156.229-.42.4s-.5.276-.535.227.156-.229.42-.4.5-.276.535-.227" transform="translate(-36.219 -106.471)" fill="#263238"/>
            <path id="Trazado_829059" data-name="Trazado 829059" d="M81.683,240.727c.012.056-.186.145-.441.2s-.472.05-.484-.007.186-.145.441-.2.472-.05.484.007" transform="translate(-36.486 -108.741)" fill="#263238"/>
            <path id="Trazado_829060" data-name="Trazado 829060" d="M82.089,246.014c-.024.053-.309-.027-.635-.179s-.572-.317-.548-.369.309.027.635.179.572.316.548.369" transform="translate(-36.553 -110.895)" fill="#263238"/>
            <path id="Trazado_829061" data-name="Trazado 829061" d="M81.2,251.374c-.045.037-.23-.114-.413-.337s-.3-.434-.251-.47.229.114.412.337.3.434.251.47" transform="translate(-36.382 -113.204)" fill="#263238"/>
            <path id="Trazado_829062" data-name="Trazado 829062" d="M80.9,231.925c.035.044-.087.2-.3.3s-.406.111-.42.056.138-.148.326-.243.355-.162.39-.116" transform="translate(-36.225 -104.777)" fill="#263238"/>
            <path id="Trazado_829063" data-name="Trazado 829063" d="M85.333,237.042c.019.053-.224.187-.557.234s-.6-.016-.6-.072.26-.091.571-.135.567-.082.586-.026" transform="translate(-38.031 -107.084)" fill="#263238"/>
            <path id="Trazado_829064" data-name="Trazado 829064" d="M84.334,232.448c.026.05-.216.223-.56.332s-.64.11-.649.054.259-.149.585-.253.6-.186.623-.133" transform="translate(-37.556 -105.013)" fill="#263238"/>
            <path id="Trazado_829065" data-name="Trazado 829065" d="M85.878,243.914a2.533,2.533,0,0,1-1.766-.32,8.945,8.945,0,0,1,1.766.32" transform="translate(-38.001 -110.048)" fill="#263238"/>
            <path id="Trazado_829066" data-name="Trazado 829066" d="M84.654,249.982c-.035.045-.339-.134-.642-.44s-.482-.61-.437-.645.291.2.585.5.531.542.494.588" transform="translate(-37.756 -112.451)" fill="#263238"/>
            <path id="Trazado_829067" data-name="Trazado 829067" d="M74.1,227.02a9.487,9.487,0,0,0-1.835,1.45,8.958,8.958,0,0,0-2.286,5.052,11.342,11.342,0,0,0,.138,3.1,23.6,23.6,0,0,0,.58,2.484c.2.7.385,1.26.509,1.648a3.9,3.9,0,0,1,.177.61,3.442,3.442,0,0,1-.253-.582c-.147-.38-.354-.935-.574-1.633a21.087,21.087,0,0,1-.628-2.494,11.108,11.108,0,0,1-.156-3.153,8.808,8.808,0,0,1,2.387-5.131,6.551,6.551,0,0,1,1.369-1.07,4.123,4.123,0,0,1,.419-.218.487.487,0,0,1,.153-.06" transform="translate(-31.498 -102.568)" fill="#263238"/>
            <path id="Trazado_829068" data-name="Trazado 829068" d="M80.433,241.566a23.049,23.049,0,0,0,.941-2.248,12.72,12.72,0,0,0,.562-5.781,10.865,10.865,0,0,0-.891-3.083,7.281,7.281,0,0,0-1.52-2.117,5.534,5.534,0,0,0-1.489-.941c-.387-.162-.619-.2-.616-.217a.5.5,0,0,1,.171.013,3.157,3.157,0,0,1,.474.128,5.157,5.157,0,0,1,1.557.906,7.169,7.169,0,0,1,1.6,2.145,10.709,10.709,0,0,1,.924,3.137,12.293,12.293,0,0,1-.63,5.858c-.118.361-.27.671-.384.95-.135.27-.246.5-.348.691a3.9,3.9,0,0,1-.349.559" transform="translate(-34.978 -102.639)" fill="#263238"/>
            <path id="Trazado_829069" data-name="Trazado 829069" d="M210.115,228.452l-7.17,8.815a7.736,7.736,0,0,0,2.4,4.276,4.4,4.4,0,0,0,4.406.837s.47-.789,1.782-2.9c2.473-3.98,4.117-11.569,4.117-11.569Z" transform="translate(-91.691 -102.971)" fill="#ffceb3"/>
            <path id="Trazado_829070" data-name="Trazado 829070" d="M223.707,197.654a.8.8,0,0,0-.742-.185l-4.688,1.088a1.622,1.622,0,0,0-.983.7l-9.22,14.677.769.3,5.205-.7,9.815-15.726Z" transform="translate(-94.008 -89.206)" fill="#263238"/>
            <path id="Trazado_829071" data-name="Trazado 829071" d="M230.579,201.278a.322.322,0,0,0,.391-.117c.112-.134.12-.3.015-.368a.323.323,0,0,0-.391.117c-.112.134-.119.3-.015.368" transform="translate(-104.143 -90.705)" fill="#fff"/>
            <path id="Trazado_829072" data-name="Trazado 829072" d="M224.6,198.1a6.626,6.626,0,0,1-.9.26l-2.483.616-1.717.413a1.083,1.083,0,0,0-.712.466l-.525.843-2.353,3.758c-1.677,2.664-3.209,5.069-4.33,6.8l-1.34,2.049a5.887,5.887,0,0,1-.525.736,5.7,5.7,0,0,1,.43-.781l1.263-2.085c1.077-1.756,2.581-4.173,4.258-6.837l2.373-3.749.538-.843a1.355,1.355,0,0,1,.877-.567l1.725-.383,2.5-.537a6.639,6.639,0,0,1,.924-.163" transform="translate(-94.747 -89.5)" fill="#455a64"/>
            <path id="Trazado_829073" data-name="Trazado 829073" d="M221.36,204.952s-.475-.031-.674,1.183-.865,4.7-.865,4.7l-2.525-.961-3.067.68s-.645.641-.136.9a11.336,11.336,0,0,0,2.475.388l1.531,1.763-4.217-1.421s-1.361.469-.92,1.2a23.786,23.786,0,0,0,3.342,2.881l-2.075.063-2.526-1.13s-.753.107-.442.672a20.482,20.482,0,0,0,2.971,2.45l3.169,1.077s1.687-.293,1.827-.767a5.135,5.135,0,0,0,.15-1.134s.888-.314,1.036-.732a2.318,2.318,0,0,0,.01-1.044s1.421.087,1.561-.656a7.555,7.555,0,0,0-.246-2.7c-.169-.544.322-5.8.257-5.956s.234-1.9-.634-1.466" transform="translate(-95.413 -92.567)" fill="#ffceb3"/>
            <path id="Trazado_829074" data-name="Trazado 829074" d="M221.613,229.441a1.883,1.883,0,0,1-.8.314,5.86,5.86,0,0,1-2.048.119,5.367,5.367,0,0,1-1.9-.585c-.441-.241-.66-.453-.636-.482a11.213,11.213,0,0,0,2.6.775,12.219,12.219,0,0,0,2.786-.14" transform="translate(-97.691 -103.372)" fill="#ff9c65"/>
            <path id="Trazado_829075" data-name="Trazado 829075" d="M222.822,227.089a2.56,2.56,0,0,1-1.215-.525c-.61-.385-1.021-.79-.963-.853s.557.23,1.153.606,1.072.7,1.025.772" transform="translate(-99.685 -101.972)" fill="#ff9a6c"/>
            <path id="Trazado_829076" data-name="Trazado 829076" d="M225.7,222.217a2.238,2.238,0,0,1-1.174-.549c-.575-.413-.922-.862-.856-.917s.508.282,1.061.68,1.016.712.969.786" transform="translate(-101.05 -99.733)" fill="#ff9a6c"/>
            <path id="Trazado_829077" data-name="Trazado 829077" d="M228.761,217.849c-.083.042-.421-.464-.941-1s-1.017-.907-.964-.98a2.225,2.225,0,0,1,1.208.776c.55.568.775,1.169.7,1.2" transform="translate(-102.492 -97.526)" fill="#ff9c65"/>
            <path id="Trazado_829078" data-name="Trazado 829078" d="M314.271,373.789h-2.235l1.118-82.557h4.78Z" transform="translate(-140.979 -131.579)" fill="#e0e0e0"/>
            <path id="Trazado_829079" data-name="Trazado 829079" d="M314.245,373.672s0-.15.009-.433.026-.707.045-1.25c.044-1.1.109-2.716.192-4.793.174-4.163.426-10.179.739-17.63.646-14.891,1.54-35.51,2.535-58.457l.143.149h-4.78l.143-.14c-.549,40.473-1.052,74.145-1.229,82.555l-.031-.032,1.675.018c.371.006.56.013.56.013s-.174.008-.542.013l-1.693.018h-.032v-.032c.05-8.412.459-42.085,1.006-82.558l0-.141h5.07l-.007.149c-1.043,22.985-1.98,43.639-2.657,58.554-.348,7.436-.629,13.44-.824,17.594-.1,2.062-.178,3.664-.231,4.759q-.043.8-.065,1.231c-.015.276-.029.412-.029.412" transform="translate(-140.952 -131.462)" fill="#263238"/>
            <path id="Trazado_829080" data-name="Trazado 829080" d="M60.761,373.767H58.526L57.253,290.8h4.781Z" transform="translate(-25.867 -131.383)" fill="#e0e0e0"/>
            <path id="Trazado_829081" data-name="Trazado 829081" d="M60.642,373.649s0-.151,0-.435,0-.71.009-1.256c.013-1.108.031-2.729.054-4.816.054-4.183.132-10.229.229-17.716.214-14.965.511-35.686.843-58.747l.143.145H57.134l.143-.145c.623,40.68,1.095,74.529,1.161,82.97l-.031-.031,1.675.018c.371.005.56.013.56.013s-.174.008-.542.013l-1.693.018h-.031v-.031c-.193-8.44-.759-42.287-1.384-82.967l0-.145h5.07l0,.145c-.378,23.1-.716,43.859-.962,58.85-.133,7.473-.24,13.507-.315,17.682-.041,2.073-.072,3.682-.094,4.783q-.019.807-.029,1.237c-.008.277-.016.414-.016.414" transform="translate(-25.748 -131.266)" fill="#263238"/>
            <rect id="Rectángulo_384040" data-name="Rectángulo 384040" width="160.59" height="6.878" transform="translate(20.423 153.067)" fill="#455a64"/>
            <path id="Trazado_829082" data-name="Trazado 829082" d="M37.222,279.1s.271-.007.811-.01l2.4-.01,9.273-.02,34.239-.043,113.863-.059h.143v.142c0,2.175,0,4.517,0,6.87v.151h-.143l-160.59-.1h-.039v-.038c.01-2.364.018-4.086.022-5.222,0-.56.007-.974.009-1.253s.007-.4.007-.4,0,.139.007.417,0,.7.009,1.262c0,1.131.012,2.845.022,5.2l-.038-.038,160.59-.1-.143.143V279.1l.143.143-113.758-.059-34.272-.043-9.306-.02-2.422-.01c-.547,0-.832-.01-.832-.01" transform="translate(-16.799 -126.034)" fill="#263238"/>
            <path id="Trazado_829083" data-name="Trazado 829083" d="M70.78,279.4a.3.3,0,0,1-.05.075c-.036.047-.088.118-.164.206a3.294,3.294,0,0,1-.79.633,4.434,4.434,0,0,1-1.52.51,10.72,10.72,0,0,1-2.119.093,20.72,20.72,0,0,1-2.551-.293,22.751,22.751,0,0,0-2.906-.346,18.018,18.018,0,0,0-6.539,1.268c-2.244.8-4.341,1.714-6.347,2.27a17.453,17.453,0,0,1-2.894.574,12.221,12.221,0,0,1-2.572,0A8.742,8.742,0,0,1,38.8,283.26a5.549,5.549,0,0,1-1.09-.816.3.3,0,0,1,.076.048l.21.157a7.335,7.335,0,0,0,.843.545,8.918,8.918,0,0,0,3.5,1.058,12.347,12.347,0,0,0,2.54-.019,17.643,17.643,0,0,0,2.863-.586c1.988-.56,4.076-1.475,6.332-2.281a17.975,17.975,0,0,1,6.61-1.263,22.358,22.358,0,0,1,2.926.366,21.2,21.2,0,0,0,2.531.315,10.908,10.908,0,0,0,2.1-.063,4.458,4.458,0,0,0,1.5-.469,3.979,3.979,0,0,0,1.042-.848" transform="translate(-17.037 -126.235)" fill="#263238"/>
            <path id="Trazado_829084" data-name="Trazado 829084" d="M54.792,279.578a3.9,3.9,0,0,1-.476.406,10.9,10.9,0,0,1-1.435.924,12.494,12.494,0,0,1-2.347.955,12.725,12.725,0,0,1-3.066.48,11.743,11.743,0,0,1-5.483-1.131,3.481,3.481,0,0,1-1.323-1.081,1.874,1.874,0,0,1-.216-.415.532.532,0,0,1-.041-.158,4.362,4.362,0,0,0,.318.528,3.585,3.585,0,0,0,1.323,1,12.153,12.153,0,0,0,5.416,1.06,13.068,13.068,0,0,0,3.024-.457,13.323,13.323,0,0,0,2.332-.9,13.525,13.525,0,0,0,1.454-.864,3.871,3.871,0,0,1,.52-.345" transform="translate(-18.254 -126.304)" fill="#263238"/>
            <path id="Trazado_829085" data-name="Trazado 829085" d="M123.624,285.088a1.884,1.884,0,0,1,.244.088,4.758,4.758,0,0,0,.726.193,4.281,4.281,0,0,0,2.753-.431l-.008.087a6.556,6.556,0,0,0-3.413-1.329,6.642,6.642,0,0,0-4.44,1.153.712.712,0,0,0-.344.447.481.481,0,0,0,.295.444,2.045,2.045,0,0,0,.61.214l.67.152c.9.2,1.83.4,2.792.54a16.628,16.628,0,0,0,2.97.2A10.8,10.8,0,0,0,128,286.7c.254-.043.508-.092.759-.159a3.808,3.808,0,0,0,.735-.237,2.426,2.426,0,0,0,.953-.689,1.086,1.086,0,0,0,.183-1.057,1.808,1.808,0,0,0-.748-.835,5.94,5.94,0,0,0-1.044-.51,14.249,14.249,0,0,0-4.369-.906,18.1,18.1,0,0,0-7.457,1.156,18.463,18.463,0,0,0-4.49,2.452c-.48.371-.849.664-1.085.88l-.277.236a.658.658,0,0,1-.1.076.588.588,0,0,1,.086-.09l.265-.251c.227-.226.59-.53,1.065-.911a18.191,18.191,0,0,1,12-3.726,14.371,14.371,0,0,1,4.428.908,6.1,6.1,0,0,1,1.079.526,1.986,1.986,0,0,1,.824.929,1.281,1.281,0,0,1-.21,1.241,2.6,2.6,0,0,1-1.028.748,3.958,3.958,0,0,1-.765.248c-.257.068-.515.118-.774.162a11.037,11.037,0,0,1-1.551.147,16.687,16.687,0,0,1-3-.208c-.97-.144-1.9-.347-2.8-.55l-.67-.155a2.2,2.2,0,0,1-.658-.236.884.884,0,0,1-.277-.242.54.54,0,0,1-.1-.371.865.865,0,0,1,.416-.566,6.768,6.768,0,0,1,4.553-1.157,6.628,6.628,0,0,1,3.465,1.388l.064.051-.071.037a4.28,4.28,0,0,1-2.813.393,3.171,3.171,0,0,1-.959-.335" transform="translate(-50.178 -127.455)" fill="#263238"/>
            <path id="Trazado_829086" data-name="Trazado 829086" d="M166.4,279.73a1.014,1.014,0,0,1,.155.346,2.623,2.623,0,0,1,.1,1.032,5.081,5.081,0,0,1-1.532,3,7.73,7.73,0,0,1-1.431,1.217,6.365,6.365,0,0,1-1.38.669,6.493,6.493,0,0,1-1,.251,1.369,1.369,0,0,1-.377.032c-.007-.036.528-.11,1.33-.412a6.858,6.858,0,0,0,1.329-.69,8.107,8.107,0,0,0,1.388-1.2,5.208,5.208,0,0,0,1.537-2.883,3.754,3.754,0,0,0-.123-1.365" transform="translate(-72.71 -126.383)" fill="#263238"/>
            <path id="Trazado_829087" data-name="Trazado 829087" d="M203.521,287.368a8.892,8.892,0,0,0-.722-.7,5.129,5.129,0,0,0-2.46-1.109,5.481,5.481,0,0,0-1.873.054,8.06,8.06,0,0,1-2.2.2,4.392,4.392,0,0,1-2.185-1.072,7.451,7.451,0,0,0-2.2-1.3,8.056,8.056,0,0,0-4.877-.076,11.587,11.587,0,0,0-3.608,1.828,19.681,19.681,0,0,0-2.092,1.785l-.534.527a1.277,1.277,0,0,1-.193.178,1.331,1.331,0,0,1,.164-.2c.112-.13.283-.317.509-.553a17.467,17.467,0,0,1,2.064-1.842,11.474,11.474,0,0,1,3.641-1.89,8.156,8.156,0,0,1,4.992.065,7.578,7.578,0,0,1,2.246,1.334,4.237,4.237,0,0,0,2.09,1.045,8.047,8.047,0,0,0,2.149-.183,5.559,5.559,0,0,1,1.921-.031,5.057,5.057,0,0,1,2.487,1.187,3.333,3.333,0,0,1,.673.76" transform="translate(-81.588 -127.784)" fill="#263238"/>
            <path id="Trazado_829088" data-name="Trazado 829088" d="M247.955,279.339a1.589,1.589,0,0,1-.172.235,8.186,8.186,0,0,1-.537.639,14.646,14.646,0,0,1-2.3,2.04,18.417,18.417,0,0,1-3.984,2.209,16.308,16.308,0,0,1-2.569.82,13.27,13.27,0,0,1-2.874.37,14.214,14.214,0,0,1-5.453-1.135,18.164,18.164,0,0,1-3.962-2.247,15.509,15.509,0,0,1-2.28-2.058c-.253-.261-.416-.492-.539-.639a1.6,1.6,0,0,1-.173-.234,1.587,1.587,0,0,1,.2.209c.132.138.3.36.564.612a16.823,16.823,0,0,0,2.306,2,18.555,18.555,0,0,0,3.949,2.193,14.228,14.228,0,0,0,5.384,1.106,13.227,13.227,0,0,0,2.834-.361,16.509,16.509,0,0,0,2.545-.8,18.878,18.878,0,0,0,3.971-2.154,15.792,15.792,0,0,0,2.321-1.98c.261-.251.431-.475.562-.613a1.689,1.689,0,0,1,.2-.21" transform="translate(-100.804 -126.206)" fill="#263238"/>
            <path id="Trazado_829089" data-name="Trazado 829089" d="M248.908,279.218c0,.006-.043.043-.134.109s-.226.163-.407.276a16.5,16.5,0,0,1-1.576.892,16.721,16.721,0,0,1-2.489,1.013,10.956,10.956,0,0,1-3.248.555,13.332,13.332,0,0,1-5.766-1.457,12.79,12.79,0,0,1-1.562-.917c-.179-.118-.307-.224-.4-.291s-.133-.108-.129-.113a5.512,5.512,0,0,1,.567.341,15.778,15.778,0,0,0,1.581.857,13.837,13.837,0,0,0,5.706,1.387,11.144,11.144,0,0,0,3.2-.532,17.993,17.993,0,0,0,2.482-.966c.686-.326,1.228-.619,1.6-.833a5.163,5.163,0,0,1,.581-.32" transform="translate(-105.36 -126.151)" fill="#263238"/>
            <path id="Trazado_829090" data-name="Trazado 829090" d="M289.413,280.345a1.92,1.92,0,0,1-.313,0l-.887-.033-.639-.029-.764,0c-.547,0-1.17-.015-1.857.018l-1.079.034-1.163.078c-.807.041-1.653.151-2.549.238-1.777.225-3.705.542-5.664.981a55.057,55.057,0,0,0-5.307,1.515c-.764.287-1.513.539-2.158.824l-.951.4-.84.4c-.547.243-1,.493-1.4.707l-.566.3-.447.267-.627.366a1.211,1.211,0,0,1-.236.119c-.009,0,.055-.054.186-.145l.583-.392.428-.28.55-.311c.395-.223.839-.481,1.38-.734l.833-.408.947-.409c.644-.293,1.393-.553,2.16-.846a52.074,52.074,0,0,1,5.344-1.543c1.978-.443,3.928-.758,5.726-.975.907-.083,1.762-.189,2.578-.223l1.175-.068,1.089-.021c.693-.024,1.321,0,1.872.01l.767.019.641.046.884.069a1.788,1.788,0,0,1,.3.037" transform="translate(-118.356 -126.574)" fill="#263238"/>
            <path id="Trazado_829091" data-name="Trazado 829091" d="M201.5,286.194a7.328,7.328,0,0,0-.866-1.029,8,8,0,0,0-3.17-1.771,17.357,17.357,0,0,0-2.473-.547c-.9-.143-1.874-.255-2.892-.431a24.229,24.229,0,0,1-3.141-.787,20.491,20.491,0,0,0-3.351-.809,13.962,13.962,0,0,0-6.527.9,23.806,23.806,0,0,0-2.655,1.193c-.814.417-1.56.828-2.237,1.21-1.354.766-2.432,1.418-3.175,1.872l-.855.524-.224.134a.325.325,0,0,1-.079.04s.021-.022.069-.056l.214-.15c.189-.13.47-.319.835-.555.731-.474,1.8-1.144,3.147-1.927.674-.39,1.418-.81,2.231-1.234a23.359,23.359,0,0,1,2.667-1.218,14.013,14.013,0,0,1,6.613-.926,20.473,20.473,0,0,1,3.381.819,24.548,24.548,0,0,0,3.117.794c1.01.179,1.981.3,2.886.448a17.018,17.018,0,0,1,2.49.575,7.874,7.874,0,0,1,3.181,1.848,4.035,4.035,0,0,1,.812,1.083" transform="translate(-76.742 -126.748)" fill="#263238"/>
            <path id="Trazado_829092" data-name="Trazado 829092" d="M156.436,279.4a1.516,1.516,0,0,1-.023.44,5.121,5.121,0,0,1-.308,1.161,6.665,6.665,0,0,1-2.418,3.093,16.169,16.169,0,0,1-3.583,1.65c-.479.159-.871.273-1.144.344a1.82,1.82,0,0,1-.43.089,2.027,2.027,0,0,1,.408-.161l1.12-.4a18.483,18.483,0,0,0,3.523-1.682,6.875,6.875,0,0,0,2.4-2.982,9.276,9.276,0,0,0,.458-1.549" transform="translate(-67.107 -126.236)" fill="#263238"/>
            <path id="Trazado_829093" data-name="Trazado 829093" d="M96.342,286.18a2.747,2.747,0,0,1,.383-.368c.253-.23.635-.544,1.119-.917a32.455,32.455,0,0,1,4.012-2.585c1.635-.9,3.161-1.617,4.27-2.126.554-.254,1.005-.455,1.319-.59a2.75,2.75,0,0,1,.5-.191,2.788,2.788,0,0,1-.463.26l-1.292.645c-1.093.541-2.607,1.277-4.235,2.172a39.609,39.609,0,0,0-4.023,2.526c-.492.356-.886.653-1.153.865a2.831,2.831,0,0,1-.431.31" transform="translate(-43.527 -126.235)" fill="#263238"/>
            <path id="Trazado_829094" data-name="Trazado 829094" d="M89.7,279.856c0,.022-.363-.047-1.015,0a7.185,7.185,0,0,0-2.624.8,24.04,24.04,0,0,0-3.409,2.288,17.354,17.354,0,0,1-2.053,1.33,11.425,11.425,0,0,1-2.455.945,22.8,22.8,0,0,1-5.025.6c-1.555.046-2.952.014-4.122.063a20.379,20.379,0,0,0-2.757.27c-.322.06-.572.109-.74.149a1.45,1.45,0,0,1-.26.047,1.291,1.291,0,0,1,.25-.085c.166-.052.413-.114.735-.185a17.956,17.956,0,0,1,2.765-.333c1.175-.066,2.575-.049,4.123-.1a23.309,23.309,0,0,0,4.982-.613,11.361,11.361,0,0,0,2.415-.925,17.578,17.578,0,0,0,2.037-1.306A22.963,22.963,0,0,1,86,280.533a6.946,6.946,0,0,1,2.68-.75,4.669,4.669,0,0,1,.759.025,1.356,1.356,0,0,1,.26.047" transform="translate(-29.476 -126.404)" fill="#263238"/>
          </g>
        </g>
      </g>
    </g>
  </g>
</svg>
