<svg xmlns="http://www.w3.org/2000/svg" xmlns:xlink="http://www.w3.org/1999/xlink" width="300.327" height="303.819" viewBox="0 0 300.327 303.819">
  <defs>
    <clipPath id="clip-path">
      <rect id="Rectángulo_383683" data-name="Rectángulo 383683" width="300.037" height="188.408" rx="14" transform="translate(0 0)" fill="#273a89"/>
    </clipPath>
    <clipPath id="clip-path-2">
      <rect id="Rectángulo_384029" data-name="Rectángulo 384029" width="232.208" height="291.953" fill="none"/>
    </clipPath>
    <clipPath id="clip-path-4">
      <rect id="Rectángulo_384026" data-name="Rectángulo 384026" width="3.218" height="2.438" fill="none"/>
    </clipPath>
    <clipPath id="clip-path-5">
      <rect id="Rectángulo_384027" data-name="Rectángulo 384027" width="7.853" height="2.594" fill="none"/>
    </clipPath>
  </defs>
  <g id="Grupo_1074892" data-name="Grupo 1074892" transform="translate(7678 57)">
    <g id="Grupo_1074878" data-name="Grupo 1074878" transform="translate(-7678 -59.514)">
      <g id="Grupo_1074626" data-name="Grupo 1074626" transform="translate(6.466 2.514)">
        <path id="Trazado_818450" data-name="Trazado 818450" d="M248.167,55.638,206.012,12.788,166.325,53.132l-39.913-40.57L84.706,54.955,43.449,13.018,6.179,50.9,0,44.621,43.449.456,84.706,42.39,126.412,0l39.913,40.568L206.012.227l42.155,42.849L287.679,2.913l6.182,6.278Z" transform="translate(0 0)" fill="#add3fd"/>
        <path id="Trazado_818451" data-name="Trazado 818451" d="M248.167,72.433,206.012,29.586,166.325,69.924,126.412,29.357,84.706,71.75,43.449,29.813,6.179,67.7,0,61.416,43.449,17.252,84.706,59.188,126.412,16.8l39.913,40.57,39.687-40.341,42.155,42.847,39.512-40.163,6.182,6.278Z" transform="translate(0 26.508)" fill="#add3fd"/>
        <path id="Trazado_818452" data-name="Trazado 818452" d="M248.167,89.228,206.012,46.382,166.325,86.722,126.412,46.155,84.706,88.545,43.449,46.608,6.179,84.495,0,78.211,43.449,34.047,84.706,75.983,126.412,33.59l39.913,40.57L206.012,33.82l42.155,42.847L287.679,36.5l6.182,6.281Z" transform="translate(0 53.016)" fill="#add3fd"/>
        <path id="Trazado_818453" data-name="Trazado 818453" d="M248.167,106.024,206.012,63.175l-39.687,40.341L126.412,62.948,84.706,105.341,43.449,63.4,6.179,101.288,0,95.007,43.449,50.843,84.706,92.78l41.706-42.393,39.913,40.57,39.687-40.343,42.155,42.849L287.679,53.3l6.182,6.281Z" transform="translate(0 79.527)" fill="#add3fd"/>
        <path id="Trazado_818454" data-name="Trazado 818454" d="M248.167,122.82,206.012,79.97l-39.687,40.341L126.412,79.743,84.706,122.136,43.449,80.2,6.179,118.086,0,111.8,43.449,67.638l41.257,41.937,41.706-42.393,39.913,40.57,39.687-40.341,42.155,42.849L287.679,70.1l6.182,6.281Z" transform="translate(0 106.036)" fill="#add3fd"/>
        <path id="Trazado_818455" data-name="Trazado 818455" d="M248.167,139.615,206.012,96.768l-39.687,40.341L126.412,96.541l-41.706,42.39L43.449,97,6.179,134.881,0,128.6,43.449,84.433,84.706,126.37l41.706-42.393,39.913,40.57,39.687-40.341,42.155,42.847,39.512-40.163,6.182,6.281Z" transform="translate(0 132.544)" fill="#add3fd"/>
      </g>
      <rect id="Rectángulo_383419" data-name="Rectángulo 383419" width="300.037" height="181.854" rx="14" transform="translate(0 124.479)" fill="#273a89"/>
      <g id="Enmascarar_grupo_192" data-name="Enmascarar grupo 192" transform="translate(0.29 117.925)" clip-path="url(#clip-path)">
        <g id="Grupo_1074624" data-name="Grupo 1074624" transform="translate(-199.474 -65.111)">
          <path id="Trazado_827892" data-name="Trazado 827892" d="M88.483-7.876q0,17.542-9.373,28.214T52.934,31.01a33.158,33.158,0,0,1-12.75-2.3,25.784,25.784,0,0,1-9.542-6.761V59.882H6.07V-49.612H28.278l1.435,9.356a27.984,27.984,0,0,1,9.753-8,29.7,29.7,0,0,1,13.3-2.814q16.972,0,26.345,11.476T88.483-9.411ZM63.827-9.411q0-11.183-4.306-18.127T46.348-34.482a20.965,20.965,0,0,0-9.5,1.974,15.22,15.22,0,0,0-6.206,5.628V7.766a14.421,14.421,0,0,0,6.206,5.117,23.675,23.675,0,0,0,9.668,1.754q8.951,0,13.13-6.067t4.18-16.446Zm87.9-21.855-9.035-.219a18.435,18.435,0,0,0-9.035,1.974,13.17,13.17,0,0,0-5.4,5.555V29.475H103.682V-49.612h22.883l1.1,11.695A25.628,25.628,0,0,1,135.98-47.6a20.454,20.454,0,0,1,11.779-3.472,21.216,21.216,0,0,1,3.42.256q1.562.256,3.167.621ZM220.547,17.78a28.992,28.992,0,0,1-10.724,9.795,31.889,31.889,0,0,1-15.115,3.435q-14.439,0-22.588-8.479T163.972-3.782v-45.83h24.572V-3.636q0,10.379,3.251,14.217t10.091,3.837a27.929,27.929,0,0,0,10.133-1.645,16.834,16.834,0,0,0,6.924-4.861V-49.612H243.6V29.475H223.164Zm81.231,13.23q-20.434,0-31.918-10.854T258.375-7.8v-2.924q0-17.762,11.146-29.091t30.652-11.256q18.408,0,28.245,9.758t9.837,26.277V-4H283.792l-.253.439a19.806,19.806,0,0,0,5.7,13.157q5.109,5.043,15.157,5.043a58.185,58.185,0,0,0,14.059-1.462A62.389,62.389,0,0,0,330.4,8.717l6.671,13.157q-5.489,3.874-14.861,6.505A75.392,75.392,0,0,1,301.777,31.01Zm-1.6-65.638q-7.431,0-11.442,4.422a20.442,20.442,0,0,0-4.855,11.732l.169.365h30.06v-1.608q0-6.944-3.293-10.927T300.173-34.628ZM435.023-7.876q0,17.689-9.119,28.287t-26.345,10.6a31.358,31.358,0,0,1-13.975-2.924,27.424,27.424,0,0,1-10.091-8.552l-2.027,9.941H352.61V-84.551h24.572v43.344a27.034,27.034,0,0,1,9.5-7.309,29.96,29.96,0,0,1,12.708-2.558q17.394,0,26.514,11.366t9.119,30.3ZM410.451-9.411q0-11.549-3.926-18.31t-13.384-6.761A20.691,20.691,0,0,0,383.43-32.4a15.447,15.447,0,0,0-6.249,5.957V7.035a14.776,14.776,0,0,0,6.291,5.482,22.872,22.872,0,0,0,9.837,1.9q9.542,0,13.341-5.811t3.8-16.483Zm93.643,38.886a41.046,41.046,0,0,1-2.322-5.7,34.989,34.989,0,0,1-1.393-6.14,31.277,31.277,0,0,1-10.048,9.575,28.048,28.048,0,0,1-14.861,3.8q-14.355,0-22.123-6.4T445.578,7.182q0-11.622,10.344-18.018t30.187-6.4h13.848v-6.286q0-5.7-3.462-8.844t-10.3-3.143q-6,0-9.246,2.522a8.266,8.266,0,0,0-3.251,6.907H449.969l-.169-.439Q449.209-36.528,459.89-43.8T487.8-51.074q16.466,0,26.641,7.163t10.175,20.539V9.3a53.7,53.7,0,0,0,.971,10.452,47.038,47.038,0,0,0,3.082,9.721ZM481.549,15.222a23.491,23.491,0,0,0,11.484-2.778q5.066-2.778,6.924-6.432V-5.171H486.109q-7.853,0-11.864,3.362a10.384,10.384,0,0,0-4.011,8.26,7.736,7.736,0,0,0,3,6.4Q476.229,15.222,481.549,15.222Z" transform="translate(-6.07 84.551)" fill="none" stroke="#fff" stroke-width="1"/>
          <path id="Trazado_827890" data-name="Trazado 827890" d="M75.729-6.74q0,15.014-8.022,24.147T45.3,26.54A28.378,28.378,0,0,1,34.392,24.57a22.068,22.068,0,0,1-8.166-5.787V51.25H5.2V-42.461H24.2l1.229,8.007a23.951,23.951,0,0,1,8.347-6.85A25.414,25.414,0,0,1,45.16-43.712q14.526,0,22.548,9.822T75.729-8.054Zm-21.1-1.314q0-9.571-3.686-15.514T39.667-29.511a17.943,17.943,0,0,0-8.13,1.689,13.026,13.026,0,0,0-5.312,4.817V6.647a12.342,12.342,0,0,0,5.312,4.379,20.262,20.262,0,0,0,8.275,1.5q7.66,0,11.238-5.192T54.627-6.74Zm75.231-18.7-7.733-.188a15.778,15.778,0,0,0-7.733,1.689,11.272,11.272,0,0,0-4.625,4.754v45.73H88.737V-42.461h19.585l.939,10.009a21.934,21.934,0,0,1,7.118-8.289,17.505,17.505,0,0,1,10.081-2.971,18.159,18.159,0,0,1,2.927.219q1.337.219,2.71.532Zm58.9,41.976a24.813,24.813,0,0,1-9.178,8.383,27.292,27.292,0,0,1-12.936,2.94q-12.358,0-19.332-7.257T140.337-3.237V-42.461h21.03V-3.112q0,8.883,2.782,12.167t8.636,3.284a23.9,23.9,0,0,0,8.672-1.408,14.408,14.408,0,0,0,5.926-4.16V-42.461h21.1V25.226H191ZM258.278,26.54q-17.489,0-27.317-9.29T221.132-6.678v-2.5q0-15.2,9.539-24.9T256.9-43.712q15.754,0,24.174,8.351T289.5-12.871v9.446H242.885l-.217.375a16.951,16.951,0,0,0,4.878,11.26q4.372,4.316,12.972,4.316a49.8,49.8,0,0,0,12.033-1.251A53.4,53.4,0,0,0,282.777,7.46l5.709,11.26a41.7,41.7,0,0,1-12.719,5.568A64.524,64.524,0,0,1,258.278,26.54ZM256.9-29.636q-6.36,0-9.792,3.785a17.5,17.5,0,0,0-4.155,10.04l.145.313h25.727v-1.376q0-5.943-2.818-9.352T256.9-29.636ZM372.317-6.74q0,15.139-7.8,24.21T341.964,26.54a26.837,26.837,0,0,1-11.96-2.5,23.471,23.471,0,0,1-8.636-7.319l-1.734,8.508h-17.85v-97.59h21.03v37.1a23.138,23.138,0,0,1,8.13-6.256,25.641,25.641,0,0,1,10.876-2.19q14.887,0,22.692,9.728t7.8,25.93Zm-21.03-1.314q0-9.884-3.36-15.671t-11.454-5.787a17.708,17.708,0,0,0-8.311,1.783,13.221,13.221,0,0,0-5.348,5.1V6.021a12.646,12.646,0,0,0,5.384,4.692,19.576,19.576,0,0,0,8.419,1.626q8.166,0,11.418-4.973T351.287-6.74Zm80.145,33.281a35.13,35.13,0,0,1-1.987-4.879,29.947,29.947,0,0,1-1.192-5.255,26.768,26.768,0,0,1-8.6,8.2,24,24,0,0,1-12.719,3.253q-12.286,0-18.934-5.474T381.35,6.146q0-9.947,8.853-15.42t25.836-5.474h11.852v-5.38a9.7,9.7,0,0,0-2.963-7.569q-2.963-2.69-8.817-2.69-5.131,0-7.913,2.158a7.074,7.074,0,0,0-2.782,5.912H385.108l-.145-.375q-.506-8.57,8.636-14.795t23.885-6.224q14.092,0,22.8,6.131T448.993-20V7.961a45.96,45.96,0,0,0,.831,8.946,40.255,40.255,0,0,0,2.638,8.32Zm-19.3-12.2a20.105,20.105,0,0,0,9.828-2.377,13.714,13.714,0,0,0,5.926-5.505V-4.426H416.039q-6.721,0-10.154,2.878a8.887,8.887,0,0,0-3.433,7.069,6.621,6.621,0,0,0,2.565,5.474A11.184,11.184,0,0,0,412.137,13.028Z" transform="translate(210.775 178.482)" fill="none" stroke="#fff" stroke-width="1"/>
          <path id="Trazado_827891" data-name="Trazado 827891" d="M73.337-6.528q0,14.54-7.768,23.385T43.873,25.7a27.482,27.482,0,0,1-10.568-1.908,21.371,21.371,0,0,1-7.908-5.6V49.632H5.031V-41.12H23.438l1.19,7.755A23.194,23.194,0,0,1,32.711-40a24.612,24.612,0,0,1,11.023-2.332q14.067,0,21.836,9.511T73.337-7.8ZM52.9-7.8q0-9.269-3.569-15.024T38.415-28.579a17.376,17.376,0,0,0-7.873,1.636A12.614,12.614,0,0,0,25.4-22.279V6.437a11.952,11.952,0,0,0,5.144,4.241,19.622,19.622,0,0,0,8.013,1.454q7.418,0,10.883-5.028T52.9-6.528Zm72.855-18.114-7.489-.182a15.28,15.28,0,0,0-7.488,1.636,10.916,10.916,0,0,0-4.479,4.6V24.43H85.935V-41.12H104.9l.91,9.693a21.24,21.24,0,0,1,6.894-8.027,16.953,16.953,0,0,1,9.763-2.878,17.584,17.584,0,0,1,2.834.212q1.295.212,2.624.515ZM182.8,14.737a24.029,24.029,0,0,1-8.888,8.118A26.43,26.43,0,0,1,161.38,25.7q-11.968,0-18.721-7.028T135.9-3.135V-41.12h20.366V-3.014q0,8.6,2.694,11.783t8.363,3.181a23.148,23.148,0,0,0,8.4-1.363,13.952,13.952,0,0,0,5.739-4.029V-41.12H201.9V24.43H184.965ZM250.122,25.7q-16.937,0-26.455-9T214.149-6.467V-8.89q0-14.721,9.238-24.112t25.4-9.33q15.257,0,23.41,8.088t8.153,21.779v9.148H235.215l-.21.363a16.416,16.416,0,0,0,4.724,10.9q4.234,4.18,12.562,4.18a48.226,48.226,0,0,0,11.653-1.212,51.71,51.71,0,0,0,9.9-3.7l5.529,10.9a40.38,40.38,0,0,1-12.317,5.392A62.487,62.487,0,0,1,250.122,25.7Zm-1.33-54.4q-6.159,0-9.483,3.665a16.943,16.943,0,0,0-4.024,9.723l.14.3H260.34v-1.333q0-5.755-2.729-9.057T248.792-28.7ZM360.559-6.528q0,14.661-7.558,23.445T331.165,25.7a25.99,25.99,0,0,1-11.583-2.423,22.73,22.73,0,0,1-8.363-7.088l-1.68,8.239H292.253V-70.078h20.366v35.925a22.407,22.407,0,0,1,7.873-6.058,24.832,24.832,0,0,1,10.533-2.12q14.417,0,21.976,9.42T360.559-7.8ZM340.194-7.8q0-9.572-3.254-15.176t-11.093-5.6a17.149,17.149,0,0,0-8.048,1.727,12.8,12.8,0,0,0-5.179,4.937V5.831a12.247,12.247,0,0,0,5.214,4.544,18.958,18.958,0,0,0,8.153,1.575q7.908,0,11.058-4.816t3.149-13.661Zm77.614,32.23a34.023,34.023,0,0,1-1.925-4.725,29,29,0,0,1-1.155-5.089,25.923,25.923,0,0,1-8.328,7.936,23.247,23.247,0,0,1-12.318,3.15q-11.9,0-18.336-5.3T369.308,5.952q0-9.633,8.573-14.933t25.02-5.3h11.478v-5.21a9.4,9.4,0,0,0-2.869-7.33q-2.869-2.605-8.538-2.605-4.969,0-7.663,2.09a6.851,6.851,0,0,0-2.694,5.725H372.947l-.14-.363q-.49-8.3,8.363-14.328t23.13-6.028q13.647,0,22.081,5.937t8.433,17.024V7.709a44.508,44.508,0,0,0,.8,8.663,38.982,38.982,0,0,0,2.554,8.057ZM399.122,12.616a19.471,19.471,0,0,0,9.518-2.3,13.28,13.28,0,0,0,5.739-5.331V-4.286H402.9q-6.509,0-9.833,2.787a8.606,8.606,0,0,0-3.324,6.846,6.411,6.411,0,0,0,2.485,5.3A10.831,10.831,0,0,0,399.122,12.616Z" transform="translate(110.975 287.167)" fill="none" stroke="#fff" stroke-width="1"/>
        </g>
      </g>
    </g>
    <g id="Grupo_1074891" data-name="Grupo 1074891" transform="translate(-7644 -51)">
      <g id="Grupo_1074890" data-name="Grupo 1074890" clip-path="url(#clip-path-2)">
        <g id="Grupo_1074889" data-name="Grupo 1074889">
          <g id="Grupo_1074888" data-name="Grupo 1074888" clip-path="url(#clip-path-2)">
            <path id="Trazado_828706" data-name="Trazado 828706" d="M122.981,277.115c-46.435-1.63-94.463-7.964-119.322-93.529-7.39-25.435-2.583-44.7,5.528-59.212a88.3,88.3,0,0,1,6.483-9.908l0,0q1.284-1.711,2.593-3.309c18.142-22.248,48.572-30.228,75.542-20.4,15.126,5.513,34.53,13.666,51.831,24.269,34.762,21.3,42.915,45.59,54.273,87.255.977,3.578,1.95,7.59,2.69,11.85.4,2.278.725,4.626.95,7.017,2.517,26.641-7.759,58.525-80.571,55.965" transform="translate(0 14.693)" fill="#171612"/>
            <path id="Trazado_828707" data-name="Trazado 828707" d="M202.593,217.11a54.743,54.743,0,0,1-6.665,12.933c-8.782,12.581-27.065,27.783-64.307,28.764q-2.458.065-4.853.063c-14.229,0-26.778-1.716-38.244-5.219a93.5,93.5,0,0,1-32.013-16.894c-15.954-12.872-29.1-31.7-42.625-61.055a85.392,85.392,0,0,1-8.231-34.923,76.094,76.094,0,0,1,2.572-20.443,88.2,88.2,0,0,1,6.483-9.908q-.865,2-1.666,4.173c-4.865,13.341-8.214,34.563,3.456,59.894,23.737,51.518,51.263,83.1,115.045,81.433,36.038-.947,53.618-15.5,62.017-27.536a50.554,50.554,0,0,0,8.079-18.3c.4,2.278.726,4.626.951,7.017" transform="translate(0.959 18.733)" fill="#5a554d"/>
            <path id="Trazado_828708" data-name="Trazado 828708" d="M89.733,182.974a35.217,35.217,0,0,0,9.611,4.307c26.111,8.308,50.052-5.1,50.052-5.1,1.447-7.15.552-15.277-1.857-18.251a2.624,2.624,0,0,0,.256-2.319l24.03-24.946c-13.665,11.326-30.569,15.031-43.728,22.983h-.006c-3.791,2.291-7.2,4.31-9.7,5.713-3.812,2.14-8.679,2.35-13.446,1.694a65.562,65.562,0,0,1-18.209-5.863S56.813,147.623,51.2,148.076c-4.363.35,19.113,24.862,38.533,34.9" transform="translate(8.596 23.183)" fill="#c04d3a"/>
            <path id="Trazado_828709" data-name="Trazado 828709" d="M125.849,194.815s-7.7-2.213-10.068-4.714l-5.352,12.6,18.221,5.687s.254-11.071-2.8-13.575" transform="translate(18.733 32.249)" fill="#eaad8f"/>
            <path id="Trazado_828710" data-name="Trazado 828710" d="M168.046,232.851l-23.554-52.282a8.022,8.022,0,0,0-3.214.62c-4.57,1.666-10.992,6.255-15.13,8.951-.482.318-.936.608-1.35.862a16.748,16.748,0,0,1-1.746.974c-3.633,1.636-1.561,4.571-1.561,4.571,7.571,2.953,2.49,12.449,6.618,14.8,0,0,1.759,1.02,7.363,3.489s11.25,8.417,16.472,13.293c6.738,6.3,10.969,7.038,13.394,6.462a4.479,4.479,0,0,0,2.71-1.738" transform="translate(20.51 30.63)" fill="#fff"/>
            <path id="Trazado_828711" data-name="Trazado 828711" d="M165.09,232.851l-23.554-52.282a8.022,8.022,0,0,0-3.214.62l24.058,53.4a4.478,4.478,0,0,0,2.71-1.738" transform="translate(23.465 30.63)" fill="#f0e8e0"/>
            <path id="Trazado_828712" data-name="Trazado 828712" d="M146.329,185.353l-.7-1.553a12.582,12.582,0,0,1-7.106,6.582,16.17,16.17,0,0,1-12.943-.791c-.482.318-.935.608-1.349.862a17.573,17.573,0,0,0,14.79,1.2,13.92,13.92,0,0,0,7.307-6.3" transform="translate(21.075 31.18)" fill="#f0e8e0"/>
            <path id="Trazado_828713" data-name="Trazado 828713" d="M135.915,208a.945.945,0,0,0-1.791.558l.66,3.632a.945.945,0,0,0,1.86-.338l-.661-3.632a.963.963,0,0,0-.068-.22" transform="translate(22.75 35.19)" fill="#171612"/>
            <path id="Trazado_828714" data-name="Trazado 828714" d="M132.34,206.27a.945.945,0,0,0-1.791.558l.661,3.631a.945.945,0,1,0,1.859-.338l-.661-3.631a.981.981,0,0,0-.068-.22" transform="translate(22.144 34.897)" fill="#171612"/>
            <path id="Trazado_828715" data-name="Trazado 828715" d="M138.8,210.058a.945.945,0,0,0-1.791.558l.66,3.632a.945.945,0,0,0,1.86-.339l-.661-3.631a.924.924,0,0,0-.068-.22" transform="translate(23.239 35.54)" fill="#171612"/>
            <path id="Trazado_828716" data-name="Trazado 828716" d="M141.614,212.147a.945.945,0,0,0-1.791.558l.66,3.632a.945.945,0,0,0,1.86-.338l-.661-3.632a.981.981,0,0,0-.068-.22" transform="translate(23.717 35.894)" fill="#171612"/>
            <path id="Trazado_828717" data-name="Trazado 828717" d="M144.429,214.542a.946.946,0,0,0-1.792.558l.662,3.632a.944.944,0,1,0,1.857-.339l-.66-3.631a1.045,1.045,0,0,0-.068-.22" transform="translate(24.195 36.301)" fill="#171612"/>
            <path id="Trazado_828718" data-name="Trazado 828718" d="M147.147,217.289a.945.945,0,0,0-1.791.558l.661,3.632a.945.945,0,1,0,1.859-.338l-.661-3.632a.924.924,0,0,0-.068-.22" transform="translate(24.656 36.767)" fill="#171612"/>
            <path id="Trazado_828719" data-name="Trazado 828719" d="M56.325,147.191s-18.941-10.221-29.911-2.321c-20.061,14.447,13.978,42.242,52.918,55.814s51.584,11.721,51.584,11.721,8.462-2.328,5.459-16.039c0,0-22.445-8.534-34.125-17.473S82.608,159,56.325,147.191" transform="translate(3.473 24.068)" fill="#c04d3a"/>
            <path id="Trazado_828720" data-name="Trazado 828720" d="M129.888,198.995c-8.166-1.963-24.809-9.6-44.519-20.42-14.74-8.1-31.741-18.441-34.235-22.028-1.347-1.938-1.687-3.524-1.009-4.712,1.014-1.778,3.935-1.961,5.266-1.949a.592.592,0,0,1,0,1.185c-1.309-.009-3.586.215-4.233,1.351-.537.944.222,2.4.953,3.449,2.012,2.894,16.242,12.005,33.834,21.666,15.148,8.319,34.722,18.022,44.225,20.306Z" transform="translate(8.446 25.427)" fill="#7e231a"/>
            <path id="Trazado_828721" data-name="Trazado 828721" d="M117.95,186.952c-.919,7.207-2.787,13.758-6.859,18.782,0,0,3.486,2.511,6.669.71,2.433-1.375,7.122-12.632,5.335-18.643-2.034-1.111-3.79-1.5-5.145-.849" transform="translate(18.846 31.661)" fill="#7e231a"/>
            <path id="Trazado_828722" data-name="Trazado 828722" d="M75.177,194.742s7.538-2.723,9.731-5.376l6.182,12.216-17.8,6.892s-.993-11.029,1.887-13.732" transform="translate(12.405 32.124)" fill="#eaad8f"/>
            <path id="Trazado_828723" data-name="Trazado 828723" d="M39.448,235.34,59.457,181.6a8.02,8.02,0,0,1,3.248.4c4.67,1.357,11.385,5.507,15.7,7.92.5.285.973.545,1.4.771a16.8,16.8,0,0,0,1.808.855c3.732,1.39,1.862,4.456,1.862,4.456-7.357,3.453-1.653,12.588-5.614,15.206,0,0-1.687,1.135-7.114,3.973S60.085,224.336,55.2,229.551c-6.3,6.734-10.474,7.755-12.932,7.343a4.483,4.483,0,0,1-2.82-1.553" transform="translate(6.692 30.8)" fill="#fff"/>
            <path id="Trazado_828724" data-name="Trazado 828724" d="M39.448,235.34,59.457,181.6a8.02,8.02,0,0,1,3.248.4L42.268,236.894a4.483,4.483,0,0,1-2.82-1.553" transform="translate(6.692 30.8)" fill="#f0e8e0"/>
            <path id="Trazado_828725" data-name="Trazado 828725" d="M54.809,186.515l.594-1.6a12.582,12.582,0,0,0,7.53,6.093,16.167,16.167,0,0,0,12.86-1.654c.5.285.974.544,1.4.77a17.566,17.566,0,0,1-14.677,2.187,13.914,13.914,0,0,1-7.711-5.8" transform="translate(9.298 31.37)" fill="#f0e8e0"/>
            <path id="Trazado_828726" data-name="Trazado 828726" d="M63.855,208.61a.945.945,0,0,1,1.825.437l-.416,3.667a.945.945,0,1,1-1.877-.213l.416-3.668a.93.93,0,0,1,.053-.223" transform="translate(10.752 35.285)" fill="#171612"/>
            <path id="Trazado_828727" data-name="Trazado 828727" d="M67.307,206.648a.945.945,0,0,1,1.825.437l-.416,3.667a.945.945,0,1,1-1.878-.213l.416-3.668a.989.989,0,0,1,.054-.223" transform="translate(11.337 34.952)" fill="#171612"/>
            <path id="Trazado_828728" data-name="Trazado 828728" d="M61.119,210.859a.945.945,0,0,1,1.825.437l-.416,3.667a.945.945,0,0,1-1.878-.213l.418-3.668a.943.943,0,0,1,.053-.223" transform="translate(10.288 35.666)" fill="#171612"/>
            <path id="Trazado_828729" data-name="Trazado 828729" d="M58.446,213.132a.945.945,0,0,1,1.825.437l-.416,3.667a.945.945,0,1,1-1.878-.213l.416-3.668a.932.932,0,0,1,.054-.223" transform="translate(9.834 36.052)" fill="#171612"/>
            <path id="Trazado_828730" data-name="Trazado 828730" d="M55.8,215.709a.945.945,0,0,1,1.825.437l-.416,3.667a.945.945,0,1,1-1.877-.213l.416-3.668a.93.93,0,0,1,.053-.223" transform="translate(9.385 36.489)" fill="#171612"/>
            <path id="Trazado_828731" data-name="Trazado 828731" d="M53.269,218.632a.945.945,0,0,1,1.825.437l-.416,3.667a.945.945,0,1,1-1.878-.213l.418-3.668a.93.93,0,0,1,.053-.223" transform="translate(8.956 36.985)" fill="#171612"/>
            <path id="Trazado_828732" data-name="Trazado 828732" d="M158.6,140.363s17.922-11.915,29.572-5.055c21.3,12.547-10.046,43.347-47.576,60.433s-50.291,16.4-50.291,16.4S81.67,210.6,83.4,196.674c0,0,21.568-10.557,32.379-20.531s17.732-21.61,42.823-35.781" transform="translate(14.109 22.593)" fill="#c04d3a"/>
            <path id="Trazado_828733" data-name="Trazado 828733" d="M124.429,192.163c-2.066.68-4.167,1.363-6.336,2.046-8.4,2.642-17.983,5.41-26.665,7.542l-.032,1.241c7.84-1.911,17.042-4.5,27.053-7.654,1.954-.615,3.949-1.262,5.949-1.921Z" transform="translate(15.505 32.599)" fill="#7e231a"/>
            <path id="Trazado_828734" data-name="Trazado 828734" d="M85.025,198.834c7.952-2.7,23.824-11.832,42.458-24.417,13.935-9.412,29.916-21.275,32.07-25.075,1.164-2.054,1.357-3.664.573-4.785-1.173-1.678-4.1-1.593-5.422-1.459a.593.593,0,0,0,.113,1.18c1.3-.13,3.591-.116,4.339.958.621.89,0,2.406-.634,3.521-1.737,3.066-15.071,13.445-31.7,24.678C112.5,183.109,93.9,194.567,84.644,197.714Z" transform="translate(14.359 24.264)" fill="#7e231a"/>
            <path id="Trazado_828735" data-name="Trazado 828735" d="M86.581,185.7c1.577,7.093,4.038,13.445,8.554,18.074,0,0-3.241,2.819-6.577,1.318-2.549-1.146-8.251-11.926-7.023-18.074,1.924-1.294,3.636-1.84,5.046-1.318" transform="translate(13.803 31.47)" fill="#7e231a"/>
            <path id="Trazado_828736" data-name="Trazado 828736" d="M202.7,60.742a9.415,9.415,0,0,0-13.1,2.381l-.125.177-.977,1.412-1.022,1.453-2.081,2.909c-1.392,1.921-2.812,3.828-4.242,5.709a.32.32,0,0,1-.025.035c-.29.378-.574.753-.873,1.132v0c-2.6,3.4-5.27,6.721-8,9.909-1.645,1.921-3.317,3.8-5.007,5.589l-.644.678c-1.206,1.257-2.423,2.464-3.641,3.6a46.318,46.318,0,0,1-4.586,3.812c-.354.25-.7.48-1.022.681-.6-.356-1.276-.8-1.978-1.281-.794-.55-1.623-1.157-2.46-1.8q-.563-.428-1.126-.878c-.232-.181-.464-.365-.7-.554-2.8-2.253-5.642-4.774-8.445-7.368q-3.633-3.374-7.211-6.941c-.287-.28-.574-.564-.857-.852q-1.04-1.033-2.069-2.084-2.505-2.54-4.969-5.13L125.1,70.739l-1.206-1.3-1.147-1.257-.1-.109c-.211-.225-.428-.448-.654-.662a13.834,13.834,0,0,0-19.064,20.052l1.44,1.366,1.4,1.314,2.8,2.584q2.811,2.567,5.665,5.087c3.812,3.36,7.694,6.668,11.722,9.916,2.488,1.992,5.008,3.96,7.663,5.9q.379.277.763.552c1.426,1.028,2.894,2.047,4.419,3.055,1.172.77,2.384,1.536,3.672,2.291q.879.518,1.816,1.028c.262.144.53.288.8.429q.754.4,1.572.788c.772.364,1.556.724,2.459,1.077.019.009.04.015.058.025.235.089.451.178.7.266l.751.267c.241.084.54.174.812.257l.419.124.287.078.393.1a15.912,15.912,0,0,0,3.055.461c.5.035.956.035,1.428.028.443-.015.91-.036,1.322-.083a19.471,19.471,0,0,0,4.37-.958,22.819,22.819,0,0,0,3.11-1.318l.129-.064c.946-.485,1.788-.985,2.57-1.489a40.836,40.836,0,0,0,4.074-3.048c.8-.681,1.563-1.358,2.285-2.042.4-.378.791-.753,1.172-1.131,1-.985,1.929-1.966,2.835-2.952a144.58,144.58,0,0,0,10-12.424c3.042-4.185,5.893-8.412,8.637-12.68q.728-1.135,1.447-2.274c.15-.232.3-.467.442-.7q1.086-1.732,2.149-3.471c.66-1.081,1.312-2.163,1.963-3.256l.973-1.645.99-1.706A9.451,9.451,0,0,0,202.7,60.742m-46.934,40.284c-.159.051-.244.051-.177,0a.258.258,0,0,1,.03-.018.194.194,0,0,1,.051-.026,1.233,1.233,0,0,1,.144-.05,2.433,2.433,0,0,1,.412-.1,3.537,3.537,0,0,1-.461.186" transform="translate(16.731 10.02)" fill="#314fa5"/>
            <path id="Trazado_828737" data-name="Trazado 828737" d="M146.588,93.146a14.867,14.867,0,0,1-3.647,3.371c-3.253,2.023-7.224,2.029-9.708-1.16-2.581-3.322-3.482-8.2-3.839-12.284a33.4,33.4,0,0,1-.015-5.641c.283.288.571.572.857.853a31.54,31.54,0,0,0-.03,3.191c.161,4.054.956,8.616,3,12.183,1.129,1.973,2.9,3.474,5.273,3.413a9.1,9.1,0,0,0,5.579-2.538,17.311,17.311,0,0,0,1.834-1.942c.233.189.464.373.7.554" transform="translate(21.929 13.136)" fill="#5880eb"/>
            <path id="Trazado_828738" data-name="Trazado 828738" d="M140.013,113.582c-.271-.14-.54-.284-.8-.427.744-2.562,1.305-5.615.021-7.8-2.253-3.834-7.423-.571-9.928,1.425-.256-.182-.509-.366-.763-.552q.646-.532,1.333-1.011c2.609-1.825,7.013-4.068,9.641-1.043,2.139,2.463,1.33,6.448.5,9.409" transform="translate(21.806 17.42)" fill="#5880eb"/>
            <path id="Trazado_828739" data-name="Trazado 828739" d="M171.5,81.677c-.129,4.019-.9,8.911-4.252,11.588-3.177,2.533-7.138.98-9.466-1.908a11.831,11.831,0,0,1-1.041-1.51q.325-.339.643-.677a10.81,10.81,0,0,0,1.67,2.255c1.516,1.565,3.708,2.735,5.921,2.05a7.031,7.031,0,0,0,3.918-3.8c1.88-3.764,1.8-8.2,1.639-12.3-.049-1.236-.1-2.473-.138-3.705v0c.3-.378.584-.753.874-1.132a.3.3,0,0,0,.025-.033c.036,3.055.3,6.116.207,9.174" transform="translate(26.59 12.3)" fill="#5880eb"/>
            <path id="Trazado_828740" data-name="Trazado 828740" d="M188.353,79.855c-.146.232-.294.467-.442.7-3.15-1.626-7.465,1.707-9.708,3.825a38.069,38.069,0,0,0-7.093,9.289,63.127,63.127,0,0,0-6.116,17.216c-.381.378-.768.753-1.172,1.132,1.6-7.663,3.935-15.208,8.3-21.772a32.427,32.427,0,0,1,8.938-9.351c2.17-1.413,5.045-2.133,7.294-1.037" transform="translate(27.791 13.456)" fill="#5880eb"/>
            <path id="Trazado_828741" data-name="Trazado 828741" d="M158.5,113.219a22.961,22.961,0,0,1-3.11,1.319,19.535,19.535,0,0,1-4.37.958c-.412.047-.878.068-1.322.083-.473.006-.928.006-1.428-.028a16.1,16.1,0,0,1-3.055-.461l-.393-.1-.288-.078-.418-.124c-.271-.083-.571-.173-.812-.257l-.751-.266c-.25-.089-.467-.177-.7-.266-.019-.009-.04-.015-.058-.025a17.639,17.639,0,0,1,9.082-2.577,13.754,13.754,0,0,1,7.624,1.822" transform="translate(24.054 18.897)" fill="#1c2b74"/>
            <path id="Trazado_828742" data-name="Trazado 828742" d="M148.8,94.325a11.116,11.116,0,0,0-3.848,5.268c-.234.669.827.957,1.059.292a9.829,9.829,0,0,1,3.344-4.612c.557-.421.009-1.377-.554-.949" transform="translate(24.584 15.983)" fill="#1c2b74"/>
            <path id="Trazado_828743" data-name="Trazado 828743" d="M144.181,96.385a3.877,3.877,0,0,1,3.362-.166c.643.274,1.2-.673.554-.949a5.066,5.066,0,0,0-4.47.166c-.625.331-.07,1.28.554.949" transform="translate(24.318 16.087)" fill="#1c2b74"/>
            <path id="Trazado_828744" data-name="Trazado 828744" d="M140.915,165.635a44.522,44.522,0,0,1-12.634,9.158c-.288.145-.574.284-.864.416a53.031,53.031,0,0,1-8.74,3.184,67.936,67.936,0,0,1-31.192.746c-.384-.078-.768-.16-1.15-.246a68.82,68.82,0,0,1-8.393-2.455,59.289,59.289,0,0,1-9.965-4.687q-.656-.382-1.3-.794a49.9,49.9,0,0,1-4.542-3.214c2.874-12.824,4.523-19.231,5.238-23.884.061-.393.117-.772.161-1.14.582-4.519.208-7.609-.8-14.362a147.8,147.8,0,0,0-6.17-23.552c-.108-.319-.215-.637-.329-.956-.277-.807-.56-1.62-.854-2.427-.145-.4-.29-.8-.439-1.2-1.084-2.959-2.25-5.909-3.473-8.749-5.32-12.4-6.177-26.375,6.621-30.647,8.365-2.788,15.632-4.49,15.632-4.49l29.427,2.436a72.6,72.6,0,0,1,11.986,2.105c.327.1.649.2.954.3,8.349,2.786,8.109,7.54,9.991,17.488,2.563,13.546,9.978,26.049,8.147,32.642-.069.24-.138.478-.218.715-.091.288-.192.571-.3.852a34.1,34.1,0,0,1-6.684,10.255c-.347.372-.552.573-.552.573l.011.089c.021.221.047.454.078.7.116.937.277,2.042.485,3.3.3,1.836.642,3.69,1.014,5.531.08.374.154.75.237,1.124a210.967,210.967,0,0,0,7.806,27.713q.407,1.744.8,3.473" transform="translate(8.789 9.557)" fill="#314fa5"/>
            <path id="Trazado_828745" data-name="Trazado 828745" d="M117.44,72.615a68.762,68.762,0,0,0,5.293,17.236c2.593,6.073,5.294,12.516,4.174,19.26-.144.864,1.18,1.236,1.324.365,1.055-6.357-.979-12.482-3.436-18.276-2.609-6.152-5.082-12.291-6.031-18.951-.124-.871-1.447-.5-1.324.365" transform="translate(19.921 12.172)" fill="#1c2b74"/>
            <path id="Trazado_828746" data-name="Trazado 828746" d="M127.8,110.34c-.091.287-.192.571-.3.852a21.727,21.727,0,0,1-12.784-11.832c-4.666-10.431-2.4-22.031-.1-32.749.122-.577,1.007-.33.882.244-2.152,10.052-4.33,20.831-.512,30.774,2.225,5.8,7,10.882,12.811,12.71" transform="translate(19 11.244)" fill="#5880eb"/>
            <path id="Trazado_828747" data-name="Trazado 828747" d="M85.736,111.436c-1.776,10.929-10.114,20.706-19.583,25.956.061-.393.116-.772.161-1.142a39.645,39.645,0,0,0,12.153-10.869c5.713-7.794,10.882-21.079.582-27.476-6.42-3.992-13.452-2.735-19.708.43-.106-.318-.214-.635-.326-.952a26.422,26.422,0,0,1,8.646-2.769,17.988,17.988,0,0,1,13.285,3.507c4.138,3.26,5.621,8.191,4.791,13.315" transform="translate(10.011 16.025)" fill="#5880eb"/>
            <path id="Trazado_828748" data-name="Trazado 828748" d="M120.734,124.866a36.405,36.405,0,0,0-5.661,31.538,37.382,37.382,0,0,0,2.87,7.224c-.287.145-.572.284-.862.416a38.476,38.476,0,0,1-3.543-25.5,37.279,37.279,0,0,1,8.193-16.383c.078.375.154.751.237,1.125-.429.517-.84,1.04-1.235,1.583" transform="translate(19.125 20.723)" fill="#5880eb"/>
            <path id="Trazado_828749" data-name="Trazado 828749" d="M85.015,163.724c-.386-.078-.771-.16-1.152-.246a32.838,32.838,0,0,0-17.186-15.352c-.54-.212-.305-1.094.246-.883a33.806,33.806,0,0,1,17.886,16.071c.069.136.136.27.206.409" transform="translate(11.259 24.973)" fill="#5880eb"/>
            <path id="Trazado_828750" data-name="Trazado 828750" d="M98.634,122.388a34.039,34.039,0,0,0-12.55,12.795c-2.27,4.3-5.014,11.377-.711,15.335,4.884,4.494,11.784.654,15.782-3.027,4.546-4.185,8.7-10.569,8.6-16.962a10.144,10.144,0,0,0-3.653-7.888c-2.287-1.715-5-1.391-7.466-.253-.535.247-.07,1.036.462.791,2.473-1.142,5.146-1.232,7.164.814a9.772,9.772,0,0,1,2.56,7.323c-.263,5.57-3.725,11.041-7.607,14.856-3.705,3.642-10.6,8.133-15.353,3.542-3.847-3.715-.908-10.558,1.207-14.429A33.207,33.207,0,0,1,99.1,123.179c.5-.31.041-1.1-.462-.791" transform="translate(14.098 20.602)" fill="#5880eb"/>
            <path id="Trazado_828751" data-name="Trazado 828751" d="M115.82,80.627c-5.689,10.355-18.451,8.282-27.216,3.48A53.4,53.4,0,0,1,66.115,60.086c-.25-.529.54-1,.791-.461a52.635,52.635,0,0,0,9.94,14.383c6.812,6.989,17,14.023,27.241,13.217a13.817,13.817,0,0,0,11.963-9.274c2.13-5.631,1.409-11.762.668-17.588.33.1.65.2.956.3.842,6.683,1.514,13.829-1.853,19.962" transform="translate(11.208 10.075)" fill="#5880eb"/>
            <path id="Trazado_828752" data-name="Trazado 828752" d="M99.557,92.046C95.58,92.8,90.091,95.5,89.179,99.92c-.859,4.156,3.8,5.895,7.143,5.694,3.95-.236,8.685-2.718,9.854-6.782,1.137-3.945-2.87-6.969-6.5-6.8-.586.027-.589.943,0,.916,3.676-.168,7.152,3.148,5.1,6.832-1.716,3.079-5.5,4.88-8.927,4.939-3.592.063-7.566-2.463-5-6.387,1.949-2.98,5.546-4.752,8.951-5.4.578-.11.333-.993-.243-.883" transform="translate(15.111 15.611)" fill="#5880eb"/>
            <path id="Trazado_828753" data-name="Trazado 828753" d="M73.148,139.557c-2.576,9.578-4.7,19.2-6.394,28.988q-.658-.382-1.3-.794c1.683-9.644,3.785-19.124,6.325-28.563,3.6-13.367-12.556-62.523-12.72-63.021a.709.709,0,0,1,1.346-.444c.671,2.04,16.449,50.058,12.742,63.834" transform="translate(10.013 12.763)" fill="#1c2b74"/>
            <path id="Trazado_828754" data-name="Trazado 828754" d="M115.337,152.641a60.6,60.6,0,0,1-19.992,2.606A92.359,92.359,0,0,1,75,152.48a.724.724,0,1,1,.389-1.4A90.885,90.885,0,0,0,95.408,153.8c10.074.213,24-1.452,33.124-10.589a.725.725,0,1,1,1.026,1.023,35.155,35.155,0,0,1-14.222,8.407" transform="translate(12.634 24.258)" fill="#1c2b74"/>
            <path id="Trazado_828755" data-name="Trazado 828755" d="M124.743,114.2c.021.221.049.454.081.7a38.8,38.8,0,0,1-15.708-.177,35.728,35.728,0,0,0-22.509,3.338.616.616,0,0,1-.306.083.626.626,0,0,1-.54-.31.619.619,0,0,1,.23-.846,36.379,36.379,0,0,1,23.364-3.481,36.864,36.864,0,0,0,15.932.034c-.347.372-.552.574-.552.574,0,.027.006.055.009.085" transform="translate(14.534 19.149)" fill="#1c2b74"/>
            <path id="Trazado_828756" data-name="Trazado 828756" d="M103.213,77.155c-7.549,0-22.952-10.811-23.6-11.272a.62.62,0,0,1,.715-1.013c.157.111,15.732,11.045,22.889,11.045,6.847,0,8.365-7.48,8.38-7.556a.619.619,0,0,1,1.216.234c-.016.085-1.737,8.562-9.6,8.562" transform="translate(13.461 10.985)" fill="#1c2b74"/>
            <path id="Trazado_828757" data-name="Trazado 828757" d="M200.042,65.573s-4.117,10.044-9.724,11.106c-4.721.895-11.086-7.508-11.086-7.508-2.387-4.04-2.5-6.207-2.659-10.413s6.875-7.3,6.875-7.3,7.958-14.8,10.7-15.532-3.131,13.964-3.131,13.964a2.7,2.7,0,0,1,2.581-.085c2.066.917,6.564,4.909,8.26,7.858,1.517,2.639-1.816,7.907-1.816,7.907" transform="translate(29.954 6.091)" fill="#eaad8f"/>
            <path id="Trazado_828758" data-name="Trazado 828758" d="M178.31,58.623c3.222-.685,7.316-1.248,9.872-3.522.945-.841,1.874-2.311,1.211-3.585-.642-1.235-2.385-1.4-3.577-1.657-.573-.125-.818.756-.242.881,1.228.268,3.172.36,2.99,2-.168,1.505-1.806,2.366-3.057,2.922a37.256,37.256,0,0,1-7.439,2.085c-.574.123-.331,1,.243.881" transform="translate(30.152 8.456)" fill="#b4665e"/>
            <path id="Trazado_828759" data-name="Trazado 828759" d="M186.958,53.547a26.132,26.132,0,0,0,10.672,8.238c.54.228.777-.655.243-.88a24.979,24.979,0,0,1-10.127-7.819c-.353-.46-1.146,0-.788.461" transform="translate(31.7 8.973)" fill="#b4665e"/>
            <path id="Trazado_828760" data-name="Trazado 828760" d="M189.421,57.993a11.054,11.054,0,0,0-4.164,9.97c.057.579.971.585.913,0a10.235,10.235,0,0,1,3.9-9.324c.456-.37-.193-1.013-.646-.646" transform="translate(31.417 9.819)" fill="#b4665e"/>
            <path id="Trazado_828761" data-name="Trazado 828761" d="M189.1,55.711a20.076,20.076,0,0,1,4.421-6.2c.45-.379-.2-1.022-.646-.646a20.734,20.734,0,0,0-4.564,6.383c-.275.518.512.98.788.461" transform="translate(31.936 8.271)" fill="#b4665e"/>
            <path id="Trazado_828762" data-name="Trazado 828762" d="M191.605,58.431a24.915,24.915,0,0,1,4.47-6.4c.4-.427-.24-1.073-.646-.646a25.742,25.742,0,0,0-4.613,6.587c-.251.528.536.992.788.461" transform="translate(32.362 8.693)" fill="#b4665e"/>
            <path id="Trazado_828763" data-name="Trazado 828763" d="M194.364,59.412l-.128.2.787.461a13.237,13.237,0,0,1,3.586-5.035c.444-.386-.2-1.029-.646-.646a13.738,13.738,0,0,0-3.728,5.22.456.456,0,0,0,.787.461c.043-.065.085-.132.129-.2.32-.495-.469-.952-.788-.461" transform="translate(32.943 9.207)" fill="#b4665e"/>
            <path id="Trazado_828764" data-name="Trazado 828764" d="M188.507,48.063a11.485,11.485,0,0,0-1.73,3.553.456.456,0,0,0,.88.242,10.757,10.757,0,0,1,1.639-3.335c.337-.483-.454-.94-.788-.461" transform="translate(31.682 8.119)" fill="#b4665e"/>
            <path id="Trazado_828765" data-name="Trazado 828765" d="M74.691,63.784a12.534,12.534,0,0,0-17.059,2.752c-.4.53-.763,1.006-1.13,1.512l-1.1,1.488c-.731.994-1.446,1.994-2.166,2.993a.122.122,0,0,1-.02.025c-.2.278-.4.559-.6.84-.033.044-.062.088-.092.131-1.194,1.67-2.356,3.357-3.53,5.042-1.407,2.018-2.769,4.067-4.142,6.117l-2.043,3.088L40.8,90.888l-.041.064q-.3.467-.594.932-2.27,3.565-4.473,7.223c-.152.248-.3.5-.451.749q-1.137,1.9-2.252,3.826c-1.26,2.2-2.51,4.422-3.725,6.739-.6,1.161-1.209,2.342-1.8,3.56-.168.344-.333.69-.5,1.04-.116.243-.229.488-.345.736-.309.666-.615,1.351-.918,2.063-.287.678-.575,1.38-.863,2.133s-.573,1.546-.855,2.459c-.116.381-.235.778-.347,1.213-.167.607-.324,1.288-.47,2.108a18.659,18.659,0,0,0-.273,2.654l0,.206v.236l.009.471c0,.186.012.246.015.351l.025.289.049.581.033.288.035.258c.048.337.1.677.164,1.016.061.31.126.608.192.912s.145.57.218.843l.111.407.06.2.057.186.242.742c.08.253.166.46.25.691.166.468.338.883.512,1.3a39.087,39.087,0,0,0,2.186,4.371c.135.234.269.468.4.7,1.081,1.835,2.192,3.5,3.321,5.093.161.225.323.451.483.674.145.2.287.4.43.589,1.492,2.034,3.027,3.959,4.576,5.827.095.118.192.233.289.35.119.143.24.283.359.426,3.2,3.785,6.5,7.337,9.888,10.782.6.613,1.207,1.216,1.821,1.819q.365.365.743.73c.921.908,1.855,1.8,2.787,2.7q1.367,1.283,2.746,2.551c.463.421.931.836,1.4,1.253l.711.632.739.644a8.357,8.357,0,0,0,12.211-11.267l-.117-.154-4.188-5.665q-.565-.756-1.121-1.514c-.174-.236-.347-.473-.522-.706q-1.279-1.746-2.54-3.494c-2.434-3.364-4.821-6.737-7.069-10.1-.175-.263-.351-.53-.528-.8l-.358-.544c-.561-.841-1.1-1.683-1.634-2.523-.171-.269-.338-.539-.505-.809-.484-.78-.958-1.559-1.418-2.33-.552-.931-1.071-1.86-1.557-2.763s-.929-1.784-1.308-2.617c-.271-.609-.517-1.2-.7-1.709.08-.177.172-.379.273-.594.175-.367.375-.773.592-1.192.435-.843.922-1.758,1.447-2.681s1.08-1.876,1.655-2.829c.533-.889,1.083-1.787,1.642-2.686.168-.27.338-.543.509-.813q.719-1.149,1.462-2.3c1.247-1.95,2.531-3.905,3.831-5.859s2.624-3.911,3.946-5.872l2.6-3.821.508-.747.9-1.314L69.8,92.923l4.066-5.883,4.025-5.848.011-.015a12.5,12.5,0,0,0-3.212-17.393M46.138,128.541l0,.062.006.127,0,.07a16.737,16.737,0,0,1-.094-.37c0-.041-.013-.085-.021-.129l-.006-.033,0-.018v-.033c0-.021,0-.053.009-.036s.012,0,.016.016a.457.457,0,0,1,.037.122l.006.033.013.061c.009.041.015.085.021.126" transform="translate(3.882 10.448)" fill="#314fa5"/>
            <path id="Trazado_828766" data-name="Trazado 828766" d="M50.188,80.062c-1.86,5.022-6.931,10.058-12.533,10.232q.295-.467.6-.932c5.029-.5,9.478-5.142,11.142-9.694a14.7,14.7,0,0,0,.627-7.734c.03-.043.06-.087.092-.131.2-.281.4-.561.6-.84a15.74,15.74,0,0,1-.523,9.1" transform="translate(6.388 12.038)" fill="#5880eb"/>
            <path id="Trazado_828767" data-name="Trazado 828767" d="M61.045,94.833l-.508.747a7.738,7.738,0,0,0-7.212-1.69c-3.344.918-5.744,4-6.63,7.247-1.181,4.341-.041,8.483,2,12.294-.171.27-.342.543-.509.813-2.659-4.825-4.076-10.156-1.564-15.435A10.246,10.246,0,0,1,54.288,92.8a8.627,8.627,0,0,1,6.757,2.031" transform="translate(7.686 15.732)" fill="#5880eb"/>
            <path id="Trazado_828768" data-name="Trazado 828768" d="M50.727,128.519c-.743.234-1.483.447-2.211.641-6.089,1.621-13.8,3.17-18.412,7.827l-.483-.675c3.758-3.7,9.341-5.612,14.4-6.916,1.95-.5,4.076-1.034,6.2-1.685.167.269.335.54.505.808" transform="translate(5.025 21.665)" fill="#5880eb"/>
            <path id="Trazado_828769" data-name="Trazado 828769" d="M60.32,146.124a11.274,11.274,0,0,1-2.2,1.211c-2.847,1.159-5.923.747-7.837-1.8-2.781-3.7-3.915-10.9-.622-14.507.177.267.352.533.528.8-2.971,3.511-1.711,10.48,1.225,13.679,2.318,2.528,5.869,1.636,8.385-.083.174.234.347.471.522.708" transform="translate(8.083 22.227)" fill="#5880eb"/>
            <path id="Trazado_828770" data-name="Trazado 828770" d="M47.414,155.27q-.377-.365-.743-.73a10.711,10.711,0,0,0-4.632-11.154,10.075,10.075,0,0,0-7.077-1.447c-.119-.143-.239-.283-.359-.426-.1-.117-.194-.233-.288-.35a10.926,10.926,0,0,1,8.218,1.482,11.649,11.649,0,0,1,4.881,12.624" transform="translate(5.821 23.905)" fill="#5880eb"/>
            <path id="Trazado_828771" data-name="Trazado 828771" d="M36.894,105.178a9.434,9.434,0,0,1-10.824,5.137c.116-.249.229-.494.345-.736a8.255,8.255,0,0,0,3.548.069,8.794,8.794,0,0,0,6.659-6.351A10.462,10.462,0,0,0,34.7,94.413c.147-.25.3-.5.45-.749,2.5,3.351,3.741,7.255,1.747,11.514" transform="translate(4.423 15.889)" fill="#5880eb"/>
            <path id="Trazado_828772" data-name="Trazado 828772" d="M61.729,93.88a.569.569,0,0,0,.432-.247C65.916,88.164,76.3,74.278,76.4,74.139a.572.572,0,1,0-.917-.685c-.1.139-10.5,14.044-14.268,19.532a.572.572,0,0,0,.511.895" transform="translate(10.368 12.422)" fill="#1c2b74"/>
            <path id="Trazado_828773" data-name="Trazado 828773" d="M22.889,120.3c0,.185.013.246.019.35l.021.289.051.58.03.289.037.257c.048.34.1.68.163,1.018.061.309.126.608.194.911s.142.572.216.847l.112.407.058.2.057.186.242.739c.08.253.164.462.249.694.167.466.339.881.512,1.3a39.913,39.913,0,0,0,2.185,4.371q.2.353.407.7c.57-9.162-1.539-15.125-3.818-18.814-.165.606-.324,1.289-.47,2.105a18.575,18.575,0,0,0-.27,2.655l0,.206v.236Z" transform="translate(3.882 19.445)" fill="#1c2b74"/>
            <path id="Trazado_828774" data-name="Trazado 828774" d="M43.844,120.223a.49.49,0,0,0,.267-.889,18.159,18.159,0,0,0-7.794-3.011.49.49,0,0,0-.088.975,17.5,17.5,0,0,1,7.316,2.834.485.485,0,0,0,.3.09" transform="translate(6.07 19.733)" fill="#1c2b74"/>
            <path id="Trazado_828775" data-name="Trazado 828775" d="M42.676,119.96a.515.515,0,0,0,.159-.033.49.49,0,0,0,.281-.633,11.908,11.908,0,0,0-2.777-3.815.49.49,0,1,0-.657.726,11.115,11.115,0,0,1,2.521,3.441.49.49,0,0,0,.474.313" transform="translate(6.704 19.569)" fill="#1c2b74"/>
            <path id="Trazado_828776" data-name="Trazado 828776" d="M64.409,148.108a42.512,42.512,0,0,1,6.473.422c2.6.471,3.36,1.416,3.36,1.416l.28,4.8a19.229,19.229,0,0,1,6.08.751c3.086.942,5.286,3.5,6.686,4.512s-1.062,2.476-3.614,1.505a20.649,20.649,0,0,0-5.78-1.37,19.23,19.23,0,0,1,4.943,2.3c1.773,1.347,5.683,3.686,5.305,5.24s-4.068-.32-6.692-1.157-3.723-1.6-6.007-1.809a14.855,14.855,0,0,1,3.652,2.358c1.147,1.208,3.427,3.328,3.969,4.5s-2.495,1.478-4.9-.037-3.394-3.412-5.16-3.289a34.383,34.383,0,0,1,2.468,2.88c.91,1.256,1.891,5.04.545,5.445s-4.5-4.084-6.723-4.817a113.362,113.362,0,0,1-11.595-4.7,12.88,12.88,0,0,1-6.318-6.517,2.9,2.9,0,0,1,.048-2.439,18.689,18.689,0,0,1,12.982-9.991" transform="translate(8.674 25.125)" fill="#eaad8f"/>
            <path id="Trazado_828777" data-name="Trazado 828777" d="M91.766,6.153S75.169,2.412,68.718,13,69.78,40.164,69.78,40.164s-.6,4.309-9.261,7.812-4.634,17.387,4.3,15.437c0,0,3.179,12.747,12.763,5.558s24.083-5.16,24.083-5.16,5.407,4.607,11.673,1.474,1.843-7.925,1.843-7.925,6.5,2.923,10.328-3.31c4.067-6.615-6.8-11.56-7.748-14.936-3.429-12.258,1.367-9.655,6.107-16.425,5.787-8.267-5.217-15.116-10.039-8.976,0,0,7.226-7.231-1.082-12.4-7.591-4.724-20.983,4.842-20.983,4.842" transform="translate(9.451 0)" fill="#171612"/>
            <path id="Trazado_828778" data-name="Trazado 828778" d="M103.195,27.181s2.345-.036,3.1,2.884-.229,8.025-3.294,7.728.2-10.612.2-10.612" transform="translate(17.25 4.611)" fill="#c6695d"/>
            <path id="Trazado_828779" data-name="Trazado 828779" d="M97.478,40.75A6.523,6.523,0,1,1,104,47.272a6.53,6.53,0,0,1-6.523-6.522m1.181,0A5.342,5.342,0,1,0,104,35.408a5.348,5.348,0,0,0-5.342,5.342" transform="translate(16.536 5.806)" fill="#fff"/>
            <line id="Línea_380" data-name="Línea 380" y2="0.002" transform="translate(114.605 55.678)" fill="#eaad8f"/>
            <path id="Trazado_828780" data-name="Trazado 828780" d="M77.684,59.795s4.838,7.227,13.652,7.6c11.2.468,11.974-4.417,11.974-4.417a20.975,20.975,0,0,1-1.344-4.483c-.111-.6-.2-1.214-.277-1.854a51.015,51.015,0,0,1-.276-5.9q0-.784.014-1.626v-.065C93.6,48.015,87,45.261,82.146,40.058l-1.216-.567-.82-.385-.1.461.291,1.4c1.386,6.607.443,12.292-2.62,18.823" transform="translate(13.178 6.634)" fill="#eaad8f"/>
            <path id="Trazado_828781" data-name="Trazado 828781" d="M86.537,44.482c1.986,3.484,6.39,9.554,13.65,11.243a51.015,51.015,0,0,1-.276-5.9c0-.522,0-1.066.014-1.625-.149.033-.3.061-.456.087-4.136.7-8.879-.987-12.932-3.807" transform="translate(14.68 7.546)" fill="#171612"/>
            <path id="Trazado_828782" data-name="Trazado 828782" d="M76.639,58.935s1.022-9.471,2.577-9.646,7.037,6.026,14.123,5.621,8.612-5.429,10.147-3.372,2,9.079,2,9.079-.971,6.276-8.942,6.765-18.494-5.744-19.9-8.447" transform="translate(13.001 8.361)" fill="#314fa5"/>
            <path id="Trazado_828783" data-name="Trazado 828783" d="M80.379,50.624c-1.862,3.143-2.351,6.859-2.364,10.457a.606.606,0,0,0,1.211,0c.012-3.388.443-6.883,2.2-9.846a.606.606,0,0,0-1.046-.611" transform="translate(13.235 8.539)" fill="#5880eb"/>
            <path id="Trazado_828784" data-name="Trazado 828784" d="M83.328,52.523a27.561,27.561,0,0,0-1.887,10.953.606.606,0,0,0,1.211,0A26.7,26.7,0,0,1,84.5,52.845c.3-.718-.873-1.032-1.167-.322" transform="translate(13.816 8.842)" fill="#5880eb"/>
            <path id="Trazado_828785" data-name="Trazado 828785" d="M86.871,54.01A68.02,68.02,0,0,0,85.829,65.1a.606.606,0,0,0,1.211,0,66.022,66.022,0,0,1,1-10.763c.135-.761-1.032-1.089-1.167-.322" transform="translate(14.56 9.088)" fill="#5880eb"/>
            <path id="Trazado_828786" data-name="Trazado 828786" d="M90.28,54.807q.021,5.883.041,11.765a.606.606,0,0,0,1.211,0q-.021-5.883-.041-11.765a.606.606,0,0,0-1.211,0" transform="translate(15.315 9.198)" fill="#5880eb"/>
            <path id="Trazado_828787" data-name="Trazado 828787" d="M93.914,67.1q-.372,0-.759-.015c-8.711-.349-16.421-7.922-16.745-8.244a.609.609,0,0,1,.859-.863c.076.075,7.7,7.561,15.935,7.89,9.047.356,11.548-6.117,11.65-6.393a.609.609,0,0,1,1.144.418c-.027.075-2.738,7.207-12.084,7.207" transform="translate(12.932 9.806)" fill="#5880eb"/>
            <path id="Trazado_828788" data-name="Trazado 828788" d="M94.192,54.109a40.015,40.015,0,0,1,1.642,11.357.605.605,0,0,0,1.209,0,41.161,41.161,0,0,0-1.684-11.679.606.606,0,0,0-1.167.322" transform="translate(15.974 9.052)" fill="#5880eb"/>
            <path id="Trazado_828789" data-name="Trazado 828789" d="M97.439,52.262a28.8,28.8,0,0,1,2.1,10.668.606.606,0,0,0,1.211,0,29.736,29.736,0,0,0-2.139-10.99c-.287-.715-1.457-.4-1.167.322" transform="translate(16.522 8.743)" fill="#5880eb"/>
            <path id="Trazado_828790" data-name="Trazado 828790" d="M70.855,34.1c.16,4.169,3.886,9.138,9.344,9.08h.146c.1.236.208.467.324.7.049.1.1.206.153.308a.174.174,0,0,0,.016.028c3.668,6.951,13.92,10.73,19.382,10.669a12.45,12.45,0,0,0,3.662-.619c5.737-1.478,6.518-9.337,5.383-15.278a22.967,22.967,0,0,0-.609-2.438l-.05-.156s1.619-8.432,1.932-12.1c.6-7.1-3.724-14.126-19.276-14.942S72.364,18.3,71.471,23.447c-.151.857.215,5.916,1.094,6.7-1.441.8-1.764,2.547-1.71,3.949" transform="translate(12.019 1.579)" fill="#eaad8f"/>
            <path id="Trazado_828791" data-name="Trazado 828791" d="M91.585,29.894c-.033,1.073.393,1.957.951,1.973s1.035-.84,1.067-1.912-.393-1.956-.95-1.973-1.036.84-1.068,1.912" transform="translate(15.536 4.747)" fill="#171612"/>
            <path id="Trazado_828792" data-name="Trazado 828792" d="M94.824,28.478a.284.284,0,0,0,.016-.506c-.115-.063-2.839-1.531-4.936.284a.284.284,0,1,0,.372.429c1.8-1.559,4.266-.229,4.29-.215a.282.282,0,0,0,.257.008" transform="translate(15.235 4.64)" fill="#171612"/>
            <path id="Trazado_828793" data-name="Trazado 828793" d="M99.575,30.27c-.032,1.073.393,1.957.951,1.973s1.035-.84,1.068-1.912-.394-1.957-.951-1.973-1.035.84-1.068,1.912" transform="translate(16.892 4.811)" fill="#171612"/>
            <path id="Trazado_828794" data-name="Trazado 828794" d="M103.23,29.292a.293.293,0,0,0,.144-.1.285.285,0,0,0-.058-.4c-.106-.078-2.6-1.9-4.93-.387a.284.284,0,1,0,.311.476c2-1.3,4.256.351,4.279.367a.287.287,0,0,0,.255.043" transform="translate(16.668 4.717)" fill="#171612"/>
            <path id="Trazado_828795" data-name="Trazado 828795" d="M78.843,38.548h.146c.1.236.208.468.324.7.049.1.1.2.153.306a.254.254,0,0,0,.016.029,5.031,5.031,0,0,0,2.074-.915,3.978,3.978,0,0,0,1.066-1.247.564.564,0,0,0-.987-.544,3.033,3.033,0,0,1-1.3,1.226,4,4,0,0,1-.971.345,4.6,4.6,0,0,1-.524.095" transform="translate(13.375 6.207)" fill="#c6695d"/>
            <g id="Grupo_1074884" data-name="Grupo 1074884" transform="translate(118.066 38.129)" opacity="0.5">
              <g id="Grupo_1074883" data-name="Grupo 1074883">
                <g id="Grupo_1074882" data-name="Grupo 1074882" clip-path="url(#clip-path-4)">
                  <path id="Trazado_828796" data-name="Trazado 828796" d="M100.943,33.962c.035.619,1.415,1.059,3.217,1.075a22.685,22.685,0,0,0-.609-2.438c-1.544.257-2.64.8-2.607,1.363" transform="translate(-100.942 -32.599)" fill="#c6695d"/>
                </g>
              </g>
            </g>
            <path id="Trazado_828797" data-name="Trazado 828797" d="M74.215,36.53c.353.247.7.5,1.064.732a5.339,5.339,0,1,0,3-.618,1.288,1.288,0,0,1-.779-1.2q.151-.007.305-.007a6.543,6.543,0,1,1-3.593,1.089" transform="translate(12.093 6.012)" fill="#fff"/>
            <path id="Trazado_828798" data-name="Trazado 828798" d="M96.83,41.506a1.944,1.944,0,0,1-1.184-.523.327.327,0,0,1,.468-.457,1.329,1.329,0,0,0,1.471.193.328.328,0,0,1,.261.6,2.14,2.14,0,0,1-1.016.186" transform="translate(16.21 6.858)" fill="#c6695d"/>
            <path id="Trazado_828799" data-name="Trazado 828799" d="M97.507,39.846l-.056,0a4.139,4.139,0,0,1-3.335-2.08.506.506,0,0,1,.905-.454,3.131,3.131,0,0,0,2.515,1.524l.046,0a3.069,3.069,0,0,0,2.6-.837.507.507,0,0,1,.79.635,4.064,4.064,0,0,1-3.466,1.213" transform="translate(15.957 6.282)" fill="#c6695d"/>
            <path id="Trazado_828800" data-name="Trazado 828800" d="M98.179,36.607a.473.473,0,0,0,.254-.074l2.076-1.324a.472.472,0,0,0-.029-.814,6.8,6.8,0,0,1-3.364-4.665.473.473,0,0,0-.916.236,7.867,7.867,0,0,0,3.16,4.854l-1.436.916a.472.472,0,0,0,.255.87" transform="translate(16.317 4.983)" fill="#b4665e"/>
            <path id="Trazado_828801" data-name="Trazado 828801" d="M94.582,24.51a1.148,1.148,0,0,0,.7-2.142,3.334,3.334,0,0,0-2.321-.273,8.327,8.327,0,0,0-5.752,4.667s3.877-2.124,6.083-2.284a6.407,6.407,0,0,1,1.287.032" transform="translate(14.795 3.733)" fill="#171612"/>
            <path id="Trazado_828802" data-name="Trazado 828802" d="M99.425,24.685a1.147,1.147,0,0,1-.7-2.14,3.327,3.327,0,0,1,2.321-.274c4.236.885,4.511,3.911,4.511,3.911a15.229,15.229,0,0,0-4.842-1.529,6.41,6.41,0,0,0-1.287.032" transform="translate(16.646 3.763)" fill="#171612"/>
            <g id="Grupo_1074887" data-name="Grupo 1074887" transform="translate(100.588 38.866)" opacity="0.5">
              <g id="Grupo_1074886" data-name="Grupo 1074886">
                <g id="Grupo_1074885" data-name="Grupo 1074885" clip-path="url(#clip-path-5)">
                  <path id="Trazado_828803" data-name="Trazado 828803" d="M93.851,34.305c.04.706-1.685,1.377-3.854,1.5s-3.958-.352-4-1.057,1.687-1.377,3.854-1.5,3.958.351,4,1.057" transform="translate(-85.999 -33.229)" fill="#c6695d"/>
                </g>
              </g>
            </g>
            <path id="Trazado_828804" data-name="Trazado 828804" d="M80.13,36.475a.561.561,0,0,1-.478-.432c-.9-3.894-5.646-5.412-5.694-5.427a.563.563,0,0,1,.332-1.075c.221.068,5.41,1.718,6.459,6.248a.564.564,0,0,1-.619.685" transform="translate(12.479 5.007)" fill="#c6695d"/>
            <path id="Trazado_828805" data-name="Trazado 828805" d="M74.994,34.138a.563.563,0,0,1-.421-.834A3.862,3.862,0,0,1,77.9,31.493a.563.563,0,0,1,0,1.126,2.738,2.738,0,0,0-2.347,1.234.563.563,0,0,1-.561.284" transform="translate(12.638 5.342)" fill="#c6695d"/>
            <path id="Trazado_828806" data-name="Trazado 828806" d="M90.589,17.968a7.14,7.14,0,0,1-2.6,7.047,21.35,21.35,0,0,1-4.831,2.87s5.565,11.889,1.052,13.82S79.724,30.381,72.676,30.314c0,0-2.558-.428-2.478-4.872S77.32,8.087,88.915,8.323s22.095,5.511,22.828,13.62-1.077,6.59-1.077,6.59.629-4.764-5.1-8.086c-4.753-2.756-14.976-2.48-14.976-2.48" transform="translate(11.908 1.411)" fill="#171612"/>
            <path id="Trazado_828807" data-name="Trazado 828807" d="M68.581,178.7l-5.444-10.354a3.852,3.852,0,0,1,3.452-5.646l85.571.923-2.524,13.256Z" transform="translate(10.635 27.6)" fill="#171612"/>
            <path id="Trazado_828808" data-name="Trazado 828808" d="M147.3,181.716H70.724a2.94,2.94,0,0,1-2.978-3.346l5.221-47.313a3.834,3.834,0,0,1,3.716-3.346h76.58a2.939,2.939,0,0,1,2.977,3.346l-5.221,47.313a3.832,3.832,0,0,1-3.715,3.346" transform="translate(11.489 21.665)" fill="#fff"/>
            <path id="Trazado_828809" data-name="Trazado 828809" d="M69.407,183.166a.622.622,0,0,1-.081,0,.646.646,0,0,1-.561-.722l6.357-50.678a.646.646,0,0,1,1.282.16L70.047,182.6a.646.646,0,0,1-.64.566" transform="translate(11.664 22.256)" fill="#171612"/>
            <path id="Trazado_828810" data-name="Trazado 828810" d="M101.168,152.454a6.741,6.741,0,0,0,6.252,7.314,6.958,6.958,0,0,0,7.313-6.448,6.741,6.741,0,0,0-6.252-7.314,6.958,6.958,0,0,0-7.313,6.448" transform="translate(17.159 24.766)" fill="#171612"/>
            <path id="Trazado_828811" data-name="Trazado 828811" d="M147.746,178.655H70.11a2.817,2.817,0,0,1-2.791-3.2l.739-5.41h83.321l-.842,6.172a2.816,2.816,0,0,1-2.791,2.435" transform="translate(11.416 28.847)" fill="#171612"/>
            <path id="Trazado_828812" data-name="Trazado 828812" d="M174.184,38.594a20.078,20.078,0,1,1-15.767-23.616,20.079,20.079,0,0,1,15.767,23.616" transform="translate(22.802 2.474)" fill="#539380"/>
            <path id="Trazado_828813" data-name="Trazado 828813" d="M146.986,41.863a1.914,1.914,0,0,1-.39-.04,1.942,1.942,0,0,1-1.339-1.018l-2.235-4.37a1.942,1.942,0,0,1,3.457-1.768l1.13,2.208,13.275-11.047a1.942,1.942,0,1,1,2.484,2.985l-15.141,12.6a1.944,1.944,0,0,1-1.242.449" transform="translate(24.226 4.305)" fill="#fff"/>
            <path id="Trazado_828814" data-name="Trazado 828814" d="M173.94,36.865a.5.5,0,0,1,.483.628A22.232,22.232,0,0,1,150.894,54a.514.514,0,0,1-.47-.436A.5.5,0,0,1,150.96,53a21.233,21.233,0,0,0,22.5-15.762.5.5,0,0,1,.482-.377" transform="translate(25.517 6.254)" fill="#539380"/>
            <path id="Trazado_828815" data-name="Trazado 828815" d="M137.714,37.735l-5,12.479a1.2,1.2,0,0,0,1.512,1.571l13.27-4.732Z" transform="translate(22.498 6.401)" fill="#539380"/>
          </g>
        </g>
      </g>
    </g>
  </g>
</svg>
