<svg xmlns="http://www.w3.org/2000/svg" width="86" height="86" viewBox="0 0 86 86">
  <g id="Grupo_1074676" data-name="Grupo 1074676" transform="translate(-876 -991)">
    <circle id="Elipse_9665" data-name="Elipse 9665" cx="43" cy="43" r="43" transform="translate(876 991)" fill="#ffce00"/>
    <g id="programador" transform="translate(888 1003)">
      <g id="Grupo_1074674" data-name="Grupo 1074674">
        <g id="Grupo_1074660" data-name="Grupo 1074660">
          <path id="Trazado_827792" data-name="Trazado 827792" d="M19,43.557a10,10,0,0,1,9.98,9.4l-3.98-.4-2.72-6.12a4.838,4.838,0,0,0-1.79-2.1,5.707,5.707,0,0,0-2.28-.77v-.03c.26.01.52.02.79.02Z" fill="#fcd770"/>
        </g>
        <g id="Grupo_1074661" data-name="Grupo 1074661">
          <path id="Trazado_827793" data-name="Trazado 827793" d="M22.28,46.437,25,52.557l-7.69,3.42a14.3,14.3,0,0,1-3.96-5.55,4.885,4.885,0,0,1-.35-1.8v-.22a4.848,4.848,0,0,1,4.85-4.85c.12,0,.24,0,.36.01a5.707,5.707,0,0,1,2.28.77,4.838,4.838,0,0,1,1.79,2.1Z" fill="#fcd770"/>
        </g>
        <g id="Grupo_1074662" data-name="Grupo 1074662">
          <path id="Trazado_827794" data-name="Trazado 827794" d="M34.51,12.687l-.51-.38a8.812,8.812,0,0,0,1-4.07v-.68l-6,1-1-5-6,3-1-5-7,4v-3a12.7,12.7,0,0,0-8,8l-.87.35A6.58,6.58,0,0,0,1,17.007a6.649,6.649,0,0,0,.69,2.94l.97,1.93A2.88,2.88,0,0,1,4,21.557H5a6,6,0,0,1,6-6H27a5.991,5.991,0,0,1,6,6h1a2.974,2.974,0,0,1,1.43.36l.52-.79a6.225,6.225,0,0,0-1.44-8.44Z" fill="#b27946"/>
        </g>
        <g id="Grupo_1074663" data-name="Grupo 1074663">
          <path id="Trazado_827795" data-name="Trazado 827795" d="M61,11.557v17a1,1,0,0,1-1,1H56.98A2.463,2.463,0,0,0,57,29.3a1.741,1.741,0,0,0-1.74-1.74h-.97a1.749,1.749,0,0,0-1.67,1.23l-.23.77H42a1,1,0,0,1-1-1v-17H61Z" fill="#e6e9ed"/>
        </g>
        <g id="Grupo_1074664" data-name="Grupo 1074664">
          <path id="Trazado_827796" data-name="Trazado 827796" d="M42,5.557H60a1,1,0,0,1,1,1v5H41v-5A1,1,0,0,1,42,5.557Z" fill="#b4dd7f"/>
        </g>
        <g id="Grupo_1074665" data-name="Grupo 1074665">
          <path id="Trazado_827797" data-name="Trazado 827797" d="M52.44,44.557l-2.06,6.77a1.749,1.749,0,0,1-1.67,1.23h-.97A1.741,1.741,0,0,1,46,50.817a1.807,1.807,0,0,1,.08-.51l6.31-20.75.23-.77a1.749,1.749,0,0,1,1.67-1.23h.97A1.741,1.741,0,0,1,57,29.3a2.462,2.462,0,0,1-.02.26c-.02.08-.04.16-.06.25l-1.84,6.04v.01Z" fill="#ccd1d9"/>
        </g>
        <g id="Grupo_1074666" data-name="Grupo 1074666">
          <path id="Trazado_827798" data-name="Trazado 827798" d="M61,57.557v3a1,1,0,0,1-1,1H50a1,1,0,0,1-1-1v-2a1,1,0,0,1,1-1Z" fill="#aab2bd"/>
        </g>
        <g id="Grupo_1074667" data-name="Grupo 1074667">
          <path id="Trazado_827799" data-name="Trazado 827799" d="M45,58.557v2a1,1,0,0,1-1,1H30a1,1,0,0,1-1-1v-2a1,1,0,0,1,1-1H44A1,1,0,0,1,45,58.557Z" fill="#aab2bd"/>
        </g>
        <g id="Grupo_1074668" data-name="Grupo 1074668">
          <path id="Trazado_827800" data-name="Trazado 827800" d="M35,57.557H30a1,1,0,0,0-1,1v1H26.84a14.431,14.431,0,0,1-9.53-3.58L25,52.557l3.98.4,2.04.2a4.425,4.425,0,0,1,3.98,4.4Z" fill="#f0d0b4"/>
        </g>
        <g id="Grupo_1074669" data-name="Grupo 1074669">
          <path id="Trazado_827801" data-name="Trazado 827801" d="M35.43,21.917A3,3,0,0,1,34,27.557H33v-6h1a2.974,2.974,0,0,1,1.43.36Z" fill="#f0d0b4"/>
        </g>
        <g id="Grupo_1074670" data-name="Grupo 1074670">
          <path id="Trazado_827802" data-name="Trazado 827802" d="M21,23.557a2.006,2.006,0,0,1,2-2h8a2.006,2.006,0,0,1,2,2v-2a5.991,5.991,0,0,0-6-6H11a6,6,0,0,0-6,6v2a2.006,2.006,0,0,1,2-2h8a2.006,2.006,0,0,1,2,2v6a2.006,2.006,0,0,1-2,2H7a2.006,2.006,0,0,1-1.99-1.8,14,14,0,0,0,13.2,13.78c.26.01.52.02.79.02a13.983,13.983,0,0,0,13.99-13.8,2.006,2.006,0,0,1-1.99,1.8H23a2.006,2.006,0,0,1-2-2v-6Z" fill="#f0d0b4"/>
        </g>
        <g id="Grupo_1074671" data-name="Grupo 1074671">
          <path id="Trazado_827803" data-name="Trazado 827803" d="M5,21.557v6H4a3,3,0,0,1-1.34-5.68A2.88,2.88,0,0,1,4,21.557Z" fill="#f0d0b4"/>
        </g>
        <g id="Grupo_1074672" data-name="Grupo 1074672">
          <path id="Trazado_827804" data-name="Trazado 827804" d="M33,27.557v2a1.275,1.275,0,0,1-.01.2,2.006,2.006,0,0,1-1.99,1.8H23a2.006,2.006,0,0,1-2-2v-6a2.006,2.006,0,0,1,2-2h8a2.006,2.006,0,0,1,2,2Z" fill="#69d6f4"/>
        </g>
        <g id="Grupo_1074673" data-name="Grupo 1074673">
          <path id="Trazado_827805" data-name="Trazado 827805" d="M17,25.557v4a2.006,2.006,0,0,1-2,2H7a2.006,2.006,0,0,1-1.99-1.8,1.275,1.275,0,0,1-.01-.2v-6a2.006,2.006,0,0,1,2-2h8a2.006,2.006,0,0,1,2,2Z" fill="#69d6f4"/>
        </g>
      </g>
      <g id="Grupo_1074675" data-name="Grupo 1074675">
        <path id="Trazado_827806" data-name="Trazado 827806" d="M24.9,36l-1.789-.9a2.6,2.6,0,0,1-2.342,1.447H16v2h4.764A4.6,4.6,0,0,0,24.9,36Z"/>
        <path id="Trazado_827807" data-name="Trazado 827807" d="M9,27.793a2.236,2.236,0,0,1,4,0l.1.211,1.789-.9-.1-.211a4.236,4.236,0,0,0-7.578,0l-.105.211L8.9,28Z"/>
        <path id="Trazado_827808" data-name="Trazado 827808" d="M27,24.557A4.212,4.212,0,0,0,23.211,26.9l-.1.211L24.9,28l.1-.212a2.236,2.236,0,0,1,4,0l.1.211,1.789-.9-.1-.211A4.213,4.213,0,0,0,27,24.557Z"/>
        <path id="Trazado_827809" data-name="Trazado 827809" d="M44,56.557H35.907a5.4,5.4,0,0,0-4.787-4.394l-1.232-.123A11,11,0,0,0,23.9,43.717,15.012,15.012,0,0,0,34,29.557v-1a3.993,3.993,0,0,0,2.78-6.866l.006-.01a7.216,7.216,0,0,0-1.559-9.692A9.723,9.723,0,0,0,36,8.232V6.376L29.791,7.411,28.724,2.077l-6,3L21.708,0,15,3.833V1.169l-1.316.439A13.713,13.713,0,0,0,5.208,9.8l-.448.179A7.534,7.534,0,0,0,0,17.006a7.613,7.613,0,0,0,.8,3.386l.583,1.165a3.983,3.983,0,0,0,2.618,7v1A15.017,15.017,0,0,0,14.278,43.784,5.833,5.833,0,0,0,12,48.4v.218a5.851,5.851,0,0,0,.418,2.172,15.455,15.455,0,0,0,14.419,9.762H28a2,2,0,0,0,2,2H44a2,2,0,0,0,2-2v-2a2,2,0,0,0-2-2ZM27.826,51.834l-2.148-.215L23.195,46.03a5.83,5.83,0,0,0-.313-.584A9,9,0,0,1,27.826,51.834ZM31,30.557H23a1,1,0,0,1-1-1v-6a1,1,0,0,1,1-1h8a1,1,0,0,1,1,1v6A1,1,0,0,1,31,30.557Zm-11-7v1H18v-1a3,3,0,0,0-3-3H7a2.953,2.953,0,0,0-.915.158A5,5,0,0,1,11,16.557H27a5,5,0,0,1,4.915,4.158A2.953,2.953,0,0,0,31,20.557H23A3,3,0,0,0,20,23.557Zm-14,6v-6a1,1,0,0,1,1-1h8a1,1,0,0,1,1,1v6a1,1,0,0,1-1,1H7A1,1,0,0,1,6,29.557Zm28-3v-4a2,2,0,0,1,0,4Zm2-8.886a5.217,5.217,0,0,1-.878,2.9l-.091.137A3.946,3.946,0,0,0,34,20.557h-.08a6.984,6.984,0,0,0-2.265-4.213,9.752,9.752,0,0,0,2.6-2.564A5.248,5.248,0,0,1,36,17.671ZM13,4.036V7.28l7.292-4.167.984,4.923,6-3L28.209,9.7l5.774-.962a7.769,7.769,0,0,1-4.212,6.391A6.963,6.963,0,0,0,27,14.556H11a7,7,0,0,0-1.071.091L7.12,10.434A11.708,11.708,0,0,1,13,4.036ZM2.588,19.5A5.571,5.571,0,0,1,5.5,11.833l.116-.047L7.941,15.27A7.008,7.008,0,0,0,4.08,20.556H4a3.973,3.973,0,0,0-.836.091ZM2,24.557a2,2,0,0,1,2-2v4a2,2,0,0,1-2-2Zm4.343,7.922A2.96,2.96,0,0,0,7,32.556h8a3,3,0,0,0,3-3v-3h2v3a3,3,0,0,0,3,3h8a3.028,3.028,0,0,0,.657-.077,12.987,12.987,0,0,1-25.314,0Zm7.932,17.575A3.869,3.869,0,0,1,14,48.623v-.218a3.849,3.849,0,0,1,7.367-1.563l2.314,5.206L17.48,54.8a13.547,13.547,0,0,1-3.2-4.75ZM28,58.557H26.837a13.507,13.507,0,0,1-7.62-2.335l5.948-2.643,5.756.575a3.4,3.4,0,0,1,2.918,2.4H30A2,2,0,0,0,28,58.557Zm2,2v-2H44l0,2Z"/>
        <path id="Trazado_827810" data-name="Trazado 827810" d="M32.293,40.85l-3.707,3.707,3.707,3.707,1.414-1.414-2.293-2.293,2.293-2.293Z"/>
        <path id="Trazado_827811" data-name="Trazado 827811" d="M41.707,48.264l3.707-3.707L41.707,40.85l-1.414,1.414,2.293,2.293L40.293,46.85Z"/>
        <path id="Trazado_827812" data-name="Trazado 827812" d="M31.615,43.557h10.77v2H31.615Z" transform="translate(-18.111 62.362) rotate(-68.23)"/>
        <path id="Trazado_827813" data-name="Trazado 827813" d="M60,30.557a2,2,0,0,0,2-2v-22a2,2,0,0,0-2-2H42a2,2,0,0,0-2,2v22a2,2,0,0,0,2,2h9.041L45.118,50.019a2.741,2.741,0,0,0,2.623,3.537h.969a2.727,2.727,0,0,0,2.623-1.943l1.843-6.057h3.641l3.106,10.868c.013.044.023.088.032.132H50a2,2,0,0,0-2,2v2a2,2,0,0,0,2,2H60a2,2,0,0,0,2-2v-3.58a4.077,4.077,0,0,0-.153-1.1L56.127,35.86l1.614-5.3H60Zm0,30H50v-2H60Zm-2.115-32a2.737,2.737,0,0,0-2.627-2H54.29a2.766,2.766,0,0,0-.29.023V12.557h6v16ZM60,6.557v4H50v-2H48v2H46v-2H44v2H42v-4Zm-18,22v-16H52V27.8a2.775,2.775,0,0,0-.333.7l-.017.057H42ZM49.42,51.03a.74.74,0,0,1-.71.526h-.969A.741.741,0,0,1,47,50.815a.753.753,0,0,1,.032-.216L53.58,29.082a.74.74,0,0,1,.71-.526h.969A.741.741,0,0,1,56,29.3a.753.753,0,0,1-.032.216Zm6.826-7.473H53.785l1.269-4.17Z"/>
        <path id="Trazado_827814" data-name="Trazado 827814" d="M56,14.557h2v2H56Z"/>
        <path id="Trazado_827815" data-name="Trazado 827815" d="M56,18.557h2v2H56Z"/>
        <path id="Trazado_827816" data-name="Trazado 827816" d="M44,14.557h6v2H44Z"/>
        <path id="Trazado_827817" data-name="Trazado 827817" d="M44,18.557h6v2H44Z"/>
        <path id="Trazado_827818" data-name="Trazado 827818" d="M44,22.557h6v2H44Z"/>
        <path id="Trazado_827819" data-name="Trazado 827819" d="M56,22.557h2v2H56Z"/>
      </g>
    </g>
  </g>
</svg>
