<svg xmlns="http://www.w3.org/2000/svg" width="298" height="111.898" viewBox="0 0 298 111.898">
  <g id="Grupo_1074956" data-name="Grupo 1074956" transform="translate(-471 -2778)">
    <rect id="Rectángulo_383770" data-name="Rectángulo 383770" width="298" height="61" rx="8" transform="translate(471 2805)" fill="#3ee2a8"/>
    <g id="sistema-operativo" transform="translate(546 2771)">
      <path id="Trazado_829096" data-name="Trazado 829096" d="M43,8H83.283V115.422H43Z" transform="translate(50.757 1.238)" fill="#b7b6b7"/>
      <path id="Trazado_829097" data-name="Trazado 829097" d="M51.332,63.428,47.952,50H23.379L20,63.428" transform="translate(22.283 53.233)" fill="#484c4f"/>
      <path id="Trazado_829098" data-name="Trazado 829098" d="M9.714,89.615H3V18H110.422V89.615H23.142" transform="translate(1.238 13.618)" fill="#4a8cdd"/>
      <path id="Trazado_829099" data-name="Trazado 829099" d="M103.709,18V78.425A4.476,4.476,0,0,1,99.233,82.9H3v6.714H110.422V18Z" transform="translate(1.238 13.618)" fill="#356baa"/>
      <path id="Trazado_829100" data-name="Trazado 829100" d="M24.375,66.334a5.752,5.752,0,0,1-.9,5.528,26.5,26.5,0,0,0,9.176,3.849,5.662,5.662,0,0,1,11.19,0,26.61,26.61,0,0,0,9.2-3.849,5.729,5.729,0,0,1,.425-7.631,5.6,5.6,0,0,1,7.542-.425,26.855,26.855,0,0,0,3.916-9.265,5.729,5.729,0,0,1,0-11.369A26.856,26.856,0,0,0,61.1,33.906a5.6,5.6,0,0,1-7.542-.425,5.729,5.729,0,0,1-.425-7.631A26.609,26.609,0,0,0,43.935,22a5.662,5.662,0,0,1-11.19,0,26.5,26.5,0,0,0-9.176,3.849,5.752,5.752,0,0,1,.9,5.528" transform="translate(26.592 18.57)" fill="#e2ba4b"/>
      <ellipse id="Elipse_9913" data-name="Elipse 9913" cx="13.5" cy="13" rx="13.5" ry="13" transform="translate(51 55)" fill="#b7b6b7"/>
      <path id="Trazado_829101" data-name="Trazado 829101" d="M39.326,59.793a19.18,19.18,0,0,1-4.834,2.014,4.633,4.633,0,0,0-9.064,0,19.179,19.179,0,0,1-4.834-2.014,4.61,4.61,0,0,0-6.468-6.468,19.179,19.179,0,0,1-2.014-4.834A4.633,4.633,0,0,0,12,39.428a19.179,19.179,0,0,1,2.014-4.834,4.61,4.61,0,0,0,6.468-6.468A19.179,19.179,0,0,1,25.428,26,4.633,4.633,0,0,0,34.6,26a19.179,19.179,0,0,1,4.834,2.014,4.61,4.61,0,0,0,6.468,6.468,19.179,19.179,0,0,1,1.9,4.946,4.633,4.633,0,0,0,0,9.176,19.179,19.179,0,0,1-2.014,4.834,4.61,4.61,0,0,0-6.468,6.468Z" transform="translate(12.38 23.521)" fill="#fad55c"/>
      <circle id="Elipse_9914" data-name="Elipse 9914" cx="7" cy="7" r="7" transform="translate(36 60)" fill="#b7b6b7"/>
      <path id="Trazado_829102" data-name="Trazado 829102" d="M134.04,7H93.757a2.238,2.238,0,0,0-2.238,2.238V29.38H4.238A2.238,2.238,0,0,0,2,31.618v71.615a2.238,2.238,0,0,0,2.238,2.238h6.714v-4.476H6.476V33.856H109.422v67.139H24.38v4.476H42.8l-2.238,8.952H26.618V118.9H89.281v-4.476H75.361l-2.238-8.952h18.4v11.19a2.238,2.238,0,0,0,2.238,2.238H134.04a2.238,2.238,0,0,0,2.238-2.238V9.238A2.238,2.238,0,0,0,134.04,7ZM70.75,114.422h-25.6l2.238-8.952H68.468Zm61.052,0H95.995v-8.952H111.66a2.238,2.238,0,0,0,2.238-2.238V51.759h13.428V47.283H113.9V38.332h13.428V33.856H113.9V31.618a2.238,2.238,0,0,0-2.238-2.238H95.995v-17.9H131.8Z"/>
      <path id="Trazado_829103" data-name="Trazado 829103" d="M8,49h4.476v4.476H8Z" transform="translate(7.428 51.995)"/>
      <path id="Trazado_829104" data-name="Trazado 829104" d="M46,13H72.856v4.476H46Z" transform="translate(54.471 7.428)"/>
      <path id="Trazado_829105" data-name="Trazado 829105" d="M27.8,30.358a2.238,2.238,0,0,0-1.813-.38,20.881,20.881,0,0,0-5.416,2.238,2.238,2.238,0,0,0-.627,3.379,2.375,2.375,0,0,1-3.335,3.335,2.238,2.238,0,0,0-3.29.627,21.328,21.328,0,0,0-2.238,5.416,2.262,2.262,0,0,0,1.9,2.8,2.372,2.372,0,0,1,0,4.7,2.262,2.262,0,0,0-1.9,2.8,21.328,21.328,0,0,0,2.238,5.416,2.239,2.239,0,0,0,3.29.627,2.372,2.372,0,0,1,3.335,3.335,2.238,2.238,0,0,0,.627,3.379,20.881,20.881,0,0,0,5.416,2.238,2.229,2.229,0,0,0,2.775-1.9,2.395,2.395,0,0,1,4.744,0,2.219,2.219,0,0,0,2.216,1.969,2.394,2.394,0,0,0,.559,0c.559-.157,1.074-.358,1.611-.559a3.446,3.446,0,0,1-.739,2.1,2.251,2.251,0,0,0,.515,3.245,28.959,28.959,0,0,0,9.981,4.1,2.246,2.246,0,0,0,2.686-1.969,3.424,3.424,0,0,1,6.826,0A2.238,2.238,0,0,0,59.4,79.258h.47a28.669,28.669,0,0,0,9.959-4.185,2.205,2.205,0,0,0,.515-3.245,3.491,3.491,0,0,1,.269-4.677,3.357,3.357,0,0,1,4.476-.246,2.248,2.248,0,0,0,3.29-.515A29.093,29.093,0,0,0,82.6,56.274a2.238,2.238,0,0,0-1.947-2.686,3.491,3.491,0,0,1,0-6.938A2.238,2.238,0,0,0,82.6,43.965a29.094,29.094,0,0,0-4.14-10.026,2.248,2.248,0,0,0-3.29-.515,3.357,3.357,0,0,1-4.476-.269,3.491,3.491,0,0,1-.246-4.655,2.205,2.205,0,0,0-.515-3.245,28.668,28.668,0,0,0-10.093-4.23A2.246,2.246,0,0,0,57.159,23a3.424,3.424,0,0,1-6.826,0,2.246,2.246,0,0,0-2.686-1.969,28.959,28.959,0,0,0-9.981,4.185,2.251,2.251,0,0,0-.515,3.245,3.447,3.447,0,0,1,.739,2.1c-.537-.2-1.052-.4-1.611-.559A2.229,2.229,0,0,0,33.5,31.9a2.395,2.395,0,0,1-4.744,0,2.238,2.238,0,0,0-.962-1.544Zm23.1,23.1a2.238,2.238,0,0,0-1.589-.985,2.372,2.372,0,0,1,0-4.7,2.364,2.364,0,0,0,1.969-2.8,20.947,20.947,0,0,0-2.238-5.125,11.19,11.19,0,1,1,0,20.545,20.947,20.947,0,0,0,2.238-5.125,2.238,2.238,0,0,0-.38-1.813ZM46.551,25.972a7.878,7.878,0,0,0,14.39,0,24.149,24.149,0,0,1,4.633,1.947,7.967,7.967,0,0,0,1.813,8.392,7.788,7.788,0,0,0,8.348,1.858,23.5,23.5,0,0,1,1.925,4.722,7.967,7.967,0,0,0,0,14.457,23.5,23.5,0,0,1-1.925,4.722,7.788,7.788,0,0,0-8.325,1.835,7.967,7.967,0,0,0-1.835,8.415,24.149,24.149,0,0,1-4.633,1.947,7.878,7.878,0,0,0-14.39,0A24.349,24.349,0,0,1,41.9,72.32a8.057,8.057,0,0,0,.224-4.767,2.154,2.154,0,0,0,.2-2.909,2.4,2.4,0,0,1,.2-3.156h.134a15.666,15.666,0,1,0,0-22.559l-.157-.112a2.4,2.4,0,0,1-.179-3.133,2.154,2.154,0,0,0-.2-2.909,8.057,8.057,0,0,0-.224-4.767,24.349,24.349,0,0,1,4.655-2.037ZM31.131,38.5a6.871,6.871,0,0,0,5.975-3.491l.47.2a6.871,6.871,0,0,0,8.46,8.46l.2.47a6.848,6.848,0,0,0,0,11.951l-.2.47a6.871,6.871,0,0,0-8.46,8.46l-.47.2a6.848,6.848,0,0,0-11.951,0l-.47-.2a6.871,6.871,0,0,0-8.46-8.459l-.2-.47a6.848,6.848,0,0,0,0-11.951l.2-.47a6.871,6.871,0,0,0,8.46-8.46l.47-.2A6.871,6.871,0,0,0,31.131,38.5Z" transform="translate(11.152 17.306)"/>
      <path id="Trazado_829106" data-name="Trazado 829106" d="M20.077,21.649l-6.043,6.065H6V32.19h8.952a2.238,2.238,0,0,0,1.589-.649l6.043-6.065h8.034V21H21.666A2.238,2.238,0,0,0,20.077,21.649Z" transform="translate(4.952 17.332)"/>
      <path id="Trazado_829107" data-name="Trazado 829107" d="M19,21h4.476v4.476H19Z" transform="translate(21.045 17.332)"/>
      <path id="Trazado_829108" data-name="Trazado 829108" d="M6,46.476h8.034l6.043,6.065a2.238,2.238,0,0,0,1.589.649h8.952V48.714H22.583l-6.043-6.065A2.238,2.238,0,0,0,14.952,42H6Z" transform="translate(4.952 43.329)"/>
      <path id="Trazado_829109" data-name="Trazado 829109" d="M19,45h4.476v4.476H19Z" transform="translate(21.045 47.043)"/>
      <path id="Trazado_829110" data-name="Trazado 829110" d="M39,45h4.476v4.476H39Z" transform="translate(45.805 47.043)"/>
      <path id="Trazado_829111" data-name="Trazado 829111" d="M39,21h4.476v4.476H39Z" transform="translate(45.805 17.332)"/>
      <path id="Trazado_829112" data-name="Trazado 829112" d="M16,38.952A8.952,8.952,0,1,0,24.952,30,8.952,8.952,0,0,0,16,38.952Zm8.952-4.476a4.476,4.476,0,1,1-4.476,4.476A4.476,4.476,0,0,1,24.952,34.476Z" transform="translate(17.332 28.473)"/>
    </g>
  </g>
</svg>
