<svg xmlns="http://www.w3.org/2000/svg" xmlns:xlink="http://www.w3.org/1999/xlink" width="95.172" height="95.172" viewBox="0 0 95.172 95.172">
  <defs>
    <clipPath id="clip-path">
      <path id="Trazado_819313" data-name="Trazado 819313" d="M17.313,58.524A47.586,47.586,0,1,0,64.9,10.939,47.587,47.587,0,0,0,17.313,58.524" transform="translate(-17.313 -10.939)" fill="#273a89"/>
    </clipPath>
  </defs>
  <g id="Grupo_1074694" data-name="Grupo 1074694" transform="translate(-595 -1563)">
    <g id="Grupo_1074595" data-name="Grupo 1074595" transform="translate(319.82 -1.18)">
      <g id="Grupo_1074593" data-name="Grupo 1074593" transform="translate(275.18 1564.18)">
        <g id="Grupo_1072913" data-name="Grupo 1072913" clip-path="url(#clip-path)">
          <path id="Trazado_819307" data-name="Trazado 819307" d="M105.258,23.216,87.379,5.336,70.546,22.17,53.617,5.242,35.928,22.931l-17.5-17.5L2.621,21.24,0,18.619,18.429.19l17.5,17.5L53.617,0,70.546,16.928,87.379.095l17.88,17.88L122.017,1.216l2.622,2.62Z" transform="translate(-18.626 -11.769)" fill="#273a89"/>
          <path id="Trazado_819308" data-name="Trazado 819308" d="M105.258,40.011,87.379,22.133,70.546,38.964,53.617,22.037,35.928,39.726l-17.5-17.5L2.621,38.036,0,35.414,18.429,16.986l17.5,17.5L53.617,16.8,70.546,33.724,87.379,16.891l17.88,17.879,16.759-16.759,2.622,2.62Z" transform="translate(-18.626 -10.495)" fill="#273a89"/>
          <path id="Trazado_819309" data-name="Trazado 819309" d="M105.258,56.806,87.379,38.928,70.546,55.761,53.617,38.833,35.928,56.521l-17.5-17.5L2.621,54.831,0,52.209,18.429,33.781l17.5,17.5L53.617,33.59,70.546,50.519,87.379,33.686l17.88,17.879,16.759-16.759,2.622,2.621Z" transform="translate(-18.626 -9.221)" fill="#273a89"/>
          <path id="Trazado_819310" data-name="Trazado 819310" d="M105.258,73.6l-17.88-17.88L70.546,72.556,53.617,55.628,35.928,73.317l-17.5-17.5L2.621,71.626,0,69.005,18.429,50.577l17.5,17.5L53.617,50.387,70.546,67.315,87.379,50.481l17.88,17.88L122.017,51.6l2.622,2.621Z" transform="translate(-18.626 -7.946)" fill="#273a89"/>
          <path id="Trazado_819311" data-name="Trazado 819311" d="M105.258,90.4l-17.88-17.88L70.546,89.351,53.617,72.423,35.928,90.113l-17.5-17.5L2.621,88.422,0,85.8l18.428-18.43,17.5,17.5L53.617,67.182,70.546,84.11,87.379,67.277l17.88,17.88L122.017,68.4l2.622,2.621Z" transform="translate(-18.626 -6.672)" fill="#273a89"/>
          <path id="Trazado_819312" data-name="Trazado 819312" d="M105.258,107.193,87.379,89.314,70.546,106.147,53.617,89.22,35.928,106.908l-17.5-17.5L2.621,105.218,0,102.6,18.429,84.167l17.5,17.5L53.617,83.977l16.929,16.929L87.379,84.073l17.88,17.879,16.759-16.759,2.622,2.621Z" transform="translate(-18.626 -5.398)" fill="#273a89"/>
        </g>
      </g>
      <circle id="Elipse_9903" data-name="Elipse 9903" cx="35.5" cy="35.5" r="35.5" transform="translate(287.266 1576.266)" fill="#fff"/>
    </g>
    <g id="Grupo_1074693" data-name="Grupo 1074693" transform="translate(3 0.902)">
      <path id="Trazado_824935" data-name="Trazado 824935" d="M110.023,11.019l-.912-.4a7.3,7.3,0,0,0-2.933-9.479A8.054,8.054,0,0,0,95.393,3.5a7.262,7.262,0,0,0-1.077,2.654,16.017,16.017,0,0,0-9.778-3.29c-8.618,0-15.628,6.694-15.628,14.922a14.651,14.651,0,0,0,5.724,11.534H59.114v3.55H102.03l.025,1.29a.8.8,0,0,0,1.2.635l2.9-1.665,2.9-1.665a.741.741,0,0,0-.025-1.312l-2.958-1.562-2.958-1.562a.793.793,0,0,0-1.178.677l.031,1.615H94.443a14.651,14.651,0,0,0,5.724-11.534,14.446,14.446,0,0,0-3.508-9.409,4.97,4.97,0,0,1,.75-3.669,5.6,5.6,0,0,1,7.506-1.64,5.077,5.077,0,0,1,2.036,6.606l-.96-.421a.5.5,0,0,0-.712.482l.206,2.11.206,2.11a.508.508,0,0,0,.793.348l1.811-1.225,1.81-1.225a.471.471,0,0,0-.081-.83M84.538,29.155a11.664,11.664,0,0,1-11.91-11.372,11.923,11.923,0,0,1,23.82,0,11.664,11.664,0,0,1-11.91,11.372" transform="translate(557.886 1592.098)" fill="#12263f"/>
      <g id="Elipse_9907" data-name="Elipse 9907" transform="translate(622 1619)" fill="#fff" stroke="#12263f" stroke-width="1">
        <circle cx="4" cy="4" r="4" stroke="none"/>
        <circle cx="4" cy="4" r="3.5" fill="none"/>
      </g>
      <g id="Elipse_9908" data-name="Elipse 9908" transform="translate(611 1619)" fill="#fff" stroke="#12263f" stroke-width="1">
        <circle cx="4" cy="4" r="4" stroke="none"/>
        <circle cx="4" cy="4" r="3.5" fill="none"/>
      </g>
      <g id="Elipse_9909" data-name="Elipse 9909" transform="translate(659 1607)" fill="#fff" stroke="#12263f" stroke-width="1">
        <circle cx="4" cy="4" r="4" stroke="none"/>
        <circle cx="4" cy="4" r="3.5" fill="none"/>
      </g>
    </g>
  </g>
</svg>
